<?xml version="1.0" encoding="UTF-8"?>
<COLLADA xmlns="http://www.collada.org/2005/11/COLLADASchema" version="1.4.1">
    <asset>
        <contributor>
            <author>VCGLab</author>
            <authoring_tool>VCGLib | MeshLab</authoring_tool>
        </contributor>
        <created>Thu Jul 3 01:55:16 2025 GMT</created>
        <modified>Thu Jul 3 01:55:16 2025 GMT</modified>
        <up_axis>Y_UP</up_axis>
    </asset>
    <library_images>
        <image id="texture0" name="texture0">
            <init_from>./image/shelf_items.png</init_from>
        </image>
    </library_images>
    <library_materials>
        <material id="material0" name="material0">
            <instance_effect url="#material0-fx"/>
        </material>
    </library_materials>
    <library_effects>
        <effect id="material0-fx">
            <profile_COMMON>
                <newparam sid="texture0-surface">
                    <surface type="2D">
                        <init_from>texture0</init_from>
                        <format>R8G8B8</format>
                    </surface>
                </newparam>
                <newparam sid="texture0-sampler">
                    <sampler2D>
                        <source>texture0-surface</source>
                        <minfilter>LINEAR</minfilter>
                        <magfilter>LINEAR</magfilter>
                    </sampler2D>
                </newparam>
                <technique sid="common">
                    <blinn>
                        <diffuse>
                            <texture texture="texture0-sampler" texcoord="UVSET0"/>
                        </diffuse>
                    </blinn>
                </technique>
            </profile_COMMON>
        </effect>
    </library_effects>
    <library_geometries>
        <geometry id="shape0-lib" name="shape0">
            <mesh>
                <source id="shape0-lib-positions" name="position">
                    <float_array id="shape0-lib-positions-array" count="204">-1.90735e-09 0.09468 -0.03011 -0.0119053 0.09468 -0.0277419 -0.0219982 0.09468 -0.0209981 -0.028742 0.09468 -0.0109053 -0.0311971 0.09468 0.00610233 -0.0219982 0.09468 0.0229981 -0.0119053 0.09468 0.0297419 0.00510227 0.09468 0.032197 0.021998 0.09468 0.0229981 0.0287418 0.09468 0.0129053 0.0311969 0.09468 -0.00410233 0.021998 0.09468 -0.0209981 0.0119052 0.09468 -0.0277419 -5.18861e-05 0.103649 -0.0296508 -0.0117776 0.103649 -0.0272978 -0.0217102 0.103649 -0.0206368 -0.0283377 0.103649 -0.0106814 -0.030651 0.103649 0.00105182 -0.028298 0.103649 0.0127774 -0.0216368 0.103649 0.0227101 -0.0116816 0.103649 0.0293376 5.20418e-05 0.103649 0.0316509 0.0117773 0.103649 0.0292979 0.0217101 0.103649 0.0226366 0.0283375 0.103649 0.0126816 0.0306508 0.103649 0.0009481 0.0282978 0.103649 -0.0107775 0.0216364 0.103649 -0.0207103 0.0116815 0.103649 -0.0273375 -0.0229055 0.100854 0.00416617 0.00316606 0.100854 0.0239058 0.0224878 0.100959 -0.00280832 -0.00316667 0.100854 -0.0219057 -1.90735e-09 0.09468 0.001 -0.00405313 -5.12408e-05 -0.0244685 -0.0208719 -5.41927e-05 -0.0141423 -0.0255901 -1.40333e-05 0.00491883 -0.0151424 -5.41929e-05 0.0218717 0.0039358 -5.09571e-05 0.0265652 0.0208717 -5.41953e-05 0.0161424 0.0255651 -5.09559e-05 -0.00293615 0.0151425 -5.41933e-05 -0.0198716 -0.00599609 0.0960508 -0.0240846 -0.0180312 0.096 -0.0170312 -0.0255146 0.0960535 -0.00352947 -0.0210482 0.0960607 0.0160108 -0.00452945 0.0960535 0.0265145 0.00975835 0.096 0.0245589 0.0219887 0.0960499 0.0144791 0.0235589 0.096 -0.00875843 0.0134792 0.0960499 -0.0209886 -0.00682046 0.0806148 -0.0328741 -0.0240417 0.081 -0.0230416 -0.0338585 0.0811082 -0.00601517 -0.0279426 0.0810286 0.020935 -0.00701519 0.0811082 0.0348585 0.0199351 0.0810286 0.0289424 0.0354417 0.0815656 0.00137067 0.0198967 0.0807626 -0.027308 -0.00631072 0.0132699 -0.0326497 -0.0282578 0.0132687 -0.0183261 -0.0340026 0.0136533 0.00692113 -0.0193262 0.0132687 0.0292578 0.00592111 0.0136533 0.0350026 0.0282579 0.0132687 0.020326 0.0340025 0.0136533 -0.00492139 0.0193262 0.0132687 -0.0272578 0.0253888 0.0960063 0.00090816</float_array>
                    <technique_common>
                        <accessor count="68" source="#shape0-lib-positions-array" stride="3">
                            <param name="X" type="float"/>
                            <param name="Y" type="float"/>
                            <param name="Z" type="float"/>
                        </accessor>
                    </technique_common>
                </source>
                <source id="shape0-lib-normals" name="normal">
                    <float_array id="shape0-lib-normals-array" count="384">-0.194855 0.0490257 -0.979606 -0.196492 0.0512834 -0.979163 -0.554899 0.0490245 -0.830472 -0.556241 0.0512808 -0.829437 -0.830469 0.0490274 -0.554903 -0.831314 0.0512859 -0.553431 -0.988594 0.0481234 -0.142709 -0.97993 -0.049116 -0.193195 -0.966507 0.168072 0.193947 -0.875999 -0.0718004 0.476939 -0.829436 0.0512791 0.556244 -0.554899 0.0490223 0.830472 -0.553428 0.0512801 0.831317 -0.142709 0.0481256 0.988594 -0.193193 -0.0491085 0.979931 0.193951 0.168068 0.966507 0.47694 -0.0718 0.875998 0.556246 0.0512826 0.829434 0.83047 0.0490199 0.554903 0.831315 0.0512786 0.553431 0.988594 0.0481258 0.142709 0.97993 -0.0491168 0.193196 0.966506 0.168072 -0.193952 0.875999 -0.0718009 -0.476939 0.829431 0.0512886 -0.55625 0.554903 0.04902 -0.83047 0.55343 0.0512807 -0.831315 0.194856 0.0490244 -0.979606 0.193175 0.0512815 -0.979823 -0.118667 0.976803 0.178252 -0.117943 0.981155 0.15305 -0.0623977 0.94654 0.316494 0.0731324 0.928353 0.364435 0.160719 0.957463 0.239654 0.178255 0.976802 0.11867 0.155899 0.980696 0.118032 0.316491 0.946541 0.0623975 0.364423 0.928358 -0.0731284 0.239647 0.957466 -0.160714 0.118669 0.976802 -0.178255 0.11803 0.980697 -0.155895 0.062398 0.946539 -0.316499 -0.0731311 0.928355 -0.364428 -0.160714 0.957465 -0.239648 -0.163223 0.980587 -0.108661 -0.15542 0.981866 -0.108558 -0.288761 0.955707 -0.0569319 -0.340489 0.937762 0.0683288 -0.231609 0.960329 0.155327 -0.00261565 0.999995 -0.00197858 -0.00192226 0.999995 0.00253434 0 -1 0 0 -1 0 0 -1 0 0 -1 0 0 -1 0 0 -1 0 0 -1 0 0 -1 0 0 -1 0 0 -1 0 0 -1 0 0 -1 0 0 -1 0 -0.431457 0.463684 -0.773849 -0.444814 0.480969 -0.75552 -0.758491 0.480381 -0.44037 -0.759464 0.494341 -0.422897 -0.870106 0.453785 0.192341 -0.864924 0.461397 0.197531 -0.491247 0.466302 0.735689 -0.467936 0.488869 0.736236 0.192343 0.453788 0.870104 0.127947 0.357803 0.92499 0.530069 0.549423 0.64588 0.817698 0.337335 0.46645 0.801309 0.564201 0.198952 0.813196 0.561162 -0.154305 0.817649 0.355126 -0.45314 0.666585 0.506075 -0.547313 0.180858 0.439608 -0.879793 0.137354 0.484581 -0.863895 -0.546529 -0.00692667 -0.837411 -0.496108 -0.0295321 -0.867759 -0.475627 -0.492552 -0.728815 -0.4462 -0.522044 -0.726895 -0.866109 0.0191388 -0.499488 -0.974416 -0.040321 -0.221107 -0.848718 -0.495217 -0.185575 -0.827703 -0.522858 -0.203781 -0.975806 0.0431889 0.214331 -0.835413 -0.0388917 0.548245 -0.731648 -0.49158 0.472271 -0.730187 -0.515194 0.448778 -0.553732 0.0317909 0.832088 -0.221108 -0.0403213 0.974416 -0.185529 -0.495547 0.848535 -0.203555 -0.522832 0.827776 0.214334 0.0431894 0.975805 0.548246 -0.038892 0.835412 0.472272 -0.491578 0.731649 0.449304 -0.514676 0.730229 0.870374 0.0445495 0.490373 0.974388 -0.0411317 0.22108 0.848536 -0.495549 0.185521 0.827776 -0.522834 0.203547 0.835014 0.0331906 -0.549226 0.87922 -0.00778711 -0.476353 0.731648 -0.49158 -0.472272 0.730229 -0.514673 -0.449308 0.205816 -0.00246844 -0.978588 0.203962 -0.00171769 -0.978977 0.179084 -0.49266 -0.851596 0.198542 -0.522168 -0.829411 -0.00038878 -0.999999 0.000981182 -0.000632636 -1 0.000580509 -0.000777205 -1 -0.000360989 -0.000674647 -0.999999 -0.000785543 0.000886836 -0.999995 -0.00291542 0.00173234 -0.999995 0.00253567 -0.000295231 0.999998 0.00214836 -0.00182983 0.99999 0.00407544 0.00121295 0.999994 -0.00328923 0.00097777 0.999999 -0.000591443 0.000921448 0.999999 -0.00076462 0.0041562 0.999987 0.00301486 -0.00846905 0.99995 -0.005329 0.0074553 0.99997 -0.00206718</float_array>
                    <technique_common>
                        <accessor count="128" source="#shape0-lib-normals-array" stride="3">
                            <param name="X" type="float"/>
                            <param name="Y" type="float"/>
                            <param name="Z" type="float"/>
                        </accessor>
                    </technique_common>
                </source>
                <source id="shape0-lib-vcolor" name="vcolor">
                    <float_array id="shape0-lib-vcolor-array" count="272">1 1 1 1 1 1 1 1 1 1 1 1 1 1 1 1 1 1 1 1 1 1 1 1 1 1 1 1 1 1 1 1 1 1 1 1 1 1 1 1 1 1 1 1 1 1 1 1 1 1 1 1 1 1 1 1 1 1 1 1 1 1 1 1 1 1 1 1 1 1 1 1 1 1 1 1 1 1 1 1 1 1 1 1 1 1 1 1 1 1 1 1 1 1 1 1 1 1 1 1 1 1 1 1 1 1 1 1 1 1 1 1 1 1 1 1 1 1 1 1 1 1 1 1 1 1 1 1 1 1 1 1 1 1 1 1 1 1 1 1 1 1 1 1 1 1 1 1 1 1 1 1 1 1 1 1 1 1 1 1 1 1 1 1 1 1 1 1 1 1 1 1 1 1 1 1 1 1 1 1 1 1 1 1 1 1 1 1 1 1 1 1 1 1 1 1 1 1 1 1 1 1 1 1 1 1 1 1 1 1 1 1 1 1 1 1 1 1 1 1 1 1 1 1 1 1 1 1 1 1 1 1 1 1 1 1 1 1 1 1 1 1 1 1 1 1 1 1 1 1 1 1 1 1 1 1 1 1 1 1 1 1 1 1 1 1 1 1 1 1 1 1</float_array>
                    <technique_common>
                        <accessor count="68" source="#shape0-lib-vcolor-array" stride="4">
                            <param name="R" type="float"/>
                            <param name="G" type="float"/>
                            <param name="B" type="float"/>
                            <param name="A" type="float"/>
                        </accessor>
                    </technique_common>
                </source>
                <source id="shape0-lib-map" name="map">
                    <float_array id="shape0-lib-map-array" count="768">0.600161 0.589214 0.600161 0.583503 0.605377 0.583503 0.600161 0.589214 0.605377 0.583503 0.605377 0.589214 0.605377 0.589214 0.605377 0.583503 0.609799 0.583503 0.605377 0.589214 0.609799 0.583503 0.609799 0.589214 0.611084 0.596068 0.611084 0.590356 0.615506 0.590356 0.611084 0.596068 0.615506 0.590356 0.615506 0.596068 0.615506 0.596068 0.615506 0.590356 0.62316 0.590356 0.615506 0.596068 0.62316 0.590356 0.620722 0.596068 0.620722 0.596068 0.62316 0.590356 0.625938 0.596068 0.625938 0.596068 0.62316 0.590356 0.63036 0.590356 0.625938 0.596068 0.63036 0.590356 0.63036 0.596068 0.652206 0.582361 0.652206 0.576649 0.656628 0.576649 0.652206 0.582361 0.656628 0.576649 0.656628 0.582361 0.656628 0.582361 0.656628 0.576649 0.664281 0.576649 0.656628 0.582361 0.664281 0.576649 0.661844 0.582361 0.661844 0.582361 0.664281 0.576649 0.66706 0.582361 0.66706 0.582361 0.664281 0.576649 0.671482 0.576649 0.66706 0.582361 0.671482 0.576649 0.671482 0.582361 0.590523 0.596068 0.590523 0.590356 0.594945 0.590356 0.590523 0.596068 0.594945 0.590356 0.594945 0.596068 0.594945 0.596068 0.594945 0.590356 0.602599 0.590356 0.594945 0.596068 0.602599 0.590356 0.600161 0.596068 0.600161 0.596068 0.602599 0.590356 0.605377 0.596068 0.605377 0.596068 0.602599 0.590356 0.609799 0.590356 0.605377 0.596068 0.609799 0.590356 0.609799 0.596068 0.590523 0.589214 0.590523 0.583503 0.594945 0.583503 0.590523 0.589214 0.594945 0.583503 0.594945 0.589214 0.594945 0.589214 0.594945 0.583503 0.600161 0.583503 0.594945 0.589214 0.600161 0.583503 0.600161 0.589214 0.668925 0.559156 0.671971 0.557126 0.676581 0.558843 0.668925 0.559156 0.676581 0.558843 0.66883 0.564642 0.671971 0.557126 0.675562 0.556416 0.676581 0.558843 0.675562 0.556416 0.679151 0.557135 0.676581 0.558843 0.679151 0.557135 0.682192 0.559172 0.676581 0.558843 0.682192 0.559172 0.684223 0.562217 0.682506 0.566827 0.682192 0.559172 0.682506 0.566827 0.676581 0.558843 0.684223 0.562217 0.684932 0.565809 0.682506 0.566827 0.684932 0.565809 0.684214 0.569398 0.682506 0.566827 0.684214 0.569398 0.682177 0.572439 0.682506 0.566827 0.682177 0.572439 0.679131 0.574469 0.674522 0.572752 0.682177 0.572439 0.674522 0.572752 0.682506 0.566827 0.679131 0.574469 0.67554 0.575178 0.674522 0.572752 0.67554 0.575178 0.671951 0.57446 0.674522 0.572752 0.671951 0.57446 0.66891 0.572424 0.674522 0.572752 0.66891 0.572424 0.66688 0.569378 0.66883 0.564642 0.66891 0.572424 0.66883 0.564642 0.674522 0.572752 0.66688 0.569378 0.66617 0.565787 0.66883 0.564642 0.66617 0.565787 0.666889 0.562197 0.66883 0.564642 0.666889 0.562197 0.668925 0.559156 0.66883 0.564642 0.676581 0.558843 0.682506 0.566827 0.66883 0.564642 0.682506 0.566827 0.674522 0.572752 0.66883 0.564642 0.651302 0.556893 0.65499 0.556159 0.65499 0.565798 0.65499 0.556159 0.658678 0.556893 0.65499 0.565798 0.658678 0.556893 0.661805 0.558982 0.65499 0.565798 0.661805 0.558982 0.664516 0.564124 0.65499 0.565798 0.664516 0.564124 0.663895 0.569486 0.65499 0.565798 0.663895 0.569486 0.661805 0.572613 0.65499 0.565798 0.661805 0.572613 0.656664 0.575323 0.65499 0.565798 0.656664 0.575323 0.651302 0.574702 0.65499 0.565798 0.651302 0.574702 0.648175 0.572613 0.65499 0.565798 0.648175 0.572613 0.645465 0.567472 0.65499 0.565798 0.645465 0.567472 0.646086 0.562109 0.65499 0.565798 0.646086 0.562109 0.648175 0.558982 0.65499 0.565798 0.648175 0.558982 0.651302 0.556893 0.65499 0.565798 0.169707 0.585558 0.16985 0.583796 0.171664 0.583827 0.169707 0.585558 0.171664 0.583827 0.171032 0.585552 0.173309 0.585552 0.172676 0.583827 0.174478 0.583838 0.173309 0.585552 0.174478 0.583838 0.174712 0.585556 0.174712 0.585556 0.174478 0.583838 0.177361 0.583833 0.174712 0.585556 0.177361 0.583833 0.176772 0.585549 0.033672 0.591623 0.0330396 0.589898 0.0348413 0.589909 0.033672 0.591623 0.0348413 0.589909 0.0350753 0.591627 0.0350753 0.591627 0.0348413 0.589909 0.0377248 0.589904 0.0350753 0.591627 0.0377248 0.589904 0.036596 0.591623 0.036596 0.591623 0.0377248 0.589904 0.0374665 0.591623 0.058419 0.591622 0.0573242 0.589898 0.0598274 0.589954 0.058419 0.591622 0.0598274 0.589954 0.0598538 0.591623 0.0598538 0.591623 0.0598274 0.589954 0.0608806 0.591623 0.0608806 0.591623 0.0598274 0.589954 0.0623835 0.589898 0.0608806 0.591623 0.0623835 0.589898 0.0617511 0.591623 0.1677 0.585551 0.167051 0.5838 0.16985 0.583796 0.1677 0.585551 0.16985 0.583796 0.169707 0.585558 0.16985 0.583796 0.169805 0.576051 0.171664 0.576123 0.16985 0.583796 0.171664 0.576123 0.171664 0.583827 0.171032 0.574513 0.171664 0.576123 0.169805 0.576051 0.171032 0.574513 0.169805 0.576051 0.169605 0.574507 0.172676 0.583827 0.17321 0.576059 0.174478 0.583838 0.174478 0.583838 0.17321 0.576059 0.175841 0.576089 0.175634 0.574511 0.175841 0.576089 0.17321 0.576059 0.175634 0.574511 0.17321 0.576059 0.1737 0.574515 0.174478 0.583838 0.175841 0.576089 0.177361 0.583833 0.177361 0.583833 0.175841 0.576089 0.177735 0.576123 0.177103 0.574513 0.177735 0.576123 0.175841 0.576089 0.177103 0.574513 0.175841 0.576089 0.175634 0.574511 0.0330396 0.589898 0.0335734 0.58213 0.0348413 0.589909 0.0348413 0.589909 0.0335734 0.58213 0.0362045 0.58216 0.0360339 0.58058 0.0362045 0.58216 0.0335734 0.58213 0.0360339 0.58058 0.0335734 0.58213 0.0340628 0.580586 0.0348413 0.589909 0.0362045 0.58216 0.0377248 0.589904 0.0377248 0.589904 0.0362045 0.58216 0.0380989 0.582194 0.0374665 0.580584 0.0380989 0.582194 0.0362045 0.58216 0.0374665 0.580584 0.0362045 0.58216 0.0360339 0.58058 0.0573242 0.589898 0.0578581 0.58213 0.0598274 0.589954 0.0598274 0.589954 0.0578581 0.58213 0.060489 0.58216 0.0603184 0.58058 0.060489 0.58216 0.0578581 0.58213 0.0603184 0.58058 0.0578581 0.58213 0.0583475 0.580586 0.0598274 0.589954 0.060489 0.58216 0.0623835 0.582194 0.0598274 0.589954 0.0623835 0.582194 0.0623835 0.589898 0.0617511 0.580584 0.0623835 0.582194 0.060489 0.58216 0.0617511 0.580584 0.060489 0.58216 0.0603184 0.58058 0.167051 0.5838 0.167139 0.576059 0.169805 0.576051 0.167051 0.5838 0.169805 0.576051 0.16985 0.583796 0.169605 0.574507 0.169805 0.576051 0.167139 0.576059 0.169605 0.574507 0.167139 0.576059 0.167628 0.574515 0.120135 0.598875 0.122026 0.599805 0.118147 0.605146 0.122026 0.599805 0.123067 0.603395 0.118147 0.605146 0.123067 0.603395 0.122634 0.607502 0.118147 0.605146 0.122634 0.607502 0.120987 0.609773 0.118147 0.605146 0.120987 0.609773 0.119105 0.608829 0.118147 0.605146 0.118497 0.601132 0.120135 0.598875 0.118147 0.605146 0.113143 0.599646 0.115052 0.598929 0.112102 0.604299 0.115052 0.598929 0.116283 0.600414 0.112102 0.604299 0.116283 0.600414 0.116992 0.603311 0.112102 0.604299 0.116992 0.603311 0.116574 0.607483 0.112102 0.604299 0.116574 0.607483 0.114955 0.609766 0.112102 0.604299 0.114955 0.609766 0.113526 0.609416 0.112102 0.604299 0.113526 0.609416 0.112353 0.607265 0.112102 0.604299 0.112157 0.602205 0.113143 0.599646 0.112102 0.604299</float_array>
                    <technique_common>
                        <accessor count="384" source="#shape0-lib-map-array" stride="2">
                            <param name="U" type="float"/>
                            <param name="V" type="float"/>
                        </accessor>
                    </technique_common>
                </source>
                <vertices id="shape0-lib-vertices">
                    <input semantic="POSITION" source="#shape0-lib-positions"/>
                </vertices>
                <triangles count="128" material="material0">
                    <input offset="0" semantic="VERTEX" source="#shape0-lib-vertices"/>
                    <input offset="1" semantic="COLOR" source="#shape0-lib-vcolor"/>
                    <input offset="2" semantic="NORMAL" source="#shape0-lib-normals"/>
                    <input offset="3" semantic="TEXCOORD" source="#shape0-lib-map"/>
                    <p>13 13 0 0 0 0 0 1 1 1 0 2 13 13 1 3 1 1 1 4 14 14 1 5 14 14 2 6 1 1 2 7 2 2 2 8 14 14 3 9 2 2 3 10 15 15 3 11 15 15 4 12 2 2 4 13 3 3 4 14 15 15 5 15 3 3 5 16 16 16 5 17 16 16 6 18 3 3 6 19 4 4 6 20 16 16 7 21 4 4 7 22 17 17 7 23 17 17 8 24 4 4 8 25 18 18 8 26 18 18 9 27 4 4 9 28 5 5 9 29 18 18 10 30 5 5 10 31 19 19 10 32 19 19 11 33 5 5 11 34 6 6 11 35 19 19 12 36 6 6 12 37 20 20 12 38 20 20 13 39 6 6 13 40 7 7 13 41 20 20 14 42 7 7 14 43 21 21 14 44 21 21 15 45 7 7 15 46 22 22 15 47 22 22 16 48 7 7 16 49 8 8 16 50 22 22 17 51 8 8 17 52 23 23 17 53 23 23 18 54 8 8 18 55 9 9 18 56 23 23 19 57 9 9 19 58 24 24 19 59 24 24 20 60 9 9 20 61 10 10 20 62 24 24 21 63 10 10 21 64 25 25 21 65 25 25 22 66 10 10 22 67 26 26 22 68 26 26 23 69 10 10 23 70 11 11 23 71 26 26 24 72 11 11 24 73 27 27 24 74 27 27 25 75 11 11 25 76 12 12 25 77 27 27 26 78 12 12 26 79 28 28 26 80 28 28 27 81 12 12 27 82 0 0 27 83 28 28 28 84 0 0 28 85 13 13 28 86 27 27 29 87 28 28 29 88 32 32 29 89 27 27 30 90 32 32 30 91 31 31 30 92 28 28 31 93 13 13 31 94 32 32 31 95 13 13 32 96 14 14 32 97 32 32 32 98 14 14 33 99 15 15 33 100 32 32 33 101 15 15 34 102 16 16 34 103 29 29 34 104 15 15 35 105 29 29 35 106 32 32 35 107 16 16 36 108 17 17 36 109 29 29 36 110 17 17 37 111 18 18 37 112 29 29 37 113 18 18 38 114 19 19 38 115 29 29 38 116 19 19 39 117 20 20 39 118 30 30 39 119 19 19 40 120 30 30 40 121 29 29 40 122 20 20 41 123 21 21 41 124 30 30 41 125 21 21 42 126 22 22 42 127 30 30 42 128 22 22 43 129 23 23 43 130 30 30 43 131 23 23 44 132 24 24 44 133 31 31 44 134 23 23 45 135 31 31 45 136 30 30 45 137 24 24 46 138 25 25 46 139 31 31 46 140 25 25 47 141 26 26 47 142 31 31 47 143 26 26 48 144 27 27 48 145 31 31 48 146 32 32 49 147 29 29 49 148 31 31 49 149 29 29 50 150 30 30 50 151 31 31 50 152 1 1 51 153 0 0 51 154 33 33 51 155 0 0 52 156 12 12 52 157 33 33 52 158 12 12 53 159 11 11 53 160 33 33 53 161 11 11 54 162 10 10 54 163 33 33 54 164 10 10 55 165 9 9 55 166 33 33 55 167 9 9 56 168 8 8 56 169 33 33 56 170 8 8 57 171 7 7 57 172 33 33 57 173 7 7 58 174 6 6 58 175 33 33 58 176 6 6 59 177 5 5 59 178 33 33 59 179 5 5 60 180 4 4 60 181 33 33 60 182 4 4 61 183 3 3 61 184 33 33 61 185 3 3 62 186 2 2 62 187 33 33 62 188 2 2 63 189 1 1 63 190 33 33 63 191 42 42 64 192 51 51 64 193 52 52 64 194 42 42 65 195 52 52 65 196 43 43 65 197 43 43 66 198 52 52 66 199 53 53 66 200 43 43 67 201 53 53 67 202 44 44 67 203 44 44 68 204 53 53 68 205 54 54 68 206 44 44 69 207 54 54 69 208 45 45 69 209 45 45 70 210 54 54 70 211 55 55 70 212 45 45 71 213 55 55 71 214 46 46 71 215 46 46 72 216 55 55 72 217 56 56 72 218 46 46 73 219 56 56 73 220 47 47 73 221 47 47 74 222 56 56 74 223 48 48 74 224 48 48 75 225 56 56 75 226 57 57 75 227 48 48 76 228 57 57 76 229 67 67 76 230 67 67 77 231 57 57 77 232 49 49 77 233 49 49 78 234 57 57 78 235 58 58 78 236 49 49 79 237 58 58 79 238 50 50 79 239 50 50 80 240 58 58 80 241 51 51 80 242 50 50 81 243 51 51 81 244 42 42 81 245 51 51 82 246 59 59 82 247 60 60 82 248 51 51 83 249 60 60 83 250 52 52 83 251 35 35 84 252 60 60 84 253 59 59 84 254 35 35 85 255 59 59 85 256 34 34 85 257 52 52 86 258 60 60 86 259 53 53 86 260 53 53 87 261 60 60 87 262 61 61 87 263 36 36 88 264 61 61 88 265 60 60 88 266 36 36 89 267 60 60 89 268 35 35 89 269 53 53 90 270 61 61 90 271 54 54 90 272 54 54 91 273 61 61 91 274 62 62 91 275 37 37 92 276 62 62 92 277 61 61 92 278 37 37 93 279 61 61 93 280 36 36 93 281 54 54 94 282 62 62 94 283 55 55 94 284 55 55 95 285 62 62 95 286 63 63 95 287 38 38 96 288 63 63 96 289 62 62 96 290 38 38 97 291 62 62 97 292 37 37 97 293 55 55 98 294 63 63 98 295 56 56 98 296 56 56 99 297 63 63 99 298 64 64 99 299 39 39 100 300 64 64 100 301 63 63 100 302 39 39 101 303 63 63 101 304 38 38 101 305 56 56 102 306 64 64 102 307 57 57 102 308 57 57 103 309 64 64 103 310 65 65 103 311 40 40 104 312 65 65 104 313 64 64 104 314 40 40 105 315 64 64 105 316 39 39 105 317 57 57 106 318 65 65 106 319 66 66 106 320 57 57 107 321 66 66 107 322 58 58 107 323 41 41 108 324 66 66 108 325 65 65 108 326 41 41 109 327 65 65 109 328 40 40 109 329 58 58 110 330 66 66 110 331 59 59 110 332 58 58 111 333 59 59 111 334 51 51 111 335 34 34 112 336 59 59 112 337 66 66 112 338 34 34 113 339 66 66 113 340 41 41 113 341 34 34 114 342 41 41 114 343 36 36 114 344 41 41 115 345 40 40 115 346 36 36 115 347 40 40 116 348 39 39 116 349 36 36 116 350 39 39 117 351 38 38 117 352 36 36 117 353 38 38 118 354 37 37 118 355 36 36 118 356 35 35 119 357 34 34 119 358 36 36 119 359 50 50 120 360 42 42 120 361 67 67 120 362 42 42 121 363 43 43 121 364 67 67 121 365 43 43 122 366 44 44 122 367 67 67 122 368 44 44 123 369 45 45 123 370 67 67 123 371 45 45 124 372 46 46 124 373 67 67 124 374 46 46 125 375 47 47 125 376 67 67 125 377 47 47 126 378 48 48 126 379 67 67 126 380 49 49 127 381 50 50 127 382 67 67 127 383</p>
                </triangles>
            </mesh>
        </geometry>
    </library_geometries>
    <library_visual_scenes>
        <visual_scene id="VisualSceneNode" name="VisualScene">
            <node id="node" name="node">
                <instance_geometry url="#shape0-lib">
                    <bind_material>
                        <technique_common>
                            <instance_material symbol="material0" target="#material0">
                                <bind_vertex_input semantic="UVSET0" input_semantic="TEXCOORD"/>
                            </instance_material>
                        </technique_common>
                    </bind_material>
                </instance_geometry>
            </node>
        </visual_scene>
    </library_visual_scenes>
    <scene>
        <instance_visual_scene url="#VisualSceneNode"/>
    </scene>
</COLLADA>
