<?xml version="1.0" encoding="UTF-8"?>
<COLLADA xmlns="http://www.collada.org/2005/11/COLLADASchema" version="1.4.1">
    <asset>
        <contributor>
            <author>VCGLab</author>
            <authoring_tool>VCGLib | MeshLab</authoring_tool>
        </contributor>
        <created>Thu Jul 3 01:58:58 2025 GMT</created>
        <modified>Thu Jul 3 01:58:58 2025 GMT</modified>
        <up_axis>Y_UP</up_axis>
    </asset>
    <library_images>
        <image id="texture0" name="texture0">
            <init_from>./image/shelf_items.png</init_from>
        </image>
    </library_images>
    <library_materials>
        <material id="material0" name="material0">
            <instance_effect url="#material0-fx"/>
        </material>
    </library_materials>
    <library_effects>
        <effect id="material0-fx">
            <profile_COMMON>
                <newparam sid="texture0-surface">
                    <surface type="2D">
                        <init_from>texture0</init_from>
                        <format>R8G8B8</format>
                    </surface>
                </newparam>
                <newparam sid="texture0-sampler">
                    <sampler2D>
                        <source>texture0-surface</source>
                        <minfilter>LINEAR</minfilter>
                        <magfilter>LINEAR</magfilter>
                    </sampler2D>
                </newparam>
                <technique sid="common">
                    <blinn>
                        <diffuse>
                            <texture texture="texture0-sampler" texcoord="UVSET0"/>
                        </diffuse>
                    </blinn>
                </technique>
            </profile_COMMON>
        </effect>
    </library_effects>
    <library_geometries>
        <geometry id="shape0-lib" name="shape0">
            <mesh>
                <source id="shape0-lib-positions" name="position">
                    <float_array id="shape0-lib-positions-array" count="381">0.0552018 0.0668299 -0.000270624 -0.0109839 0.00623739 0.00415559 0.0582015 0.0110089 -0.00686887 0.0675715 0.0231744 -0.00919225 0.0544898 0.0667177 -0.0157059 0.0644573 0.0405112 -0.00820682 0.0522498 0.0260769 -0.00735407 0.0314316 0.000206598 -0.0230225 0.0673883 0.0417479 -0.0276724 0.0471539 0.0668403 -0.0289087 0.0478287 0.0106943 -0.0340679 0.0529836 0.0217811 -0.0419541 0.0509616 0.0418133 -0.0514616 0.0385575 0.0668505 -0.0390576 0.0529682 0.0403945 -0.038143 0.0414739 0.025592 -0.0325897 0.0366393 0.066537 -0.0462688 0.0243221 0.0109414 -0.053962 0.0273551 0.0315107 -0.0673569 0.0173167 0.0668191 -0.0536784 0.0254313 0.0408997 -0.0605879 0.0194668 0.0256907 -0.0491722 0.000203199 0.0150916 -0.0380883 -0.00957534 0.00779511 -0.0170856 -0.00378979 0.000206599 -0.0389817 3.33786e-09 0.0111316 -0.0590629 0.000220433 0.0322441 -0.072473 1.78318e-05 0.0667474 -0.0565967 -0.0152197 0.0668184 -0.0539258 -0.00735485 0.0402756 -0.0650365 -0.00609362 0.0261692 -0.0532161 -0.0206053 0.0109414 -0.0555016 -0.025267 0.0226117 -0.0636077 -0.0278307 0.0421492 -0.067723 -0.0288646 0.0668186 -0.0479053 -0.0323084 0.0404534 -0.0564598 -0.0288851 0.000189284 -0.0220099 -0.0414103 0.0111316 -0.0419102 -0.047747 0.0228064 -0.048247 -0.0509617 0.0418133 -0.0514616 -0.0385576 0.0668505 -0.0390576 -0.0320898 0.0255921 -0.041974 -0.0296309 0.0146566 -0.0235232 -0.0463433 0.0665569 -0.0361128 -0.049976 0.0403446 -0.0419467 -0.0534621 0.0109414 -0.0248219 -0.0668568 0.0315105 -0.0278549 -0.0562151 0.0665274 -0.0155628 -0.050952 0.0668805 -0.020475 -0.0487663 0.0263967 -0.022012 -0.0585629 0.0111316 -0.000500008 -0.0723159 0.0329316 0.000676395 -0.0555048 0.0668017 -0.00178374 -0.0542389 0.0667836 0.0130837 -0.0527253 0.0261732 0.00553954 -0.0347541 0.0146566 0.0136494 -0.00604549 1.95672e-05 0.0364941 -0.0550016 0.0109413 0.020105 -0.0665263 0.0321562 0.0284896 -0.0476674 0.0667804 0.0284913 -0.0604527 0.0404937 0.0231777 -0.0361898 0.000206596 0.01312 -0.0414103 0.0111316 0.0409102 -0.0477471 0.0228064 0.047247 -0.0509617 0.0418133 0.0504616 -0.0385576 0.0668505 0.0380575 -0.045691 0.0404534 0.0451909 -0.0414736 0.025592 0.0315901 -0.0366398 0.066537 0.0452685 0.000632266 0.00945586 0.0268519 -0.0243224 0.0109413 0.0529618 -0.026725 0.022608 0.0620022 -0.0278289 0.0421511 0.0667235 -0.0188998 0.066845 0.0516413 -0.0254315 0.0408997 0.0595879 -0.019467 0.0256907 0.0481722 0.00187493 0.0147561 0.062438 -0.00211342 0.0667377 0.0559703 0.00946462 0.0413298 0.0714334 0.0143004 0.0668193 0.0528723 0.00834707 0.0404472 0.0641161 0.00609367 0.0261691 0.0522161 0.033268 2.97634e-05 0.0193242 0.0206053 0.0109414 0.0545015 0.025267 0.0226118 0.0626077 0.0360353 0.0418133 0.061915 0.0414102 0.0111316 0.0409102 0.0477471 0.0228064 0.047247 0.0343323 0.0668306 0.0439017 0.0376171 0.0403362 0.0524243 0.0320899 0.0255919 0.0409736 0.0578314 0.0423835 0.0431882 0.0504099 0.0667865 0.0236731 0.0534622 0.0109413 0.0238217 0.0625022 0.0226078 0.0262249 0.0721573 0.0407733 0.0084816 0.0552678 0.0667559 0.0106174 0.0600879 0.0408997 0.0249315 0.0486725 0.0256907 0.0189663 0.0260186 0.0138944 0.0258374 0.0264471 0.0107246 -0.0153176 0.0678782 0.05606 -0.00902901 0.0591273 0.056 -0.0346372 0.0583666 0.0560438 -0.0241883 0.0441865 0.056 -0.0446866 0.0407674 0.0564859 -0.0554142 0.0253429 0.0563229 -0.0579111 0.0085315 0.0555904 -0.0690701 -0.0137457 0.0563411 -0.0626617 -0.0253383 0.0558453 -0.0640771 -0.0527912 0.0563645 -0.0442031 -0.0498326 0.0565316 -0.038718 -0.0682677 0.0557646 -0.0104386 -0.0657305 0.0445149 -0.0102754 -0.0643273 0.0557593 0.0241819 -0.0584694 0.0561577 0.0231775 -0.0482773 0.056 0.0477772 -0.0341372 0.056 0.0586273 -0.0368463 0.0564763 0.0501464 -0.00901409 0.0552989 0.068086 -0.00921459 0.0560373 0.0616256 0.0246774 0.056303 0.0634086 0.0228489 0.0564661 0.0580609 0.0523849 0.0558153 0.0441171 0.0501443 0.0562413 0.0373783 0.0659479 0.056 0.0171707 0.0628732 0.0552942 0.0072795</float_array>
                    <technique_common>
                        <accessor count="127" source="#shape0-lib-positions-array" stride="3">
                            <param name="X" type="float"/>
                            <param name="Y" type="float"/>
                            <param name="Z" type="float"/>
                        </accessor>
                    </technique_common>
                </source>
                <source id="shape0-lib-normals" name="normal">
                    <float_array id="shape0-lib-normals-array" count="750">0.384759 -0.922788 -0.0205394 0.983491 -0.122666 -0.133039 0.451842 -0.877234 -0.162173 0.756739 -0.574167 -0.312536 0.73607 -0.619169 -0.273554 0.8589 -0.356943 -0.367264 -0.701466 0.652363 0.286998 -0.725766 0.630112 0.276084 -0.547888 0.807529 0.218437 0.0002168 -0.999991 -0.00418524 0.808655 -0.183632 -0.558888 0.0761908 0.995067 -0.0635311 0.307504 -0.874877 -0.374207 0.490094 -0.525266 -0.695631 0.489717 -0.644994 -0.586651 0.617877 -0.285364 -0.732663 0.0347547 0.998009 -0.052637 -0.459896 0.641332 0.614157 -0.492029 0.613712 0.617467 -0.326019 0.837956 0.437654 0.000276804 -1 -0.000610927 0.161491 -0.92027 -0.356405 -0.230499 0.871525 0.432799 -0.0916666 0.953102 0.288435 -0.0841546 0.994176 0.0673273 0.0901548 -0.881884 -0.462767 0.143019 -0.531713 -0.834762 0.166553 -0.555206 -0.814866 -0.10945 0.632641 0.766672 -0.116623 0.625052 0.771822 -0.0818875 0.787553 0.610782 -0.0762387 -0.86975 -0.487568 -0.0599373 -0.585489 -0.808461 -0.139684 -0.529865 -0.836499 -0.240945 -0.230216 -0.942839 0.281356 0.671924 0.685096 0.255327 0.634289 0.729716 0.219749 0.851795 0.475559 0.206731 0.828414 0.520569 0.180564 0.9 0.396733 -0.236633 -0.906548 -0.349537 -0.235667 -0.906854 -0.349396 -0.453782 -0.60261 -0.656463 -0.431132 -0.624537 -0.651213 -0.557571 -0.229242 -0.797849 -0.549014 -0.240643 -0.800421 -0.0663757 0.994873 -0.0763027 0.501975 0.607464 0.615637 -0.360967 -0.894274 -0.264532 -0.718683 -0.533729 -0.445677 -0.648306 -0.603699 -0.463947 -0.757201 -0.231376 -0.610829 -0.0511496 0.998052 -0.0357296 0.569326 0.689432 0.447831 0.503759 0.770912 0.389771 -0.118181 0.991448 -0.0553482 0.786157 0.527779 0.321569 -0.399446 -0.913549 -0.0766276 -0.391699 -0.916521 -0.0809949 -0.841296 -0.523472 -0.134898 -0.814866 -0.555206 -0.166553 -0.0814652 0.996553 -0.015642 0.761108 0.63843 0.114547 0.515276 0.854077 0.0710164 0.525892 0.846547 0.0824367 0.364944 0.926459 0.0921415 0.311059 0.949423 0.0428707 -0.47348 -0.877713 0.073731 -0.83941 -0.519336 0.160255 -0.834112 -0.533733 0.139238 0.840597 0.537372 -0.0680239 -0.00567196 -0.999984 -0.000686583 0.665973 0.69456 -0.27215 0.598484 0.763882 -0.241454 -0.399944 -0.876089 0.26928 -0.69648 -0.595413 0.400499 -0.692816 -0.557252 0.457686 -0.742797 -0.231855 0.628089 -0.073676 0.995299 0.0628711 0.666627 0.597286 -0.445936 -0.244663 -0.910806 0.332524 -0.248796 -0.916408 0.313525 -0.463181 -0.600486 0.651828 -0.46395 -0.603703 0.6483 -0.558222 -0.224493 0.798743 -0.560632 -0.229387 0.795659 -0.0363912 0.997928 0.0530695 0.459894 0.641333 -0.614157 0.417383 0.675124 -0.608275 0.278197 0.872351 -0.402008 0.304933 0.859696 -0.409803 0.2321 0.939478 -0.252013 -0.0578823 -0.860369 0.506374 -0.183268 -0.62545 0.758436 -0.126267 -0.285524 0.950017 -0.0801833 -0.238347 0.967864 0.110416 0.625979 -0.771984 0.112009 0.624245 -0.773158 0.0730929 0.825482 -0.559676 0.0286091 -0.872889 0.48708 0.199826 -0.61156 0.765548 0.10966 -0.346658 0.931559 -0.167426 0.839411 -0.517066 0.149437 -0.927885 0.341612 0.335675 -0.154728 0.929183 -0.288574 0.65241 -0.700775 -0.282922 0.640032 -0.714363 -0.216058 0.812586 -0.541317 0.248196 -0.896344 0.367378 0.453778 -0.602615 0.656461 0.431132 -0.624539 0.651212 0.644005 -0.177452 0.744156 0.543825 -0.276395 0.792376 -0.000860829 -0.999996 -0.00256486 0.40292 -0.866791 0.293817 0.651824 -0.600492 0.463178 0.6483 -0.603706 0.463946 0.782394 -0.288602 0.551877 -0.614156 0.641337 -0.45989 -0.617473 0.613646 -0.492104 -0.515423 0.765613 -0.384937 0.916627 -0.112533 0.383578 -0.174711 0.981571 -0.0774204 -0.150877 0.986563 -0.06268 0.462216 -0.884045 0.0694319 0.797462 -0.594227 0.104636 0.773026 -0.623303 0.118003 0.921729 -0.366777 0.126061 -0.762884 0.639622 -0.0943008 -0.77392 0.623769 -0.109358 -0.493522 0.866757 -0.0718968 -0.473475 0.879304 -0.051448 0.632998 0.77337 -0.0348224 0.983356 0.130718 -0.126192 -0.961453 -0.241244 0.131946 -0.859542 -0.498818 0.111216 -0.926814 -0.372758 0.0454655 0.556386 0.774116 -0.301959 0.673999 0.701369 -0.231963 0.881369 0.363268 -0.302035 -0.933605 0.00256421 0.358295 -0.718193 -0.573742 0.393724 0.563683 0.670465 -0.48243 0.537185 0.772406 -0.338853 0.711884 0.327203 -0.621417 0.807215 0.195761 -0.55685 -0.802298 -0.21856 0.555473 -0.703326 -0.517237 0.487645 -0.616276 -0.590204 0.521405 0.514479 0.129085 -0.847731 -0.631839 -0.0308015 0.774487 -0.570144 -0.143655 0.808888 -0.472035 -0.586384 0.658283 -0.449643 -0.607783 0.654538 0.260778 0.70297 -0.661686 0.262482 0.706153 -0.65761 0.374337 0.228693 -0.89865 0.101993 0.775038 -0.62363 0.186732 0.0762897 -0.979444 -0.118959 -0.170446 0.97816 -0.128238 -0.194758 0.972432 -0.108425 -0.441993 0.890442 -0.155322 -0.335994 0.928969 -0.0955767 0.722039 -0.685219 -0.120545 0.697609 -0.706265 -0.138034 0.27816 -0.950565 -0.102449 0.179095 -0.978483 0.132127 -0.623749 0.770376 -0.256067 0.77304 -0.580378 0.324959 -0.0105208 0.94567 0.329759 -0.576777 0.747387 -0.400256 0.71157 -0.577463 -0.401022 0.715037 -0.572628 -0.548536 0.316983 -0.773712 -0.554301 0.306832 -0.773695 0.525605 -0.303926 0.794586 0.627392 -0.157664 0.762576 0.515675 -0.354463 0.780022 0.548433 -0.579406 0.602917 -0.848982 0.146515 -0.507703 0.620954 -0.664823 0.415243 -0.703182 0.639407 -0.310956 -0.665918 0.674419 -0.318925 -0.884799 0.236736 -0.401357 0.885783 -0.0983163 0.453567 0.853476 -0.429066 0.295771 -0.661399 0.749789 0.0191675 -0.978258 0.0803768 -0.19118 0.857013 -0.471995 0.206761 -0.694448 0.715176 0.0791506 -0.675362 0.73517 0.0584015 -0.970255 0.127907 0.205535 -0.96804 0.225283 0.110214 0.977785 -0.123806 -0.169143 0.915774 -0.397101 -0.0605658 0.89899 -0.431134 -0.0770718 -0.578266 0.777625 0.246795 0.739712 -0.594317 -0.315615 -0.573414 0.724409 0.382658 -0.576149 0.71877 0.389131 -0.83852 0.250248 0.484005 -0.814668 0.176706 0.552351 0.825902 -0.10458 -0.554029 0.760243 -0.231985 -0.606806 0.675181 -0.366287 -0.640285 0.673514 -0.51113 -0.533971 -0.461274 0.652575 0.601142 -0.598443 0.183342 0.779905 -0.558568 0.255039 0.789276 0.57891 -0.0682641 -0.812529 0.429821 -0.654234 -0.62228 -0.222998 0.729697 0.646385 -0.238659 0.740227 0.628574 -0.318966 0.365838 0.874313 0.365524 -0.271747 -0.89025 0.33437 -0.460161 -0.822465 -0.157366 0.761245 0.62908 -0.12335 0.0739617 0.989603 0.132746 -0.00879275 -0.991111 0.203589 -0.559672 -0.803318 0.117273 0.758257 0.641322 0.0772645 0.702615 0.707363 0.116539 0.374578 0.919842 -0.102875 -0.268868 -0.957667 -0.0950398 -0.41512 -0.904789 -0.153378 -0.541041 -0.826892 0.24674 0.796509 0.55199 0.330108 0.162917 0.929778 -0.370954 -0.015163 -0.928528 -0.319692 -0.622125 -0.714673 0.418137 0.696666 0.582939 0.634625 0.205822 0.744908 0.540488 0.344546 0.767568 -0.583541 -0.266171 -0.767224 -0.559801 -0.383346 -0.734621 0.478761 0.792027 0.378789 -0.774343 0.0114018 -0.632663 -0.615677 -0.618716 -0.487988 0.617842 0.752482 0.228128 0.627018 0.710036 0.320466 0.914787 0.16186 0.370089 0.847218 0.313905 0.428585 -0.887846 -0.27792 -0.366729 -0.861775 -0.393845 -0.319734 -0.827016 -0.45105 -0.335556 0.647975 0.761661 0.00125192 0.692391 0.719599 0.0526603 0.937004 0.342269 0.0698186 -0.990893 0.0310735 -0.131016 -0.833071 -0.553165 0.00128506</float_array>
                    <technique_common>
                        <accessor count="250" source="#shape0-lib-normals-array" stride="3">
                            <param name="X" type="float"/>
                            <param name="Y" type="float"/>
                            <param name="Z" type="float"/>
                        </accessor>
                    </technique_common>
                </source>
                <source id="shape0-lib-vcolor" name="vcolor">
                    <float_array id="shape0-lib-vcolor-array" count="508">1 1 1 1 1 1 1 1 1 1 1 1 1 1 1 1 1 1 1 1 1 1 1 1 1 1 1 1 1 1 1 1 1 1 1 1 1 1 1 1 1 1 1 1 1 1 1 1 1 1 1 1 1 1 1 1 1 1 1 1 1 1 1 1 1 1 1 1 1 1 1 1 1 1 1 1 1 1 1 1 1 1 1 1 1 1 1 1 1 1 1 1 1 1 1 1 1 1 1 1 1 1 1 1 1 1 1 1 1 1 1 1 1 1 1 1 1 1 1 1 1 1 1 1 1 1 1 1 1 1 1 1 1 1 1 1 1 1 1 1 1 1 1 1 1 1 1 1 1 1 1 1 1 1 1 1 1 1 1 1 1 1 1 1 1 1 1 1 1 1 1 1 1 1 1 1 1 1 1 1 1 1 1 1 1 1 1 1 1 1 1 1 1 1 1 1 1 1 1 1 1 1 1 1 1 1 1 1 1 1 1 1 1 1 1 1 1 1 1 1 1 1 1 1 1 1 1 1 1 1 1 1 1 1 1 1 1 1 1 1 1 1 1 1 1 1 1 1 1 1 1 1 1 1 1 1 1 1 1 1 1 1 1 1 1 1 1 1 1 1 1 1 1 1 1 1 1 1 1 1 1 1 1 1 1 1 1 1 1 1 1 1 1 1 1 1 1 1 1 1 1 1 1 1 1 1 1 1 1 1 1 1 1 1 1 1 1 1 1 1 1 1 1 1 1 1 1 1 1 1 1 1 1 1 1 1 1 1 1 1 1 1 1 1 1 1 1 1 1 1 1 1 1 1 1 1 1 1 1 1 1 1 1 1 1 1 1 1 1 1 1 1 1 1 1 1 1 1 1 1 1 1 1 1 1 1 1 1 1 1 1 1 1 1 1 1 1 1 1 1 1 1 1 1 1 1 1 1 1 1 1 1 1 1 1 1 1 1 1 1 1 1 1 1 1 1 1 1 1 1 1 1 1 1 1 1 1 1 1 1 1 1 1 1 1 1 1 1 1 1 1 1 1 1 1 1 1 1 1 1 1 1 1 1 1 1 1 1 1 1 1 1 1 1 1 1 1 1 1 1 1 1 1 1 1 1 1 1 1 1 1 1 1 1 1 1 1 1 1 1 1 1 1 1 1 1 1 1</float_array>
                    <technique_common>
                        <accessor count="127" source="#shape0-lib-vcolor-array" stride="4">
                            <param name="R" type="float"/>
                            <param name="G" type="float"/>
                            <param name="B" type="float"/>
                            <param name="A" type="float"/>
                        </accessor>
                    </technique_common>
                </source>
                <source id="shape0-lib-map" name="map">
                    <float_array id="shape0-lib-map-array" count="1500">0.14745 0.916519 0.150461 0.918237 0.147546 0.92106 0.103098 0.951615 0.105482 0.954478 0.100816 0.954357 0.14745 0.916519 0.149221 0.915153 0.150461 0.918237 0.106494 0.949763 0.107472 0.951481 0.103098 0.951615 0.106494 0.949763 0.103098 0.951615 0.102959 0.949762 0.107472 0.951481 0.105482 0.954478 0.103098 0.951615 0.124507 0.9651 0.126188 0.963752 0.128991 0.963737 0.124507 0.9651 0.128991 0.963737 0.128854 0.96511 0.111117 0.929272 0.112948 0.931351 0.109875 0.932155 0.141005 0.916761 0.14745 0.916519 0.147546 0.92106 0.107472 0.951481 0.108539 0.954487 0.105482 0.954478 0.0983521 0.914475 0.0981397 0.915193 0.0972405 0.916229 0.14745 0.916519 0.146566 0.913027 0.149221 0.915153 0.15498 0.926435 0.154472 0.929603 0.151828 0.928242 0.15498 0.926435 0.151828 0.928242 0.152644 0.926454 0.154472 0.929603 0.151414 0.931154 0.151828 0.928242 0.0983521 0.914475 0.100218 0.913783 0.0981397 0.915193 0.112188 0.926467 0.113658 0.927337 0.111117 0.929272 0.112188 0.926467 0.111117 0.929272 0.109939 0.92851 0.113658 0.927337 0.112948 0.931351 0.111117 0.929272 0.141005 0.916761 0.143538 0.914766 0.14745 0.916519 0.143538 0.914766 0.146566 0.913027 0.14745 0.916519 0.113658 0.927337 0.115958 0.928641 0.112948 0.931351 0.115958 0.928641 0.117078 0.931127 0.112948 0.931351 0.117078 0.931127 0.117295 0.933588 0.112948 0.931351 0.143538 0.914766 0.143977 0.912467 0.146566 0.913027 0.157977 0.926454 0.157952 0.929699 0.154472 0.929603 0.157977 0.926454 0.154472 0.929603 0.15498 0.926435 0.114897 0.965096 0.115038 0.963746 0.118645 0.963725 0.114897 0.965096 0.118645 0.963725 0.119603 0.965151 0.116735 0.9269 0.115958 0.928641 0.113658 0.927337 0.143538 0.914766 0.141562 0.912954 0.143977 0.912467 0.160737 0.926435 0.161238 0.928215 0.157952 0.929699 0.160737 0.926435 0.157952 0.929699 0.157977 0.926454 0.161238 0.928215 0.161555 0.931199 0.157952 0.929699 0.111336 0.965111 0.112188 0.963752 0.115038 0.963746 0.111336 0.965111 0.115038 0.963746 0.114897 0.965096 0.119735 0.928171 0.11943 0.930354 0.115958 0.928641 0.119735 0.928171 0.115958 0.928641 0.116735 0.9269 0.11943 0.930354 0.117078 0.931127 0.115958 0.928641 0.141005 0.916761 0.139336 0.914389 0.141562 0.912954 0.141005 0.916761 0.141562 0.912954 0.143538 0.914766 0.163309 0.926454 0.164125 0.928242 0.161238 0.928215 0.163309 0.926454 0.161238 0.928215 0.160737 0.926435 0.164125 0.928242 0.164539 0.931154 0.161555 0.931199 0.164125 0.928242 0.161555 0.931199 0.161238 0.928215 0.10658 0.915494 0.105814 0.915193 0.104819 0.914274 0.121892 0.92835 0.119735 0.928171 0.119765 0.926467 0.141005 0.916761 0.137973 0.916441 0.139336 0.914389 0.14098 0.949768 0.140472 0.952937 0.137828 0.951576 0.14098 0.949768 0.137828 0.951576 0.138644 0.949787 0.140472 0.952937 0.137414 0.954487 0.137828 0.951576 0.10658 0.915494 0.107028 0.917096 0.105814 0.915193 0.121892 0.92835 0.121675 0.930586 0.119735 0.928171 0.121675 0.930586 0.11943 0.930354 0.119735 0.928171 0.107571 0.917531 0.107028 0.917096 0.10658 0.915494 0.109863 0.970228 0.110787 0.968425 0.112756 0.969756 0.139972 0.920557 0.137414 0.91903 0.137973 0.916441 0.139972 0.920557 0.137973 0.916441 0.141005 0.916761 0.143977 0.949787 0.144108 0.953124 0.140472 0.952937 0.143977 0.949787 0.140472 0.952937 0.14098 0.949768 0.107532 0.918971 0.107028 0.917096 0.107571 0.917531 0.109863 0.970228 0.108372 0.968413 0.110787 0.968425 0.122108 0.933784 0.120021 0.934683 0.11943 0.930354 0.122108 0.933784 0.11943 0.930354 0.121675 0.930586 0.120021 0.934683 0.117295 0.933588 0.117078 0.931127 0.120021 0.934683 0.117078 0.931127 0.11943 0.930354 0.139972 0.920557 0.1379 0.921444 0.137414 0.91903 0.146737 0.949768 0.147666 0.953022 0.144108 0.953124 0.146737 0.949768 0.144108 0.953124 0.143977 0.949787 0.106706 0.969781 0.108372 0.968413 0.109863 0.970228 0.143354 0.922917 0.139972 0.920557 0.141005 0.916761 0.106706 0.969781 0.106527 0.968419 0.108372 0.968413 0.120836 0.936788 0.120021 0.934683 0.122108 0.933784 0.139972 0.920557 0.139336 0.92367 0.1379 0.921444 0.149309 0.949787 0.150125 0.951576 0.147666 0.953022 0.149309 0.949787 0.147666 0.953022 0.146737 0.949768 0.150125 0.951576 0.150539 0.954487 0.147666 0.953022 0.105601 0.923584 0.105814 0.922867 0.106748 0.921882 0.121335 0.938388 0.120836 0.936788 0.122539 0.936819 0.143354 0.922917 0.141387 0.925034 0.139336 0.92367 0.143354 0.922917 0.139336 0.92367 0.139972 0.920557 0.15498 0.935767 0.154556 0.937549 0.151828 0.937576 0.15498 0.935767 0.151828 0.937576 0.152644 0.935787 0.154556 0.937549 0.154404 0.940532 0.151414 0.940487 0.154556 0.937549 0.151414 0.940487 0.151828 0.937576 0.105601 0.923584 0.10383 0.924209 0.105814 0.922867 0.119765 0.939592 0.118295 0.938724 0.120836 0.936788 0.119765 0.939592 0.120836 0.936788 0.121335 0.938388 0.118295 0.938724 0.115907 0.936133 0.120021 0.934683 0.118295 0.938724 0.120021 0.934683 0.120836 0.936788 0.115907 0.936133 0.117295 0.933588 0.120021 0.934683 0.143354 0.922917 0.143977 0.925592 0.141387 0.925034 0.158138 0.936341 0.154556 0.937549 0.15498 0.935767 0.158138 0.936341 0.159196 0.940425 0.154404 0.940532 0.158138 0.936341 0.154404 0.940532 0.154556 0.937549 0.114776 0.960443 0.115038 0.959079 0.118645 0.959058 0.114776 0.960443 0.118645 0.959058 0.119603 0.960484 0.115219 0.93916 0.115907 0.936133 0.118295 0.938724 0.143354 0.922917 0.146391 0.925106 0.143977 0.925592 0.160737 0.935768 0.161238 0.937549 0.158138 0.936341 0.161238 0.937549 0.159196 0.940425 0.158138 0.936341 0.115219 0.93916 0.112948 0.936085 0.115907 0.936133 0.147546 0.92106 0.146391 0.925106 0.143354 0.922917 0.161238 0.937549 0.162617 0.940487 0.159196 0.940425 0.110505 0.960429 0.112188 0.959085 0.115038 0.959079 0.110505 0.960429 0.115038 0.959079 0.114776 0.960443 0.112219 0.937889 0.112948 0.936085 0.115219 0.93916 0.147546 0.92106 0.148617 0.92367 0.146391 0.925106 0.163309 0.935787 0.164125 0.937576 0.161238 0.937549 0.163309 0.935787 0.161238 0.937549 0.160737 0.935768 0.164125 0.937576 0.164539 0.940487 0.162617 0.940487 0.164125 0.937576 0.162617 0.940487 0.161238 0.937549 0.141005 0.916761 0.147546 0.92106 0.143354 0.922917 0.147546 0.92106 0.149981 0.921619 0.148617 0.92367 0.0989799 0.949767 0.0985562 0.951549 0.0958281 0.951576 0.0989799 0.949767 0.0958281 0.951576 0.0966441 0.949787 0.0985562 0.951549 0.0962984 0.95455 0.0958281 0.951576 0.109414 0.936819 0.110282 0.935347 0.112219 0.937889 0.109414 0.936819 0.112219 0.937889 0.111534 0.939127 0.110282 0.935347 0.112948 0.936085 0.112219 0.937889 0.0985562 0.951549 0.100816 0.954357 0.0962984 0.95455 0.112948 0.936085 0.112948 0.931351 0.115907 0.936133 0.112948 0.931351 0.117295 0.933588 0.115907 0.936133 0.147546 0.92106 0.150461 0.918237 0.149981 0.921619 0.102959 0.949762 0.103098 0.951615 0.0985562 0.951549 0.102959 0.949762 0.0985562 0.951549 0.0989799 0.949767 0.103098 0.951615 0.100816 0.954357 0.0985562 0.951549 0.128854 0.96511 0.128991 0.963737 0.132646 0.963725 0.128854 0.96511 0.132646 0.963725 0.133603 0.965151 0.109875 0.932155 0.112948 0.931351 0.112948 0.936085 0.109875 0.932155 0.112948 0.936085 0.110282 0.935347 0.103171 0.956673 0.103916 0.958272 0.101977 0.958272 0.105482 0.954478 0.103171 0.956673 0.100816 0.954357 0.128854 0.96511 0.131098 0.966542 0.126571 0.966605 0.126571 0.966605 0.131098 0.966542 0.129977 0.967641 0.126571 0.966605 0.129977 0.967641 0.12795 0.967641 0.0960929 0.915633 0.0972405 0.916229 0.0965472 0.91754 0.0960929 0.915633 0.0965472 0.91754 0.0954141 0.917271 0.105482 0.954478 0.106373 0.95666 0.103171 0.956673 0.124507 0.9651 0.128854 0.96511 0.126571 0.966605 0.126571 0.966605 0.12795 0.967641 0.126061 0.967641 0.0960929 0.915633 0.0979966 0.913558 0.0983521 0.914475 0.0960929 0.915633 0.0983521 0.914475 0.0972405 0.916229 0.108539 0.954487 0.108193 0.95666 0.106373 0.95666 0.108539 0.954487 0.106373 0.95666 0.105482 0.954478 0.124507 0.9651 0.126571 0.966605 0.12363 0.966601 0.12363 0.966601 0.126571 0.966605 0.126061 0.967641 0.12363 0.966601 0.126061 0.967641 0.124439 0.967641 0.151414 0.931154 0.154472 0.929603 0.152913 0.933367 0.119603 0.965151 0.122539 0.965111 0.122323 0.966601 0.119603 0.965151 0.122323 0.966601 0.119578 0.966627 0.119578 0.966627 0.122323 0.966601 0.121515 0.967641 0.119578 0.966627 0.121515 0.967641 0.118876 0.96765 0.0979966 0.913558 0.100218 0.912467 0.100218 0.913783 0.0979966 0.913558 0.100218 0.913783 0.0983521 0.914475 0.154472 0.929603 0.156879 0.933267 0.152913 0.933367 0.156879 0.933267 0.157977 0.934939 0.156037 0.934939 0.157952 0.929699 0.156879 0.933267 0.154472 0.929603 0.119603 0.965151 0.119578 0.966627 0.113955 0.966629 0.119603 0.965151 0.113955 0.966629 0.114897 0.965096 0.113955 0.966629 0.119578 0.966627 0.118876 0.96765 0.113955 0.966629 0.118876 0.96765 0.115977 0.967641 0.156879 0.933267 0.161277 0.933328 0.159916 0.934939 0.156879 0.933267 0.159916 0.934939 0.157977 0.934939 0.161555 0.931199 0.161277 0.933328 0.156879 0.933267 0.161555 0.931199 0.156879 0.933267 0.157952 0.929699 0.113955 0.966629 0.115977 0.967641 0.11395 0.967641 0.104699 0.912834 0.104819 0.914274 0.103459 0.913672 0.111336 0.965111 0.114897 0.965096 0.113955 0.966629 0.113955 0.966629 0.11395 0.967641 0.112061 0.967641 0.107283 0.914814 0.10658 0.915494 0.104819 0.914274 0.107283 0.914814 0.104819 0.914274 0.104699 0.912834 0.161555 0.931199 0.164539 0.931154 0.164193 0.933326 0.161555 0.931199 0.164193 0.933326 0.161277 0.933328 0.111336 0.965111 0.113955 0.966629 0.10963 0.966601 0.111336 0.965111 0.10963 0.966601 0.109414 0.965111 0.10963 0.966601 0.113955 0.966629 0.112061 0.967641 0.10963 0.966601 0.112061 0.967641 0.110439 0.967641 0.137414 0.954487 0.140472 0.952937 0.138752 0.956685 0.112504 0.971303 0.112557 0.972308 0.110851 0.972317 0.107283 0.914814 0.108539 0.917271 0.107571 0.917531 0.107283 0.914814 0.107571 0.917531 0.10658 0.915494 0.140472 0.952937 0.142723 0.956627 0.138752 0.956685 0.109863 0.970228 0.112756 0.969756 0.112504 0.971303 0.112504 0.971303 0.110851 0.972317 0.109863 0.970228 0.142723 0.956627 0.143977 0.958272 0.142037 0.958272 0.144108 0.953124 0.142723 0.956627 0.140472 0.952937 0.109863 0.970228 0.110851 0.972317 0.108977 0.972308 0.142723 0.956627 0.14731 0.956644 0.145916 0.958272 0.142723 0.956627 0.145916 0.958272 0.143977 0.958272 0.144108 0.953124 0.147666 0.953022 0.14731 0.956644 0.144108 0.953124 0.14731 0.956644 0.142723 0.956627 0.109863 0.970228 0.106776 0.971281 0.106706 0.969781 0.106776 0.971281 0.109863 0.970228 0.108977 0.972308 0.106776 0.971281 0.108977 0.972308 0.107666 0.972308 0.108281 0.921558 0.106748 0.921882 0.107386 0.920431 0.106776 0.971281 0.107666 0.972308 0.106445 0.972308 0.108281 0.921558 0.106781 0.923834 0.105601 0.923584 0.108281 0.921558 0.105601 0.923584 0.106748 0.921882 0.147666 0.953022 0.150539 0.954487 0.150193 0.95666 0.147666 0.953022 0.150193 0.95666 0.14731 0.956644 0.104734 0.969777 0.106706 0.969781 0.106776 0.971281 0.104734 0.969777 0.106776 0.971281 0.104874 0.971268 0.106776 0.971281 0.106445 0.972308 0.105397 0.972308 0.106776 0.971281 0.105397 0.972308 0.104874 0.971268 0.105374 0.924914 0.105601 0.923584 0.106781 0.923834 0.154404 0.940532 0.153581 0.94266 0.15176 0.94266 0.154404 0.940532 0.15176 0.94266 0.151414 0.940487 0.119603 0.960484 0.122539 0.960444 0.121273 0.961966 0.121273 0.961966 0.121515 0.962974 0.118876 0.962983 0.105374 0.924914 0.103735 0.925592 0.10383 0.924209 0.105374 0.924914 0.10383 0.924209 0.105601 0.923584 0.154404 0.940532 0.156827 0.942563 0.153581 0.94266 0.119603 0.960484 0.121273 0.961966 0.11727 0.961937 0.121273 0.961966 0.118876 0.962983 0.11727 0.961937 0.156827 0.942563 0.157977 0.944272 0.156037 0.944272 0.154404 0.940532 0.159196 0.940425 0.156827 0.942563 0.119603 0.960484 0.11727 0.961937 0.114776 0.960443 0.11727 0.961937 0.118876 0.962983 0.115977 0.962974 0.161232 0.942695 0.159916 0.944272 0.157977 0.944272 0.161232 0.942695 0.157977 0.944272 0.156827 0.942563 0.159196 0.940425 0.161232 0.942695 0.156827 0.942563 0.114776 0.960443 0.11727 0.961937 0.112676 0.961973 0.112676 0.961973 0.11727 0.961937 0.115977 0.962974 0.112676 0.961973 0.115977 0.962974 0.11395 0.962974 0.0994501 0.925313 0.0985517 0.923429 0.100544 0.924373 0.162617 0.940487 0.161232 0.942695 0.159196 0.940425 0.114776 0.960443 0.112676 0.961973 0.110505 0.960429 0.112676 0.961973 0.11395 0.962974 0.111184 0.962972 0.0994501 0.925313 0.096764 0.923368 0.0985517 0.923429 0.162617 0.940487 0.164539 0.940487 0.164193 0.94266 0.162617 0.940487 0.164193 0.94266 0.161232 0.942695 0.110505 0.960429 0.112676 0.961973 0.10963 0.961934 0.112676 0.961973 0.111184 0.962972 0.10963 0.961934 0.096764 0.923368 0.0970322 0.92157 0.0985517 0.923429 0.133603 0.965151 0.136539 0.965111 0.135394 0.966615 0.135394 0.966615 0.135515 0.967641 0.133893 0.967641 0.0954141 0.920788 0.0965236 0.920309 0.0970322 0.92157 0.0954141 0.920788 0.0970322 0.92157 0.096764 0.923368 0.0962984 0.95455 0.100816 0.954357 0.0997012 0.95666 0.0962984 0.95455 0.0997012 0.95666 0.0965674 0.956641 0.133603 0.965151 0.135394 0.966615 0.131098 0.966542 0.135394 0.966615 0.133893 0.967641 0.132004 0.967641 0.135394 0.966615 0.132004 0.967641 0.131098 0.966542 0.103171 0.956673 0.101977 0.958272 0.100037 0.958272 0.103171 0.956673 0.100037 0.958272 0.0997012 0.95666 0.100816 0.954357 0.103171 0.956673 0.0997012 0.95666 0.133603 0.965151 0.131098 0.966542 0.128854 0.96511 0.131098 0.966542 0.132004 0.967641 0.129977 0.967641</float_array>
                    <technique_common>
                        <accessor count="750" source="#shape0-lib-map-array" stride="2">
                            <param name="U" type="float"/>
                            <param name="V" type="float"/>
                        </accessor>
                    </technique_common>
                </source>
                <vertices id="shape0-lib-vertices">
                    <input semantic="POSITION" source="#shape0-lib-positions"/>
                </vertices>
                <triangles count="250" material="material0">
                    <input offset="0" semantic="VERTEX" source="#shape0-lib-vertices"/>
                    <input offset="1" semantic="COLOR" source="#shape0-lib-vcolor"/>
                    <input offset="2" semantic="NORMAL" source="#shape0-lib-normals"/>
                    <input offset="3" semantic="TEXCOORD" source="#shape0-lib-map"/>
                    <p>7 7 0 0 2 2 0 1 82 82 0 2 3 3 1 3 8 8 1 4 95 95 1 5 7 7 2 6 10 10 2 7 2 2 2 8 10 10 3 9 11 11 3 10 3 3 3 11 10 10 4 12 3 3 4 13 2 2 4 14 11 11 5 15 8 8 5 16 3 3 5 17 14 14 6 18 15 15 6 19 6 6 6 20 14 14 7 21 6 6 7 22 5 5 7 23 15 15 8 24 100 100 8 25 6 6 8 26 36 36 9 27 7 7 9 28 82 82 9 29 11 11 10 30 12 12 10 31 8 8 10 32 16 16 11 33 13 13 11 34 9 9 11 35 7 7 12 36 17 17 12 37 10 10 12 38 17 17 13 39 18 18 13 40 11 11 13 41 17 17 14 42 11 11 14 43 10 10 14 44 18 18 15 45 12 12 15 46 11 11 15 47 16 16 16 48 19 19 16 49 13 13 16 50 20 20 17 51 21 21 17 52 15 15 17 53 20 20 18 54 15 15 18 55 14 14 18 56 21 21 19 57 100 100 19 58 15 15 19 59 36 36 20 60 24 24 20 61 7 7 20 62 24 24 21 63 17 17 21 64 7 7 21 65 21 21 22 66 22 22 22 67 100 100 22 68 22 22 23 69 23 23 23 70 100 100 23 71 23 23 24 72 1 1 24 73 100 100 24 74 24 24 25 75 25 25 25 76 17 17 25 77 25 25 26 78 26 26 26 79 18 18 26 80 25 25 27 81 18 18 27 82 17 17 27 83 29 29 28 84 30 30 28 85 21 21 28 86 29 29 29 87 21 21 29 88 20 20 29 89 30 30 30 90 22 22 30 91 21 21 30 92 24 24 31 93 31 31 31 94 25 25 31 95 31 31 32 96 32 32 32 97 26 26 32 98 31 31 33 99 26 26 33 100 25 25 33 101 32 32 34 102 33 33 34 103 26 26 34 104 35 35 35 105 41 41 35 106 30 30 35 107 35 35 36 108 30 30 36 109 29 29 36 110 41 41 37 111 42 42 37 112 22 22 37 113 41 41 38 114 22 22 38 115 30 30 38 116 42 42 39 117 23 23 39 118 22 22 39 119 36 36 40 120 37 37 40 121 31 31 40 122 36 36 41 123 31 31 41 124 24 24 41 125 37 37 42 126 38 38 42 127 32 32 42 128 37 37 43 129 32 32 43 130 31 31 43 131 38 38 44 132 39 39 44 133 33 33 44 134 38 38 45 135 33 33 45 136 32 32 45 137 43 43 46 138 40 40 46 139 34 34 46 140 44 44 47 141 41 41 47 142 35 35 47 143 36 36 48 144 45 45 48 145 37 37 48 146 45 45 49 147 46 46 49 148 38 38 49 149 45 45 50 150 38 38 50 151 37 37 50 152 46 46 51 153 39 39 51 154 38 38 51 155 43 43 52 156 48 48 52 157 40 40 52 158 44 44 53 159 49 49 53 160 41 41 53 161 49 49 54 162 42 42 54 163 41 41 54 164 47 47 55 165 48 48 55 166 43 43 55 167 113 113 56 168 49 49 56 169 44 44 56 170 61 61 57 171 50 50 57 172 45 45 57 173 61 61 58 174 45 45 58 175 36 36 58 176 50 50 59 177 51 51 59 178 46 46 59 179 50 50 60 180 46 46 60 181 45 45 60 182 52 52 61 183 48 48 61 184 47 47 61 185 113 113 62 186 54 54 62 187 49 49 62 188 54 54 63 189 55 55 63 190 42 42 63 191 54 54 64 192 42 42 64 193 49 49 64 194 55 55 65 195 1 1 65 196 23 23 65 197 55 55 66 198 23 23 66 199 42 42 66 200 61 61 67 201 57 57 67 202 50 50 67 203 57 57 68 204 58 58 68 205 51 51 68 206 57 57 69 207 51 51 69 208 50 50 69 209 60 60 70 210 54 54 70 211 113 113 70 212 56 56 71 213 61 61 71 214 36 36 71 215 60 60 72 216 67 67 72 217 54 54 72 218 67 67 73 219 55 55 73 220 54 54 73 221 61 61 74 222 62 62 74 223 57 57 74 224 62 62 75 225 63 63 75 226 58 58 75 227 62 62 76 228 58 58 76 229 57 57 76 230 63 63 77 231 64 64 77 232 58 58 77 233 68 68 78 234 65 65 78 235 59 59 78 236 66 66 79 237 67 67 79 238 60 60 79 239 56 56 80 240 70 70 80 241 62 62 80 242 56 56 81 243 62 62 81 244 61 61 81 245 70 70 82 246 71 71 82 247 63 63 82 248 70 70 83 249 63 63 83 250 62 62 83 251 71 71 84 252 72 72 84 253 64 64 84 254 71 71 85 255 64 64 85 256 63 63 85 257 68 68 86 258 73 73 86 259 65 65 86 260 74 74 87 261 75 75 87 262 67 67 87 263 74 74 88 264 67 67 88 265 66 66 88 266 75 75 89 267 69 69 89 268 55 55 89 269 75 75 90 270 55 55 90 271 67 67 90 272 69 69 91 273 1 1 91 274 55 55 91 275 56 56 92 276 76 76 92 277 70 70 92 278 76 76 93 279 71 71 93 280 70 70 93 281 76 76 94 282 78 78 94 283 72 72 94 284 76 76 95 285 72 72 95 286 71 71 95 287 80 80 96 288 81 81 96 289 75 75 96 290 80 80 97 291 75 75 97 292 74 74 97 293 81 81 98 294 69 69 98 295 75 75 98 296 56 56 99 297 83 83 99 298 76 76 99 299 83 83 100 300 84 84 100 301 76 76 100 302 84 84 101 303 78 78 101 304 76 76 101 305 81 81 102 306 99 99 102 307 69 69 102 308 82 82 103 309 83 83 103 310 56 56 103 311 84 84 104 312 85 85 104 313 78 78 104 314 89 89 105 315 90 90 105 316 81 81 105 317 89 89 106 318 81 81 106 319 80 80 106 320 90 90 107 321 99 99 107 322 81 81 107 323 82 82 108 324 86 86 108 325 83 83 108 326 86 86 109 327 87 87 109 328 84 84 109 329 86 86 110 330 84 84 110 331 83 83 110 332 87 87 111 333 91 91 111 334 85 85 111 335 87 87 112 336 85 85 112 337 84 84 112 338 36 36 113 339 82 82 113 340 56 56 113 341 82 82 114 342 93 93 114 343 86 86 114 344 93 93 115 345 94 94 115 346 87 87 115 347 93 93 116 348 87 87 116 349 86 86 116 350 94 94 117 351 91 91 117 352 87 87 117 353 97 97 118 354 98 98 118 355 90 90 118 356 97 97 119 357 90 90 119 358 89 89 119 359 98 98 120 360 99 99 120 361 90 90 120 362 94 94 121 363 95 95 121 364 91 91 121 365 99 99 122 366 100 100 122 367 69 69 122 368 100 100 123 369 1 1 123 370 69 69 123 371 82 82 124 372 2 2 124 373 93 93 124 374 2 2 125 375 3 3 125 376 94 94 125 377 2 2 126 378 94 94 126 379 93 93 126 380 3 3 127 381 95 95 127 382 94 94 127 383 5 5 128 384 6 6 128 385 98 98 128 386 5 5 129 387 98 98 129 388 97 97 129 389 6 6 130 390 100 100 130 391 99 99 130 392 6 6 131 393 99 99 131 394 98 98 131 395 101 101 132 396 4 4 132 397 0 0 132 398 8 8 133 399 101 101 133 400 95 95 133 401 5 5 134 402 126 126 134 403 103 103 134 404 103 103 135 405 126 126 135 406 0 0 135 407 103 103 136 408 0 0 136 409 4 4 136 410 102 102 137 411 9 9 137 412 4 4 137 413 102 102 138 414 4 4 138 415 101 101 138 416 8 8 139 417 102 102 139 418 101 101 139 419 14 14 140 420 5 5 140 421 103 103 140 422 103 103 141 423 4 4 141 424 9 9 141 425 102 102 142 426 105 105 142 427 16 16 142 428 102 102 143 429 16 16 143 430 9 9 143 431 12 12 144 432 105 105 144 433 102 102 144 434 12 12 145 435 102 102 145 436 8 8 145 437 14 14 146 438 103 103 146 439 104 104 146 440 104 104 147 441 103 103 147 442 9 9 147 443 104 104 148 444 9 9 148 445 13 13 148 446 12 12 149 447 18 18 149 448 105 105 149 449 20 20 150 450 14 14 150 451 104 104 150 452 20 20 151 453 104 104 151 454 106 106 151 455 106 106 152 456 104 104 152 457 13 13 152 458 106 106 153 459 13 13 153 460 19 19 153 461 105 105 154 462 107 107 154 463 19 19 154 464 105 105 155 465 19 19 155 466 16 16 155 467 18 18 156 468 107 107 156 469 105 105 156 470 107 107 157 471 27 27 157 472 19 19 157 473 26 26 158 474 107 107 158 475 18 18 158 476 20 20 159 477 106 106 159 478 108 108 159 479 20 20 160 480 108 108 160 481 29 29 160 482 108 108 161 483 106 106 161 484 19 19 161 485 108 108 162 486 19 19 162 487 27 27 162 488 107 107 163 489 109 109 163 490 28 28 163 491 107 107 164 492 28 28 164 493 27 27 164 494 33 33 165 495 109 109 165 496 107 107 165 497 33 33 166 498 107 107 166 499 26 26 166 500 108 108 167 501 27 27 167 502 28 28 167 503 109 109 168 504 34 34 168 505 28 28 168 506 35 35 169 507 29 29 169 508 108 108 169 509 108 108 170 510 28 28 170 511 34 34 170 512 110 110 171 513 43 43 171 514 34 34 171 515 110 110 172 516 34 34 172 517 109 109 172 518 33 33 173 519 39 39 173 520 110 110 173 521 33 33 174 522 110 110 174 523 109 109 174 524 35 35 175 525 108 108 175 526 111 111 175 527 35 35 176 528 111 111 176 529 44 44 176 530 111 111 177 531 108 108 177 532 34 34 177 533 111 111 178 534 34 34 178 535 40 40 178 536 39 39 179 537 46 46 179 538 110 110 179 539 111 111 180 540 40 40 180 541 48 48 180 542 110 110 181 543 112 112 181 544 47 47 181 545 110 110 182 546 47 47 182 547 43 43 182 548 46 46 183 549 112 112 183 550 110 110 183 551 113 113 184 552 44 44 184 553 111 111 184 554 111 111 185 555 48 48 185 556 113 113 185 557 112 112 186 558 52 52 186 559 47 47 186 560 51 51 187 561 112 112 187 562 46 46 187 563 113 113 188 564 48 48 188 565 52 52 188 566 112 112 189 567 114 114 189 568 53 53 189 569 112 112 190 570 53 53 190 571 52 52 190 572 51 51 191 573 58 58 191 574 114 114 191 575 51 51 192 576 114 114 192 577 112 112 192 578 113 113 193 579 115 115 193 580 60 60 193 581 115 115 194 582 113 113 194 583 52 52 194 584 115 115 195 585 52 52 195 586 53 53 195 587 114 114 196 588 59 59 196 589 53 53 196 590 115 115 197 591 53 53 197 592 59 59 197 593 114 114 198 594 116 116 198 595 68 68 198 596 114 114 199 597 68 68 199 598 59 59 199 599 58 58 200 600 64 64 200 601 116 116 200 602 58 58 201 603 116 116 201 604 114 114 201 605 66 66 202 606 60 60 202 607 115 115 202 608 66 66 203 609 115 115 203 610 118 118 203 611 115 115 204 612 59 59 204 613 65 65 204 614 115 115 205 615 65 65 205 616 118 118 205 617 117 117 206 618 68 68 206 619 116 116 206 620 72 72 207 621 117 117 207 622 116 116 207 623 72 72 208 624 116 116 208 625 64 64 208 626 74 74 209 627 66 66 209 628 118 118 209 629 118 118 210 630 65 65 210 631 73 73 210 632 117 117 211 633 119 119 211 634 73 73 211 635 117 117 212 636 73 73 212 637 68 68 212 638 72 72 213 639 119 119 213 640 117 117 213 641 74 74 214 642 118 118 214 643 120 120 214 644 118 118 215 645 73 73 215 646 120 120 215 647 119 119 216 648 77 77 216 649 73 73 216 650 72 72 217 651 78 78 217 652 119 119 217 653 74 74 218 654 120 120 218 655 80 80 218 656 120 120 219 657 73 73 219 658 77 77 219 659 121 121 220 660 79 79 220 661 77 77 220 662 121 121 221 663 77 77 221 664 119 119 221 665 78 78 222 666 121 121 222 667 119 119 222 668 80 80 223 669 120 120 223 670 122 122 223 671 122 122 224 672 120 120 224 673 77 77 224 674 122 122 225 675 77 77 225 676 79 79 225 677 121 121 226 678 88 88 226 679 79 79 226 680 85 85 227 681 121 121 227 682 78 78 227 683 80 80 228 684 122 122 228 685 89 89 228 686 122 122 229 687 79 79 229 688 88 88 229 689 121 121 230 690 123 123 230 691 88 88 230 692 85 85 231 693 91 91 231 694 123 123 231 695 85 85 232 696 123 123 232 697 121 121 232 698 89 89 233 699 122 122 233 700 124 124 233 701 122 122 234 702 88 88 234 703 124 124 234 704 123 123 235 705 92 92 235 706 88 88 235 707 97 97 236 708 89 89 236 709 124 124 236 710 124 124 237 711 88 88 237 712 92 92 237 713 125 125 238 714 96 96 238 715 92 92 238 716 125 125 239 717 92 92 239 718 123 123 239 719 91 91 240 720 95 95 240 721 125 125 240 722 91 91 241 723 125 125 241 724 123 123 241 725 97 97 242 726 124 124 242 727 126 126 242 728 124 124 243 729 92 92 243 730 96 96 243 731 124 124 244 732 96 96 244 733 126 126 244 734 101 101 245 735 0 0 245 736 96 96 245 737 101 101 246 738 96 96 246 739 125 125 246 740 95 95 247 741 101 101 247 742 125 125 247 743 97 97 248 744 126 126 248 745 5 5 248 746 126 126 249 747 96 96 249 748 0 0 249 749</p>
                </triangles>
            </mesh>
        </geometry>
    </library_geometries>
    <library_visual_scenes>
        <visual_scene id="VisualSceneNode" name="VisualScene">
            <node id="node" name="node">
                <instance_geometry url="#shape0-lib">
                    <bind_material>
                        <technique_common>
                            <instance_material symbol="material0" target="#material0">
                                <bind_vertex_input semantic="UVSET0" input_semantic="TEXCOORD"/>
                            </instance_material>
                        </technique_common>
                    </bind_material>
                </instance_geometry>
            </node>
        </visual_scene>
    </library_visual_scenes>
    <scene>
        <instance_visual_scene url="#VisualSceneNode"/>
    </scene>
</COLLADA>
