<?xml version="1.0" encoding="UTF-8"?>
<COLLADA xmlns="http://www.collada.org/2005/11/COLLADASchema" version="1.4.1">
    <asset>
        <contributor>
            <author>VCGLab</author>
            <authoring_tool>VCGLib | MeshLab</authoring_tool>
        </contributor>
        <created>Thu Jul 3 01:56:22 2025 GMT</created>
        <modified>Thu Jul 3 01:56:22 2025 GMT</modified>
        <up_axis>Y_UP</up_axis>
    </asset>
    <library_images>
        <image id="texture0" name="texture0">
            <init_from>./image/shelf_items.png</init_from>
        </image>
    </library_images>
    <library_materials>
        <material id="material0" name="material0">
            <instance_effect url="#material0-fx"/>
        </material>
    </library_materials>
    <library_effects>
        <effect id="material0-fx">
            <profile_COMMON>
                <newparam sid="texture0-surface">
                    <surface type="2D">
                        <init_from>texture0</init_from>
                        <format>R8G8B8</format>
                    </surface>
                </newparam>
                <newparam sid="texture0-sampler">
                    <sampler2D>
                        <source>texture0-surface</source>
                        <minfilter>LINEAR</minfilter>
                        <magfilter>LINEAR</magfilter>
                    </sampler2D>
                </newparam>
                <technique sid="common">
                    <blinn>
                        <diffuse>
                            <texture texture="texture0-sampler" texcoord="UVSET0"/>
                        </diffuse>
                    </blinn>
                </technique>
            </profile_COMMON>
        </effect>
    </library_effects>
    <library_geometries>
        <geometry id="shape0-lib" name="shape0">
            <mesh>
                <source id="shape0-lib-positions" name="position">
                    <float_array id="shape0-lib-positions-array" count="204">0.00399999 0.09468 -0.03111 -0.00790526 0.09468 -0.0287419 -0.0215624 0.09468 -0.018408 -0.0272136 0.09468 0.0049412 -0.0179981 0.09468 0.0219981 -0.00790526 0.09468 0.0287419 0.00399999 0.09468 0.03111 0.0159052 0.09468 0.0287419 0.0295623 0.09468 0.018408 0.0352136 0.09468 -0.0049412 0.0259981 0.09468 -0.0219981 0.0159052 0.09468 -0.0287419 -0.0179981 0.10332 0.0219981 0.0314692 0.10347 -0.0121445 0.00394815 0.103649 -0.0306509 -0.00777762 0.103649 -0.0282978 -0.0177102 0.103649 -0.0216367 -0.0243376 0.103649 -0.0116817 -0.0266509 0.103649 5.18267e-05 -0.0242979 0.103649 0.0117776 -0.00768172 0.103649 0.0283376 0.00405183 0.103649 0.0306509 0.0157774 0.103649 0.0282979 0.02571 0.103649 0.0216369 0.0323376 0.103649 0.0116816 0.0346509 0.103649 -5.18696e-05 0.0256367 0.103649 -0.0217101 0.0156817 0.103649 -0.0283376 0.0092352 0.100897 -0.0223962 -0.0183738 0.100854 -0.00584013 -0.0078666 0.101899 0.0217106 0.0220175 0.100989 0.0136921 0.00399999 0.09468 -1.04308e-10 -5.30926e-05 -5.12418e-05 -0.0254685 -0.0140312 4.19617e-08 -0.0180312 -0.0211262 -5.24243e-05 -0.00613978 -0.0111424 -5.41977e-05 0.0208717 0.00793586 -5.09576e-05 0.0255652 0.0248717 -5.4196e-05 0.0151424 0.0295652 -5.09577e-05 -0.00393592 0.0191424 -5.41957e-05 -0.0208717 -0.00199605 0.0960508 -0.0250846 -0.0140312 0.096 -0.0180312 -0.0215145 0.0960535 -0.00452939 -0.0170481 0.0960607 0.0150109 -0.000529378 0.0960535 0.0255145 0.0137584 0.096 0.0235589 0.0259887 0.0960499 0.0134792 0.0275589 0.096 -0.00975843 0.0174792 0.0960499 -0.0219887 -0.00282052 0.0806148 -0.0338741 -0.0200417 0.081 -0.0240416 -0.0314418 0.0815656 -0.000370665 -0.0158967 0.0807625 0.028308 0.0104741 0.0811051 0.0339672 0.0280416 0.081 0.0240416 0.0394418 0.0815656 0.000370656 0.0238965 0.0807626 -0.0283081 -0.00231073 0.0132699 -0.0336497 -0.0242578 0.0132687 -0.0193261 -0.0300026 0.0136533 0.00592112 -0.0153262 0.0132687 0.0282578 0.00992116 0.0136533 0.0340026 0.0322579 0.0132687 0.019326 0.0380026 0.0136533 -0.00592118 0.023326 0.0132687 -0.0282579 -0.0195094 -6.74284e-06 0.00956531 0.0293847 0.0960063 -0.000155672</float_array>
                    <technique_common>
                        <accessor count="68" source="#shape0-lib-positions-array" stride="3">
                            <param name="X" type="float"/>
                            <param name="Y" type="float"/>
                            <param name="Z" type="float"/>
                        </accessor>
                    </technique_common>
                </source>
                <source id="shape0-lib-normals" name="normal">
                    <float_array id="shape0-lib-normals-array" count="384">-0.194856 0.0490186 -0.979606 -0.196493 0.0512773 -0.979163 -0.602703 0.0480151 -0.79652 -0.555987 -0.0596551 -0.829048 -0.822204 0.156091 -0.547372 -0.964512 -0.123377 -0.233441 -0.98017 -0.043856 -0.193245 -0.966782 0.166414 0.194006 -0.877253 -0.0760828 0.47396 -0.851278 0 0.524715 -0.555569 0 0.83147 -0.524051 0.0513872 0.850136 -0.194856 0.0490189 0.979606 -0.193177 0.0512724 0.979823 0.194856 0.0490187 0.979606 0.19649 0.0512717 0.979164 0.602701 0.0480179 0.796521 0.555979 -0.059664 0.829052 0.822205 0.156096 0.547369 0.964513 -0.123373 0.233441 0.98017 -0.0438513 0.193245 0.94743 0.19692 -0.252188 0.879708 -0.0147562 -0.475286 0.853115 0.0510452 -0.519219 0.554899 0.0490218 -0.830472 0.553434 0.0512706 -0.831313 0.194856 0.049019 -0.979606 0.193178 0.0512725 -0.979823 0.137271 0.989126 -0.0527862 0.127137 0.958122 -0.256592 -0.17037 0.951569 0.255912 -0.070113 0.931995 0.355626 0.0567623 0.95748 0.28286 0.119272 0.976803 0.177847 0.0999227 0.980507 0.169179 0.268516 0.946543 0.178762 0.36467 0.928357 0.0718956 0.282909 0.957465 -0.0567719 0.165064 0.981184 -0.100161 0.0505384 0.965264 -0.256342 -0.0391721 0.979979 -0.195209 -0.0160234 0.985057 -0.171482 -0.163626 0.955874 -0.243989 -0.279028 0.942145 -0.185758 -0.258572 0.964646 -0.0509798 -0.173457 0.984351 0.0310717 -0.169193 0.97807 0.121459 -0.00254616 0.999995 -0.00164849 0.0183649 0.998823 -0.044883 -0.135507 0.989732 0.0454718 0 -1 0 0 -1 0 0 -1 0 0 -1 0 0 -1 0 0 -1 0 0 -1 0 0 -1 0 0 -1 0 0 -1 0 0 -1 0 0 -1 0 -0.431458 0.463686 -0.773847 -0.444813 0.480968 -0.75552 -0.789277 0.473105 -0.391425 -0.794134 0.417329 -0.4418 -0.786711 0.590616 0.179607 -0.824536 0.334562 0.4563 -0.440801 0.569722 0.693622 -0.199754 0.366749 0.908622 0.115123 0.551804 0.82599 0.44226 0.446163 0.778039 0.537056 0.532446 0.654272 0.823108 0.397156 0.405907 0.801011 0.565062 0.197702 0.813325 0.560782 -0.155007 0.817646 0.355125 -0.453146 0.666587 0.506072 -0.547315 0.180855 0.439609 -0.879793 0.137353 0.48458 -0.863896 -0.54653 -0.00692694 -0.837411 -0.496109 -0.0295321 -0.867758 -0.488247 -0.449323 -0.748147 -0.400452 -0.527866 -0.748996 -0.900416 0.0258153 -0.434263 -0.698747 -0.579486 -0.419462 -0.974386 -0.0411311 -0.221088 -0.892881 -0.404913 -0.197 -0.800939 -0.592799 0.0841761 -0.835015 0.0331885 0.549225 -0.879219 -0.00778738 0.476355 -0.731649 -0.49158 0.47227 -0.73116 -0.417774 0.539324 -0.221833 -0.00260113 0.975081 -0.20985 0.00223361 0.977731 -0.185528 -0.495547 0.848535 -0.203555 -0.522833 0.827775 0.549079 -0.00406223 0.83576 0.491556 -0.0299954 0.870329 0.472276 -0.491574 0.731649 0.449305 -0.514675 0.730229 0.900414 0.025816 0.434267 0.974387 -0.0411315 0.221086 0.848535 -0.495548 0.185527 0.827774 -0.522834 0.203555 0.835012 0.0331892 -0.54923 0.879216 -0.00778694 -0.47636 0.731648 -0.491574 -0.472277 0.730229 -0.514674 -0.449307 0.205814 -0.00246819 -0.978588 0.20396 -0.00171746 -0.978978 0.179082 -0.49266 -0.851596 0.198541 -0.522168 -0.829411 -0.000404286 -0.999999 0.00104565 -0.000725528 -1 0.000637705 -0.00101646 -0.999999 -0.0004198 -0.000920338 -0.999999 -0.00118474 0.00147 -0.999985 -0.00528495 0.0104638 -0.999944 0.00183135 -0.00424836 -0.99999 -0.0010892 -0.00029637 0.999998 0.00215555 -0.00182631 0.99999 0.00408143 0.00120924 0.999994 -0.00329128 0.000977245 0.999999 -0.000591323 0.000920914 0.999999 -0.000763782 0.00415483 0.999987 0.00300479 -0.00844114 0.99995 -0.00529509 0.00747069 0.99997 -0.00207988</float_array>
                    <technique_common>
                        <accessor count="128" source="#shape0-lib-normals-array" stride="3">
                            <param name="X" type="float"/>
                            <param name="Y" type="float"/>
                            <param name="Z" type="float"/>
                        </accessor>
                    </technique_common>
                </source>
                <source id="shape0-lib-vcolor" name="vcolor">
                    <float_array id="shape0-lib-vcolor-array" count="272">1 1 1 1 1 1 1 1 1 1 1 1 1 1 1 1 1 1 1 1 1 1 1 1 1 1 1 1 1 1 1 1 1 1 1 1 1 1 1 1 1 1 1 1 1 1 1 1 1 1 1 1 1 1 1 1 1 1 1 1 1 1 1 1 1 1 1 1 1 1 1 1 1 1 1 1 1 1 1 1 1 1 1 1 1 1 1 1 1 1 1 1 1 1 1 1 1 1 1 1 1 1 1 1 1 1 1 1 1 1 1 1 1 1 1 1 1 1 1 1 1 1 1 1 1 1 1 1 1 1 1 1 1 1 1 1 1 1 1 1 1 1 1 1 1 1 1 1 1 1 1 1 1 1 1 1 1 1 1 1 1 1 1 1 1 1 1 1 1 1 1 1 1 1 1 1 1 1 1 1 1 1 1 1 1 1 1 1 1 1 1 1 1 1 1 1 1 1 1 1 1 1 1 1 1 1 1 1 1 1 1 1 1 1 1 1 1 1 1 1 1 1 1 1 1 1 1 1 1 1 1 1 1 1 1 1 1 1 1 1 1 1 1 1 1 1 1 1 1 1 1 1 1 1 1 1 1 1 1 1 1 1 1 1 1 1 1 1 1 1 1 1</float_array>
                    <technique_common>
                        <accessor count="68" source="#shape0-lib-vcolor-array" stride="4">
                            <param name="R" type="float"/>
                            <param name="G" type="float"/>
                            <param name="B" type="float"/>
                            <param name="A" type="float"/>
                        </accessor>
                    </technique_common>
                </source>
                <source id="shape0-lib-map" name="map">
                    <float_array id="shape0-lib-map-array" count="768">0.620722 0.589214 0.620722 0.583503 0.625938 0.583503 0.620722 0.589214 0.625938 0.583503 0.625938 0.589214 0.625938 0.589214 0.625938 0.583503 0.63036 0.583503 0.625938 0.589214 0.63036 0.583503 0.63036 0.589214 0.672747 0.554946 0.674052 0.549235 0.675606 0.554946 0.675606 0.554946 0.674052 0.549235 0.680527 0.549235 0.675606 0.554946 0.680527 0.549235 0.678978 0.554946 0.678978 0.554946 0.680527 0.549235 0.68235 0.554946 0.68235 0.554946 0.680527 0.549235 0.685209 0.549235 0.68235 0.554946 0.685209 0.549235 0.685209 0.554946 0.672767 0.589214 0.672767 0.583503 0.677189 0.583503 0.672767 0.589214 0.677189 0.583503 0.677189 0.589214 0.677189 0.589214 0.677189 0.583503 0.682405 0.583503 0.677189 0.589214 0.682405 0.583503 0.682405 0.589214 0.682405 0.589214 0.682405 0.583503 0.687621 0.583503 0.682405 0.589214 0.687621 0.583503 0.687621 0.589214 0.687621 0.589214 0.687621 0.583503 0.692043 0.583503 0.687621 0.589214 0.692043 0.583503 0.692043 0.589214 0.672747 0.548092 0.674052 0.542381 0.675606 0.548092 0.675606 0.548092 0.674052 0.542381 0.680527 0.542381 0.675606 0.548092 0.680527 0.542381 0.678978 0.548092 0.678978 0.548092 0.680527 0.542381 0.68235 0.548092 0.68235 0.548092 0.680527 0.542381 0.685209 0.542381 0.68235 0.548092 0.685209 0.542381 0.685209 0.548092 0.611084 0.589214 0.611084 0.583503 0.615506 0.583503 0.611084 0.589214 0.615506 0.583503 0.615506 0.589214 0.615506 0.589214 0.615506 0.583503 0.620722 0.583503 0.615506 0.589214 0.620722 0.583503 0.620722 0.589214 0.704775 0.576251 0.702927 0.579466 0.699746 0.579283 0.702927 0.579466 0.699692 0.581322 0.699746 0.579283 0.689486 0.56601 0.692532 0.56398 0.694552 0.565822 0.692532 0.56398 0.696123 0.56327 0.694552 0.565822 0.696123 0.56327 0.699712 0.563988 0.694552 0.565822 0.699712 0.563988 0.702753 0.566025 0.702931 0.570941 0.699712 0.563988 0.702931 0.570941 0.694552 0.565822 0.702753 0.566025 0.704783 0.569071 0.702931 0.570941 0.704783 0.569071 0.705493 0.572662 0.702931 0.570941 0.705493 0.572662 0.704775 0.576251 0.702931 0.570941 0.704775 0.576251 0.699746 0.579283 0.702931 0.570941 0.699692 0.581322 0.696101 0.582032 0.699746 0.579283 0.696101 0.582032 0.692512 0.581314 0.690695 0.576716 0.696101 0.582032 0.690695 0.576716 0.699746 0.579283 0.692512 0.581314 0.689471 0.579277 0.690695 0.576716 0.689471 0.579277 0.687441 0.576231 0.690695 0.576716 0.687441 0.576231 0.686731 0.57264 0.690695 0.576716 0.686731 0.57264 0.687779 0.569008 0.690695 0.576716 0.687779 0.569008 0.689486 0.56601 0.694552 0.565822 0.694552 0.565822 0.702931 0.570941 0.690695 0.576716 0.702931 0.570941 0.699746 0.579283 0.690695 0.576716 0.687779 0.569008 0.694552 0.565822 0.690695 0.576716 0.637595 0.577454 0.641283 0.57672 0.641283 0.586358 0.641283 0.57672 0.644971 0.577454 0.641283 0.586358 0.644971 0.577454 0.648098 0.579543 0.641283 0.586358 0.648098 0.579543 0.650812 0.584716 0.641283 0.586358 0.650812 0.584716 0.649181 0.591902 0.641283 0.586358 0.649181 0.591902 0.644971 0.595263 0.641283 0.586358 0.644971 0.595263 0.641283 0.595996 0.641283 0.586358 0.641283 0.595996 0.637595 0.595263 0.641283 0.586358 0.637595 0.595263 0.634468 0.593174 0.641283 0.586358 0.634468 0.593174 0.631754 0.588 0.641283 0.586358 0.631754 0.588 0.633385 0.580815 0.641283 0.586358 0.633385 0.580815 0.637595 0.577454 0.641283 0.586358 0.0482842 0.591629 0.0484267 0.589867 0.0502412 0.589898 0.0482842 0.591629 0.0502412 0.589898 0.0496088 0.591623 0.0518855 0.591623 0.0512531 0.589898 0.0537563 0.589954 0.0518855 0.591623 0.0537563 0.589954 0.0532888 0.591627 0.0532888 0.591627 0.0537563 0.589954 0.0553486 0.591621 0.0553486 0.591621 0.0537563 0.589954 0.0563124 0.589898 0.185451 0.585552 0.185264 0.5838 0.186854 0.585556 0.186854 0.585556 0.185264 0.5838 0.188032 0.583838 0.186854 0.585556 0.188032 0.583838 0.188375 0.585552 0.188375 0.585552 0.188032 0.583838 0.189878 0.583827 0.188375 0.585552 0.189878 0.583827 0.189245 0.585552 0.0887748 0.555195 0.08768 0.553471 0.0901832 0.553527 0.0887748 0.555195 0.0901832 0.553527 0.0902096 0.555196 0.0902096 0.555196 0.0901832 0.553527 0.0912364 0.555196 0.0912364 0.555196 0.0901832 0.553527 0.0927393 0.553471 0.0912364 0.555196 0.0927393 0.553471 0.0921069 0.555196 0.0462767 0.591622 0.0456281 0.589871 0.0484267 0.589867 0.0462767 0.591622 0.0484267 0.589867 0.0482842 0.591629 0.0484267 0.589867 0.0483811 0.582122 0.0502412 0.582194 0.0484267 0.589867 0.0502412 0.582194 0.0502412 0.589898 0.0496088 0.580584 0.0502412 0.582194 0.0483811 0.582122 0.0496088 0.580584 0.0483811 0.582122 0.0481823 0.580578 0.0512531 0.589898 0.051787 0.58213 0.0537563 0.589954 0.0532036 0.58058 0.051787 0.58213 0.0518855 0.580584 0.0537563 0.589954 0.051787 0.58213 0.0544179 0.58216 0.0532036 0.58058 0.0544179 0.58216 0.051787 0.58213 0.0548095 0.580584 0.0544179 0.58216 0.0532036 0.58058 0.0537563 0.589954 0.0544179 0.58216 0.0563124 0.582194 0.0537563 0.589954 0.0563124 0.582194 0.0563124 0.589898 0.0556799 0.580584 0.0563124 0.582194 0.0544179 0.58216 0.0556799 0.580584 0.0544179 0.58216 0.0548095 0.580584 0.185264 0.5838 0.185352 0.576059 0.187983 0.576089 0.185264 0.5838 0.187983 0.576089 0.188032 0.583838 0.187813 0.574509 0.187983 0.576089 0.185352 0.576059 0.187813 0.574509 0.185352 0.576059 0.185842 0.574515 0.188032 0.583838 0.187983 0.576089 0.189878 0.576123 0.188032 0.583838 0.189878 0.576123 0.189878 0.583827 0.189245 0.574513 0.189878 0.576123 0.187983 0.576089 0.189245 0.574513 0.187983 0.576089 0.187813 0.574509 0.08768 0.553471 0.0882139 0.545703 0.0901832 0.553527 0.0901832 0.553527 0.0882139 0.545703 0.0908448 0.545733 0.0906742 0.544154 0.0908448 0.545733 0.0882139 0.545703 0.0906742 0.544154 0.0882139 0.545703 0.0887033 0.54416 0.0901832 0.553527 0.0908448 0.545733 0.0927393 0.545767 0.0901832 0.553527 0.0927393 0.545767 0.0927393 0.553471 0.0921069 0.544158 0.0927393 0.545767 0.0908448 0.545733 0.0921069 0.544158 0.0908448 0.545733 0.0906742 0.544154 0.0456281 0.589871 0.0457158 0.58213 0.0483811 0.582122 0.0456281 0.589871 0.0483811 0.582122 0.0484267 0.589867 0.0481823 0.580578 0.0483811 0.582122 0.0457158 0.58213 0.0481823 0.580578 0.0457158 0.58213 0.0462052 0.580586 0.0897801 0.556288 0.0916703 0.556715 0.0879948 0.559685 0.0916703 0.556715 0.0927113 0.558361 0.0879948 0.559685 0.0927113 0.558361 0.0922776 0.560244 0.0879948 0.559685 0.0922776 0.560244 0.0906315 0.561285 0.0879948 0.559685 0.0906315 0.561285 0.088749 0.560852 0.0879948 0.559685 0.0877369 0.558216 0.0884209 0.556995 0.0879948 0.559685 0.0884209 0.556995 0.0897801 0.556288 0.0879948 0.559685 0.101001 0.586997 0.10291 0.58667 0.0999602 0.589125 0.10291 0.58667 0.104141 0.58735 0.0999602 0.589125 0.104141 0.58735 0.10485 0.588678 0.0999602 0.589125 0.10485 0.588678 0.104432 0.590591 0.0999602 0.589125 0.104432 0.590591 0.102813 0.591637 0.0999602 0.589125 0.102813 0.591637 0.101384 0.591476 0.0999602 0.589125 0.101384 0.591476 0.10021 0.59049 0.0999602 0.589125 0.100015 0.588171 0.101001 0.586997 0.0999602 0.589125</float_array>
                    <technique_common>
                        <accessor count="384" source="#shape0-lib-map-array" stride="2">
                            <param name="U" type="float"/>
                            <param name="V" type="float"/>
                        </accessor>
                    </technique_common>
                </source>
                <vertices id="shape0-lib-vertices">
                    <input semantic="POSITION" source="#shape0-lib-positions"/>
                </vertices>
                <triangles count="128" material="material0">
                    <input offset="0" semantic="VERTEX" source="#shape0-lib-vertices"/>
                    <input offset="1" semantic="COLOR" source="#shape0-lib-vcolor"/>
                    <input offset="2" semantic="NORMAL" source="#shape0-lib-normals"/>
                    <input offset="3" semantic="TEXCOORD" source="#shape0-lib-map"/>
                    <p>14 14 0 0 0 0 0 1 1 1 0 2 14 14 1 3 1 1 1 4 15 15 1 5 15 15 2 6 1 1 2 7 2 2 2 8 15 15 3 9 2 2 3 10 16 16 3 11 16 16 4 12 2 2 4 13 17 17 4 14 17 17 5 15 2 2 5 16 3 3 5 17 17 17 6 18 3 3 6 19 18 18 6 20 18 18 7 21 3 3 7 22 19 19 7 23 19 19 8 24 3 3 8 25 4 4 8 26 19 19 9 27 4 4 9 28 12 12 9 29 12 12 10 30 4 4 10 31 5 5 10 32 12 12 11 33 5 5 11 34 20 20 11 35 20 20 12 36 5 5 12 37 6 6 12 38 20 20 13 39 6 6 13 40 21 21 13 41 21 21 14 42 6 6 14 43 7 7 14 44 21 21 15 45 7 7 15 46 22 22 15 47 22 22 16 48 7 7 16 49 8 8 16 50 22 22 17 51 8 8 17 52 23 23 17 53 23 23 18 54 8 8 18 55 24 24 18 56 24 24 19 57 8 8 19 58 9 9 19 59 24 24 20 60 9 9 20 61 25 25 20 62 25 25 21 63 9 9 21 64 13 13 21 65 13 13 22 66 9 9 22 67 10 10 22 68 13 13 23 69 10 10 23 70 26 26 23 71 26 26 24 72 10 10 24 73 11 11 24 74 26 26 25 75 11 11 25 76 27 27 25 77 27 27 26 78 11 11 26 79 0 0 26 80 27 27 27 81 0 0 27 82 14 14 27 83 19 19 28 84 12 12 28 85 30 30 28 86 12 12 29 87 20 20 29 88 30 30 29 89 26 26 30 90 27 27 30 91 28 28 30 92 27 27 31 93 14 14 31 94 28 28 31 95 14 14 32 96 15 15 32 97 28 28 32 98 15 15 33 99 16 16 33 100 29 29 33 101 15 15 34 102 29 29 34 103 28 28 34 104 16 16 35 105 17 17 35 106 29 29 35 107 17 17 36 108 18 18 36 109 29 29 36 110 18 18 37 111 19 19 37 112 29 29 37 113 19 19 38 114 30 30 38 115 29 29 38 116 20 20 39 117 21 21 39 118 30 30 39 119 21 21 40 120 22 22 40 121 31 31 40 122 21 21 41 123 31 31 41 124 30 30 41 125 22 22 42 126 23 23 42 127 31 31 42 128 23 23 43 129 24 24 43 130 31 31 43 131 24 24 44 132 25 25 44 133 31 31 44 134 25 25 45 135 13 13 45 136 31 31 45 137 13 13 46 138 26 26 46 139 28 28 46 140 28 28 47 141 29 29 47 142 31 31 47 143 29 29 48 144 30 30 48 145 31 31 48 146 13 13 49 147 28 28 49 148 31 31 49 149 1 1 50 150 0 0 50 151 32 32 50 152 0 0 51 153 11 11 51 154 32 32 51 155 11 11 52 156 10 10 52 157 32 32 52 158 10 10 53 159 9 9 53 160 32 32 53 161 9 9 54 162 8 8 54 163 32 32 54 164 8 8 55 165 7 7 55 166 32 32 55 167 7 7 56 168 6 6 56 169 32 32 56 170 6 6 57 171 5 5 57 172 32 32 57 173 5 5 58 174 4 4 58 175 32 32 58 176 4 4 59 177 3 3 59 178 32 32 59 179 3 3 60 180 2 2 60 181 32 32 60 182 2 2 61 183 1 1 61 184 32 32 61 185 41 41 62 186 50 50 62 187 51 51 62 188 41 41 63 189 51 51 63 190 42 42 63 191 42 42 64 192 51 51 64 193 52 52 64 194 42 42 65 195 52 52 65 196 43 43 65 197 43 43 66 198 52 52 66 199 44 44 66 200 44 44 67 201 52 52 67 202 53 53 67 203 44 44 68 204 53 53 68 205 45 45 68 206 45 45 69 207 53 53 69 208 54 54 69 209 45 45 70 210 54 54 70 211 46 46 70 212 46 46 71 213 54 54 71 214 55 55 71 215 46 46 72 216 55 55 72 217 47 47 72 218 47 47 73 219 55 55 73 220 56 56 73 221 47 47 74 222 56 56 74 223 67 67 74 224 67 67 75 225 56 56 75 226 48 48 75 227 48 48 76 228 56 56 76 229 57 57 76 230 48 48 77 231 57 57 77 232 49 49 77 233 49 49 78 234 57 57 78 235 50 50 78 236 49 49 79 237 50 50 79 238 41 41 79 239 50 50 80 240 58 58 80 241 59 59 80 242 50 50 81 243 59 59 81 244 51 51 81 245 34 34 82 246 59 59 82 247 58 58 82 248 34 34 83 249 58 58 83 250 33 33 83 251 51 51 84 252 59 59 84 253 52 52 84 254 35 35 85 255 59 59 85 256 34 34 85 257 52 52 86 258 59 59 86 259 60 60 86 260 35 35 87 261 60 60 87 262 59 59 87 263 66 66 88 264 60 60 88 265 35 35 88 266 52 52 89 267 60 60 89 268 61 61 89 269 52 52 90 270 61 61 90 271 53 53 90 272 36 36 91 273 61 61 91 274 60 60 91 275 36 36 92 276 60 60 92 277 66 66 92 278 53 53 93 279 61 61 93 280 62 62 93 281 53 53 94 282 62 62 94 283 54 54 94 284 37 37 95 285 62 62 95 286 61 61 95 287 37 37 96 288 61 61 96 289 36 36 96 290 54 54 97 291 62 62 97 292 63 63 97 293 54 54 98 294 63 63 98 295 55 55 98 296 38 38 99 297 63 63 99 298 62 62 99 299 38 38 100 300 62 62 100 301 37 37 100 302 55 55 101 303 63 63 101 304 56 56 101 305 56 56 102 306 63 63 102 307 64 64 102 308 39 39 103 309 64 64 103 310 63 63 103 311 39 39 104 312 63 63 104 313 38 38 104 314 56 56 105 315 64 64 105 316 65 65 105 317 56 56 106 318 65 65 106 319 57 57 106 320 40 40 107 321 65 65 107 322 64 64 107 323 40 40 108 324 64 64 108 325 39 39 108 326 57 57 109 327 65 65 109 328 58 58 109 329 57 57 110 330 58 58 110 331 50 50 110 332 33 33 111 333 58 58 111 334 65 65 111 335 33 33 112 336 65 65 112 337 40 40 112 338 33 33 113 339 40 40 113 340 66 66 113 341 40 40 114 342 39 39 114 343 66 66 114 344 39 39 115 345 38 38 115 346 66 66 115 347 38 38 116 348 37 37 116 349 66 66 116 350 37 37 117 351 36 36 117 352 66 66 117 353 35 35 118 354 34 34 118 355 66 66 118 356 34 34 119 357 33 33 119 358 66 66 119 359 49 49 120 360 41 41 120 361 67 67 120 362 41 41 121 363 42 42 121 364 67 67 121 365 42 42 122 366 43 43 122 367 67 67 122 368 43 43 123 369 44 44 123 370 67 67 123 371 44 44 124 372 45 45 124 373 67 67 124 374 45 45 125 375 46 46 125 376 67 67 125 377 46 46 126 378 47 47 126 379 67 67 126 380 48 48 127 381 49 49 127 382 67 67 127 383</p>
                </triangles>
            </mesh>
        </geometry>
    </library_geometries>
    <library_visual_scenes>
        <visual_scene id="VisualSceneNode" name="VisualScene">
            <node id="node" name="node">
                <instance_geometry url="#shape0-lib">
                    <bind_material>
                        <technique_common>
                            <instance_material symbol="material0" target="#material0">
                                <bind_vertex_input semantic="UVSET0" input_semantic="TEXCOORD"/>
                            </instance_material>
                        </technique_common>
                    </bind_material>
                </instance_geometry>
            </node>
        </visual_scene>
    </library_visual_scenes>
    <scene>
        <instance_visual_scene url="#VisualSceneNode"/>
    </scene>
</COLLADA>
