<?xml version="1.0" encoding="UTF-8"?>
<COLLADA xmlns="http://www.collada.org/2005/11/COLLADASchema" version="1.4.1">
    <asset>
        <contributor>
            <author>VCGLab</author>
            <authoring_tool>VCGLib | MeshLab</authoring_tool>
        </contributor>
        <created>Thu Jul 3 01:45:47 2025 GMT</created>
        <modified>Thu Jul 3 01:45:47 2025 GMT</modified>
        <up_axis>Y_UP</up_axis>
    </asset>
    <library_images>
        <image id="texture0" name="texture0">
            <init_from>./image/shelf_books.png</init_from>
        </image>
        <image id="texture1" name="texture1">
            <init_from>./image/shelf_books.png</init_from>
        </image>
        <image id="texture2" name="texture2">
            <init_from>./image/shelf_books.png</init_from>
        </image>
    </library_images>
    <library_materials>
        <material id="material0" name="material0">
            <instance_effect url="#material0-fx"/>
        </material>
        <material id="material1" name="material1">
            <instance_effect url="#material1-fx"/>
        </material>
        <material id="material2" name="material2">
            <instance_effect url="#material2-fx"/>
        </material>
    </library_materials>
    <library_effects>
        <effect id="material0-fx">
            <profile_COMMON>
                <newparam sid="texture0-surface">
                    <surface type="2D">
                        <init_from>texture0</init_from>
                        <format>R8G8B8</format>
                    </surface>
                </newparam>
                <newparam sid="texture0-sampler">
                    <sampler2D>
                        <source>texture0-surface</source>
                        <minfilter>LINEAR</minfilter>
                        <magfilter>LINEAR</magfilter>
                    </sampler2D>
                </newparam>
                <technique sid="common">
                    <blinn>
                        <diffuse>
                            <texture texture="texture0-sampler" texcoord="UVSET0"/>
                        </diffuse>
                    </blinn>
                </technique>
            </profile_COMMON>
        </effect>
        <effect id="material1-fx">
            <profile_COMMON>
                <newparam sid="texture1-surface">
                    <surface type="2D">
                        <init_from>texture1</init_from>
                        <format>R8G8B8</format>
                    </surface>
                </newparam>
                <newparam sid="texture1-sampler">
                    <sampler2D>
                        <source>texture1-surface</source>
                        <minfilter>LINEAR</minfilter>
                        <magfilter>LINEAR</magfilter>
                    </sampler2D>
                </newparam>
                <technique sid="common">
                    <blinn>
                        <diffuse>
                            <texture texture="texture1-sampler" texcoord="UVSET0"/>
                        </diffuse>
                    </blinn>
                </technique>
            </profile_COMMON>
        </effect>
        <effect id="material2-fx">
            <profile_COMMON>
                <newparam sid="texture2-surface">
                    <surface type="2D">
                        <init_from>texture2</init_from>
                        <format>R8G8B8</format>
                    </surface>
                </newparam>
                <newparam sid="texture2-sampler">
                    <sampler2D>
                        <source>texture2-surface</source>
                        <minfilter>LINEAR</minfilter>
                        <magfilter>LINEAR</magfilter>
                    </sampler2D>
                </newparam>
                <technique sid="common">
                    <blinn>
                        <diffuse>
                            <texture texture="texture2-sampler" texcoord="UVSET0"/>
                        </diffuse>
                    </blinn>
                </technique>
            </profile_COMMON>
        </effect>
    </library_effects>
    <library_geometries>
        <geometry id="shape0-lib" name="shape0">
            <mesh>
                <source id="shape0-lib-positions" name="position">
                    <float_array id="shape0-lib-positions-array" count="234">0.0817427 0.0580764 -0.0537579 -0.0782643 0.0636132 -0.0537582 0.0817441 0.0689666 0.0664907 -0.0782631 0.0593885 0.0660666 0.0821167 0.0457534 -0.0537915 -0.0761686 0.0449228 -0.0521379 -0.0641926 0.00552211 0.0654195 0.0818543 0.00531205 0.0676306 0.0817386 0.141982 -0.0537915 0.0817386 0.119707 -0.0537915 0.081742 0.132267 0.0659874 -0.071831 0.132296 -0.052476 0.0820109 0.115753 -0.0537915 -0.0685526 0.114922 -0.0521461 -0.051348 0.0764306 0.0648197 0.0816562 0.0235388 -0.0537915 0.0816562 0.0235388 0.0633915 0.0815734 0.0935388 -0.0537915 0.0815734 0.0935388 0.0633915 0.0817386 0.0580764 -0.0537915 -0.0782615 0.0636133 -0.0537915 0.0817657 0.0697998 0.0662509 -0.0784709 0.0574351 0.0654664 0.0820027 0.0435116 0.0343269 -0.0203926 0.0391744 0.0377598 -0.0564134 0.00750067 0.0658322 0.0818543 0.00531205 0.0676306 0.0806804 0.128142 -0.0540325 -0.0782615 0.133613 -0.0537915 0.0815203 0.132246 0.0658461 -0.078797 0.127479 0.0655329 0.0818707 0.113463 0.0343216 -0.081778 0.111563 0.0272477 -0.0510317 0.0765606 0.0649126 0.0816562 0.0235388 -0.0537915 0.0816562 0.0235388 0.0633915 0.0815734 0.0935388 -0.0537915 0.0815734 0.0935388 0.0633915 0.0817386 0.0580764 -0.0537915 -0.0782615 0.0636133 -0.0537915 -0.0782615 0.0711785 0.0661985 0.081735 0.0712266 0.0659818 0.0817386 0.050443 0.0659771 -0.0782615 0.0503046 0.0659288 0.0821167 0.0457534 -0.0537915 -0.089726 0.0450876 -0.0537915 -0.0896716 0.0476876 0.0659779 0.0821043 0.0451573 0.0659298 -0.0901006 0.0269857 0.0660664 0.0816812 0.0247325 0.0662308 0.0817796 0.000347567 -0.0537915 -0.0899834 0.0134235 -0.0537915 -0.0899448 0.0212488 0.0661196 0.0817822 0.00108171 0.0659777 -0.0900118 0.000613805 0.0659298 0.0818549 0.0207143 0.0665045 0.0817386 0.141982 -0.0537915 0.0817386 0.119707 -0.0537915 -0.0782615 0.133613 -0.0537915 -0.0782615 0.141247 0.0659773 0.0817386 0.141385 0.065929 0.0817386 0.120443 0.0659771 -0.0782615 0.120304 0.0659286 0.0820109 0.115753 -0.0537915 -0.0812396 0.115088 -0.0537915 -0.081188 0.117687 0.0659778 0.0819991 0.115157 0.0659299 -0.0815985 0.0968373 0.0658889 0.0815971 0.0947327 0.0662308 0.0816907 0.0703476 -0.0537915 -0.0814857 0.0834235 -0.0537915 -0.0814476 0.0912488 0.0661196 -0.0815115 0.070537 0.0661383 0.0817523 0.0908998 0.0664549 0.0816562 0.0235388 -0.0537915 0.0816562 0.0235388 0.0633915 0.0815734 0.0935388 -0.0537915 0.0815734 0.0935388 0.0633915</float_array>
                    <technique_common>
                        <accessor count="78" source="#shape0-lib-positions-array" stride="3">
                            <param name="X" type="float"/>
                            <param name="Y" type="float"/>
                            <param name="Z" type="float"/>
                        </accessor>
                    </technique_common>
                </source>
                <source id="shape0-lib-normals" name="normal">
                    <float_array id="shape0-lib-normals-array" count="342">0.0344421 0.995333 -0.0901419 -0.0598098 0.99759 0.0351733 -0.0345612 -0.998782 -0.0352143 0.0592734 -0.994173 0.0900358 -0.00856562 0 -0.999963 -0.0620519 0.994806 0.0806863 -0.0803764 -0.991329 0.103955 1 0 -2.84267e-05 -0.0104476 0.00021657 -0.999945 -0.134265 -0.990945 0 -0.0144195 0.226359 0.973937 -0.122598 0.992456 0 0.999785 -0.0207251 0 -0.0032097 0.982499 0.186242 0.000825101 -0.98892 -0.148449 0.999941 0.010869 0 -0.0109286 0.000215236 -0.99994 -0.141015 -0.990007 0 -0.00544126 0.125097 0.99213 -0.127656 0.991819 0 0.999806 -0.019691 0 -0.00338429 0.982499 0.186238 -0.0523633 -0.978435 -0.199808 0.999976 0.00694642 0 0.0344216 0.994675 -0.097148 -0.0770845 0.995696 0.0514469 -0.0345389 -0.998062 -0.0517654 0.0761023 -0.99238 0.096899 0.0343291 0.998817 -0.0344338 -0.0297831 0.998245 0.0511846 -0.034434 -0.998081 -0.0514643 0.0296387 -0.998983 0.0339913 -0.0486585 0.974148 -0.220608 -0.0159276 0.824147 0.566152 -0.15145 -0.988465 0 -0.00908446 0.226428 0.973986 -0.115384 0.993321 0 0.99985 -0.0173469 0 -0.0137216 -0.988831 -0.148412 0.999941 0.010869 0 -0.00179121 0.975375 -0.220547 -0.0339867 0.824538 0.564785 -0.109675 -0.993968 0 -0.00391865 0.119554 0.99282 -0.126999 0.991903 0 0.999889 -0.014921 0 -0.0479348 -0.979889 -0.193702 0.999967 0.00809872 0 0.0343789 0.993439 -0.109071 -0.000385228 0.998018 -0.0629236 -0.0343737 -0.993291 -0.110419 0.000882485 -0.997975 -0.0636053 -0.000302066 -0.000224821 1 0.00135831 -0.012922 0.999916 -0.00387461 0.99998 0.00497833 0.0147191 0.999656 -0.0217081 -0.000763026 0.0147484 0.999891 0.000342747 0.00427024 0.999991 -0.0754794 -0.991486 -0.106103 0.00272188 -0.999978 0.00612947 -0.000206021 -0.0268191 0.99964 -0.002269 -0.00918892 0.999955 1 0.000172428 1.09896e-05 -1 0 0 -0.999785 0.0207181 4.18894e-06 -0.999995 0.00324711 0.000110135 0 0 -1 -0.0522342 0.998622 0.00497863 -0.000881794 0.997975 -0.0636091 -0.0860598 -0.990191 -0.110074 0.00086374 -0.999981 0.00614412 -0.000304804 0.00229327 0.999997 0.000303617 -0.00232456 0.999997 -0.00407506 0.999979 0.00497898 0.015495 0.999644 -0.0217043 -0.00190467 0.0147709 0.999889 0.000227773 -0.00427253 0.999991 -0.0794232 -0.991134 -0.106515 0.00423101 -0.999964 0.0073372 0.00105981 -0.0240418 0.99971 -0.00205267 0.000908884 0.999997 1 0 0 1 0 0 -1 0 0 -0.999806 0.0196846 2.94531e-06 -0.999995 0.00308475 0.000116445 0 0 -1 -0.0124606 -0.921728 0.387638 -0.123368 -0.981176 -0.14857 -0.0200644 -0.999799 0 0 0 -1 0.000798547 0.740618 0.671926 -0.0588315 0.998268 0 -0.0143504 0.997775 -0.0651096 0.999785 -0.0207122 -9.65342e-05 0.999785 -0.0207251 0 0.999785 -0.0207235 2.91781e-07 0.997855 -0.00193727 -0.0654382 0.999986 0.00532075 -5.43868e-05 0.999984 0.0056108 0 0 0 -1 -0.0126991 -0.92171 0.387673 -0.129728 -0.98016 -0.149857 -0.020211 -0.999796 0 0 0 -1 0.000279497 0.757643 0.652669 -0.0619154 0.998081 0 -0.0151052 0.997764 -0.0651085 0.999806 -0.0196798 -5.99638e-05 0.999806 -0.019691 0 0.999806 -0.0196869 7.75657e-07 0.998325 0.000515805 -0.0578459 0.999987 0.00505797 -0.000407115 0.999974 0.0072433 0</float_array>
                    <technique_common>
                        <accessor count="114" source="#shape0-lib-normals-array" stride="3">
                            <param name="X" type="float"/>
                            <param name="Y" type="float"/>
                            <param name="Z" type="float"/>
                        </accessor>
                    </technique_common>
                </source>
                <source id="shape0-lib-vcolor" name="vcolor">
                    <float_array id="shape0-lib-vcolor-array" count="312">1 1 1 1 1 1 1 1 1 1 1 1 1 1 1 1 1 1 1 1 1 1 1 1 1 1 1 1 1 1 1 1 1 1 1 1 1 1 1 1 1 1 1 1 1 1 1 1 1 1 1 1 1 1 1 1 1 1 1 1 1 1 1 1 1 1 1 1 1 1 1 1 1 1 1 1 1 1 1 1 1 1 1 1 1 1 1 1 1 1 1 1 1 1 1 1 1 1 1 1 1 1 1 1 1 1 1 1 1 1 1 1 1 1 1 1 1 1 1 1 1 1 1 1 1 1 1 1 1 1 1 1 1 1 1 1 1 1 1 1 1 1 1 1 1 1 1 1 1 1 1 1 1 1 1 1 1 1 1 1 1 1 1 1 1 1 1 1 1 1 1 1 1 1 1 1 1 1 1 1 1 1 1 1 1 1 1 1 1 1 1 1 1 1 1 1 1 1 1 1 1 1 1 1 1 1 1 1 1 1 1 1 1 1 1 1 1 1 1 1 1 1 1 1 1 1 1 1 1 1 1 1 1 1 1 1 1 1 1 1 1 1 1 1 1 1 1 1 1 1 1 1 1 1 1 1 1 1 1 1 1 1 1 1 1 1 1 1 1 1 1 1 1 1 1 1 1 1 1 1 1 1 1 1 1 1 1 1 1 1 1 1 1 1 1 1 1 1 1 1 1 1 1 1 1 1 1 1 1 1 1 1</float_array>
                    <technique_common>
                        <accessor count="78" source="#shape0-lib-vcolor-array" stride="4">
                            <param name="R" type="float"/>
                            <param name="G" type="float"/>
                            <param name="B" type="float"/>
                            <param name="A" type="float"/>
                        </accessor>
                    </technique_common>
                </source>
                <source id="shape0-lib-map" name="map">
                    <float_array id="shape0-lib-map-array" count="684">0.37833 0.597382 0.37833 0.59207 0.38992 0.59207 0.37833 0.597382 0.38992 0.59207 0.38992 0.597382 0.45483 0.597382 0.45483 0.59207 0.46642 0.59207 0.45483 0.597382 0.46642 0.59207 0.46642 0.597382 0.431465 0.372566 0.454613 0.374085 0.454613 0.370829 0.544079 0.603757 0.544079 0.598445 0.555497 0.600461 0.52524 0.599558 0.536545 0.598445 0.536545 0.603757 0.635163 0.743601 0.594078 0.740294 0.594078 0.746438 0.429789 0.359074 0.454667 0.360019 0.454601 0.356772 0.371942 0.581102 0.383545 0.57932 0.383545 0.584632 0.483664 0.85576 0.411355 0.850823 0.483629 0.849708 0.384705 0.508132 0.384705 0.50282 0.395852 0.506359 0.634342 0.713771 0.594078 0.713771 0.594078 0.719898 0.634342 0.713771 0.594078 0.719898 0.635424 0.71779 0.635562 0.709358 0.594078 0.707375 0.594078 0.713503 0.635562 0.709358 0.594078 0.713503 0.634342 0.713503 0.431018 0.369306 0.454652 0.370251 0.454589 0.367004 0.416559 0.587477 0.42817 0.585695 0.42817 0.591007 0.483625 0.885148 0.414878 0.880755 0.483587 0.87886 0.371955 0.591007 0.371955 0.585695 0.38289 0.589216 0.634342 0.733077 0.594078 0.733077 0.594078 0.739204 0.634342 0.733077 0.594078 0.739204 0.635421 0.737096 0.635442 0.728232 0.594078 0.726681 0.594078 0.732809 0.635442 0.728232 0.594078 0.732809 0.634342 0.732809 0.37833 0.597382 0.37833 0.59207 0.38992 0.59207 0.37833 0.597382 0.38992 0.59207 0.38992 0.597382 0.45483 0.597382 0.45483 0.59207 0.46642 0.59207 0.45483 0.597382 0.46642 0.59207 0.46642 0.597382 0.544079 0.603757 0.544079 0.598445 0.55567 0.598445 0.544079 0.603757 0.55567 0.598445 0.55567 0.603757 0.524955 0.603757 0.524955 0.598445 0.536545 0.598445 0.524955 0.603757 0.536545 0.598445 0.536545 0.603757 0.429789 0.359074 0.454667 0.360019 0.454601 0.356772 0.411347 0.860146 0.483581 0.856168 0.483695 0.861848 0.37473 0.582793 0.383545 0.57932 0.383545 0.584632 0.483664 0.85576 0.411306 0.851296 0.483629 0.849708 0.384705 0.508132 0.384705 0.50282 0.395561 0.506366 0.634342 0.713771 0.594078 0.713771 0.623256 0.718665 0.635562 0.709358 0.594078 0.707375 0.594078 0.713503 0.635562 0.709358 0.594078 0.713503 0.634342 0.713503 0.431018 0.369306 0.454652 0.370251 0.454589 0.367004 0.414919 0.889518 0.483546 0.885556 0.483654 0.891238 0.416541 0.589239 0.42817 0.585695 0.42817 0.591007 0.483625 0.885148 0.414878 0.880755 0.483584 0.878846 0.371955 0.591007 0.371955 0.585695 0.382877 0.589218 0.634342 0.733077 0.594078 0.733077 0.623255 0.737964 0.635463 0.728221 0.594078 0.726681 0.594078 0.732809 0.635463 0.728221 0.594078 0.732809 0.634342 0.732809 0.37833 0.597382 0.37833 0.59207 0.38992 0.59207 0.37833 0.597382 0.38992 0.59207 0.38992 0.597382 0.45483 0.597382 0.45483 0.59207 0.46642 0.59207 0.45483 0.597382 0.46642 0.59207 0.46642 0.597382 0.416315 0.867464 0.483616 0.867543 0.483616 0.87613 0.416315 0.867464 0.483616 0.87613 0.416315 0.875947 0.371955 0.578257 0.371955 0.572945 0.383545 0.572945 0.371955 0.578257 0.383545 0.572945 0.383545 0.578257 0.411336 0.85768 0.483594 0.856776 0.483769 0.865187 0.411336 0.85768 0.483769 0.865187 0.411514 0.866228 0.512205 0.546382 0.512205 0.54107 0.523795 0.54107 0.512205 0.546382 0.523795 0.54107 0.523795 0.546382 0.411373 0.846602 0.483634 0.846819 0.483661 0.855085 0.411373 0.846602 0.483661 0.855085 0.4114 0.85513 0.635165 0.721229 0.594078 0.723615 0.635082 0.726915 0.635193 0.904714 0.594078 0.902384 0.635148 0.899085 0.635165 0.898273 0.594078 0.89613 0.634944 0.892567 0.635075 0.89105 0.594078 0.889346 0.635148 0.885381 0.431465 0.372566 0.454613 0.374085 0.454613 0.370829 0.544079 0.603757 0.544079 0.598445 0.55567 0.598445 0.544079 0.603757 0.55567 0.598445 0.55567 0.603757 0.524955 0.603757 0.524955 0.598445 0.536545 0.598445 0.524955 0.603757 0.536545 0.598445 0.536545 0.603757 0.416315 0.896851 0.483616 0.89693 0.483616 0.905585 0.416315 0.896851 0.483616 0.905585 0.416315 0.905506 0.397454 0.591007 0.397454 0.585695 0.409045 0.585695 0.397454 0.591007 0.409045 0.585695 0.409045 0.591007 0.414913 0.887043 0.483559 0.886164 0.483724 0.894574 0.414913 0.887043 0.483724 0.894574 0.415082 0.895616 0.384705 0.591007 0.384705 0.585695 0.396295 0.585695 0.384705 0.591007 0.396295 0.585695 0.396295 0.591007 0.414946 0.87612 0.483598 0.876222 0.48362 0.884502 0.414946 0.87612 0.48362 0.884502 0.414974 0.884518 0.635165 0.740535 0.594078 0.740294 0.594078 0.746438 0.635165 0.740535 0.594078 0.746438 0.635148 0.74622 0.635165 0.924076 0.594078 0.92169 0.635148 0.918391 0.635165 0.917579 0.594078 0.915436 0.634917 0.911854 0.635075 0.910356 0.594078 0.908652 0.635101 0.904687 0.429789 0.359074 0.454667 0.360019 0.454601 0.356772 0.411336 0.85768 0.483581 0.856168 0.483594 0.856776 0.371955 0.584632 0.371955 0.57932 0.383545 0.57932 0.371955 0.584632 0.383545 0.57932 0.383545 0.584632 0.42977 0.355576 0.454629 0.35663 0.454619 0.353382 0.483664 0.85576 0.4114 0.85513 0.483661 0.855085 0.384705 0.508132 0.384705 0.50282 0.396295 0.50282 0.384705 0.508132 0.396295 0.50282 0.396295 0.508132 0.635289 0.714116 0.634342 0.713771 0.635148 0.71968 0.634342 0.713771 0.594078 0.713771 0.594078 0.719898 0.634342 0.713771 0.594078 0.719898 0.635148 0.71968 0.635165 0.707615 0.634342 0.713503 0.635354 0.713048 0.635165 0.707615 0.594078 0.707375 0.594078 0.713503 0.635165 0.707615 0.594078 0.713503 0.634342 0.713503 0.431018 0.369306 0.454652 0.370251 0.454589 0.367004 0.414913 0.887043 0.483546 0.885556 0.483559 0.886164 0.41658 0.591007 0.41658 0.585695 0.42817 0.585695 0.41658 0.591007 0.42817 0.585695 0.42817 0.591007 0.431 0.365807 0.454616 0.366862 0.454606 0.363614 0.483625 0.885148 0.414974 0.884518 0.48362 0.884502 0.371955 0.591007 0.371955 0.585695 0.383545 0.585695 0.371955 0.591007 0.383545 0.585695 0.383545 0.591007 0.635289 0.733421 0.634342 0.733077 0.635148 0.738986 0.634342 0.733077 0.594078 0.733077 0.594078 0.739204 0.634342 0.733077 0.594078 0.739204 0.635148 0.738986 0.635172 0.726913 0.634342 0.732809 0.635376 0.732347 0.635172 0.726913 0.594078 0.726681 0.594078 0.732809 0.635172 0.726913 0.594078 0.732809 0.634342 0.732809</float_array>
                    <technique_common>
                        <accessor count="342" source="#shape0-lib-map-array" stride="2">
                            <param name="U" type="float"/>
                            <param name="V" type="float"/>
                        </accessor>
                    </technique_common>
                </source>
                <vertices id="shape0-lib-vertices">
                    <input semantic="POSITION" source="#shape0-lib-positions"/>
                </vertices>
                <triangles count="24" material="material0">
                    <input offset="0" semantic="VERTEX" source="#shape0-lib-vertices"/>
                    <input offset="1" semantic="COLOR" source="#shape0-lib-vcolor"/>
                    <input offset="2" semantic="NORMAL" source="#shape0-lib-normals"/>
                    <input offset="3" semantic="TEXCOORD" source="#shape0-lib-map"/>
                    <p>2 2 0 0 0 0 0 1 1 1 0 2 2 2 1 3 1 1 1 4 3 3 1 5 3 3 2 6 1 1 2 7 0 0 2 8 3 3 3 9 0 0 3 10 2 2 3 11 11 11 4 12 8 8 4 13 9 9 4 14 10 10 5 15 8 8 5 16 11 11 5 17 11 11 6 18 9 9 6 19 10 10 6 20 10 10 7 21 9 9 7 22 8 8 7 23 5 5 8 24 4 4 8 25 15 15 8 26 5 5 9 27 15 15 9 28 16 16 9 29 16 16 10 30 6 6 10 31 7 7 10 32 16 16 11 33 15 15 11 34 6 6 11 35 16 16 12 36 15 15 12 37 4 4 12 38 16 16 13 39 4 4 13 40 5 5 13 41 7 7 14 42 6 6 14 43 15 15 14 44 7 7 15 45 15 15 15 46 16 16 15 47 13 13 16 48 12 12 16 49 17 17 16 50 13 13 17 51 17 17 17 52 18 18 17 53 18 18 18 54 14 14 18 55 2 2 18 56 18 18 19 57 17 17 19 58 14 14 19 59 18 18 20 60 17 17 20 61 12 12 20 62 18 18 21 63 12 12 21 64 13 13 21 65 2 2 22 66 14 14 22 67 17 17 22 68 2 2 23 69 17 17 23 70 18 18 23 71</p>
                </triangles>
                <triangles count="24" material="material1">
                    <input offset="0" semantic="VERTEX" source="#shape0-lib-vertices"/>
                    <input offset="1" semantic="COLOR" source="#shape0-lib-vcolor"/>
                    <input offset="2" semantic="NORMAL" source="#shape0-lib-normals"/>
                    <input offset="3" semantic="TEXCOORD" source="#shape0-lib-map"/>
                    <p>21 21 24 72 19 19 24 73 20 20 24 74 21 21 25 75 20 20 25 76 22 22 25 77 22 22 26 78 20 20 26 79 19 19 26 80 22 22 27 81 19 19 27 82 21 21 27 83 29 29 28 84 27 27 28 85 28 28 28 86 29 29 29 87 28 28 29 88 30 30 29 89 30 30 30 90 28 28 30 91 27 27 30 92 30 30 31 93 27 27 31 94 29 29 31 95 24 24 32 96 23 23 32 97 34 34 32 98 24 24 33 99 35 35 33 100 23 23 33 101 24 24 34 102 34 34 34 103 35 35 34 104 35 35 35 105 25 25 35 106 26 26 35 107 35 35 36 108 34 34 36 109 25 25 36 110 35 35 37 111 34 34 37 112 23 23 37 113 26 26 38 114 25 25 38 115 34 34 38 116 26 26 39 117 34 34 39 118 35 35 39 119 32 32 40 120 31 31 40 121 36 36 40 122 32 32 41 123 37 37 41 124 31 31 41 125 32 32 42 126 36 36 42 127 37 37 42 128 37 37 43 129 33 33 43 130 21 21 43 131 37 37 44 132 36 36 44 133 33 33 44 134 37 37 45 135 36 36 45 136 31 31 45 137 21 21 46 138 33 33 46 139 36 36 46 140 21 21 47 141 36 36 47 142 37 37 47 143</p>
                </triangles>
                <triangles count="66" material="material2">
                    <input offset="0" semantic="VERTEX" source="#shape0-lib-vertices"/>
                    <input offset="1" semantic="COLOR" source="#shape0-lib-vcolor"/>
                    <input offset="2" semantic="NORMAL" source="#shape0-lib-normals"/>
                    <input offset="3" semantic="TEXCOORD" source="#shape0-lib-map"/>
                    <p>41 41 48 144 38 38 48 145 39 39 48 146 41 41 49 147 39 39 49 148 40 40 49 149 43 43 50 150 39 39 50 151 38 38 50 152 43 43 51 153 38 38 51 154 42 42 51 155 43 43 52 156 42 42 52 157 41 41 52 158 43 43 53 159 41 41 53 160 40 40 53 161 47 47 54 162 44 44 54 163 45 45 54 164 47 47 55 165 45 45 55 166 46 46 55 167 48 48 56 168 49 49 56 169 47 47 56 170 48 48 57 171 47 47 57 172 46 46 57 173 54 54 58 174 51 51 58 175 50 50 58 176 54 54 59 177 50 50 59 178 53 53 59 179 54 54 60 180 53 53 60 181 55 55 60 182 54 54 61 183 55 55 61 184 52 52 61 185 42 42 62 186 38 38 62 187 41 41 62 188 40 40 63 189 39 39 63 190 43 43 63 191 46 46 64 192 45 45 64 193 48 48 64 194 52 52 65 195 51 51 65 196 54 54 65 197 58 58 66 198 56 56 66 199 57 57 66 200 60 60 67 201 56 56 67 202 58 58 67 203 60 60 68 204 58 58 68 205 59 59 68 206 62 62 69 207 58 58 69 208 57 57 69 209 62 62 70 210 57 57 70 211 61 61 70 212 62 62 71 213 61 61 71 214 60 60 71 215 62 62 72 216 60 60 72 217 59 59 72 218 66 66 73 219 63 63 73 220 64 64 73 221 66 66 74 222 64 64 74 223 65 65 74 224 67 67 75 225 68 68 75 226 66 66 75 227 67 67 76 228 66 66 76 229 65 65 76 230 72 72 77 231 70 70 77 232 69 69 77 233 72 72 78 234 69 69 78 235 41 41 78 236 72 72 79 237 41 41 79 238 73 73 79 239 72 72 80 240 73 73 80 241 71 71 80 242 61 61 81 243 57 57 81 244 56 56 81 245 61 61 82 246 56 56 82 247 60 60 82 248 59 59 83 249 58 58 83 250 62 62 83 251 65 65 84 252 64 64 84 253 67 67 84 254 71 71 85 255 70 70 85 256 72 72 85 257 45 45 86 258 44 44 86 259 74 74 86 260 48 48 87 261 75 75 87 262 49 49 87 263 48 48 88 264 45 45 88 265 74 74 88 266 48 48 89 267 74 74 89 268 75 75 89 269 51 51 90 270 74 74 90 271 50 50 90 272 75 75 91 273 52 52 91 274 55 55 91 275 75 75 92 276 74 74 92 277 51 51 92 278 75 75 93 279 51 51 93 280 52 52 93 281 49 49 94 282 75 75 94 283 47 47 94 284 75 75 95 285 74 74 95 286 44 44 95 287 75 75 96 288 44 44 96 289 47 47 96 290 53 53 97 291 75 75 97 292 55 55 97 293 53 53 98 294 50 50 98 295 74 74 98 296 53 53 99 297 74 74 99 298 75 75 99 299 64 64 100 300 63 63 100 301 76 76 100 302 67 67 101 303 77 77 101 304 68 68 101 305 67 67 102 306 64 64 102 307 76 76 102 308 67 67 103 309 76 76 103 310 77 77 103 311 70 70 104 312 76 76 104 313 69 69 104 314 77 77 105 315 71 71 105 316 73 73 105 317 77 77 106 318 76 76 106 319 70 70 106 320 77 77 107 321 70 70 107 322 71 71 107 323 68 68 108 324 77 77 108 325 66 66 108 326 77 77 109 327 76 76 109 328 63 63 109 329 77 77 110 330 63 63 110 331 66 66 110 332 41 41 111 333 77 77 111 334 73 73 111 335 41 41 112 336 69 69 112 337 76 76 112 338 41 41 113 339 76 76 113 340 77 77 113 341</p>
                </triangles>
            </mesh>
        </geometry>
    </library_geometries>
    <library_visual_scenes>
        <visual_scene id="VisualSceneNode" name="VisualScene">
            <node id="node" name="node">
                <instance_geometry url="#shape0-lib">
                    <bind_material>
                        <technique_common>
                            <instance_material symbol="material0" target="#material0">
                                <bind_vertex_input semantic="UVSET0" input_semantic="TEXCOORD"/>
                            </instance_material>
                            <instance_material symbol="material1" target="#material1">
                                <bind_vertex_input semantic="UVSET0" input_semantic="TEXCOORD"/>
                            </instance_material>
                            <instance_material symbol="material2" target="#material2">
                                <bind_vertex_input semantic="UVSET0" input_semantic="TEXCOORD"/>
                            </instance_material>
                        </technique_common>
                    </bind_material>
                </instance_geometry>
            </node>
        </visual_scene>
    </library_visual_scenes>
    <scene>
        <instance_visual_scene url="#VisualSceneNode"/>
    </scene>
</COLLADA>
