<?xml version="1.0" encoding="UTF-8"?>
<COLLADA xmlns="http://www.collada.org/2005/11/COLLADASchema" version="1.4.1">
    <asset>
        <contributor>
            <author>VCGLab</author>
            <authoring_tool>VCGLib | MeshLab</authoring_tool>
        </contributor>
        <created>Thu Jul 3 02:05:18 2025 GMT</created>
        <modified>Thu Jul 3 02:05:18 2025 GMT</modified>
        <up_axis>Y_UP</up_axis>
    </asset>
    <library_images>
        <image id="texture0" name="texture0">
            <init_from>./image/shelf_items.png</init_from>
        </image>
    </library_images>
    <library_materials>
        <material id="material0" name="material0">
            <instance_effect url="#material0-fx"/>
        </material>
    </library_materials>
    <library_effects>
        <effect id="material0-fx">
            <profile_COMMON>
                <newparam sid="texture0-surface">
                    <surface type="2D">
                        <init_from>texture0</init_from>
                        <format>R8G8B8</format>
                    </surface>
                </newparam>
                <newparam sid="texture0-sampler">
                    <sampler2D>
                        <source>texture0-surface</source>
                        <minfilter>LINEAR</minfilter>
                        <magfilter>LINEAR</magfilter>
                    </sampler2D>
                </newparam>
                <technique sid="common">
                    <blinn>
                        <diffuse>
                            <texture texture="texture0-sampler" texcoord="UVSET0"/>
                        </diffuse>
                    </blinn>
                </technique>
            </profile_COMMON>
        </effect>
    </library_effects>
    <library_geometries>
        <geometry id="shape0-lib" name="shape0">
            <mesh>
                <source id="shape0-lib-positions" name="position">
                    <float_array id="shape0-lib-positions-array" count="498">-0.00726507 0.0231381 0.00772542 -0.00880966 0.0357605 0.00488955 -0.0124689 0.0781955 -0.00281237 -0.0224006 0.110093 -0.00631753 -0.0352251 0.144513 -0.0110183 -0.0440815 0.169998 -0.0180341 -0.000586477 0.058188 -0.00567473 0.0150934 0.0141893 -0.00178413 -0.0370195 0.170774 -0.0241888 -0.0430285 0.174992 -0.0229853 -0.0453232 0.168237 -0.0203487 -0.0277467 0.146435 -0.0176944 -0.0364668 0.142752 -0.0133328 -0.0175576 0.111723 -0.0112657 -0.0237674 0.108324 -0.00881308 -0.00858351 0.0784131 -0.00657957 -0.0137105 0.0764345 -0.00512697 -0.00886251 0.0593704 -0.00241311 -0.00225366 0.057066 -0.00786069 -0.00876288 0.0475209 0.000472106 -0.0100512 0.0339995 0.00257496 0.0109666 0.0403095 -0.0108252 -0.00850663 0.0213771 0.00541083 0.0139723 0.0270786 -0.00870718 -0.00058837 0.0117647 0.00633079 0.0138518 0.0124283 -0.00409872 0.00957743 0.00700556 0.00279208 -0.00996265 0.0231381 -0.0104137 -0.00607083 0.0405005 -0.0130177 0.0120641 0.171466 -0.0468899 0.00833919 0.14656 -0.0361608 0.00485315 0.111932 -0.0246336 0.00281432 0.0787709 -0.0148373 0.00467084 0.0583879 -0.00765899 0.00728474 0.0171447 0.00852685 0.0139628 0.169705 -0.0487048 0.0100722 0.174985 -0.0530945 0.00563649 0.169397 -0.0534086 0.0102378 0.144799 -0.0379758 0.00131001 0.144488 -0.0432199 0.00688496 0.110164 -0.0266082 0.000205442 0.110008 -0.0296313 0.00471296 0.07701 -0.0166522 -0.000570367 0.078067 -0.0190124 -0.000934526 0.0598263 -0.0144159 0.00632337 0.05746 -0.00991954 0.0127855 0.0403096 0.00219743 -0.00796062 0.0234844 -0.0131954 0.0124973 0.0261999 0.00475209 -0.00700101 0.011932 -0.0041494 0.00707474 0.0124283 0.00677525 -0.000693137 0.00699024 0.00448029 0.0306777 0.14656 0.0222453 0.0197922 0.111932 0.0170937 0.010405 0.0787709 0.0136293 0.00294591 0.0582302 0.0144429 -0.00867376 0.04119 0.0199 -0.0119149 0.0279608 0.0181645 -0.0131143 0.0141893 0.0125023 0.041337 0.170766 0.0283915 0.0484835 0.172701 0.0248551 0.0388527 0.143019 0.0168965 0.0265806 0.128549 0.0215988 0.0256716 0.108632 0.0139292 0.00752573 0.0624568 0.0152997 0.0152932 0.0766826 0.0115537 0.0109815 0.0589293 0.0105203 0.0108469 0.0384364 0.00537151 -0.00715933 0.039429 0.0220461 0.00894612 0.0219898 0.00174659 -0.0104005 0.0261999 0.0203104 0.00146523 0.0117711 0.00253347 -0.0115999 0.0124283 0.0146483 -0.00819721 0.00700556 0.00728799 -0.000430082 0.0357605 -0.0117341 0.00375774 0.0602567 -0.00719985 0.00774219 0.0781955 -0.00929985 0.0169925 0.110093 -0.0143351 0.0290672 0.144513 -0.0207202 0.0402071 0.169998 -0.0226073 -2.13623e-07 0.0520558 0.00547851 -0.00684485 0.0279608 0.0139813 -0.0121073 0.00763789 0.00418865 0.040303 0.170585 -0.0131921 0.0432006 0.174976 -0.0185157 0.0427579 0.168237 -0.0219813 0.0292591 0.145695 -0.0105709 0.031618 0.142752 -0.0200941 0.0177832 0.11112 -0.00730921 0.0197617 0.108324 -0.0136811 0.00827932 0.0778111 -0.003758 0.0102929 0.0764345 -0.00867368 0.00440673 0.0616292 -0.000112141 0.00630858 0.0584956 -0.00657384 0.00255063 0.0502948 0.00610453 0.00282141 0.0475209 -0.00874348 0.00212076 0.0339995 -0.011108 -0.00198462 0.0403095 0.0134777 -0.00229694 0.0222525 -0.0121701 -0.00429401 0.0261999 0.0146073 -0.0072547 0.0119258 -0.00661812 -0.00891385 0.0124283 0.011121 -0.0311641 0.00399996 -0.0225663 -0.0381387 0.00399996 0.00591837 -0.0225473 0.00399996 0.031178 0.00594599 0.00399996 0.0381358 0.0311548 0.00399996 0.022579 0.0381407 0.00399996 -0.00589964 0.02687 0.00399996 -0.0268701 0.00851296 0.00399996 -0.0378496 2.47955e-08 0.106 -0.038 -0.0175891 0.106179 -0.0329967 -0.02687 0.106 -0.0268701 -0.037216 0.106179 0.00362284 -0.0351073 0.106 0.014542 -0.0237539 0.106179 0.0288775 0.0175889 0.106179 0.0329968 0.02687 0.106 0.0268701 0.0357696 0.106179 0.0108948 0.038 0.106 -4.32134e-10 0.0329967 0.106179 -0.0175891 0.02687 0.106 -0.0268701 0.0108948 0.106179 -0.0357696 -0.0353301 0.105922 -0.0143976 -0.0143232 0.105339 0.0354485 0.0135891 0.099169 0.0340846 0.0137463 0.0992731 -0.0337464 -0.00723654 0.0988129 -0.0363572 -0.0263041 0.0988989 -0.0257103 -0.0367318 0.0989241 0.00640993 -0.0257102 0.0988989 0.0263042 -0.00702864 0.0987161 0.0364936 0.0265245 0.0988365 0.0250526 0.0363838 0.0989238 0.00815022 0.034034 0.0989275 -0.0135434 0.0257117 0.0988983 -0.0263024 -0.0339563 0.0985472 -0.0129257 1.25635e-05 0.106304 0.037474 -0.00325748 0.100103 -0.0280792 -0.0239681 0.10197 -0.0165101 -0.0280791 0.100103 0.00325784 -0.0240062 0.101532 0.0155537 0.0239681 0.10197 0.0165101 0.0279231 0.101246 -0.0049053 0.0109523 0.102 -0.0264412 -0.0165847 0.0995043 -0.0228178 0.00630333 0.0937095 0.0296993 0.0165846 0.0995044 0.0228179 0.0200127 0.100656 -0.0195663 -0.0222559 0.0905999 -0.0222559 -0.0324913 0.091561 -0.000778728 -0.0222559 0.0905999 0.0222559 -0.00703967 0.100302 0.0277653 0.0222559 0.0905999 0.0222559 0.0324913 0.0915611 0.00077871 0.0222559 0.0905999 -0.0222559 0.000778655 0.0915612 -0.0324913 -0.004859 0.0105999 -0.031594 -0.026253 0.0105999 -0.018336 -0.031594 0.0105999 0.00485868 -0.0187202 0.0105999 0.0257914 0.00485901 0.0105999 0.031594 0.0257912 0.0105999 0.0187203 0.031594 0.0105999 -0.00485868 0.0185803 0.0105999 -0.025843 -0.0141273 0.00399996 -0.0349887</float_array>
                    <technique_common>
                        <accessor count="166" source="#shape0-lib-positions-array" stride="3">
                            <param name="X" type="float"/>
                            <param name="Y" type="float"/>
                            <param name="Z" type="float"/>
                        </accessor>
                    </technique_common>
                </source>
                <source id="shape0-lib-normals" name="normal">
                    <float_array id="shape0-lib-normals-array" count="936">-0.903442 0.382471 0.193671 -0.825969 -0.136463 0.54695 -0.825976 -0.136471 0.546937 -0.785231 -0.213335 0.581292 -0.784403 -0.212687 0.582645 -0.799754 -0.186248 0.570706 -0.800001 -0.186421 0.570303 0.704336 0.248751 -0.664857 -0.8214 -0.145663 0.551439 -0.913781 0.146016 0.379057 0.521152 0.529579 -0.669289 -0.880783 -0.00139405 0.473518 -0.880785 -0.00139663 0.473514 -0.609273 -0.438671 0.660571 0.911585 -0.130167 -0.389961 0.800754 -0.598439 0.0257649 0.515533 0.545996 0.660389 -0.347509 -0.236136 -0.907456 0.573917 0.408091 0.709987 0.553543 0.394307 0.733561 -0.297605 -0.348145 -0.888947 -0.302312 -0.351581 -0.886001 0.587287 0.310802 0.747326 0.618813 0.328042 0.713764 -0.253391 -0.217221 -0.94266 -0.338753 -0.266554 -0.902328 0.640796 0.273547 0.717323 0.659676 0.281953 0.696656 -0.204908 -0.175916 -0.962843 -0.261445 -0.203179 -0.943591 0.657511 0.291072 0.69495 0.376422 0.0916651 0.921902 -0.666881 -0.298079 -0.682948 -0.265112 -0.0207578 -0.963994 0.384775 0.221416 0.89606 -0.662481 -0.182468 -0.726515 0.592477 0.155128 0.79051 0.239231 0.340588 0.909268 -0.773911 -0.0246774 -0.632814 -0.47512 -0.224324 -0.850846 0.564161 0.246105 0.788134 0.565224 0.254042 0.784847 -0.468754 -0.242461 -0.849401 -0.469405 -0.247844 -0.847486 0.436493 0.147409 0.88755 0.495304 0.444104 0.746623 -0.464676 -0.262224 -0.845763 -0.499008 -0.480107 -0.721449 0.416975 0.238536 0.877059 -0.486562 -0.514088 -0.706379 0.740346 0.658387 0.135701 0.755732 0.160479 0.634914 0.755761 0.160467 0.634883 0.74899 0.140048 0.647612 0.749952 0.139735 0.646565 0.751318 0.14417 0.644 0.750443 0.144395 0.64497 0.782161 0.259508 0.566463 0.827607 0.252013 0.501553 0.771726 0.534378 0.34479 -0.813519 0.0963381 -0.573503 0.386081 0.156706 0.909057 -0.679208 -0.486636 -0.549419 0.805591 -0.237458 0.542805 -0.0342958 -0.346604 0.937384 -0.686186 0.51588 0.512851 0.473545 -0.330006 -0.81661 -0.718519 0.363023 0.593249 -0.710573 0.36858 0.599362 0.474007 -0.402635 -0.783073 0.460392 -0.408396 -0.788195 -0.719867 0.283395 0.633623 -0.754947 0.261241 0.601506 0.39329 -0.347988 -0.851016 0.488922 -0.314396 -0.813702 -0.755212 0.227982 0.614557 -0.775971 0.215885 0.592675 0.337094 -0.304375 -0.890912 0.400483 -0.287503 -0.870032 -0.780467 0.143234 0.608568 -0.73824 0.178645 0.650452 0.458812 -0.225715 -0.859386 0.344234 -0.280239 -0.896086 -0.721781 0.23883 0.64961 0.472287 -0.187829 -0.8612 -0.620751 0.141769 0.771084 0.267712 -0.0196712 -0.963298 0.691512 -0.224526 -0.686585 -0.673402 0.255016 0.693899 -0.58843 0.340151 0.733517 0.663283 -0.146427 -0.733904 -0.690423 0.205293 0.693665 0.643057 -0.35304 -0.679589 0.545841 -0.487999 -0.681113 -0.692311 0.278665 0.665621 0.544757 -0.491358 -0.679564 -0.708798 0.136391 0.692101 -0.78269 0.156419 0.602436 -0.81181 0.181144 0.555114 -0.871028 0.199681 0.448817 -0.315129 0.151542 0.936872 -0.617649 0.556646 0.555568 -0.427885 0.526945 0.734332 -0.769458 0.10588 0.629861 -0.769436 0.105878 0.629887 -0.857253 -0.13016 0.498172 -0.857265 -0.130156 0.498153 -0.797929 -0.598434 0.0720138 -0.491266 0.411281 -0.767793 -0.398765 0.355995 -0.845136 0.690987 -0.38778 0.610052 0.48723 -0.302135 0.819342 -0.444057 0.266841 -0.855342 -0.364876 0.217976 -0.905181 0.631392 -0.303602 0.713561 -0.374632 0.200619 -0.905209 -0.321173 0.173547 -0.930983 0.798453 -0.298249 0.522991 0.737857 -0.27162 0.617892 -0.355524 0.0922655 -0.930102 -0.444232 0.15921 -0.881652 0.711112 -0.211733 0.670439 -0.443284 0.221161 -0.86867 0.734833 -0.169807 0.656648 -0.578858 0.137309 -0.803784 0.658407 -0.20795 0.723365 -0.557153 0.239632 -0.795083 -0.557395 0.240797 -0.794561 0.649758 -0.253229 0.716721 0.645929 -0.234755 0.726406 -0.502395 0.305506 -0.808867 -0.50909 0.364855 -0.779556 0.609166 -0.346365 0.713406 0.613412 -0.396469 0.683036 -0.5209 0.238401 -0.819652 0.569247 -0.513891 0.641775 0.460321 0.381884 -0.801417 0.146263 -0.136489 -0.979785 0.146236 -0.136473 -0.979791 0.0934058 -0.213319 -0.972507 0.0919273 -0.212705 -0.972783 0.111053 -0.186262 -0.976204 0.111451 -0.18641 -0.97613 0.139775 -0.145689 -0.979407 0.139832 -0.145711 -0.979395 0.105224 0.464924 0.879075 0.297576 0.0932818 -0.95013 0.329738 0.146019 -0.932712 0.166604 0.535627 0.827857 0.237423 -0.00145876 -0.971405 -0.167455 0.105877 0.980178 -0.32014 -0.130159 0.938386 -0.920004 0.0509924 0.388578 -0.847741 0.529848 -0.0244254 0.921617 -0.223653 0.317178 -0.914568 0.404118 -0.0159001 -0.916688 0.398545 -0.0290804 0.874489 -0.35802 0.327248 0.872999 -0.351771 0.337831 -0.949446 0.313383 -0.0185441 -0.93885 0.339742 0.0560062 0.893617 -0.236711 0.381334 0.910703 -0.273033 0.309956 -0.957573 0.280343 0.066795 -0.949463 0.293081 0.112354 0.886504 -0.197519 0.418447 0.901193 -0.217143 0.3751 -0.960614 0.25485 0.110783 -0.974006 0.221753 0.0462446 0.922034 -0.163728 0.350779 0.905303 -0.125203 0.405896 -0.907934 0.419108 0.001979 -0.969664 0.0984095 -0.22376 0.945827 -0.315599 0.0762089 0.959078 -0.00176204 0.283137 -0.990383 0.11197 -0.0812692 -0.903942 0.321603 -0.281889 0.997973 -0.0567497 0.028802 0.938976 -0.261199 0.22383 -0.969815 0.140465 -0.199318 -0.92527 0.359199 -0.121863 0.969628 -0.142807 0.198563 0.925332 -0.359015 0.121936 -0.912847 0.276953 -0.300013 -0.907957 0.347773 -0.233812 0.931662 -0.342924 0.120036 0.916557 -0.388033 0.0967181 0.764027 -0.638938 0.0895592 -0.272669 0.0549951 -0.960535 -0.469375 -0.277203 -0.838359 -0.539793 -0.17742 -0.822888 -0.817022 -0.155784 -0.555163 -0.989202 -0.105216 -0.102025 -0.981809 0.00736085 0.189729 -0.824331 -0.335114 0.456264 -0.783843 -0.00883883 0.620896 -0.574585 -0.131157 0.807867 -0.14003 0.00200329 0.990145 0.117898 -0.234101 0.965037 0.246898 0.00948535 0.968995 0.558335 -0.193393 0.806759 0.532743 -0.232165 0.813809 0.852039 -0.166967 0.496136 0.868895 -0.109093 0.482826 0.979679 0.00710941 0.200447 0.938021 -0.331334 -0.101659 0.961693 -0.01514 -0.273712 0.823816 -0.181721 -0.53694 0.822894 -0.177375 -0.5398 0.518685 -0.151865 -0.84137 0.485447 -0.0551763 -0.872523 0.125125 -0.231014 -0.964871 0.190343 -0.396888 -0.897914 -0.125366 -0.00520862 -0.992097 -0.487537 -0.00395794 -0.873093 -0.588881 0.0311413 -0.80762 -0.858057 0.0269521 -0.512846 -0.989694 0.0154054 -0.142368 -0.971297 -0.00443441 -0.237828 -0.874724 -0.00426521 0.484602 -0.850909 0.00989146 0.525219 -0.478409 0.0291294 0.877654 -0.237193 -0.01565 0.971337 0.115273 0.0330041 0.992785 0.572591 0.00657261 0.819815 0.525158 -0.00595059 0.850984 0.863361 0.0290131 0.503752 0.971062 -0.017284 0.238203 0.9936 0.0343187 -0.107617 0.837482 0.0134907 -0.546299 0.880841 -1.3979e-05 -0.473412 0.528401 0.00753854 -0.848962 0.513269 0.0113991 -0.858152 0.12262 0.0359799 -0.991801 -0.826764 -0.254182 -0.501849 -0.968882 -0.207445 -0.135036 -0.448495 -0.365279 0.815735 0.0346532 0.998511 -0.0421273 -0.00528549 0.998511 -0.0542939 -0.0274158 0.999548 -0.0123357 -0.0481399 0.998511 0.0256609 -0.102552 0.957494 0.269607 0.0421266 0.998511 0.0346525 0.0542913 0.998511 -0.00528517 -0.319967 0.863894 0.388983 -0.382257 0.671275 0.635036 -0.166618 0.899469 0.403973 0.0529509 0.837461 0.543925 0.332028 0.340209 0.879781 0.581637 0.705377 0.405144 0.365538 0.858136 0.360534 0.554392 0.830974 0.0461661 0.350722 0.922703 0.160042 0.526005 0.807157 -0.267986 0.537858 0.792785 -0.286708 0.295311 0.900347 -0.319634 0.221852 0.749076 -0.624232 -0.130257 0.834969 -0.534659 -0.0723538 0.87101 -0.485907 -0.581635 0.705377 -0.405147 -0.466855 0.796599 -0.384026 -0.376372 0.920989 -0.100615 -0.614869 0.786354 0.0598564 -0.408374 0.894011 0.184324 -0.590115 0.111721 0.799552 -0.0383682 -0.472822 0.880322 0.668908 0.3996 0.626804 0.854486 -0.502887 0.130224 -0.183371 -0.599669 -0.778956 -0.668905 0.399604 -0.626803 -0.860379 -0.489368 -0.142366 -0.419149 -0.320692 0.849394 0.36828 -0.176957 0.912719 0.400858 -0.263757 0.877351 0.785717 -0.475446 0.395727 0.949901 -0.0381049 -0.310219 0.877355 -0.263745 -0.400856 0.520883 -0.384012 -0.762375 -0.448001 -0.230818 -0.863723 -0.785715 -0.475449 -0.395727 -0.831769 -0.308914 0.461229 -0.895313 -0.184302 0.405522 0.974158 0.0264157 0.224319 0.913961 0.0224875 -0.405179 0.851489 -0.0270274 -0.523675 0.354736 -0.025626 -0.934615 0.131354 -0.0248765 -0.991023 0.23895 -0.00974872 -0.970983 -0.419274 0.021583 -0.907603 -0.523844 -0.010315 -0.851752 -0.902169 -0.0208258 -0.430879 -0.970663 0.0273908 -0.238881 -0.913953 0.0238266 0.40512 -0.849524 -0.0272697 0.526845 -0.430875 -0.0206562 0.902175 -0.238201 0.0273465 0.970831 0.405089 0.0245422 0.913948 0.526564 -0.0272496 0.849699 0.902051 -0.0239535 0.430964 0 -1 0 0 -1 0 0 -1 0 0 -1 0 0 -1 0 0 -1 0 0 -1 0 0 1 0 0 1 0 0 1 0 0 1 0 0 1 0 0 1 0</float_array>
                    <technique_common>
                        <accessor count="312" source="#shape0-lib-normals-array" stride="3">
                            <param name="X" type="float"/>
                            <param name="Y" type="float"/>
                            <param name="Z" type="float"/>
                        </accessor>
                    </technique_common>
                </source>
                <source id="shape0-lib-vcolor" name="vcolor">
                    <float_array id="shape0-lib-vcolor-array" count="664">1 1 1 1 1 1 1 1 1 1 1 1 1 1 1 1 1 1 1 1 1 1 1 1 1 1 1 1 1 1 1 1 1 1 1 1 1 1 1 1 1 1 1 1 1 1 1 1 1 1 1 1 1 1 1 1 1 1 1 1 1 1 1 1 1 1 1 1 1 1 1 1 1 1 1 1 1 1 1 1 1 1 1 1 1 1 1 1 1 1 1 1 1 1 1 1 1 1 1 1 1 1 1 1 1 1 1 1 1 1 1 1 1 1 1 1 1 1 1 1 1 1 1 1 1 1 1 1 1 1 1 1 1 1 1 1 1 1 1 1 1 1 1 1 1 1 1 1 1 1 1 1 1 1 1 1 1 1 1 1 1 1 1 1 1 1 1 1 1 1 1 1 1 1 1 1 1 1 1 1 1 1 1 1 1 1 1 1 1 1 1 1 1 1 1 1 1 1 1 1 1 1 1 1 1 1 1 1 1 1 1 1 1 1 1 1 1 1 1 1 1 1 1 1 1 1 1 1 1 1 1 1 1 1 1 1 1 1 1 1 1 1 1 1 1 1 1 1 1 1 1 1 1 1 1 1 1 1 1 1 1 1 1 1 1 1 1 1 1 1 1 1 1 1 1 1 1 1 1 1 1 1 1 1 1 1 1 1 1 1 1 1 1 1 1 1 1 1 1 1 1 1 1 1 1 1 1 1 1 1 1 1 1 1 1 1 1 1 1 1 1 1 1 1 1 1 1 1 1 1 1 1 1 1 1 1 1 1 1 1 1 1 1 1 1 1 1 1 1 1 1 1 1 1 1 1 1 1 1 1 1 1 1 1 1 1 1 1 1 1 1 1 1 1 1 1 1 1 1 1 1 1 1 1 1 1 1 1 1 1 1 1 1 1 1 1 1 1 1 1 1 1 1 1 1 1 1 1 1 1 1 1 1 1 1 1 1 1 1 1 1 1 1 1 1 1 1 1 1 1 1 1 1 1 1 1 1 1 1 1 1 1 1 1 1 1 1 1 1 1 1 1 1 1 1 1 1 1 1 1 1 1 1 1 1 1 1 1 1 1 1 1 1 1 1 1 1 1 1 1 1 1 1 1 1 1 1 1 1 1 1 1 1 1 1 1 1 1 1 1 1 1 1 1 1 1 1 1 1 1 1 1 1 1 1 1 1 1 1 1 1 1 1 1 1 1 1 1 1 1 1 1 1 1 1 1 1 1 1 1 1 1 1 1 1 1 1 1 1 1 1 1 1 1 1 1 1 1 1 1 1 1 1 1 1 1 1 1 1 1 1 1 1 1 1 1 1 1 1 1 1 1 1 1 1 1 1 1 1 1 1 1 1 1 1 1 1 1 1 1 1 1 1 1 1 1 1 1 1 1 1 1 1 1 1 1 1 1 1 1 1 1 1 1 1 1 1 1 1 1 1 1 1 1 1 1 1 1 1 1 1 1 1 1 1 1 1 1 1 1 1 1 1 1 1 1 1 1 1 1 1 1 1 1</float_array>
                    <technique_common>
                        <accessor count="166" source="#shape0-lib-vcolor-array" stride="4">
                            <param name="R" type="float"/>
                            <param name="G" type="float"/>
                            <param name="B" type="float"/>
                            <param name="A" type="float"/>
                        </accessor>
                    </technique_common>
                </source>
                <source id="shape0-lib-map" name="map">
                    <float_array id="shape0-lib-map-array" count="1872">0.109812 0.365445 0.11073 0.363224 0.111537 0.363803 0.11073 0.363224 0.113177 0.354845 0.113984 0.355424 0.11073 0.363224 0.113984 0.355424 0.111537 0.363803 0.113177 0.354845 0.114753 0.343527 0.115624 0.344108 0.113177 0.354845 0.115624 0.344108 0.113984 0.355424 0.114753 0.343527 0.116039 0.333042 0.116846 0.333621 0.114753 0.343527 0.116846 0.333621 0.115624 0.344108 0.156025 0.267443 0.158756 0.275548 0.155067 0.267597 0.116039 0.333042 0.116986 0.327434 0.116846 0.333621 0.117992 0.323536 0.118725 0.319091 0.119533 0.31967 0.150677 0.261263 0.156025 0.267443 0.155067 0.267597 0.118725 0.319091 0.119714 0.314941 0.120522 0.31552 0.118725 0.319091 0.120522 0.31552 0.119533 0.31967 0.110752 0.254046 0.114033 0.250421 0.111261 0.254711 0.245284 0.0371285 0.247622 0.044203 0.24411 0.0379788 0.241789 0.0345101 0.245284 0.0371285 0.24411 0.0379788 0.0992726 0.310724 0.0968629 0.312389 0.0961783 0.31017 0.170386 0.310452 0.173754 0.309505 0.172843 0.312035 0.1031 0.301319 0.0992726 0.310724 0.0961783 0.31017 0.1031 0.301319 0.0961783 0.31017 0.0998065 0.300546 0.166589 0.30118 0.170126 0.299881 0.173754 0.309505 0.166589 0.30118 0.173754 0.309505 0.170386 0.310452 0.107269 0.288243 0.1031 0.301319 0.0998065 0.300546 0.107269 0.288243 0.0998065 0.300546 0.10506 0.287548 0.162429 0.288095 0.164923 0.28688 0.170126 0.299881 0.162429 0.288095 0.170126 0.299881 0.166589 0.30118 0.110913 0.27572 0.107269 0.288243 0.10506 0.287548 0.110913 0.27572 0.10506 0.287548 0.109129 0.275503 0.158756 0.275548 0.160803 0.274838 0.164923 0.28688 0.158756 0.275548 0.164923 0.28688 0.162429 0.288095 0.114105 0.267863 0.110913 0.27572 0.109129 0.275503 0.114105 0.267863 0.109129 0.275503 0.110861 0.268728 0.156025 0.267443 0.159072 0.268063 0.160803 0.274838 0.156025 0.267443 0.160803 0.274838 0.158756 0.275548 0.114105 0.267863 0.110861 0.268728 0.110902 0.264252 0.156025 0.267443 0.159031 0.263587 0.159072 0.268063 0.110628 0.259478 0.118984 0.261528 0.114105 0.267863 0.110628 0.259478 0.114105 0.267863 0.110902 0.264252 0.159304 0.258813 0.159031 0.263587 0.156025 0.267443 0.159304 0.258813 0.156025 0.267443 0.150677 0.261263 0.110628 0.259478 0.111261 0.254711 0.120216 0.256533 0.110628 0.259478 0.120216 0.256533 0.118984 0.261528 0.159304 0.258813 0.150677 0.261263 0.149717 0.255868 0.159304 0.258813 0.149717 0.255868 0.158671 0.254046 0.111261 0.254711 0.114033 0.250421 0.120421 0.251332 0.111261 0.254711 0.120421 0.251332 0.120216 0.256533 0.158671 0.254046 0.149717 0.255868 0.149512 0.250667 0.158671 0.254046 0.149512 0.250667 0.15562 0.250147 0.114033 0.250421 0.118136 0.248571 0.120421 0.251332 0.15562 0.250147 0.149512 0.250667 0.151517 0.248287 0.144971 0.363641 0.146763 0.365405 0.144245 0.364239 0.140676 0.355189 0.144971 0.363641 0.144245 0.364239 0.140676 0.355189 0.144245 0.364239 0.13995 0.355787 0.136126 0.343435 0.140676 0.355189 0.13995 0.355787 0.136126 0.343435 0.13995 0.355787 0.135335 0.344035 0.13214 0.332184 0.136126 0.343435 0.135335 0.344035 0.13214 0.332184 0.135335 0.344035 0.131414 0.332782 0.129008 0.325019 0.13214 0.332184 0.131414 0.332782 0.129008 0.325019 0.131414 0.332782 0.128212 0.325511 0.124594 0.31973 0.129008 0.325019 0.128212 0.325511 0.0928384 0.254963 0.093855 0.254711 0.0919436 0.261373 0.123571 0.314941 0.124594 0.31973 0.122845 0.315539 0.232313 0.0590879 0.236015 0.0546017 0.233145 0.0599244 0.144506 0.250667 0.147188 0.255868 0.144632 0.252663 0.140663 0.248597 0.144506 0.250667 0.144632 0.252663 0.146974 0.310724 0.145514 0.312389 0.14349 0.31017 0.0827439 0.310059 0.0865223 0.309914 0.0845573 0.312073 0.145131 0.301319 0.146974 0.310724 0.14349 0.31017 0.145131 0.301319 0.14349 0.31017 0.141316 0.300546 0.0844737 0.300654 0.0885471 0.300434 0.0865223 0.309914 0.0844737 0.300654 0.0865223 0.309914 0.0827439 0.310059 0.143407 0.288243 0.145131 0.301319 0.141316 0.300546 0.143407 0.288243 0.141316 0.300546 0.140771 0.287548 0.0860308 0.287575 0.0890458 0.287429 0.0885471 0.300434 0.0860308 0.287575 0.0885471 0.300434 0.0844737 0.300654 0.142398 0.27572 0.143407 0.288243 0.140771 0.287548 0.142398 0.27572 0.140771 0.287548 0.140413 0.275503 0.0870396 0.275055 0.0894129 0.275387 0.0890458 0.287429 0.0870396 0.275055 0.0890458 0.287429 0.0860308 0.287575 0.143407 0.267923 0.142398 0.27572 0.140413 0.275503 0.143407 0.267923 0.140413 0.275503 0.14023 0.268728 0.0861819 0.267496 0.0895831 0.268544 0.0894129 0.275387 0.0861819 0.267496 0.0894129 0.275387 0.0870396 0.275055 0.143407 0.267923 0.14023 0.268728 0.138056 0.261791 0.0861819 0.267496 0.0919436 0.261373 0.0895831 0.268544 0.138056 0.261791 0.146861 0.261528 0.143407 0.267923 0.0928384 0.254963 0.0919436 0.261373 0.0861819 0.267496 0.0928384 0.254963 0.0861819 0.267496 0.0828497 0.260863 0.138056 0.261791 0.136077 0.254711 0.144632 0.252663 0.138056 0.261791 0.144632 0.252663 0.146861 0.261528 0.0928384 0.254963 0.0828497 0.260863 0.0834244 0.255868 0.136077 0.254711 0.137073 0.250812 0.144632 0.252663 0.0928384 0.254963 0.0834244 0.255868 0.0859427 0.250667 0.0928384 0.254963 0.0859427 0.250667 0.0920387 0.250147 0.137073 0.250812 0.140663 0.248597 0.144632 0.252663 0.0920387 0.250147 0.0859427 0.250667 0.0891161 0.248287 0.19144 0.294459 0.197354 0.31045 0.193059 0.301319 0.19144 0.294459 0.193059 0.301319 0.188713 0.288243 0.183746 0.269569 0.19144 0.294459 0.188713 0.288243 0.183746 0.269569 0.188713 0.288243 0.184965 0.27572 0.183746 0.269569 0.184965 0.27572 0.181648 0.267604 0.177951 0.260863 0.183746 0.269569 0.181648 0.267604 0.177951 0.260863 0.181648 0.267604 0.177347 0.261528 0.239508 0.0437782 0.240394 0.0501659 0.239299 0.0510162 0.239508 0.0437782 0.239299 0.0510162 0.238413 0.0446284 0.236618 0.0371285 0.239508 0.0437782 0.238413 0.0446284 0.236618 0.0371285 0.238413 0.0446284 0.235522 0.0379788 0.232861 0.0345101 0.236618 0.0371285 0.235522 0.0379788 0.0633605 0.301319 0.0594413 0.310724 0.0565304 0.310916 0.0633605 0.301319 0.0565304 0.310916 0.0602277 0.300048 0.19144 0.294459 0.196569 0.299881 0.199942 0.311594 0.19144 0.294459 0.199942 0.311594 0.197354 0.31045 0.0676013 0.288243 0.0633605 0.301319 0.0602277 0.300048 0.0676013 0.288243 0.0602277 0.300048 0.0653726 0.287049 0.19144 0.294459 0.191317 0.28688 0.196569 0.299881 0.0712583 0.27572 0.0676013 0.288243 0.0653726 0.287049 0.0712583 0.27572 0.0653726 0.287049 0.0694122 0.274981 0.183746 0.269569 0.187151 0.274838 0.191317 0.28688 0.183746 0.269569 0.191317 0.28688 0.19144 0.294459 0.0742614 0.267875 0.0712583 0.27572 0.0694122 0.274981 0.0742614 0.267875 0.0694122 0.274981 0.0711026 0.268247 0.183746 0.269569 0.185401 0.268063 0.187151 0.274838 0.0742614 0.267875 0.0711026 0.268247 0.0711896 0.26066 0.183746 0.269569 0.185341 0.26075 0.185401 0.268063 0.0711896 0.26066 0.0786907 0.261528 0.0742614 0.267875 0.185341 0.26075 0.183746 0.269569 0.177951 0.260863 0.0711896 0.26066 0.071898 0.254291 0.0799534 0.256533 0.0711896 0.26066 0.0799534 0.256533 0.0786907 0.261528 0.185341 0.26075 0.177951 0.260863 0.176657 0.255868 0.185341 0.26075 0.176657 0.255868 0.184576 0.254046 0.071898 0.254291 0.0747825 0.250423 0.0804207 0.251332 0.071898 0.254291 0.0804207 0.251332 0.0799534 0.256533 0.184576 0.254046 0.176657 0.255868 0.176178 0.250667 0.184576 0.254046 0.176178 0.250667 0.181625 0.250147 0.0747825 0.250423 0.0784765 0.248571 0.0804207 0.251332 0.181625 0.250147 0.176178 0.250667 0.177839 0.248287 0.0567571 0.378711 0.0569524 0.376085 0.0581195 0.37677 0.0569524 0.376085 0.062049 0.366174 0.0632159 0.366859 0.0569524 0.376085 0.0632159 0.366859 0.0581195 0.37677 0.062049 0.366174 0.0674733 0.352785 0.0687402 0.353472 0.062049 0.366174 0.0687402 0.353472 0.0632159 0.366859 0.0674733 0.352785 0.0718052 0.340382 0.0729723 0.341067 0.0674733 0.352785 0.0729723 0.341067 0.0687402 0.353472 0.0718052 0.340382 0.073628 0.333405 0.0747951 0.33409 0.0718052 0.340382 0.0747951 0.33409 0.0729723 0.341067 0.0889214 0.329804 0.0897261 0.334249 0.0878155 0.330495 0.073628 0.333405 0.0752235 0.329137 0.0747951 0.33409 0.0752235 0.329137 0.075544 0.323878 0.076711 0.324563 0.0869551 0.325889 0.0889214 0.329804 0.0878155 0.330495 0.075544 0.323878 0.0775647 0.319311 0.076711 0.324563 0.0859538 0.320354 0.0869551 0.325889 0.0848479 0.321045 0.0839508 0.314953 0.0859538 0.320354 0.0848479 0.321045 0.0839508 0.314953 0.0848479 0.321045 0.0828449 0.315644 0.125508 0.310724 0.12389 0.312389 0.122744 0.31017 0.211091 0.310707 0.213855 0.310147 0.212709 0.312389 0.126305 0.301319 0.125508 0.310724 0.122744 0.31017 0.126305 0.301319 0.122744 0.31017 0.123317 0.300546 0.210294 0.301203 0.213282 0.300422 0.213855 0.310147 0.210294 0.301203 0.213855 0.310147 0.211091 0.310707 0.127293 0.288243 0.126305 0.301319 0.123317 0.300546 0.127293 0.288243 0.123317 0.300546 0.125256 0.287548 0.209298 0.287987 0.211334 0.287285 0.213282 0.300422 0.209298 0.287987 0.213282 0.300422 0.210294 0.301203 0.128369 0.27572 0.127293 0.288243 0.125256 0.287548 0.128369 0.27572 0.125256 0.287548 0.126785 0.275503 0.20823 0.275336 0.209814 0.275116 0.211334 0.287285 0.20823 0.275336 0.211334 0.287285 0.209298 0.287987 0.12948 0.269579 0.128369 0.27572 0.126785 0.275503 0.12948 0.269579 0.126785 0.275503 0.127423 0.268728 0.207119 0.26913 0.209176 0.268271 0.209814 0.275116 0.207119 0.26913 0.209814 0.275116 0.20823 0.275336 0.131273 0.265632 0.12948 0.269579 0.127423 0.268728 0.131273 0.265632 0.127423 0.268728 0.126859 0.264252 0.205326 0.265141 0.20974 0.263747 0.209176 0.268271 0.205326 0.265141 0.209176 0.268271 0.207119 0.26913 0.126046 0.259478 0.133607 0.261528 0.131273 0.265632 0.126046 0.259478 0.131273 0.265632 0.126859 0.264252 0.210553 0.258923 0.20974 0.263747 0.205326 0.265141 0.210553 0.258923 0.205326 0.265141 0.202992 0.260995 0.126046 0.259478 0.125818 0.254711 0.133855 0.256533 0.126046 0.259478 0.133855 0.256533 0.133607 0.261528 0.210553 0.258923 0.202992 0.260995 0.202744 0.255947 0.210553 0.258923 0.202744 0.255947 0.210781 0.254107 0.125818 0.254711 0.127603 0.250444 0.130901 0.248986 0.125818 0.254711 0.130901 0.248986 0.133855 0.256533 0.210781 0.254107 0.202744 0.255947 0.203803 0.250692 0.210781 0.254107 0.203803 0.250692 0.209095 0.250167 0.209095 0.250167 0.203803 0.250692 0.206072 0.248287 0.147152 0.585552 0.148439 0.584777 0.149742 0.585552 0.149742 0.585552 0.148439 0.584777 0.151808 0.58475 0.149742 0.585552 0.151808 0.58475 0.151938 0.585552 0.178793 0.573409 0.178793 0.572977 0.180998 0.573324 0.180998 0.573324 0.184744 0.572643 0.183579 0.573409 0.183579 0.573409 0.184744 0.572643 0.186169 0.573409 0.186169 0.573409 0.184744 0.572643 0.188235 0.572608 0.186169 0.573409 0.188235 0.572608 0.188365 0.573409 0.178793 0.512698 0.178793 0.512265 0.181348 0.512575 0.181348 0.512575 0.182848 0.511901 0.184313 0.512698 0.184313 0.512698 0.182848 0.511901 0.187145 0.511968 0.184313 0.512698 0.187145 0.511968 0.1873 0.512698 0.1873 0.512698 0.187145 0.511968 0.189832 0.512265 0.1873 0.512698 0.189832 0.512265 0.189832 0.512698 0.155804 0.585552 0.156042 0.584737 0.158779 0.584785 0.155804 0.585552 0.158779 0.584785 0.157742 0.585552 0.157742 0.585552 0.158779 0.584785 0.160028 0.585552 0.160028 0.585552 0.158779 0.584785 0.16217 0.584785 0.160028 0.585552 0.16217 0.584785 0.162314 0.585552 0.162314 0.585552 0.16217 0.584785 0.164137 0.58475 0.162314 0.585552 0.164137 0.58475 0.164252 0.585552 0.142366 0.585552 0.142366 0.585119 0.144678 0.584814 0.142366 0.585552 0.144678 0.584814 0.144562 0.585552 0.144562 0.585552 0.144678 0.584814 0.148439 0.584777 0.144562 0.585552 0.148439 0.584777 0.147152 0.585552 0.149742 0.574513 0.148439 0.584777 0.145749 0.574513 0.151938 0.574513 0.151808 0.58475 0.148439 0.584777 0.151938 0.574513 0.148439 0.584777 0.149742 0.574513 0.179787 0.562371 0.181226 0.572578 0.178985 0.572509 0.184757 0.562371 0.184744 0.572643 0.181226 0.572578 0.184757 0.562371 0.181226 0.572578 0.179787 0.562371 0.188365 0.562371 0.188235 0.572608 0.184744 0.572643 0.188365 0.562371 0.184744 0.572643 0.184757 0.562371 0.179941 0.501659 0.182848 0.511901 0.179014 0.511797 0.185675 0.501659 0.182848 0.511901 0.179941 0.501659 0.185675 0.501659 0.187145 0.511968 0.182848 0.511901 0.189832 0.501659 0.189632 0.511812 0.187145 0.511968 0.189832 0.501659 0.187145 0.511968 0.185675 0.501659 0.15668 0.574513 0.158779 0.584785 0.156042 0.584737 0.161066 0.574513 0.158779 0.584785 0.15668 0.574513 0.161066 0.574513 0.16217 0.584785 0.158779 0.584785 0.164252 0.574513 0.164137 0.58475 0.16217 0.584785 0.164252 0.574513 0.16217 0.584785 0.161066 0.574513 0.145749 0.574513 0.144678 0.584814 0.142558 0.584651 0.145749 0.574513 0.142558 0.584651 0.142366 0.574513 0.145749 0.574513 0.148439 0.584777 0.144678 0.584814 0.151808 0.58475 0.152967 0.584794 0.153405 0.585119 0.180998 0.573324 0.181226 0.572578 0.184744 0.572643 0.188235 0.572608 0.189394 0.572652 0.189832 0.572977 0.0832714 0.594343 0.0856363 0.593098 0.0824469 0.595694 0.0871741 0.592727 0.0897265 0.593519 0.0856363 0.593098 0.0910767 0.594343 0.0921622 0.59618 0.0897265 0.593519 0.0922732 0.600358 0.0905645 0.602413 0.0925181 0.598795 0.0892862 0.603345 0.0871739 0.603645 0.0905645 0.602413 0.0832714 0.602149 0.0820266 0.599783 0.0846216 0.602973 0.0816548 0.598246 0.0824469 0.595694 0.0820266 0.599783 0.0824469 0.595694 0.0856363 0.593098 0.0855833 0.594406 0.0824469 0.595694 0.0855833 0.594406 0.0842347 0.595307 0.0856363 0.593098 0.0871741 0.594089 0.0855833 0.594406 0.0856363 0.593098 0.0897265 0.593519 0.0887648 0.594406 0.0856363 0.593098 0.0887648 0.594406 0.0871741 0.594089 0.0897265 0.593519 0.0906017 0.595924 0.0887648 0.594406 0.0897265 0.593519 0.0921622 0.59618 0.0906017 0.595924 0.0921622 0.59618 0.0925181 0.598795 0.0913309 0.598246 0.0921622 0.59618 0.0913309 0.598246 0.0906017 0.595924 0.0925181 0.598795 0.0906294 0.600461 0.0913309 0.598246 0.0925181 0.598795 0.0905645 0.602413 0.0906294 0.600461 0.0905645 0.602413 0.0880073 0.602301 0.0906294 0.600461 0.0905645 0.602413 0.0871739 0.603645 0.0880073 0.602301 0.0871739 0.603645 0.0846216 0.602973 0.0855833 0.602086 0.0871739 0.603645 0.0855833 0.602086 0.0880073 0.602301 0.0846216 0.602973 0.0837464 0.600568 0.0855833 0.602086 0.0846216 0.602973 0.0820266 0.599783 0.0837464 0.600568 0.0820266 0.599783 0.0831496 0.597538 0.0837464 0.600568 0.0820266 0.599783 0.0824469 0.595694 0.0831496 0.597538 0.0824469 0.595694 0.0842347 0.595307 0.0831496 0.597538 0.0803506 0.591258 0.0793121 0.591623 0.0781813 0.590368 0.0793121 0.591623 0.0776868 0.591328 0.0781813 0.590368 0.0859657 0.59162 0.0842525 0.590368 0.0864387 0.590874 0.0859657 0.59162 0.083758 0.591328 0.0842525 0.590368 0.115327 0.591328 0.112523 0.591175 0.113783 0.590613 0.11025 0.59162 0.108537 0.590368 0.110723 0.590874 0.11025 0.59162 0.107852 0.591451 0.108537 0.590368 0.0803506 0.591258 0.0781813 0.590368 0.0805969 0.590246 0.0776868 0.591328 0.0760961 0.591175 0.0755377 0.590246 0.0776868 0.591328 0.0755377 0.590246 0.0781813 0.590368 0.0864387 0.590874 0.0842525 0.590368 0.0866681 0.590246 0.083758 0.591328 0.0821673 0.591175 0.0816088 0.590246 0.083758 0.591328 0.0816088 0.590246 0.0842525 0.590368 0.117055 0.591326 0.115327 0.591328 0.117024 0.590246 0.113783 0.590613 0.112523 0.591175 0.111965 0.590246 0.110723 0.590874 0.108537 0.590368 0.110953 0.590246 0.107852 0.591451 0.10616 0.591247 0.105893 0.590246 0.107852 0.591451 0.105893 0.590246 0.108537 0.590368 0.0842525 0.590368 0.0835186 0.580584 0.0861232 0.580584 0.0842525 0.590368 0.0816088 0.590246 0.0816088 0.580584 0.0842525 0.590368 0.0816088 0.580584 0.0835186 0.580584 0.117024 0.590246 0.115327 0.591328 0.1165 0.580584 0.115327 0.591328 0.113783 0.590613 0.113874 0.580584 0.115327 0.591328 0.113874 0.580584 0.1165 0.580584 0.113783 0.590613 0.111965 0.590246 0.111965 0.580584 0.113783 0.590613 0.111965 0.580584 0.113874 0.580584 0.110953 0.590246 0.108537 0.590368 0.110429 0.580584 0.108537 0.590368 0.107803 0.580584 0.110429 0.580584 0.108537 0.590368 0.105893 0.590246 0.105893 0.580584 0.108537 0.590368 0.105893 0.580584 0.107803 0.580584 0.0805969 0.590246 0.0781813 0.590368 0.0800101 0.580584 0.0781813 0.590368 0.0774475 0.580584 0.0800101 0.580584 0.0781813 0.590368 0.0755377 0.590246 0.0755377 0.580584 0.0781813 0.590368 0.0755377 0.580584 0.0774475 0.580584 0.0866681 0.590246 0.0842525 0.590368 0.0861232 0.580584 0.0762072 0.592812 0.0789344 0.594343 0.0730813 0.593422 0.0789344 0.594343 0.0804935 0.597322 0.0730813 0.593422 0.0804935 0.597322 0.0795486 0.601434 0.0730813 0.593422 0.0795486 0.601434 0.0759604 0.603707 0.0730813 0.593422 0.0759604 0.603707 0.0718473 0.602765 0.0730813 0.593422 0.0718473 0.602765 0.0695702 0.599172 0.0730813 0.593422 0.0695702 0.599172 0.070514 0.59506 0.0730813 0.593422 0.173091 0.592785 0.176739 0.595101 0.16908 0.593919 0.176739 0.595101 0.177631 0.599167 0.16908 0.593919 0.177631 0.599167 0.175359 0.602761 0.16908 0.593919 0.175359 0.602761 0.171249 0.603707 0.16908 0.593919 0.171249 0.603707 0.167655 0.601435 0.16908 0.593919 0.167655 0.601435 0.166708 0.597325 0.16908 0.593919</float_array>
                    <technique_common>
                        <accessor count="936" source="#shape0-lib-map-array" stride="2">
                            <param name="U" type="float"/>
                            <param name="V" type="float"/>
                        </accessor>
                    </technique_common>
                </source>
                <vertices id="shape0-lib-vertices">
                    <input semantic="POSITION" source="#shape0-lib-positions"/>
                </vertices>
                <triangles count="312" material="material0">
                    <input offset="0" semantic="VERTEX" source="#shape0-lib-vertices"/>
                    <input offset="1" semantic="COLOR" source="#shape0-lib-vcolor"/>
                    <input offset="2" semantic="NORMAL" source="#shape0-lib-normals"/>
                    <input offset="3" semantic="TEXCOORD" source="#shape0-lib-map"/>
                    <p>9 9 0 0 10 10 0 1 5 5 0 2 10 10 1 3 12 12 1 4 4 4 1 5 10 10 2 6 4 4 2 7 5 5 2 8 12 12 3 9 14 14 3 10 3 3 3 11 12 12 4 12 3 3 4 13 4 4 4 14 14 14 5 15 16 16 5 16 2 2 5 17 14 14 6 18 2 2 6 19 3 3 6 20 18 18 7 21 15 15 7 22 6 6 7 23 16 16 8 24 17 17 8 25 2 2 8 26 19 19 9 27 20 20 9 28 1 1 9 29 21 21 10 30 18 18 10 31 6 6 10 32 20 20 11 33 22 22 11 34 0 0 11 35 20 20 12 36 0 0 12 37 1 1 12 38 22 22 13 39 24 24 13 40 0 0 13 41 25 25 14 42 23 23 14 43 7 7 14 44 26 26 15 45 25 25 15 46 7 7 15 47 8 8 16 48 9 9 16 49 5 5 16 50 8 8 17 51 10 10 17 52 9 9 17 53 11 11 18 54 8 8 18 55 5 5 18 56 11 11 19 57 5 5 19 58 4 4 19 59 11 11 20 60 12 12 20 61 10 10 20 62 11 11 21 63 10 10 21 64 8 8 21 65 13 13 22 66 11 11 22 67 4 4 22 68 13 13 23 69 4 4 23 70 3 3 23 71 13 13 24 72 14 14 24 73 12 12 24 74 13 13 25 75 12 12 25 76 11 11 25 77 15 15 26 78 13 13 26 79 3 3 26 80 15 15 27 81 3 3 27 82 2 2 27 83 15 15 28 84 16 16 28 85 14 14 28 86 15 15 29 87 14 14 29 88 13 13 29 89 6 6 30 90 15 15 30 91 2 2 30 92 6 6 31 93 2 2 31 94 17 17 31 95 18 18 32 96 17 17 32 97 16 16 32 98 18 18 33 99 16 16 33 100 15 15 33 101 6 6 34 102 17 17 34 103 19 19 34 104 18 18 35 105 19 19 35 106 17 17 35 107 1 1 36 108 21 21 36 109 6 6 36 110 1 1 37 111 6 6 37 112 19 19 37 113 20 20 38 114 19 19 38 115 18 18 38 116 20 20 39 117 18 18 39 118 21 21 39 119 1 1 40 120 0 0 40 121 23 23 40 122 1 1 41 123 23 23 41 124 21 21 41 125 20 20 42 126 21 21 42 127 23 23 42 128 20 20 43 129 23 23 43 130 22 22 43 131 0 0 44 132 24 24 44 133 7 7 44 134 0 0 45 135 7 7 45 136 23 23 45 137 22 22 46 138 23 23 46 139 25 25 46 140 22 22 47 141 25 25 47 142 24 24 47 143 24 24 48 144 26 26 48 145 7 7 48 146 24 24 49 147 25 25 49 148 26 26 49 149 35 35 50 150 36 36 50 151 29 29 50 152 38 38 51 153 35 35 51 154 29 29 51 155 38 38 52 156 29 29 52 157 30 30 52 158 40 40 53 159 38 38 53 160 30 30 53 161 40 40 54 162 30 30 54 163 31 31 54 164 42 42 55 165 40 40 55 166 31 31 55 167 42 42 56 168 31 31 56 169 32 32 56 170 45 45 57 171 42 42 57 172 32 32 57 173 45 45 58 174 32 32 58 175 33 33 58 176 46 46 59 177 45 45 59 178 33 33 59 179 47 47 60 180 27 27 60 181 28 28 60 182 48 48 61 183 46 46 61 184 34 34 61 185 47 47 62 186 49 49 62 187 27 27 62 188 50 50 63 189 48 48 63 190 34 34 63 191 51 51 64 192 50 50 64 193 34 34 64 194 29 29 65 195 36 36 65 196 37 37 65 197 35 35 66 198 37 37 66 199 36 36 66 200 30 30 67 201 29 29 67 202 37 37 67 203 30 30 68 204 37 37 68 205 39 39 68 206 38 38 69 207 39 39 69 208 37 37 69 209 38 38 70 210 37 37 70 211 35 35 70 212 31 31 71 213 30 30 71 214 39 39 71 215 31 31 72 216 39 39 72 217 41 41 72 218 40 40 73 219 41 41 73 220 39 39 73 221 40 40 74 222 39 39 74 223 38 38 74 224 32 32 75 225 31 31 75 226 41 41 75 227 32 32 76 228 41 41 76 229 43 43 76 230 42 42 77 231 43 43 77 232 41 41 77 233 42 42 78 234 41 41 78 235 40 40 78 236 33 33 79 237 32 32 79 238 43 43 79 239 33 33 80 240 43 43 80 241 44 44 80 242 45 45 81 243 44 44 81 244 43 43 81 245 45 45 82 246 43 43 82 247 42 42 82 248 33 33 83 249 44 44 83 250 28 28 83 251 45 45 84 252 28 28 84 253 44 44 84 254 28 28 85 255 46 46 85 256 33 33 85 257 47 47 86 258 28 28 86 259 45 45 86 260 47 47 87 261 45 45 87 262 46 46 87 263 28 28 88 264 27 27 88 265 34 34 88 266 28 28 89 267 34 34 89 268 46 46 89 269 47 47 90 270 46 46 90 271 48 48 90 272 27 27 91 273 49 49 91 274 34 34 91 275 47 47 92 276 48 48 92 277 50 50 92 278 47 47 93 279 50 50 93 280 49 49 93 281 49 49 94 282 51 51 94 283 34 34 94 284 49 49 95 285 50 50 95 286 51 51 95 287 62 62 96 288 59 59 96 289 52 52 96 290 62 62 97 291 52 52 97 292 53 53 97 293 64 64 98 294 62 62 98 295 53 53 98 296 64 64 99 297 53 53 99 298 54 54 99 299 64 64 100 300 54 54 100 301 55 55 100 302 68 68 101 303 64 64 101 304 55 55 101 305 68 68 102 306 55 55 102 307 56 56 102 308 70 70 103 309 68 68 103 310 56 56 103 311 70 70 104 312 56 56 104 313 57 57 104 314 72 72 105 315 70 70 105 316 57 57 105 317 72 72 106 318 57 57 106 319 58 58 106 320 73 73 107 321 72 72 107 322 58 58 107 323 52 52 108 324 59 59 108 325 60 60 108 326 52 52 109 327 60 60 109 328 61 61 109 329 62 62 110 330 61 61 110 331 60 60 110 332 62 62 111 333 60 60 111 334 59 59 111 335 53 53 112 336 52 52 112 337 61 61 112 338 53 53 113 339 61 61 113 340 63 63 113 341 62 62 114 342 63 63 114 343 61 61 114 344 54 54 115 345 53 53 115 346 63 63 115 347 54 54 116 348 63 63 116 349 65 65 116 350 64 64 117 351 65 65 117 352 63 63 117 353 64 64 118 354 63 63 118 355 62 62 118 356 55 55 119 357 54 54 119 358 65 65 119 359 55 55 120 360 65 65 120 361 66 66 120 362 64 64 121 363 66 66 121 364 65 65 121 365 55 55 122 366 66 66 122 367 67 67 122 368 64 64 123 369 67 67 123 370 66 66 123 371 67 67 124 372 56 56 124 373 55 55 124 374 67 67 125 375 64 64 125 376 68 68 125 377 67 67 126 378 69 69 126 379 57 57 126 380 67 67 127 381 57 57 127 382 56 56 127 383 67 67 128 384 68 68 128 385 70 70 128 386 67 67 129 387 70 70 129 388 69 69 129 389 69 69 130 390 71 71 130 391 58 58 130 392 69 69 131 393 58 58 131 394 57 57 131 395 69 69 132 396 70 70 132 397 72 72 132 398 69 69 133 399 72 72 133 400 71 71 133 401 71 71 134 402 73 73 134 403 58 58 134 404 71 71 135 405 72 72 135 406 73 73 135 407 84 84 136 408 85 85 136 409 79 79 136 410 85 85 137 411 87 87 137 412 78 78 137 413 85 85 138 414 78 78 138 415 79 79 138 416 87 87 139 417 89 89 139 418 77 77 139 419 87 87 140 420 77 77 140 421 78 78 140 422 89 89 141 423 91 91 141 424 76 76 141 425 89 89 142 426 76 76 142 427 77 77 142 428 91 91 143 429 93 93 143 430 75 75 143 431 91 91 144 432 75 75 144 433 76 76 144 434 94 94 145 435 92 92 145 436 80 80 145 437 93 93 146 438 95 95 146 439 75 75 146 440 95 95 147 441 96 96 147 442 74 74 147 443 97 97 148 444 94 94 148 445 80 80 148 446 96 96 149 447 98 98 149 448 74 74 149 449 99 99 150 450 97 97 150 451 81 81 150 452 101 101 151 453 99 99 151 454 81 81 151 455 101 101 152 456 81 81 152 457 82 82 152 458 83 83 153 459 84 84 153 460 79 79 153 461 83 83 154 462 85 85 154 463 84 84 154 464 86 86 155 465 83 83 155 466 79 79 155 467 86 86 156 468 79 79 156 469 78 78 156 470 86 86 157 471 87 87 157 472 85 85 157 473 86 86 158 474 85 85 158 475 83 83 158 476 88 88 159 477 86 86 159 478 78 78 159 479 88 88 160 480 78 78 160 481 77 77 160 482 88 88 161 483 89 89 161 484 87 87 161 485 88 88 162 486 87 87 162 487 86 86 162 488 90 90 163 489 88 88 163 490 77 77 163 491 90 90 164 492 77 77 164 493 76 76 164 494 90 90 165 495 91 91 165 496 89 89 165 497 90 90 166 498 89 89 166 499 88 88 166 500 92 92 167 501 90 90 167 502 76 76 167 503 92 92 168 504 76 76 168 505 75 75 168 506 92 92 169 507 93 93 169 508 91 91 169 509 92 92 170 510 91 91 170 511 90 90 170 512 80 80 171 513 92 92 171 514 75 75 171 515 80 80 172 516 75 75 172 517 95 95 172 518 94 94 173 519 95 95 173 520 93 93 173 521 94 94 174 522 93 93 174 523 92 92 174 524 74 74 175 525 97 97 175 526 80 80 175 527 74 74 176 528 80 80 176 529 95 95 176 530 96 96 177 531 95 95 177 532 94 94 177 533 96 96 178 534 94 94 178 535 97 97 178 536 74 74 179 537 98 98 179 538 81 81 179 539 74 74 180 540 81 81 180 541 97 97 180 542 96 96 181 543 97 97 181 544 99 99 181 545 96 96 182 546 99 99 182 547 98 98 182 548 98 98 183 549 100 100 183 550 82 82 183 551 98 98 184 552 82 82 184 553 81 81 184 554 98 98 185 555 99 99 185 556 101 101 185 557 98 98 186 558 101 101 186 559 100 100 186 560 100 100 187 561 101 101 187 562 82 82 187 563 110 110 188 564 127 127 188 565 111 111 188 566 111 111 189 567 127 127 189 568 128 128 189 569 111 111 190 570 128 128 190 571 112 112 190 572 112 112 191 573 128 128 191 574 123 123 191 575 123 123 192 576 129 129 192 577 113 113 192 578 113 113 193 579 129 129 193 580 114 114 193 581 114 114 194 582 129 129 194 583 130 130 194 584 114 114 195 585 130 130 195 586 115 115 195 587 115 115 196 588 130 130 196 589 124 124 196 590 124 124 197 591 131 131 197 592 137 137 197 593 137 137 198 594 131 131 198 595 125 125 198 596 137 137 199 597 125 125 199 598 116 116 199 599 116 116 200 600 125 125 200 601 132 132 200 602 116 116 201 603 132 132 201 604 117 117 201 605 117 117 202 606 132 132 202 607 133 133 202 608 117 117 203 609 133 133 203 610 118 118 203 611 118 118 204 612 133 133 204 613 119 119 204 614 119 119 205 615 133 133 205 616 134 134 205 617 119 119 206 618 134 134 206 619 120 120 206 620 120 120 207 621 134 134 207 622 135 135 207 623 120 120 208 624 135 135 208 625 121 121 208 626 121 121 209 627 135 135 209 628 126 126 209 629 121 121 210 630 126 126 210 631 122 122 210 632 122 122 211 633 126 126 211 634 127 127 211 635 122 122 212 636 127 127 212 637 110 110 212 638 165 165 213 639 127 127 213 640 109 109 213 641 102 102 214 642 128 128 214 643 127 127 214 644 102 102 215 645 127 127 215 646 165 165 215 647 102 102 216 648 136 136 216 649 128 128 216 650 103 103 217 651 129 129 217 652 136 136 217 653 103 103 218 654 136 136 218 655 102 102 218 656 104 104 219 657 130 130 219 658 129 129 219 659 104 104 220 660 129 129 220 661 103 103 220 662 104 104 221 663 131 131 221 664 130 130 221 665 105 105 222 666 131 131 222 667 104 104 222 668 105 105 223 669 125 125 223 670 131 131 223 671 106 106 224 672 132 132 224 673 125 125 224 674 106 106 225 675 125 125 225 676 105 105 225 677 106 106 226 678 133 133 226 679 132 132 226 680 107 107 227 681 133 133 227 682 106 106 227 683 107 107 228 684 134 134 228 685 133 133 228 686 108 108 229 687 135 135 229 688 134 134 229 689 108 108 230 690 134 134 230 691 107 107 230 692 109 109 231 693 126 126 231 694 135 135 231 695 109 109 232 696 135 135 232 697 108 108 232 698 109 109 233 699 127 127 233 700 126 126 233 701 128 128 234 702 136 136 234 703 123 123 234 704 123 123 235 705 136 136 235 706 129 129 235 707 130 130 236 708 131 131 236 709 124 124 236 710 121 121 237 711 122 122 237 712 120 120 237 713 110 110 238 714 111 111 238 715 122 122 238 716 112 112 239 717 123 123 239 718 111 111 239 719 114 114 240 720 115 115 240 721 113 113 240 722 124 124 241 723 137 137 241 724 115 115 241 725 117 117 242 726 118 118 242 727 116 116 242 728 119 119 243 729 120 120 243 730 118 118 243 731 120 120 244 732 122 122 244 733 144 144 244 734 120 120 245 735 144 144 245 736 148 148 245 737 122 122 246 738 138 138 246 739 144 144 246 740 122 122 247 741 111 111 247 742 145 145 247 743 122 122 248 744 145 145 248 745 138 138 248 746 111 111 249 747 139 139 249 748 145 145 249 749 111 111 250 750 123 123 250 751 139 139 250 752 123 123 251 753 113 113 251 754 140 140 251 755 123 123 252 756 140 140 252 757 139 139 252 758 113 113 253 759 141 141 253 760 140 140 253 761 113 113 254 762 115 115 254 763 141 141 254 764 115 115 255 765 152 152 255 766 141 141 255 767 115 115 256 768 137 137 256 769 152 152 256 770 137 137 257 771 116 116 257 772 147 147 257 773 137 137 258 774 147 147 258 775 152 152 258 776 116 116 259 777 142 142 259 778 147 147 259 779 116 116 260 780 118 118 260 781 142 142 260 782 118 118 261 783 143 143 261 784 142 142 261 785 118 118 262 786 120 120 262 787 143 143 262 788 120 120 263 789 148 148 263 790 143 143 263 791 148 148 264 792 144 144 264 793 156 156 264 794 144 144 265 795 138 138 265 796 156 156 265 797 139 139 266 798 150 150 266 799 145 145 266 800 139 139 267 801 140 140 267 802 150 150 267 803 152 152 268 804 147 147 268 805 146 146 268 806 142 142 269 807 154 154 269 808 147 147 269 809 142 142 270 810 143 143 270 811 154 154 270 812 148 148 271 813 156 156 271 814 155 155 271 815 138 138 272 816 145 145 272 817 149 149 272 818 138 138 273 819 149 149 273 820 156 156 273 821 145 145 274 822 150 150 274 823 149 149 274 824 140 140 275 825 141 141 275 826 151 151 275 827 140 140 276 828 151 151 276 829 150 150 276 830 141 141 277 831 152 152 277 832 151 151 277 833 146 146 278 834 147 147 278 835 153 153 278 836 147 147 279 837 154 154 279 838 153 153 279 839 143 143 280 840 148 148 280 841 155 155 280 842 143 143 281 843 155 155 281 844 154 154 281 845 150 150 282 846 159 159 282 847 158 158 282 848 150 150 283 849 151 151 283 850 160 160 283 851 150 150 284 852 160 160 284 853 159 159 284 854 151 151 285 855 152 152 285 856 160 160 285 857 152 152 286 858 146 146 286 859 161 161 286 860 152 152 287 861 161 161 287 862 160 160 287 863 146 146 288 864 153 153 288 865 162 162 288 866 146 146 289 867 162 162 289 868 161 161 289 869 153 153 290 870 154 154 290 871 162 162 290 872 154 154 291 873 163 163 291 874 162 162 291 875 154 154 292 876 155 155 292 877 164 164 292 878 154 154 293 879 164 164 293 880 163 163 293 881 155 155 294 882 156 156 294 883 164 164 294 884 156 156 295 885 157 157 295 886 164 164 295 887 156 156 296 888 149 149 296 889 158 158 296 890 156 156 297 891 158 158 297 892 157 157 297 893 149 149 298 894 150 150 298 895 158 158 298 896 109 109 299 897 108 108 299 898 165 165 299 899 108 108 300 900 107 107 300 901 165 165 300 902 107 107 301 903 106 106 301 904 165 165 301 905 106 106 302 906 105 105 302 907 165 165 302 908 105 105 303 909 104 104 303 910 165 165 303 911 104 104 304 912 103 103 304 913 165 165 304 914 103 103 305 915 102 102 305 916 165 165 305 917 157 157 306 918 158 158 306 919 164 164 306 920 158 158 307 921 159 159 307 922 164 164 307 923 159 159 308 924 160 160 308 925 164 164 308 926 160 160 309 927 161 161 309 928 164 164 309 929 161 161 310 930 162 162 310 931 164 164 310 932 162 162 311 933 163 163 311 934 164 164 311 935</p>
                </triangles>
            </mesh>
        </geometry>
    </library_geometries>
    <library_visual_scenes>
        <visual_scene id="VisualSceneNode" name="VisualScene">
            <node id="node" name="node">
                <instance_geometry url="#shape0-lib">
                    <bind_material>
                        <technique_common>
                            <instance_material symbol="material0" target="#material0">
                                <bind_vertex_input semantic="UVSET0" input_semantic="TEXCOORD"/>
                            </instance_material>
                        </technique_common>
                    </bind_material>
                </instance_geometry>
            </node>
        </visual_scene>
    </library_visual_scenes>
    <scene>
        <instance_visual_scene url="#VisualSceneNode"/>
    </scene>
</COLLADA>
