<?xml version="1.0" encoding="UTF-8"?>
<COLLADA xmlns="http://www.collada.org/2005/11/COLLADASchema" version="1.4.1">
    <asset>
        <contributor>
            <author>VCGLab</author>
            <authoring_tool>VCGLib | MeshLab</authoring_tool>
        </contributor>
        <created>Thu Jul 3 02:10:23 2025 GMT</created>
        <modified>Thu Jul 3 02:10:23 2025 GMT</modified>
        <up_axis>Y_UP</up_axis>
    </asset>
    <library_images>
        <image id="texture0" name="texture0">
            <init_from>./image/shelf_books.png</init_from>
        </image>
    </library_images>
    <library_materials>
        <material id="material0" name="material0">
            <instance_effect url="#material0-fx"/>
        </material>
    </library_materials>
    <library_effects>
        <effect id="material0-fx">
            <profile_COMMON>
                <newparam sid="texture0-surface">
                    <surface type="2D">
                        <init_from>texture0</init_from>
                        <format>R8G8B8</format>
                    </surface>
                </newparam>
                <newparam sid="texture0-sampler">
                    <sampler2D>
                        <source>texture0-surface</source>
                        <minfilter>LINEAR</minfilter>
                        <magfilter>LINEAR</magfilter>
                    </sampler2D>
                </newparam>
                <technique sid="common">
                    <blinn>
                        <diffuse>
                            <texture texture="texture0-sampler" texcoord="UVSET0"/>
                        </diffuse>
                    </blinn>
                </technique>
            </profile_COMMON>
        </effect>
    </library_effects>
    <library_geometries>
        <geometry id="shape0-lib" name="shape0">
            <mesh>
                <source id="shape0-lib-positions" name="position">
                    <float_array id="shape0-lib-positions-array" count="54">-0.0603201 0.0467888 -0.0567915 0.0574733 0.0471187 -0.0567915 0.0574006 0.0248993 -0.0567915 -0.0603927 0.0245694 -0.0567915 -0.0603226 0.0460544 0.0629779 0.0574733 0.0471187 0.0603915 0.0574032 0.0256337 0.0629779 -0.0603907 0.0251657 0.0629298 0.057469 0.0458446 0.0633145 -0.0604008 0.0221005 -0.0567915 0.0573926 0.0224306 -0.0567915 0.0573199 0.000211321 -0.0567915 -0.0604734 -0.00011865 -0.0567915 -0.0604033 0.0213663 0.0629779 0.0573926 0.0224306 0.0603915 0.0573225 0.000945638 0.0629779 -0.0604715 0.000477575 0.0629298 0.0573883 0.0211565 0.0633145</float_array>
                    <technique_common>
                        <accessor count="18" source="#shape0-lib-positions-array" stride="3">
                            <param name="X" type="float"/>
                            <param name="Y" type="float"/>
                            <param name="Z" type="float"/>
                        </accessor>
                    </technique_common>
                </source>
                <source id="shape0-lib-normals" name="normal">
                    <float_array id="shape0-lib-normals-array" count="84">0 0 -1 0 0 -1 0.000490047 0.916705 0.399563 -0.00280066 0.999996 0 -0.00890032 0.999942 0.00613158 0.00280063 -0.999984 0.00498037 0.00397098 -0.999973 0.00613183 -0.000342049 -0.0166548 0.999861 -0.0028623 -0.00229302 0.999993 0 0 -1 0 0 -1 0.000490817 0.916702 0.399572 -0.00280235 0.999996 0 -0.00889991 0.999942 0.00612947 0.00280123 -0.999984 0.00497998 0.00397097 -0.999973 0.00613085 -0.000341923 -0.0166548 0.999861 -0.00286212 -0.00229337 0.999993 0.999995 -0.00325761 5.21031e-05 0.999995 -0.00327185 -1.42938e-06 0.999995 -0.00326389 0 -0.999995 0.00326733 -7.41602e-07 -0.999995 0.00326289 5.40521e-08 0.999995 -0.00325746 5.3402e-05 0.999995 -0.00327204 -1.46257e-06 0.999995 -0.00326389 0 -0.999995 0.00326753 -7.47259e-07 -0.999995 0.00326324 2.24572e-08</float_array>
                    <technique_common>
                        <accessor count="28" source="#shape0-lib-normals-array" stride="3">
                            <param name="X" type="float"/>
                            <param name="Y" type="float"/>
                            <param name="Z" type="float"/>
                        </accessor>
                    </technique_common>
                </source>
                <source id="shape0-lib-vcolor" name="vcolor">
                    <float_array id="shape0-lib-vcolor-array" count="72">1 1 1 1 1 1 1 1 1 1 1 1 1 1 1 1 1 1 1 1 1 1 1 1 1 1 1 1 1 1 1 1 1 1 1 1 1 1 1 1 1 1 1 1 1 1 1 1 1 1 1 1 1 1 1 1 1 1 1 1 1 1 1 1 1 1 1 1 1 1 1 1</float_array>
                    <technique_common>
                        <accessor count="18" source="#shape0-lib-vcolor-array" stride="4">
                            <param name="R" type="float"/>
                            <param name="G" type="float"/>
                            <param name="B" type="float"/>
                            <param name="A" type="float"/>
                        </accessor>
                    </technique_common>
                </source>
                <source id="shape0-lib-map" name="map">
                    <float_array id="shape0-lib-map-array" count="168">0.461621 0.384507 0.478662 0.384556 0.478651 0.381308 0.461621 0.384507 0.478651 0.381308 0.46161 0.38126 0.553539 0.935969 0.503991 0.935443 0.553537 0.935387 0.531281 0.642007 0.531281 0.636695 0.536594 0.636695 0.531281 0.642007 0.536594 0.636695 0.536594 0.642007 0.371906 0.648382 0.371906 0.64307 0.377219 0.64307 0.371906 0.648382 0.377219 0.64307 0.377219 0.648382 0.503962 0.92681 0.55351 0.927028 0.553537 0.935387 0.503962 0.92681 0.553537 0.935387 0.503991 0.935443 0.461609 0.380899 0.47865 0.380947 0.47864 0.377699 0.461609 0.380899 0.47864 0.377699 0.461599 0.377651 0.553505 0.925604 0.503957 0.925079 0.553503 0.925022 0.524906 0.642007 0.524906 0.636695 0.530219 0.636695 0.524906 0.642007 0.530219 0.636695 0.530219 0.642007 0.378281 0.648382 0.378281 0.64307 0.383594 0.64307 0.378281 0.648382 0.383594 0.64307 0.383594 0.648382 0.503928 0.916445 0.553476 0.916663 0.553503 0.925022 0.503928 0.916445 0.553503 0.925022 0.503957 0.925079 0.684571 0.76245 0.683748 0.768338 0.684751 0.767935 0.684571 0.76245 0.643484 0.76221 0.643484 0.768338 0.684571 0.76245 0.643484 0.768338 0.683748 0.768338 0.681384 0.943743 0.640297 0.943983 0.640297 0.937855 0.681384 0.943743 0.640297 0.937855 0.681367 0.938073 0.684571 0.755641 0.683748 0.761529 0.684751 0.761126 0.684571 0.755641 0.643484 0.755401 0.643484 0.761529 0.684571 0.755641 0.643484 0.761529 0.683748 0.761529 0.681384 0.936934 0.640297 0.937174 0.640297 0.931046 0.681384 0.936934 0.640297 0.931046 0.681367 0.931264</float_array>
                    <technique_common>
                        <accessor count="84" source="#shape0-lib-map-array" stride="2">
                            <param name="U" type="float"/>
                            <param name="V" type="float"/>
                        </accessor>
                    </technique_common>
                </source>
                <vertices id="shape0-lib-vertices">
                    <input semantic="POSITION" source="#shape0-lib-positions"/>
                </vertices>
                <triangles count="28" material="material0">
                    <input offset="0" semantic="VERTEX" source="#shape0-lib-vertices"/>
                    <input offset="1" semantic="COLOR" source="#shape0-lib-vcolor"/>
                    <input offset="2" semantic="NORMAL" source="#shape0-lib-normals"/>
                    <input offset="3" semantic="TEXCOORD" source="#shape0-lib-map"/>
                    <p>0 0 0 0 1 1 0 1 2 2 0 2 0 0 1 3 2 2 1 4 3 3 1 5 5 5 2 6 4 4 2 7 8 8 2 8 5 5 3 9 1 1 3 10 0 0 3 11 5 5 4 12 0 0 4 13 4 4 4 14 7 7 5 15 3 3 5 16 2 2 5 17 7 7 6 18 2 2 6 19 6 6 6 20 7 7 7 21 6 6 7 22 8 8 7 23 7 7 8 24 8 8 8 25 4 4 8 26 9 9 9 27 10 10 9 28 11 11 9 29 9 9 10 30 11 11 10 31 12 12 10 32 14 14 11 33 13 13 11 34 17 17 11 35 14 14 12 36 10 10 12 37 9 9 12 38 14 14 13 39 9 9 13 40 13 13 13 41 16 16 14 42 12 12 14 43 11 11 14 44 16 16 15 45 11 11 15 46 15 15 15 47 16 16 16 48 15 15 16 49 17 17 16 50 16 16 17 51 17 17 17 52 13 13 17 53 6 6 18 54 5 5 18 55 8 8 18 56 6 6 19 57 2 2 19 58 1 1 19 59 6 6 20 60 1 1 20 61 5 5 20 62 4 4 21 63 0 0 21 64 3 3 21 65 4 4 22 66 3 3 22 67 7 7 22 68 15 15 23 69 14 14 23 70 17 17 23 71 15 15 24 72 11 11 24 73 10 10 24 74 15 15 25 75 10 10 25 76 14 14 25 77 13 13 26 78 9 9 26 79 12 12 26 80 13 13 27 81 12 12 27 82 16 16 27 83</p>
                </triangles>
            </mesh>
        </geometry>
    </library_geometries>
    <library_visual_scenes>
        <visual_scene id="VisualSceneNode" name="VisualScene">
            <node id="node" name="node">
                <instance_geometry url="#shape0-lib">
                    <bind_material>
                        <technique_common>
                            <instance_material symbol="material0" target="#material0">
                                <bind_vertex_input semantic="UVSET0" input_semantic="TEXCOORD"/>
                            </instance_material>
                        </technique_common>
                    </bind_material>
                </instance_geometry>
            </node>
        </visual_scene>
    </library_visual_scenes>
    <scene>
        <instance_visual_scene url="#VisualSceneNode"/>
    </scene>
</COLLADA>
