<?xml version="1.0" encoding="UTF-8"?>
<COLLADA xmlns="http://www.collada.org/2005/11/COLLADASchema" version="1.4.1">
    <asset>
        <contributor>
            <author>VCGLab</author>
            <authoring_tool>VCGLib | MeshLab</authoring_tool>
        </contributor>
        <created>Thu Jul 3 01:33:25 2025 GMT</created>
        <modified>Thu Jul 3 01:33:25 2025 GMT</modified>
        <up_axis>Y_UP</up_axis>
    </asset>
    <library_images>
        <image id="texture0" name="texture0">
            <init_from>./image/shelf_books.png</init_from>
        </image>
    </library_images>
    <library_materials>
        <material id="material0" name="material0">
            <instance_effect url="#material0-fx"/>
        </material>
    </library_materials>
    <library_effects>
        <effect id="material0-fx">
            <profile_COMMON>
                <newparam sid="texture0-surface">
                    <surface type="2D">
                        <init_from>texture0</init_from>
                        <format>R8G8B8</format>
                    </surface>
                </newparam>
                <newparam sid="texture0-sampler">
                    <sampler2D>
                        <source>texture0-surface</source>
                        <minfilter>LINEAR</minfilter>
                        <magfilter>LINEAR</magfilter>
                    </sampler2D>
                </newparam>
                <technique sid="common">
                    <blinn>
                        <diffuse>
                            <texture texture="texture0-sampler" texcoord="UVSET0"/>
                        </diffuse>
                    </blinn>
                </technique>
            </profile_COMMON>
        </effect>
    </library_effects>
    <library_geometries>
        <geometry id="shape0-lib" name="shape0">
            <mesh>
                <source id="shape0-lib-positions" name="position">
                    <float_array id="shape0-lib-positions-array" count="108">-0.0825967 0.101805 -0.0592915 0.0891968 0.102135 -0.0592915 0.0891243 0.0799161 -0.0592915 -0.0826692 0.0795861 -0.0592915 -0.0825991 0.101071 0.060478 0.0891949 0.101539 0.06043 0.0891267 0.0806504 0.0604779 -0.0826672 0.0801824 0.0604297 -0.0826773 0.0771173 -0.0592915 0.0891162 0.0774474 -0.0592915 0.0890435 0.0552281 -0.0592915 -0.08275 0.054898 -0.0592915 -0.0826798 0.076383 0.0604779 0.0891162 0.0774474 0.0578915 0.089046 0.0559623 0.0604779 -0.0827479 0.0554942 0.0604298 0.0891117 0.0761732 0.0608145 -0.0827581 0.0524293 -0.0592915 0.0890354 0.0527592 -0.0592915 0.0889627 0.0305399 -0.0592915 -0.0828306 0.03021 -0.0592915 -0.0827605 0.0516949 0.0604779 0.0890354 0.0527592 0.0578915 0.0889653 0.0312743 0.0604779 -0.0828306 0.03021 0.0578915 -0.0828263 0.0314839 0.0608145 0.0890312 0.0514851 0.0608145 -0.0828387 0.0277411 -0.0592915 0.0889548 0.0280711 -0.0592915 0.0888821 0.00585181 -0.0592915 -0.0829114 0.00552184 -0.0592915 -0.0828412 0.0270068 0.0604779 0.0889526 0.0274749 0.0604298 0.0888845 0.00658613 0.0604779 -0.0829114 0.00552184 0.0578915 -0.0829071 0.00679597 0.0608145</float_array>
                    <technique_common>
                        <accessor count="36" source="#shape0-lib-positions-array" stride="3">
                            <param name="X" type="float"/>
                            <param name="Y" type="float"/>
                            <param name="Z" type="float"/>
                        </accessor>
                    </technique_common>
                </source>
                <source id="shape0-lib-normals" name="normal">
                    <float_array id="shape0-lib-normals-array" count="168">0 0 -1 0 0 -1 -0.00192089 0.999986 0.00497801 -0.00272195 0.999978 0.00612745 0.00192085 -0.999986 0.00498038 0.00272229 -0.999978 0.00613038 -0.000286411 0.00229296 0.999997 0.000285745 -0.00231132 0.999997 0 0 -1 0 0 -1 0.000336387 0.916694 0.399591 -0.00192148 0.999998 0 -0.00610305 0.999963 0.0061304 0.00192145 -0.999986 0.00497988 0.00272294 -0.999978 0.00612994 -0.000234798 -0.0166519 0.999861 -0.00196242 -0.00229649 0.999995 0 0 -1 0 0 -1 -0.000335908 -0.91672 0.399531 0.00033639 0.916706 0.399562 -0.00192033 0.999998 0 -0.00610242 0.999963 0.00613115 0.00192033 -0.999998 0 0.00610239 -0.999963 0.00613111 0.00193899 -0.0166613 0.999859 -0.00193918 0.0166613 0.999859 0 0 -1 0 0 -1 -0.000336604 -0.916697 0.399582 -0.00192088 0.999986 0.00497989 -0.00272267 0.999978 0.00613039 0.00192073 -0.999998 0 0.00610258 -0.999963 0.0061308 0.00196261 0.00229381 0.999995 0.000234406 0.0166542 0.999861 0.999995 -0.00326304 3.5736e-08 0.999995 -0.00326468 -2.58213e-07 -0.999995 0.00326304 8.84093e-08 -0.999995 0.00325896 8.20463e-07 0.999995 -0.00326838 0 0.999995 -0.00327204 -6.57034e-07 0.999995 -0.00325508 0.000110443 -0.999995 0.00327204 -9.03823e-07 -0.999995 0.00325788 1.63651e-06 0.999995 -0.00326203 1.83217e-05 0.999995 -0.00327204 -1.39914e-06 0.999995 -0.00326424 0 -0.999995 0.00325975 3.72967e-05 -0.999995 0.00326298 2.25047e-07 -0.999995 0.00326424 0 0.999995 -0.0032717 3.39548e-07 0.999995 -0.00326288 1.92268e-06 -0.999995 0.00326091 3.91155e-05 -0.999995 0.00327204 -1.15318e-06 -0.999995 0.00326561 0</float_array>
                    <technique_common>
                        <accessor count="56" source="#shape0-lib-normals-array" stride="3">
                            <param name="X" type="float"/>
                            <param name="Y" type="float"/>
                            <param name="Z" type="float"/>
                        </accessor>
                    </technique_common>
                </source>
                <source id="shape0-lib-vcolor" name="vcolor">
                    <float_array id="shape0-lib-vcolor-array" count="144">1 1 1 1 1 1 1 1 1 1 1 1 1 1 1 1 1 1 1 1 1 1 1 1 1 1 1 1 1 1 1 1 1 1 1 1 1 1 1 1 1 1 1 1 1 1 1 1 1 1 1 1 1 1 1 1 1 1 1 1 1 1 1 1 1 1 1 1 1 1 1 1 1 1 1 1 1 1 1 1 1 1 1 1 1 1 1 1 1 1 1 1 1 1 1 1 1 1 1 1 1 1 1 1 1 1 1 1 1 1 1 1 1 1 1 1 1 1 1 1 1 1 1 1 1 1 1 1 1 1 1 1 1 1 1 1 1 1 1 1 1 1 1 1</float_array>
                    <technique_common>
                        <accessor count="36" source="#shape0-lib-vcolor-array" stride="4">
                            <param name="R" type="float"/>
                            <param name="G" type="float"/>
                            <param name="B" type="float"/>
                            <param name="A" type="float"/>
                        </accessor>
                    </technique_common>
                </source>
                <source id="shape0-lib-map" name="map">
                    <float_array id="shape0-lib-map-array" count="336">0.460785 0.357249 0.485638 0.357297 0.485628 0.35405 0.460785 0.357249 0.485628 0.35405 0.460775 0.354001 0.544079 0.559132 0.544079 0.55382 0.55567 0.55382 0.544079 0.559132 0.55567 0.55382 0.55567 0.559132 0.524955 0.552757 0.524955 0.547445 0.536545 0.547445 0.524955 0.552757 0.536545 0.547445 0.536545 0.552757 0.501533 0.84852 0.573794 0.848737 0.573823 0.85737 0.501533 0.84852 0.573823 0.85737 0.501561 0.857153 0.460773 0.353641 0.485627 0.353689 0.485616 0.350441 0.460773 0.353641 0.485616 0.350441 0.460763 0.350393 0.57379 0.847314 0.501527 0.846788 0.573787 0.846732 0.410205 0.559132 0.410205 0.55382 0.421795 0.55382 0.410205 0.559132 0.421795 0.55382 0.421795 0.559132 0.435704 0.559132 0.435704 0.55382 0.447295 0.55382 0.435704 0.559132 0.447295 0.55382 0.447295 0.559132 0.501499 0.838155 0.57376 0.838372 0.573787 0.846732 0.501499 0.838155 0.573787 0.846732 0.501527 0.846788 0.460762 0.350032 0.485615 0.35008 0.485605 0.346832 0.460762 0.350032 0.485605 0.346832 0.460751 0.346784 0.501464 0.827482 0.573726 0.828008 0.501466 0.828064 0.573756 0.836949 0.501493 0.836423 0.573753 0.836367 0.384705 0.559132 0.384705 0.55382 0.396295 0.55382 0.384705 0.559132 0.396295 0.55382 0.396295 0.559132 0.371955 0.571882 0.371955 0.56657 0.383545 0.56657 0.371955 0.571882 0.383545 0.56657 0.383545 0.571882 0.501466 0.828064 0.573726 0.828008 0.573753 0.836367 0.501466 0.828064 0.573753 0.836367 0.501493 0.836423 0.46075 0.346423 0.485603 0.346472 0.485593 0.343224 0.46075 0.346423 0.485593 0.343224 0.460739 0.343176 0.50143 0.817117 0.573692 0.817643 0.501432 0.817699 0.550455 0.552757 0.550455 0.547445 0.562045 0.547445 0.550455 0.552757 0.562045 0.547445 0.562045 0.552757 0.512205 0.552757 0.512205 0.547445 0.523795 0.547445 0.512205 0.552757 0.523795 0.547445 0.523795 0.552757 0.501432 0.817699 0.573692 0.817643 0.573721 0.826276 0.501432 0.817699 0.573721 0.826276 0.501459 0.826059 0.684571 0.711018 0.643484 0.710778 0.643484 0.716906 0.684571 0.711018 0.643484 0.716906 0.684554 0.716688 0.681384 0.892311 0.640297 0.892551 0.640297 0.886423 0.681384 0.892311 0.640297 0.886423 0.681367 0.886641 0.643484 0.710097 0.683748 0.710097 0.684571 0.704209 0.643484 0.710097 0.684571 0.704209 0.643484 0.703969 0.683748 0.710097 0.684751 0.709694 0.684571 0.704209 0.681384 0.885502 0.640297 0.885742 0.640297 0.879614 0.681384 0.885502 0.640297 0.879614 0.681367 0.879832 0.684571 0.6974 0.683748 0.703288 0.684751 0.702885 0.684571 0.6974 0.643484 0.69716 0.643484 0.703288 0.684571 0.6974 0.643484 0.703288 0.683748 0.703288 0.681384 0.878693 0.68056 0.872805 0.681564 0.873208 0.681384 0.878693 0.640297 0.878933 0.640297 0.872805 0.681384 0.878693 0.640297 0.872805 0.68056 0.872805 0.684571 0.690591 0.643484 0.690351 0.643484 0.696479 0.684571 0.690591 0.643484 0.696479 0.684554 0.696262 0.681384 0.871885 0.68056 0.865996 0.681564 0.8664 0.681384 0.871885 0.640297 0.872125 0.640297 0.865996 0.681384 0.871885 0.640297 0.865996 0.68056 0.865996</float_array>
                    <technique_common>
                        <accessor count="168" source="#shape0-lib-map-array" stride="2">
                            <param name="U" type="float"/>
                            <param name="V" type="float"/>
                        </accessor>
                    </technique_common>
                </source>
                <vertices id="shape0-lib-vertices">
                    <input semantic="POSITION" source="#shape0-lib-positions"/>
                </vertices>
                <triangles count="56" material="material0">
                    <input offset="0" semantic="VERTEX" source="#shape0-lib-vertices"/>
                    <input offset="1" semantic="COLOR" source="#shape0-lib-vcolor"/>
                    <input offset="2" semantic="NORMAL" source="#shape0-lib-normals"/>
                    <input offset="3" semantic="TEXCOORD" source="#shape0-lib-map"/>
                    <p>0 0 0 0 1 1 0 1 2 2 0 2 0 0 1 3 2 2 1 4 3 3 1 5 5 5 2 6 1 1 2 7 0 0 2 8 5 5 3 9 0 0 3 10 4 4 3 11 7 7 4 12 3 3 4 13 2 2 4 14 7 7 5 15 2 2 5 16 6 6 5 17 7 7 6 18 6 6 6 19 5 5 6 20 7 7 7 21 5 5 7 22 4 4 7 23 8 8 8 24 9 9 8 25 10 10 8 26 8 8 9 27 10 10 9 28 11 11 9 29 13 13 10 30 12 12 10 31 16 16 10 32 13 13 11 33 9 9 11 34 8 8 11 35 13 13 12 36 8 8 12 37 12 12 12 38 15 15 13 39 11 11 13 40 10 10 13 41 15 15 14 42 10 10 14 43 14 14 14 44 15 15 15 45 14 14 15 46 16 16 15 47 15 15 16 48 16 16 16 49 12 12 16 50 17 17 17 51 18 18 17 52 19 19 17 53 17 17 18 54 19 19 18 55 20 20 18 56 24 24 19 57 23 23 19 58 25 25 19 59 22 22 20 60 21 21 20 61 26 26 20 62 22 22 21 63 18 18 21 64 17 17 21 65 22 22 22 66 17 17 22 67 21 21 22 68 24 24 23 69 20 20 23 70 19 19 23 71 24 24 24 72 19 19 24 73 23 23 24 74 25 25 25 75 23 23 25 76 26 26 25 77 25 25 26 78 26 26 26 79 21 21 26 80 27 27 27 81 28 28 27 82 29 29 27 83 27 27 28 84 29 29 28 85 30 30 28 86 34 34 29 87 33 33 29 88 35 35 29 89 32 32 30 90 28 28 30 91 27 27 30 92 32 32 31 93 27 27 31 94 31 31 31 95 34 34 32 96 30 30 32 97 29 29 32 98 34 34 33 99 29 29 33 100 33 33 33 101 35 35 34 102 33 33 34 103 32 32 34 104 35 35 35 105 32 32 35 106 31 31 35 107 6 6 36 108 2 2 36 109 1 1 36 110 6 6 37 111 1 1 37 112 5 5 37 113 4 4 38 114 0 0 38 115 3 3 38 116 4 4 39 117 3 3 39 118 7 7 39 119 9 9 40 120 13 13 40 121 14 14 40 122 9 9 41 123 14 14 41 124 10 10 41 125 13 13 42 126 16 16 42 127 14 14 42 128 12 12 43 129 8 8 43 130 11 11 43 131 12 12 44 132 11 11 44 133 15 15 44 134 23 23 45 135 22 22 45 136 26 26 45 137 23 23 46 138 19 19 46 139 18 18 46 140 23 23 47 141 18 18 47 142 22 22 47 143 21 21 48 144 24 24 48 145 25 25 48 146 21 21 49 147 17 17 49 148 20 20 49 149 21 21 50 150 20 20 50 151 24 24 50 152 33 33 51 153 29 29 51 154 28 28 51 155 33 33 52 156 28 28 52 157 32 32 52 158 31 31 53 159 34 34 53 160 35 35 53 161 31 31 54 162 27 27 54 163 30 30 54 164 31 31 55 165 30 30 55 166 34 34 55 167</p>
                </triangles>
            </mesh>
        </geometry>
    </library_geometries>
    <library_visual_scenes>
        <visual_scene id="VisualSceneNode" name="VisualScene">
            <node id="node" name="node">
                <instance_geometry url="#shape0-lib">
                    <bind_material>
                        <technique_common>
                            <instance_material symbol="material0" target="#material0">
                                <bind_vertex_input semantic="UVSET0" input_semantic="TEXCOORD"/>
                            </instance_material>
                        </technique_common>
                    </bind_material>
                </instance_geometry>
            </node>
        </visual_scene>
    </library_visual_scenes>
    <scene>
        <instance_visual_scene url="#VisualSceneNode"/>
    </scene>
</COLLADA>
