<?xml version="1.0" encoding="UTF-8"?>
<COLLADA xmlns="http://www.collada.org/2005/11/COLLADASchema" version="1.4.1">
    <asset>
        <contributor>
            <author>VCGLab</author>
            <authoring_tool>VCGLib | MeshLab</authoring_tool>
        </contributor>
        <created>Thu Jul 3 01:48:53 2025 GMT</created>
        <modified>Thu Jul 3 01:48:53 2025 GMT</modified>
        <up_axis>Y_UP</up_axis>
    </asset>
    <library_images>
        <image id="texture0" name="texture0">
            <init_from>./image/shelf_books.png</init_from>
        </image>
    </library_images>
    <library_materials>
        <material id="material0" name="material0">
            <instance_effect url="#material0-fx"/>
        </material>
    </library_materials>
    <library_effects>
        <effect id="material0-fx">
            <profile_COMMON>
                <newparam sid="texture0-surface">
                    <surface type="2D">
                        <init_from>texture0</init_from>
                        <format>R8G8B8</format>
                    </surface>
                </newparam>
                <newparam sid="texture0-sampler">
                    <sampler2D>
                        <source>texture0-surface</source>
                        <minfilter>LINEAR</minfilter>
                        <magfilter>LINEAR</magfilter>
                    </sampler2D>
                </newparam>
                <technique sid="common">
                    <blinn>
                        <diffuse>
                            <texture texture="texture0-sampler" texcoord="UVSET0"/>
                        </diffuse>
                    </blinn>
                </technique>
            </profile_COMMON>
        </effect>
    </library_effects>
    <library_geometries>
        <geometry id="shape0-lib" name="shape0">
            <mesh>
                <source id="shape0-lib-positions" name="position">
                    <float_array id="shape0-lib-positions-array" count="108">-0.0830967 0.0968054 -0.0557915 0.0886968 0.0971355 -0.0557915 0.0886243 0.0749161 -0.0557915 -0.0831692 0.0745861 -0.0557915 -0.0830991 0.0960711 0.0639779 0.0886948 0.0965392 0.0639297 0.0886267 0.0756503 0.0639779 -0.0831672 0.0751823 0.0639298 -0.0831773 0.0721173 -0.0557915 0.0886162 0.0724474 -0.0557915 0.0885435 0.0502281 -0.0557915 -0.08325 0.049898 -0.0557915 -0.0831798 0.071383 0.0639779 0.0886162 0.0724474 0.0613915 0.0885461 0.0509623 0.0639779 -0.08325 0.049898 0.0613915 -0.0832455 0.051172 0.0643145 0.0886117 0.0711732 0.0643145 -0.0832581 0.0474293 -0.0557915 0.0885354 0.0477592 -0.0557915 0.0884627 0.0255399 -0.0557915 -0.0833306 0.02521 -0.0557915 -0.0832604 0.046695 0.0639778 0.0885354 0.0477592 0.0613915 0.0884653 0.0262743 0.0639779 -0.0833286 0.0258062 0.0639298 0.0885312 0.0464851 0.0643145 -0.0833387 0.0227411 -0.0557915 0.0884548 0.0230711 -0.0557915 -0.0834114 0.000521832 -0.0557915 -0.0833412 0.0220068 0.0639779 0.0884548 0.0230711 0.0613915 -0.0834118 0.00140908 0.0640694 0.0884503 0.0217971 0.0643145 0.0889859 0.000452273 -0.0557915 0.088497 0.00139736 0.0638327</float_array>
                    <technique_common>
                        <accessor count="36" source="#shape0-lib-positions-array" stride="3">
                            <param name="X" type="float"/>
                            <param name="Y" type="float"/>
                            <param name="Z" type="float"/>
                        </accessor>
                    </technique_common>
                </source>
                <source id="shape0-lib-normals" name="normal">
                    <float_array id="shape0-lib-normals-array" count="168">0 0 -1 0 0 -1 -0.00192145 0.999986 0.00498045 -0.00272285 0.999978 0.00613038 0.00192089 -0.999986 0.00498013 0.00272246 -0.999978 0.00613032 -0.000286316 0.00230577 0.999997 0.000286485 -0.00230364 0.999997 0 0 -1 0 0 -1 -0.000336211 -0.916707 0.399561 0.000336409 0.916694 0.399589 -0.00192148 0.999998 0 -0.00610301 0.999963 0.00613034 0.0019215 -0.999998 0 0.00610275 -0.999963 0.00612993 0.0019388 -0.0166588 0.999859 -0.00193896 0.0166602 0.999859 0 0 -1 0 0 -1 0.000336502 0.916706 0.399562 -0.00192033 0.999998 0 -0.00610221 0.999963 0.00613085 0.0019203 -0.999986 0.00497994 0.00272268 -0.999978 0.00613129 -0.00023445 -0.016654 0.999861 -0.00196281 -0.00229238 0.999995 0.000336113 0.916716 0.399539 -0.0019209 0.999998 0 -0.00610236 0.999963 0.00613023 0.00137527 -0.0236103 0.99972 -0.00195408 0.00445144 0.999988 0.999995 -0.00326297 -8.93246e-08 0.999995 -0.00326179 1.21605e-07 -0.999995 0.00326298 -8.90339e-08 -0.999995 0.00325824 7.6268e-07 0.999995 -0.00326491 0 0.999995 -0.00327204 -1.27861e-06 0.999995 -0.0032511 0.000114736 -0.999995 0.00325374 0.000118804 -0.999995 0.00327204 -7.17404e-07 -0.999995 0.00326804 0 0.999995 -0.00326126 1.61093e-05 0.999995 -0.0032717 -1.52556e-06 0.999995 -0.0032632 0 -0.999995 0.00326298 4.10655e-07 -0.999995 0.00326145 6.85036e-07 -0.999995 0.00327204 -8.42147e-07 -0.999994 0.0034293 -2.90521e-05 0 0 -1 0 0 -1 -0.00040347 -0.999973 0.00740207 -5.72735e-05 -0.999969 0.00789998 0.999994 0.00222955 0.00249597 0.999717 0.0234738 0.0039001 0.999998 0.00194843 0</float_array>
                    <technique_common>
                        <accessor count="56" source="#shape0-lib-normals-array" stride="3">
                            <param name="X" type="float"/>
                            <param name="Y" type="float"/>
                            <param name="Z" type="float"/>
                        </accessor>
                    </technique_common>
                </source>
                <source id="shape0-lib-vcolor" name="vcolor">
                    <float_array id="shape0-lib-vcolor-array" count="144">1 1 1 1 1 1 1 1 1 1 1 1 1 1 1 1 1 1 1 1 1 1 1 1 1 1 1 1 1 1 1 1 1 1 1 1 1 1 1 1 1 1 1 1 1 1 1 1 1 1 1 1 1 1 1 1 1 1 1 1 1 1 1 1 1 1 1 1 1 1 1 1 1 1 1 1 1 1 1 1 1 1 1 1 1 1 1 1 1 1 1 1 1 1 1 1 1 1 1 1 1 1 1 1 1 1 1 1 1 1 1 1 1 1 1 1 1 1 1 1 1 1 1 1 1 1 1 1 1 1 1 1 1 1 1 1 1 1 1 1 1 1 1 1</float_array>
                    <technique_common>
                        <accessor count="36" source="#shape0-lib-vcolor-array" stride="4">
                            <param name="R" type="float"/>
                            <param name="G" type="float"/>
                            <param name="B" type="float"/>
                            <param name="A" type="float"/>
                        </accessor>
                    </technique_common>
                </source>
                <source id="shape0-lib-map" name="map">
                    <float_array id="shape0-lib-map-array" count="336">0.461364 0.325238 0.486217 0.325286 0.486207 0.322039 0.461364 0.325238 0.486207 0.322039 0.461353 0.32199 0.512205 0.533632 0.512205 0.52832 0.523795 0.52832 0.512205 0.533632 0.523795 0.52832 0.523795 0.533632 0.48033 0.533632 0.48033 0.52832 0.49192 0.52832 0.48033 0.533632 0.49192 0.52832 0.49192 0.533632 0.503215 0.756578 0.575477 0.756795 0.575505 0.765428 0.503215 0.756578 0.575505 0.765428 0.503243 0.765211 0.461352 0.32163 0.486205 0.321678 0.486195 0.31843 0.461352 0.32163 0.486195 0.31843 0.461341 0.318382 0.50318 0.745905 0.575443 0.746431 0.503182 0.746487 0.575472 0.755372 0.503209 0.754846 0.57547 0.75479 0.371955 0.546382 0.371955 0.54107 0.383545 0.54107 0.371955 0.546382 0.383545 0.54107 0.383545 0.546382 0.512205 0.540007 0.512205 0.534695 0.523795 0.534695 0.512205 0.540007 0.523795 0.534695 0.523795 0.540007 0.503182 0.746487 0.575443 0.746431 0.57547 0.75479 0.503182 0.746487 0.57547 0.75479 0.503209 0.754846 0.46134 0.318021 0.486194 0.318069 0.486183 0.314821 0.46134 0.318021 0.486183 0.314821 0.46133 0.314773 0.575438 0.745007 0.503175 0.744481 0.575436 0.744425 0.49308 0.533632 0.49308 0.52832 0.50467 0.52832 0.49308 0.533632 0.50467 0.52832 0.50467 0.533632 0.537705 0.565507 0.537705 0.560195 0.549295 0.560195 0.537705 0.565507 0.549295 0.560195 0.549295 0.565507 0.503147 0.735848 0.575409 0.736066 0.575436 0.744425 0.503147 0.735848 0.575436 0.744425 0.503175 0.744481 0.575404 0.734642 0.503141 0.734117 0.575402 0.73406 0.524955 0.533632 0.524955 0.52832 0.536545 0.52832 0.524955 0.533632 0.536545 0.52832 0.536545 0.533632 0.503127 0.725577 0.57539 0.72568 0.575402 0.73406 0.503127 0.725577 0.575402 0.73406 0.503141 0.734117 0.684571 0.650618 0.643484 0.650378 0.643484 0.656506 0.684571 0.650618 0.643484 0.656506 0.684554 0.656289 0.681384 0.831912 0.640297 0.832152 0.640297 0.826023 0.681384 0.831912 0.640297 0.826023 0.681367 0.826241 0.643484 0.649697 0.683748 0.649697 0.684571 0.643809 0.643484 0.649697 0.684571 0.643809 0.643484 0.643569 0.683748 0.649697 0.684751 0.649294 0.684571 0.643809 0.681384 0.825103 0.68056 0.819215 0.681564 0.819617 0.681384 0.825103 0.640297 0.825343 0.640297 0.819215 0.681384 0.825103 0.640297 0.819215 0.68056 0.819215 0.684571 0.637 0.683748 0.642888 0.684751 0.642485 0.684571 0.637 0.643484 0.63676 0.643484 0.642888 0.684571 0.637 0.643484 0.642888 0.683748 0.642888 0.681384 0.818294 0.640297 0.818534 0.640297 0.812406 0.681384 0.818294 0.640297 0.812406 0.681367 0.812623 0.681384 0.811485 0.640297 0.811725 0.640297 0.805597 0.681384 0.811485 0.640297 0.805597 0.681163 0.805791 0.461329 0.314412 0.486182 0.314461 0.486172 0.311213 0.461329 0.314412 0.486172 0.311213 0.461318 0.311165 0.486705 0.540007 0.486705 0.534695 0.498295 0.534695 0.486705 0.540007 0.498295 0.534695 0.498295 0.540007 0.684542 0.630174 0.683748 0.636079 0.684751 0.635676 0.684542 0.630174 0.643484 0.629951 0.643484 0.636079 0.684542 0.630174 0.643484 0.636079 0.683748 0.636079</float_array>
                    <technique_common>
                        <accessor count="168" source="#shape0-lib-map-array" stride="2">
                            <param name="U" type="float"/>
                            <param name="V" type="float"/>
                        </accessor>
                    </technique_common>
                </source>
                <vertices id="shape0-lib-vertices">
                    <input semantic="POSITION" source="#shape0-lib-positions"/>
                </vertices>
                <triangles count="56" material="material0">
                    <input offset="0" semantic="VERTEX" source="#shape0-lib-vertices"/>
                    <input offset="1" semantic="COLOR" source="#shape0-lib-vcolor"/>
                    <input offset="2" semantic="NORMAL" source="#shape0-lib-normals"/>
                    <input offset="3" semantic="TEXCOORD" source="#shape0-lib-map"/>
                    <p>0 0 0 0 1 1 0 1 2 2 0 2 0 0 1 3 2 2 1 4 3 3 1 5 5 5 2 6 1 1 2 7 0 0 2 8 5 5 3 9 0 0 3 10 4 4 3 11 7 7 4 12 3 3 4 13 2 2 4 14 7 7 5 15 2 2 5 16 6 6 5 17 7 7 6 18 6 6 6 19 5 5 6 20 7 7 7 21 5 5 7 22 4 4 7 23 8 8 8 24 9 9 8 25 10 10 8 26 8 8 9 27 10 10 9 28 11 11 9 29 15 15 10 30 14 14 10 31 16 16 10 32 13 13 11 33 12 12 11 34 17 17 11 35 13 13 12 36 9 9 12 37 8 8 12 38 13 13 13 39 8 8 13 40 12 12 13 41 15 15 14 42 11 11 14 43 10 10 14 44 15 15 15 45 10 10 15 46 14 14 15 47 16 16 16 48 14 14 16 49 17 17 16 50 16 16 17 51 17 17 17 52 12 12 17 53 18 18 18 54 19 19 18 55 20 20 18 56 18 18 19 57 20 20 19 58 21 21 19 59 23 23 20 60 22 22 20 61 26 26 20 62 23 23 21 63 19 19 21 64 18 18 21 65 23 23 22 66 18 18 22 67 22 22 22 68 25 25 23 69 21 21 23 70 20 20 23 71 25 25 24 72 20 20 24 73 24 24 24 74 25 25 25 75 24 24 25 76 26 26 25 77 25 25 26 78 26 26 26 79 22 22 26 80 31 31 27 81 30 30 27 82 33 33 27 83 31 31 28 84 28 28 28 85 27 27 28 86 31 31 29 87 27 27 29 88 30 30 29 89 32 32 30 90 35 35 30 91 33 33 30 92 32 32 31 93 33 33 31 94 30 30 31 95 6 6 32 96 2 2 32 97 1 1 32 98 6 6 33 99 1 1 33 100 5 5 33 101 4 4 34 102 0 0 34 103 3 3 34 104 4 4 35 105 3 3 35 106 7 7 35 107 9 9 36 108 13 13 36 109 14 14 36 110 9 9 37 111 14 14 37 112 10 10 37 113 13 13 38 114 17 17 38 115 14 14 38 116 12 12 39 117 15 15 39 118 16 16 39 119 12 12 40 120 8 8 40 121 11 11 40 122 12 12 41 123 11 11 41 124 15 15 41 125 24 24 42 126 23 23 42 127 26 26 42 128 24 24 43 129 20 20 43 130 19 19 43 131 24 24 44 132 19 19 44 133 23 23 44 134 22 22 45 135 18 18 45 136 21 21 45 137 22 22 46 138 21 21 46 139 25 25 46 140 30 30 47 141 27 27 47 142 29 29 47 143 30 30 48 144 29 29 48 145 32 32 48 146 27 27 49 147 28 28 49 148 34 34 49 149 27 27 50 150 34 34 50 151 29 29 50 152 32 32 51 153 29 29 51 154 34 34 51 155 32 32 52 156 34 34 52 157 35 35 52 158 35 35 53 159 31 31 53 160 33 33 53 161 35 35 54 162 34 34 54 163 28 28 54 164 35 35 55 165 28 28 55 166 31 31 55 167</p>
                </triangles>
            </mesh>
        </geometry>
    </library_geometries>
    <library_visual_scenes>
        <visual_scene id="VisualSceneNode" name="VisualScene">
            <node id="node" name="node">
                <instance_geometry url="#shape0-lib">
                    <bind_material>
                        <technique_common>
                            <instance_material symbol="material0" target="#material0">
                                <bind_vertex_input semantic="UVSET0" input_semantic="TEXCOORD"/>
                            </instance_material>
                        </technique_common>
                    </bind_material>
                </instance_geometry>
            </node>
        </visual_scene>
    </library_visual_scenes>
    <scene>
        <instance_visual_scene url="#VisualSceneNode"/>
    </scene>
</COLLADA>
