<?xml version="1.0" encoding="UTF-8"?>
<COLLADA xmlns="http://www.collada.org/2005/11/COLLADASchema" version="1.4.1">
    <asset>
        <contributor>
            <author>VCGLab</author>
            <authoring_tool>VCGLib | MeshLab</authoring_tool>
        </contributor>
        <created>Thu Jul 3 01:41:42 2025 GMT</created>
        <modified>Thu Jul 3 01:41:42 2025 GMT</modified>
        <up_axis>Y_UP</up_axis>
    </asset>
    <library_images>
        <image id="texture0" name="texture0">
            <init_from>./image/shelf_items.png</init_from>
        </image>
    </library_images>
    <library_materials>
        <material id="material0" name="material0">
            <instance_effect url="#material0-fx"/>
        </material>
    </library_materials>
    <library_effects>
        <effect id="material0-fx">
            <profile_COMMON>
                <newparam sid="texture0-surface">
                    <surface type="2D">
                        <init_from>texture0</init_from>
                        <format>R8G8B8</format>
                    </surface>
                </newparam>
                <newparam sid="texture0-sampler">
                    <sampler2D>
                        <source>texture0-surface</source>
                        <minfilter>LINEAR</minfilter>
                        <magfilter>LINEAR</magfilter>
                    </sampler2D>
                </newparam>
                <technique sid="common">
                    <blinn>
                        <diffuse>
                            <texture texture="texture0-sampler" texcoord="UVSET0"/>
                        </diffuse>
                    </blinn>
                </technique>
            </profile_COMMON>
        </effect>
    </library_effects>
    <library_geometries>
        <geometry id="shape0-lib" name="shape0">
            <mesh>
                <source id="shape0-lib-positions" name="position">
                    <float_array id="shape0-lib-positions-array" count="39">-0.1085 -0.002 -0.105 0.0985 -0.002 -0.105 -0.1085 -0.002 0.093 0.0985 -0.002 0.093 -0.108488 0.0410132 -0.104972 0.0984703 0.0414669 -0.104975 -0.108482 0.0413787 0.0929712 0.0984804 0.0410398 0.0929638 -0.106497 0.0367439 -0.102452 0.0960885 0.0367453 -0.102883 -0.106515 0.0366963 0.0920179 0.0985 0.0365001 0.093 0.0955293 0.0372804 0.0900657</float_array>
                    <technique_common>
                        <accessor count="13" source="#shape0-lib-positions-array" stride="3">
                            <param name="X" type="float"/>
                            <param name="Y" type="float"/>
                            <param name="Z" type="float"/>
                        </accessor>
                    </technique_common>
                </source>
                <source id="shape0-lib-normals" name="normal">
                    <float_array id="shape0-lib-normals-array" count="66">0.00163734 0.999996 0.0021575 -0.00219197 0.999996 -0.00184603 0 -1 0 0 -1 0 -0.00212487 0.0657441 -0.997834 0 0.054561 -0.99851 -0.998687 0.0512265 -7.84461e-05 -0.998667 0.0516212 0 0.997953 0.0627799 -0.0122072 1 0 0 -0.00479035 0 0.999989 0 0.0253717 0.999678 0.000874732 -0.40552 -0.914086 -0.00182922 -0.509021 -0.860752 0.787104 -0.616818 -0.00137102 0.893505 -0.449036 0.00383477 -0.000291499 -0.199628 0.979872 0.00939568 -0.615122 0.788376 -0.906498 -0.42221 0.000807117 -0.921969 -0.387264 -0.000178806 -0.000307696 0.966334 0.257292 0.255849 0.966715 -0.00193986</float_array>
                    <technique_common>
                        <accessor count="22" source="#shape0-lib-normals-array" stride="3">
                            <param name="X" type="float"/>
                            <param name="Y" type="float"/>
                            <param name="Z" type="float"/>
                        </accessor>
                    </technique_common>
                </source>
                <source id="shape0-lib-vcolor" name="vcolor">
                    <float_array id="shape0-lib-vcolor-array" count="52">1 1 1 1 1 1 1 1 1 1 1 1 1 1 1 1 1 1 1 1 1 1 1 1 1 1 1 1 1 1 1 1 1 1 1 1 1 1 1 1 1 1 1 1 1 1 1 1 1 1 1 1</float_array>
                    <technique_common>
                        <accessor count="13" source="#shape0-lib-vcolor-array" stride="4">
                            <param name="R" type="float"/>
                            <param name="G" type="float"/>
                            <param name="B" type="float"/>
                            <param name="A" type="float"/>
                        </accessor>
                    </technique_common>
                </source>
                <source id="shape0-lib-map" name="map">
                    <float_array id="shape0-lib-map-array" count="132">0.650385 0.915607 0.63436 0.915607 0.63436 0.899582 0.650385 0.915607 0.63436 0.899582 0.650385 0.899582 0.521798 0.887546 0.513702 0.887546 0.513702 0.879451 0.521798 0.887546 0.513702 0.879451 0.521798 0.879451 0.535455 0.933464 0.535455 0.936536 0.521411 0.936536 0.535455 0.933464 0.521411 0.936536 0.521411 0.933464 0.668013 0.925957 0.668013 0.933301 0.651987 0.933301 0.668013 0.925957 0.651987 0.933301 0.651987 0.925957 0.623943 0.925957 0.623943 0.933301 0.607918 0.933301 0.623943 0.925957 0.607918 0.933301 0.607918 0.925957 0.954048 0.840871 0.954048 0.849204 0.915952 0.849204 0.954048 0.840871 0.915952 0.849204 0.915952 0.840871 0.477171 0.93715 0.491215 0.93715 0.491012 0.940223 0.477171 0.93715 0.491012 0.940223 0.477375 0.940223 0.650452 0.926023 0.650452 0.942049 0.643107 0.941806 0.650452 0.926023 0.643107 0.941806 0.643107 0.926266 0.954048 0.879204 0.915952 0.879204 0.916505 0.870871 0.954048 0.879204 0.916505 0.870871 0.953496 0.870871 0.731246 0.933235 0.731246 0.91721 0.73859 0.917452 0.731246 0.933235 0.73859 0.917452 0.73859 0.932992 0.953619 0.85249 0.915952 0.859204 0.916505 0.850871 0.581409 0.933235 0.587514 0.917401 0.588754 0.932992</float_array>
                    <technique_common>
                        <accessor count="66" source="#shape0-lib-map-array" stride="2">
                            <param name="U" type="float"/>
                            <param name="V" type="float"/>
                        </accessor>
                    </technique_common>
                </source>
                <vertices id="shape0-lib-vertices">
                    <input semantic="POSITION" source="#shape0-lib-positions"/>
                </vertices>
                <triangles count="22" material="material0">
                    <input offset="0" semantic="VERTEX" source="#shape0-lib-vertices"/>
                    <input offset="1" semantic="COLOR" source="#shape0-lib-vcolor"/>
                    <input offset="2" semantic="NORMAL" source="#shape0-lib-normals"/>
                    <input offset="3" semantic="TEXCOORD" source="#shape0-lib-map"/>
                    <p>6 6 0 0 7 7 0 1 5 5 0 2 6 6 1 3 5 5 1 4 4 4 1 5 3 3 2 6 2 2 2 7 0 0 2 8 3 3 3 9 0 0 3 10 1 1 3 11 0 0 4 12 8 8 4 13 9 9 4 14 0 0 5 15 9 9 5 16 1 1 5 17 2 2 6 18 10 10 6 19 8 8 6 20 2 2 7 21 8 8 7 22 0 0 7 23 1 1 8 24 9 9 8 25 11 11 8 26 1 1 9 27 11 11 9 28 3 3 9 29 3 3 10 30 11 11 10 31 10 10 10 32 3 3 11 33 10 10 11 34 2 2 11 35 4 4 12 36 5 5 12 37 9 9 12 38 4 4 13 39 9 9 13 40 8 8 13 41 5 5 14 42 7 7 14 43 12 12 14 44 5 5 15 45 12 12 15 46 9 9 15 47 7 7 16 48 6 6 16 49 10 10 16 50 7 7 17 51 10 10 17 52 12 12 17 53 6 6 18 54 4 4 18 55 8 8 18 56 6 6 19 57 8 8 19 58 10 10 19 59 10 10 20 60 11 11 20 61 12 12 20 62 11 11 21 63 9 9 21 64 12 12 21 65</p>
                </triangles>
            </mesh>
        </geometry>
    </library_geometries>
    <library_visual_scenes>
        <visual_scene id="VisualSceneNode" name="VisualScene">
            <node id="node" name="node">
                <instance_geometry url="#shape0-lib">
                    <bind_material>
                        <technique_common>
                            <instance_material symbol="material0" target="#material0">
                                <bind_vertex_input semantic="UVSET0" input_semantic="TEXCOORD"/>
                            </instance_material>
                        </technique_common>
                    </bind_material>
                </instance_geometry>
            </node>
        </visual_scene>
    </library_visual_scenes>
    <scene>
        <instance_visual_scene url="#VisualSceneNode"/>
    </scene>
</COLLADA>
