<?xml version="1.0" encoding="UTF-8"?>
<COLLADA xmlns="http://www.collada.org/2005/11/COLLADASchema" version="1.4.1">
    <asset>
        <contributor>
            <author>VCGLab</author>
            <authoring_tool>VCGLib | MeshLab</authoring_tool>
        </contributor>
        <created>Thu Jul 3 01:42:43 2025 GMT</created>
        <modified>Thu Jul 3 01:42:43 2025 GMT</modified>
        <up_axis>Y_UP</up_axis>
    </asset>
    <library_images>
        <image id="texture0" name="texture0">
            <init_from>./image/shelf_items.png</init_from>
        </image>
    </library_images>
    <library_materials>
        <material id="material0" name="material0">
            <instance_effect url="#material0-fx"/>
        </material>
    </library_materials>
    <library_effects>
        <effect id="material0-fx">
            <profile_COMMON>
                <newparam sid="texture0-surface">
                    <surface type="2D">
                        <init_from>texture0</init_from>
                        <format>R8G8B8</format>
                    </surface>
                </newparam>
                <newparam sid="texture0-sampler">
                    <sampler2D>
                        <source>texture0-surface</source>
                        <minfilter>LINEAR</minfilter>
                        <magfilter>LINEAR</magfilter>
                    </sampler2D>
                </newparam>
                <technique sid="common">
                    <blinn>
                        <diffuse>
                            <texture texture="texture0-sampler" texcoord="UVSET0"/>
                        </diffuse>
                    </blinn>
                </technique>
            </profile_COMMON>
        </effect>
    </library_effects>
    <library_geometries>
        <geometry id="shape0-lib" name="shape0">
            <mesh>
                <source id="shape0-lib-positions" name="position">
                    <float_array id="shape0-lib-positions-array" count="150">0.00199986 0.00799988 -0.00500001 0.00354742 0.18 -0.0107755 0.064 0.00799988 -0.00500001 0.0644935 0.0119998 -0.00500001 0.00816775 0.18 -0.00415145 0.00767031 0.162079 -0.00756616 0.0615688 0.00843553 -0.0243384 0.056121 0.0119998 -0.0362468 0.00679338 0.18 -0.00867806 0.0461895 0.0119998 -0.0491897 0.0458406 0.00799988 -0.0488407 0.0332468 0.0119998 -0.0591211 0.00213488 0.162176 -0.0113651 0.0181744 0.0119998 -0.0653643 0.0285449 0.00799797 -0.061392 0.00199986 0.0119998 -0.0674937 0.00199986 0.00799988 -0.0670002 -0.0173389 0.00843554 -0.0645687 -0.000312304 0.18 -0.010582 -0.0292469 0.0119998 -0.0591211 -0.0032766 0.162108 -0.00805211 -0.0421898 0.0119998 -0.0491897 -0.0418409 0.00799988 -0.0488407 -0.0521213 0.0119998 -0.0362469 -0.0583645 0.0119998 -0.0211746 -0.0543926 0.00799798 -0.0315442 -0.00373302 0.18 -0.00737469 -0.00394149 0.162052 -0.00351494 -0.0604938 0.0119998 -0.00500002 -0.0600003 0.00799988 -0.00500002 -0.0575691 0.00843552 0.0143383 -0.00247082 0.18 -0.000529448 -0.0521213 0.0119998 0.0262468 -0.00105222 0.162108 0.00027645 -0.0421898 0.0119998 0.0391897 -0.0418409 0.00799988 0.0388407 -0.029247 0.0119998 0.0491211 -0.0141747 0.0119998 0.0553642 -0.0245448 0.00799797 0.0513923 0.00348477 0.162052 0.00094136 0.00199986 0.0119998 0.0574937 0.00199986 0.00799988 0.0570001 0.00437443 0.18 0.00073286 0.0213382 0.00843549 0.0545688 0.0332466 0.0119998 0.0491211 0.00727628 0.162108 -0.00194786 0.0461895 0.0119998 0.0391897 0.0458406 0.00799988 0.0388407 0.0578487 0.00844077 0.0233473 0.0623642 0.0119998 0.0111746</float_array>
                    <technique_common>
                        <accessor count="50" source="#shape0-lib-positions-array" stride="3">
                            <param name="X" type="float"/>
                            <param name="Y" type="float"/>
                            <param name="Z" type="float"/>
                        </accessor>
                    </technique_common>
                </source>
                <source id="shape0-lib-normals" name="normal">
                    <float_array id="shape0-lib-normals-array" count="288">0.917061 0.343763 -0.202056 0 -0.999746 -0.0225219 0.984501 -0.121464 -0.126509 0.956471 0.0287861 -0.290404 0 1 0 0.888374 0.344743 -0.303222 0.743458 0.349033 -0.570479 0.0108275 -0.999883 0.0108275 0.787482 -0.121412 -0.60426 0.758711 -0.441305 -0.479174 0.542671 -0.015228 -0.839807 0.56542 -0.0234864 -0.824469 0.533276 0.354698 -0.767988 0.569766 0.352169 -0.742525 6.38729e-05 -1 6.3873e-05 0.588444 -0.256222 -0.766866 0.583029 -0.120954 -0.803398 0.358545 0.34954 -0.865602 0.381623 0.074428 -0.921317 0.122397 0.347368 -0.929707 -7.18183e-05 -1 0 0.129559 -0.121416 -0.98411 0.189482 -0.399354 -0.897002 -0.0500367 0.0369796 -0.998063 -0.201975 0.343041 -0.917349 -0.0225223 -0.999746 0 -0.12652 -0.121464 -0.9845 -0.302823 0.345706 -0.888136 -0.683955 0.0101705 -0.729454 -0.521519 -0.0341476 -0.852556 0 1 0 -0.492979 0.346509 -0.798063 -0.569154 0.354806 -0.741739 0.010828 -0.999883 -0.010828 -0.604256 -0.121417 -0.787485 -0.479178 -0.441293 -0.758716 -0.743446 0.349067 -0.570474 6.37768e-05 -1 -6.37769e-05 -0.766858 -0.256259 -0.588439 -0.803402 -0.120948 -0.583024 -0.865762 0.349075 -0.358613 -0.921315 0.0744413 -0.381624 -0.989205 -0.019737 -0.145203 -0.927181 0.350741 -0.131593 -0.928241 0.351336 -0.122198 -1.13112e-11 -1 7.17153e-05 -0.984111 -0.121417 -0.129553 -0.89701 -0.39934 -0.189474 -0.982174 0.0503562 0.181105 0 1 0 -0.917109 0.343643 0.202041 -3.55219e-09 -0.999746 0.0225216 -0.984501 -0.121465 0.126509 -0.888237 0.345297 0.302992 -0.794614 -0.0357033 0.606065 -0.747214 0.351061 0.564294 -0.742721 0.351515 0.569914 -0.0108273 -0.999883 -0.0108274 -0.787482 -0.121412 0.60426 -0.758711 -0.441307 0.479173 -0.570471 0.349067 0.743448 -6.38715e-05 -1 -6.38715e-05 -0.588443 -0.256209 0.766871 -0.583028 -0.120953 0.803398 -0.358608 0.349074 0.865764 -0.381618 0.0744674 0.921315 -0.181311 0.0204098 0.983214 -0.144529 0.033085 0.988947 0 1 0 -0.1316 0.350741 0.92718 -0.12221 0.351336 0.928239 7.18193e-05 -1 0 -0.129565 -0.121441 0.984106 -0.189476 -0.399322 0.897018 0.202049 0.343643 0.917107 0.0225202 -0.999746 0 0.126512 -0.12149 0.984497 0.30299 0.345296 0.888238 0.606163 -0.020811 0.795068 0.564275 0.35106 0.747229 0.56991 0.351515 0.742724 -0.0108267 -0.999883 0.0108267 0.604256 -0.121417 0.787485 0.479173 -0.441302 0.758713 0.789273 0.0361691 0.612976 0 1 0 0.791537 0.34368 0.505325 0.0160275 -0.999743 -0.0160275 0.786216 -0.121445 0.6059 0.842483 0.345329 0.413485 0.996695 -0.0410251 0.0701081 0.932955 0.354324 0.0636422 0.928241 0.351336 0.122198 0 -0.999879 0.0155514 0.984111 -0.121416 0.129553 0.876896 -0.438412 0.197102</float_array>
                    <technique_common>
                        <accessor count="96" source="#shape0-lib-normals-array" stride="3">
                            <param name="X" type="float"/>
                            <param name="Y" type="float"/>
                            <param name="Z" type="float"/>
                        </accessor>
                    </technique_common>
                </source>
                <source id="shape0-lib-vcolor" name="vcolor">
                    <float_array id="shape0-lib-vcolor-array" count="200">1 1 1 1 1 1 1 1 1 1 1 1 1 1 1 1 1 1 1 1 1 1 1 1 1 1 1 1 1 1 1 1 1 1 1 1 1 1 1 1 1 1 1 1 1 1 1 1 1 1 1 1 1 1 1 1 1 1 1 1 1 1 1 1 1 1 1 1 1 1 1 1 1 1 1 1 1 1 1 1 1 1 1 1 1 1 1 1 1 1 1 1 1 1 1 1 1 1 1 1 1 1 1 1 1 1 1 1 1 1 1 1 1 1 1 1 1 1 1 1 1 1 1 1 1 1 1 1 1 1 1 1 1 1 1 1 1 1 1 1 1 1 1 1 1 1 1 1 1 1 1 1 1 1 1 1 1 1 1 1 1 1 1 1 1 1 1 1 1 1 1 1 1 1 1 1 1 1 1 1 1 1 1 1 1 1 1 1 1 1 1 1 1 1 1 1 1 1 1 1</float_array>
                    <technique_common>
                        <accessor count="50" source="#shape0-lib-vcolor-array" stride="4">
                            <param name="R" type="float"/>
                            <param name="G" type="float"/>
                            <param name="B" type="float"/>
                            <param name="A" type="float"/>
                        </accessor>
                    </technique_common>
                </source>
                <source id="shape0-lib-map" name="map">
                    <float_array id="shape0-lib-map-array" count="576">0.489086 0.463662 0.485185 0.490787 0.484595 0.464255 0.452154 0.678807 0.461255 0.675202 0.461985 0.678807 0.489086 0.463662 0.484595 0.464255 0.484595 0.463548 0.485185 0.490787 0.485426 0.493961 0.48442 0.493961 0.475627 0.562532 0.478073 0.561101 0.474812 0.565886 0.491546 0.464255 0.485185 0.490787 0.489086 0.463662 0.494426 0.464255 0.485185 0.490787 0.491546 0.464255 0.452154 0.678807 0.459105 0.671856 0.461255 0.675202 0.494348 0.463548 0.494426 0.464255 0.491546 0.464255 0.494348 0.463548 0.491546 0.464255 0.489086 0.463662 0.430504 0.663824 0.430183 0.666979 0.429583 0.666979 0.430504 0.663824 0.429583 0.666979 0.429583 0.663797 0.423576 0.637273 0.430504 0.663824 0.429583 0.663797 0.423576 0.637273 0.429583 0.663797 0.420696 0.637273 0.452154 0.678807 0.456041 0.669823 0.459105 0.671856 0.424896 0.636564 0.423576 0.637273 0.420696 0.637273 0.424896 0.636564 0.420696 0.637273 0.420774 0.636566 0.426929 0.637273 0.430504 0.663824 0.423576 0.637273 0.424896 0.636564 0.426929 0.637273 0.423576 0.637273 0.430527 0.637273 0.430504 0.663824 0.426929 0.637273 0.452154 0.678807 0.452154 0.668976 0.456041 0.669823 0.430527 0.636566 0.430527 0.637273 0.426929 0.637273 0.430527 0.636566 0.426929 0.637273 0.424896 0.636564 0.430504 0.663824 0.431038 0.666979 0.430183 0.666979 0.435018 0.63668 0.430504 0.663824 0.430527 0.637273 0.452154 0.678807 0.44855 0.669706 0.452154 0.668976 0.435018 0.63668 0.430527 0.637273 0.430527 0.636566 0.437478 0.637273 0.430504 0.663824 0.435018 0.63668 0.431471 0.663797 0.431471 0.666979 0.431038 0.666979 0.431471 0.663797 0.431038 0.666979 0.430504 0.663824 0.48327 0.563573 0.478073 0.561101 0.480906 0.561117 0.440358 0.637273 0.431471 0.663797 0.430504 0.663824 0.440358 0.637273 0.430504 0.663824 0.437478 0.637273 0.452154 0.678807 0.445203 0.671856 0.44855 0.669706 0.44028 0.636566 0.440358 0.637273 0.437478 0.637273 0.44028 0.636566 0.437478 0.637273 0.435018 0.63668 0.477644 0.529137 0.483928 0.555675 0.474764 0.529137 0.452154 0.678807 0.443171 0.674919 0.445203 0.671856 0.478964 0.528428 0.477644 0.529137 0.474764 0.529137 0.478964 0.528428 0.474764 0.529137 0.474842 0.52843 0.480997 0.529137 0.483928 0.555675 0.477644 0.529137 0.478964 0.528428 0.480997 0.529137 0.477644 0.529137 0.484928 0.555668 0.484113 0.558843 0.483928 0.555675 0.484595 0.529137 0.484928 0.555668 0.483928 0.555675 0.484595 0.529137 0.483928 0.555675 0.480997 0.529137 0.452154 0.678807 0.442324 0.678807 0.443171 0.674919 0.484595 0.52843 0.484595 0.529137 0.480997 0.529137 0.484595 0.52843 0.480997 0.529137 0.478964 0.528428 0.484928 0.555668 0.485413 0.558843 0.484113 0.558843 0.482275 0.568351 0.478073 0.561101 0.48327 0.563573 0.489086 0.528544 0.484928 0.555668 0.484595 0.529137 0.452154 0.678807 0.443054 0.682411 0.442324 0.678807 0.489086 0.528544 0.484595 0.529137 0.484595 0.52843 0.491546 0.529137 0.484928 0.555668 0.489086 0.528544 0.485539 0.55566 0.485413 0.558843 0.484928 0.555668 0.494426 0.529137 0.485539 0.55566 0.484928 0.555668 0.494426 0.529137 0.484928 0.555668 0.491546 0.529137 0.452154 0.678807 0.445203 0.685758 0.443054 0.682411 0.494348 0.52843 0.494426 0.529137 0.491546 0.529137 0.494348 0.52843 0.491546 0.529137 0.489086 0.528544 0.477644 0.496696 0.483928 0.523234 0.474764 0.496696 0.452154 0.678807 0.448267 0.68779 0.445203 0.685758 0.478964 0.495987 0.477644 0.496696 0.474764 0.496696 0.478964 0.495987 0.474764 0.496696 0.474842 0.495989 0.480997 0.496696 0.483928 0.523234 0.477644 0.496696 0.478964 0.495987 0.480997 0.496696 0.477644 0.496696 0.484927 0.523227 0.485134 0.526402 0.483952 0.526402 0.484927 0.523227 0.483952 0.526402 0.483928 0.523234 0.477497 0.569345 0.478073 0.561101 0.482275 0.568351 0.484595 0.496696 0.484927 0.523227 0.483928 0.523234 0.484595 0.496696 0.483928 0.523234 0.480997 0.496696 0.452154 0.678807 0.452154 0.688637 0.448267 0.68779 0.484595 0.495989 0.484595 0.496696 0.480997 0.496696 0.484595 0.495989 0.480997 0.496696 0.478964 0.495987 0.489086 0.496103 0.484927 0.523227 0.484595 0.496696 0.452154 0.678807 0.455758 0.687907 0.452154 0.688637 0.489086 0.496103 0.484595 0.496696 0.484595 0.495989 0.491546 0.496696 0.484927 0.523227 0.489086 0.496103 0.485539 0.523219 0.485134 0.526402 0.484927 0.523227 0.494426 0.496696 0.485539 0.523219 0.484927 0.523227 0.494426 0.496696 0.484927 0.523227 0.491546 0.496696 0.452154 0.678807 0.459105 0.685758 0.455758 0.687907 0.494348 0.495989 0.494426 0.496696 0.491546 0.496696 0.494348 0.495989 0.491546 0.496696 0.489086 0.496103 0.483928 0.490793 0.48442 0.493961 0.483651 0.493961 0.474812 0.565886 0.478073 0.561101 0.477497 0.569345 0.478501 0.463663 0.483928 0.490793 0.474764 0.464255 0.452154 0.678807 0.461138 0.682694 0.459105 0.685758 0.478501 0.463663 0.474764 0.464255 0.474842 0.463548 0.480997 0.464255 0.483928 0.490793 0.478501 0.463663 0.485185 0.490787 0.48442 0.493961 0.483928 0.490793 0.484595 0.464255 0.485185 0.490787 0.483928 0.490793 0.484595 0.464255 0.483928 0.490793 0.480997 0.464255 0.452154 0.678807 0.461985 0.678807 0.461138 0.682694 0.484595 0.463548 0.484595 0.464255 0.480997 0.464255 0.484595 0.463548 0.480997 0.464255 0.478501 0.463663</float_array>
                    <technique_common>
                        <accessor count="288" source="#shape0-lib-map-array" stride="2">
                            <param name="U" type="float"/>
                            <param name="V" type="float"/>
                        </accessor>
                    </technique_common>
                </source>
                <vertices id="shape0-lib-vertices">
                    <input semantic="POSITION" source="#shape0-lib-positions"/>
                </vertices>
                <triangles count="96" material="material0">
                    <input offset="0" semantic="VERTEX" source="#shape0-lib-vertices"/>
                    <input offset="1" semantic="COLOR" source="#shape0-lib-vcolor"/>
                    <input offset="2" semantic="NORMAL" source="#shape0-lib-normals"/>
                    <input offset="3" semantic="TEXCOORD" source="#shape0-lib-map"/>
                    <p>6 6 0 0 5 5 0 1 3 3 0 2 0 0 1 3 6 6 1 4 2 2 1 5 6 6 2 6 3 3 2 7 2 2 2 8 5 5 3 9 8 8 3 10 4 4 3 11 8 8 4 12 1 1 4 13 4 4 4 14 7 7 5 15 5 5 5 16 6 6 5 17 9 9 6 18 5 5 6 19 7 7 6 20 0 0 7 21 10 10 7 22 6 6 7 23 10 10 8 24 9 9 8 25 7 7 8 26 10 10 9 27 7 7 9 28 6 6 9 29 12 12 10 30 1 1 10 31 8 8 10 32 12 12 11 33 8 8 11 34 5 5 11 35 11 11 12 36 12 12 12 37 5 5 12 38 11 11 13 39 5 5 13 40 9 9 13 41 0 0 14 42 14 14 14 43 10 10 14 44 14 14 15 45 11 11 15 46 9 9 15 47 14 14 16 48 9 9 16 49 10 10 16 50 13 13 17 51 12 12 17 52 11 11 17 53 14 14 18 54 13 13 18 55 11 11 18 56 15 15 19 57 12 12 19 58 13 13 19 59 0 0 20 60 16 16 20 61 14 14 20 62 16 16 21 63 15 15 21 64 13 13 21 65 16 16 22 66 13 13 22 67 14 14 22 68 12 12 23 69 18 18 23 70 1 1 23 71 17 17 24 72 12 12 24 73 15 15 24 74 0 0 25 75 17 17 25 76 16 16 25 77 17 17 26 78 15 15 26 79 16 16 26 80 19 19 27 81 12 12 27 82 17 17 27 83 20 20 28 84 26 26 28 85 18 18 28 86 20 20 29 87 18 18 29 88 12 12 29 89 26 26 30 90 1 1 30 91 18 18 30 92 21 21 31 93 20 20 31 94 12 12 31 95 21 21 32 96 12 12 32 97 19 19 32 98 0 0 33 99 22 22 33 100 17 17 33 101 22 22 34 102 21 21 34 103 19 19 34 104 22 22 35 105 19 19 35 106 17 17 35 107 23 23 36 108 20 20 36 109 21 21 36 110 0 0 37 111 25 25 37 112 22 22 37 113 25 25 38 114 23 23 38 115 21 21 38 116 25 25 39 117 21 21 39 118 22 22 39 119 24 24 40 120 20 20 40 121 23 23 40 122 25 25 41 123 24 24 41 124 23 23 41 125 27 27 42 126 26 26 42 127 20 20 42 128 28 28 43 129 27 27 43 130 20 20 43 131 28 28 44 132 20 20 44 133 24 24 44 134 0 0 45 135 29 29 45 136 25 25 45 137 29 29 46 138 28 28 46 139 24 24 46 140 29 29 47 141 24 24 47 142 25 25 47 143 27 27 48 144 31 31 48 145 26 26 48 146 31 31 49 147 1 1 49 148 26 26 49 149 30 30 50 150 27 27 50 151 28 28 50 152 0 0 51 153 30 30 51 154 29 29 51 155 30 30 52 156 28 28 52 157 29 29 52 158 32 32 53 159 27 27 53 160 30 30 53 161 33 33 54 162 31 31 54 163 27 27 54 164 34 34 55 165 33 33 55 166 27 27 55 167 34 34 56 168 27 27 56 169 32 32 56 170 0 0 57 171 35 35 57 172 30 30 57 173 35 35 58 174 34 34 58 175 32 32 58 176 35 35 59 177 32 32 59 178 30 30 59 179 36 36 60 180 33 33 60 181 34 34 60 182 0 0 61 183 38 38 61 184 35 35 61 185 38 38 62 186 36 36 62 187 34 34 62 188 38 38 63 189 34 34 63 190 35 35 63 191 37 37 64 192 33 33 64 193 36 36 64 194 38 38 65 195 37 37 65 196 36 36 65 197 39 39 66 198 42 42 66 199 31 31 66 200 39 39 67 201 31 31 67 202 33 33 67 203 42 42 68 204 1 1 68 205 31 31 68 206 40 40 69 207 39 39 69 208 33 33 69 209 40 40 70 210 33 33 70 211 37 37 70 212 0 0 71 213 41 41 71 214 38 38 71 215 41 41 72 216 40 40 72 217 37 37 72 218 41 41 73 219 37 37 73 220 38 38 73 221 43 43 74 222 39 39 74 223 40 40 74 224 0 0 75 225 43 43 75 226 41 41 75 227 43 43 76 228 40 40 76 229 41 41 76 230 44 44 77 231 39 39 77 232 43 43 77 233 45 45 78 234 42 42 78 235 39 39 78 236 46 46 79 237 45 45 79 238 39 39 79 239 46 46 80 240 39 39 80 241 44 44 80 242 0 0 81 243 47 47 81 244 43 43 81 245 47 47 82 246 46 46 82 247 44 44 82 248 47 47 83 249 44 44 83 250 43 43 83 251 45 45 84 252 4 4 84 253 42 42 84 254 4 4 85 255 1 1 85 256 42 42 85 257 48 48 86 258 45 45 86 259 46 46 86 260 0 0 87 261 48 48 87 262 47 47 87 263 48 48 88 264 46 46 88 265 47 47 88 266 49 49 89 267 45 45 89 268 48 48 89 269 5 5 90 270 4 4 90 271 45 45 90 272 3 3 91 273 5 5 91 274 45 45 91 275 3 3 92 276 45 45 92 277 49 49 92 278 0 0 93 279 2 2 93 280 48 48 93 281 2 2 94 282 3 3 94 283 49 49 94 284 2 2 95 285 49 49 95 286 48 48 95 287</p>
                </triangles>
            </mesh>
        </geometry>
    </library_geometries>
    <library_visual_scenes>
        <visual_scene id="VisualSceneNode" name="VisualScene">
            <node id="node" name="node">
                <instance_geometry url="#shape0-lib">
                    <bind_material>
                        <technique_common>
                            <instance_material symbol="material0" target="#material0">
                                <bind_vertex_input semantic="UVSET0" input_semantic="TEXCOORD"/>
                            </instance_material>
                        </technique_common>
                    </bind_material>
                </instance_geometry>
            </node>
        </visual_scene>
    </library_visual_scenes>
    <scene>
        <instance_visual_scene url="#VisualSceneNode"/>
    </scene>
</COLLADA>
