<?xml version="1.0" encoding="UTF-8"?>
<COLLADA xmlns="http://www.collada.org/2005/11/COLLADASchema" version="1.4.1">
    <asset>
        <contributor>
            <author>VCGLab</author>
            <authoring_tool>VCGLib | MeshLab</authoring_tool>
        </contributor>
        <created>Thu Jul 3 01:34:44 2025 GMT</created>
        <modified>Thu Jul 3 01:34:44 2025 GMT</modified>
        <up_axis>Y_UP</up_axis>
    </asset>
    <library_images>
        <image id="texture0" name="texture0">
            <init_from>./image/shelf_books.png</init_from>
        </image>
    </library_images>
    <library_materials>
        <material id="material0" name="material0">
            <instance_effect url="#material0-fx"/>
        </material>
    </library_materials>
    <library_effects>
        <effect id="material0-fx">
            <profile_COMMON>
                <newparam sid="texture0-surface">
                    <surface type="2D">
                        <init_from>texture0</init_from>
                        <format>R8G8B8</format>
                    </surface>
                </newparam>
                <newparam sid="texture0-sampler">
                    <sampler2D>
                        <source>texture0-surface</source>
                        <minfilter>LINEAR</minfilter>
                        <magfilter>LINEAR</magfilter>
                    </sampler2D>
                </newparam>
                <technique sid="common">
                    <blinn>
                        <diffuse>
                            <texture texture="texture0-sampler" texcoord="UVSET0"/>
                        </diffuse>
                    </blinn>
                </technique>
            </profile_COMMON>
        </effect>
    </library_effects>
    <library_geometries>
        <geometry id="shape0-lib" name="shape0">
            <mesh>
                <source id="shape0-lib-positions" name="position">
                    <float_array id="shape0-lib-positions-array" count="210">0.0343862 0.00507098 -0.0592915 0.0340562 0.22239 -0.0592915 0.0562755 0.222298 -0.0592915 0.0566055 0.00497919 -0.0592915 0.0349926 0.00506843 0.0603317 0.0346616 0.222387 0.0604523 0.0556691 0.2223 0.0603317 0.0560001 0.00498172 0.0604523 0.0590743 0.00496894 -0.0592915 0.0587442 0.222288 -0.0592915 0.0809636 0.222196 -0.0592915 0.0812936 0.00487703 -0.0592915 0.0596808 0.0049664 0.0603317 0.0587442 0.222288 0.0578915 0.0803571 0.222198 0.0603317 0.0812936 0.00487703 0.0578915 0.0799549 0.00488272 0.0608942 0.060083 0.222282 0.0608943 0.0837624 0.00486678 -0.0592915 0.0834324 0.222186 -0.0592915 0.105652 0.222093 -0.0592915 0.105982 0.00477499 -0.0592915 0.0843689 0.00486421 0.0603318 0.0834324 0.222186 0.0578915 0.105045 0.222096 0.0603315 0.105982 0.00477499 0.0578915 0.104643 0.00478064 0.0608944 0.0847711 0.22218 0.0608943 -0.0639125 0.00486678 -0.0592915 -0.0639125 0.207267 -0.0592915 -0.0416375 0.207267 -0.0592915 -0.0416375 0.00486678 -0.0592915 -0.063305 0.00486678 0.0603307 -0.0633061 0.207267 0.0604511 -0.042245 0.207267 0.0603307 -0.0422439 0.00486678 0.0604511 -0.040352 0.0056321 -0.0592915 -0.0376838 0.222925 -0.0592915 -0.0181374 0.00504988 -0.0592915 -0.0397457 0.00561632 0.0603317 -0.0376838 0.222925 0.0578915 -0.0187963 0.00506709 0.0605028 -0.0166757 0.222375 0.0607007 -0.0363453 0.22289 0.0608942 -0.0141672 0.00527185 -0.0592915 0.00772217 0.222499 -0.0592915 0.0080522 0.00518006 -0.0592915 -0.0134293 0.00526874 0.0604316 0.00711579 0.222501 0.060332 0.00744681 0.00518256 0.0604523 -0.0126129 0.222601 0.0610393 0.00969807 0.00517315 -0.0592915 0.00936804 0.222492 -0.0592915 0.0315874 0.2224 -0.0592915 0.0319174 0.00508123 -0.0592915 0.0103045 0.00517067 0.0603317 0.00997346 0.222489 0.0604523 0.0309808 0.222402 0.0603317 0.0319174 0.00508123 0.0578915 0.0305786 0.00508703 0.0608943 -0.0889125 0.00486678 -0.0592915 -0.0889125 0.207267 -0.0592915 -0.0666375 0.207267 -0.0592915 -0.0666375 0.00486678 -0.0592915 -0.088305 0.00486678 0.0603308 -0.0883061 0.207267 0.0604511 -0.0672451 0.207267 0.0603309 -0.0672439 0.00486678 0.0604512 -0.0154691 0.222343 -0.0592915 -0.0154691 0.222343 0.0578915</float_array>
                    <technique_common>
                        <accessor count="70" source="#shape0-lib-positions-array" stride="3">
                            <param name="X" type="float"/>
                            <param name="Y" type="float"/>
                            <param name="Z" type="float"/>
                        </accessor>
                    </technique_common>
                </source>
                <source id="shape0-lib-normals" name="normal">
                    <float_array id="shape0-lib-normals-array" count="336">0 0 -1 0 0 -1 -0.999986 -0.00151847 0.00505569 -0.999986 -0.00152597 0.0050693 0.999986 0.00151847 0.00505601 0.999986 0.00152593 0.00506955 0.005743 0.000563473 0.999983 -0.00574282 -0.000563867 0.999983 0 0 -1 0 0 -1 0.913345 -0.00063621 0.407187 -0.91333 0.000636462 0.407219 -0.999999 -0.00151897 0 -0.999978 -0.00425259 0.00506963 0.999999 0.00151851 0 0.999978 0.00425237 0.00507008 0.0277463 0.00253609 0.999612 -0.027744 -0.00253615 0.999612 0 0 -1 0 0 -1 0.913275 -0.00063695 0.407342 -0.913344 0.000636518 0.407189 -0.999999 -0.00151851 0 -0.999978 -0.00425212 0.00506963 0.999999 0.00151852 0 0.999978 0.00425335 0.00507187 0.0277558 0.00253766 0.999612 -0.027751 -0.00253598 0.999612 0.0041304 0.999991 4.13015e-06 0.0041405 0.999991 2.30584e-06 -0.00413107 -0.999991 -3.86079e-07 -0.00412732 -0.999991 2.90634e-07 0.00412866 0.999991 0.000248375 0.00414048 0.999991 2.93122e-06 0.0041567 0.999991 0 -0.00412897 -0.999991 5.50509e-05 -0.00413646 -0.999991 -2.28507e-07 -0.00413519 -0.999991 0 0.00413881 0.999991 0.000244026 0.00418537 0.999991 -3.43561e-06 0.00416636 0.999991 0 -0.00412344 -0.999992 4.07664e-05 -0.00413099 -0.999991 -5.32587e-07 -0.00412804 -0.999992 0 0 0 -1 0 0 -1 -0.999987 0 0.00506391 -0.999987 -8.6515e-06 0.00507853 0.999987 0 0.00506391 0.999987 8.65159e-06 0.00507853 0.00571366 0.000594596 0.999983 -0.00571384 -0.000594577 0.999983 -0.913227 0.0132377 0.407236 -0.999925 0.0122784 0 -0.999942 0.00954453 0.00506974 0.00981423 -0.00100628 0.999951 -0.00823343 -0.00246031 0.999963 0.999986 0.00151862 0.00505564 0.999986 0.00152596 0.00506895 0.0358341 0.000608053 0.999358 -0.00100369 -0.00279244 0.999996 0 0 -1 0 0 -1 0.913329 -0.000636493 0.407223 -0.999986 -0.00151862 0.0050559 -0.999986 -0.00152623 0.0050697 0.999999 0.00151851 0 0.999978 0.0042526 0.0050705 0.00574795 0.00257789 0.99998 -0.0277398 -0.000596782 0.999615 0 1 0 0 1 0 0 -1 0 0 -1 0 -0.0261999 -0.999657 9.72486e-07 -0.0262085 -0.999656 -5.83245e-07 -0.00413105 -0.999991 -5.52587e-07 -0.00412781 -0.999991 2.91969e-08 0.00414049 0.999991 2.5593e-06 0.00413042 0.999991 4.3781e-06 -0.00412828 -0.999991 8.94135e-05 -0.00413691 -0.999991 2.64149e-07 -0.00413837 -0.999991 0 0 0 -1 0 0 -1 -0.999987 0 0.00506397 -0.999987 -8.68819e-06 0.00507865 0.999987 0 0.00506434 0.999987 8.83496e-06 0.00507927 0.0057082 0.000594376 0.999984 -0.00571686 -0.000594541 0.999983 0 1 0 0 1 0 0 -1 0 0 -1 0 0 0 -1 0 0 -1 0.918748 -0.00932508 0.394735 0.99991 -0.0122786 0.00550182 0.999883 -0.0153116 0 0 0 -1 0 0 -1 -0.740618 0.000903245 0.671926 -0.999982 -0.00599747 0 -0.999938 -0.00932393 0.00616247 0.0261903 0.999657 2.91363e-05 0.0261989 0.999657 -3.5465e-05 0.0261903 0.999657 0 0.0261903 0.999657 0 0.0020849 0.996495 -0.0836318 -0.00672653 0.999977 -4.71763e-05 -0.00697639 0.999976 0</float_array>
                    <technique_common>
                        <accessor count="112" source="#shape0-lib-normals-array" stride="3">
                            <param name="X" type="float"/>
                            <param name="Y" type="float"/>
                            <param name="Z" type="float"/>
                        </accessor>
                    </technique_common>
                </source>
                <source id="shape0-lib-vcolor" name="vcolor">
                    <float_array id="shape0-lib-vcolor-array" count="280">1 1 1 1 1 1 1 1 1 1 1 1 1 1 1 1 1 1 1 1 1 1 1 1 1 1 1 1 1 1 1 1 1 1 1 1 1 1 1 1 1 1 1 1 1 1 1 1 1 1 1 1 1 1 1 1 1 1 1 1 1 1 1 1 1 1 1 1 1 1 1 1 1 1 1 1 1 1 1 1 1 1 1 1 1 1 1 1 1 1 1 1 1 1 1 1 1 1 1 1 1 1 1 1 1 1 1 1 1 1 1 1 1 1 1 1 1 1 1 1 1 1 1 1 1 1 1 1 1 1 1 1 1 1 1 1 1 1 1 1 1 1 1 1 1 1 1 1 1 1 1 1 1 1 1 1 1 1 1 1 1 1 1 1 1 1 1 1 1 1 1 1 1 1 1 1 1 1 1 1 1 1 1 1 1 1 1 1 1 1 1 1 1 1 1 1 1 1 1 1 1 1 1 1 1 1 1 1 1 1 1 1 1 1 1 1 1 1 1 1 1 1 1 1 1 1 1 1 1 1 1 1 1 1 1 1 1 1 1 1 1 1 1 1 1 1 1 1 1 1 1 1 1 1 1 1 1 1 1 1 1 1 1 1 1 1 1 1 1 1 1 1 1 1 1 1 1 1 1 1</float_array>
                    <technique_common>
                        <accessor count="70" source="#shape0-lib-vcolor-array" stride="4">
                            <param name="R" type="float"/>
                            <param name="G" type="float"/>
                            <param name="B" type="float"/>
                            <param name="A" type="float"/>
                        </accessor>
                    </technique_common>
                </source>
                <source id="shape0-lib-map" name="map">
                    <float_array id="shape0-lib-map-array" count="672">0.314955 0.307298 0.314907 0.339063 0.318122 0.33905 0.314955 0.307298 0.318122 0.33905 0.318169 0.307285 0.383594 0.476209 0.378281 0.476209 0.378281 0.464618 0.383594 0.476209 0.378281 0.464618 0.383594 0.464618 0.397406 0.464618 0.402719 0.464618 0.402719 0.476209 0.397406 0.464618 0.402719 0.476209 0.397406 0.476209 0.14388 0.746031 0.143771 0.828011 0.136573 0.828044 0.14388 0.746031 0.136573 0.828044 0.136683 0.746064 0.318527 0.307283 0.318479 0.339049 0.321693 0.339035 0.318527 0.307283 0.321693 0.339035 0.321741 0.30727 0.152602 0.745992 0.152266 0.827972 0.15211 0.745994 0.144842 0.828006 0.145178 0.746026 0.145334 0.828004 0.415469 0.476209 0.410156 0.476209 0.410156 0.464618 0.415469 0.476209 0.410156 0.464618 0.415469 0.464618 0.403781 0.464618 0.409094 0.464618 0.409094 0.476209 0.403781 0.464618 0.409094 0.476209 0.403781 0.476209 0.15211 0.745994 0.152266 0.827972 0.145334 0.828004 0.15211 0.745994 0.145334 0.828004 0.145178 0.746026 0.322098 0.307268 0.32205 0.339034 0.325265 0.33902 0.322098 0.307268 0.325265 0.33902 0.325313 0.307255 0.161097 0.745953 0.160762 0.827934 0.160605 0.745956 0.153338 0.827968 0.153673 0.745987 0.15383 0.827965 0.389969 0.476209 0.384656 0.476209 0.384656 0.464618 0.389969 0.476209 0.384656 0.464618 0.389969 0.464618 0.422906 0.464618 0.428219 0.464618 0.428219 0.476209 0.422906 0.464618 0.428219 0.476209 0.422906 0.476209 0.160605 0.745956 0.160762 0.827934 0.15383 0.827965 0.160605 0.745956 0.15383 0.827965 0.153673 0.745987 0.151049 0.513768 0.151049 0.544954 0.156381 0.544954 0.151049 0.513768 0.156381 0.544954 0.156381 0.513768 0.0919785 0.35165 0.0919785 0.31458 0.0955433 0.31458 0.0919785 0.35165 0.0955433 0.31458 0.0955433 0.35165 0.152266 0.827972 0.144842 0.828006 0.145334 0.828004 0.162305 0.544954 0.162305 0.513768 0.156973 0.513768 0.162305 0.544954 0.156973 0.513768 0.156973 0.544954 0.145178 0.746026 0.152602 0.745992 0.15211 0.745994 0.0959393 0.35165 0.0959393 0.31458 0.0995041 0.31458 0.0959393 0.35165 0.0995041 0.31458 0.0995041 0.35165 0.160762 0.827934 0.153338 0.827968 0.15383 0.827965 0.16823 0.544954 0.16823 0.513768 0.162898 0.513768 0.16823 0.544954 0.162898 0.513768 0.162898 0.544954 0.153673 0.745987 0.161097 0.745953 0.160605 0.745956 0.0999002 0.35165 0.0999002 0.31458 0.103465 0.31458 0.0999002 0.35165 0.103465 0.31458 0.103465 0.35165 0.300734 0.307268 0.300734 0.336853 0.303957 0.336853 0.300734 0.307268 0.303957 0.336853 0.303957 0.307268 0.530219 0.476209 0.524906 0.476209 0.524906 0.464618 0.530219 0.476209 0.524906 0.464618 0.530219 0.464618 0.531281 0.464618 0.536594 0.464618 0.536594 0.476209 0.531281 0.464618 0.536594 0.476209 0.531281 0.476209 0.110074 0.745988 0.110077 0.82234 0.102861 0.82234 0.110074 0.745988 0.102861 0.82234 0.102858 0.745988 0.111661 0.828247 0.110964 0.746271 0.112153 0.828232 0.440969 0.476209 0.435656 0.476209 0.435656 0.464618 0.440969 0.476209 0.435656 0.464618 0.440969 0.464618 0.11815 0.746064 0.118862 0.82804 0.112153 0.828232 0.11815 0.746064 0.112153 0.828232 0.110964 0.746271 0.429281 0.464618 0.434594 0.464618 0.434594 0.476209 0.429281 0.464618 0.434594 0.476209 0.429281 0.476209 0.127173 0.746107 0.127062 0.828087 0.120259 0.828118 0.127173 0.746107 0.120259 0.828118 0.120001 0.74614 0.311383 0.307313 0.311335 0.339078 0.31455 0.339065 0.311383 0.307313 0.31455 0.339065 0.314598 0.3073 0.135611 0.746069 0.135275 0.82805 0.135119 0.746071 0.421844 0.476209 0.416531 0.476209 0.416531 0.464618 0.421844 0.476209 0.416531 0.464618 0.421844 0.464618 0.391031 0.464618 0.396344 0.464618 0.396344 0.476209 0.391031 0.464618 0.396344 0.476209 0.391031 0.476209 0.135119 0.746071 0.135275 0.82805 0.128078 0.828082 0.135119 0.746071 0.128078 0.828082 0.128187 0.746103 0.132885 0.544954 0.132885 0.513768 0.12754 0.513768 0.132885 0.544954 0.12754 0.513768 0.12754 0.544954 0.0762079 0.35165 0.0762079 0.31458 0.0797816 0.31458 0.0762079 0.35165 0.0797816 0.31458 0.0797816 0.35165 0.0799878 0.35165 0.0799878 0.31458 0.0835519 0.31458 0.0799878 0.35165 0.0835519 0.31458 0.0835519 0.35165 0.0841888 0.35165 0.0841888 0.31458 0.0877536 0.31458 0.0841888 0.35165 0.0877536 0.31458 0.0877536 0.35165 0.150457 0.544954 0.150457 0.513768 0.145125 0.513768 0.150457 0.544954 0.145125 0.513768 0.145125 0.544954 0.128187 0.746103 0.135611 0.746069 0.135119 0.746071 0.0880176 0.35165 0.0880176 0.31458 0.0915824 0.31458 0.0880176 0.35165 0.0915824 0.31458 0.0915824 0.35165 0.297117 0.307268 0.297117 0.336853 0.30034 0.336853 0.297117 0.307268 0.30034 0.336853 0.30034 0.307268 0.523844 0.476209 0.518531 0.476209 0.518531 0.464618 0.523844 0.476209 0.518531 0.464618 0.523844 0.464618 0.512156 0.464618 0.517469 0.464618 0.517469 0.476209 0.512156 0.464618 0.517469 0.476209 0.512156 0.476209 0.101471 0.745988 0.101475 0.82234 0.0942586 0.82234 0.101471 0.745988 0.0942586 0.82234 0.0942551 0.745988 0.126886 0.544954 0.126886 0.513768 0.121541 0.513768 0.126886 0.544954 0.121541 0.513768 0.121541 0.544954 0.0721969 0.35165 0.0721969 0.31458 0.0757707 0.31458 0.0721969 0.35165 0.0757707 0.31458 0.0757707 0.35165 0.304143 0.30738 0.304529 0.339142 0.307742 0.339057 0.304143 0.30738 0.307742 0.339057 0.307356 0.307295 0.11815 0.746064 0.119305 0.828027 0.118862 0.82804 0.442031 0.464618 0.447344 0.464618 0.447344 0.476209 0.442031 0.464618 0.447344 0.476209 0.442031 0.476209 0.307931 0.307328 0.307883 0.339093 0.311097 0.339079 0.307931 0.307328 0.311097 0.339079 0.311145 0.307314 0.119639 0.82812 0.120001 0.74614 0.120259 0.828118 0.377219 0.476209 0.371906 0.476209 0.371906 0.464618 0.377219 0.476209 0.371906 0.464618 0.377219 0.464618 0.118862 0.82804 0.119305 0.828027 0.111661 0.828247 0.118862 0.82804 0.111661 0.828247 0.112153 0.828232 0.139165 0.544954 0.139165 0.513768 0.133834 0.513768 0.139165 0.544954 0.133834 0.513768 0.133834 0.544954 0.127062 0.828087 0.119639 0.82812 0.120259 0.828118 0.14473 0.544954 0.14473 0.513768 0.139398 0.513768 0.14473 0.544954 0.139398 0.513768 0.139398 0.544954</float_array>
                    <technique_common>
                        <accessor count="336" source="#shape0-lib-map-array" stride="2">
                            <param name="U" type="float"/>
                            <param name="V" type="float"/>
                        </accessor>
                    </technique_common>
                </source>
                <vertices id="shape0-lib-vertices">
                    <input semantic="POSITION" source="#shape0-lib-positions"/>
                </vertices>
                <triangles count="112" material="material0">
                    <input offset="0" semantic="VERTEX" source="#shape0-lib-vertices"/>
                    <input offset="1" semantic="COLOR" source="#shape0-lib-vcolor"/>
                    <input offset="2" semantic="NORMAL" source="#shape0-lib-normals"/>
                    <input offset="3" semantic="TEXCOORD" source="#shape0-lib-map"/>
                    <p>0 0 0 0 1 1 0 1 2 2 0 2 0 0 1 3 2 2 1 4 3 3 1 5 5 5 2 6 1 1 2 7 0 0 2 8 5 5 3 9 0 0 3 10 4 4 3 11 7 7 4 12 3 3 4 13 2 2 4 14 7 7 5 15 2 2 5 16 6 6 5 17 7 7 6 18 6 6 6 19 5 5 6 20 7 7 7 21 5 5 7 22 4 4 7 23 8 8 8 24 9 9 8 25 10 10 8 26 8 8 9 27 10 10 9 28 11 11 9 29 15 15 10 30 14 14 10 31 16 16 10 32 13 13 11 33 12 12 11 34 17 17 11 35 13 13 12 36 9 9 12 37 8 8 12 38 13 13 13 39 8 8 13 40 12 12 13 41 15 15 14 42 11 11 14 43 10 10 14 44 15 15 15 45 10 10 15 46 14 14 15 47 16 16 16 48 14 14 16 49 17 17 16 50 16 16 17 51 17 17 17 52 12 12 17 53 18 18 18 54 19 19 18 55 20 20 18 56 18 18 19 57 20 20 19 58 21 21 19 59 25 25 20 60 24 24 20 61 26 26 20 62 23 23 21 63 22 22 21 64 27 27 21 65 23 23 22 66 19 19 22 67 18 18 22 68 23 23 23 69 18 18 23 70 22 22 23 71 25 25 24 72 21 21 24 73 20 20 24 74 25 25 25 75 20 20 25 76 24 24 25 77 26 26 26 78 24 24 26 79 27 27 26 80 26 26 27 81 27 27 27 82 22 22 27 83 1 1 28 84 5 5 28 85 6 6 28 86 1 1 29 87 6 6 29 88 2 2 29 89 4 4 30 90 0 0 30 91 3 3 30 92 4 4 31 93 3 3 31 94 7 7 31 95 14 14 32 96 13 13 32 97 17 17 32 98 14 14 33 99 10 10 33 100 9 9 33 101 14 14 34 102 9 9 34 103 13 13 34 104 12 12 35 105 15 15 35 106 16 16 35 107 12 12 36 108 8 8 36 109 11 11 36 110 12 12 37 111 11 11 37 112 15 15 37 113 24 24 38 114 23 23 38 115 27 27 38 116 24 24 39 117 20 20 39 118 19 19 39 119 24 24 40 120 19 19 40 121 23 23 40 122 22 22 41 123 25 25 41 124 26 26 41 125 22 22 42 126 18 18 42 127 21 21 42 128 22 22 43 129 21 21 43 130 25 25 43 131 28 28 44 132 29 29 44 133 30 30 44 134 28 28 45 135 30 30 45 136 31 31 45 137 33 33 46 138 29 29 46 139 28 28 46 140 33 33 47 141 28 28 47 142 32 32 47 143 35 35 48 144 31 31 48 145 30 30 48 146 35 35 49 147 30 30 49 148 34 34 49 149 35 35 50 150 34 34 50 151 33 33 50 152 35 35 51 153 33 33 51 154 32 32 51 155 40 40 52 156 39 39 52 157 43 43 52 158 40 40 53 159 37 37 53 160 36 36 53 161 40 40 54 162 36 36 54 163 39 39 54 164 41 41 55 165 42 42 55 166 43 43 55 167 41 41 56 168 43 43 56 169 39 39 56 170 49 49 57 171 46 46 57 172 45 45 57 173 49 49 58 174 45 45 58 175 48 48 58 176 49 49 59 177 48 48 59 178 50 50 59 179 49 49 60 180 50 50 60 181 47 47 60 182 51 51 61 183 52 52 61 184 53 53 61 185 51 51 62 186 53 53 62 187 54 54 62 188 58 58 63 189 57 57 63 190 59 59 63 191 56 56 64 192 52 52 64 193 51 51 64 194 56 56 65 195 51 51 65 196 55 55 65 197 58 58 66 198 54 54 66 199 53 53 66 200 58 58 67 201 53 53 67 202 57 57 67 203 59 59 68 204 57 57 68 205 56 56 68 206 59 59 69 207 56 56 69 208 55 55 69 209 34 34 70 210 30 30 70 211 29 29 70 212 34 34 71 213 29 29 71 214 33 33 71 215 32 32 72 216 28 28 72 217 31 31 72 218 32 32 73 219 31 31 73 220 35 35 73 221 39 39 74 222 36 36 74 223 38 38 74 224 39 39 75 225 38 38 75 226 41 41 75 227 47 47 76 228 44 44 76 229 46 46 76 230 47 47 77 231 46 46 77 232 49 49 77 233 57 57 78 234 53 53 78 235 52 52 78 236 57 57 79 237 52 52 79 238 56 56 79 239 55 55 80 240 58 58 80 241 59 59 80 242 55 55 81 243 51 51 81 244 54 54 81 245 55 55 82 246 54 54 82 247 58 58 82 248 60 60 83 249 61 61 83 250 62 62 83 251 60 60 84 252 62 62 84 253 63 63 84 254 65 65 85 255 61 61 85 256 60 60 85 257 65 65 86 258 60 60 86 259 64 64 86 260 67 67 87 261 63 63 87 262 62 62 87 263 67 67 88 264 62 62 88 265 66 66 88 266 67 67 89 267 66 66 89 268 65 65 89 269 67 67 90 270 65 65 90 271 64 64 90 272 66 66 91 273 62 62 91 274 61 61 91 275 66 66 92 276 61 61 92 277 65 65 92 278 64 64 93 279 60 60 93 280 63 63 93 281 64 64 94 282 63 63 94 283 67 67 94 284 36 36 95 285 37 37 95 286 68 68 95 287 36 36 96 288 68 68 96 289 38 38 96 290 41 41 97 291 69 69 97 292 42 42 97 293 41 41 98 294 38 38 98 295 68 68 98 296 41 41 99 297 68 68 99 298 69 69 99 299 44 44 100 300 68 68 100 301 45 45 100 302 44 44 101 303 45 45 101 304 46 46 101 305 69 69 102 306 47 47 102 307 50 50 102 308 69 69 103 309 68 68 103 310 44 44 103 311 69 69 104 312 44 44 104 313 47 47 104 314 42 42 105 315 69 69 105 316 40 40 105 317 42 42 106 318 40 40 106 319 43 43 106 320 69 69 107 321 68 68 107 322 37 37 107 323 69 69 108 324 37 37 108 325 40 40 108 326 48 48 109 327 69 69 109 328 50 50 109 329 48 48 110 330 45 45 110 331 68 68 110 332 48 48 111 333 68 68 111 334 69 69 111 335</p>
                </triangles>
            </mesh>
        </geometry>
    </library_geometries>
    <library_visual_scenes>
        <visual_scene id="VisualSceneNode" name="VisualScene">
            <node id="node" name="node">
                <instance_geometry url="#shape0-lib">
                    <bind_material>
                        <technique_common>
                            <instance_material symbol="material0" target="#material0">
                                <bind_vertex_input semantic="UVSET0" input_semantic="TEXCOORD"/>
                            </instance_material>
                        </technique_common>
                    </bind_material>
                </instance_geometry>
            </node>
        </visual_scene>
    </library_visual_scenes>
    <scene>
        <instance_visual_scene url="#VisualSceneNode"/>
    </scene>
</COLLADA>
