<?xml version="1.0" encoding="UTF-8"?>
<COLLADA xmlns="http://www.collada.org/2005/11/COLLADASchema" version="1.4.1">
    <asset>
        <contributor>
            <author>VCGLab</author>
            <authoring_tool>VCGLib | MeshLab</authoring_tool>
        </contributor>
        <created>Thu Jul 3 02:10:38 2025 GMT</created>
        <modified>Thu Jul 3 02:10:38 2025 GMT</modified>
        <up_axis>Y_UP</up_axis>
    </asset>
    <library_images>
        <image id="texture0" name="texture0">
            <init_from>./image/shelf_books.png</init_from>
        </image>
    </library_images>
    <library_materials>
        <material id="material0" name="material0">
            <instance_effect url="#material0-fx"/>
        </material>
    </library_materials>
    <library_effects>
        <effect id="material0-fx">
            <profile_COMMON>
                <newparam sid="texture0-surface">
                    <surface type="2D">
                        <init_from>texture0</init_from>
                        <format>R8G8B8</format>
                    </surface>
                </newparam>
                <newparam sid="texture0-sampler">
                    <sampler2D>
                        <source>texture0-surface</source>
                        <minfilter>LINEAR</minfilter>
                        <magfilter>LINEAR</magfilter>
                    </sampler2D>
                </newparam>
                <technique sid="common">
                    <blinn>
                        <diffuse>
                            <texture texture="texture0-sampler" texcoord="UVSET0"/>
                        </diffuse>
                    </blinn>
                </technique>
            </profile_COMMON>
        </effect>
    </library_effects>
    <library_geometries>
        <geometry id="shape0-lib" name="shape0">
            <mesh>
                <source id="shape0-lib-positions" name="position">
                    <float_array id="shape0-lib-positions-array" count="108">-0.0820967 0.0958054 -0.0582915 0.0896967 0.0961355 -0.0582915 0.0896243 0.0739161 -0.0582915 -0.0821691 0.0735861 -0.0582915 -0.0820991 0.0950712 0.0614779 0.0896947 0.0955392 0.0614297 0.0896267 0.0746503 0.0614778 -0.0821691 0.0735861 0.0588915 -0.0821649 0.0748603 0.0618145 -0.0821772 0.0711173 -0.0582915 0.0896162 0.0714474 -0.0582915 0.0895434 0.0492281 -0.0582915 -0.08225 0.048898 -0.0582915 -0.0821798 0.070383 0.0614779 0.0896141 0.0708511 0.0614297 0.0895459 0.0499623 0.0614779 -0.08225 0.048898 0.0588915 -0.0822455 0.050172 0.0618145 -0.0822581 0.0464293 -0.0582915 0.0895353 0.0467592 -0.0582915 0.0894626 0.0245399 -0.0582915 -0.0823305 0.02421 -0.0582915 -0.0822605 0.0456949 0.0614779 0.0895334 0.0461629 0.0614298 0.0894652 0.0252743 0.0614779 -0.0823305 0.02421 0.0588915 -0.0823264 0.0254839 0.0618145 -0.0823387 0.0217411 -0.0582915 0.0894547 0.0220711 -0.0582915 0.089382 -0.000148185 -0.0582915 -0.0824114 -0.000478157 -0.0582915 -0.0823412 0.0210068 0.0614779 0.0894526 0.0214749 0.0614298 0.0893844 0.000586112 0.0614778 -0.0824114 -0.000478157 0.0588915 -0.0824071 0.000796017 0.0618146</float_array>
                    <technique_common>
                        <accessor count="36" source="#shape0-lib-positions-array" stride="3">
                            <param name="X" type="float"/>
                            <param name="Y" type="float"/>
                            <param name="Z" type="float"/>
                        </accessor>
                    </technique_common>
                </source>
                <source id="shape0-lib-normals" name="normal">
                    <float_array id="shape0-lib-normals-array" count="168">0 0 -1 0 0 -1 -0.000337232 -0.916687 0.399605 -0.00192146 0.999986 0.0049802 -0.00272259 0.999978 0.00612976 0.00192091 -0.999998 0 0.00610233 -0.999963 0.00613016 0.00196271 0.00229683 0.999995 0.000234796 0.0166547 0.999861 0 0 -1 0 0 -1 -0.000336315 -0.916707 0.39956 -0.0019215 0.999986 0.00498032 -0.00272307 0.999978 0.0061305 0.00192148 -0.999998 0 0.00610263 -0.999963 0.00612978 0.0019621 0.0023004 0.999995 0.000234881 0.0166525 0.999861 0 0 -1 0 0 -1 -0.000335909 -0.916719 0.399531 -0.00192031 0.999986 0.00498023 -0.00272249 0.999978 0.00613128 0.00192032 -0.999998 0 0.0061024 -0.999963 0.00613113 0.00196242 0.00229685 0.999995 0.000234539 0.0166545 0.999861 0 0 -1 0 0 -1 -0.000336853 -0.916693 0.399592 -0.00192089 0.999986 0.0049799 -0.00272268 0.999978 0.00613039 0.00192075 -0.999998 0 0.00610244 -0.999963 0.00613058 0.00196283 0.00229273 0.999995 0.000234404 0.016655 0.999861 0.999995 -0.00325828 6.85187e-08 0.999995 -0.00325822 7.79633e-08 -0.999995 0.00325507 2.11682e-05 -0.999995 0.00325829 -1.19842e-07 -0.999995 0.00325762 0 0.999995 -0.00326215 1.6138e-06 0.999995 -0.0032764 -9.41336e-07 -0.999995 0.00325227 0.000119455 -0.999995 0.0032764 -1.7482e-06 -0.999995 0.00326665 0 0.999995 -0.00327204 -1.77234e-06 0.999995 -0.00326432 -3.88138e-07 -0.999995 0.00325912 -6.64853e-07 -0.999995 0.00325863 7.38056e-08 -0.999995 0.00325904 0 0.999995 -0.00327204 -2.18977e-07 0.999995 -0.00326502 1.0408e-06 -0.999995 0.00325987 6.50084e-05 -0.999995 0.00327204 -7.79931e-07 -0.999995 0.0032677 0</float_array>
                    <technique_common>
                        <accessor count="56" source="#shape0-lib-normals-array" stride="3">
                            <param name="X" type="float"/>
                            <param name="Y" type="float"/>
                            <param name="Z" type="float"/>
                        </accessor>
                    </technique_common>
                </source>
                <source id="shape0-lib-vcolor" name="vcolor">
                    <float_array id="shape0-lib-vcolor-array" count="144">1 1 1 1 1 1 1 1 1 1 1 1 1 1 1 1 1 1 1 1 1 1 1 1 1 1 1 1 1 1 1 1 1 1 1 1 1 1 1 1 1 1 1 1 1 1 1 1 1 1 1 1 1 1 1 1 1 1 1 1 1 1 1 1 1 1 1 1 1 1 1 1 1 1 1 1 1 1 1 1 1 1 1 1 1 1 1 1 1 1 1 1 1 1 1 1 1 1 1 1 1 1 1 1 1 1 1 1 1 1 1 1 1 1 1 1 1 1 1 1 1 1 1 1 1 1 1 1 1 1 1 1 1 1 1 1 1 1 1 1 1 1 1 1</float_array>
                    <technique_common>
                        <accessor count="36" source="#shape0-lib-vcolor-array" stride="4">
                            <param name="R" type="float"/>
                            <param name="G" type="float"/>
                            <param name="B" type="float"/>
                            <param name="A" type="float"/>
                        </accessor>
                    </technique_common>
                </source>
                <source id="shape0-lib-map" name="map">
                    <float_array id="shape0-lib-map-array" count="336">0.46064 0.374059 0.485494 0.374107 0.485483 0.370859 0.46064 0.374059 0.485483 0.370859 0.46063 0.370811 0.501111 0.896492 0.573373 0.897017 0.501113 0.897074 0.50583 0.559132 0.50583 0.55382 0.51742 0.55382 0.50583 0.559132 0.51742 0.55382 0.51742 0.559132 0.51858 0.559132 0.51858 0.55382 0.53017 0.55382 0.51858 0.559132 0.53017 0.55382 0.53017 0.559132 0.501113 0.897074 0.573373 0.897017 0.573402 0.90565 0.501113 0.897074 0.573402 0.90565 0.50114 0.905433 0.460629 0.37045 0.485482 0.370498 0.485472 0.367251 0.460629 0.37045 0.485472 0.367251 0.460618 0.367202 0.501077 0.886127 0.57334 0.886652 0.501079 0.886709 0.486705 0.559132 0.486705 0.55382 0.498295 0.55382 0.486705 0.559132 0.498295 0.55382 0.498295 0.559132 0.448455 0.559132 0.448455 0.55382 0.460045 0.55382 0.448455 0.559132 0.460045 0.55382 0.460045 0.559132 0.501079 0.886709 0.57334 0.886652 0.573368 0.895286 0.501079 0.886709 0.573368 0.895286 0.501106 0.895068 0.460617 0.366841 0.48547 0.36689 0.48546 0.363642 0.460617 0.366841 0.48546 0.363642 0.460606 0.363594 0.501043 0.875762 0.573306 0.876288 0.501045 0.876344 0.53133 0.559132 0.53133 0.55382 0.54292 0.55382 0.53133 0.559132 0.54292 0.55382 0.54292 0.559132 0.384705 0.571882 0.384705 0.56657 0.396295 0.56657 0.384705 0.571882 0.396295 0.56657 0.396295 0.571882 0.501045 0.876344 0.573306 0.876288 0.573334 0.884921 0.501045 0.876344 0.573334 0.884921 0.501072 0.884703 0.460605 0.363233 0.485459 0.363281 0.485448 0.360033 0.460605 0.363233 0.485448 0.360033 0.460595 0.359985 0.501009 0.865398 0.573272 0.865923 0.501011 0.86598 0.461204 0.559132 0.461204 0.55382 0.472795 0.55382 0.461204 0.559132 0.472795 0.55382 0.472795 0.559132 0.371955 0.565507 0.371955 0.560195 0.383545 0.560195 0.371955 0.565507 0.383545 0.560195 0.383545 0.565507 0.501011 0.86598 0.573272 0.865923 0.5733 0.874556 0.501011 0.86598 0.5733 0.874556 0.501038 0.874339 0.684571 0.742735 0.643484 0.742495 0.643484 0.748623 0.684571 0.742735 0.643484 0.748623 0.684554 0.748405 0.681384 0.924028 0.68056 0.91814 0.681564 0.918543 0.681384 0.924028 0.640297 0.924268 0.640297 0.91814 0.681384 0.924028 0.640297 0.91814 0.68056 0.91814 0.643484 0.741814 0.684554 0.741596 0.684571 0.735926 0.643484 0.741814 0.684571 0.735926 0.643484 0.735686 0.681384 0.917219 0.68056 0.911331 0.681564 0.911734 0.681384 0.917219 0.640297 0.917459 0.640297 0.911331 0.681384 0.917219 0.640297 0.911331 0.68056 0.911331 0.684571 0.729117 0.643484 0.728877 0.643484 0.735005 0.684571 0.729117 0.643484 0.735005 0.684554 0.734787 0.681384 0.91041 0.68056 0.904522 0.681564 0.904925 0.681384 0.91041 0.640297 0.91065 0.640297 0.904522 0.681384 0.91041 0.640297 0.904522 0.68056 0.904522 0.684571 0.722308 0.643484 0.722068 0.643484 0.728196 0.684571 0.722308 0.643484 0.728196 0.684554 0.727978 0.681384 0.903601 0.68056 0.897713 0.681564 0.898116 0.681384 0.903601 0.640297 0.903841 0.640297 0.897713 0.681384 0.903601 0.640297 0.897713 0.68056 0.897713</float_array>
                    <technique_common>
                        <accessor count="168" source="#shape0-lib-map-array" stride="2">
                            <param name="U" type="float"/>
                            <param name="V" type="float"/>
                        </accessor>
                    </technique_common>
                </source>
                <vertices id="shape0-lib-vertices">
                    <input semantic="POSITION" source="#shape0-lib-positions"/>
                </vertices>
                <triangles count="56" material="material0">
                    <input offset="0" semantic="VERTEX" source="#shape0-lib-vertices"/>
                    <input offset="1" semantic="COLOR" source="#shape0-lib-vcolor"/>
                    <input offset="2" semantic="NORMAL" source="#shape0-lib-normals"/>
                    <input offset="3" semantic="TEXCOORD" source="#shape0-lib-map"/>
                    <p>0 0 0 0 1 1 0 1 2 2 0 2 0 0 1 3 2 2 1 4 3 3 1 5 7 7 2 6 6 6 2 7 8 8 2 8 5 5 3 9 1 1 3 10 0 0 3 11 5 5 4 12 0 0 4 13 4 4 4 14 7 7 5 15 3 3 5 16 2 2 5 17 7 7 6 18 2 2 6 19 6 6 6 20 8 8 7 21 6 6 7 22 5 5 7 23 8 8 8 24 5 5 8 25 4 4 8 26 9 9 9 27 10 10 9 28 11 11 9 29 9 9 10 30 11 11 10 31 12 12 10 32 16 16 11 33 15 15 11 34 17 17 11 35 14 14 12 36 10 10 12 37 9 9 12 38 14 14 13 39 9 9 13 40 13 13 13 41 16 16 14 42 12 12 14 43 11 11 14 44 16 16 15 45 11 11 15 46 15 15 15 47 17 17 16 48 15 15 16 49 14 14 16 50 17 17 17 51 14 14 17 52 13 13 17 53 18 18 18 54 19 19 18 55 20 20 18 56 18 18 19 57 20 20 19 58 21 21 19 59 25 25 20 60 24 24 20 61 26 26 20 62 23 23 21 63 19 19 21 64 18 18 21 65 23 23 22 66 18 18 22 67 22 22 22 68 25 25 23 69 21 21 23 70 20 20 23 71 25 25 24 72 20 20 24 73 24 24 24 74 26 26 25 75 24 24 25 76 23 23 25 77 26 26 26 78 23 23 26 79 22 22 26 80 27 27 27 81 28 28 27 82 29 29 27 83 27 27 28 84 29 29 28 85 30 30 28 86 34 34 29 87 33 33 29 88 35 35 29 89 32 32 30 90 28 28 30 91 27 27 30 92 32 32 31 93 27 27 31 94 31 31 31 95 34 34 32 96 30 30 32 97 29 29 32 98 34 34 33 99 29 29 33 100 33 33 33 101 35 35 34 102 33 33 34 103 32 32 34 104 35 35 35 105 32 32 35 106 31 31 35 107 6 6 36 108 2 2 36 109 1 1 36 110 6 6 37 111 1 1 37 112 5 5 37 113 4 4 38 114 7 7 38 115 8 8 38 116 4 4 39 117 0 0 39 118 3 3 39 119 4 4 40 120 3 3 40 121 7 7 40 122 10 10 41 123 14 14 41 124 15 15 41 125 10 10 42 126 15 15 42 127 11 11 42 128 13 13 43 129 16 16 43 130 17 17 43 131 13 13 44 132 9 9 44 133 12 12 44 134 13 13 45 135 12 12 45 136 16 16 45 137 24 24 46 138 20 20 46 139 19 19 46 140 24 24 47 141 19 19 47 142 23 23 47 143 22 22 48 144 25 25 48 145 26 26 48 146 22 22 49 147 18 18 49 148 21 21 49 149 22 22 50 150 21 21 50 151 25 25 50 152 33 33 51 153 29 29 51 154 28 28 51 155 33 33 52 156 28 28 52 157 32 32 52 158 31 31 53 159 34 34 53 160 35 35 53 161 31 31 54 162 27 27 54 163 30 30 54 164 31 31 55 165 30 30 55 166 34 34 55 167</p>
                </triangles>
            </mesh>
        </geometry>
    </library_geometries>
    <library_visual_scenes>
        <visual_scene id="VisualSceneNode" name="VisualScene">
            <node id="node" name="node">
                <instance_geometry url="#shape0-lib">
                    <bind_material>
                        <technique_common>
                            <instance_material symbol="material0" target="#material0">
                                <bind_vertex_input semantic="UVSET0" input_semantic="TEXCOORD"/>
                            </instance_material>
                        </technique_common>
                    </bind_material>
                </instance_geometry>
            </node>
        </visual_scene>
    </library_visual_scenes>
    <scene>
        <instance_visual_scene url="#VisualSceneNode"/>
    </scene>
</COLLADA>
