<?xml version="1.0" encoding="utf-8"?>
<COLLADA xmlns="http://www.collada.org/2005/11/COLLADASchema" version="1.4.1" xmlns:xsi="http://www.w3.org/2001/XMLSchema-instance">
  <asset>
    <contributor>
      <author>Blender User</author>
      <authoring_tool>Blender 3.0.1</authoring_tool>
    </contributor>
    <created>2025-12-23T08:53:28</created>
    <modified>2025-12-23T08:53:28</modified>
    <unit name="meter" meter="1"/>
    <up_axis>Z_UP</up_axis>
  </asset>
  <library_effects>
    <effect id="マテリアル-effect">
      <profile_COMMON>
        <technique sid="common">
          <lambert>
            <emission>
              <color sid="emission">0 0 0 1</color>
            </emission>
            <diffuse>
              <color sid="diffuse">0.5271153 0.5271152 0.5271152 1</color>
            </diffuse>
            <reflectivity>
              <float sid="specular">1</float>
            </reflectivity>
            <index_of_refraction>
              <float sid="ior">1.45</float>
            </index_of_refraction>
          </lambert>
        </technique>
      </profile_COMMON>
    </effect>
  </library_effects>
  <library_images/>
  <library_materials>
    <material id="マテリアル-material" name="マテリアル">
      <instance_effect url="#マテリアル-effect"/>
    </material>
  </library_materials>
  <library_geometries>
    <geometry id="Cube_003-mesh" name="Cube.003">
      <mesh>
        <source id="Cube_003-mesh-positions">
          <float_array id="Cube_003-mesh-positions-array" count="1026">-1.45061 0.4393454 0.5857937 -1.721963 0.4393453 -0.5857937 -1.45061 -0.4393452 0.5857937 -1.721963 -0.4393453 -0.5857937 0.08786904 0.4393454 0.5857937 0.08786904 0.4393453 -0.5857937 0.08786904 -0.4393452 0.5857937 0.08786904 -0.4393453 -0.5857937 -0.203706 -0.9946943 9.682417 -0.203706 1.005306 9.682417 2.232596 1.005306 9.682417 2.232596 -0.9946943 9.682417 -0.203706 -0.9946943 11 -0.203706 1.005306 11 2.232596 1.005306 11 2.232596 -0.9946943 11 -0.203706 0.005305707 9.682417 1.232596 1.005306 10.37573 2.232596 0.005305707 9.682417 1.232596 -0.9946943 10.37573 1.232596 0.005305707 10.37573 -0.203706 -0.4946943 9.682417 0.7325964 1.005306 10.37573 2.232596 0.5053057 9.682417 1.732596 -0.9946943 10.37573 -0.203706 0.5053057 9.682417 1.732596 1.005306 10.37573 2.232596 -0.4946943 9.682417 0.7325964 -0.9946943 10.37573 1.732596 0.005305707 10.37573 0.7325964 0.005305707 10.37573 1.232596 -0.4946943 10.37573 1.232596 0.5053057 10.37573 1.732596 0.5053057 10.37573 1.732596 -0.4946943 10.37573 0.7325964 -0.4946943 10.37573 0.7325964 0.5053057 10.37573 1.982596 -0.9946943 10.00312 1.982596 1.005306 10.00312 1.982596 0.005305707 10.00312 1.982596 0.5053057 10.00312 1.982596 -0.4946943 10.00312 0.4825964 1.005306 10.00312 0.4825964 -0.9946943 10.00312 0.4825964 0.005305707 10.00312 0.4825964 -0.4946943 10.00312 0.4825964 0.5053057 10.00312 1.3411e-7 1 4.666666 1.3411e-7 1 10 0.03901815 0.9807855 4.666666 0.03901815 0.9807855 10 0.07653677 0.9238797 4.666666 0.07653677 0.9238797 10 0.1111141 0.8314697 4.666666 0.1111141 0.8314697 10 0.1414214 0.707107 4.666666 0.1414214 0.707107 10 0.166294 0.5555703 4.666666 0.166294 0.5555703 10 0.184776 0.3826836 4.666666 0.184776 0.3826836 10 0.1961572 0.1950904 4.666666 0.1961572 0.1950904 10 0.2 1.91225e-7 4.666666 0.2 1.91225e-7 10 0.1961572 -0.1950899 4.666666 0.1961572 -0.1950899 10 0.184776 -0.3826831 4.666666 0.184776 -0.3826831 10 0.166294 -0.55557 4.666666 0.166294 -0.55557 10 0.1414214 -0.7071067 4.666666 0.1414214 -0.7071067 10 0.1111141 -0.8314696 4.666666 0.1111141 -0.8314696 10 0.07653677 -0.9238795 4.666666 0.07653677 -0.9238795 10 0.03901815 -0.9807853 4.666666 0.03901815 -0.9807853 10 0 -0.9999998 4.666666 0 -0.9999998 10 -0.03901797 -0.9807849 4.666666 -0.03901797 -0.9807849 10 -0.07653659 -0.9238792 4.666666 -0.07653659 -0.9238792 10 -0.111114 -0.8314691 4.666666 -0.111114 -0.8314691 10 -0.1414213 -0.7071062 4.666666 -0.1414213 -0.7071062 10 -0.1662937 -0.5555695 4.666666 -0.1662937 -0.5555695 10 -0.1847758 -0.3826824 4.666666 -0.1847758 -0.3826824 10 -0.1961569 -0.1950893 4.666666 -0.1961569 -0.1950893 10 -0.1999998 1.1449e-6 4.666666 -0.1999998 1.1449e-6 10 -0.1961567 0.1950914 4.666666 -0.1961567 0.1950914 10 -0.1847757 0.3826847 4.666666 -0.1847757 0.3826847 10 -0.1662936 0.5555715 4.666666 -0.1662936 0.5555715 10 -0.141421 0.7071079 4.666666 -0.141421 0.7071079 10 -0.1111136 0.8314706 4.666666 -0.1111136 0.8314706 10 -0.07653623 0.9238803 4.666666 -0.07653623 0.9238803 10 -0.03901755 0.9807858 4.666666 -0.03901755 0.9807858 10 1.3411e-7 2.5 3.333333 1.3411e-7 2.5 4.666666 0.09754526 2.451963 3.333333 0.09754526 2.451963 4.666666 0.1913418 2.309699 3.333333 0.1913418 2.309699 4.666666 0.2777853 2.078674 3.333333 0.2777853 2.078674 4.666666 0.3535535 1.767767 3.333333 0.3535535 1.767767 4.666666 0.415735 1.388925 3.333333 0.415735 1.388925 4.666666 0.4619399 0.9567088 3.333333 0.4619399 0.9567088 4.666666 0.4903928 0.4877261 3.333333 0.4903928 0.4877261 4.666666 0.5000001 4.29643e-7 3.333333 0.5000001 4.29643e-7 4.666666 0.4903928 -0.4877253 3.333333 0.4903928 -0.4877253 4.666666 0.4619399 -0.956708 3.333333 0.4619399 -0.956708 4.666666 0.415735 -1.388925 3.333333 0.415735 -1.388925 4.666666 0.3535535 -1.767767 3.333333 0.3535535 -1.767767 4.666666 0.2777853 -2.078674 3.333333 0.2777853 -2.078674 4.666666 0.1913416 -2.309699 3.333333 0.1913416 -2.309699 4.666666 0.09754514 -2.451963 3.333333 0.09754514 -2.451963 4.666666 0 -2.5 3.333333 0 -2.5 4.666666 -0.0975452 -2.451963 3.333333 -0.0975452 -2.451963 4.666666 -0.1913418 -2.309698 3.333333 -0.1913418 -2.309698 4.666666 -0.2777853 -2.078673 3.333333 -0.2777853 -2.078673 4.666666 -0.3535535 -1.767766 3.333333 -0.3535535 -1.767766 4.666666 -0.4157348 -1.388924 3.333333 -0.4157348 -1.388924 4.666666 -0.4619398 -0.9567067 3.333333 -0.4619398 -0.9567067 4.666666 -0.4903926 -0.4877234 3.333333 -0.4903926 -0.4877234 4.666666 -0.4999999 2.57541e-6 3.333333 -0.4999999 2.57541e-6 4.666666 -0.4903925 0.4877286 3.333333 -0.4903925 0.4877286 4.666666 -0.4619395 0.9567114 3.333333 -0.4619395 0.9567114 4.666666 -0.4157342 1.388928 3.333333 -0.4157342 1.388928 4.666666 -0.3535528 1.767769 3.333333 -0.3535528 1.767769 4.666666 -0.2777845 2.078676 3.333333 -0.2777845 2.078676 4.666666 -0.1913409 2.3097 3.333333 -0.1913409 2.3097 4.666666 -0.09754425 2.451964 3.333333 -0.09754425 2.451964 4.666666 -0.203706 0.9946932 -9.682417 -0.203706 -1.005307 -9.682417 2.232596 -1.005307 -9.682417 2.232596 0.9946932 -9.682417 -0.203706 0.994693 -11 -0.203706 -1.005307 -11 2.232596 -1.005307 -11 2.232596 0.994693 -11 -0.203706 -0.00530678 -9.682417 1.232596 -1.005307 -10.37573 2.232596 -0.00530678 -9.682417 1.232596 0.9946931 -10.37573 1.232596 -0.00530678 -10.37573 -0.203706 0.4946932 -9.682417 0.7325964 -1.005307 -10.37573 2.232596 -0.5053068 -9.682417 1.732596 0.9946931 -10.37573 -0.203706 -0.5053068 -9.682417 1.732596 -1.005307 -10.37573 2.232596 0.4946932 -9.682417 0.7325964 0.9946931 -10.37573 1.732596 -0.00530678 -10.37573 0.7325964 -0.00530678 -10.37573 1.232596 0.4946932 -10.37573 1.232596 -0.5053069 -10.37573 1.732596 -0.5053069 -10.37573 1.732596 0.4946932 -10.37573 0.7325964 0.4946932 -10.37573 0.7325964 -0.5053069 -10.37573 1.982596 0.9946931 -10.00312 1.982596 -1.005307 -10.00312 1.982596 -0.00530678 -10.00312 1.982596 -0.5053069 -10.00312 1.982596 0.4946932 -10.00312 0.4825964 -1.005307 -10.00312 0.4825964 0.9946931 -10.00312 0.4825964 -0.00530678 -10.00312 0.4825964 0.4946932 -10.00312 0.4825964 -0.5053069 -10.00312 1.3411e-7 -1.000001 -4.666666 1.3411e-7 -1.000001 -10 0.03901815 -0.9807861 -4.666666 0.03901815 -0.9807868 -10 0.07653677 -0.9238803 -4.666666 0.07653677 -0.9238809 -10 0.1111141 -0.8314703 -4.666666 0.1111141 -0.8314709 -10 0.1414214 -0.7071076 -4.666666 0.1414214 -0.7071082 -10 0.166294 -0.5555709 -4.666666 0.166294 -0.5555715 -10 0.184776 -0.3826841 -4.666666 0.184776 -0.3826847 -10 0.1961572 -0.1950909 -4.666666 0.1961572 -0.1950915 -10 0.2 -7.1475e-7 -4.666666 0.2 -1.31873e-6 -10 0.1961572 0.1950895 -4.666666 0.1961572 0.1950888 -10 0.184776 0.3826826 -4.666666 0.184776 0.382682 -10 0.166294 0.5555694 -4.666666 0.166294 0.5555688 -10 0.1414214 0.7071061 -4.666666 0.1414214 0.7071055 -10 0.1111141 0.831469 -4.666666 0.1111141 0.8314684 -10 0.07653677 0.9238789 -4.666666 0.07653677 0.9238783 -10 0.03901815 0.9807847 -4.666666 0.03901815 0.9807841 -10 0 0.9999992 -4.666666 0 0.9999986 -10 -0.03901797 0.9807843 -4.666666 -0.03901797 0.9807837 -10 -0.07653659 0.9238786 -4.666666 -0.07653659 0.923878 -10 -0.111114 0.8314685 -4.666666 -0.111114 0.8314679 -10 -0.1414213 0.7071056 -4.666666 -0.1414213 0.7071051 -10 -0.1662937 0.5555689 -4.666666 -0.1662937 0.5555683 -10 -0.1847758 0.3826819 -4.666666 -0.1847758 0.3826813 -10 -0.1961569 0.1950888 -4.666666 -0.1961569 0.1950882 -10 -0.1999998 -1.66842e-6 -4.666666 -0.1999998 -2.27241e-6 -10 -0.1961567 -0.195092 -4.666666 -0.1961567 -0.1950926 -10 -0.1847757 -0.3826852 -4.666666 -0.1847757 -0.3826858 -10 -0.1662936 -0.5555721 -4.666666 -0.1662936 -0.5555727 -10 -0.141421 -0.7071085 -4.666666 -0.141421 -0.7071091 -10 -0.1111136 -0.8314712 -4.666666 -0.1111136 -0.8314718 -10 -0.07653623 -0.9238809 -4.666666 -0.07653623 -0.9238815 -10 -0.03901755 -0.9807864 -4.666666 -0.03901755 -0.980787 -10 1.3411e-7 -2.500001 -3.333333 1.3411e-7 -2.500001 -4.666666 0.09754526 -2.451964 -3.333333 0.09754526 -2.451964 -4.666666 0.1913418 -2.3097 -3.333333 0.1913418 -2.3097 -4.666666 0.2777853 -2.078675 -3.333333 0.2777853 -2.078675 -4.666666 0.3535535 -1.767767 -3.333333 0.3535535 -1.767768 -4.666666 0.415735 -1.388925 -3.333333 0.415735 -1.388926 -4.666666 0.4619399 -0.9567092 -3.333333 0.4619399 -0.9567094 -4.666666 0.4903928 -0.4877265 -3.333333 0.4903928 -0.4877266 -4.666666 0.5000001 -8.02173e-7 -3.333333 0.5000001 -9.53169e-7 -4.666666 0.4903928 0.487725 -3.333333 0.4903928 0.4877248 -4.666666 0.4619399 0.9567076 -3.333333 0.4619399 0.9567074 -4.666666 0.415735 1.388924 -3.333334 0.415735 1.388924 -4.666666 0.3535535 1.767766 -3.333334 0.3535535 1.767766 -4.666666 0.2777853 2.078673 -3.333334 0.2777853 2.078673 -4.666666 0.1913416 2.309698 -3.333334 0.1913416 2.309698 -4.666666 0.09754514 2.451962 -3.333334 0.09754514 2.451962 -4.666666 0 2.499999 -3.333334 0 2.499999 -4.666666 -0.0975452 2.451962 -3.333334 -0.0975452 2.451962 -4.666666 -0.1913418 2.309697 -3.333334 -0.1913418 2.309697 -4.666666 -0.2777853 2.078672 -3.333334 -0.2777853 2.078672 -4.666666 -0.3535535 1.767765 -3.333334 -0.3535535 1.767765 -4.666666 -0.4157348 1.388924 -3.333334 -0.4157348 1.388923 -4.666666 -0.4619398 0.9567062 -3.333333 -0.4619398 0.9567061 -4.666666 -0.4903926 0.4877231 -3.333333 -0.4903926 0.4877229 -4.666666 -0.4999999 -2.94794e-6 -3.333333 -0.4999999 -3.09894e-6 -4.666666 -0.4903925 -0.4877289 -3.333333 -0.4903925 -0.4877291 -4.666666 -0.4619395 -0.9567118 -3.333333 -0.4619395 -0.956712 -4.666666 -0.4157342 -1.388929 -3.333333 -0.4157342 -1.388929 -4.666666 -0.3535528 -1.767769 -3.333333 -0.3535528 -1.76777 -4.666666 -0.2777845 -2.078677 -3.333333 -0.2777845 -2.078677 -4.666666 -0.1913409 -2.309701 -3.333333 -0.1913409 -2.309701 -4.666666 -0.09754425 -2.451965 -3.333333 -0.09754425 -2.451965 -4.666666</float_array>
          <technique_common>
            <accessor source="#Cube_003-mesh-positions-array" count="342" stride="3">
              <param name="X" type="float"/>
              <param name="Y" type="float"/>
              <param name="Z" type="float"/>
            </accessor>
          </technique_common>
        </source>
        <source id="Cube_003-mesh-normals">
          <float_array id="Cube_003-mesh-normals-array" count="366">-0.9742111 0 0.2256385 0 -1 0 1 0 0 0 1 0 0 0 1 0 0 -1 -0.5369545 0 -0.8436112 -0.5773503 -0.5773503 0.5773503 0.5773503 0.5773503 0.5773503 -0.262614 0.8297748 -0.4924508 0 0.7071068 -0.7071068 0.3250585 0 -0.945694 0 -0.7071068 -0.7071068 0.5773503 -0.5773503 0.5773503 -0.8100696 0 -0.5863338 -0.5791305 0.6991927 -0.4192104 0.2727208 0.5440377 -0.7935027 -0.5773503 0.5773503 0.5773503 0.470547 0 -0.882375 0.262614 0.8297748 -0.4924508 -0.470547 0 -0.882375 -0.5791305 -0.6991927 -0.4192104 0.262614 -0.8297748 -0.4924508 0.4936491 -0.6514642 -0.5761122 0.6506934 0 -0.7593407 0.4936491 0.6514642 -0.5761122 -0.262614 -0.8297748 -0.4924508 -0.4456786 -0.5577774 -0.7001821 -0.4456786 0.5577774 -0.7001821 0 0.7847039 -0.6198709 0 0.7847039 0.6198709 0.5011883 0.5682697 0.6525946 0.5011883 0.5682697 -0.6525946 0.6513057 0.3312225 0.6827098 0.6513057 0.3312225 -0.6827098 0.6881481 0.211773 0.6939772 0.6881481 0.211773 -0.6939772 0.7011165 0.1427381 0.698614 0.7011165 0.1427381 -0.698614 0.7068604 0.0957089 0.7008481 0.7068604 0.0957089 -0.7008481 0.7097226 0.05942076 0.7019708 0.7097226 0.05942076 -0.7019708 0.7110787 0.0285359 0.7025331 0.7110787 0.0285359 -0.7025331 0.7114878 0 0.7026984 0.7114878 0 -0.7026984 0.7110787 -0.0285359 0.7025331 0.7110787 -0.0285359 -0.7025331 0.7097226 -0.05942076 0.7019708 0.7097226 -0.05942076 -0.7019708 0.7068604 -0.0957089 0.7008481 0.7068604 -0.0957089 -0.7008481 0.7011165 -0.1427381 0.698614 0.7011165 -0.1427381 -0.698614 0.6881481 -0.211773 0.6939772 0.6881481 -0.211773 -0.6939772 0.6513057 -0.3312225 0.6827098 0.6513057 -0.3312225 -0.6827098 0.5011883 -0.5682697 0.6525946 0.5011883 -0.5682697 -0.6525946 0 -0.7847039 0.6198709 0 -0.7847039 -0.6198709 -0.5011883 -0.5682697 0.6525946 -0.5011883 -0.5682697 -0.6525946 -0.6513057 -0.3312225 0.6827098 -0.6513057 -0.3312225 -0.6827098 -0.6881481 -0.211773 0.6939772 -0.6881481 -0.211773 -0.6939772 -0.7011165 -0.1427381 0.698614 -0.7011165 -0.1427381 -0.698614 -0.7068604 -0.0957089 0.7008481 -0.7068604 -0.0957089 -0.7008481 -0.7097226 -0.05942076 0.7019708 -0.7097226 -0.05942076 -0.7019708 -0.7110787 -0.0285359 0.7025331 -0.7110787 -0.0285359 -0.7025331 -0.7114878 0 0.7026984 -0.7114878 0 -0.7026984 -0.7110787 0.0285359 0.7025331 -0.7110787 0.0285359 -0.7025331 -0.7097226 0.05942076 0.7019708 -0.7097226 0.05942076 -0.7019708 -0.7068604 0.0957089 0.7008481 -0.7068604 0.0957089 -0.7008481 -0.7011165 0.1427381 0.698614 -0.7011165 0.1427381 -0.698614 -0.6881481 0.211773 0.6939772 -0.6881481 0.211773 -0.6939772 -0.6513057 0.3312225 0.6827098 -0.5011883 0.5682697 -0.6525946 -0.5011883 0.5682697 0.6525946 -0.6513057 0.3312225 -0.6827098 0.2727208 -0.5440377 -0.7935027 -0.5369545 0 0.8436112 -0.5773503 0.5773503 -0.5773503 0.5773503 -0.5773503 -0.5773503 -0.262614 -0.8297748 0.4924508 0 -0.7071068 0.7071068 0.3250585 0 0.945694 0 0.7071068 0.7071068 0.5773503 0.5773503 -0.5773503 -0.8100551 0 0.5863538 -0.5791305 -0.6991927 0.4192104 0.2727208 -0.5440377 0.7935027 -0.5773503 -0.5773503 -0.5773503 -0.8100696 0 0.5863338 0.470547 0 0.882375 0.262614 -0.8297748 0.4924508 -0.470547 0 0.882375 -0.5791305 0.6991927 0.4192104 0.262614 0.8297748 0.4924508 0.4936491 0.6514642 0.5761122 0.6506934 0 0.7593407 0.4936491 -0.6514642 0.5761122 -0.262614 0.8297748 0.4924508 -0.4456786 0.5577774 0.7001821 -0.4456786 -0.5577774 0.7001821 0.2727208 0.5440377 0.7935027 -0.9742111 0 0.2256385 0 -1 0 0 1 -1.32274e-7</float_array>
          <technique_common>
            <accessor source="#Cube_003-mesh-normals-array" count="122" stride="3">
              <param name="X" type="float"/>
              <param name="Y" type="float"/>
              <param name="Z" type="float"/>
            </accessor>
          </technique_common>
        </source>
        <vertices id="Cube_003-mesh-vertices">
          <input semantic="POSITION" source="#Cube_003-mesh-positions"/>
        </vertices>
        <triangles material="マテリアル-material" count="656">
          <input semantic="VERTEX" source="#Cube_003-mesh-vertices" offset="0"/>
          <input semantic="NORMAL" source="#Cube_003-mesh-normals" offset="1"/>
          <p>1 0 3 0 2 0 7 1 6 1 2 1 5 2 4 2 6 2 5 3 1 3 0 3 2 4 6 4 4 4 7 5 3 5 1 5 16 6 21 6 12 7 14 8 26 9 17 10 18 11 23 11 14 8 19 12 15 13 12 7 40 14 38 15 10 16 15 13 14 8 13 17 41 14 39 14 18 11 35 18 30 18 20 5 36 18 22 19 17 10 39 14 40 14 23 11 20 5 32 5 33 20 32 5 17 10 26 9 37 21 41 14 27 11 19 12 31 5 34 20 31 5 20 5 29 20 28 22 35 18 31 5 43 23 45 24 35 18 45 24 44 24 30 18 30 18 36 18 32 5 44 24 46 24 36 18 46 24 42 25 22 19 33 20 26 9 38 15 34 20 29 20 39 14 29 20 33 20 40 14 24 26 34 20 41 14 8 27 21 6 45 24 21 6 16 6 44 24 16 6 25 6 46 24 25 6 9 28 42 25 47 29 48 30 50 31 49 32 50 31 52 33 51 34 52 33 54 35 53 36 54 35 56 37 55 38 56 37 58 39 57 40 58 39 60 41 59 42 60 41 62 43 61 44 62 43 64 45 63 46 64 45 66 47 65 48 66 47 68 49 67 50 68 49 70 51 69 52 70 51 72 53 71 54 72 53 74 55 73 56 74 55 76 57 75 58 76 57 78 59 77 60 78 59 80 61 79 62 80 61 82 63 81 64 82 63 84 65 83 66 84 65 86 67 85 68 86 67 88 69 87 70 88 69 90 71 89 72 90 71 92 73 91 74 92 73 94 75 93 76 94 75 96 77 95 78 96 77 98 79 97 80 98 79 100 81 99 82 100 81 102 83 101 84 102 83 104 85 103 86 104 85 106 87 105 88 106 87 108 89 100 81 60 41 58 39 109 90 110 91 48 30 107 92 108 89 110 91 61 44 63 46 95 78 111 29 112 30 114 31 113 32 114 31 116 33 115 34 116 33 118 35 117 36 118 35 120 37 119 38 120 37 122 39 121 40 122 39 124 41 123 42 124 41 126 43 125 44 126 43 128 45 127 46 128 45 130 47 129 48 130 47 132 49 131 50 132 49 134 51 133 52 134 51 136 53 135 54 136 53 138 55 137 56 138 55 140 57 139 58 140 57 142 59 141 60 142 59 144 61 143 62 144 61 146 63 145 64 146 63 148 65 147 66 148 65 150 67 149 68 150 67 152 69 151 70 152 69 154 71 153 72 154 71 156 73 155 74 156 73 158 75 157 76 158 75 160 77 159 78 160 77 162 79 161 80 162 79 164 81 163 82 164 81 166 83 165 84 166 83 168 85 167 86 168 85 170 87 169 88 170 87 172 89 164 81 124 41 122 39 173 90 174 91 112 30 171 92 172 89 174 91 135 54 149 68 151 70 13 17 16 6 12 7 13 17 9 28 25 6 14 8 10 16 38 15 13 17 25 6 16 6 21 6 8 27 12 7 15 13 18 11 14 8 9 28 13 17 42 25 14 8 38 15 26 9 14 8 17 10 13 17 17 10 22 19 13 17 13 17 22 19 42 25 15 13 11 93 27 11 12 7 8 27 43 23 15 13 27 11 18 11 23 11 10 16 14 8 24 26 15 13 19 12 11 93 15 13 37 21 12 7 43 23 28 22 23 11 40 14 10 16 28 22 19 12 12 7 15 13 24 26 37 21 12 7 15 13 13 17 27 11 41 14 18 11 31 5 35 18 20 5 32 5 36 18 17 10 18 11 39 14 23 11 29 20 20 5 33 20 33 20 32 5 26 9 11 93 37 21 27 11 24 26 19 12 34 20 34 20 31 5 29 20 19 12 28 22 31 5 28 22 43 23 35 18 35 18 45 24 30 18 20 5 30 18 32 5 30 18 44 24 36 18 36 18 46 24 22 19 40 14 33 20 38 15 41 14 34 20 39 14 39 14 29 20 40 14 37 21 24 26 41 14 43 23 8 27 45 24 45 24 21 6 44 24 44 24 16 6 46 24 46 24 25 6 42 25 49 32 47 29 50 31 51 34 49 32 52 33 53 36 51 34 54 35 55 38 53 36 56 37 57 40 55 38 58 39 59 42 57 40 60 41 61 44 59 42 62 43 63 46 61 44 64 45 65 48 63 46 66 47 67 50 65 48 68 49 69 52 67 50 70 51 71 54 69 52 72 53 73 56 71 54 74 55 75 58 73 56 76 57 77 60 75 58 78 59 79 62 77 60 80 61 81 64 79 62 82 63 83 66 81 64 84 65 85 68 83 66 86 67 87 70 85 68 88 69 89 72 87 70 90 71 91 74 89 72 92 73 93 76 91 74 94 75 95 78 93 76 96 77 97 80 95 78 98 79 99 82 97 80 100 81 101 84 99 82 102 83 103 86 101 84 104 85 105 88 103 86 106 87 107 92 105 88 108 89 98 79 62 43 60 41 108 89 50 31 110 91 76 57 84 65 82 63 72 53 88 69 86 67 64 45 62 43 96 77 68 49 66 47 92 73 88 69 70 51 90 71 84 65 74 55 86 67 108 89 52 33 50 31 76 57 82 63 78 59 106 87 104 85 54 35 102 83 100 81 58 39 96 77 94 75 64 45 100 81 98 79 60 41 56 37 102 83 58 39 52 33 106 87 54 35 50 31 48 30 110 91 94 75 66 47 64 45 47 29 109 90 48 30 104 85 56 37 54 35 82 63 80 61 78 59 84 65 76 57 74 55 68 49 92 73 90 71 52 33 108 89 106 87 88 69 72 53 70 51 62 43 98 79 96 77 70 51 68 49 90 71 74 55 72 53 86 67 66 47 94 75 92 73 56 37 104 85 102 83 109 90 107 92 110 91 109 90 47 29 49 32 59 42 61 44 97 80 57 40 101 84 55 38 51 34 53 36 105 88 65 48 93 76 63 46 107 92 109 90 49 32 73 56 85 68 71 54 83 66 85 68 73 56 77 60 79 62 81 64 51 34 107 92 49 32 89 72 69 52 87 70 101 84 103 86 55 38 97 80 61 44 95 78 91 74 93 76 65 48 105 88 53 36 103 86 75 58 77 60 81 64 67 50 69 52 89 72 63 46 93 76 95 78 99 82 59 42 97 80 107 92 51 34 105 88 113 32 111 29 114 31 59 42 99 82 57 40 91 74 67 50 89 72 83 66 75 58 81 64 71 54 85 68 87 70 103 86 53 36 55 38 75 58 83 66 73 56 69 52 71 54 87 70 67 50 91 74 65 48 99 82 101 84 57 40 115 34 113 32 116 33 117 36 115 34 118 35 119 38 117 36 120 37 121 40 119 38 122 39 123 42 121 40 124 41 125 44 123 42 126 43 127 46 125 44 128 45 129 48 127 46 130 47 131 50 129 48 132 49 133 52 131 50 134 51 135 54 133 52 136 53 137 56 135 54 138 55 139 58 137 56 140 57 141 60 139 58 142 59 143 62 141 60 144 61 145 64 143 62 146 63 147 66 145 64 148 65 149 68 147 66 150 67 151 70 149 68 152 69 153 72 151 70 154 71 155 74 153 72 156 73 157 76 155 74 158 75 159 78 157 76 160 77 161 80 159 78 162 79 163 82 161 80 164 81 165 84 163 82 166 83 167 86 165 84 168 85 169 88 167 86 170 87 171 92 169 88 172 89 162 79 126 43 124 41 172 89 114 31 174 91 172 89 116 33 114 31 136 53 152 69 150 67 128 45 126 43 160 77 132 49 130 47 156 73 152 69 134 51 154 71 148 65 138 55 150 67 144 61 142 59 146 63 140 57 148 65 142 59 170 87 168 85 118 35 166 83 164 81 122 39 160 77 158 75 128 45 164 81 162 79 124 41 120 37 166 83 122 39 116 33 170 87 118 35 114 31 112 30 174 91 158 75 130 47 128 45 111 29 173 90 112 30 168 85 120 37 118 35 142 59 148 65 146 63 138 55 136 53 150 67 132 49 156 73 154 71 148 65 140 57 138 55 152 69 136 53 134 51 126 43 162 79 160 77 134 51 132 49 154 71 116 33 172 89 170 87 130 47 158 75 156 73 120 37 168 85 166 83 173 90 171 92 174 91 173 90 111 29 113 32 163 82 165 84 121 40 121 40 165 84 119 38 115 34 117 36 169 88 129 48 157 76 127 46 171 92 173 90 113 32 137 56 149 68 135 54 141 60 147 66 139 58 141 60 143 62 145 64 115 34 171 92 113 32 153 72 133 52 151 70 165 84 167 86 119 38 161 80 125 44 159 78 123 42 125 44 161 80 169 88 117 36 167 86 147 66 149 68 137 56 131 50 133 52 153 72 127 46 157 76 159 78 163 82 123 42 161 80 171 92 115 34 169 88 123 42 163 82 121 40 155 74 131 50 153 72 141 60 145 64 147 66 139 58 147 66 137 56 167 86 117 36 119 38 125 44 127 46 159 78 133 52 135 54 151 70 131 50 155 74 129 48 155 74 157 76 129 48 183 94 188 94 179 95 181 96 193 97 184 98 185 99 190 99 181 96 186 100 182 101 179 95 207 102 205 103 177 104 182 101 181 96 180 105 208 102 206 106 185 99 202 107 197 107 187 4 203 107 189 108 184 98 206 106 207 102 190 99 187 4 199 4 200 109 199 4 184 98 193 97 204 110 208 102 194 99 186 100 198 4 201 109 198 4 187 4 196 109 195 111 202 107 198 4 210 112 212 113 202 107 212 113 211 113 197 107 197 107 203 107 199 4 211 113 213 113 203 107 213 113 209 114 189 108 200 109 193 97 205 103 201 109 196 109 206 106 196 109 200 109 207 102 191 115 201 109 208 102 175 116 188 94 212 113 188 94 183 94 211 113 183 94 192 94 213 113 192 94 176 117 209 114 214 61 215 62 217 60 216 59 217 60 219 58 218 57 219 58 221 56 220 55 221 56 223 54 222 53 223 54 225 52 224 51 225 52 227 50 226 49 227 50 229 48 228 47 229 48 231 46 230 45 231 46 233 44 232 43 233 44 235 42 234 41 235 42 237 40 236 39 237 40 239 38 238 37 239 38 241 36 240 35 241 36 243 34 242 33 243 34 245 32 244 31 245 32 247 29 246 30 247 29 249 90 248 91 249 90 251 92 250 89 251 92 253 88 252 87 253 88 255 86 254 85 255 86 257 84 256 83 257 84 259 82 258 81 259 82 261 80 260 79 261 80 263 78 262 77 263 78 265 76 264 75 265 76 267 74 266 73 267 74 269 72 268 71 269 72 271 70 270 69 271 70 273 68 272 67 273 68 275 66 267 74 227 50 225 52 276 63 277 64 215 62 274 65 275 66 277 64 228 47 230 45 262 77 278 61 279 62 281 60 280 59 281 60 283 58 282 57 283 58 285 56 284 55 285 56 287 54 286 53 287 54 289 52 288 51 289 52 291 50 290 49 291 50 293 48 292 47 293 48 295 46 294 45 295 46 297 44 296 43 297 44 299 42 298 41 299 42 301 40 300 39 301 40 303 38 302 37 303 38 305 36 304 35 305 36 307 34 306 33 307 34 309 32 308 31 309 32 311 29 310 30 311 29 313 90 312 91 313 90 315 92 314 89 315 92 317 88 316 87 317 88 319 86 318 85 319 86 321 84 320 83 321 84 323 82 322 81 323 82 325 80 324 79 325 80 327 78 326 77 327 78 329 76 328 75 329 76 331 74 330 73 331 74 333 72 332 71 333 72 335 70 334 69 335 70 337 68 336 67 337 68 339 66 331 74 291 50 289 52 340 63 341 64 279 62 338 65 339 66 341 64 302 37 316 87 318 85 180 105 183 94 179 95 180 105 176 117 192 94 181 96 177 104 205 103 180 105 192 94 183 94 188 94 175 116 179 95 182 101 185 99 181 96 176 117 180 105 209 114 181 96 205 103 193 97 181 96 184 98 180 105 184 98 189 108 180 105 180 105 189 108 209 114 182 101 178 118 194 99 179 95 175 116 210 112 182 101 194 99 185 99 190 99 177 104 181 96 191 115 182 101 186 100 178 118 182 101 204 110 179 95 210 112 195 111 190 99 207 102 177 104 195 111 186 100 179 95 182 101 191 115 204 110 179 95 182 101 180 105 194 99 208 102 185 99 198 4 202 107 187 4 199 4 203 107 184 98 185 99 206 106 190 99 196 109 187 4 200 109 200 109 199 4 193 97 178 118 204 110 194 99 191 115 186 100 201 109 201 109 198 4 196 109 186 100 195 111 198 4 195 111 210 112 202 107 202 107 212 113 197 107 187 4 197 107 199 4 197 107 211 113 203 107 203 107 213 113 189 108 207 102 200 109 205 103 208 102 201 109 206 106 206 106 196 109 207 102 204 110 191 115 208 102 210 112 175 116 212 113 212 113 188 94 211 113 211 113 183 94 213 113 213 113 192 94 209 114 216 59 214 61 217 60 218 57 216 59 219 58 220 55 218 57 221 56 222 53 220 55 223 54 224 51 222 53 225 52 226 49 224 51 227 50 228 47 226 49 229 48 230 45 228 47 231 46 232 43 230 45 233 44 234 41 232 43 235 42 236 39 234 41 237 40 238 37 236 39 239 38 240 35 238 37 241 36 242 33 240 35 243 34 244 31 242 33 245 32 246 30 244 31 247 29 248 91 246 30 249 90 250 89 248 91 251 92 252 87 250 89 253 88 254 85 252 87 255 86 256 83 254 85 257 84 258 81 256 83 259 82 260 79 258 81 261 80 262 77 260 79 263 78 264 75 262 77 265 76 266 73 264 75 267 74 268 71 266 73 269 72 270 69 268 71 271 70 272 67 270 69 273 68 274 65 272 67 275 66 265 76 229 48 227 50 275 66 217 60 277 64 243 34 251 92 249 90 239 38 255 86 253 88 231 46 229 48 263 78 235 42 233 44 259 82 255 86 237 40 257 84 251 92 241 36 253 88 275 66 219 58 217 60 243 34 249 90 245 32 273 68 271 70 221 56 269 72 267 74 225 52 263 78 261 80 231 46 267 74 265 76 227 50 223 54 269 72 225 52 219 58 273 68 221 56 217 60 215 62 277 64 261 80 233 44 231 46 214 61 276 63 215 62 271 70 223 54 221 56 249 90 247 29 245 32 251 92 243 34 241 36 235 42 259 82 257 84 219 58 275 66 273 68 255 86 239 38 237 40 229 48 265 76 263 78 237 40 235 42 257 84 241 36 239 38 253 88 233 44 261 80 259 82 223 54 271 70 269 72 276 63 274 65 277 64 276 63 214 61 216 59 226 49 228 47 264 75 224 51 268 71 222 53 218 57 220 55 272 67 232 43 260 79 230 45 274 65 276 63 216 59 240 35 252 87 238 37 250 89 252 87 240 35 244 31 246 30 248 91 218 57 274 65 216 59 256 83 236 39 254 85 268 71 270 69 222 53 264 75 228 47 262 77 258 81 260 79 232 43 272 67 220 55 270 69 242 33 244 31 248 91 234 41 236 39 256 83 230 45 260 79 262 77 266 73 226 49 264 75 274 65 218 57 272 67 280 59 278 61 281 60 226 49 266 73 224 51 258 81 234 41 256 83 250 89 242 33 248 91 238 37 252 87 254 85 270 69 220 55 222 53 242 33 250 89 240 35 236 39 238 37 254 85 234 41 258 81 232 43 266 73 268 71 224 51 282 57 280 59 283 58 284 55 282 57 285 56 286 53 284 55 287 54 288 51 286 53 289 52 290 49 288 51 291 50 292 47 290 49 293 48 294 45 292 47 295 46 296 43 294 45 297 44 298 41 296 43 299 42 300 39 298 41 301 40 302 37 300 39 303 38 304 35 302 37 305 36 306 33 304 35 307 34 308 31 306 33 309 32 310 30 308 31 311 29 312 91 310 30 313 90 314 89 312 91 315 92 316 87 314 89 317 88 318 85 316 87 319 86 320 83 318 85 321 84 322 81 320 83 323 82 324 79 322 81 325 80 326 77 324 79 327 78 328 75 326 77 329 76 330 73 328 75 331 74 332 71 330 73 333 72 334 69 332 71 335 70 336 67 334 69 337 68 338 65 336 67 339 66 329 76 293 48 291 50 339 66 281 60 341 64 339 66 283 58 281 60 303 38 319 86 317 88 295 46 293 48 327 78 299 42 297 44 323 82 319 86 301 40 321 84 315 92 305 36 317 88 311 29 309 32 313 90 307 34 315 92 309 32 337 68 335 70 285 56 333 72 331 74 289 52 327 78 325 80 295 46 331 74 329 76 291 50 287 54 333 72 289 52 283 58 337 68 285 56 281 60 279 62 341 64 325 80 297 44 295 46 278 61 340 63 279 62 335 70 287 54 285 56 309 32 315 92 313 90 305 36 303 38 317 88 299 42 323 82 321 84 315 92 307 34 305 36 319 86 303 38 301 40 293 48 329 76 327 78 301 40 299 42 321 84 283 58 339 66 337 68 297 44 325 80 323 82 287 54 335 70 333 72 340 63 338 65 341 64 340 63 278 61 280 59 330 73 332 71 288 51 288 51 332 71 286 53 282 57 284 55 336 67 296 43 324 79 294 45 338 65 340 63 280 59 304 35 316 87 302 37 308 31 314 89 306 33 308 31 310 30 312 91 282 57 338 65 280 59 320 83 300 39 318 85 332 71 334 69 286 53 328 75 292 47 326 77 290 49 292 47 328 75 336 67 284 55 334 69 314 89 316 87 304 35 298 41 300 39 320 83 294 45 324 79 326 77 330 73 290 49 328 75 338 65 282 57 336 67 290 49 330 73 288 51 322 81 298 41 320 83 308 31 312 91 314 89 306 33 314 89 304 35 334 69 284 55 286 53 292 47 294 45 326 77 300 39 302 37 318 85 298 41 322 81 296 43 322 81 324 79 296 43 0 119 1 119 2 119 3 120 7 120 2 120 7 2 5 2 6 2 4 121 5 121 0 121 0 4 2 4 4 4 5 5 7 5 1 5</p>
        </triangles>
      </mesh>
    </geometry>
  </library_geometries>
  <library_visual_scenes>
    <visual_scene id="Scene" name="Scene">
      <node id="Door_handle_001" name="Door_handle_001" type="NODE">
        <matrix sid="transform">0.05 0 0 0 0 -0.01 1.13247e-9 0 0 -1.50996e-9 -0.0075 -9.09495e-13 0 0 0 1</matrix>
        <instance_geometry url="#Cube_003-mesh" name="Door_handle_001">
          <bind_material>
            <technique_common>
              <instance_material symbol="マテリアル-material" target="#マテリアル-material"/>
            </technique_common>
          </bind_material>
        </instance_geometry>
      </node>
    </visual_scene>
  </library_visual_scenes>
  <scene>
    <instance_visual_scene url="#Scene"/>
  </scene>
</COLLADA>