<?xml version="1.0" encoding="UTF-8"?>
<COLLADA xmlns="http://www.collada.org/2005/11/COLLADASchema" version="1.4.1">
    <asset>
        <contributor>
            <author>VCGLab</author>
            <authoring_tool>VCGLib | MeshLab</authoring_tool>
        </contributor>
        <created>Thu Jul 3 01:54:04 2025 GMT</created>
        <modified>Thu Jul 3 01:54:04 2025 GMT</modified>
        <up_axis>Y_UP</up_axis>
    </asset>
    <library_images>
        <image id="texture0" name="texture0">
            <init_from>./image/shelf_books.png</init_from>
        </image>
    </library_images>
    <library_materials>
        <material id="material0" name="material0">
            <instance_effect url="#material0-fx"/>
        </material>
    </library_materials>
    <library_effects>
        <effect id="material0-fx">
            <profile_COMMON>
                <newparam sid="texture0-surface">
                    <surface type="2D">
                        <init_from>texture0</init_from>
                        <format>R8G8B8</format>
                    </surface>
                </newparam>
                <newparam sid="texture0-sampler">
                    <sampler2D>
                        <source>texture0-surface</source>
                        <minfilter>LINEAR</minfilter>
                        <magfilter>LINEAR</magfilter>
                    </sampler2D>
                </newparam>
                <technique sid="common">
                    <blinn>
                        <diffuse>
                            <texture texture="texture0-sampler" texcoord="UVSET0"/>
                        </diffuse>
                    </blinn>
                </technique>
            </profile_COMMON>
        </effect>
    </library_effects>
    <library_geometries>
        <geometry id="shape0-lib" name="shape0">
            <mesh>
                <source id="shape0-lib-positions" name="position">
                    <float_array id="shape0-lib-positions-array" count="261">0.0214858 0.000952273 -0.0547915 0.0241541 0.163739 -0.0547915 0.0437005 0.000492006 -0.0547915 0.0242833 0.000894218 0.0658085 0.0241541 0.163739 0.0623915 0.0430178 0.00050608 0.0650096 0.0451622 0.163439 0.0652005 0.0257322 0.163656 0.0655637 0.0476707 0.000667482 -0.0547915 0.0695601 0.163694 -0.0547915 0.06989 0.000594884 -0.0547915 0.0484086 0.000664973 0.0649316 0.0689537 0.163677 0.0648317 0.0692846 0.000596826 0.0649523 0.0492186 0.163767 0.0655347 0.0715359 0.0005894 -0.0547915 0.0712059 0.172383 -0.0547915 0.0934253 0.17231 -0.0547915 0.0937552 0.000516802 -0.0547915 0.0721423 0.000587445 0.0648317 0.0718113 0.172381 0.0649523 0.0928188 0.172312 0.0648317 0.0931498 0.000518877 0.0649523 0.0962241 0.000508695 -0.0547915 0.095894 0.172302 -0.0547915 0.118113 0.17223 -0.0547915 0.118443 0.000436097 -0.0547915 0.0968306 0.000506658 0.0648318 0.0964994 0.1723 0.0649523 0.117507 0.172232 0.064832 0.117838 0.000438108 0.0649526 -0.119846 0.172725 -0.0547915 -0.0976312 0.172265 -0.0547915 -0.100299 0.000492006 -0.0547915 -0.119187 0.172711 0.0650029 -0.0982377 0.172278 0.0648317 -0.100904 0.000504456 0.064952 -0.0963293 0.000667482 -0.0547915 -0.0966593 0.189006 -0.0547915 -0.07444 0.188785 -0.0547915 -0.0741099 0.000594884 -0.0547915 -0.0957228 0.000665516 0.0648317 -0.0966593 0.189006 0.0623915 -0.0750427 0.18888 0.0648211 -0.0741099 0.000594884 0.0623915 -0.0754487 0.000599314 0.0653943 -0.0953256 0.189226 0.0653879 -0.0724641 0.0005894 -0.0547915 -0.0727941 0.172383 -0.0547915 -0.0505748 0.17231 -0.0547915 -0.0502448 0.000516802 -0.0547915 -0.0718576 0.000587445 0.0648317 -0.0721887 0.172381 0.0649523 -0.0511813 0.172312 0.0648318 -0.0508502 0.000518877 0.0649523 -0.047776 0.000508695 -0.0547915 -0.0482085 0.187351 -0.0547915 -0.025964 0.186437 -0.0547915 -0.0255567 0.000436097 -0.0547915 -0.0471695 0.000506679 0.0648317 -0.0482085 0.187351 0.0623915 -0.0265708 0.186492 0.0648295 -0.0261624 0.000438105 0.0649521 -0.0468711 0.187412 0.0653929 -0.0230879 0.000427991 -0.0547915 -0.0234179 0.172221 -0.0547915 -0.00119853 0.172149 -0.0547915 -0.000868557 0.000355392 -0.0547915 -0.0224814 0.00042597 0.0648317 -0.0228125 0.172219 0.0649523 -0.00180506 0.172151 0.0648317 -0.00147398 0.000357353 0.0649523 0.00160027 0.000347286 -0.0547915 0.00127018 0.172141 -0.0547915 0.0234896 0.172068 -0.0547915 0.0238196 0.000274688 -0.0547915 0.00223102 0.00038847 0.0649054 0.00187558 0.172139 0.0649523 0.0206915 0.172077 0.0658085 0.0210215 0.000283867 0.0658085 0.0238196 0.000274688 0.0623915 0.02327 0.172067 0.0641161 -0.122514 0.000952273 -0.0547915 -0.12193 0.000940252 0.0648094 0.022271 0.000936141 0.0648044 0.0463687 0.163464 -0.0547915 0.0463687 0.163464 0.0623915</float_array>
                    <technique_common>
                        <accessor count="87" source="#shape0-lib-positions-array" stride="3">
                            <param name="X" type="float"/>
                            <param name="Y" type="float"/>
                            <param name="Z" type="float"/>
                        </accessor>
                    </technique_common>
                </source>
                <source id="shape0-lib-normals" name="normal">
                    <float_array id="shape0-lib-normals-array" count="420">-0.999866 0.0163892 0 -0.99991 0.0116632 0.0065662 0.0186729 -0.00141719 0.999825 0.0426263 0.00112315 0.99909 0.999985 0.00202265 0.00505566 0.999985 0.0020328 0.00506948 0.0356013 0.000811297 0.999366 -0.00100636 -0.00369281 0.999993 0 0 -1 0 0 -1 -0.999985 -0.00192089 0.00505572 -0.999985 -0.00193052 0.00506954 0.999985 0.00192029 0.00505585 0.999985 0.00193044 0.00507041 0.0057414 0.000712899 0.999983 -0.00574211 -0.000712901 0.999983 0 0 -1 0 0 -1 -0.999985 -0.00192146 0.00505547 -0.999985 -0.00193139 0.00506972 0.999985 0.00192084 0.00505347 0.999985 0.00193052 0.00506736 0.00573217 0.000713011 0.999983 -0.00574889 -0.000712486 0.999983 -0.0207146 -0.999785 1.13772e-06 -0.0207245 -0.999785 -6.44211e-07 -0.00326732 -0.999995 -8.21679e-07 -0.00326432 -0.999995 -2.82466e-07 0.00328543 0.999995 -1.1542e-06 0.00327141 0.999995 1.37987e-06 -0.00326732 -0.999995 2.20614e-07 -0.00326396 -0.999995 8.28972e-07 0.00324375 0.999995 2.64047e-06 0.00323989 0.999995 3.3385e-06 -0.00326738 -0.999995 -4.66506e-07 -0.00326313 -0.999995 3.01528e-07 0.999867 -0.0155289 0.00505753 0.999867 -0.0155196 0.0050708 0.00818607 0.000573558 0.999966 -0.00680585 -0.0010181 0.999976 0 0 -1 0 0 -1 0.913329 -0.000729747 0.407222 -0.913611 0.00072538 0.406588 -0.999999 -0.00175217 0 -0.999975 -0.00490634 0.0050695 0.999998 0.0017541 0 0.999975 0.00488924 0.00503493 0.0279849 0.00298281 0.999604 -0.0277447 -0.00288982 0.999611 0 0 -1 0 0 -1 -0.999985 -0.00192089 0.0050561 -0.999985 -0.00193069 0.00507016 0.999985 0.00192089 0.00505585 0.999985 0.00193054 0.00506969 0.00573823 0.000712547 0.999983 -0.00574142 -0.00071277 0.999983 0 0 -1 0 0 -1 -0.913429 0.000235895 0.406999 -0.999997 -0.00231479 0 -0.999972 -0.00549456 0.00507007 0.999985 0.00218974 0.00505839 0.999985 0.00219829 0.00507168 0.0277773 0.000719702 0.999614 -0.00574184 -0.00299365 0.999979 0 0 -1 0 0 -1 -0.999985 -0.00192088 0.0050559 -0.999985 -0.00193073 0.00507002 0.999985 0.00192072 0.00505592 0.999985 0.00193069 0.00507022 0.00574 0.000712681 0.999983 -0.00574283 -0.000713034 0.999983 0 0 -1 0 0 -1 -0.999985 -0.0019214 0.00505567 -0.999984 -0.00207095 0.00527021 0.999998 0.00192091 0 0.999993 0.00318064 0.00184682 -0.0454576 -8.73204e-05 0.998966 -0.0480082 -0.000372076 0.998847 0.0207031 0.999786 -2.75698e-07 0.0207018 0.999786 -4.89113e-08 0.0147466 0.996715 -0.0796402 0.00994577 0.99995 -0.000746648 0.00581448 0.999983 0 -0.00326586 -0.999995 1.92798e-05 -0.00326731 -0.999995 1.32667e-07 -0.00326804 -0.999995 0 0.00328545 0.999995 -1.15647e-06 0.00327142 0.999995 1.37861e-06 -0.00326732 -0.999995 2.22648e-07 -0.00326396 -0.999995 8.29924e-07 0.0396731 0.999213 0 0.0410545 0.999157 -0.000250268 0.0441249 0.998231 -0.0398563 -0.00326732 -0.999995 -2.85727e-07 -0.00326431 -0.999995 2.58915e-07 0.00324051 0.999995 3.22633e-06 0.00327139 0.999995 -2.35387e-06 -0.00326736 -0.999995 -3.29159e-07 -0.00326629 -0.999995 -1.36076e-07 0.00331626 0.999994 -0.000652882 0.00328543 0.999995 1.15815e-05 0.00334182 0.999994 1.14855e-06 -0.00326732 -0.999995 0.000361286 -0.00527041 -0.999986 0 0 0 -1 0 0 -1 0.918798 -0.0125544 0.394529 -0.895029 0.0169581 0.445686 -0.4464 0.00531949 0.894818 0.99985 -0.0163697 0.0056994 0.999789 -0.0205584 0 0 0 -1 0 0 -1 -0.740887 0.00119581 0.671628 -0.999968 -0.00799746 0 -0.999904 -0.0124326 0.00616221 0.0123771 0.999821 0.0142796 0.0115784 0.999728 0.0202426 0.0123783 0.999923 0 0.0123783 0.999923 0 -0.0207224 -0.999785 -0.000212955 0.00108889 0.995283 -0.0970069 -0.00991696 0.999951 9.07317e-05 -0.00943643 0.999955 0 0 0 -1 0 0 -1 -0.999864 0.01553 0.00550009 -0.999861 0.01596 0.00488357 0.841229 -0.00273652 0.540672 0.54871 0.000158908 0.836013 0.626049 0.00120259 0.779783 -0.0207143 -0.999785 6.5303e-07 -0.0207225 -0.999785 -8.386e-07 0.0205729 -0.849927 -0.526498 0.0276346 -0.959386 0.28074</float_array>
                    <technique_common>
                        <accessor count="140" source="#shape0-lib-normals-array" stride="3">
                            <param name="X" type="float"/>
                            <param name="Y" type="float"/>
                            <param name="Z" type="float"/>
                        </accessor>
                    </technique_common>
                </source>
                <source id="shape0-lib-vcolor" name="vcolor">
                    <float_array id="shape0-lib-vcolor-array" count="348">1 1 1 1 1 1 1 1 1 1 1 1 1 1 1 1 1 1 1 1 1 1 1 1 1 1 1 1 1 1 1 1 1 1 1 1 1 1 1 1 1 1 1 1 1 1 1 1 1 1 1 1 1 1 1 1 1 1 1 1 1 1 1 1 1 1 1 1 1 1 1 1 1 1 1 1 1 1 1 1 1 1 1 1 1 1 1 1 1 1 1 1 1 1 1 1 1 1 1 1 1 1 1 1 1 1 1 1 1 1 1 1 1 1 1 1 1 1 1 1 1 1 1 1 1 1 1 1 1 1 1 1 1 1 1 1 1 1 1 1 1 1 1 1 1 1 1 1 1 1 1 1 1 1 1 1 1 1 1 1 1 1 1 1 1 1 1 1 1 1 1 1 1 1 1 1 1 1 1 1 1 1 1 1 1 1 1 1 1 1 1 1 1 1 1 1 1 1 1 1 1 1 1 1 1 1 1 1 1 1 1 1 1 1 1 1 1 1 1 1 1 1 1 1 1 1 1 1 1 1 1 1 1 1 1 1 1 1 1 1 1 1 1 1 1 1 1 1 1 1 1 1 1 1 1 1 1 1 1 1 1 1 1 1 1 1 1 1 1 1 1 1 1 1 1 1 1 1 1 1 1 1 1 1 1 1 1 1 1 1 1 1 1 1 1 1 1 1 1 1 1 1 1 1 1 1 1 1 1 1 1 1 1 1 1 1 1 1 1 1 1 1 1 1 1 1 1 1 1 1 1 1 1 1 1 1 1 1 1 1 1 1 1 1 1 1 1 1</float_array>
                    <technique_common>
                        <accessor count="87" source="#shape0-lib-vcolor-array" stride="4">
                            <param name="R" type="float"/>
                            <param name="G" type="float"/>
                            <param name="B" type="float"/>
                            <param name="A" type="float"/>
                        </accessor>
                    </technique_common>
                </source>
                <source id="shape0-lib-map" name="map">
                    <float_array id="shape0-lib-map-array" count="840">0.491969 0.597334 0.486656 0.597334 0.486656 0.585743 0.491969 0.597334 0.486656 0.585743 0.491969 0.585743 0.322133 0.665313 0.322863 0.726776 0.316218 0.726858 0.322133 0.665313 0.316218 0.726858 0.315706 0.665459 0.435656 0.585743 0.440969 0.585743 0.440969 0.597334 0.435656 0.585743 0.440969 0.597334 0.435656 0.597334 0.331174 0.665347 0.331063 0.726866 0.324258 0.726891 0.331174 0.665347 0.324258 0.726891 0.324002 0.665373 0.397149 0.276021 0.397102 0.301132 0.400316 0.301121 0.397149 0.276021 0.400316 0.301121 0.400364 0.27601 0.466469 0.552709 0.461156 0.552709 0.461156 0.541118 0.466469 0.552709 0.461156 0.541118 0.466469 0.541118 0.442031 0.541118 0.447344 0.541118 0.447344 0.552709 0.442031 0.541118 0.447344 0.552709 0.442031 0.552709 0.339386 0.665318 0.339277 0.730124 0.332079 0.730149 0.339386 0.665318 0.332079 0.730149 0.332188 0.665343 0.400721 0.276009 0.400673 0.30112 0.403888 0.301109 0.400721 0.276009 0.403888 0.301109 0.403935 0.275998 0.389969 0.552709 0.384656 0.552709 0.384656 0.541118 0.389969 0.552709 0.384656 0.541118 0.389969 0.541118 0.422906 0.541118 0.428219 0.541118 0.428219 0.552709 0.422906 0.541118 0.428219 0.552709 0.422906 0.552709 0.347881 0.665287 0.347772 0.730093 0.340574 0.730119 0.347881 0.665287 0.340574 0.730119 0.340684 0.665313 0.183125 0.310522 0.183125 0.273452 0.186689 0.273452 0.183125 0.310522 0.186689 0.273452 0.186689 0.310522 0.187326 0.310522 0.187326 0.273452 0.190891 0.273452 0.187326 0.310522 0.190891 0.273452 0.190891 0.310522 0.268719 0.504454 0.268719 0.473268 0.263387 0.473268 0.268719 0.504454 0.263387 0.473268 0.263387 0.504454 0.191155 0.310522 0.191155 0.273452 0.19472 0.273452 0.191155 0.310522 0.19472 0.273452 0.19472 0.310522 0.269311 0.473268 0.269311 0.504454 0.274643 0.504454 0.269311 0.473268 0.274643 0.504454 0.274643 0.473268 0.195116 0.310522 0.195116 0.273452 0.198681 0.273452 0.195116 0.310522 0.198681 0.273452 0.198681 0.310522 0.461156 0.579368 0.466469 0.579368 0.466469 0.590959 0.461156 0.579368 0.466469 0.590959 0.461156 0.590959 0.27261 0.665312 0.273532 0.730111 0.266347 0.730274 0.27261 0.665312 0.266347 0.730274 0.26541 0.665476 0.372864 0.276032 0.372816 0.303561 0.376031 0.303529 0.372864 0.276032 0.376031 0.303529 0.376079 0.276022 0.281848 0.665346 0.281514 0.736378 0.281356 0.665348 0.274089 0.736421 0.274424 0.665373 0.274579 0.736504 0.517469 0.488959 0.512156 0.488959 0.512156 0.477368 0.517469 0.488959 0.512156 0.477368 0.517469 0.477368 0.518531 0.477368 0.523844 0.477368 0.523844 0.488959 0.518531 0.477368 0.523844 0.488959 0.518531 0.488959 0.281356 0.665348 0.281514 0.736378 0.274579 0.736504 0.281356 0.665348 0.274579 0.736504 0.274424 0.665373 0.376317 0.276021 0.376269 0.301132 0.379483 0.301121 0.376317 0.276021 0.379483 0.301121 0.379531 0.27601 0.460094 0.552709 0.454781 0.552709 0.454781 0.541118 0.460094 0.552709 0.454781 0.541118 0.460094 0.541118 0.448406 0.541118 0.453719 0.541118 0.453719 0.552709 0.448406 0.541118 0.453719 0.552709 0.448406 0.552709 0.289834 0.665318 0.289725 0.730124 0.282527 0.730149 0.289834 0.665318 0.282527 0.730149 0.282636 0.665343 0.379888 0.276009 0.379826 0.30332 0.383044 0.303186 0.379888 0.276009 0.383044 0.303186 0.383103 0.275998 0.290761 0.735797 0.291132 0.665313 0.291253 0.735819 0.530219 0.488959 0.524906 0.488959 0.524906 0.477368 0.530219 0.488959 0.524906 0.477368 0.530219 0.477368 0.531281 0.477368 0.536594 0.477368 0.536594 0.488959 0.531281 0.477368 0.536594 0.488959 0.531281 0.488959 0.29833 0.665287 0.298193 0.735475 0.291253 0.735819 0.29833 0.665287 0.291253 0.735819 0.291132 0.665313 0.38346 0.275997 0.383412 0.301108 0.386627 0.301097 0.38346 0.275997 0.386627 0.301097 0.386674 0.275987 0.511094 0.539959 0.505781 0.539959 0.505781 0.528368 0.511094 0.539959 0.505781 0.528368 0.511094 0.528368 0.467531 0.560243 0.472844 0.560243 0.472844 0.571834 0.467531 0.560243 0.472844 0.571834 0.467531 0.571834 0.306825 0.665257 0.306716 0.730063 0.299518 0.730088 0.306825 0.665257 0.299518 0.730088 0.299627 0.665282 0.387032 0.275985 0.386984 0.301096 0.390198 0.301086 0.387032 0.275985 0.390198 0.301086 0.390246 0.275975 0.472844 0.552709 0.467531 0.552709 0.467531 0.541118 0.472844 0.552709 0.467531 0.541118 0.472844 0.541118 0.480281 0.560243 0.485594 0.560243 0.485594 0.571834 0.480281 0.560243 0.485594 0.571834 0.480281 0.571834 0.314584 0.665229 0.31447 0.730035 0.308013 0.730058 0.314584 0.665229 0.308013 0.730058 0.308138 0.665258 0.222871 0.504454 0.222871 0.473268 0.21754 0.473268 0.222871 0.504454 0.21754 0.473268 0.21754 0.504454 0.281514 0.736378 0.274089 0.736421 0.274579 0.736504 0.228436 0.504454 0.228436 0.473268 0.223104 0.473268 0.228436 0.504454 0.223104 0.473268 0.223104 0.504454 0.274424 0.665373 0.281848 0.665346 0.281356 0.665348 0.164224 0.310522 0.164224 0.273452 0.167788 0.273452 0.164224 0.310522 0.167788 0.273452 0.167788 0.310522 0.234163 0.504454 0.234163 0.473268 0.228831 0.473268 0.234163 0.504454 0.228831 0.473268 0.228831 0.504454 0.168052 0.310522 0.168052 0.273452 0.171617 0.273452 0.168052 0.310522 0.171617 0.273452 0.171617 0.310522 0.234731 0.473268 0.234731 0.504454 0.240069 0.504454 0.234731 0.473268 0.240069 0.504454 0.240069 0.473268 0.290761 0.735797 0.291253 0.735819 0.298193 0.735475 0.172013 0.310522 0.172013 0.273452 0.175578 0.273452 0.172013 0.310522 0.175578 0.273452 0.175578 0.310522 0.246012 0.504454 0.246012 0.473268 0.24068 0.473268 0.246012 0.504454 0.24068 0.473268 0.24068 0.504454 0.175974 0.310522 0.175974 0.273452 0.179539 0.273452 0.175974 0.310522 0.179539 0.273452 0.179539 0.310522 0.31447 0.730035 0.315334 0.730038 0.308013 0.730058 0.251936 0.504454 0.251936 0.473268 0.246604 0.473268 0.251936 0.504454 0.246604 0.473268 0.246604 0.504454 0.179935 0.310522 0.179935 0.273452 0.1835 0.273452 0.179935 0.310522 0.1835 0.273452 0.1835 0.310522 0.389908 0.276074 0.390294 0.299868 0.393508 0.299828 0.389908 0.276074 0.393508 0.299828 0.393122 0.276006 0.322133 0.665313 0.323306 0.726786 0.322863 0.726776 0.315662 0.72689 0.315003 0.665475 0.316218 0.726858 0.316218 0.726858 0.315003 0.665475 0.315706 0.665459 0.480281 0.585743 0.485594 0.585743 0.485594 0.597334 0.480281 0.585743 0.485594 0.597334 0.480281 0.597334 0.393697 0.276032 0.393649 0.299878 0.396863 0.299862 0.393697 0.276032 0.396863 0.299862 0.396911 0.276022 0.32364 0.726915 0.324002 0.665373 0.324258 0.726891 0.434594 0.597334 0.429281 0.597334 0.429281 0.585743 0.434594 0.597334 0.429281 0.585743 0.434594 0.585743 0.322863 0.726776 0.323306 0.726786 0.315662 0.72689 0.322863 0.726776 0.315662 0.72689 0.316218 0.726858 0.257427 0.504454 0.257427 0.473268 0.252096 0.473268 0.257427 0.504454 0.252096 0.473268 0.252096 0.504454 0.315706 0.665459 0.315003 0.665475 0.322133 0.665313 0.331063 0.726866 0.32364 0.726915 0.324258 0.726891 0.262992 0.504454 0.262992 0.473268 0.25766 0.473268 0.262992 0.504454 0.25766 0.473268 0.25766 0.504454 0.369076 0.276074 0.369462 0.301182 0.372676 0.301114 0.369076 0.276074 0.372676 0.301114 0.37229 0.276006 0.485594 0.584584 0.480281 0.584584 0.480281 0.572993 0.485594 0.584584 0.480281 0.572993 0.485594 0.572993 0.315547 0.665225 0.315334 0.730038 0.315264 0.665226 0.315264 0.665226 0.315334 0.730038 0.31447 0.730035 0.315264 0.665226 0.31447 0.730035 0.314584 0.665229 0.160023 0.310522 0.160023 0.273452 0.163587 0.273452 0.160023 0.310522 0.163587 0.273452 0.163587 0.310522 0.308138 0.665258 0.315264 0.665226 0.314584 0.665229 0.308138 0.665258 0.315547 0.665225 0.315264 0.665226</float_array>
                    <technique_common>
                        <accessor count="420" source="#shape0-lib-map-array" stride="2">
                            <param name="U" type="float"/>
                            <param name="V" type="float"/>
                        </accessor>
                    </technique_common>
                </source>
                <vertices id="shape0-lib-vertices">
                    <input semantic="POSITION" source="#shape0-lib-positions"/>
                </vertices>
                <triangles count="140" material="material0">
                    <input offset="0" semantic="VERTEX" source="#shape0-lib-vertices"/>
                    <input offset="1" semantic="COLOR" source="#shape0-lib-vcolor"/>
                    <input offset="2" semantic="NORMAL" source="#shape0-lib-normals"/>
                    <input offset="3" semantic="TEXCOORD" source="#shape0-lib-map"/>
                    <p>4 4 0 0 1 1 0 1 0 0 0 2 4 4 1 3 0 0 1 4 84 84 1 5 5 5 2 6 6 6 2 7 7 7 2 8 5 5 3 9 7 7 3 10 3 3 3 11 13 13 4 12 10 10 4 13 9 9 4 14 13 13 5 15 9 9 5 16 12 12 5 17 13 13 6 18 12 12 6 19 14 14 6 20 13 13 7 21 14 14 7 22 11 11 7 23 15 15 8 24 16 16 8 25 17 17 8 26 15 15 9 27 17 17 9 28 18 18 9 29 20 20 10 30 16 16 10 31 15 15 10 32 20 20 11 33 15 15 11 34 19 19 11 35 22 22 12 36 18 18 12 37 17 17 12 38 22 22 13 39 17 17 13 40 21 21 13 41 22 22 14 42 21 21 14 43 20 20 14 44 22 22 15 45 20 20 15 46 19 19 15 47 23 23 16 48 24 24 16 49 25 25 16 50 23 23 17 51 25 25 17 52 26 26 17 53 28 28 18 54 24 24 18 55 23 23 18 56 28 28 19 57 23 23 19 58 27 27 19 59 30 30 20 60 26 26 20 61 25 25 20 62 30 30 21 63 25 25 21 64 29 29 21 65 30 30 22 66 29 29 22 67 28 28 22 68 30 30 23 69 28 28 23 70 27 27 23 71 84 84 24 72 0 0 24 73 2 2 24 74 84 84 25 75 2 2 25 76 5 5 25 77 11 11 26 78 8 8 26 79 10 10 26 80 11 11 27 81 10 10 27 82 13 13 27 83 21 21 28 84 17 17 28 85 16 16 28 86 21 21 29 87 16 16 29 88 20 20 29 89 19 19 30 90 15 15 30 91 18 18 30 92 19 19 31 93 18 18 31 94 22 22 31 95 24 24 32 96 28 28 32 97 29 29 32 98 24 24 33 99 29 29 33 100 25 25 33 101 27 27 34 102 23 23 34 103 26 26 34 104 27 27 35 105 26 26 35 106 30 30 35 107 36 36 36 108 33 33 36 109 32 32 36 110 36 36 37 111 32 32 37 112 35 35 37 113 36 36 38 114 35 35 38 115 34 34 38 116 36 36 39 117 34 34 39 118 83 83 39 119 37 37 40 120 38 38 40 121 39 39 40 122 37 37 41 123 39 39 41 124 40 40 41 125 44 44 42 126 43 43 42 127 45 45 42 128 42 42 43 129 41 41 43 130 46 46 43 131 42 42 44 132 38 38 44 133 37 37 44 134 42 42 45 135 37 37 45 136 41 41 45 137 44 44 46 138 40 40 46 139 39 39 46 140 44 44 47 141 39 39 47 142 43 43 47 143 45 45 48 144 43 43 48 145 46 46 48 146 45 45 49 147 46 46 49 148 41 41 49 149 47 47 50 150 48 48 50 151 49 49 50 152 47 47 51 153 49 49 51 154 50 50 51 155 52 52 52 156 48 48 52 157 47 47 52 158 52 52 53 159 47 47 53 160 51 51 53 161 54 54 54 162 50 50 54 163 49 49 54 164 54 54 55 165 49 49 55 166 53 53 55 167 54 54 56 168 53 53 56 169 52 52 56 170 54 54 57 171 52 52 57 172 51 51 57 173 55 55 58 174 56 56 58 175 57 57 58 176 55 55 59 177 57 57 59 178 58 58 59 179 60 60 60 180 59 59 60 181 63 63 60 182 60 60 61 183 56 56 61 184 55 55 61 185 60 60 62 186 55 55 62 187 59 59 62 188 62 62 63 189 58 58 63 190 57 57 63 191 62 62 64 192 57 57 64 193 61 61 64 194 62 62 65 195 61 61 65 196 63 63 65 197 62 62 66 198 63 63 66 199 59 59 66 200 64 64 67 201 65 65 67 202 66 66 67 203 64 64 68 204 66 66 68 205 67 67 68 206 69 69 69 207 65 65 69 208 64 64 69 209 69 69 70 210 64 64 70 211 68 68 70 212 71 71 71 213 67 67 71 214 66 66 71 215 71 71 72 216 66 66 72 217 70 70 72 218 71 71 73 219 70 70 73 220 69 69 73 221 71 71 74 222 69 69 74 223 68 68 74 224 72 72 75 225 73 73 75 226 74 74 75 227 72 72 76 228 74 74 76 229 75 75 76 230 77 77 77 231 73 73 77 232 72 72 77 233 77 77 78 234 72 72 78 235 76 76 78 236 80 80 79 237 75 75 79 238 74 74 79 239 80 80 80 240 74 74 80 241 81 81 80 242 79 79 81 243 78 78 81 244 77 77 81 245 79 79 82 246 77 77 82 247 76 76 82 248 35 35 83 249 32 32 83 250 31 31 83 251 35 35 84 252 31 31 84 253 34 34 84 254 43 43 85 255 42 42 85 256 46 46 85 257 43 43 86 258 39 39 86 259 38 38 86 260 43 43 87 261 38 38 87 262 42 42 87 263 41 41 88 264 44 44 88 265 45 45 88 266 41 41 89 267 37 37 89 268 40 40 89 269 41 41 90 270 40 40 90 271 44 44 90 272 53 53 91 273 49 49 91 274 48 48 91 275 53 53 92 276 48 48 92 277 52 52 92 278 51 51 93 279 47 47 93 280 50 50 93 281 51 51 94 282 50 50 94 283 54 54 94 284 56 56 95 285 60 60 95 286 61 61 95 287 56 56 96 288 61 61 96 289 57 57 96 290 60 60 97 291 63 63 97 292 61 61 97 293 59 59 98 294 55 55 98 295 58 58 98 296 59 59 99 297 58 58 99 298 62 62 99 299 70 70 100 300 66 66 100 301 65 65 100 302 70 70 101 303 65 65 101 304 69 69 101 305 68 68 102 306 64 64 102 307 67 67 102 308 68 68 103 309 67 67 103 310 71 71 103 311 78 78 104 312 81 81 104 313 77 77 104 314 81 81 105 315 74 74 105 316 73 73 105 317 81 81 106 318 73 73 106 319 77 77 106 320 76 76 107 321 72 72 107 322 75 75 107 323 76 76 108 324 75 75 108 325 80 80 108 326 0 0 109 327 1 1 109 328 85 85 109 329 0 0 110 330 85 85 110 331 2 2 110 332 5 5 111 333 86 86 111 334 6 6 111 335 4 4 112 336 84 84 112 337 7 7 112 338 7 7 113 339 84 84 113 340 3 3 113 341 5 5 114 342 2 2 114 343 85 85 114 344 5 5 115 345 85 85 115 346 86 86 115 347 8 8 116 348 85 85 116 349 9 9 116 350 8 8 117 351 9 9 117 352 10 10 117 353 86 86 118 354 11 11 118 355 14 14 118 356 86 86 119 357 85 85 119 358 8 8 119 359 86 86 120 360 8 8 120 361 11 11 120 362 6 6 121 363 86 86 121 364 4 4 121 365 6 6 122 366 4 4 122 367 7 7 122 368 86 86 123 369 85 85 123 370 1 1 123 371 86 86 124 372 1 1 124 373 4 4 124 374 3 3 125 375 84 84 125 376 5 5 125 377 12 12 126 378 86 86 126 379 14 14 126 380 12 12 127 381 9 9 127 382 85 85 127 383 12 12 128 384 85 85 128 385 86 86 128 386 82 82 129 387 31 31 129 388 32 32 129 389 82 82 130 390 32 32 130 391 33 33 130 392 34 34 131 393 31 31 131 394 82 82 131 395 34 34 132 396 82 82 132 397 83 83 132 398 80 80 133 399 81 81 133 400 84 84 133 401 84 84 134 402 81 81 134 403 78 78 134 404 84 84 135 405 78 78 135 406 79 79 135 407 83 83 136 408 82 82 136 409 33 33 136 410 83 83 137 411 33 33 137 412 36 36 137 413 76 76 138 414 84 84 138 415 79 79 138 416 76 76 139 417 80 80 139 418 84 84 139 419</p>
                </triangles>
            </mesh>
        </geometry>
    </library_geometries>
    <library_visual_scenes>
        <visual_scene id="VisualSceneNode" name="VisualScene">
            <node id="node" name="node">
                <instance_geometry url="#shape0-lib">
                    <bind_material>
                        <technique_common>
                            <instance_material symbol="material0" target="#material0">
                                <bind_vertex_input semantic="UVSET0" input_semantic="TEXCOORD"/>
                            </instance_material>
                        </technique_common>
                    </bind_material>
                </instance_geometry>
            </node>
        </visual_scene>
    </library_visual_scenes>
    <scene>
        <instance_visual_scene url="#VisualSceneNode"/>
    </scene>
</COLLADA>
