<?xml version="1.0" encoding="UTF-8"?>
<COLLADA xmlns="http://www.collada.org/2005/11/COLLADASchema" version="1.4.1">
    <asset>
        <contributor>
            <author>VCGLab</author>
            <authoring_tool>VCGLib | MeshLab</authoring_tool>
        </contributor>
        <created>Thu Jul 3 01:31:06 2025 GMT</created>
        <modified>Thu Jul 3 01:31:06 2025 GMT</modified>
        <up_axis>Y_UP</up_axis>
    </asset>
    <library_images>
        <image id="texture0" name="texture0">
            <init_from>./image/shelf_books.png</init_from>
        </image>
    </library_images>
    <library_materials>
        <material id="material0" name="material0">
            <instance_effect url="#material0-fx"/>
        </material>
    </library_materials>
    <library_effects>
        <effect id="material0-fx">
            <profile_COMMON>
                <newparam sid="texture0-surface">
                    <surface type="2D">
                        <init_from>texture0</init_from>
                        <format>R8G8B8</format>
                    </surface>
                </newparam>
                <newparam sid="texture0-sampler">
                    <sampler2D>
                        <source>texture0-surface</source>
                        <minfilter>LINEAR</minfilter>
                        <magfilter>LINEAR</magfilter>
                    </sampler2D>
                </newparam>
                <technique sid="common">
                    <blinn>
                        <diffuse>
                            <texture texture="texture0-sampler" texcoord="UVSET0"/>
                        </diffuse>
                    </blinn>
                </technique>
            </profile_COMMON>
        </effect>
    </library_effects>
    <library_geometries>
        <geometry id="shape0-lib" name="shape0">
            <mesh>
                <source id="shape0-lib-positions" name="position">
                    <float_array id="shape0-lib-positions-array" count="96">-0.154081 -0.0144299 -0.127101 -0.154081 0.0144302 -0.127101 0.178919 -0.0144299 -0.127101 0.178919 0.0144302 -0.127101 -0.154081 -0.0090706 0.129658 -0.15408 0.0102121 0.131899 0.178919 -0.0102121 0.131899 0.178919 0.0102121 0.131899 -0.15408 -0.0137079 0.130335 0.17892 -0.0139818 0.129937 -0.154081 0.0139938 0.129828 0.17892 0.0137036 0.130305 0.178919 0.0105339 -0.127101 -0.154081 0.0105339 -0.127101 0.178919 -0.0105337 -0.127101 -0.154081 -0.0105337 -0.127101 -0.154081 0.00969632 0.12781 0.178919 -0.00991645 0.127664 0.178919 0.00979017 0.127921 -0.150263 -0.00990187 -0.12556 0.175102 0.00990189 -0.12556 -0.150264 -0.00990187 0.124691 0.175102 0.00915982 0.127407 0.175102 -0.00963016 0.126496 -0.150264 0.00966936 0.126139 -0.150263 0.00472093 0.128457 0.175102 0.00229031 -0.124347 -0.150263 0.00897432 -0.12515 -0.150264 -0.00226119 -0.124319 0.175102 -0.00897454 -0.12515 -0.150263 -0.00772471 0.128296 0.175102 -0.002789 0.128496</float_array>
                    <technique_common>
                        <accessor count="32" source="#shape0-lib-positions-array" stride="3">
                            <param name="X" type="float"/>
                            <param name="Y" type="float"/>
                            <param name="Z" type="float"/>
                        </accessor>
                    </technique_common>
                </source>
                <source id="shape0-lib-normals" name="normal">
                    <float_array id="shape0-lib-normals-array" count="168">-0.0061638 0.144412 0.989498 0.000679329 -0.461617 0.887079 -0.000836414 0.4803 0.877104 0 0.415388 0.909644 -0.000819194 -0.999996 0.00280455 0 -0.999999 0.00174327 0 -0.115437 0.993315 -0.00672936 0 0.999977 0 0.999999 0.00169868 0.00086718 0.999996 0.00282261 0 0 -1 0 0 -1 0 0 -1 0 0 -1 0 0.999997 -0.0024228 0.00250593 0.999981 -0.00569823 -0.00595442 0.0130581 -0.999897 0.000360011 -0.0979939 -0.995187 0.000282926 -0.999995 -0.00328575 0 -0.999996 -0.00291632 0.00366517 -0.280588 0.959821 -0.0021535 -0.855975 0.517012 -0.00286413 0.42419 0.905569 0.000835089 -1 3.30631e-09 0.00285337 -0.999993 -0.0026053 -0.00285434 0.999992 -0.00276591 0.00155461 0.999995 0.00293343 0.000944397 -0.073781 -0.997274 -0.000796318 -0.157347 -0.987543 -1 8.23605e-05 1.79261e-06 0.00197645 0.0907469 0.995872 -0.00108198 0.0710744 -0.99747 0.000787035 0.160368 -0.987057 -1 7.13347e-06 3.87052e-06 -0.000418732 -0.0130028 0.999915 1 -9.25895e-06 -9.1978e-09 -1 -0.000160119 3.7484e-06 -1 0 4.06249e-07 -1 1.95475e-05 0.000230771 -1 -2.42776e-05 0.000236299 -1 0 1.62392e-06 -1 8.64706e-05 4.59491e-07 1 -0.000191781 -3.95682e-06 1 0 -4.67446e-07 1 -0.000227113 5.40609e-05 1 0 2.11114e-05 1 -1.90633e-06 3.01721e-05 1 0.000134343 3.04899e-05 1 0 -2.20296e-06 1 0.000116938 -6.34257e-07 -1 -0.000142457 -1.97793e-06 1 5.92021e-06 2.95733e-07 1 -1.12751e-05 -5.63224e-07 -1 -0.000111376 1.3074e-06 -1 0.00050624 -3.9895e-06 1 2.4201e-05 -8.2517e-07</float_array>
                    <technique_common>
                        <accessor count="56" source="#shape0-lib-normals-array" stride="3">
                            <param name="X" type="float"/>
                            <param name="Y" type="float"/>
                            <param name="Z" type="float"/>
                        </accessor>
                    </technique_common>
                </source>
                <source id="shape0-lib-vcolor" name="vcolor">
                    <float_array id="shape0-lib-vcolor-array" count="128">1 1 1 1 1 1 1 1 1 1 1 1 1 1 1 1 1 1 1 1 1 1 1 1 1 1 1 1 1 1 1 1 1 1 1 1 1 1 1 1 1 1 1 1 1 1 1 1 1 1 1 1 1 1 1 1 1 1 1 1 1 1 1 1 1 1 1 1 1 1 1 1 1 1 1 1 1 1 1 1 1 1 1 1 1 1 1 1 1 1 1 1 1 1 1 1 1 1 1 1 1 1 1 1 1 1 1 1 1 1 1 1 1 1 1 1 1 1 1 1 1 1 1 1 1 1 1 1</float_array>
                    <technique_common>
                        <accessor count="32" source="#shape0-lib-vcolor-array" stride="4">
                            <param name="R" type="float"/>
                            <param name="G" type="float"/>
                            <param name="B" type="float"/>
                            <param name="A" type="float"/>
                        </accessor>
                    </technique_common>
                </source>
                <source id="shape0-lib-map" name="map">
                    <float_array id="shape0-lib-map-array" count="336">0.968681 0.880962 0.718416 0.880962 0.718431 0.877468 0.968681 0.880962 0.718431 0.877468 0.968698 0.877367 0.968696 0.904423 0.718433 0.904531 0.718416 0.900926 0.968696 0.904423 0.718416 0.900926 0.968681 0.900926 0.880725 0.643681 0.848673 0.643425 0.848887 0.620976 0.880725 0.643681 0.848887 0.620976 0.88094 0.621231 0.968681 0.900926 0.718416 0.900926 0.718416 0.880962 0.968681 0.900926 0.718416 0.880962 0.968681 0.880962 0.882553 0.621231 0.914605 0.620976 0.91482 0.643425 0.882553 0.621231 0.91482 0.643425 0.882767 0.643681 0.756462 0.560293 0.756462 0.566494 0.673664 0.566494 0.756462 0.560293 0.673664 0.566494 0.673664 0.560293 0.587554 0.573936 0.587554 0.567734 0.670352 0.567734 0.587554 0.573936 0.670352 0.567734 0.670352 0.573936 0.800067 0.735 0.79991 0.712554 0.823576 0.712295 0.800067 0.735 0.823576 0.712295 0.823732 0.734741 0.741669 0.220813 0.741669 0.21646 0.675324 0.216492 0.741669 0.220813 0.675324 0.216492 0.675325 0.220796 0.848986 0.735 0.82532 0.734741 0.825477 0.712295 0.848986 0.735 0.825477 0.712295 0.849142 0.712554 0.751593 0.159243 0.686304 0.157815 0.751598 0.157242 0.751598 0.157242 0.686304 0.157815 0.68631 0.157178 0.751596 0.161854 0.686309 0.161992 0.686304 0.160684 0.724409 0.346938 0.703718 0.346775 0.703857 0.332342 0.724409 0.346938 0.703857 0.332342 0.724548 0.332505 0.725381 0.332505 0.746072 0.332342 0.746211 0.346775 0.725381 0.332505 0.746211 0.346775 0.72552 0.346938 0.82583 0.498244 0.825832 0.502954 0.937437 0.500446 0.93744 0.504326 0.937437 0.500446 0.825832 0.502954 0.822668 0.294581 0.822996 0.289318 0.932787 0.292249 0.686304 0.160684 0.751593 0.159243 0.751596 0.161854 0.937437 0.500446 0.937438 0.49573 0.82583 0.498244 0.825834 0.494359 0.82583 0.498244 0.937438 0.49573 0.932774 0.287832 0.932787 0.292249 0.822996 0.289318 0.751593 0.159243 0.686304 0.160684 0.686304 0.157815 0.937 0.394652 0.826865 0.391326 0.827187 0.396471 0.590565 0.452952 0.666993 0.453272 0.666753 0.455378 0.590565 0.452952 0.666753 0.455378 0.590565 0.454753 0.666753 0.455378 0.667528 0.464343 0.666254 0.464039 0.667528 0.464343 0.666882 0.466067 0.666254 0.464039 0.666882 0.466067 0.590565 0.466293 0.590565 0.464492 0.666882 0.466067 0.590565 0.464492 0.666254 0.464039 0.667528 0.450284 0.591107 0.449963 0.591815 0.448062 0.667528 0.450284 0.591815 0.448062 0.667528 0.448483 0.591107 0.449963 0.590565 0.448334 0.591815 0.448062 0.590565 0.448334 0.590565 0.438894 0.591871 0.439125 0.590565 0.448334 0.591871 0.439125 0.591815 0.448062 0.590565 0.438894 0.591187 0.437174 0.591871 0.439125 0.591187 0.437174 0.667528 0.436944 0.667528 0.438745 0.591187 0.437174 0.667528 0.438745 0.591871 0.439125 0.822668 0.294581 0.932787 0.292249 0.931181 0.295308 0.937 0.394652 0.827187 0.396471 0.826674 0.400567 0.937 0.394652 0.826674 0.400567 0.93538 0.400567 0.932774 0.287832 0.822996 0.289318 0.822477 0.28534 0.932774 0.287832 0.822477 0.28534 0.931181 0.28534 0.826865 0.391326 0.937 0.394652 0.93538 0.390599</float_array>
                    <technique_common>
                        <accessor count="168" source="#shape0-lib-map-array" stride="2">
                            <param name="U" type="float"/>
                            <param name="V" type="float"/>
                        </accessor>
                    </technique_common>
                </source>
                <vertices id="shape0-lib-vertices">
                    <input semantic="POSITION" source="#shape0-lib-positions"/>
                </vertices>
                <triangles count="56" material="material0">
                    <input offset="0" semantic="VERTEX" source="#shape0-lib-vertices"/>
                    <input offset="1" semantic="COLOR" source="#shape0-lib-vcolor"/>
                    <input offset="2" semantic="NORMAL" source="#shape0-lib-normals"/>
                    <input offset="3" semantic="TEXCOORD" source="#shape0-lib-map"/>
                    <p>6 6 0 0 4 4 0 1 8 8 0 2 6 6 1 3 8 8 1 4 9 9 1 5 11 11 2 6 10 10 2 7 5 5 2 8 11 11 3 9 5 5 3 10 7 7 3 11 9 9 4 12 8 8 4 13 0 0 4 14 9 9 5 15 0 0 5 16 2 2 5 17 7 7 6 18 5 5 6 19 4 4 6 20 7 7 7 21 4 4 7 22 6 6 7 23 3 3 8 24 1 1 8 25 10 10 8 26 3 3 9 27 10 10 9 28 11 11 9 29 0 0 10 30 15 15 10 31 14 14 10 32 0 0 11 33 14 14 11 34 2 2 11 35 3 3 12 36 12 12 12 37 13 13 12 38 3 3 13 39 13 13 13 40 1 1 13 41 17 17 14 42 14 14 14 43 15 15 14 44 17 17 15 45 15 15 15 46 4 4 15 47 18 18 16 48 17 17 16 49 4 4 16 50 18 18 17 51 4 4 17 52 16 16 17 53 18 18 18 54 16 16 18 55 13 13 18 56 18 18 19 57 13 13 19 58 12 12 19 59 31 31 20 60 30 30 20 61 23 23 20 62 23 23 21 63 30 30 21 64 21 21 21 65 22 22 22 66 24 24 22 67 25 25 22 68 23 23 23 69 21 21 23 70 19 19 23 71 23 23 24 72 19 19 24 73 29 29 24 74 20 20 25 75 27 27 25 76 24 24 25 77 20 20 26 78 24 24 26 79 22 22 26 80 28 28 27 81 27 27 27 82 26 26 27 83 20 20 28 84 26 26 28 85 27 27 28 86 27 27 29 87 28 28 29 88 25 25 29 89 25 25 30 90 31 31 30 91 22 22 30 92 26 26 31 93 29 29 31 94 28 28 31 95 19 19 32 96 28 28 32 97 29 29 32 98 30 30 33 99 25 25 33 100 28 28 33 101 31 31 34 102 25 25 34 103 30 30 34 104 31 31 35 105 29 29 35 106 26 26 35 107 0 0 36 108 8 8 36 109 4 4 36 110 0 0 37 111 4 4 37 112 15 15 37 113 4 4 38 114 5 5 38 115 16 16 38 116 5 5 39 117 10 10 39 118 16 16 39 119 10 10 40 120 1 1 40 121 13 13 40 122 10 10 41 123 13 13 41 124 16 16 41 125 3 3 42 126 11 11 42 127 18 18 42 128 3 3 43 129 18 18 43 130 12 12 43 131 11 11 44 132 7 7 44 133 18 18 44 134 7 7 45 135 6 6 45 136 17 17 45 137 7 7 46 138 17 17 46 139 18 18 46 140 6 6 47 141 9 9 47 142 17 17 47 143 9 9 48 144 2 2 48 145 14 14 48 146 9 9 49 147 14 14 49 148 17 17 49 149 27 27 50 150 25 25 50 151 24 24 50 152 31 31 51 153 26 26 51 154 20 20 51 155 31 31 52 156 20 20 52 157 22 22 52 158 30 30 53 159 28 28 53 160 19 19 53 161 30 30 54 162 19 19 54 163 21 21 54 164 29 29 55 165 31 31 55 166 23 23 55 167</p>
                </triangles>
            </mesh>
        </geometry>
    </library_geometries>
    <library_visual_scenes>
        <visual_scene id="VisualSceneNode" name="VisualScene">
            <node id="node" name="node">
                <instance_geometry url="#shape0-lib">
                    <bind_material>
                        <technique_common>
                            <instance_material symbol="material0" target="#material0">
                                <bind_vertex_input semantic="UVSET0" input_semantic="TEXCOORD"/>
                            </instance_material>
                        </technique_common>
                    </bind_material>
                </instance_geometry>
            </node>
        </visual_scene>
    </library_visual_scenes>
    <scene>
        <instance_visual_scene url="#VisualSceneNode"/>
    </scene>
</COLLADA>
