<?xml version="1.0" encoding="UTF-8"?>
<COLLADA xmlns="http://www.collada.org/2005/11/COLLADASchema" version="1.4.1">
    <asset>
        <contributor>
            <author>VCGLab</author>
            <authoring_tool>VCGLib | MeshLab</authoring_tool>
        </contributor>
        <created>Thu Jul 3 01:41:01 2025 GMT</created>
        <modified>Thu Jul 3 01:41:01 2025 GMT</modified>
        <up_axis>Y_UP</up_axis>
    </asset>
    <library_images>
        <image id="texture0" name="texture0">
            <init_from>./image/shelf_items.png</init_from>
        </image>
    </library_images>
    <library_materials>
        <material id="material0" name="material0">
            <instance_effect url="#material0-fx"/>
        </material>
    </library_materials>
    <library_effects>
        <effect id="material0-fx">
            <profile_COMMON>
                <newparam sid="texture0-surface">
                    <surface type="2D">
                        <init_from>texture0</init_from>
                        <format>R8G8B8</format>
                    </surface>
                </newparam>
                <newparam sid="texture0-sampler">
                    <sampler2D>
                        <source>texture0-surface</source>
                        <minfilter>LINEAR</minfilter>
                        <magfilter>LINEAR</magfilter>
                    </sampler2D>
                </newparam>
                <technique sid="common">
                    <blinn>
                        <diffuse>
                            <texture texture="texture0-sampler" texcoord="UVSET0"/>
                        </diffuse>
                    </blinn>
                </technique>
            </profile_COMMON>
        </effect>
    </library_effects>
    <library_geometries>
        <geometry id="shape0-lib" name="shape0">
            <mesh>
                <source id="shape0-lib-positions" name="position">
                    <float_array id="shape0-lib-positions-array" count="39">-0.118087 -0.00215274 -0.1 0.0889126 -0.00215274 -0.1 -0.118087 -0.00215274 0.098 0.0889126 -0.00215274 0.098 -0.118075 0.0408605 -0.0999721 0.088883 0.0413142 -0.0999753 -0.118069 0.0412259 0.0979713 0.0888931 0.0408871 0.0979638 -0.116084 0.0365912 -0.0974515 0.0865011 0.0365925 -0.0978828 -0.116102 0.0365436 0.0970179 0.0889126 0.0363473 0.098 0.0859419 0.0371277 0.0950656</float_array>
                    <technique_common>
                        <accessor count="13" source="#shape0-lib-positions-array" stride="3">
                            <param name="X" type="float"/>
                            <param name="Y" type="float"/>
                            <param name="Z" type="float"/>
                        </accessor>
                    </technique_common>
                </source>
                <source id="shape0-lib-normals" name="normal">
                    <float_array id="shape0-lib-normals-array" count="66">0.00163725 0.999996 0.0021575 -0.00219198 0.999996 -0.00184594 0 -1 0 0 -1 0 -0.00212483 0.0657447 -0.997834 0 0.0545618 -0.99851 -0.998687 0.0512269 -7.84809e-05 -0.998667 0.0516218 0 0.997953 0.0627804 -0.0122073 1 0 0 -0.00479044 0 0.999989 0 0.025372 0.999678 0.000874781 -0.405527 -0.914083 -0.00182918 -0.509027 -0.860749 0.787102 -0.616822 -0.00137102 0.893503 -0.449041 0.00383479 -0.000291563 -0.199635 0.97987 0.0093959 -0.615133 0.788367 -0.906496 -0.422213 0.000807049 -0.921968 -0.387267 -0.000178872 -0.000307519 0.96633 0.257305 0.255865 0.966711 -0.00193975</float_array>
                    <technique_common>
                        <accessor count="22" source="#shape0-lib-normals-array" stride="3">
                            <param name="X" type="float"/>
                            <param name="Y" type="float"/>
                            <param name="Z" type="float"/>
                        </accessor>
                    </technique_common>
                </source>
                <source id="shape0-lib-vcolor" name="vcolor">
                    <float_array id="shape0-lib-vcolor-array" count="52">1 1 1 1 1 1 1 1 1 1 1 1 1 1 1 1 1 1 1 1 1 1 1 1 1 1 1 1 1 1 1 1 1 1 1 1 1 1 1 1 1 1 1 1 1 1 1 1 1 1 1 1</float_array>
                    <technique_common>
                        <accessor count="13" source="#shape0-lib-vcolor-array" stride="4">
                            <param name="R" type="float"/>
                            <param name="G" type="float"/>
                            <param name="B" type="float"/>
                            <param name="A" type="float"/>
                        </accessor>
                    </technique_common>
                </source>
                <source id="shape0-lib-map" name="map">
                    <float_array id="shape0-lib-map-array" count="132">0.668013 0.915607 0.651987 0.915607 0.651987 0.899582 0.668013 0.915607 0.651987 0.899582 0.668013 0.899582 0.530298 0.887546 0.522202 0.887546 0.522202 0.879451 0.530298 0.887546 0.522202 0.879451 0.530298 0.879451 0.491215 0.940837 0.491215 0.943909 0.477171 0.943909 0.491215 0.940837 0.477171 0.943909 0.477171 0.940837 0.703268 0.917143 0.703268 0.924488 0.687243 0.924488 0.703268 0.917143 0.687243 0.924488 0.687243 0.917143 0.668013 0.917143 0.668013 0.924488 0.651987 0.924488 0.668013 0.917143 0.651987 0.924488 0.651987 0.917143 0.834048 0.880871 0.834048 0.889205 0.795952 0.889205 0.834048 0.880871 0.795952 0.889205 0.795952 0.880871 0.506664 0.93715 0.520709 0.93715 0.520505 0.940223 0.506664 0.93715 0.520505 0.940223 0.506868 0.940223 0.685707 0.91721 0.685707 0.933235 0.678362 0.932992 0.685707 0.91721 0.678362 0.932992 0.678362 0.917452 0.874048 0.889205 0.835952 0.889205 0.836505 0.880871 0.874048 0.889205 0.836505 0.880871 0.873496 0.880871 0.704804 0.933235 0.704804 0.91721 0.712149 0.917452 0.704804 0.933235 0.712149 0.917452 0.712149 0.932992 0.913619 0.88249 0.875952 0.889205 0.876504 0.880871 0.669548 0.933235 0.675653 0.917401 0.676893 0.932992</float_array>
                    <technique_common>
                        <accessor count="66" source="#shape0-lib-map-array" stride="2">
                            <param name="U" type="float"/>
                            <param name="V" type="float"/>
                        </accessor>
                    </technique_common>
                </source>
                <vertices id="shape0-lib-vertices">
                    <input semantic="POSITION" source="#shape0-lib-positions"/>
                </vertices>
                <triangles count="22" material="material0">
                    <input offset="0" semantic="VERTEX" source="#shape0-lib-vertices"/>
                    <input offset="1" semantic="COLOR" source="#shape0-lib-vcolor"/>
                    <input offset="2" semantic="NORMAL" source="#shape0-lib-normals"/>
                    <input offset="3" semantic="TEXCOORD" source="#shape0-lib-map"/>
                    <p>6 6 0 0 7 7 0 1 5 5 0 2 6 6 1 3 5 5 1 4 4 4 1 5 3 3 2 6 2 2 2 7 0 0 2 8 3 3 3 9 0 0 3 10 1 1 3 11 0 0 4 12 8 8 4 13 9 9 4 14 0 0 5 15 9 9 5 16 1 1 5 17 2 2 6 18 10 10 6 19 8 8 6 20 2 2 7 21 8 8 7 22 0 0 7 23 1 1 8 24 9 9 8 25 11 11 8 26 1 1 9 27 11 11 9 28 3 3 9 29 3 3 10 30 11 11 10 31 10 10 10 32 3 3 11 33 10 10 11 34 2 2 11 35 4 4 12 36 5 5 12 37 9 9 12 38 4 4 13 39 9 9 13 40 8 8 13 41 5 5 14 42 7 7 14 43 12 12 14 44 5 5 15 45 12 12 15 46 9 9 15 47 7 7 16 48 6 6 16 49 10 10 16 50 7 7 17 51 10 10 17 52 12 12 17 53 6 6 18 54 4 4 18 55 8 8 18 56 6 6 19 57 8 8 19 58 10 10 19 59 10 10 20 60 11 11 20 61 12 12 20 62 11 11 21 63 9 9 21 64 12 12 21 65</p>
                </triangles>
            </mesh>
        </geometry>
    </library_geometries>
    <library_visual_scenes>
        <visual_scene id="VisualSceneNode" name="VisualScene">
            <node id="node" name="node">
                <instance_geometry url="#shape0-lib">
                    <bind_material>
                        <technique_common>
                            <instance_material symbol="material0" target="#material0">
                                <bind_vertex_input semantic="UVSET0" input_semantic="TEXCOORD"/>
                            </instance_material>
                        </technique_common>
                    </bind_material>
                </instance_geometry>
            </node>
        </visual_scene>
    </library_visual_scenes>
    <scene>
        <instance_visual_scene url="#VisualSceneNode"/>
    </scene>
</COLLADA>
