<?xml version="1.0" encoding="UTF-8"?>
<COLLADA xmlns="http://www.collada.org/2005/11/COLLADASchema" version="1.4.1">
    <asset>
        <contributor>
            <author>VCGLab</author>
            <authoring_tool>VCGLib | MeshLab</authoring_tool>
        </contributor>
        <created>Thu Jul 3 02:01:01 2025 GMT</created>
        <modified>Thu Jul 3 02:01:01 2025 GMT</modified>
        <up_axis>Y_UP</up_axis>
    </asset>
    <library_images>
        <image id="texture0" name="texture0">
            <init_from>./image/shelf_items.png</init_from>
        </image>
    </library_images>
    <library_materials>
        <material id="material0" name="material0">
            <instance_effect url="#material0-fx"/>
        </material>
    </library_materials>
    <library_effects>
        <effect id="material0-fx">
            <profile_COMMON>
                <newparam sid="texture0-surface">
                    <surface type="2D">
                        <init_from>texture0</init_from>
                        <format>R8G8B8</format>
                    </surface>
                </newparam>
                <newparam sid="texture0-sampler">
                    <sampler2D>
                        <source>texture0-surface</source>
                        <minfilter>LINEAR</minfilter>
                        <magfilter>LINEAR</magfilter>
                    </sampler2D>
                </newparam>
                <technique sid="common">
                    <blinn>
                        <diffuse>
                            <texture texture="texture0-sampler" texcoord="UVSET0"/>
                        </diffuse>
                    </blinn>
                </technique>
            </profile_COMMON>
        </effect>
    </library_effects>
    <library_geometries>
        <geometry id="shape0-lib" name="shape0">
            <mesh>
                <source id="shape0-lib-positions" name="position">
                    <float_array id="shape0-lib-positions-array" count="399">-0.0546403 -0.001818 0.0395994 0.0415704 -0.00404396 -0.0288184 -0.019786 0.0169542 -0.132787 -0.0700303 0.0153404 -0.111864 -0.0934412 0.017 -0.0944412 -0.124161 0.0169865 -0.0495851 -0.131064 0.0153078 0.0074961 -0.122574 0.0169866 0.0534194 -0.0485852 0.0169865 0.125161 0.020619 0.0169866 0.133189 0.0720312 0.0153404 0.111864 0.0954412 0.017 0.0944412 0.126161 0.0169865 0.0495851 0.133064 0.0153078 -0.00749573 0.124574 0.0169866 -0.0534194 0.00100001 0.00999999 -0.13356 -0.0444671 0.00992319 -0.126344 -0.101335 0.00991978 -0.0869163 -0.131032 0.00991527 -0.0242963 -0.12544 0.00991446 0.0451053 -0.0933475 0.0129781 0.0945355 -0.0561136 0.00992056 0.121512 0.00100001 0.00999999 0.13356 0.0464673 0.00992319 0.126344 0.103335 0.00991978 0.0869162 0.133032 0.00991527 0.0242964 0.12744 0.00991447 -0.0451053 0.0953475 0.0129781 -0.0945355 0.0581131 0.00992057 -0.121512 0.0502785 0.0157206 -0.124677 -0.0334104 0.00816319 0.0733697 -0.0546404 0.011182 0.0395994 0.041571 0.00895607 -0.0288186 -0.0197861 0.0299542 -0.132787 -0.0700307 0.0283404 -0.111864 -0.0934412 0.03 -0.0944412 -0.124161 0.0299865 -0.0495851 -0.131064 0.0283078 0.00749604 -0.122574 0.0299866 0.0534194 -0.0485852 0.0299865 0.125161 0.020619 0.0299866 0.133189 0.0720304 0.0283404 0.111864 0.0954412 0.03 0.0944412 0.126161 0.0299865 0.0495852 0.133064 0.0283078 -0.00749532 0.124574 0.0299866 -0.0534194 0.0954412 0.03 -0.0944412 0.00100001 0.023 -0.13356 -0.0444673 0.0229232 -0.126344 -0.101335 0.0229198 -0.0869162 -0.131032 0.0229153 -0.0242964 -0.12544 0.0229145 0.0451053 -0.0933475 0.0259781 0.0945355 -0.0561132 0.0229206 0.121512 0.00100001 0.023 0.13356 0.0464673 0.0229232 0.126344 0.103336 0.0229198 0.086916 0.133032 0.0229153 0.0242961 0.12744 0.0229145 -0.0451053 0.0954412 0.023 -0.0944412 0.0581135 0.0229206 -0.121512 0.0502782 0.0287206 -0.124677 -0.0334099 0.0211632 0.0733699 -0.0566402 0.024182 0.0395995 0.0395704 0.021956 -0.0288184 -0.0217862 0.0429542 -0.132787 -0.07203 0.0413404 -0.111864 -0.0954412 0.043 -0.0944412 -0.126161 0.0429865 -0.0495852 -0.133064 0.0413078 0.00749583 -0.124574 0.0429866 0.0534194 -0.0505852 0.0429865 0.125161 0.018619 0.0429866 0.133189 0.0700311 0.0413404 0.111864 0.0934412 0.043 0.0944412 0.124161 0.0429865 0.0495851 0.131064 0.0413078 -0.00749583 0.122574 0.0429866 -0.0534194 0.0934412 0.043 -0.0944412 -0.000999989 0.036 -0.13356 -0.0464673 0.0359232 -0.126344 -0.103335 0.0359198 -0.0869162 -0.133032 0.0359153 -0.0242964 -0.12744 0.0359145 0.0451053 -0.0953475 0.0389781 0.0945355 -0.0581132 0.0359206 0.121512 -0.000999989 0.036 0.13356 0.0444672 0.0359232 0.126344 0.101335 0.0359198 0.0869163 0.131032 0.0359153 0.0242964 0.12544 0.0359145 -0.0451053 0.0934412 0.036 -0.0944412 0.0561132 0.0359206 -0.121512 0.0482783 0.0417206 -0.124677 -0.0354108 0.0341632 0.0733696 -0.0588816 0.0373336 -0.0264125 -0.0278517 0.0386361 0.0624998 0.0568821 0.0373336 0.0244126 0.0256564 0.0386059 -0.064713 -0.043506 0.05487 -0.125951 -0.0954412 0.056 -0.0954412 -0.0954412 0.056 0.0934412 0.0934412 0.056 0.0934412 0.0934412 0.056 -0.0954412 0.0574834 0.0549185 -0.119302 -0.0156948 0.0489615 -0.133966 -0.0677703 0.0526207 -0.116661 -0.0954412 0.049 -0.0954412 -0.116655 0.0526208 -0.0677804 -0.129998 0.0526208 -0.0355706 -0.134538 0.0532044 -0.000925048 -0.130001 0.0526208 0.0335604 -0.116661 0.0526208 0.0657703 -0.0954412 0.049 0.0934412 -0.0677804 0.0526208 0.114655 -0.0355706 0.0526208 0.127998 -0.00100513 0.0526208 0.13255 0.0335604 0.0526208 0.128001 0.0657703 0.0526208 0.114661 0.0934412 0.049 0.0934412 0.114655 0.0526207 0.0657804 0.127998 0.0526207 0.0335706 0.13255 0.0526207 -0.000994854 0.128001 0.0526207 -0.0355604 0.114661 0.0526207 -0.0677703 0.0838091 0.0489377 -0.105189 0.0335706 0.0526207 -0.129998 -0.00161587 0.0552424 -0.133794 -0.0958405 0.0514615 -0.0564009 -0.0160913 0.0509871 0.106331 0.0844053 0.0509872 0.0657354 0.0994973 0.0509872 -0.0415953 -0.0706889 0.0471767 0.0382766</float_array>
                    <technique_common>
                        <accessor count="133" source="#shape0-lib-positions-array" stride="3">
                            <param name="X" type="float"/>
                            <param name="Y" type="float"/>
                            <param name="Z" type="float"/>
                        </accessor>
                    </technique_common>
                </source>
                <source id="shape0-lib-normals" name="normal">
                    <float_array id="shape0-lib-normals-array" count="750">-0.0183071 -0.991874 -0.125901 -0.147077 -0.336184 -0.930241 -0.348312 0.490861 -0.798582 -0.0612156 -0.994204 -0.0883808 -0.511231 -0.441429 -0.737416 -0.596096 -0.16949 -0.78482 -0.0702554 -0.995316 -0.0664124 -0.785965 0.304329 -0.538185 -0.109124 -0.992676 -0.0518217 -0.755937 -0.547737 -0.35853 -0.853217 0.514069 -0.0880573 -0.16248 -0.986625 0.0130804 -0.898816 -0.432302 0.072417 -0.966681 0.189792 0.171777 -0.149504 -0.976126 0.157563 -0.790006 -0.305066 0.531813 -0.178847 -0.974374 0.136417 -0.565989 0.18851 0.802571 -0.0284309 -0.989559 0.141298 -0.198091 -0.274884 0.94085 -0.107843 0.352209 0.929687 0.0165903 -0.993216 0.115098 0.145648 -0.360054 0.921492 0.0397913 -0.995296 0.0883373 0.346333 0.495261 0.796724 0.0606673 -0.994308 0.0875895 0.511231 -0.441436 0.737413 0.5961 -0.169488 0.784818 0.785964 0.304333 0.538184 0.118599 -0.991344 0.0563149 0.755938 -0.547735 0.35853 0.853223 0.514058 0.0880615 0.158083 -0.987344 -0.012726 0.898808 -0.43232 -0.0724161 0.966681 0.189788 -0.171779 0.131641 -0.980452 -0.146233 0.790005 -0.305068 -0.531813 0.165822 -0.979082 -0.117908 0.542165 0.305142 -0.782909 0.0289697 -0.989175 -0.143852 0.199647 -0.24764 -0.948059 0.111204 0.431897 -0.895041 0.00676163 0.99564 0.093036 0.142846 0.984869 0.0981262 0.0743671 0.996495 0.0382988 0.0913027 0.995305 0.0321348 0.110889 0.99221 -0.0567721 0.0221981 0.98661 -0.161577 0.0188535 0.986522 -0.162542 -0.0210373 0.991645 -0.127267 -0.142852 0.984867 -0.0981301 -0.074368 0.996495 -0.038299 0.226065 0.94084 -0.252417 -0.0631304 0.996845 0.0481115 0.000945424 0.999257 0.0385309 0.0541612 0.998141 0.0279671 -0.0571576 0.997929 -0.029499 -0.0306541 0.999213 0.0251762 -0.0183073 -0.991874 -0.125901 -0.147078 -0.336188 -0.93024 -0.348313 0.490867 -0.798579 -0.0612156 -0.994204 -0.0883804 -0.511233 -0.441427 -0.737417 -0.596097 -0.169492 -0.784819 -0.0702551 -0.995316 -0.0664126 -0.785963 0.304335 -0.538184 -0.109124 -0.992676 -0.0518217 -0.755939 -0.547734 -0.35853 -0.853219 0.514064 -0.0880593 -0.162481 -0.986625 0.0130804 -0.89881 -0.432316 0.0724164 -0.966681 0.189788 0.171779 -0.149505 -0.976126 0.157563 -0.790006 -0.305067 0.531813 -0.178846 -0.974374 0.136418 -0.56599 0.1885 0.802573 -0.0284307 -0.989559 0.141299 -0.19809 -0.274874 0.940853 -0.107844 0.352208 0.929688 0.0165904 -0.993216 0.115098 0.145648 -0.360055 0.921492 0.0397914 -0.995296 0.0883372 0.346332 0.495256 0.796728 0.0606675 -0.994308 0.0875895 0.511233 -0.441431 0.737414 0.596096 -0.169499 0.784818 0.785962 0.304339 0.538183 0.1186 -0.991344 0.0563149 0.755938 -0.547736 0.358528 0.853218 0.514067 0.0880594 0.158084 -0.987344 -0.0127262 0.898819 -0.432296 -0.0724179 0.96668 0.189796 -0.171775 0.142338 -0.985342 -0.0940268 0.803318 -0.287572 -0.521519 0.815315 0 -0.579017 0.0972946 -0.986561 -0.131265 0.587083 0 -0.809527 0.529104 0.277085 -0.802043 0.02897 -0.989175 -0.143852 0.199648 -0.247659 -0.948054 0.111204 0.431897 -0.895041 0.00676191 0.99564 0.0930356 0.142849 0.984868 0.098128 0.0743674 0.996495 0.0382987 0.0913021 0.995305 0.032135 0.110889 0.99221 -0.0567718 0.0221986 0.98661 -0.161577 0.0188536 0.986521 -0.162542 -0.0210368 0.991645 -0.127269 -0.142847 0.984869 -0.0981264 -0.0743679 0.996495 -0.0382995 -0.0543014 0.997767 0.0388898 -0.0631302 0.996845 0.0481114 0.000945592 0.999257 0.0385309 0.0541611 0.998141 0.0279669 -0.057158 0.997929 -0.0294997 -0.0306541 0.999213 0.0251762 -0.0183072 -0.991874 -0.125901 -0.147077 -0.336186 -0.93024 -0.348313 0.49086 -0.798583 -0.0612157 -0.994204 -0.0883807 -0.511234 -0.441424 -0.737418 -0.596095 -0.169494 -0.78482 -0.0702555 -0.995316 -0.0664124 -0.785963 0.304334 -0.538184 -0.109124 -0.992676 -0.0518217 -0.755938 -0.547736 -0.358529 -0.853221 0.514061 -0.0880605 -0.16248 -0.986625 0.0130804 -0.89881 -0.432316 0.0724163 -0.966681 0.189789 0.171779 -0.149505 -0.976126 0.157563 -0.790005 -0.30507 0.531813 -0.178846 -0.974374 0.136418 -0.56599 0.188504 0.802572 -0.0284307 -0.989559 0.141299 -0.19809 -0.274875 0.940853 -0.107843 0.352209 0.929688 0.0165903 -0.993216 0.115099 0.145648 -0.360054 0.921492 0.0397914 -0.995296 0.0883373 0.346334 0.495259 0.796726 0.0606672 -0.994308 0.0875896 0.511231 -0.441434 0.737414 0.596099 -0.169486 0.784819 0.785965 0.304329 0.538185 0.118599 -0.991344 0.056315 0.755937 -0.547737 0.35853 0.853218 0.514067 0.0880584 0.158083 -0.987344 -0.0127261 0.898815 -0.432304 -0.0724171 0.966681 0.18979 -0.171776 0.142338 -0.985342 -0.0940263 0.803318 -0.287571 -0.52152 0.815315 0 -0.579017 0.097294 -0.986562 -0.131264 0.587082 0 -0.809528 0.529107 0.277074 -0.802045 0.0289697 -0.989175 -0.143852 0.199647 -0.24765 -0.948056 0.111203 0.431899 -0.89504 0.00676167 0.99564 0.0930368 0.142845 0.984869 0.0981251 0.0743669 0.996495 0.0382988 0.0913033 0.995305 0.0321342 0.11089 0.99221 -0.0567718 0.0221981 0.986611 -0.161576 0.0188534 0.986522 -0.162541 -0.0210371 0.991645 -0.127267 -0.142851 0.984868 -0.0981294 -0.074368 0.996495 -0.0382991 -0.0543014 0.997767 0.0388898 -0.0631306 0.996845 0.0481119 0.000945408 0.999257 0.0385309 0.0541614 0.998141 0.0279673 -0.0571575 0.997929 -0.0294991 -0.030654 0.999213 0.0251762 -0.0411218 -0.991467 -0.123702 -0.171464 0.40888 -0.896335 -0.120182 -0.98069 -0.154283 -0.320389 -0.280699 -0.904742 0.000874089 -0.98594 -0.167095 -0.608522 0 -0.793537 -0.225131 -0.973277 -0.0452562 -0.79351 0 -0.608557 -0.199268 -0.976462 -0.0825515 -0.208806 -0.977897 -0.0108849 -0.202066 -0.979321 0.0100081 -0.156993 -0.985457 0.0650226 -0.155893 -0.987726 -0.00969803 -0.152759 -0.985938 0.0677558 -0.793537 0 0.608522 -0.0458238 -0.973087 0.225838 -0.608557 0 0.79351 -0.0823587 -0.976573 0.198803 -0.0270859 -0.978246 0.205674 0.0197847 -0.988439 0.150324 0.0623606 -0.983059 0.172355 0.0663856 -0.984836 0.160284 -0.000874392 -0.98594 0.167095 0.608522 0 0.793537 0.225131 -0.973277 0.045257 0.793511 0 0.608557 0.199269 -0.976461 0.0825518 0.206729 -0.978019 0.027225 0.189896 -0.981486 -0.024993 0.156993 -0.985457 -0.0650228 0.154465 -0.987538 -0.030154 0.152922 -0.98592 -0.0676516 0.765537 -0.200092 -0.611487 0.502502 0.383895 -0.774672 0.0301749 -0.978025 -0.206295 0.415499 -0.24084 -0.87713 0.0885077 -0.976036 -0.198796 0.0922452 -0.179961 -0.979339 0.114265 0.88765 -0.446117 0.206887 0.971575 0.115063 -0.103258 0.994233 -0.0289734 -0.00776583 0.99329 0.115392 0.0453548 0.998794 0.0187893 0.025708 0.999579 -0.0134716 0.0910155 0.995838 0.00488112 0.0944145 0.994765 -0.0391042 0.030774 0.989043 -0.144384 0.0470454 0.99417 0.0970242 0.0822011 0.989202 -0.121334 0.0227177 0.998237 -0.0548374 0.00885724 0.997696 -0.0672571 -0.00760983 0.998298 -0.0578199 -0.0164043 0.999081 -0.039607 -0.0158004 0.99911 -0.0391147 -0.203043 0.972991 -0.109824 -0.0529828 0.985526 -0.161033 -0.0538786 0.998298 -0.0223203 -0.0425019 0.999081 -0.00559725 -0.0417741 0.99911 -0.00587385 -0.0588495 0.998237 0.00774545 -0.0626746 0.997696 0.0259583 0.044144 0.99517 0.0876813 -0.0982491 0.989797 0.103196 -0.00546856 0.998989 0.0446316 -0.000122095 0.998906 0.0467739 -0.00368073 0.998926 0.0461858 0.0793287 0.996559 0.0240267 -0.017064 0.998962 -0.0422429 -0.0239647 0.999707 -0.00336965 0.00107845 0.998751 0.0499452 -0.0188204 -0.999793 -0.00767883 0.0187229 -0.999792 0.00811261</float_array>
                    <technique_common>
                        <accessor count="250" source="#shape0-lib-normals-array" stride="3">
                            <param name="X" type="float"/>
                            <param name="Y" type="float"/>
                            <param name="Z" type="float"/>
                        </accessor>
                    </technique_common>
                </source>
                <source id="shape0-lib-vcolor" name="vcolor">
                    <float_array id="shape0-lib-vcolor-array" count="532">1 1 1 1 1 1 1 1 1 1 1 1 1 1 1 1 1 1 1 1 1 1 1 1 1 1 1 1 1 1 1 1 1 1 1 1 1 1 1 1 1 1 1 1 1 1 1 1 1 1 1 1 1 1 1 1 1 1 1 1 1 1 1 1 1 1 1 1 1 1 1 1 1 1 1 1 1 1 1 1 1 1 1 1 1 1 1 1 1 1 1 1 1 1 1 1 1 1 1 1 1 1 1 1 1 1 1 1 1 1 1 1 1 1 1 1 1 1 1 1 1 1 1 1 1 1 1 1 1 1 1 1 1 1 1 1 1 1 1 1 1 1 1 1 1 1 1 1 1 1 1 1 1 1 1 1 1 1 1 1 1 1 1 1 1 1 1 1 1 1 1 1 1 1 1 1 1 1 1 1 1 1 1 1 1 1 1 1 1 1 1 1 1 1 1 1 1 1 1 1 1 1 1 1 1 1 1 1 1 1 1 1 1 1 1 1 1 1 1 1 1 1 1 1 1 1 1 1 1 1 1 1 1 1 1 1 1 1 1 1 1 1 1 1 1 1 1 1 1 1 1 1 1 1 1 1 1 1 1 1 1 1 1 1 1 1 1 1 1 1 1 1 1 1 1 1 1 1 1 1 1 1 1 1 1 1 1 1 1 1 1 1 1 1 1 1 1 1 1 1 1 1 1 1 1 1 1 1 1 1 1 1 1 1 1 1 1 1 1 1 1 1 1 1 1 1 1 1 1 1 1 1 1 1 1 1 1 1 1 1 1 1 1 1 1 1 1 1 1 1 1 1 1 1 1 1 1 1 1 1 1 1 1 1 1 1 1 1 1 1 1 1 1 1 1 1 1 1 1 1 1 1 1 1 1 1 1 1 1 1 1 1 1 1 1 1 1 1 1 1 1 1 1 1 1 1 1 1 1 1 1 1 1 1 1 1 1 1 1 1 1 1 1 1 1 1 1 1 1 1 1 1 1 1 1 1 1 1 1 1 1 1 1 1 1 1 1 1 1 1 1 1 1 1 1 1 1 1 1 1 1 1 1 1 1 1 1 1 1 1 1 1 1 1 1 1 1 1 1 1 1 1 1 1 1 1 1 1 1 1 1 1 1 1 1 1 1 1 1 1 1 1 1 1 1 1 1 1 1 1 1 1 1 1 1 1 1 1 1 1 1 1 1 1 1 1 1 1 1 1 1 1</float_array>
                    <technique_common>
                        <accessor count="133" source="#shape0-lib-vcolor-array" stride="4">
                            <param name="R" type="float"/>
                            <param name="G" type="float"/>
                            <param name="B" type="float"/>
                            <param name="A" type="float"/>
                        </accessor>
                    </technique_common>
                </source>
                <source id="shape0-lib-map" name="map">
                    <float_array id="shape0-lib-map-array" count="1500">0.94077 0.0912449 0.929013 0.0828824 0.935534 0.0820551 0.93407 0.259733 0.932836 0.245621 0.935997 0.245595 0.93407 0.259733 0.935997 0.245595 0.937218 0.259745 0.94077 0.0912449 0.921555 0.0864264 0.929013 0.0828824 0.937218 0.259745 0.935997 0.245595 0.939034 0.245621 0.937218 0.259745 0.939034 0.245621 0.939034 0.259745 0.928341 0.0970117 0.921555 0.0864264 0.94077 0.0912449 0.926639 0.276694 0.927578 0.262543 0.929543 0.27669 0.928341 0.0970117 0.917828 0.0919081 0.921555 0.0864264 0.929543 0.27669 0.927578 0.262543 0.931475 0.262542 0.929543 0.27669 0.931475 0.262542 0.932836 0.276694 0.928341 0.0970117 0.918841 0.0978724 0.917828 0.0919081 0.932836 0.276694 0.931475 0.262542 0.935986 0.262542 0.932836 0.276694 0.935986 0.262542 0.936239 0.276691 0.928341 0.0970117 0.922828 0.101885 0.918841 0.0978724 0.936239 0.276691 0.935986 0.262542 0.939036 0.270907 0.928341 0.0970117 0.92835 0.104281 0.922828 0.101885 0.732744 0.290258 0.735401 0.279493 0.735645 0.293639 0.928341 0.0970117 0.935534 0.105287 0.92835 0.104281 0.735645 0.293639 0.735401 0.279493 0.738938 0.279519 0.735645 0.293639 0.738938 0.279519 0.740138 0.29364 0.928341 0.0970117 0.942055 0.10446 0.935534 0.105287 0.740138 0.29364 0.738938 0.279519 0.742098 0.279493 0.94077 0.0912449 0.942055 0.10446 0.928341 0.0970117 0.740138 0.29364 0.742098 0.279493 0.74332 0.293643 0.94077 0.0912449 0.949514 0.100916 0.942055 0.10446 0.74332 0.293643 0.742098 0.279493 0.745135 0.279519 0.74332 0.293643 0.745135 0.279519 0.745135 0.293643 0.864945 0.327541 0.865884 0.31339 0.867848 0.327537 0.94077 0.0912449 0.95324 0.0954345 0.949514 0.100916 0.867848 0.327537 0.865884 0.31339 0.869779 0.313389 0.867848 0.327537 0.869779 0.313389 0.871141 0.327541 0.94077 0.0912449 0.952228 0.0894703 0.95324 0.0954345 0.871141 0.327541 0.869779 0.313389 0.874291 0.313389 0.871141 0.327541 0.874291 0.313389 0.874545 0.327538 0.94077 0.0912449 0.94824 0.0854575 0.952228 0.0894703 0.874545 0.327538 0.874291 0.313389 0.877341 0.321754 0.94077 0.0912449 0.942719 0.0830614 0.94824 0.0854575 0.926642 0.256361 0.929299 0.245595 0.929545 0.259771 0.94077 0.0912449 0.935534 0.0820551 0.942719 0.0830614 0.929545 0.259771 0.929299 0.245595 0.932836 0.245621 0.929545 0.259771 0.932836 0.245621 0.93407 0.259733 0.823211 0.0821554 0.829949 0.0842746 0.814038 0.0831301 0.83324 0.0854575 0.837277 0.0893351 0.829949 0.0842746 0.837277 0.0893351 0.83779 0.0943805 0.829949 0.0842746 0.837117 0.0982574 0.83324 0.101885 0.825138 0.1001 0.837117 0.0982574 0.825138 0.1001 0.83779 0.0943805 0.83324 0.101885 0.827242 0.104495 0.825138 0.1001 0.827242 0.104495 0.817974 0.105213 0.825138 0.1001 0.817974 0.105213 0.81112 0.103068 0.825138 0.1001 0.807828 0.101885 0.803792 0.0980076 0.81112 0.103068 0.803792 0.0980076 0.803279 0.0929621 0.81112 0.103068 0.803952 0.0890853 0.807828 0.0854575 0.814038 0.0831301 0.803952 0.0890853 0.814038 0.0831301 0.803279 0.0929621 0.814038 0.0831301 0.829949 0.0842746 0.825138 0.1001 0.829949 0.0842746 0.83779 0.0943805 0.825138 0.1001 0.81112 0.103068 0.803279 0.0929621 0.825138 0.1001 0.803279 0.0929621 0.814038 0.0831301 0.825138 0.1001 0.749103 0.1168 0.737347 0.108438 0.743868 0.107611 0.912036 0.327529 0.910803 0.313417 0.913963 0.313391 0.912036 0.327529 0.913963 0.313391 0.915185 0.327541 0.749103 0.1168 0.729889 0.111982 0.737347 0.108438 0.915185 0.327541 0.913963 0.313391 0.917 0.313417 0.915185 0.327541 0.917 0.313417 0.917 0.327541 0.736674 0.122567 0.729889 0.111982 0.749103 0.1168 0.851724 0.327541 0.852663 0.31339 0.854628 0.327537 0.736674 0.122567 0.726162 0.117464 0.729889 0.111982 0.854628 0.327537 0.852663 0.31339 0.85656 0.313389 0.854628 0.327537 0.85656 0.313389 0.857921 0.327541 0.736674 0.122567 0.727174 0.123428 0.726162 0.117464 0.857921 0.327541 0.85656 0.313389 0.86107 0.313389 0.857921 0.327541 0.86107 0.313389 0.861324 0.327538 0.736674 0.122567 0.731162 0.127441 0.727174 0.123428 0.861324 0.327538 0.86107 0.313389 0.86412 0.321754 0.736674 0.122567 0.736683 0.129837 0.731162 0.127441 0.812066 0.324156 0.814723 0.313391 0.814967 0.327537 0.736674 0.122567 0.743868 0.130843 0.736683 0.129837 0.814967 0.327537 0.814723 0.313391 0.81826 0.313417 0.814967 0.327537 0.81826 0.313417 0.819461 0.327538 0.736674 0.122567 0.750388 0.130016 0.743868 0.130843 0.819461 0.327538 0.81826 0.313417 0.821421 0.313391 0.749103 0.1168 0.750388 0.130016 0.736674 0.122567 0.819461 0.327538 0.821421 0.313391 0.822642 0.327541 0.749103 0.1168 0.757846 0.126472 0.750388 0.130016 0.822642 0.327541 0.821421 0.313391 0.824457 0.313417 0.822642 0.327541 0.824457 0.313417 0.824457 0.327541 0.772402 0.327541 0.773341 0.31339 0.775306 0.327537 0.749103 0.1168 0.761573 0.12099 0.757846 0.126472 0.775306 0.327537 0.773341 0.31339 0.777238 0.313389 0.775306 0.327537 0.777238 0.313389 0.778599 0.327541 0.749103 0.1168 0.760561 0.115026 0.761573 0.12099 0.778599 0.327541 0.777238 0.313389 0.781749 0.313389 0.778599 0.327541 0.781749 0.313389 0.782002 0.327538 0.749103 0.1168 0.756573 0.111013 0.760561 0.115026 0.782002 0.327538 0.781749 0.313389 0.784796 0.313417 0.782002 0.327538 0.784796 0.313417 0.784796 0.327541 0.749103 0.1168 0.751052 0.108617 0.756573 0.111013 0.904605 0.327541 0.904605 0.313417 0.907266 0.313391 0.904605 0.327541 0.907266 0.313391 0.907511 0.327567 0.749103 0.1168 0.743868 0.107611 0.751052 0.108617 0.907511 0.327567 0.907266 0.313391 0.910803 0.313417 0.907511 0.327567 0.910803 0.313417 0.912036 0.327529 0.784878 0.107711 0.791615 0.10983 0.775705 0.108686 0.794907 0.111013 0.798943 0.11489 0.791615 0.10983 0.798943 0.11489 0.799456 0.119936 0.791615 0.10983 0.798783 0.123813 0.794907 0.127441 0.786805 0.125656 0.798783 0.123813 0.786805 0.125656 0.799456 0.119936 0.794907 0.127441 0.788909 0.130051 0.786805 0.125656 0.788909 0.130051 0.779641 0.130769 0.786805 0.125656 0.779641 0.130769 0.772787 0.128623 0.786805 0.125656 0.769495 0.127441 0.765459 0.123563 0.772787 0.128623 0.765459 0.123563 0.764945 0.118518 0.772787 0.128623 0.765618 0.114641 0.769495 0.111013 0.775705 0.108686 0.765618 0.114641 0.775705 0.108686 0.764945 0.118518 0.775705 0.108686 0.791615 0.10983 0.786805 0.125656 0.791615 0.10983 0.799456 0.119936 0.786805 0.125656 0.772787 0.128623 0.764945 0.118518 0.786805 0.125656 0.764945 0.118518 0.775705 0.108686 0.786805 0.125656 0.902437 0.0912449 0.89068 0.0828824 0.897201 0.0820551 0.753392 0.327529 0.752159 0.313417 0.755319 0.313391 0.753392 0.327529 0.755319 0.313391 0.756541 0.327541 0.902437 0.0912449 0.883222 0.0864264 0.89068 0.0828824 0.756541 0.327541 0.755319 0.313391 0.758356 0.313417 0.756541 0.327541 0.758356 0.313417 0.758356 0.327541 0.890007 0.0970117 0.883222 0.0864264 0.902437 0.0912449 0.917826 0.310592 0.918765 0.296441 0.92073 0.310588 0.890007 0.0970117 0.879495 0.0919081 0.883222 0.0864264 0.92073 0.310588 0.918765 0.296441 0.922662 0.29644 0.92073 0.310588 0.922662 0.29644 0.924023 0.310592 0.890007 0.0970117 0.880508 0.0978724 0.879495 0.0919081 0.924023 0.310592 0.922662 0.29644 0.927172 0.29644 0.924023 0.310592 0.927172 0.29644 0.927426 0.310589 0.890007 0.0970117 0.884495 0.101885 0.880508 0.0978724 0.927426 0.310589 0.927172 0.29644 0.930222 0.304805 0.890007 0.0970117 0.890016 0.104281 0.884495 0.101885 0.759185 0.375005 0.761842 0.364239 0.762086 0.378385 0.890007 0.0970117 0.897201 0.105287 0.890016 0.104281 0.762086 0.378385 0.761842 0.364239 0.765379 0.364265 0.762086 0.378385 0.765379 0.364265 0.766579 0.378386 0.890007 0.0970117 0.903721 0.10446 0.897201 0.105287 0.766579 0.378386 0.765379 0.364265 0.768539 0.364239 0.902437 0.0912449 0.903721 0.10446 0.890007 0.0970117 0.766579 0.378386 0.768539 0.364239 0.769761 0.378389 0.902437 0.0912449 0.91118 0.100916 0.903721 0.10446 0.769761 0.378389 0.768539 0.364239 0.771576 0.364265 0.769761 0.378389 0.771576 0.364265 0.771576 0.378389 0.851724 0.378389 0.852663 0.364238 0.854628 0.378385 0.902437 0.0912449 0.914907 0.0954345 0.91118 0.100916 0.854628 0.378385 0.852663 0.364238 0.85656 0.364237 0.854628 0.378385 0.85656 0.364237 0.857921 0.378389 0.902437 0.0912449 0.913894 0.0894703 0.914907 0.0954345 0.857921 0.378389 0.85656 0.364237 0.86107 0.364237 0.857921 0.378389 0.86107 0.364237 0.861324 0.378386 0.902437 0.0912449 0.909907 0.0854575 0.913894 0.0894703 0.861324 0.378386 0.86107 0.364237 0.864118 0.364265 0.861324 0.378386 0.864118 0.364265 0.864118 0.378389 0.902437 0.0912449 0.904385 0.0830614 0.909907 0.0854575 0.745961 0.327541 0.745961 0.313417 0.748622 0.313391 0.745961 0.327541 0.748622 0.313391 0.748867 0.327567 0.902437 0.0912449 0.897201 0.0820551 0.904385 0.0830614 0.748867 0.327567 0.748622 0.313391 0.752159 0.313417 0.748867 0.327567 0.752159 0.313417 0.753392 0.327529 0.861544 0.0821554 0.868282 0.0842746 0.852371 0.0831301 0.871574 0.0854575 0.87561 0.0893351 0.868282 0.0842746 0.87561 0.0893351 0.876123 0.0943805 0.868282 0.0842746 0.87545 0.0982574 0.871574 0.101885 0.863472 0.1001 0.87545 0.0982574 0.863472 0.1001 0.876123 0.0943805 0.871574 0.101885 0.865575 0.104495 0.863472 0.1001 0.865575 0.104495 0.856307 0.105213 0.863472 0.1001 0.856307 0.105213 0.849454 0.103068 0.863472 0.1001 0.846162 0.101885 0.842125 0.0980076 0.849454 0.103068 0.842125 0.0980076 0.841612 0.0929621 0.849454 0.103068 0.842285 0.0890853 0.846162 0.0854575 0.852371 0.0831301 0.842285 0.0890853 0.852371 0.0831301 0.841612 0.0929621 0.852371 0.0831301 0.868282 0.0842746 0.863472 0.1001 0.868282 0.0842746 0.876123 0.0943805 0.863472 0.1001 0.849454 0.103068 0.841612 0.0929621 0.863472 0.1001 0.841612 0.0929621 0.852371 0.0831301 0.863472 0.1001 0.472793 0.066256 0.485542 0.032975 0.498832 0.0542735 0.620135 0.2712 0.62628 0.256792 0.632177 0.2712 0.472793 0.066256 0.469829 0.0380452 0.485542 0.032975 0.632177 0.2712 0.62628 0.256792 0.643398 0.264922 0.472793 0.066256 0.461229 0.0446437 0.469829 0.0380452 0.643398 0.264922 0.653035 0.256807 0.653035 0.2712 0.472793 0.066256 0.454631 0.0532429 0.461229 0.0446437 0.587234 0.219382 0.587234 0.204988 0.596869 0.213103 0.472793 0.066256 0.450483 0.063257 0.454631 0.0532429 0.472793 0.066256 0.449068 0.0740035 0.450483 0.063257 0.472793 0.066256 0.450483 0.0847498 0.449068 0.0740035 0.472793 0.066256 0.454631 0.0947639 0.450483 0.0847498 0.482294 0.0936783 0.461229 0.103363 0.454631 0.0947639 0.482294 0.0936783 0.454631 0.0947639 0.472793 0.066256 0.643398 0.213103 0.653035 0.204988 0.653035 0.219382 0.482294 0.0936783 0.469829 0.109962 0.461229 0.103363 0.276325 0.305746 0.276325 0.291352 0.28596 0.299467 0.482294 0.0936783 0.479843 0.11411 0.469829 0.109962 0.482294 0.0936783 0.490589 0.115524 0.479843 0.11411 0.508385 0.0817509 0.501336 0.11411 0.490589 0.115524 0.508385 0.0817509 0.490589 0.115524 0.482294 0.0936783 0.508385 0.0817509 0.51135 0.109962 0.501336 0.11411 0.508385 0.0817509 0.519949 0.103363 0.51135 0.109962 0.332489 0.299467 0.342126 0.291352 0.342126 0.305746 0.508385 0.0817509 0.526547 0.0947639 0.519949 0.103363 0.518143 0.2712 0.518143 0.256807 0.527779 0.264922 0.508385 0.0817509 0.530695 0.0847498 0.526547 0.0947639 0.508385 0.0817509 0.53211 0.0740035 0.530695 0.0847498 0.508385 0.0817509 0.530695 0.063257 0.53211 0.0740035 0.508385 0.0817509 0.526547 0.0532429 0.530695 0.063257 0.498832 0.0542735 0.516179 0.0414526 0.526547 0.0532429 0.498832 0.0542735 0.526547 0.0532429 0.508385 0.0817509 0.574307 0.264922 0.583944 0.256807 0.583944 0.2712 0.587234 0.2712 0.592688 0.256786 0.59687 0.2712 0.498832 0.0542735 0.501336 0.0338973 0.516179 0.0414526 0.59687 0.2712 0.592688 0.256786 0.608091 0.264922 0.498832 0.0542735 0.485542 0.032975 0.501336 0.0338973 0.608091 0.264922 0.62628 0.256792 0.620135 0.2712 0.566206 0.0338973 0.577103 0.0334238 0.559283 0.0379733 0.597713 0.0380452 0.606312 0.0446437 0.606406 0.056833 0.597713 0.0380452 0.606406 0.056833 0.589987 0.0360473 0.606312 0.0446437 0.612911 0.0532429 0.606406 0.056833 0.612911 0.0532429 0.617059 0.063257 0.606406 0.056833 0.617059 0.063257 0.617532 0.0741537 0.606406 0.056833 0.617532 0.0741537 0.617059 0.0847498 0.598643 0.0862577 0.617059 0.0847498 0.612911 0.0947639 0.598643 0.0862577 0.612911 0.0947639 0.606312 0.103363 0.598643 0.0862577 0.606312 0.103363 0.597713 0.109962 0.581582 0.107286 0.606312 0.103363 0.581582 0.107286 0.598643 0.0862577 0.597713 0.109962 0.587699 0.11411 0.581582 0.107286 0.587699 0.11411 0.576953 0.115524 0.581582 0.107286 0.576953 0.115524 0.566206 0.11411 0.581582 0.107286 0.566206 0.11411 0.556192 0.109962 0.550444 0.0946531 0.566206 0.11411 0.550444 0.0946531 0.581582 0.107286 0.556192 0.109962 0.547593 0.103363 0.550444 0.0946531 0.547593 0.103363 0.540994 0.0947639 0.550444 0.0946531 0.540994 0.0947639 0.536847 0.0847498 0.550444 0.0946531 0.536847 0.0847498 0.535432 0.0740035 0.545815 0.0613708 0.536847 0.0847498 0.545815 0.0613708 0.550444 0.0946531 0.535432 0.0740035 0.536847 0.063257 0.545815 0.0613708 0.536847 0.063257 0.540994 0.0532429 0.545815 0.0613708 0.540994 0.0532429 0.547593 0.0446437 0.545815 0.0613708 0.547593 0.0446437 0.559283 0.0379733 0.545815 0.0613708 0.559283 0.0379733 0.577103 0.0334238 0.598643 0.0862577 0.577103 0.0334238 0.589987 0.0360473 0.598643 0.0862577 0.589987 0.0360473 0.606406 0.056833 0.598643 0.0862577 0.606406 0.056833 0.617532 0.0741537 0.598643 0.0862577 0.581582 0.107286 0.550444 0.0946531 0.598643 0.0862577 0.550444 0.0946531 0.545815 0.0613708 0.598643 0.0862577 0.545815 0.0613708 0.559283 0.0379733 0.598643 0.0862577 0.508385 0.0817509 0.482294 0.0936783 0.498832 0.0542735 0.482294 0.0936783 0.472793 0.066256 0.498832 0.0542735</float_array>
                    <technique_common>
                        <accessor count="750" source="#shape0-lib-map-array" stride="2">
                            <param name="U" type="float"/>
                            <param name="V" type="float"/>
                        </accessor>
                    </technique_common>
                </source>
                <vertices id="shape0-lib-vertices">
                    <input semantic="POSITION" source="#shape0-lib-positions"/>
                </vertices>
                <triangles count="250" material="material0">
                    <input offset="0" semantic="VERTEX" source="#shape0-lib-vertices"/>
                    <input offset="1" semantic="COLOR" source="#shape0-lib-vcolor"/>
                    <input offset="2" semantic="NORMAL" source="#shape0-lib-normals"/>
                    <input offset="3" semantic="TEXCOORD" source="#shape0-lib-map"/>
                    <p>1 1 0 0 16 16 0 1 15 15 0 2 2 2 1 3 15 15 1 4 16 16 1 5 2 2 2 6 16 16 2 7 3 3 2 8 1 1 3 9 17 17 3 10 16 16 3 11 3 3 4 12 16 16 4 13 17 17 4 14 3 3 5 15 17 17 5 16 4 4 5 17 0 0 6 18 17 17 6 19 1 1 6 20 4 4 7 21 17 17 7 22 5 5 7 23 0 0 8 24 18 18 8 25 17 17 8 26 5 5 9 27 17 17 9 28 18 18 9 29 5 5 10 30 18 18 10 31 6 6 10 32 0 0 11 33 19 19 11 34 18 18 11 35 6 6 12 36 18 18 12 37 19 19 12 38 6 6 13 39 19 19 13 40 7 7 13 41 0 0 14 42 20 20 14 43 19 19 14 44 7 7 15 45 19 19 15 46 20 20 15 47 0 0 16 48 21 21 16 49 20 20 16 50 20 20 17 51 21 21 17 52 8 8 17 53 0 0 18 54 22 22 18 55 21 21 18 56 8 8 19 57 21 21 19 58 22 22 19 59 8 8 20 60 22 22 20 61 9 9 20 62 0 0 21 63 23 23 21 64 22 22 21 65 9 9 22 66 22 22 22 67 23 23 22 68 1 1 23 69 23 23 23 70 0 0 23 71 9 9 24 72 23 23 24 73 10 10 24 74 1 1 25 75 24 24 25 76 23 23 25 77 10 10 26 78 23 23 26 79 24 24 26 80 10 10 27 81 24 24 27 82 11 11 27 83 11 11 28 84 24 24 28 85 12 12 28 86 1 1 29 87 25 25 29 88 24 24 29 89 12 12 30 90 24 24 30 91 25 25 30 92 12 12 31 93 25 25 31 94 13 13 31 95 1 1 32 96 26 26 32 97 25 25 32 98 13 13 33 99 25 25 33 100 26 26 33 101 13 13 34 102 26 26 34 103 14 14 34 104 1 1 35 105 27 27 35 106 26 26 35 107 14 14 36 108 26 26 36 109 27 27 36 110 1 1 37 111 28 28 37 112 27 27 37 113 27 27 38 114 28 28 38 115 29 29 38 116 1 1 39 117 15 15 39 118 28 28 39 119 29 29 40 120 28 28 40 121 15 15 40 122 29 29 41 123 15 15 41 124 2 2 41 125 2 2 42 126 3 3 42 127 29 29 42 128 4 4 43 129 5 5 43 130 3 3 43 131 5 5 44 132 6 6 44 133 3 3 44 134 7 7 45 135 20 20 45 136 30 30 45 137 7 7 46 138 30 30 46 139 6 6 46 140 20 20 47 141 8 8 47 142 30 30 47 143 8 8 48 144 9 9 48 145 30 30 48 146 9 9 49 147 10 10 49 148 30 30 49 149 11 11 50 150 12 12 50 151 10 10 50 152 12 12 51 153 13 13 51 154 10 10 51 155 14 14 52 156 27 27 52 157 29 29 52 158 14 14 53 159 29 29 53 160 13 13 53 161 29 29 54 162 3 3 54 163 30 30 54 164 3 3 55 165 6 6 55 166 30 30 55 167 10 10 56 168 13 13 56 169 30 30 56 170 13 13 57 171 29 29 57 172 30 30 57 173 32 32 58 174 48 48 58 175 47 47 58 176 33 33 59 177 47 47 59 178 48 48 59 179 33 33 60 180 48 48 60 181 34 34 60 182 32 32 61 183 49 49 61 184 48 48 61 185 34 34 62 186 48 48 62 187 49 49 62 188 34 34 63 189 49 49 63 190 35 35 63 191 31 31 64 192 49 49 64 193 32 32 64 194 35 35 65 195 49 49 65 196 36 36 65 197 31 31 66 198 50 50 66 199 49 49 66 200 36 36 67 201 49 49 67 202 50 50 67 203 36 36 68 204 50 50 68 205 37 37 68 206 31 31 69 207 51 51 69 208 50 50 69 209 37 37 70 210 50 50 70 211 51 51 70 212 37 37 71 213 51 51 71 214 38 38 71 215 31 31 72 216 52 52 72 217 51 51 72 218 38 38 73 219 51 51 73 220 52 52 73 221 31 31 74 222 53 53 74 223 52 52 74 224 52 52 75 225 53 53 75 226 39 39 75 227 31 31 76 228 54 54 76 229 53 53 76 230 39 39 77 231 53 53 77 232 54 54 77 233 39 39 78 234 54 54 78 235 40 40 78 236 31 31 79 237 55 55 79 238 54 54 79 239 40 40 80 240 54 54 80 241 55 55 80 242 32 32 81 243 55 55 81 244 31 31 81 245 40 40 82 246 55 55 82 247 41 41 82 248 32 32 83 249 56 56 83 250 55 55 83 251 41 41 84 252 55 55 84 253 56 56 84 254 41 41 85 255 56 56 85 256 42 42 85 257 42 42 86 258 56 56 86 259 43 43 86 260 32 32 87 261 57 57 87 262 56 56 87 263 43 43 88 264 56 56 88 265 57 57 88 266 43 43 89 267 57 57 89 268 44 44 89 269 32 32 90 270 58 58 90 271 57 57 90 272 44 44 91 273 57 57 91 274 58 58 91 275 44 44 92 276 58 58 92 277 45 45 92 278 32 32 93 279 59 59 93 280 58 58 93 281 45 45 94 282 58 58 94 283 59 59 94 284 45 45 95 285 59 59 95 286 46 46 95 287 32 32 96 288 60 60 96 289 59 59 96 290 46 46 97 291 59 59 97 292 60 60 97 293 46 46 98 294 60 60 98 295 61 61 98 296 32 32 99 297 47 47 99 298 60 60 99 299 61 61 100 300 60 60 100 301 47 47 100 302 61 61 101 303 47 47 101 304 33 33 101 305 33 33 102 306 34 34 102 307 61 61 102 308 35 35 103 309 36 36 103 310 34 34 103 311 36 36 104 312 37 37 104 313 34 34 104 314 38 38 105 315 52 52 105 316 62 62 105 317 38 38 106 318 62 62 106 319 37 37 106 320 52 52 107 321 39 39 107 322 62 62 107 323 39 39 108 324 40 40 108 325 62 62 108 326 40 40 109 327 41 41 109 328 62 62 109 329 42 42 110 330 43 43 110 331 41 41 110 332 43 43 111 333 44 44 111 334 41 41 111 335 45 45 112 336 46 46 112 337 61 61 112 338 45 45 113 339 61 61 113 340 44 44 113 341 61 61 114 342 34 34 114 343 62 62 114 344 34 34 115 345 37 37 115 346 62 62 115 347 41 41 116 348 44 44 116 349 62 62 116 350 44 44 117 351 61 61 117 352 62 62 117 353 64 64 118 354 80 80 118 355 79 79 118 356 65 65 119 357 79 79 119 358 80 80 119 359 65 65 120 360 80 80 120 361 66 66 120 362 64 64 121 363 81 81 121 364 80 80 121 365 66 66 122 366 80 80 122 367 81 81 122 368 66 66 123 369 81 81 123 370 67 67 123 371 63 63 124 372 81 81 124 373 64 64 124 374 67 67 125 375 81 81 125 376 68 68 125 377 63 63 126 378 82 82 126 379 81 81 126 380 68 68 127 381 81 81 127 382 82 82 127 383 68 68 128 384 82 82 128 385 69 69 128 386 63 63 129 387 83 83 129 388 82 82 129 389 69 69 130 390 82 82 130 391 83 83 130 392 69 69 131 393 83 83 131 394 70 70 131 395 63 63 132 396 84 84 132 397 83 83 132 398 70 70 133 399 83 83 133 400 84 84 133 401 63 63 134 402 85 85 134 403 84 84 134 404 84 84 135 405 85 85 135 406 71 71 135 407 63 63 136 408 86 86 136 409 85 85 136 410 71 71 137 411 85 85 137 412 86 86 137 413 71 71 138 414 86 86 138 415 72 72 138 416 63 63 139 417 87 87 139 418 86 86 139 419 72 72 140 420 86 86 140 421 87 87 140 422 64 64 141 423 87 87 141 424 63 63 141 425 72 72 142 426 87 87 142 427 73 73 142 428 64 64 143 429 88 88 143 430 87 87 143 431 73 73 144 432 87 87 144 433 88 88 144 434 73 73 145 435 88 88 145 436 74 74 145 437 74 74 146 438 88 88 146 439 75 75 146 440 64 64 147 441 89 89 147 442 88 88 147 443 75 75 148 444 88 88 148 445 89 89 148 446 75 75 149 447 89 89 149 448 76 76 149 449 64 64 150 450 90 90 150 451 89 89 150 452 76 76 151 453 89 89 151 454 90 90 151 455 76 76 152 456 90 90 152 457 77 77 152 458 64 64 153 459 91 91 153 460 90 90 153 461 77 77 154 462 90 90 154 463 91 91 154 464 77 77 155 465 91 91 155 466 78 78 155 467 64 64 156 468 92 92 156 469 91 91 156 470 78 78 157 471 91 91 157 472 92 92 157 473 78 78 158 474 92 92 158 475 93 93 158 476 64 64 159 477 79 79 159 478 92 92 159 479 93 93 160 480 92 92 160 481 79 79 160 482 93 93 161 483 79 79 161 484 65 65 161 485 65 65 162 486 66 66 162 487 93 93 162 488 67 67 163 489 68 68 163 490 66 66 163 491 68 68 164 492 69 69 164 493 66 66 164 494 70 70 165 495 84 84 165 496 94 94 165 497 70 70 166 498 94 94 166 499 69 69 166 500 84 84 167 501 71 71 167 502 94 94 167 503 71 71 168 504 72 72 168 505 94 94 168 506 72 72 169 507 73 73 169 508 94 94 169 509 74 74 170 510 75 75 170 511 73 73 170 512 75 75 171 513 76 76 171 514 73 73 171 515 77 77 172 516 78 78 172 517 93 93 172 518 77 77 173 519 93 93 173 520 76 76 173 521 93 93 174 522 66 66 174 523 94 94 174 524 66 66 175 525 69 69 175 526 94 94 175 527 73 73 176 528 76 76 176 529 94 94 176 530 76 76 177 531 93 93 177 532 94 94 177 533 95 95 178 534 105 105 178 535 98 98 178 536 127 127 179 537 105 105 179 538 99 99 179 539 95 95 180 540 106 106 180 541 105 105 180 542 99 99 181 543 105 105 181 544 106 106 181 545 95 95 182 546 107 107 182 547 106 106 182 548 106 106 183 549 107 107 183 550 100 100 183 551 95 95 184 552 108 108 184 553 107 107 184 554 100 100 185 555 107 107 185 556 108 108 185 557 95 95 186 558 109 109 186 559 108 108 186 560 95 95 187 561 110 110 187 562 109 109 187 563 95 95 188 564 111 111 188 565 110 110 188 566 95 95 189 567 112 112 189 568 111 111 189 569 96 96 190 570 113 113 190 571 112 112 190 572 96 96 191 573 112 112 191 574 95 95 191 575 112 112 192 576 113 113 192 577 101 101 192 578 96 96 193 579 114 114 193 580 113 113 193 581 101 101 194 582 113 113 194 583 114 114 194 584 96 96 195 585 115 115 195 586 114 114 195 587 96 96 196 588 116 116 196 589 115 115 196 590 97 97 197 591 117 117 197 592 116 116 197 593 97 97 198 594 116 116 198 595 96 96 198 596 97 97 199 597 118 118 199 598 117 117 199 599 97 97 200 600 119 119 200 601 118 118 200 602 118 118 201 603 119 119 201 604 102 102 201 605 97 97 202 606 120 120 202 607 119 119 202 608 102 102 203 609 119 119 203 610 120 120 203 611 97 97 204 612 121 121 204 613 120 120 204 614 97 97 205 615 122 122 205 616 121 121 205 617 97 97 206 618 123 123 206 619 122 122 206 620 97 97 207 621 124 124 207 622 123 123 207 623 98 98 208 624 125 125 208 625 124 124 208 626 98 98 209 627 124 124 209 628 97 97 209 629 124 124 210 630 125 125 210 631 103 103 210 632 103 103 211 633 125 125 211 634 104 104 211 635 98 98 212 636 126 126 212 637 125 125 212 638 104 104 213 639 125 125 213 640 126 126 213 641 98 98 214 642 105 105 214 643 126 126 214 644 126 126 215 645 105 105 215 646 127 127 215 647 126 126 216 648 127 127 216 649 104 104 216 650 106 106 217 651 100 100 217 652 128 128 217 653 106 106 218 654 128 128 218 655 99 99 218 656 100 100 219 657 108 108 219 658 128 128 219 659 108 108 220 660 109 109 220 661 128 128 220 662 109 109 221 663 110 110 221 664 128 128 221 665 110 110 222 666 111 111 222 667 132 132 222 668 111 111 223 669 112 112 223 670 132 132 223 671 112 112 224 672 101 101 224 673 132 132 224 674 101 101 225 675 114 114 225 676 129 129 225 677 101 101 226 678 129 129 226 679 132 132 226 680 114 114 227 681 115 115 227 682 129 129 227 683 115 115 228 684 116 116 228 685 129 129 228 686 116 116 229 687 117 117 229 688 129 129 229 689 117 117 230 690 118 118 230 691 130 130 230 692 117 117 231 693 130 130 231 694 129 129 231 695 118 118 232 696 102 102 232 697 130 130 232 698 102 102 233 699 120 120 233 700 130 130 233 701 120 120 234 702 121 121 234 703 130 130 234 704 121 121 235 705 122 122 235 706 131 131 235 707 121 121 236 708 131 131 236 709 130 130 236 710 122 122 237 711 123 123 237 712 131 131 237 713 123 123 238 714 124 124 238 715 131 131 238 716 124 124 239 717 103 103 239 718 131 131 239 719 103 103 240 720 104 104 240 721 131 131 240 722 104 104 241 723 127 127 241 724 132 132 241 725 127 127 242 726 99 99 242 727 132 132 242 728 99 99 243 729 128 128 243 730 132 132 243 731 128 128 244 732 110 110 244 733 132 132 244 734 129 129 245 735 130 130 245 736 132 132 245 737 130 130 246 738 131 131 246 739 132 132 246 740 131 131 247 741 104 104 247 742 132 132 247 743 97 97 248 744 96 96 248 745 98 98 248 746 96 96 249 747 95 95 249 748 98 98 249 749</p>
                </triangles>
            </mesh>
        </geometry>
    </library_geometries>
    <library_visual_scenes>
        <visual_scene id="VisualSceneNode" name="VisualScene">
            <node id="node" name="node">
                <instance_geometry url="#shape0-lib">
                    <bind_material>
                        <technique_common>
                            <instance_material symbol="material0" target="#material0">
                                <bind_vertex_input semantic="UVSET0" input_semantic="TEXCOORD"/>
                            </instance_material>
                        </technique_common>
                    </bind_material>
                </instance_geometry>
            </node>
        </visual_scene>
    </library_visual_scenes>
    <scene>
        <instance_visual_scene url="#VisualSceneNode"/>
    </scene>
</COLLADA>
