<?xml version="1.0" encoding="UTF-8"?>
<COLLADA xmlns="http://www.collada.org/2005/11/COLLADASchema" version="1.4.1">
    <asset>
        <contributor>
            <author>VCGLab</author>
            <authoring_tool>VCGLib | MeshLab</authoring_tool>
        </contributor>
        <created>Thu Jul 3 02:15:40 2025 GMT</created>
        <modified>Thu Jul 3 02:15:40 2025 GMT</modified>
        <up_axis>Y_UP</up_axis>
    </asset>
    <library_images>
        <image id="texture0" name="texture0">
            <init_from>./image/shelf_items.png</init_from>
        </image>
    </library_images>
    <library_materials>
        <material id="material0" name="material0">
            <instance_effect url="#material0-fx"/>
        </material>
    </library_materials>
    <library_effects>
        <effect id="material0-fx">
            <profile_COMMON>
                <newparam sid="texture0-surface">
                    <surface type="2D">
                        <init_from>texture0</init_from>
                        <format>R8G8B8</format>
                    </surface>
                </newparam>
                <newparam sid="texture0-sampler">
                    <sampler2D>
                        <source>texture0-surface</source>
                        <minfilter>LINEAR</minfilter>
                        <magfilter>LINEAR</magfilter>
                    </sampler2D>
                </newparam>
                <technique sid="common">
                    <blinn>
                        <diffuse>
                            <texture texture="texture0-sampler" texcoord="UVSET0"/>
                        </diffuse>
                    </blinn>
                </technique>
            </profile_COMMON>
        </effect>
    </library_effects>
    <library_geometries>
        <geometry id="shape0-lib" name="shape0">
            <mesh>
                <source id="shape0-lib-positions" name="position">
                    <float_array id="shape0-lib-positions-array" count="156">0.0761086 0.0762678 0.0398347 0.101563 0.150358 -0.0205454 0.0713001 0.194931 -0.0129749 0.0417619 0.0339854 -0.0153818 0.068604 0.080557 -0.0496741 0.0733611 0.171584 -0.0560865 0.0203238 0.0331164 -0.0385334 0.0524993 0.128726 -0.0867318 0.0364361 0.171961 -0.0847237 0.00292559 0.252577 -0.0113969 0.0242612 0.0727224 -0.0759309 -0.00843999 0.176365 -0.0895027 -0.0101899 0.0331526 -0.0424552 0.0165617 0.221159 -0.0285741 -0.0222892 0.0808592 -0.0821376 -0.0242085 0.1262 -0.0981858 -0.0230887 0.198542 -0.0652124 -0.0708276 0.117576 -0.0688787 -0.0569989 0.17221 -0.0724356 -0.0360131 0.0329746 -0.0257747 -0.0672546 0.0713297 -0.0432778 -0.0931657 0.146541 -0.0417067 -0.0640176 0.196847 -0.0304437 -0.0898842 0.175658 0.0088301 -0.0427289 0.0324634 0.0119488 -0.0253675 0.221929 -0.0173606 -0.0976722 0.111302 0.023357 -0.0628937 0.199906 0.0263986 -0.0611229 0.0861091 0.0620208 -0.0494365 0.143859 0.0900219 -0.0729938 0.170243 0.0573655 -0.00622219 0.224719 0.0283887 -0.0239264 0.0343711 0.0377956 -0.0242049 0.0725461 0.0758367 -0.021872 0.196245 0.0684566 -0.0103994 0.254511 0.00169538 0.0227973 0.0799866 0.0815185 0.0230059 0.150341 0.100478 0.089044 0.145264 0.0501068 0.0562283 0.166356 0.0755492 0.0378417 0.194968 0.0631259 0.028193 0.0317423 0.0339268 0.0629877 0.197923 0.0294717 0.0303884 0.222282 0.00615881 0.0107522 0.25152 0.00620886 0.0349466 0.00345718 -0.028421 -0.00745153 0.0027395 -0.0437914 -0.0405266 0.00306303 -0.0213067 -0.0345936 0.00271292 0.0272196 0.00172815 0.00272943 0.0447033 0.0321499 0.00296284 0.028966 0.0424437 0.00170177 0.00769267</float_array>
                    <technique_common>
                        <accessor count="52" source="#shape0-lib-positions-array" stride="3">
                            <param name="X" type="float"/>
                            <param name="Y" type="float"/>
                            <param name="Z" type="float"/>
                        </accessor>
                    </technique_common>
                </source>
                <source id="shape0-lib-normals" name="normal">
                    <float_array id="shape0-lib-normals-array" count="300">0.830213 -0.549132 -0.0959214 0.914927 -0.392157 -0.0955019 0.773852 0.571701 -0.2726 0.471193 0.855371 -0.215215 0.817179 -0.154077 -0.555409 0.795453 0.0449344 -0.604347 0.486189 0.777938 -0.398037 0.475522 -0.628487 -0.615535 0.552704 -0.676709 -0.486399 0.517652 -0.406233 -0.753001 0.594031 0.256122 -0.76258 0.407741 0.753432 -0.515837 0.786627 0.521836 -0.330007 0.127349 0.0549782 -0.990333 0.0916527 -0.688457 -0.719463 0.150139 -0.324225 -0.933989 0.0886923 -0.231557 -0.96877 0.117873 0.133281 -0.984044 0.143761 0.0991456 -0.984633 0.135273 0.770977 -0.622331 0.141844 0.768867 -0.623477 -0.00968937 -0.64091 -0.767555 -0.101497 0.891882 -0.440732 -0.412857 -0.642053 -0.646001 -0.33986 0.263122 -0.902919 -0.310214 0.601457 -0.736218 -0.231543 0.387387 -0.892367 -0.541865 -0.04361 -0.839333 -0.421835 -0.637712 -0.644499 -0.531374 -0.441338 -0.723093 -0.463286 -0.313058 -0.829073 -0.541303 0.0825349 -0.836767 -0.459521 0.730399 -0.50533 -0.390093 0.819794 -0.419243 -0.516778 0.596547 -0.614061 -0.867595 -0.290464 -0.403621 -0.693812 0.129494 -0.708418 -0.736201 0.522787 -0.42977 -0.977479 0.121751 -0.172368 -0.735489 -0.662932 -0.13992 -0.822271 -0.568043 -0.0346018 -0.920934 -0.312405 -0.232989 -0.992862 0.119198 -0.00421027 -0.812199 0.526741 -0.250754 -0.658084 0.752443 -0.0274837 -0.535722 0.843676 -0.0348131 -0.401843 0.908742 0.112742 -0.920794 0.188506 0.341472 -0.740151 0.589589 0.32336 -0.907782 0.202055 0.367568 -0.591512 -0.649173 0.478213 -0.749122 -0.570732 0.336274 -0.765194 -0.148853 0.626356 -0.810483 0.00136614 0.585761 -0.464414 -0.626823 0.62563 -0.433081 -0.320783 0.842341 -0.427491 0.527245 0.734346 -0.473743 0.708028 0.523703 -0.373781 0.818737 0.435841 0.0850412 0.277842 0.956855 0.016983 -0.7057 0.708308 -0.115348 -0.258145 0.959196 -0.0822413 -0.222342 0.971494 -0.166877 0.449142 0.877738 0.0247163 -0.700659 0.713068 0.0827486 0.62332 0.777577 0.0703117 0.799945 0.59594 0.320611 0.543014 0.776108 0.290643 0.877055 0.382494 0.47007 -0.592647 0.654068 0.592883 -0.211175 0.777107 0.579874 -0.225278 0.782941 0.60552 -0.0176481 0.795635 0.380224 0.852398 0.358952 -0.0661462 0.660693 0.747736 0.140633 0.990057 -0.00307487 0.65431 0.533704 0.53576 0.691391 0.61142 0.384894 0.50485 0.337687 0.794414 0.663176 -0.733456 0.149129 0.966289 -0.204455 0.156472 0.830598 0.542801 0.124392 0.849677 0.493363 0.186121 0.572417 0.818155 0.0544221 0.786813 0.528952 -0.318018 0.969832 -0.127863 -0.207548 0.725416 0.126999 -0.676494 0.0372755 -0.997721 -0.0562354 0.339229 -0.149413 -0.928762 -0.0141555 -0.999879 -0.00643526 -0.56224 -0.0142939 -0.826851 -0.014503 -0.99988 -0.00544095 -0.971607 -0.20547 0.117309 -0.808934 0.0779038 0.582714 -0.00843934 -0.999794 0.0184768 -0.428555 -0.153071 0.890455 0.0508935 -0.995197 0.0836214 0.458168 -0.0894464 0.884354 0.900205 0.0491849 0.432679 0.939829 0.211576 0.26825</float_array>
                    <technique_common>
                        <accessor count="100" source="#shape0-lib-normals-array" stride="3">
                            <param name="X" type="float"/>
                            <param name="Y" type="float"/>
                            <param name="Z" type="float"/>
                        </accessor>
                    </technique_common>
                </source>
                <source id="shape0-lib-vcolor" name="vcolor">
                    <float_array id="shape0-lib-vcolor-array" count="208">1 1 1 1 1 1 1 1 1 1 1 1 1 1 1 1 1 1 1 1 1 1 1 1 1 1 1 1 1 1 1 1 1 1 1 1 1 1 1 1 1 1 1 1 1 1 1 1 1 1 1 1 1 1 1 1 1 1 1 1 1 1 1 1 1 1 1 1 1 1 1 1 1 1 1 1 1 1 1 1 1 1 1 1 1 1 1 1 1 1 1 1 1 1 1 1 1 1 1 1 1 1 1 1 1 1 1 1 1 1 1 1 1 1 1 1 1 1 1 1 1 1 1 1 1 1 1 1 1 1 1 1 1 1 1 1 1 1 1 1 1 1 1 1 1 1 1 1 1 1 1 1 1 1 1 1 1 1 1 1 1 1 1 1 1 1 1 1 1 1 1 1 1 1 1 1 1 1 1 1 1 1 1 1 1 1 1 1 1 1 1 1 1 1 1 1 1 1 1 1 1 1 1 1 1 1 1 1</float_array>
                    <technique_common>
                        <accessor count="52" source="#shape0-lib-vcolor-array" stride="4">
                            <param name="R" type="float"/>
                            <param name="G" type="float"/>
                            <param name="B" type="float"/>
                            <param name="A" type="float"/>
                        </accessor>
                    </technique_common>
                </source>
                <source id="shape0-lib-map" name="map">
                    <float_array id="shape0-lib-map-array" count="600">0.0572633 0.92714 0.062276 0.934122 0.0495721 0.932895 0.062276 0.934122 0.0577395 0.94282 0.0495721 0.932895 0.0627778 0.946606 0.0564606 0.948282 0.0577395 0.94282 0.0536134 0.955208 0.0518997 0.960032 0.0461163 0.95734 0.062276 0.934122 0.0646069 0.941209 0.0577395 0.94282 0.0646069 0.941209 0.0627778 0.946606 0.0577395 0.94282 0.048418 0.951719 0.0536134 0.955208 0.0461163 0.95734 0.0602118 0.92731 0.0629445 0.93067 0.062276 0.934122 0.0602118 0.92731 0.062276 0.934122 0.0572633 0.92714 0.071512 0.93228 0.0675024 0.940086 0.0658363 0.933665 0.0699613 0.946217 0.0660806 0.946607 0.0675024 0.940086 0.0518143 0.949463 0.0536134 0.955208 0.048418 0.951719 0.0536134 0.955208 0.0551787 0.958007 0.0518997 0.960032 0.0760623 0.923108 0.0761939 0.927022 0.0718655 0.9269 0.0761939 0.927022 0.071512 0.93228 0.0718655 0.9269 0.0779305 0.933119 0.0782558 0.939514 0.0675024 0.940086 0.0779305 0.933119 0.0675024 0.940086 0.071512 0.93228 0.0782558 0.939514 0.0757103 0.946635 0.0699613 0.946217 0.0782558 0.939514 0.0699613 0.946217 0.0675024 0.940086 0.0559739 0.948589 0.0593036 0.95014 0.0536134 0.955208 0.0559739 0.948589 0.0536134 0.955208 0.0518143 0.949463 0.0761939 0.927022 0.0779305 0.933119 0.071512 0.93228 0.0593036 0.95014 0.0593824 0.956935 0.0536134 0.955208 0.0786168 0.927307 0.0779305 0.933119 0.0761939 0.927022 0.0782558 0.939514 0.0826124 0.946624 0.0757103 0.946635 0.0826124 0.946624 0.0787706 0.948219 0.0757103 0.946635 0.0593824 0.956935 0.0551787 0.958007 0.0536134 0.955208 0.0790215 0.923696 0.0786168 0.927307 0.0761939 0.927022 0.0316757 0.95281 0.0291894 0.957882 0.0270612 0.956548 0.0820997 0.932104 0.0842746 0.938929 0.0779305 0.933119 0.0842746 0.938929 0.0782558 0.939514 0.0779305 0.933119 0.0842746 0.938929 0.0826124 0.946624 0.0782558 0.939514 0.0635299 0.951719 0.0648693 0.955116 0.0593036 0.95014 0.0648693 0.955116 0.0593824 0.956935 0.0593036 0.95014 0.0593824 0.956935 0.0571923 0.959659 0.0551787 0.958007 0.0291894 0.957882 0.0295372 0.968097 0.0256259 0.964472 0.0295372 0.968097 0.0265942 0.972353 0.0256259 0.964472 0.0295372 0.968097 0.031064 0.973941 0.0265942 0.972353 0.0327457 0.949088 0.0368828 0.952935 0.0316757 0.95281 0.0368828 0.952935 0.0291894 0.957882 0.0316757 0.95281 0.0368828 0.952935 0.0384616 0.963242 0.0291894 0.957882 0.0384616 0.963242 0.0295372 0.968097 0.0291894 0.957882 0.0384616 0.963242 0.0361671 0.972287 0.0295372 0.968097 0.0361671 0.972287 0.031064 0.973941 0.0295372 0.968097 0.0666597 0.959275 0.0648506 0.962969 0.0648693 0.955116 0.0648506 0.962969 0.0593824 0.956935 0.0648693 0.955116 0.0648506 0.962969 0.0567932 0.963116 0.0593824 0.956935 0.0384616 0.963242 0.0430926 0.972121 0.0361671 0.972287 0.0430926 0.972121 0.0392069 0.973936 0.0361671 0.972287 0.0567932 0.963116 0.0571923 0.959659 0.0593824 0.956935 0.0402851 0.952855 0.0437773 0.960496 0.0368828 0.952935 0.0437773 0.960496 0.0384616 0.963242 0.0368828 0.952935 0.0437773 0.960496 0.0448251 0.966925 0.0384616 0.963242 0.0448251 0.966925 0.0430926 0.972121 0.0384616 0.963242 0.0402851 0.952855 0.0431627 0.956386 0.0437773 0.960496 0.0319572 0.932259 0.0284809 0.942044 0.0268587 0.934418 0.0284809 0.942044 0.0329389 0.948369 0.0265488 0.946508 0.0587857 0.968785 0.0648506 0.962969 0.0635299 0.966831 0.0587857 0.968785 0.0567932 0.963116 0.0648506 0.962969 0.0356939 0.923064 0.0386913 0.9271 0.0319242 0.927009 0.0386913 0.9271 0.0319572 0.932259 0.0319242 0.927009 0.0384834 0.932998 0.0383196 0.942827 0.0284809 0.942044 0.0384834 0.932998 0.0284809 0.942044 0.0319572 0.932259 0.0383196 0.942827 0.0329389 0.948369 0.0284809 0.942044 0.0386913 0.9271 0.0384834 0.932998 0.0319572 0.932259 0.0383196 0.942827 0.0407616 0.948213 0.0329389 0.948369 0.0505123 0.967843 0.0567932 0.963116 0.0587857 0.968785 0.0431768 0.945209 0.0407616 0.948213 0.0383196 0.942827 0.0505123 0.967843 0.0518997 0.960032 0.0567932 0.963116 0.0514268 0.92709 0.0495721 0.932895 0.046843 0.930832 0.0436703 0.934911 0.0383196 0.942827 0.0384834 0.932998 0.0436703 0.934911 0.0448251 0.941209 0.0383196 0.942827 0.0448251 0.941209 0.0431768 0.945209 0.0383196 0.942827 0.0471478 0.963338 0.0518997 0.960032 0.0505123 0.967843 0.0567932 0.963116 0.0545149 0.960116 0.0571923 0.959659 0.069922 0.966281 0.0708971 0.964076 0.0727682 0.96573 0.0481901 0.942203 0.0508458 0.948224 0.0474371 0.9482 0.0481901 0.942203 0.0474371 0.9482 0.0459497 0.945565 0.0518997 0.960032 0.0545149 0.960116 0.0567932 0.963116 0.0572633 0.92714 0.0495721 0.932895 0.0514268 0.92709 0.0495721 0.932895 0.0577395 0.94282 0.0481901 0.942203 0.0577395 0.94282 0.0564606 0.948282 0.0508458 0.948224 0.0577395 0.94282 0.0508458 0.948224 0.0481901 0.942203 0.0461163 0.95734 0.0518997 0.960032 0.0471478 0.963338 0.0518997 0.960032 0.0551787 0.958007 0.0545149 0.960116 0.0572633 0.92714 0.0540871 0.923002 0.0580013 0.923113 0.0591855 0.925133 0.0572633 0.92714 0.0580013 0.923113 0.0781687 0.955258 0.0717133 0.948762 0.0768761 0.950389 0.0760623 0.923108 0.0718655 0.9269 0.0713546 0.923138 0.0781687 0.955258 0.0675368 0.95188 0.0717133 0.948762 0.0790215 0.923696 0.0761939 0.927022 0.0760623 0.923108 0.0781687 0.955258 0.068263 0.957988 0.0675368 0.95188 0.0368828 0.952935 0.0327457 0.949088 0.0390335 0.948884 0.0402851 0.952855 0.0368828 0.952935 0.0390335 0.948884 0.0781687 0.955258 0.0729217 0.960012 0.068263 0.957988 0.0319242 0.927009 0.031461 0.923187 0.0356939 0.923064 0.0781687 0.955258 0.0772811 0.958106 0.0729217 0.960012 0.0394578 0.923696 0.0386913 0.9271 0.0356939 0.923064 0.0514268 0.92709 0.0511393 0.923632 0.0540871 0.923002 0.0572633 0.92714 0.0514268 0.92709 0.0540871 0.923002</float_array>
                    <technique_common>
                        <accessor count="300" source="#shape0-lib-map-array" stride="2">
                            <param name="U" type="float"/>
                            <param name="V" type="float"/>
                        </accessor>
                    </technique_common>
                </source>
                <vertices id="shape0-lib-vertices">
                    <input semantic="POSITION" source="#shape0-lib-positions"/>
                </vertices>
                <triangles count="100" material="material0">
                    <input offset="0" semantic="VERTEX" source="#shape0-lib-vertices"/>
                    <input offset="1" semantic="COLOR" source="#shape0-lib-vcolor"/>
                    <input offset="2" semantic="NORMAL" source="#shape0-lib-normals"/>
                    <input offset="3" semantic="TEXCOORD" source="#shape0-lib-map"/>
                    <p>3 3 0 0 4 4 0 1 0 0 0 2 4 4 1 3 1 1 1 4 0 0 1 5 5 5 2 6 2 2 2 7 1 1 2 8 13 13 3 9 43 43 3 10 2 2 3 11 4 4 4 12 7 7 4 13 1 1 4 14 7 7 5 15 5 5 5 16 1 1 5 17 5 5 6 18 13 13 6 19 2 2 6 20 6 6 7 21 10 10 7 22 4 4 7 23 6 6 8 24 4 4 8 25 3 3 8 26 10 10 9 27 7 7 9 28 4 4 9 29 8 8 10 30 5 5 10 31 7 7 10 32 8 8 11 33 13 13 11 34 5 5 11 35 13 13 12 36 9 9 12 37 43 43 12 38 46 46 13 39 12 12 13 40 6 6 13 41 12 12 14 42 10 10 14 43 6 6 14 44 14 14 15 45 15 15 15 46 7 7 15 47 14 14 16 48 7 7 16 49 10 10 16 50 15 15 17 51 11 11 17 52 8 8 17 53 15 15 18 54 8 8 18 55 7 7 18 56 11 11 19 57 16 16 19 58 13 13 19 59 11 11 20 60 13 13 20 61 8 8 20 62 12 12 21 63 14 14 21 64 10 10 21 65 16 16 22 66 25 25 22 67 13 13 22 68 19 19 23 69 14 14 23 70 12 12 23 71 15 15 24 72 18 18 24 73 11 11 24 74 18 18 25 75 16 16 25 76 11 11 25 77 25 25 26 78 9 9 26 79 13 13 26 80 47 47 27 81 19 19 27 82 12 12 27 83 19 19 28 84 20 20 28 85 14 14 28 86 20 20 29 87 17 17 29 88 14 14 29 89 17 17 30 90 15 15 30 91 14 14 30 92 17 17 31 93 18 18 31 94 15 15 31 95 18 18 32 96 22 22 32 97 16 16 32 98 22 22 33 99 25 25 33 100 16 16 33 101 25 25 34 102 35 35 34 103 9 9 34 104 20 20 35 105 21 21 35 106 17 17 35 107 21 21 36 108 18 18 36 109 17 17 36 110 21 21 37 111 22 22 37 112 18 18 37 113 47 47 38 114 24 24 38 115 19 19 38 116 24 24 39 117 20 20 39 118 19 19 39 119 24 24 40 120 26 26 40 121 20 20 40 122 26 26 41 123 21 21 41 124 20 20 41 125 26 26 42 126 23 23 42 127 21 21 42 128 23 23 43 129 22 22 43 130 21 21 43 131 23 23 44 132 27 27 44 133 22 22 44 134 27 27 45 135 25 25 45 136 22 22 45 137 27 27 46 138 31 31 46 139 25 25 46 140 26 26 47 141 30 30 47 142 23 23 47 143 30 30 48 144 27 27 48 145 23 23 48 146 31 31 49 147 35 35 49 148 25 25 49 149 32 32 50 150 28 28 50 151 24 24 50 152 28 28 51 153 26 26 51 154 24 24 51 155 28 28 52 156 29 29 52 157 26 26 52 158 29 29 53 159 30 30 53 160 26 26 53 161 32 32 54 162 33 33 54 163 28 28 54 164 33 33 55 165 29 29 55 166 28 28 55 167 29 29 56 168 34 34 56 169 30 30 56 170 34 34 57 171 27 27 57 172 30 30 57 173 34 34 58 174 31 31 58 175 27 27 58 176 49 49 59 177 41 41 59 178 32 32 59 179 41 41 60 180 33 33 60 181 32 32 60 182 36 36 61 183 37 37 61 184 29 29 61 185 36 36 62 186 29 29 62 187 33 33 62 188 37 37 63 189 34 34 63 190 29 29 63 191 41 41 64 192 36 36 64 193 33 33 64 194 37 37 65 195 40 40 65 196 34 34 65 197 40 40 66 198 31 31 66 199 34 34 66 200 39 39 67 201 40 40 67 202 37 37 67 203 40 40 68 204 43 43 68 205 31 31 68 206 41 41 69 207 0 0 69 208 36 36 69 209 0 0 70 210 37 37 70 211 36 36 70 212 0 0 71 213 38 38 71 214 37 37 71 215 38 38 72 216 39 39 72 217 37 37 72 218 42 42 73 219 43 43 73 220 40 40 73 221 31 31 74 222 44 44 74 223 35 35 74 224 44 44 75 225 9 9 75 226 35 35 75 227 38 38 76 228 42 42 76 229 40 40 76 230 38 38 77 231 40 40 77 232 39 39 77 233 43 43 78 234 44 44 78 235 31 31 78 236 3 3 79 237 0 0 79 238 41 41 79 239 0 0 80 240 1 1 80 241 38 38 80 242 1 1 81 243 2 2 81 244 42 42 81 245 1 1 82 246 42 42 82 247 38 38 82 248 2 2 83 249 43 43 83 250 42 42 83 251 43 43 84 252 9 9 84 253 44 44 84 254 3 3 85 255 51 51 85 256 45 45 85 257 6 6 86 258 3 3 86 259 45 45 86 260 51 51 87 261 46 46 87 262 45 45 87 263 46 46 88 264 6 6 88 265 45 45 88 266 51 51 89 267 47 47 89 268 46 46 89 269 47 47 90 270 12 12 90 271 46 46 90 272 51 51 91 273 48 48 91 274 47 47 91 275 24 24 92 276 47 47 92 277 48 48 92 278 32 32 93 279 24 24 93 280 48 48 93 281 51 51 94 282 49 49 94 283 48 48 94 284 32 32 95 285 48 48 95 286 49 49 95 287 51 51 96 288 50 50 96 289 49 49 96 290 50 50 97 291 41 41 97 292 49 49 97 293 41 41 98 294 50 50 98 295 51 51 98 296 3 3 99 297 41 41 99 298 51 51 99 299</p>
                </triangles>
            </mesh>
        </geometry>
    </library_geometries>
    <library_visual_scenes>
        <visual_scene id="VisualSceneNode" name="VisualScene">
            <node id="node" name="node">
                <instance_geometry url="#shape0-lib">
                    <bind_material>
                        <technique_common>
                            <instance_material symbol="material0" target="#material0">
                                <bind_vertex_input semantic="UVSET0" input_semantic="TEXCOORD"/>
                            </instance_material>
                        </technique_common>
                    </bind_material>
                </instance_geometry>
            </node>
        </visual_scene>
    </library_visual_scenes>
    <scene>
        <instance_visual_scene url="#VisualSceneNode"/>
    </scene>
</COLLADA>
