<?xml version="1.0" encoding="UTF-8"?>
<COLLADA xmlns="http://www.collada.org/2005/11/COLLADASchema" version="1.4.1">
    <asset>
        <contributor>
            <author>VCGLab</author>
            <authoring_tool>VCGLib | MeshLab</authoring_tool>
        </contributor>
        <created>Thu Jul 3 02:11:11 2025 GMT</created>
        <modified>Thu Jul 3 02:11:11 2025 GMT</modified>
        <up_axis>Y_UP</up_axis>
    </asset>
    <library_images>
        <image id="texture0" name="texture0">
            <init_from>./image/shelf_books.png</init_from>
        </image>
    </library_images>
    <library_materials>
        <material id="material0" name="material0">
            <instance_effect url="#material0-fx"/>
        </material>
    </library_materials>
    <library_effects>
        <effect id="material0-fx">
            <profile_COMMON>
                <newparam sid="texture0-surface">
                    <surface type="2D">
                        <init_from>texture0</init_from>
                        <format>R8G8B8</format>
                    </surface>
                </newparam>
                <newparam sid="texture0-sampler">
                    <sampler2D>
                        <source>texture0-surface</source>
                        <minfilter>LINEAR</minfilter>
                        <magfilter>LINEAR</magfilter>
                    </sampler2D>
                </newparam>
                <technique sid="common">
                    <blinn>
                        <diffuse>
                            <texture texture="texture0-sampler" texcoord="UVSET0"/>
                        </diffuse>
                    </blinn>
                </technique>
            </profile_COMMON>
        </effect>
    </library_effects>
    <library_geometries>
        <geometry id="shape0-lib" name="shape0">
            <mesh>
                <source id="shape0-lib-positions" name="position">
                    <float_array id="shape0-lib-positions-array" count="318">0.184106 0.165 -0.0442915 0.184106 0.00499999 -0.0442915 0.141041 0.0029999 -0.0442915 0.141041 0.163 -0.0442915 0.16245 0.0029999 -0.0442915 0.16245 0.163 -0.0442915 0.184106 0.00499999 0.0728915 0.140726 0.00280727 0.0753291 0.167773 0.00281095 0.0728915 0.159996 0.0029999 0.0763085 0.184106 0.165 0.0728915 0.142086 0.162808 0.0742888 0.160369 0.162953 0.0756646 -0.105923 0.0013363 -0.0542915 -0.110712 0.00142858 0.0654819 -0.0899824 0.00100601 0.0655096 -0.0878379 0.17279 0.0657006 -0.107268 0.173192 0.0660641 -0.0853293 0.00116742 -0.0542915 -0.06344 0.172888 -0.0542915 -0.06311 0.00109482 -0.0542915 -0.0845915 0.00116491 0.0654316 -0.0640464 0.17289 0.0653319 -0.0637154 0.00109681 0.0654523 -0.0837737 0.172969 0.0660402 -0.0614641 0.00108933 -0.0542915 -0.0617942 0.172883 -0.0542915 -0.0395748 0.17281 -0.0542915 -0.0392448 0.00101674 -0.0542915 -0.0608576 0.00108736 0.0653318 -0.0611888 0.172881 0.0654523 -0.0401812 0.172812 0.0653317 -0.0398502 0.00101879 0.0654522 -0.036776 0.00100863 -0.0542915 -0.0371061 0.172802 -0.0542915 -0.0148868 0.172729 -0.0542915 -0.0145567 0.00093603 -0.0542915 -0.0361695 0.00100661 0.0653318 -0.0365007 0.1728 0.0654523 -0.0154932 0.172731 0.0653318 -0.0151621 0.000938078 0.0654523 -0.012088 0.000927924 -0.0542915 -0.0124179 0.172721 -0.0542915 0.00980135 0.172649 -0.0542915 0.0101313 0.000855326 -0.0542915 -0.0114814 0.000925881 0.0653317 -0.0118125 0.17272 0.0654523 0.00919487 0.172651 0.0653317 0.00952591 0.000857246 0.0654523 0.0126001 0.000847219 -0.0542915 0.0122702 0.172641 -0.0542915 0.0344895 0.172568 -0.0542915 0.0348194 0.000774621 -0.0542915 0.0132066 0.00084519 0.0653317 0.0128756 0.172639 0.0654523 0.0339466 0.17257 0.0656034 0.0340254 0.000777321 0.0658026 -0.156088 0.000927924 -0.0542915 -0.156418 0.172721 -0.0542915 -0.134199 0.172649 -0.0542915 -0.133869 0.000855326 -0.0542915 -0.155481 0.000925882 0.0653315 -0.155812 0.17272 0.065452 -0.134805 0.172651 0.065332 -0.134474 0.000857247 0.0654526 -0.13173 0.172641 -0.0542915 -0.128169 0.000829814 -0.0542915 -0.130769 0.000888393 0.0654052 -0.13114 0.172518 0.0654008 -0.10918 0.000774621 0.0628915 -0.111138 0.172548 0.0660207 -0.108846 0.173225 -0.0542915 -0.0866313 0.172765 -0.0542915 -0.108846 0.173225 0.0628915 -0.0866313 0.172765 0.0628915 0.0643329 0.00133648 -0.0542915 0.0590467 0.00142896 0.0654723 0.0819806 0.00100549 0.0654742 0.0843634 0.172789 0.065682 0.0628024 0.173193 0.0660502 0.0870962 0.00116742 -0.0542915 0.111284 0.172888 -0.0542915 0.111649 0.00109482 -0.0542915 0.0878844 0.00116496 0.065407 0.110635 0.172889 0.0652929 0.111004 0.00109674 0.0654037 0.088784 0.172969 0.0660299 0.113467 0.00108933 -0.0542915 0.113103 0.172883 -0.0542915 0.137655 0.17281 -0.0542915 0.13802 0.00101674 -0.0542915 0.114116 0.00108742 0.0652924 0.113747 0.172881 0.0654042 0.137006 0.172812 0.0652923 0.137375 0.00101872 0.0654037 0.0361883 0.000847219 -0.0542915 0.0358235 0.172641 -0.0542915 0.0607407 0.000774621 -0.0542915 0.036863 0.000889482 0.0653676 0.036452 0.17252 0.0653553 0.0607407 0.000774621 0.0628915 0.0586041 0.172549 0.0660107 0.0611102 0.173225 -0.0542915 0.0856574 0.172765 -0.0542915 0.0611102 0.173225 0.0628915 0.0856574 0.172765 0.0628915</float_array>
                    <technique_common>
                        <accessor count="106" source="#shape0-lib-positions-array" stride="3">
                            <param name="X" type="float"/>
                            <param name="Y" type="float"/>
                            <param name="Z" type="float"/>
                        </accessor>
                    </technique_common>
                </source>
                <source id="shape0-lib-normals" name="normal">
                    <float_array id="shape0-lib-normals-array" count="546">0 0 -1 0 0 -1 0 0 -1 0 0 -1 1 0 0 1 0 0 0.999997 0 0.00263652 0.999924 -0.00855684 -0.00882277 0.999793 0 0.020344 0.999847 -0.0022601 0.0173466 -0.091962 0.995763 0 -0.0860332 0.996292 -0.0011047 0.0919657 -0.99576 0.00187134 0.0826729 -0.996577 0 -0.0750685 0.00418914 0.99717 -0.0508257 0.00692526 0.998684 0.402311 0.00274793 0.915499 0.116035 0 0.993245 0.00230619 -0.0172071 0.999849 -0.125099 0.933396 -0.336336 0 1 0.000389435 -0.00804948 0.999966 0.00168638 0 -0.999999 -0.00161035 0.00998543 -0.99995 0.000203186 0.0186729 -0.00134497 0.999825 -0.00140659 -0.00336124 0.999993 0.999985 0.00192089 0.00505585 0.999985 0.00193043 0.00506954 0.0358821 0.000769282 0.999356 -0.00100263 -0.00353752 0.999993 0 0 -1 0 0 -1 -0.999985 -0.00192145 0.00505569 -0.999985 -0.00193119 0.00506966 0.999985 0.00192087 0.00505536 0.999985 0.00193076 0.00506954 0.00574208 0.000712338 0.999983 -0.00573181 -0.000712277 0.999983 0 0 -1 0 0 -1 -0.999985 -0.00192148 0.00505591 -0.999985 -0.00193113 0.00506976 0.999985 0.00192147 0.00505545 0.999985 0.00193129 0.00506954 0.00573573 0.00071246 0.999983 -0.0057414 -0.000712557 0.999983 0 0 -1 0 0 -1 -0.999985 -0.00192031 0.00505584 -0.999985 -0.00193045 0.0050704 0.999985 0.00192059 0.00505562 0.999985 0.0019305 0.00506984 0.00574284 0.000713116 0.999983 -0.00574284 -0.000712944 0.999983 0 0 -1 0 0 -1 -0.999985 -0.0019203 0.0050556 -0.999985 -0.00193048 0.00507021 0.999976 0.00192029 0.0066112 0.99999 0.000464053 0.00452815 -0.00716374 0.0011563 0.999974 -0.0226138 -0.000745502 0.999744 -0.0203804 -0.999792 -4.46891e-05 -0.00326741 -0.999995 -8.68456e-07 -0.00326196 -0.999995 1.0892e-07 0.00328544 0.999995 -1.28162e-06 0.00327139 0.999995 1.25563e-06 -0.00326696 -0.999995 8.00228e-08 -0.00326414 -0.999995 5.90534e-07 0.00326432 0.999995 1.78842e-06 0.00328545 0.999995 -2.02894e-06 -0.00326741 -0.999995 -3.01777e-07 -0.00326236 -0.999995 6.11277e-07 0.00324052 0.999995 -2.13116e-06 0.00325295 0.999995 -4.37595e-06 -0.00326732 -0.999995 -5.09391e-07 -0.00326716 -0.999995 -4.79994e-07 0.00328545 0.999995 -1.65265e-06 0.0032686 0.999995 1.3945e-06 -0.00326732 -0.999995 -3.91748e-07 -0.00326002 -0.999995 9.27689e-07 0 0 -1 0 0 -1 -0.999985 -0.00192089 0.00505786 -0.999985 -0.00193078 0.00507204 0.999985 0.0019208 0.00505348 0.999985 0.0019306 0.00506753 0.00571701 0.000712894 0.999983 -0.0057649 -0.000712685 0.999983 -0.999773 -0.0207235 0.00490472 -0.999762 -0.00216365 -0.0217174 -0.0309714 -0.00322424 0.999515 -0.00382075 1.77364e-05 0.999993 0.00324056 0.999995 -2.13841e-06 0.00325298 0.999995 -4.3826e-06 -0.00326737 -0.999995 -4.99925e-07 -0.0032672 -0.999995 -4.69831e-07 -0.00522607 -0.999986 0.000375856 0 0 -1 0.918722 -0.0119081 0.394725 -0.895149 0.016442 0.445464 -0.999855 -0.0170047 0 -0.999148 0.0102525 -0.0399642 0.985114 -0.110858 -0.131381 0.99981 -0.0195069 0 0 0 -1 0 0 -1 -0.740549 0.00114445 0.672001 -0.999971 -0.00758728 0 -0.999911 -0.0117947 0.00616177 0.0207025 0.999786 -7.57071e-05 0.0206857 0.999786 5.02033e-05 0.0207025 0.999786 0 0.0207025 0.999786 0 0.00165376 0.997802 -0.06625 -0.00530339 0.999986 -4.03393e-05 -0.00551704 0.999985 0 0 0 -1 0.806933 -0.00156287 0.590642 0.860727 0.000536275 0.509067 0.981129 -0.109968 -0.159037 0.999998 -0.0019368 0 -0.00785466 0.978525 0.205981 -0.025512 0.999674 0 -0.0315705 0.999501 0.001184 0.0250207 -0.965662 0.258592 0.0170496 -0.00144601 0.999854 -0.000146867 -0.00336181 0.999994 0.999983 0.00212459 0.00538617 0.999983 0.00215139 0.00542463 0.0337106 0.000717294 0.999431 0.000129805 -0.0036262 0.999993 0 0 -1 0 0 -1 -0.999983 -0.00211877 0.00538403 -0.999983 -0.00214672 0.00542414 0.999983 0.00212455 0.00538567 0.999983 0.00215087 0.00542346 0.00480975 0.00065839 0.999988 -0.00478526 -0.000660746 0.999988 -0.0184618 -0.99983 -4.28453e-05 -0.00295688 -0.999996 -1.1215e-06 -0.00295047 -0.999996 1.50851e-07 0.0029733 0.999996 -1.31917e-06 0.00295986 0.999996 1.368e-06 -0.00295645 -0.999996 4.29461e-08 -0.00295354 -0.999996 6.24018e-07 -0.999984 -0.00212344 0.00525099 -0.999981 -0.00239399 0.00563918 -0.0295707 -0.00322196 0.999558 -0.00471787 6.04602e-05 0.999989 -0.00295685 -0.999996 0.000369865 -0.00481033 -0.999988 0 0 0 -1 0.907087 -0.0130914 0.420739 -0.881262 0.0176799 0.472297 -0.999824 -0.0187458 0 -0.998963 0.0113361 -0.0441016 0.981862 -0.122136 -0.145016 0.999771 -0.021402 0 0 0 -1 0 0 -1 -0.708472 0.00115119 0.705738 -0.999965 -0.00838442 0 -0.999895 -0.0128797 0.00658359 0.0187361 0.999824 -7.32572e-05 0.0187219 0.999825 4.47729e-05 0.0187361 0.999824 0 0.0187361 0.999824 0 0.00140989 0.997797 -0.0663332 -0.00479942 0.999988 -3.73748e-05 -0.00497835 0.999988 0 0 0 -1 0 0 -1 0.779739 -0.00167069 0.626102 0.836047 0.000436018 0.548657 0.999998 -0.00214262 0 0.999998 -0.00214262 0 -0.00736585 0.97847 0.206259 -0.0230892 0.999733 0 -0.0284629 0.999594 0.00116028 0.0222564 -0.965511 0.259409</float_array>
                    <technique_common>
                        <accessor count="182" source="#shape0-lib-normals-array" stride="3">
                            <param name="X" type="float"/>
                            <param name="Y" type="float"/>
                            <param name="Z" type="float"/>
                        </accessor>
                    </technique_common>
                </source>
                <source id="shape0-lib-vcolor" name="vcolor">
                    <float_array id="shape0-lib-vcolor-array" count="424">1 1 1 1 1 1 1 1 1 1 1 1 1 1 1 1 1 1 1 1 1 1 1 1 1 1 1 1 1 1 1 1 1 1 1 1 1 1 1 1 1 1 1 1 1 1 1 1 1 1 1 1 1 1 1 1 1 1 1 1 1 1 1 1 1 1 1 1 1 1 1 1 1 1 1 1 1 1 1 1 1 1 1 1 1 1 1 1 1 1 1 1 1 1 1 1 1 1 1 1 1 1 1 1 1 1 1 1 1 1 1 1 1 1 1 1 1 1 1 1 1 1 1 1 1 1 1 1 1 1 1 1 1 1 1 1 1 1 1 1 1 1 1 1 1 1 1 1 1 1 1 1 1 1 1 1 1 1 1 1 1 1 1 1 1 1 1 1 1 1 1 1 1 1 1 1 1 1 1 1 1 1 1 1 1 1 1 1 1 1 1 1 1 1 1 1 1 1 1 1 1 1 1 1 1 1 1 1 1 1 1 1 1 1 1 1 1 1 1 1 1 1 1 1 1 1 1 1 1 1 1 1 1 1 1 1 1 1 1 1 1 1 1 1 1 1 1 1 1 1 1 1 1 1 1 1 1 1 1 1 1 1 1 1 1 1 1 1 1 1 1 1 1 1 1 1 1 1 1 1 1 1 1 1 1 1 1 1 1 1 1 1 1 1 1 1 1 1 1 1 1 1 1 1 1 1 1 1 1 1 1 1 1 1 1 1 1 1 1 1 1 1 1 1 1 1 1 1 1 1 1 1 1 1 1 1 1 1 1 1 1 1 1 1 1 1 1 1 1 1 1 1 1 1 1 1 1 1 1 1 1 1 1 1 1 1 1 1 1 1 1 1 1 1 1 1 1 1 1 1 1 1 1 1 1 1 1 1 1 1 1 1 1 1 1 1 1 1 1 1 1 1 1 1 1 1 1 1 1 1 1 1 1 1 1 1 1 1 1 1 1 1 1 1</float_array>
                    <technique_common>
                        <accessor count="106" source="#shape0-lib-vcolor-array" stride="4">
                            <param name="R" type="float"/>
                            <param name="G" type="float"/>
                            <param name="B" type="float"/>
                            <param name="A" type="float"/>
                        </accessor>
                    </technique_common>
                </source>
                <source id="shape0-lib-map" name="map">
                    <float_array id="shape0-lib-map-array" count="1092">0.35509 0.341053 0.35509 0.36444 0.357909 0.36444 0.35509 0.341053 0.357909 0.36444 0.357909 0.341053 0.348457 0.340761 0.348457 0.364148 0.351276 0.364148 0.348457 0.340761 0.351276 0.364148 0.351276 0.340761 0.397406 0.636695 0.402719 0.636695 0.402719 0.642007 0.397406 0.636695 0.402719 0.642007 0.397406 0.642007 0.410156 0.604868 0.415469 0.604868 0.415469 0.616459 0.410156 0.604868 0.415469 0.616459 0.410156 0.616459 0.550406 0.585743 0.555719 0.585743 0.555719 0.597334 0.550406 0.585743 0.555719 0.597334 0.550406 0.597334 0.227985 0.597601 0.227985 0.55948 0.222268 0.55948 0.227985 0.597601 0.222268 0.55948 0.222268 0.597601 0.146337 0.394938 0.146337 0.357869 0.149464 0.357869 0.146337 0.394938 0.149464 0.357869 0.149464 0.394938 0.217009 0.832425 0.217009 0.892782 0.211992 0.892782 0.217009 0.832425 0.211992 0.892782 0.211992 0.832425 0.223658 0.893533 0.223599 0.833179 0.223847 0.833179 0.230661 0.833179 0.230661 0.893536 0.225644 0.893536 0.230661 0.833179 0.225644 0.893536 0.225644 0.833179 0.223847 0.833179 0.223599 0.833179 0.225306 0.833179 0.215633 0.597601 0.215633 0.55948 0.209915 0.55948 0.215633 0.597601 0.209915 0.55948 0.209915 0.597601 0.139262 0.394938 0.139262 0.357869 0.142389 0.357869 0.139262 0.394938 0.142389 0.357869 0.142389 0.394938 0.411601 0.666068 0.412331 0.73087 0.405687 0.731021 0.411601 0.666068 0.405687 0.731021 0.404502 0.666228 0.556781 0.534743 0.562094 0.534743 0.562094 0.546334 0.556781 0.534743 0.562094 0.546334 0.556781 0.546334 0.420642 0.666102 0.420532 0.730908 0.413729 0.730932 0.420642 0.666102 0.413729 0.730932 0.41347 0.666127 0.434764 0.276313 0.434716 0.301424 0.43793 0.301413 0.434764 0.276313 0.43793 0.301413 0.437978 0.276302 0.428219 0.514459 0.422906 0.514459 0.422906 0.502868 0.428219 0.514459 0.422906 0.502868 0.428219 0.502868 0.416531 0.490118 0.421844 0.490118 0.421844 0.501709 0.416531 0.490118 0.421844 0.501709 0.416531 0.501709 0.428855 0.666072 0.428745 0.730878 0.421547 0.730904 0.428855 0.666072 0.421547 0.730904 0.421657 0.666098 0.438335 0.276301 0.438287 0.301412 0.441502 0.301402 0.438335 0.276301 0.441502 0.301402 0.44155 0.276291 0.460094 0.501709 0.454781 0.501709 0.454781 0.490118 0.460094 0.501709 0.454781 0.490118 0.460094 0.490118 0.461156 0.502868 0.466469 0.502868 0.466469 0.514459 0.461156 0.502868 0.466469 0.514459 0.461156 0.514459 0.43735 0.666042 0.43724 0.730848 0.430042 0.730873 0.43735 0.666042 0.430042 0.730873 0.430152 0.666067 0.441907 0.276289 0.441859 0.3014 0.445074 0.30139 0.441907 0.276289 0.445074 0.30139 0.445121 0.276279 0.479219 0.501709 0.473906 0.501709 0.473906 0.490118 0.479219 0.501709 0.473906 0.490118 0.479219 0.490118 0.397406 0.541118 0.402719 0.541118 0.402719 0.552709 0.397406 0.541118 0.402719 0.552709 0.397406 0.552709 0.445845 0.666011 0.445736 0.730817 0.438538 0.730843 0.445845 0.666011 0.438538 0.730843 0.438647 0.666037 0.445478 0.276278 0.445431 0.301389 0.448645 0.301378 0.445478 0.276278 0.448645 0.301378 0.448693 0.276267 0.485594 0.501709 0.480281 0.501709 0.480281 0.490118 0.485594 0.501709 0.480281 0.490118 0.485594 0.490118 0.410156 0.541118 0.415469 0.541118 0.415469 0.552709 0.410156 0.541118 0.415469 0.552709 0.410156 0.552709 0.454244 0.665981 0.454218 0.730787 0.447033 0.730812 0.454244 0.665981 0.447033 0.730812 0.447143 0.666006 0.224839 0.310522 0.226058 0.273452 0.228403 0.310522 0.22904 0.310522 0.22904 0.273452 0.232604 0.273452 0.22904 0.310522 0.232604 0.273452 0.232604 0.310522 0.33111 0.504454 0.33111 0.473268 0.325778 0.473268 0.33111 0.504454 0.325778 0.473268 0.325778 0.504454 0.232868 0.310522 0.232868 0.273452 0.236433 0.273452 0.232868 0.310522 0.236433 0.273452 0.236433 0.310522 0.331703 0.473268 0.331703 0.504454 0.337034 0.504454 0.331703 0.473268 0.337034 0.504454 0.337034 0.473268 0.236829 0.310522 0.236829 0.273452 0.240394 0.273452 0.236829 0.310522 0.240394 0.273452 0.240394 0.310522 0.342959 0.504454 0.342959 0.473268 0.337627 0.473268 0.342959 0.504454 0.337627 0.473268 0.337627 0.504454 0.24079 0.310522 0.24079 0.273452 0.244355 0.273452 0.24079 0.310522 0.244355 0.273452 0.244355 0.310522 0.348883 0.504454 0.348883 0.473268 0.343551 0.473268 0.348883 0.504454 0.343551 0.473268 0.343551 0.504454 0.244751 0.310522 0.244751 0.273452 0.248316 0.273452 0.244751 0.310522 0.248316 0.273452 0.248316 0.310522 0.421074 0.276289 0.421027 0.3014 0.424241 0.30139 0.421074 0.276289 0.424241 0.30139 0.424289 0.276279 0.396344 0.501709 0.391031 0.501709 0.391031 0.490118 0.396344 0.501709 0.391031 0.490118 0.396344 0.490118 0.403781 0.541118 0.409094 0.541118 0.409094 0.552709 0.403781 0.541118 0.409094 0.552709 0.403781 0.552709 0.396294 0.666011 0.396184 0.730817 0.388986 0.730843 0.396294 0.666011 0.388986 0.730843 0.389096 0.666037 0.479219 0.514459 0.473906 0.514459 0.473906 0.502868 0.479219 0.514459 0.473906 0.502868 0.479219 0.502868 0.404558 0.666014 0.404362 0.730772 0.397487 0.730796 0.404558 0.666014 0.397487 0.730796 0.397606 0.666012 0.308404 0.504454 0.308404 0.473268 0.303072 0.473268 0.308404 0.504454 0.303072 0.473268 0.303072 0.504454 0.217687 0.310522 0.217687 0.273452 0.221252 0.273452 0.217687 0.310522 0.221252 0.273452 0.221252 0.310522 0.221648 0.310522 0.223016 0.273452 0.225213 0.310522 0.428632 0.276343 0.427909 0.301474 0.431123 0.301407 0.411601 0.666068 0.412774 0.73086 0.412331 0.73087 0.40513 0.731034 0.404502 0.666228 0.405687 0.731021 0.517469 0.578209 0.512156 0.578209 0.512156 0.566618 0.517469 0.578209 0.512156 0.566618 0.517469 0.566618 0.524906 0.572993 0.530219 0.572993 0.530219 0.584584 0.524906 0.572993 0.530219 0.584584 0.524906 0.584584 0.431311 0.276324 0.431263 0.301435 0.434478 0.301425 0.431311 0.276324 0.434478 0.301425 0.434525 0.276314 0.413109 0.730934 0.41347 0.666127 0.413729 0.730932 0.415469 0.501709 0.410156 0.501709 0.410156 0.490118 0.415469 0.501709 0.410156 0.490118 0.415469 0.490118 0.412331 0.73087 0.412774 0.73086 0.40513 0.731034 0.412331 0.73087 0.40513 0.731034 0.405687 0.731021 0.319818 0.504454 0.319818 0.473268 0.314487 0.473268 0.319818 0.504454 0.314487 0.473268 0.314487 0.504454 0.420532 0.730908 0.413109 0.730934 0.413729 0.730932 0.325383 0.504454 0.325383 0.473268 0.320051 0.473268 0.325383 0.504454 0.320051 0.473268 0.320051 0.504454 0.425957 0.276271 0.424598 0.301389 0.427813 0.301378 0.405015 0.66598 0.404901 0.730786 0.404362 0.730772 0.405015 0.66598 0.404362 0.730772 0.404558 0.666014 0.473906 0.528368 0.479219 0.528368 0.479219 0.539959 0.473906 0.528368 0.479219 0.539959 0.473906 0.539959 0.404362 0.730772 0.404901 0.730786 0.397487 0.730796 0.314328 0.504454 0.314328 0.473268 0.308996 0.473268 0.314328 0.504454 0.308996 0.473268 0.308996 0.504454 0.397606 0.666012 0.405015 0.66598 0.404558 0.666014 0.411608 0.666067 0.412341 0.73087 0.405673 0.731021 0.411608 0.666067 0.405673 0.731021 0.404501 0.666228 0.556781 0.534743 0.562094 0.534743 0.562094 0.546334 0.556781 0.534743 0.562094 0.546334 0.556781 0.546334 0.420649 0.666102 0.420538 0.730907 0.413722 0.730932 0.420649 0.666102 0.413722 0.730932 0.413464 0.666127 0.434764 0.276313 0.434716 0.301424 0.43793 0.301413 0.434764 0.276313 0.43793 0.301413 0.437978 0.276302 0.428219 0.514459 0.422906 0.514459 0.422906 0.502868 0.428219 0.514459 0.422906 0.502868 0.428219 0.502868 0.416531 0.490118 0.421844 0.490118 0.421844 0.501709 0.416531 0.490118 0.421844 0.501709 0.416531 0.501709 0.428861 0.666072 0.42875 0.730878 0.42154 0.730904 0.428861 0.666072 0.42154 0.730904 0.421652 0.666098 0.224839 0.310522 0.226057 0.273452 0.228403 0.310522 0.22904 0.310522 0.22904 0.273452 0.232604 0.273452 0.22904 0.310522 0.232604 0.273452 0.232604 0.310522 0.33111 0.504454 0.33111 0.473268 0.325778 0.473268 0.33111 0.504454 0.325778 0.473268 0.325778 0.504454 0.232868 0.310522 0.232868 0.273452 0.236433 0.273452 0.232868 0.310522 0.236433 0.273452 0.236433 0.310522 0.479219 0.514459 0.473906 0.514459 0.473906 0.502868 0.479219 0.514459 0.473906 0.502868 0.479219 0.502868 0.404565 0.666014 0.40437 0.730771 0.39748 0.730796 0.404565 0.666014 0.39748 0.730796 0.3976 0.666012 0.221648 0.310522 0.221648 0.273452 0.225213 0.273452 0.221648 0.310522 0.225213 0.273452 0.225213 0.310522 0.428631 0.276343 0.427909 0.301474 0.431123 0.301407 0.411608 0.666067 0.412774 0.73086 0.412341 0.73087 0.40513 0.731034 0.404501 0.666228 0.405673 0.731021 0.517469 0.578209 0.512156 0.578209 0.512156 0.566618 0.517469 0.578209 0.512156 0.566618 0.517469 0.566618 0.524906 0.572993 0.530219 0.572993 0.530219 0.584584 0.524906 0.572993 0.530219 0.584584 0.524906 0.584584 0.431311 0.276324 0.431263 0.301435 0.434478 0.301425 0.431311 0.276324 0.434478 0.301425 0.434525 0.276314 0.413109 0.730934 0.413464 0.666127 0.413722 0.730932 0.415469 0.501709 0.410156 0.501709 0.410156 0.490118 0.415469 0.501709 0.410156 0.490118 0.415469 0.490118 0.412341 0.73087 0.412774 0.73086 0.40513 0.731034 0.412341 0.73087 0.40513 0.731034 0.405673 0.731021 0.319818 0.504454 0.319818 0.473268 0.314487 0.473268 0.319818 0.504454 0.314487 0.473268 0.314487 0.504454 0.420538 0.730907 0.413109 0.730934 0.413722 0.730932 0.325383 0.504454 0.325383 0.473268 0.320051 0.473268 0.325383 0.504454 0.320051 0.473268 0.320051 0.504454 0.424646 0.276278 0.424598 0.301389 0.427813 0.301378 0.424646 0.276278 0.427813 0.301378 0.42786 0.276267 0.405015 0.66598 0.404901 0.730786 0.40437 0.730771 0.405015 0.66598 0.40437 0.730771 0.404565 0.666014 0.473906 0.528368 0.479219 0.528368 0.479219 0.539959 0.473906 0.528368 0.479219 0.539959 0.473906 0.539959 0.40437 0.730771 0.404901 0.730786 0.39748 0.730796 0.314328 0.504454 0.314328 0.473268 0.308996 0.473268 0.314328 0.504454 0.308996 0.473268 0.308996 0.504454 0.3976 0.666012 0.405015 0.66598 0.404565 0.666014</float_array>
                    <technique_common>
                        <accessor count="546" source="#shape0-lib-map-array" stride="2">
                            <param name="U" type="float"/>
                            <param name="V" type="float"/>
                        </accessor>
                    </technique_common>
                </source>
                <vertices id="shape0-lib-vertices">
                    <input semantic="POSITION" source="#shape0-lib-positions"/>
                </vertices>
                <triangles count="182" material="material0">
                    <input offset="0" semantic="VERTEX" source="#shape0-lib-vertices"/>
                    <input offset="1" semantic="COLOR" source="#shape0-lib-vcolor"/>
                    <input offset="2" semantic="NORMAL" source="#shape0-lib-normals"/>
                    <input offset="3" semantic="TEXCOORD" source="#shape0-lib-map"/>
                    <p>4 4 0 0 5 5 0 1 0 0 0 2 4 4 1 3 0 0 1 4 1 1 1 5 2 2 2 6 3 3 2 7 5 5 2 8 2 2 3 9 5 5 3 10 4 4 3 11 6 6 4 12 1 1 4 13 0 0 4 14 6 6 5 15 0 0 5 16 10 10 5 17 7 7 6 18 2 2 6 19 3 3 6 20 7 7 7 21 3 3 7 22 11 11 7 23 9 9 8 24 4 4 8 25 5 5 8 26 9 9 9 27 5 5 9 28 12 12 9 29 10 10 10 30 0 0 10 31 5 5 10 32 10 10 11 33 5 5 11 34 12 12 11 35 9 9 12 36 4 4 12 37 1 1 12 38 9 9 13 39 1 1 13 40 6 6 13 41 9 9 14 42 12 12 14 43 11 11 14 44 9 9 15 45 11 11 15 46 7 7 15 47 12 12 16 48 9 9 16 49 8 8 16 50 6 6 17 51 10 10 17 52 12 12 17 53 6 6 18 54 12 12 18 55 8 8 18 56 8 8 19 57 9 9 19 58 6 6 19 59 12 12 20 60 5 5 20 61 3 3 20 62 12 12 21 63 3 3 21 64 11 11 21 65 7 7 22 66 2 2 22 67 4 4 22 68 7 7 23 69 4 4 23 70 9 9 23 71 15 15 24 72 16 16 24 73 17 17 24 74 15 15 25 75 17 17 25 76 14 14 25 77 23 23 26 78 20 20 26 79 19 19 26 80 23 23 27 81 19 19 27 82 22 22 27 83 23 23 28 84 22 22 28 85 24 24 28 86 23 23 29 87 24 24 29 88 21 21 29 89 25 25 30 90 26 26 30 91 27 27 30 92 25 25 31 93 27 27 31 94 28 28 31 95 30 30 32 96 26 26 32 97 25 25 32 98 30 30 33 99 25 25 33 100 29 29 33 101 32 32 34 102 28 28 34 103 27 27 34 104 32 32 35 105 27 27 35 106 31 31 35 107 32 32 36 108 31 31 36 109 30 30 36 110 32 32 37 111 30 30 37 112 29 29 37 113 33 33 38 114 34 34 38 115 35 35 38 116 33 33 39 117 35 35 39 118 36 36 39 119 38 38 40 120 34 34 40 121 33 33 40 122 38 38 41 123 33 33 41 124 37 37 41 125 40 40 42 126 36 36 42 127 35 35 42 128 40 40 43 129 35 35 43 130 39 39 43 131 40 40 44 132 39 39 44 133 38 38 44 134 40 40 45 135 38 38 45 136 37 37 45 137 41 41 46 138 42 42 46 139 43 43 46 140 41 41 47 141 43 43 47 142 44 44 47 143 46 46 48 144 42 42 48 145 41 41 48 146 46 46 49 147 41 41 49 148 45 45 49 149 48 48 50 150 44 44 50 151 43 43 50 152 48 48 51 153 43 43 51 154 47 47 51 155 48 48 52 156 47 47 52 157 46 46 52 158 48 48 53 159 46 46 53 160 45 45 53 161 49 49 54 162 50 50 54 163 51 51 54 164 49 49 55 165 51 51 55 166 52 52 55 167 54 54 56 168 50 50 56 169 49 49 56 170 54 54 57 171 49 49 57 172 53 53 57 173 56 56 58 174 52 52 58 175 51 51 58 176 56 56 59 177 51 51 59 178 55 55 59 179 56 56 60 180 55 55 60 181 54 54 60 182 56 56 61 183 54 54 61 184 53 53 61 185 14 14 62 186 13 13 62 187 15 15 62 188 21 21 63 189 18 18 63 190 20 20 63 191 21 21 64 192 20 20 64 193 23 23 64 194 31 31 65 195 27 27 65 196 26 26 65 197 31 31 66 198 26 26 66 199 30 30 66 200 29 29 67 201 25 25 67 202 28 28 67 203 29 29 68 204 28 28 68 205 32 32 68 206 34 34 69 207 38 38 69 208 39 39 69 209 34 34 70 210 39 39 70 211 35 35 70 212 37 37 71 213 33 33 71 214 36 36 71 215 37 37 72 216 36 36 72 217 40 40 72 218 47 47 73 219 43 43 73 220 42 42 73 221 47 47 74 222 42 42 74 223 46 46 74 224 45 45 75 225 41 41 75 226 44 44 75 227 45 45 76 228 44 44 76 229 48 48 76 230 55 55 77 231 51 51 77 232 50 50 77 233 55 55 78 234 50 50 78 235 54 54 78 236 53 53 79 237 49 49 79 238 52 52 79 239 53 53 80 240 52 52 80 241 56 56 80 242 57 57 81 243 58 58 81 244 59 59 81 245 57 57 82 246 59 59 82 247 60 60 82 248 62 62 83 249 58 58 83 250 57 57 83 251 62 62 84 252 57 57 84 253 61 61 84 254 64 64 85 255 60 60 85 256 59 59 85 257 64 64 86 258 59 59 86 259 63 63 86 260 64 64 87 261 63 63 87 262 62 62 87 263 64 64 88 264 62 62 88 265 61 61 88 266 68 68 89 267 65 65 89 268 66 66 89 269 68 68 90 270 66 66 90 271 67 67 90 272 14 14 91 273 70 70 91 274 68 68 91 275 14 14 92 276 68 68 92 277 67 67 92 278 63 63 93 279 59 59 93 280 58 58 93 281 63 63 94 282 58 58 94 283 62 62 94 284 61 61 95 285 57 57 95 286 60 60 95 287 61 61 96 288 60 60 96 289 64 64 96 290 67 67 97 291 66 66 97 292 69 69 97 293 13 13 98 294 71 71 98 295 72 72 98 296 15 15 99 297 74 74 99 298 16 16 99 299 73 73 100 300 14 14 100 301 17 17 100 302 73 73 101 303 71 71 101 304 13 13 101 305 73 73 102 306 13 13 102 307 14 14 102 308 15 15 103 309 13 13 103 310 72 72 103 311 15 15 104 312 72 72 104 313 74 74 104 314 18 18 105 315 72 72 105 316 19 19 105 317 18 18 106 318 19 19 106 319 20 20 106 320 74 74 107 321 21 21 107 322 24 24 107 323 74 74 108 324 72 72 108 325 18 18 108 326 74 74 109 327 18 18 109 328 21 21 109 329 16 16 110 330 74 74 110 331 73 73 110 332 16 16 111 333 73 73 111 334 17 17 111 335 74 74 112 336 72 72 112 337 71 71 112 338 74 74 113 339 71 71 113 340 73 73 113 341 22 22 114 342 74 74 114 343 24 24 114 344 22 22 115 345 19 19 115 346 72 72 115 347 22 22 116 348 72 72 116 349 74 74 116 350 66 66 117 351 65 65 117 352 71 71 117 353 69 69 118 354 73 73 118 355 70 70 118 356 69 69 119 357 70 70 119 358 14 14 119 359 69 69 120 360 66 66 120 361 71 71 120 362 69 69 121 363 71 71 121 364 73 73 121 365 70 70 122 366 73 73 122 367 68 68 122 368 73 73 123 369 71 71 123 370 65 65 123 371 73 73 124 372 65 65 124 373 68 68 124 374 67 67 125 375 69 69 125 376 14 14 125 377 77 77 126 378 78 78 126 379 79 79 126 380 77 77 127 381 79 79 127 382 76 76 127 383 85 85 128 384 82 82 128 385 81 81 128 386 85 85 129 387 81 81 129 388 84 84 129 389 85 85 130 390 84 84 130 391 86 86 130 392 85 85 131 393 86 86 131 394 83 83 131 395 87 87 132 396 88 88 132 397 89 89 132 398 87 87 133 399 89 89 133 400 90 90 133 401 92 92 134 402 88 88 134 403 87 87 134 404 92 92 135 405 87 87 135 406 91 91 135 407 94 94 136 408 90 90 136 409 89 89 136 410 94 94 137 411 89 89 137 412 93 93 137 413 94 94 138 414 93 93 138 415 92 92 138 416 94 94 139 417 92 92 139 418 91 91 139 419 76 76 140 420 75 75 140 421 77 77 140 422 83 83 141 423 80 80 141 424 82 82 141 425 83 83 142 426 82 82 142 427 85 85 142 428 93 93 143 429 89 89 143 430 88 88 143 431 93 93 144 432 88 88 144 433 92 92 144 434 91 91 145 435 87 87 145 436 90 90 145 437 91 91 146 438 90 90 146 439 94 94 146 440 99 99 147 441 96 96 147 442 95 95 147 443 99 99 148 444 95 95 148 445 98 98 148 446 76 76 149 447 101 101 149 448 99 99 149 449 76 76 150 450 99 99 150 451 98 98 150 452 98 98 151 453 95 95 151 454 97 97 151 455 98 98 152 456 97 97 152 457 100 100 152 458 75 75 153 459 102 102 153 460 103 103 153 461 77 77 154 462 105 105 154 463 78 78 154 464 104 104 155 465 76 76 155 466 79 79 155 467 104 104 156 468 102 102 156 469 75 75 156 470 104 104 157 471 75 75 157 472 76 76 157 473 77 77 158 474 75 75 158 475 103 103 158 476 77 77 159 477 103 103 159 478 105 105 159 479 80 80 160 480 103 103 160 481 81 81 160 482 80 80 161 483 81 81 161 484 82 82 161 485 105 105 162 486 83 83 162 487 86 86 162 488 105 105 163 489 103 103 163 490 80 80 163 491 105 105 164 492 80 80 164 493 83 83 164 494 78 78 165 495 105 105 165 496 104 104 165 497 78 78 166 498 104 104 166 499 79 79 166 500 105 105 167 501 103 103 167 502 102 102 167 503 105 105 168 504 102 102 168 505 104 104 168 506 84 84 169 507 105 105 169 508 86 86 169 509 84 84 170 510 81 81 170 511 103 103 170 512 84 84 171 513 103 103 171 514 105 105 171 515 95 95 172 516 96 96 172 517 102 102 172 518 95 95 173 519 102 102 173 520 97 97 173 521 100 100 174 522 104 104 174 523 101 101 174 524 100 100 175 525 101 101 175 526 76 76 175 527 100 100 176 528 97 97 176 529 102 102 176 530 100 100 177 531 102 102 177 532 104 104 177 533 101 101 178 534 104 104 178 535 99 99 178 536 104 104 179 537 102 102 179 538 96 96 179 539 104 104 180 540 96 96 180 541 99 99 180 542 98 98 181 543 100 100 181 544 76 76 181 545</p>
                </triangles>
            </mesh>
        </geometry>
    </library_geometries>
    <library_visual_scenes>
        <visual_scene id="VisualSceneNode" name="VisualScene">
            <node id="node" name="node">
                <instance_geometry url="#shape0-lib">
                    <bind_material>
                        <technique_common>
                            <instance_material symbol="material0" target="#material0">
                                <bind_vertex_input semantic="UVSET0" input_semantic="TEXCOORD"/>
                            </instance_material>
                        </technique_common>
                    </bind_material>
                </instance_geometry>
            </node>
        </visual_scene>
    </library_visual_scenes>
    <scene>
        <instance_visual_scene url="#VisualSceneNode"/>
    </scene>
</COLLADA>
