<?xml version="1.0" encoding="UTF-8"?>
<COLLADA xmlns="http://www.collada.org/2005/11/COLLADASchema" version="1.4.1">
    <asset>
        <contributor>
            <author>VCGLab</author>
            <authoring_tool>VCGLib | MeshLab</authoring_tool>
        </contributor>
        <created>Thu Jul 3 01:40:17 2025 GMT</created>
        <modified>Thu Jul 3 01:40:17 2025 GMT</modified>
        <up_axis>Y_UP</up_axis>
    </asset>
    <library_images>
        <image id="texture0" name="texture0">
            <init_from>./image/shelf_items.png</init_from>
        </image>
    </library_images>
    <library_materials>
        <material id="material0" name="material0">
            <instance_effect url="#material0-fx"/>
        </material>
    </library_materials>
    <library_effects>
        <effect id="material0-fx">
            <profile_COMMON>
                <newparam sid="texture0-surface">
                    <surface type="2D">
                        <init_from>texture0</init_from>
                        <format>R8G8B8</format>
                    </surface>
                </newparam>
                <newparam sid="texture0-sampler">
                    <sampler2D>
                        <source>texture0-surface</source>
                        <minfilter>LINEAR</minfilter>
                        <magfilter>LINEAR</magfilter>
                    </sampler2D>
                </newparam>
                <technique sid="common">
                    <blinn>
                        <diffuse>
                            <texture texture="texture0-sampler" texcoord="UVSET0"/>
                        </diffuse>
                    </blinn>
                </technique>
            </profile_COMMON>
        </effect>
    </library_effects>
    <library_geometries>
        <geometry id="shape0-lib" name="shape0">
            <mesh>
                <source id="shape0-lib-positions" name="position">
                    <float_array id="shape0-lib-positions-array" count="39">-0.114517 0.00182135 -0.146179 -0.110813 0.00313299 -0.15 -0.115813 0.0228671 -0.145 -0.112039 0.0245582 -0.148237 0.114016 0.0241435 -0.147161 0.110813 0.00313299 -0.15 0.113239 0.000958752 -0.146107 -0.110813 0.00313299 0.145 -0.113245 0.000796841 0.140739 -0.113814 0.0240719 0.142575 0.113215 0.0245553 0.14242 0.110813 0.00313299 0.145 0.114584 0.00171473 0.140898</float_array>
                    <technique_common>
                        <accessor count="13" source="#shape0-lib-positions-array" stride="3">
                            <param name="X" type="float"/>
                            <param name="Y" type="float"/>
                            <param name="Z" type="float"/>
                        </accessor>
                    </technique_common>
                </source>
                <source id="shape0-lib-normals" name="normal">
                    <float_array id="shape0-lib-normals-array" count="66">-0.720566 0.0158063 -0.693206 -0.651658 0.00238758 -0.758509 -0.00347394 -0.944768 -0.32772 0 -0.873063 -0.487608 0.833959 -0.0529214 -0.549283 0.736048 -0.00101527 0.676929 0 -0.876841 0.48078 0.00357428 -0.944084 0.329686 -0.851836 -0.061859 0.520144 -0.409643 0.912245 -0.000974582 0.00496014 0.133154 -0.991083 0 0.0820186 -0.996631 -0.998059 -0.0618533 0.00719606 -0.999683 -0.0247932 0.00434428 0.00184117 0.999997 -0.00141673 -0.00212814 0.999996 0.00165943 0.999421 -0.0337015 -0.00459356 0.998217 0.0596267 0.00267552 -0.00378619 -0.999987 -0.00355389 0.004027 -0.999988 0.00261513 0.000423734 0.119524 0.992831 0 0.11504 0.993361</float_array>
                    <technique_common>
                        <accessor count="22" source="#shape0-lib-normals-array" stride="3">
                            <param name="X" type="float"/>
                            <param name="Y" type="float"/>
                            <param name="Z" type="float"/>
                        </accessor>
                    </technique_common>
                </source>
                <source id="shape0-lib-vcolor" name="vcolor">
                    <float_array id="shape0-lib-vcolor-array" count="52">1 1 1 1 1 1 1 1 1 1 1 1 1 1 1 1 1 1 1 1 1 1 1 1 1 1 1 1 1 1 1 1 1 1 1 1 1 1 1 1 1 1 1 1 1 1 1 1 1 1 1 1</float_array>
                    <technique_common>
                        <accessor count="13" source="#shape0-lib-vcolor-array" stride="4">
                            <param name="R" type="float"/>
                            <param name="G" type="float"/>
                            <param name="B" type="float"/>
                            <param name="A" type="float"/>
                        </accessor>
                    </technique_common>
                </source>
                <source id="shape0-lib-map" name="map">
                    <float_array id="shape0-lib-map-array" count="132">0.505705 0.936343 0.505659 0.933464 0.505962 0.933464 0.505705 0.936343 0.505962 0.933464 0.505962 0.936096 0.491027 0.936328 0.477321 0.93637 0.477474 0.933464 0.491027 0.936328 0.477474 0.933464 0.490912 0.933464 0.492062 0.93627 0.491918 0.933464 0.492221 0.933464 0.953594 0.828535 0.953225 0.820871 0.954048 0.820871 0.953225 0.839204 0.916775 0.839204 0.916463 0.831069 0.953225 0.839204 0.916463 0.831069 0.953646 0.831041 0.916775 0.820871 0.916361 0.828461 0.915952 0.820871 0.650241 0.880404 0.650039 0.864326 0.650385 0.864326 0.505705 0.936343 0.492062 0.93627 0.492221 0.933464 0.505705 0.936343 0.492221 0.933464 0.505659 0.933464 0.68564 0.871604 0.669615 0.871604 0.669615 0.864259 0.68564 0.871604 0.669615 0.864259 0.68564 0.864259 0.634536 0.880413 0.6345 0.864282 0.650039 0.864326 0.634536 0.880413 0.650039 0.864326 0.650241 0.880404 0.651987 0.864259 0.668013 0.864259 0.668013 0.871604 0.651987 0.864259 0.668013 0.871604 0.651987 0.871604 0.479785 0.889682 0.479757 0.879436 0.487716 0.879433 0.479785 0.889682 0.487716 0.879433 0.487743 0.889682 0.953225 0.820871 0.953594 0.828535 0.916361 0.828461 0.953225 0.820871 0.916361 0.828461 0.916775 0.820871</float_array>
                    <technique_common>
                        <accessor count="66" source="#shape0-lib-map-array" stride="2">
                            <param name="U" type="float"/>
                            <param name="V" type="float"/>
                        </accessor>
                    </technique_common>
                </source>
                <vertices id="shape0-lib-vertices">
                    <input semantic="POSITION" source="#shape0-lib-positions"/>
                </vertices>
                <triangles count="22" material="material0">
                    <input offset="0" semantic="VERTEX" source="#shape0-lib-vertices"/>
                    <input offset="1" semantic="COLOR" source="#shape0-lib-vcolor"/>
                    <input offset="2" semantic="NORMAL" source="#shape0-lib-normals"/>
                    <input offset="3" semantic="TEXCOORD" source="#shape0-lib-map"/>
                    <p>3 3 0 0 1 1 0 1 0 0 0 2 3 3 1 3 0 0 1 4 2 2 1 5 6 6 2 6 0 0 2 7 1 1 2 8 6 6 3 9 1 1 3 10 5 5 3 11 4 4 4 12 6 6 4 13 5 5 4 14 10 10 5 15 11 11 5 16 12 12 5 17 11 11 6 18 7 7 6 19 8 8 6 20 11 11 7 21 8 8 7 22 12 12 7 23 7 7 8 24 9 9 8 25 8 8 8 26 9 9 9 27 3 3 9 28 2 2 9 29 3 3 10 30 4 4 10 31 5 5 10 32 3 3 11 33 5 5 11 34 1 1 11 35 9 9 12 36 2 2 12 37 0 0 12 38 9 9 13 39 0 0 13 40 8 8 13 41 10 10 14 42 4 4 14 43 3 3 14 44 10 10 15 45 3 3 15 46 9 9 15 47 12 12 16 48 6 6 16 49 4 4 16 50 12 12 17 51 4 4 17 52 10 10 17 53 8 8 18 54 0 0 18 55 6 6 18 56 8 8 19 57 6 6 19 58 12 12 19 59 11 11 20 60 10 10 20 61 9 9 20 62 11 11 21 63 9 9 21 64 7 7 21 65</p>
                </triangles>
            </mesh>
        </geometry>
    </library_geometries>
    <library_visual_scenes>
        <visual_scene id="VisualSceneNode" name="VisualScene">
            <node id="node" name="node">
                <instance_geometry url="#shape0-lib">
                    <bind_material>
                        <technique_common>
                            <instance_material symbol="material0" target="#material0">
                                <bind_vertex_input semantic="UVSET0" input_semantic="TEXCOORD"/>
                            </instance_material>
                        </technique_common>
                    </bind_material>
                </instance_geometry>
            </node>
        </visual_scene>
    </library_visual_scenes>
    <scene>
        <instance_visual_scene url="#VisualSceneNode"/>
    </scene>
</COLLADA>
