<?xml version="1.0" encoding="UTF-8"?>
<COLLADA xmlns="http://www.collada.org/2005/11/COLLADASchema" version="1.4.1">
    <asset>
        <contributor>
            <author>VCGLab</author>
            <authoring_tool>VCGLib | MeshLab</authoring_tool>
        </contributor>
        <created>Thu Jul 3 01:34:08 2025 GMT</created>
        <modified>Thu Jul 3 01:34:08 2025 GMT</modified>
        <up_axis>Y_UP</up_axis>
    </asset>
    <library_images>
        <image id="texture0" name="texture0">
            <init_from>./image/shelf_books.png</init_from>
        </image>
    </library_images>
    <library_materials>
        <material id="material0" name="material0">
            <instance_effect url="#material0-fx"/>
        </material>
    </library_materials>
    <library_effects>
        <effect id="material0-fx">
            <profile_COMMON>
                <newparam sid="texture0-surface">
                    <surface type="2D">
                        <init_from>texture0</init_from>
                        <format>R8G8B8</format>
                    </surface>
                </newparam>
                <newparam sid="texture0-sampler">
                    <sampler2D>
                        <source>texture0-surface</source>
                        <minfilter>LINEAR</minfilter>
                        <magfilter>LINEAR</magfilter>
                    </sampler2D>
                </newparam>
                <technique sid="common">
                    <blinn>
                        <diffuse>
                            <texture texture="texture0-sampler" texcoord="UVSET0"/>
                        </diffuse>
                    </blinn>
                </technique>
            </profile_COMMON>
        </effect>
    </library_effects>
    <library_geometries>
        <geometry id="shape0-lib" name="shape0">
            <mesh>
                <source id="shape0-lib-positions" name="position">
                    <float_array id="shape0-lib-positions-array" count="327">-0.161664 0.161811 -0.0572915 -0.153502 0.161811 -0.0572915 -0.107302 0.161811 -0.0572915 -0.172645 0.00181095 -0.0572915 -0.153502 0.00181095 -0.0572915 -0.131227 0.00181095 -0.0572915 -0.107302 0.00181095 -0.0572915 -0.131227 0.161811 -0.0572915 -0.176678 0.00181095 0.062279 -0.157197 0.00181095 0.0622165 -0.152019 0.00181095 0.0621641 -0.131566 0.00181071 0.0615734 -0.126772 0.00181095 0.0633085 -0.108498 0.00181095 0.0621785 -0.176973 0.161811 0.0621701 -0.157606 0.161811 0.0622417 -0.15251 0.161811 0.0618792 -0.134032 0.161811 0.0633085 -0.130965 0.161811 0.0606572 -0.108285 0.161811 0.0616143 0.0320265 0.000127743 -0.0572915 0.0276553 0.00022041 0.0624914 0.0465275 -0.000203453 0.062541 0.0484696 0.17244 0.0627195 0.0308348 0.172842 0.0630772 0.0707386 0.172538 -0.0572915 0.0588602 -8.21209e-05 -0.0572915 0.0514823 -4.43589e-05 0.0624541 0.0701696 0.172539 0.0623655 0.070469 -0.000112699 0.062494 0.0522306 0.17262 0.0630501 0.0725395 -0.000120236 -0.0572915 0.0722386 0.172532 -0.0572915 0.0924893 0.172459 -0.0572915 0.0927902 -0.000193192 -0.0572915 0.0731087 -0.000122249 0.0623657 0.0728087 0.17253 0.062494 0.0919201 0.172461 0.0623656 0.09222 -0.00019108 0.0624938 0.0950401 -0.000201299 -0.0572915 0.0947394 0.172451 -0.0572915 0.11499 0.172378 -0.0572915 0.115291 -0.000274255 -0.0572915 0.0956094 -0.000203381 0.0623656 0.0953096 0.172449 0.062494 0.114421 0.17238 0.0623656 0.114721 -0.000272145 0.0624939 -0.101886 0.172877 -0.0572915 -0.101363 0.000176585 -0.0572915 -0.103749 0.000231582 0.0623654 -0.101316 0.172863 0.0624938 -0.0846924 -0.000203918 0.0625333 -0.082772 0.17244 0.0627195 -0.080453 -4.17967e-05 -0.0572915 -0.0605031 0.172538 -0.0572915 -0.0602023 -0.000114753 -0.0572915 -0.0797593 -4.43592e-05 0.0624541 -0.061072 0.172539 0.0623656 -0.0607725 -0.000112699 0.062494 -0.079011 0.17262 0.0630501 -0.0587022 -0.000120236 -0.0572915 -0.059003 0.172532 -0.0572915 -0.0387523 0.172459 -0.0572915 -0.0384515 -0.000193192 -0.0572915 -0.0581329 -0.000122249 0.0623656 -0.0584328 0.17253 0.0624939 -0.0393215 0.172461 0.0623656 -0.0390217 -0.00019108 0.0624939 -0.0362014 -0.000201299 -0.0572915 -0.0365022 0.172451 -0.0572915 -0.0162515 0.172378 -0.0572915 -0.0159508 -0.000274255 -0.0572915 -0.0356322 -0.000203381 0.0623656 -0.035932 0.172449 0.0624939 -0.0168208 0.17238 0.0623656 -0.016521 -0.000272145 0.0624939 -0.0137007 -0.00028248 -0.0572915 -0.0140016 0.17237 -0.0572915 0.00624923 0.172297 -0.0572915 0.00654999 -0.000355436 -0.0572915 -0.0131314 -0.000284589 0.0623656 -0.0134314 0.172368 0.0624939 0.00567997 0.172299 0.0623656 0.00597977 -0.000353446 0.0624939 0.00849918 0.172289 -0.0572915 0.0117552 -0.000379906 -0.0572915 0.0093919 -0.000323194 0.0624387 0.00905341 0.172163 0.0624396 0.0290507 -0.000436499 0.0598915 0.0272466 0.172195 0.06303 -0.0816396 0.172414 -0.0572915 -0.0816396 0.172414 0.0598915 0.0293556 0.172877 -0.0572915 0.0496019 0.172414 -0.0572915 0.0293556 0.172877 0.0598915 0.0496019 0.172414 0.0598915 0.161106 0.164 -0.0622915 0.161106 0.00399999 -0.0622915 0.118041 0.0019999 -0.0622915 0.118041 0.162 -0.0622915 0.13945 0.0019999 -0.0622915 0.13945 0.162 -0.0622915 0.161106 0.00399999 0.0548915 0.117726 0.00180727 0.0573291 0.144773 0.00181095 0.0548915 0.136996 0.0019999 0.0583085 0.161106 0.164 0.0548915 0.119086 0.161808 0.0562888 0.137369 0.161953 0.0576646</float_array>
                    <technique_common>
                        <accessor count="109" source="#shape0-lib-positions-array" stride="3">
                            <param name="X" type="float"/>
                            <param name="Y" type="float"/>
                            <param name="Z" type="float"/>
                        </accessor>
                    </technique_common>
                </source>
                <source id="shape0-lib-normals" name="normal">
                    <float_array id="shape0-lib-normals-array" count="552">0 1 0 0 -1 0 0 -1 0 -1.19104e-05 -1 -2.07307e-06 7.37732e-06 -1 0.000119306 0 -1 -2.03909e-06 1.05044e-05 -1 1.05194e-07 -0.989597 0.0679226 -0.12682 -0.99943 -0.00186358 -0.033709 0.989459 -0.0679131 -0.127904 0.999421 0.00255737 -0.0339291 -0.00369806 -0.000167045 0.999993 0.00320604 0.000686302 0.999995 0 0 -1 0 0 -1 0.654018 0.00187602 0.756477 -0.999965 0 0.00832241 -0.999918 -0.0030483 0.0124147 0.999996 0 0.00285286 0.99999 -0.00376776 -0.00221882 -0.077117 -0.0119999 0.99695 0.0288717 0.00186904 0.999581 0 0 -1 0 0 -1 -0.340315 0.00666241 0.940288 0.99995 0 0.0100138 0.999965 -0.0013016 0.00827076 -0.0421664 0.00357925 0.999104 0.0617074 0.0181538 0.997929 0 1 0 0 1 0 0 1 0 0 1 0 0 1 0 0.0202483 -0.00126172 0.999794 -0.00269945 -0.00334335 0.999991 0.993009 -0.068331 -0.096253 0.999987 0.00173791 0.00475537 0.0381364 0.000809487 0.999272 -0.00211373 -0.00344274 0.999992 0 0 -1 0 0 -1 -0.999987 -0.00174278 0.00475954 -0.999987 -0.00174096 0.00475691 0.999987 0.00174278 0.00475972 0.999987 0.00174075 0.00475679 0.00672204 0.000754314 0.999977 -0.00670528 -0.000754716 0.999977 0 0 -1 0 0 -1 -0.999987 -0.00174162 0.00475996 -0.999987 -0.00173989 0.00475747 0.999987 0.00174334 0.00476046 0.999987 0.00174148 0.00475779 0.00672036 0.000754812 0.999977 -0.00671598 -0.000755226 0.999977 -0.0224539 -0.999748 -4.59572e-05 -0.00359954 -0.999994 9.35693e-05 0.00360483 0.999994 -1.90556e-06 0.0036201 0.999994 -4.41731e-06 -0.00360262 -0.999994 3.13284e-07 -0.00360157 -0.999994 4.85418e-07 0.003589 0.999994 1.82463e-06 0.00360485 0.999994 -7.81123e-07 -0.00360258 -0.999994 -2.59122e-07 -0.00359807 -0.999994 4.83231e-07 -0.999984 -0.00302552 0.0047597 -0.999702 0.014104 -0.0199349 -0.0121943 -0.000943 0.999925 -0.0088227 -0.000619148 0.999961 0.999987 0.00174219 0.00475978 0.999987 0.00173847 0.0047544 0.0381323 0.000808984 0.999272 -0.00210901 -0.00344235 0.999992 0 0 -1 0 0 -1 -0.999987 -0.0017422 0.00476047 -0.999987 -0.0017401 0.00475745 0.999987 0.0017422 0.00476025 0.999987 0.00173991 0.00475694 0.00671488 0.000754706 0.999977 -0.00671663 -0.000754773 0.999977 0 0 -1 0 0 -1 -0.999987 -0.00174222 0.00476024 -0.999987 -0.00173993 0.00475694 0.999987 0.00174163 0.00476018 0.999987 0.00173973 0.00475744 0.0067174 0.000755076 0.999977 -0.00671703 -0.000754732 0.999977 0 0 -1 0 0 -1 -0.999987 -0.00174279 0.00476046 -0.999987 -0.00174069 0.00475744 0.999987 0.00174197 0.00476028 0.999987 0.00173991 0.0047573 0.00671541 0.000754813 0.999977 -0.00671703 -0.000754779 0.999977 -0.999812 -0.0188534 0.00460831 -0.999803 -0.00196187 -0.0197337 -0.0324292 -0.00320721 0.999469 -0.00288917 -1.12201e-05 0.999996 -0.0228474 -0.999739 4.05969e-06 -0.00360263 -0.999994 -5.29506e-07 -0.00359931 -0.999994 1.23965e-08 0.00360483 0.999994 -1.905e-06 0.00362012 0.999994 -4.42077e-06 -0.00360262 -0.999994 3.17381e-07 -0.00360157 -0.999994 4.88946e-07 0.00358899 0.999994 1.82372e-06 0.00360483 0.999994 -7.82386e-07 -0.00360264 -0.999994 -2.61623e-07 -0.0035981 -0.999994 4.84081e-07 0.00360481 0.999994 -9.07568e-07 0.00359286 0.999994 1.05814e-06 -0.00360262 -0.999994 -4.83552e-07 -0.00360293 -0.999994 -5.34137e-07 -0.00571674 -0.999984 0.000360823 0 0 -1 0.928268 -0.010827 0.371753 -0.906826 0.0152732 0.421228 -0.999881 -0.015459 0 -0.999291 0.00929146 -0.0364734 0.987673 -0.100755 -0.119798 0.999841 -0.0178077 0 0 0 -1 -0.768665 0.00112354 0.639651 -0.998563 -0.0535956 0 -0.998038 -0.0117957 -0.061489 0.0228621 0.999739 8.53075e-06 0.0228122 0.99974 0.000345728 0.0228621 0.999739 0 0.0228621 0.999739 0 0.00193384 0.99778 -0.0665639 -0.00586612 0.999983 -3.78585e-05 -0.00608636 0.999982 0 0 0 -1 0.92825 -0.0107263 0.371801 0.984101 -0.112695 -0.137274 0.999844 -0.0176827 0 0 0 -1 0 0 -1 -0.768684 0.0011237 0.639628 -0.999976 -0.00688045 0 -0.999925 -0.010816 0.00579233 0 0 -1 0.830161 -0.00146045 0.557521 0.881186 0.00061359 0.47277 0.984318 -0.0999925 -0.145328 0.999998 -0.00175924 0 0.0228283 0.999739 -3.51875e-06 0.022862 0.999739 0 0.0228295 0.999739 5.62155e-06 0.00193472 0.99778 -0.0665691 -0.00586618 0.999983 -3.7853e-05 -0.00608639 0.999982 0 -0.00842614 0.978324 0.206907 -0.0281815 0.999603 0 -0.0349835 0.999387 0.0012117 0.0279889 -0.965482 0.258963 0 0 -1 0 0 -1 0 0 -1 0 0 -1 1 0 0 1 0 0 0.999997 0 0.00263658 0.999924 -0.00855689 -0.00882277 0.999793 0 0.020344 0.999847 -0.0022601 0.0173466 -0.091962 0.995763 0 -0.0860332 0.996292 -0.0011047 0.0919657 -0.99576 0.00187134 0.0826729 -0.996577 0 -0.0750687 0.00418914 0.99717 -0.0508259 0.00692526 0.998684 0.402312 0.00274793 0.915499 0.116035 0 0.993245 0.0023062 -0.0172072 0.999849 -0.125099 0.933396 -0.336336 0 1 0.000389435 -0.00804948 0.999966 0.00168638 0 -0.999999 -0.00161035 0.00998543 -0.99995 0.000203186</float_array>
                    <technique_common>
                        <accessor count="184" source="#shape0-lib-normals-array" stride="3">
                            <param name="X" type="float"/>
                            <param name="Y" type="float"/>
                            <param name="Z" type="float"/>
                        </accessor>
                    </technique_common>
                </source>
                <source id="shape0-lib-vcolor" name="vcolor">
                    <float_array id="shape0-lib-vcolor-array" count="436">1 1 1 1 1 1 1 1 1 1 1 1 1 1 1 1 1 1 1 1 1 1 1 1 1 1 1 1 1 1 1 1 1 1 1 1 1 1 1 1 1 1 1 1 1 1 1 1 1 1 1 1 1 1 1 1 1 1 1 1 1 1 1 1 1 1 1 1 1 1 1 1 1 1 1 1 1 1 1 1 1 1 1 1 1 1 1 1 1 1 1 1 1 1 1 1 1 1 1 1 1 1 1 1 1 1 1 1 1 1 1 1 1 1 1 1 1 1 1 1 1 1 1 1 1 1 1 1 1 1 1 1 1 1 1 1 1 1 1 1 1 1 1 1 1 1 1 1 1 1 1 1 1 1 1 1 1 1 1 1 1 1 1 1 1 1 1 1 1 1 1 1 1 1 1 1 1 1 1 1 1 1 1 1 1 1 1 1 1 1 1 1 1 1 1 1 1 1 1 1 1 1 1 1 1 1 1 1 1 1 1 1 1 1 1 1 1 1 1 1 1 1 1 1 1 1 1 1 1 1 1 1 1 1 1 1 1 1 1 1 1 1 1 1 1 1 1 1 1 1 1 1 1 1 1 1 1 1 1 1 1 1 1 1 1 1 1 1 1 1 1 1 1 1 1 1 1 1 1 1 1 1 1 1 1 1 1 1 1 1 1 1 1 1 1 1 1 1 1 1 1 1 1 1 1 1 1 1 1 1 1 1 1 1 1 1 1 1 1 1 1 1 1 1 1 1 1 1 1 1 1 1 1 1 1 1 1 1 1 1 1 1 1 1 1 1 1 1 1 1 1 1 1 1 1 1 1 1 1 1 1 1 1 1 1 1 1 1 1 1 1 1 1 1 1 1 1 1 1 1 1 1 1 1 1 1 1 1 1 1 1 1 1 1 1 1 1 1 1 1 1 1 1 1 1 1 1 1 1 1 1 1 1 1 1 1 1 1 1 1 1 1 1 1 1 1 1 1 1 1 1 1 1 1 1 1</float_array>
                    <technique_common>
                        <accessor count="109" source="#shape0-lib-vcolor-array" stride="4">
                            <param name="R" type="float"/>
                            <param name="G" type="float"/>
                            <param name="B" type="float"/>
                            <param name="A" type="float"/>
                        </accessor>
                    </technique_common>
                </source>
                <source id="shape0-lib-map" name="map">
                    <float_array id="shape0-lib-map-array" count="1104">0.128975 0.597601 0.126726 0.55948 0.122441 0.597601 0.0913185 0.394938 0.0925407 0.357869 0.0948922 0.394938 0.0952893 0.394938 0.0952893 0.357869 0.098863 0.357869 0.0952893 0.394938 0.098863 0.357869 0.098863 0.394938 0.125562 0.832353 0.125279 0.832353 0.132773 0.832353 0.0991277 0.394938 0.0991277 0.357869 0.102701 0.357869 0.0991277 0.394938 0.102701 0.357869 0.102701 0.394938 0.383594 0.635584 0.378281 0.635584 0.378281 0.623993 0.383594 0.635584 0.378281 0.623993 0.383594 0.623993 0.467531 0.617618 0.472844 0.617618 0.472844 0.629209 0.467531 0.617618 0.472844 0.629209 0.467531 0.629209 0.115229 0.832353 0.115229 0.89271 0.109495 0.89271 0.115229 0.832353 0.109495 0.89271 0.109495 0.832353 0.308895 0.340733 0.308895 0.36412 0.312117 0.36412 0.308895 0.340733 0.312117 0.36412 0.312117 0.340733 0.124581 0.832353 0.124711 0.89271 0.124429 0.89271 0.466469 0.629209 0.461156 0.629209 0.461156 0.617618 0.466469 0.629209 0.461156 0.617618 0.466469 0.617618 0.473906 0.617618 0.479219 0.617618 0.479219 0.629209 0.473906 0.617618 0.479219 0.629209 0.473906 0.629209 0.124581 0.832353 0.123746 0.89271 0.118011 0.89271 0.124581 0.832353 0.118011 0.89271 0.118011 0.832353 0.312356 0.340733 0.312356 0.36412 0.315579 0.36412 0.312356 0.340733 0.315579 0.36412 0.315579 0.340733 0.125336 0.89271 0.125279 0.832353 0.125562 0.832353 0.480281 0.617618 0.485594 0.617618 0.485594 0.629209 0.480281 0.617618 0.485594 0.629209 0.480281 0.629209 0.131979 0.832353 0.131979 0.89271 0.126244 0.89271 0.131979 0.832353 0.126244 0.89271 0.126244 0.832353 0.124429 0.89271 0.124711 0.89271 0.117185 0.89271 0.136235 0.597601 0.136235 0.55948 0.129701 0.55948 0.136235 0.597601 0.129701 0.55948 0.129701 0.597601 0.143253 0.597601 0.143253 0.55948 0.136719 0.55948 0.143253 0.597601 0.136719 0.55948 0.136719 0.597601 0.411594 0.666068 0.412322 0.730871 0.405699 0.731021 0.411594 0.666068 0.405699 0.731021 0.404501 0.666228 0.556781 0.534743 0.562094 0.534743 0.562094 0.546334 0.556781 0.534743 0.562094 0.546334 0.556781 0.546334 0.420636 0.666102 0.420527 0.730908 0.413736 0.730932 0.420636 0.666102 0.413736 0.730932 0.413475 0.666127 0.434764 0.276313 0.434716 0.301424 0.43793 0.301413 0.434764 0.276313 0.43793 0.301413 0.437978 0.276302 0.428219 0.514459 0.422906 0.514459 0.422906 0.502868 0.428219 0.514459 0.422906 0.502868 0.428219 0.502868 0.416531 0.490118 0.421844 0.490118 0.421844 0.501709 0.416531 0.490118 0.421844 0.501709 0.416531 0.501709 0.428848 0.666072 0.428739 0.730878 0.421553 0.730904 0.428848 0.666072 0.421553 0.730904 0.421662 0.666098 0.438335 0.276301 0.438287 0.301412 0.441502 0.301402 0.438335 0.276301 0.441502 0.301402 0.44155 0.276291 0.460094 0.501709 0.454781 0.501709 0.454781 0.490118 0.460094 0.501709 0.454781 0.490118 0.460094 0.490118 0.461156 0.502868 0.466469 0.502868 0.466469 0.514459 0.461156 0.502868 0.466469 0.514459 0.461156 0.514459 0.437344 0.666042 0.437235 0.730848 0.430048 0.730873 0.437344 0.666042 0.430048 0.730873 0.430157 0.666067 0.224839 0.310522 0.226059 0.273452 0.228403 0.310522 0.22904 0.310522 0.230176 0.273452 0.232604 0.310522 0.33111 0.504454 0.33111 0.473268 0.325778 0.473268 0.33111 0.504454 0.325778 0.473268 0.325778 0.504454 0.232868 0.310522 0.232868 0.273452 0.236433 0.273452 0.232868 0.310522 0.236433 0.273452 0.236433 0.310522 0.331703 0.473268 0.331703 0.504454 0.337034 0.504454 0.331703 0.473268 0.337034 0.504454 0.337034 0.473268 0.236829 0.310522 0.236829 0.273452 0.240394 0.273452 0.236829 0.310522 0.240394 0.273452 0.240394 0.310522 0.453719 0.578209 0.448406 0.578209 0.448406 0.566618 0.453719 0.578209 0.448406 0.566618 0.453719 0.566618 0.362062 0.666067 0.36277 0.730871 0.35581 0.731029 0.362062 0.666067 0.35581 0.731029 0.354887 0.666231 0.391031 0.541118 0.396344 0.541118 0.396344 0.552709 0.391031 0.541118 0.396344 0.552709 0.391031 0.552709 0.371085 0.666102 0.370975 0.730908 0.364184 0.730932 0.371085 0.666102 0.364184 0.730932 0.363924 0.666127 0.413931 0.276313 0.413883 0.301424 0.417098 0.301413 0.413931 0.276313 0.417098 0.301413 0.417146 0.276302 0.511094 0.501709 0.505781 0.501709 0.505781 0.490118 0.511094 0.501709 0.505781 0.490118 0.511094 0.490118 0.499406 0.490118 0.504719 0.490118 0.504719 0.501709 0.499406 0.490118 0.504719 0.501709 0.499406 0.501709 0.379297 0.666072 0.379188 0.730878 0.372001 0.730904 0.379297 0.666072 0.372001 0.730904 0.37211 0.666098 0.417503 0.276301 0.417455 0.301412 0.420669 0.301402 0.417503 0.276301 0.420669 0.301402 0.420717 0.276291 0.434594 0.514459 0.429281 0.514459 0.429281 0.502868 0.434594 0.514459 0.429281 0.502868 0.434594 0.502868 0.524906 0.490118 0.530219 0.490118 0.530219 0.501709 0.524906 0.490118 0.530219 0.501709 0.524906 0.501709 0.387792 0.666042 0.387684 0.730848 0.380497 0.730873 0.387792 0.666042 0.380497 0.730873 0.380605 0.666067 0.421074 0.276289 0.421027 0.3014 0.424241 0.30139 0.421074 0.276289 0.424241 0.30139 0.424289 0.276279 0.396344 0.501709 0.391031 0.501709 0.391031 0.490118 0.396344 0.501709 0.391031 0.490118 0.396344 0.490118 0.403781 0.541118 0.409094 0.541118 0.409094 0.552709 0.403781 0.541118 0.409094 0.552709 0.403781 0.552709 0.396288 0.666011 0.396179 0.730817 0.388992 0.730843 0.396288 0.666011 0.388992 0.730843 0.389101 0.666037 0.479219 0.514459 0.473906 0.514459 0.473906 0.502868 0.479219 0.514459 0.473906 0.502868 0.479219 0.502868 0.404558 0.666016 0.404355 0.730772 0.397492 0.730795 0.404558 0.666016 0.397492 0.730795 0.397611 0.666012 0.201736 0.310522 0.203106 0.273452 0.2053 0.310522 0.205937 0.310522 0.205937 0.273452 0.209502 0.273452 0.205937 0.310522 0.209502 0.273452 0.209502 0.310522 0.296555 0.504454 0.296555 0.473268 0.291223 0.473268 0.296555 0.504454 0.291223 0.473268 0.291223 0.504454 0.209766 0.310522 0.209766 0.273452 0.21333 0.273452 0.209766 0.310522 0.21333 0.273452 0.21333 0.310522 0.297147 0.473268 0.297147 0.504454 0.302479 0.504454 0.297147 0.473268 0.302479 0.504454 0.302479 0.473268 0.213727 0.310522 0.213727 0.273452 0.217291 0.273452 0.213727 0.310522 0.217291 0.273452 0.217291 0.310522 0.308404 0.504454 0.308404 0.473268 0.303072 0.473268 0.308404 0.504454 0.303072 0.473268 0.303072 0.504454 0.217687 0.310522 0.217687 0.273452 0.221252 0.273452 0.217687 0.310522 0.221252 0.273452 0.221252 0.310522 0.221648 0.310522 0.223018 0.273452 0.225213 0.310522 0.428633 0.276343 0.427909 0.301474 0.431123 0.301407 0.411594 0.666068 0.412774 0.73086 0.412322 0.730871 0.40513 0.731034 0.404501 0.666228 0.405699 0.731021 0.517469 0.578209 0.512156 0.578209 0.512156 0.566618 0.517469 0.578209 0.512156 0.566618 0.517469 0.566618 0.524906 0.572993 0.530219 0.572993 0.530219 0.584584 0.524906 0.572993 0.530219 0.584584 0.524906 0.584584 0.432309 0.276319 0.431263 0.301435 0.434478 0.301425 0.413109 0.730934 0.413475 0.666127 0.413736 0.730932 0.415469 0.501709 0.410156 0.501709 0.410156 0.490118 0.415469 0.501709 0.410156 0.490118 0.415469 0.490118 0.412322 0.730871 0.412774 0.73086 0.40513 0.731034 0.412322 0.730871 0.40513 0.731034 0.405699 0.731021 0.319818 0.504454 0.319818 0.473268 0.314487 0.473268 0.319818 0.504454 0.314487 0.473268 0.314487 0.504454 0.420527 0.730908 0.413109 0.730934 0.413736 0.730932 0.325383 0.504454 0.325383 0.473268 0.320051 0.473268 0.325383 0.504454 0.320051 0.473268 0.320051 0.504454 0.408006 0.276339 0.407076 0.301474 0.41029 0.301407 0.362062 0.666067 0.363223 0.73086 0.36277 0.730871 0.518531 0.572993 0.523844 0.572993 0.523844 0.584584 0.518531 0.572993 0.523844 0.584584 0.518531 0.584584 0.410478 0.276324 0.410431 0.301435 0.413645 0.301425 0.410478 0.276324 0.413645 0.301425 0.413693 0.276314 0.363557 0.730934 0.363924 0.666127 0.364184 0.730932 0.453719 0.514459 0.448406 0.514459 0.448406 0.502868 0.453719 0.514459 0.448406 0.502868 0.453719 0.502868 0.42596 0.276271 0.424598 0.301389 0.427813 0.301378 0.405015 0.66598 0.404901 0.730786 0.404355 0.730772 0.405015 0.66598 0.404355 0.730772 0.404558 0.666016 0.473906 0.528368 0.479219 0.528368 0.479219 0.539959 0.473906 0.528368 0.479219 0.539959 0.473906 0.539959 0.36277 0.730871 0.363223 0.73086 0.35581 0.731029 0.285263 0.504454 0.285263 0.473268 0.279932 0.473268 0.285263 0.504454 0.279932 0.473268 0.279932 0.504454 0.370975 0.730908 0.363557 0.730934 0.364184 0.730932 0.290828 0.504454 0.290828 0.473268 0.285496 0.473268 0.290828 0.504454 0.285496 0.473268 0.285496 0.504454 0.404355 0.730772 0.404901 0.730786 0.397492 0.730795 0.314328 0.504454 0.314328 0.473268 0.308996 0.473268 0.314328 0.504454 0.308996 0.473268 0.308996 0.504454 0.397611 0.666012 0.405015 0.66598 0.404558 0.666016 0.35509 0.341053 0.35509 0.36444 0.357909 0.36444 0.35509 0.341053 0.357909 0.36444 0.357909 0.341053 0.348457 0.340761 0.348457 0.364148 0.351276 0.364148 0.348457 0.340761 0.351276 0.364148 0.351276 0.340761 0.397406 0.636695 0.402719 0.636695 0.402719 0.642007 0.397406 0.636695 0.402719 0.642007 0.397406 0.642007 0.410156 0.604868 0.415469 0.604868 0.415469 0.616459 0.410156 0.604868 0.415469 0.616459 0.410156 0.616459 0.550406 0.585743 0.555719 0.585743 0.555719 0.597334 0.550406 0.585743 0.555719 0.597334 0.550406 0.597334 0.227985 0.597601 0.227985 0.55948 0.222268 0.55948 0.227985 0.597601 0.222268 0.55948 0.222268 0.597601 0.146337 0.394938 0.146337 0.357869 0.149464 0.357869 0.146337 0.394938 0.149464 0.357869 0.149464 0.394938 0.217009 0.832425 0.217009 0.892782 0.211992 0.892782 0.217009 0.832425 0.211992 0.892782 0.211992 0.832425 0.223658 0.893533 0.223599 0.833179 0.223847 0.833179 0.230661 0.833179 0.230661 0.893536 0.225644 0.893536 0.230661 0.833179 0.225644 0.893536 0.225644 0.833179 0.223847 0.833179 0.223599 0.833179 0.225306 0.833179 0.215633 0.597601 0.215633 0.55948 0.209915 0.55948 0.215633 0.597601 0.209915 0.55948 0.209915 0.597601 0.139262 0.394938 0.139262 0.357869 0.142389 0.357869 0.139262 0.394938 0.142389 0.357869 0.142389 0.394938</float_array>
                    <technique_common>
                        <accessor count="552" source="#shape0-lib-map-array" stride="2">
                            <param name="U" type="float"/>
                            <param name="V" type="float"/>
                        </accessor>
                    </technique_common>
                </source>
                <vertices id="shape0-lib-vertices">
                    <input semantic="POSITION" source="#shape0-lib-positions"/>
                </vertices>
                <triangles count="184" material="material0">
                    <input offset="0" semantic="VERTEX" source="#shape0-lib-vertices"/>
                    <input offset="1" semantic="COLOR" source="#shape0-lib-vcolor"/>
                    <input offset="2" semantic="NORMAL" source="#shape0-lib-normals"/>
                    <input offset="3" semantic="TEXCOORD" source="#shape0-lib-map"/>
                    <p>15 15 0 0 0 0 0 1 14 14 0 2 8 8 1 3 3 3 1 4 9 9 1 5 10 10 2 6 4 4 2 7 5 5 2 8 10 10 3 9 5 5 3 10 11 11 3 11 12 12 4 12 11 11 4 13 13 13 4 14 11 11 5 15 5 5 5 16 6 6 5 17 11 11 6 18 6 6 6 19 13 13 6 20 14 14 7 21 0 0 7 22 3 3 7 23 14 14 8 24 3 3 8 25 8 8 8 26 9 9 9 27 3 3 9 28 0 0 9 29 9 9 10 30 0 0 10 31 15 15 10 32 9 9 11 33 15 15 11 34 14 14 11 35 9 9 12 36 14 14 12 37 8 8 12 38 4 4 13 39 1 1 13 40 7 7 13 41 4 4 14 42 7 7 14 43 5 5 14 44 11 11 15 45 18 18 15 46 17 17 15 47 16 16 16 48 1 1 16 49 4 4 16 50 16 16 17 51 4 4 17 52 10 10 17 53 11 11 18 54 5 5 18 55 7 7 18 56 11 11 19 57 7 7 19 58 18 18 19 59 11 11 20 60 17 17 20 61 16 16 20 62 11 11 21 63 16 16 21 64 10 10 21 65 5 5 22 66 7 7 22 67 2 2 22 68 5 5 23 69 2 2 23 70 6 6 23 71 18 18 24 72 11 11 24 73 12 12 24 74 13 13 25 75 6 6 25 76 2 2 25 77 13 13 26 78 2 2 26 79 19 19 26 80 13 13 27 81 19 19 27 82 18 18 27 83 13 13 28 84 18 18 28 85 12 12 28 86 17 17 29 87 18 18 29 88 16 16 29 89 18 18 30 90 7 7 30 91 1 1 30 92 18 18 31 93 1 1 31 94 16 16 31 95 19 19 32 96 2 2 32 97 7 7 32 98 19 19 33 99 7 7 33 100 18 18 33 101 22 22 34 102 23 23 34 103 24 24 34 104 22 22 35 105 24 24 35 106 21 21 35 107 29 29 36 108 26 26 36 109 25 25 36 110 29 29 37 111 25 25 37 112 28 28 37 113 29 29 38 114 28 28 38 115 30 30 38 116 29 29 39 117 30 30 39 118 27 27 39 119 31 31 40 120 32 32 40 121 33 33 40 122 31 31 41 123 33 33 41 124 34 34 41 125 36 36 42 126 32 32 42 127 31 31 42 128 36 36 43 129 31 31 43 130 35 35 43 131 38 38 44 132 34 34 44 133 33 33 44 134 38 38 45 135 33 33 45 136 37 37 45 137 38 38 46 138 37 37 46 139 36 36 46 140 38 38 47 141 36 36 47 142 35 35 47 143 39 39 48 144 40 40 48 145 41 41 48 146 39 39 49 147 41 41 49 148 42 42 49 149 44 44 50 150 40 40 50 151 39 39 50 152 44 44 51 153 39 39 51 154 43 43 51 155 46 46 52 156 42 42 52 157 41 41 52 158 46 46 53 159 41 41 53 160 45 45 53 161 46 46 54 162 45 45 54 163 44 44 54 164 46 46 55 165 44 44 55 166 43 43 55 167 21 21 56 168 20 20 56 169 22 22 56 170 27 27 57 171 26 26 57 172 29 29 57 173 37 37 58 174 33 33 58 175 32 32 58 176 37 37 59 177 32 32 59 178 36 36 59 179 35 35 60 180 31 31 60 181 34 34 60 182 35 35 61 183 34 34 61 184 38 38 61 185 40 40 62 186 44 44 62 187 45 45 62 188 40 40 63 189 45 45 63 190 41 41 63 191 43 43 64 192 39 39 64 193 42 42 64 194 43 43 65 195 42 42 65 196 46 46 65 197 50 50 66 198 47 47 66 199 48 48 66 200 50 50 67 201 48 48 67 202 49 49 67 203 51 51 68 204 52 52 68 205 50 50 68 206 51 51 69 207 50 50 69 208 49 49 69 209 58 58 70 210 55 55 70 211 54 54 70 212 58 58 71 213 54 54 71 214 57 57 71 215 58 58 72 216 57 57 72 217 59 59 72 218 58 58 73 219 59 59 73 220 56 56 73 221 60 60 74 222 61 61 74 223 62 62 74 224 60 60 75 225 62 62 75 226 63 63 75 227 65 65 76 228 61 61 76 229 60 60 76 230 65 65 77 231 60 60 77 232 64 64 77 233 67 67 78 234 63 63 78 235 62 62 78 236 67 67 79 237 62 62 79 238 66 66 79 239 67 67 80 240 66 66 80 241 65 65 80 242 67 67 81 243 65 65 81 244 64 64 81 245 68 68 82 246 69 69 82 247 70 70 82 248 68 68 83 249 70 70 83 250 71 71 83 251 73 73 84 252 69 69 84 253 68 68 84 254 73 73 85 255 68 68 85 256 72 72 85 257 75 75 86 258 71 71 86 259 70 70 86 260 75 75 87 261 70 70 87 262 74 74 87 263 75 75 88 264 74 74 88 265 73 73 88 266 75 75 89 267 73 73 89 268 72 72 89 269 76 76 90 270 77 77 90 271 78 78 90 272 76 76 91 273 78 78 91 274 79 79 91 275 81 81 92 276 77 77 92 277 76 76 92 278 81 81 93 279 76 76 93 280 80 80 93 281 83 83 94 282 79 79 94 283 78 78 94 284 83 83 95 285 78 78 95 286 82 82 95 287 83 83 96 288 82 82 96 289 81 81 96 290 83 83 97 291 81 81 97 292 80 80 97 293 87 87 98 294 84 84 98 295 85 85 98 296 87 87 99 297 85 85 99 298 86 86 99 299 21 21 100 300 89 89 100 301 87 87 100 302 21 21 101 303 87 87 101 304 86 86 101 305 49 49 102 306 48 48 102 307 51 51 102 308 56 56 103 309 53 53 103 310 55 55 103 311 56 56 104 312 55 55 104 313 58 58 104 314 66 66 105 315 62 62 105 316 61 61 105 317 66 66 106 318 61 61 106 319 65 65 106 320 64 64 107 321 60 60 107 322 63 63 107 323 64 64 108 324 63 63 108 325 67 67 108 326 69 69 109 327 73 73 109 328 74 74 109 329 69 69 110 330 74 74 110 331 70 70 110 332 72 72 111 333 68 68 111 334 71 71 111 335 72 72 112 336 71 71 112 337 75 75 112 338 82 82 113 339 78 78 113 340 77 77 113 341 82 82 114 342 77 77 114 343 81 81 114 344 80 80 115 345 76 76 115 346 79 79 115 347 80 80 116 348 79 79 116 349 83 83 116 350 86 86 117 351 85 85 117 352 88 88 117 353 20 20 118 354 92 92 118 355 93 93 118 356 22 22 119 357 95 95 119 358 23 23 119 359 94 94 120 360 21 21 120 361 24 24 120 362 94 94 121 363 92 92 121 364 20 20 121 365 94 94 122 366 20 20 122 367 21 21 122 368 22 22 123 369 20 20 123 370 93 93 123 371 22 22 124 372 93 93 124 373 95 95 124 374 26 26 125 375 93 93 125 376 25 25 125 377 95 95 126 378 27 27 126 379 30 30 126 380 95 95 127 381 93 93 127 382 26 26 127 383 95 95 128 384 26 26 128 385 27 27 128 386 23 23 129 387 95 95 129 388 94 94 129 389 23 23 130 390 94 94 130 391 24 24 130 392 95 95 131 393 93 93 131 394 92 92 131 395 95 95 132 396 92 92 132 397 94 94 132 398 28 28 133 399 95 95 133 400 30 30 133 401 28 28 134 402 25 25 134 403 93 93 134 404 28 28 135 405 93 93 135 406 95 95 135 407 48 48 136 408 47 47 136 409 90 90 136 410 51 51 137 411 91 91 137 412 52 52 137 413 51 51 138 414 48 48 138 415 90 90 138 416 51 51 139 417 90 90 139 418 91 91 139 419 53 53 140 420 90 90 140 421 54 54 140 422 53 53 141 423 54 54 141 424 55 55 141 425 91 91 142 426 56 56 142 427 59 59 142 428 91 91 143 429 90 90 143 430 53 53 143 431 91 91 144 432 53 53 144 433 56 56 144 434 85 85 145 435 84 84 145 436 92 92 145 437 88 88 146 438 94 94 146 439 89 89 146 440 88 88 147 441 89 89 147 442 21 21 147 443 88 88 148 444 85 85 148 445 92 92 148 446 88 88 149 447 92 92 149 448 94 94 149 449 52 52 150 450 91 91 150 451 50 50 150 452 91 91 151 453 90 90 151 454 47 47 151 455 91 91 152 456 47 47 152 457 50 50 152 458 57 57 153 459 91 91 153 460 59 59 153 461 57 57 154 462 54 54 154 463 90 90 154 464 57 57 155 465 90 90 155 466 91 91 155 467 89 89 156 468 94 94 156 469 87 87 156 470 94 94 157 471 92 92 157 472 84 84 157 473 94 94 158 474 84 84 158 475 87 87 158 476 86 86 159 477 88 88 159 478 21 21 159 479 100 100 160 480 101 101 160 481 96 96 160 482 100 100 161 483 96 96 161 484 97 97 161 485 98 98 162 486 99 99 162 487 101 101 162 488 98 98 163 489 101 101 163 490 100 100 163 491 102 102 164 492 97 97 164 493 96 96 164 494 102 102 165 495 96 96 165 496 106 106 165 497 103 103 166 498 98 98 166 499 99 99 166 500 103 103 167 501 99 99 167 502 107 107 167 503 105 105 168 504 100 100 168 505 101 101 168 506 105 105 169 507 101 101 169 508 108 108 169 509 106 106 170 510 96 96 170 511 101 101 170 512 106 106 171 513 101 101 171 514 108 108 171 515 105 105 172 516 100 100 172 517 97 97 172 518 105 105 173 519 97 97 173 520 102 102 173 521 105 105 174 522 108 108 174 523 107 107 174 524 105 105 175 525 107 107 175 526 103 103 175 527 108 108 176 528 105 105 176 529 104 104 176 530 102 102 177 531 106 106 177 532 108 108 177 533 102 102 178 534 108 108 178 535 104 104 178 536 104 104 179 537 105 105 179 538 102 102 179 539 108 108 180 540 101 101 180 541 99 99 180 542 108 108 181 543 99 99 181 544 107 107 181 545 103 103 182 546 98 98 182 547 100 100 182 548 103 103 183 549 100 100 183 550 105 105 183 551</p>
                </triangles>
            </mesh>
        </geometry>
    </library_geometries>
    <library_visual_scenes>
        <visual_scene id="VisualSceneNode" name="VisualScene">
            <node id="node" name="node">
                <instance_geometry url="#shape0-lib">
                    <bind_material>
                        <technique_common>
                            <instance_material symbol="material0" target="#material0">
                                <bind_vertex_input semantic="UVSET0" input_semantic="TEXCOORD"/>
                            </instance_material>
                        </technique_common>
                    </bind_material>
                </instance_geometry>
            </node>
        </visual_scene>
    </library_visual_scenes>
    <scene>
        <instance_visual_scene url="#VisualSceneNode"/>
    </scene>
</COLLADA>
