<?xml version="1.0" encoding="UTF-8"?>
<COLLADA xmlns="http://www.collada.org/2005/11/COLLADASchema" version="1.4.1">
    <asset>
        <contributor>
            <author>VCGLab</author>
            <authoring_tool>VCGLib | MeshLab</authoring_tool>
        </contributor>
        <created>Thu Jul 3 02:10:54 2025 GMT</created>
        <modified>Thu Jul 3 02:10:54 2025 GMT</modified>
        <up_axis>Y_UP</up_axis>
    </asset>
    <library_images>
        <image id="texture0" name="texture0">
            <init_from>./image/shelf_books.png</init_from>
        </image>
    </library_images>
    <library_materials>
        <material id="material0" name="material0">
            <instance_effect url="#material0-fx"/>
        </material>
    </library_materials>
    <library_effects>
        <effect id="material0-fx">
            <profile_COMMON>
                <newparam sid="texture0-surface">
                    <surface type="2D">
                        <init_from>texture0</init_from>
                        <format>R8G8B8</format>
                    </surface>
                </newparam>
                <newparam sid="texture0-sampler">
                    <sampler2D>
                        <source>texture0-surface</source>
                        <minfilter>LINEAR</minfilter>
                        <magfilter>LINEAR</magfilter>
                    </sampler2D>
                </newparam>
                <technique sid="common">
                    <blinn>
                        <diffuse>
                            <texture texture="texture0-sampler" texcoord="UVSET0"/>
                        </diffuse>
                    </blinn>
                </technique>
            </profile_COMMON>
        </effect>
    </library_effects>
    <library_geometries>
        <geometry id="shape0-lib" name="shape0">
            <mesh>
                <source id="shape0-lib-positions" name="position">
                    <float_array id="shape0-lib-positions-array" count="108">-0.0867393 0.0969767 -0.0532915 0.0850541 0.0973068 -0.0532915 0.0849816 0.0750874 -0.0532915 -0.0868118 0.0747574 -0.0532915 -0.0867418 0.0962425 0.0664779 0.0850521 0.0967106 0.0664297 0.084984 0.0758218 0.0664779 -0.0868118 0.0747574 0.0638915 -0.0868076 0.0760316 0.0668145 -0.0868199 0.0722886 -0.0532915 0.0849735 0.0726187 -0.0532915 0.0849008 0.0503994 -0.0532915 -0.0868926 0.0500693 -0.0532915 -0.0868225 0.0715544 0.0664779 0.0849735 0.0726187 0.0638915 0.0849033 0.0511336 0.0664779 -0.0868906 0.0506655 0.0664297 0.084969 0.0713445 0.0668145 -0.0869007 0.0476006 -0.0532915 0.0848927 0.0479306 -0.0532915 0.0848199 0.0257113 -0.0532915 -0.0869732 0.0253813 -0.0532915 -0.0869032 0.0468663 0.0664779 0.0848907 0.0473343 0.0664297 0.0848225 0.0264456 0.0664779 -0.0869732 0.0253813 0.0638915 -0.0869691 0.0266552 0.0668145 -0.0869813 0.0229125 -0.0532915 0.0848121 0.0232424 -0.0532915 0.0847394 0.00102314 -0.0532915 -0.087054 0.000693165 -0.0532915 -0.0870077 0.0221623 0.0665125 0.0848099 0.0226462 0.0664298 0.084742 0.00183456 0.0666832 -0.087054 0.000693165 0.0638915 -0.0878167 0.00229195 0.0668631</float_array>
                    <technique_common>
                        <accessor count="36" source="#shape0-lib-positions-array" stride="3">
                            <param name="X" type="float"/>
                            <param name="Y" type="float"/>
                            <param name="Z" type="float"/>
                        </accessor>
                    </technique_common>
                </source>
                <source id="shape0-lib-normals" name="normal">
                    <float_array id="shape0-lib-normals-array" count="168">0 0 -1 0 0 -1 -0.000336465 -0.916691 0.399596 -0.0019215 0.999986 0.00498013 -0.00272281 0.999978 0.00612994 0.00192091 -0.999998 0 0.006103 -0.999963 0.00613115 0.0019626 0.00229738 0.999995 0.000234972 0.0166529 0.999861 0 0 -1 0 0 -1 0.000337098 0.916688 0.399603 -0.00192148 0.999998 0 -0.0061025 0.999963 0.00612959 0.00192148 -0.999986 0.00498023 0.00272262 -0.999978 0.00612979 -0.000234885 -0.016654 0.999861 -0.00196255 -0.00229809 0.999995 0 0 -1 0 0 -1 -0.000335797 -0.91672 0.399529 -0.00192087 0.999986 0.00498045 -0.00272279 0.999978 0.00613113 0.00192091 -0.999998 0 0.00610259 -0.999963 0.00613055 0.00196212 0.00230059 0.999995 0.000234708 0.0166543 0.999861 0 0 -1 0 0 -1 -0.0019203 0.999986 0.00497994 -0.00281291 0.999976 0.00626076 0.00192076 -0.999998 0 0.0065337 -0.999956 0.00676281 0.00107427 0.0121733 0.999925 0.00043159 0.0176223 0.999845 0.999995 -0.00326297 -2.38764e-08 0.999995 -0.00325931 6.32847e-07 -0.999995 0.00325585 2.34226e-05 -0.999995 0.00326298 -7.74736e-07 -0.999995 0.00325866 0 0.999995 -0.00326768 0 0.999995 -0.00327204 -7.81948e-07 0.999995 -0.00325435 0.000110702 -0.999995 0.0032717 -1.84164e-06 -0.999995 0.0032568 8.31731e-07 0.999995 -0.0032764 -1.99632e-06 0.999995 -0.00326431 1.71293e-07 -0.999995 0.0032598 -3.49813e-06 -0.999995 0.00326265 -5.86313e-07 -0.999995 0.00325938 0 0.999995 -0.00327171 2.05745e-07 0.999995 -0.00326242 1.86264e-06 -0.999995 0.00327203 -0.000200098 -0.999998 0.00215544 0 -0.00184139 -0.880825 0.473438 -0.963396 0.0345318 -0.265849</float_array>
                    <technique_common>
                        <accessor count="56" source="#shape0-lib-normals-array" stride="3">
                            <param name="X" type="float"/>
                            <param name="Y" type="float"/>
                            <param name="Z" type="float"/>
                        </accessor>
                    </technique_common>
                </source>
                <source id="shape0-lib-vcolor" name="vcolor">
                    <float_array id="shape0-lib-vcolor-array" count="144">1 1 1 1 1 1 1 1 1 1 1 1 1 1 1 1 1 1 1 1 1 1 1 1 1 1 1 1 1 1 1 1 1 1 1 1 1 1 1 1 1 1 1 1 1 1 1 1 1 1 1 1 1 1 1 1 1 1 1 1 1 1 1 1 1 1 1 1 1 1 1 1 1 1 1 1 1 1 1 1 1 1 1 1 1 1 1 1 1 1 1 1 1 1 1 1 1 1 1 1 1 1 1 1 1 1 1 1 1 1 1 1 1 1 1 1 1 1 1 1 1 1 1 1 1 1 1 1 1 1 1 1 1 1 1 1 1 1 1 1 1 1 1 1</float_array>
                    <technique_common>
                        <accessor count="36" source="#shape0-lib-vcolor-array" stride="4">
                            <param name="R" type="float"/>
                            <param name="G" type="float"/>
                            <param name="B" type="float"/>
                            <param name="A" type="float"/>
                        </accessor>
                    </technique_common>
                </source>
                <source id="shape0-lib-map" name="map">
                    <float_array id="shape0-lib-map-array" count="336">0.461054 0.340611 0.485907 0.340659 0.485897 0.337411 0.461054 0.340611 0.485897 0.337411 0.461043 0.337363 0.502313 0.800423 0.574575 0.800949 0.502315 0.801005 0.435704 0.565507 0.435704 0.560195 0.447295 0.560195 0.435704 0.565507 0.447295 0.560195 0.447295 0.565507 0.448455 0.565507 0.448455 0.560195 0.460045 0.560195 0.448455 0.565507 0.460045 0.560195 0.460045 0.565507 0.502315 0.801005 0.574575 0.800949 0.574604 0.809582 0.502315 0.801005 0.574604 0.809582 0.502342 0.809365 0.461042 0.337002 0.485895 0.337051 0.485885 0.333803 0.461042 0.337002 0.485885 0.333803 0.461031 0.333755 0.574571 0.799525 0.502308 0.799 0.574569 0.798943 0.384705 0.565507 0.384705 0.560195 0.396295 0.560195 0.384705 0.565507 0.396295 0.560195 0.396295 0.565507 0.410205 0.565507 0.410205 0.560195 0.421795 0.560195 0.410205 0.565507 0.421795 0.560195 0.421795 0.565507 0.50228 0.790367 0.574541 0.790584 0.574569 0.798943 0.50228 0.790367 0.574569 0.798943 0.502308 0.799 0.46103 0.333394 0.485884 0.333442 0.485873 0.330194 0.46103 0.333394 0.485873 0.330194 0.46102 0.330146 0.502245 0.779694 0.574507 0.78022 0.502247 0.780276 0.422954 0.559132 0.422954 0.55382 0.434545 0.55382 0.422954 0.559132 0.434545 0.55382 0.434545 0.559132 0.397454 0.571882 0.397454 0.56657 0.409045 0.56657 0.397454 0.571882 0.409045 0.56657 0.409045 0.571882 0.502247 0.780276 0.574507 0.78022 0.574536 0.788853 0.502247 0.780276 0.574536 0.788853 0.502274 0.788635 0.461019 0.329785 0.485872 0.329833 0.485862 0.326586 0.461019 0.329785 0.485862 0.326586 0.461008 0.326537 0.397454 0.565507 0.397454 0.560195 0.409045 0.560195 0.397454 0.565507 0.409045 0.560195 0.409045 0.565507 0.397454 0.559132 0.397454 0.55382 0.409045 0.55382 0.397454 0.559132 0.409045 0.55382 0.409045 0.559132 0.502173 0.769944 0.574508 0.770022 0.574502 0.778488 0.502173 0.769944 0.574502 0.778488 0.502237 0.778268 0.684571 0.679624 0.643484 0.679384 0.643484 0.685512 0.684571 0.679624 0.643484 0.685512 0.684554 0.685295 0.681384 0.860918 0.68056 0.855029 0.681564 0.855433 0.681384 0.860918 0.640297 0.861158 0.640297 0.855029 0.681384 0.860918 0.640297 0.855029 0.68056 0.855029 0.643484 0.678703 0.683748 0.678703 0.684571 0.672815 0.643484 0.678703 0.684571 0.672815 0.643484 0.672575 0.683748 0.678703 0.684751 0.6783 0.684571 0.672815 0.681384 0.854109 0.640297 0.854349 0.640297 0.848221 0.681384 0.854109 0.640297 0.848221 0.681367 0.848438 0.684571 0.666006 0.643484 0.665766 0.643484 0.671894 0.684571 0.666006 0.643484 0.671894 0.684554 0.671677 0.681384 0.8473 0.68056 0.841412 0.681564 0.841815 0.681384 0.8473 0.640297 0.84754 0.640297 0.841412 0.681384 0.8473 0.640297 0.841412 0.68056 0.841412 0.684596 0.659255 0.643484 0.658957 0.643484 0.665086 0.684596 0.659255 0.643484 0.665086 0.684554 0.664869 0.681403 0.840485 0.640297 0.840731 0.640297 0.834603 0.681403 0.840485 0.640297 0.834603 0.68056 0.834603 0.502211 0.769329 0.574508 0.770022 0.502173 0.769944 0.681403 0.840485 0.68056 0.834603 0.681548 0.835026</float_array>
                    <technique_common>
                        <accessor count="168" source="#shape0-lib-map-array" stride="2">
                            <param name="U" type="float"/>
                            <param name="V" type="float"/>
                        </accessor>
                    </technique_common>
                </source>
                <vertices id="shape0-lib-vertices">
                    <input semantic="POSITION" source="#shape0-lib-positions"/>
                </vertices>
                <triangles count="56" material="material0">
                    <input offset="0" semantic="VERTEX" source="#shape0-lib-vertices"/>
                    <input offset="1" semantic="COLOR" source="#shape0-lib-vcolor"/>
                    <input offset="2" semantic="NORMAL" source="#shape0-lib-normals"/>
                    <input offset="3" semantic="TEXCOORD" source="#shape0-lib-map"/>
                    <p>0 0 0 0 1 1 0 1 2 2 0 2 0 0 1 3 2 2 1 4 3 3 1 5 7 7 2 6 6 6 2 7 8 8 2 8 5 5 3 9 1 1 3 10 0 0 3 11 5 5 4 12 0 0 4 13 4 4 4 14 7 7 5 15 3 3 5 16 2 2 5 17 7 7 6 18 2 2 6 19 6 6 6 20 8 8 7 21 6 6 7 22 5 5 7 23 8 8 8 24 5 5 8 25 4 4 8 26 9 9 9 27 10 10 9 28 11 11 9 29 9 9 10 30 11 11 10 31 12 12 10 32 14 14 11 33 13 13 11 34 17 17 11 35 14 14 12 36 10 10 12 37 9 9 12 38 14 14 13 39 9 9 13 40 13 13 13 41 16 16 14 42 12 12 14 43 11 11 14 44 16 16 15 45 11 11 15 46 15 15 15 47 16 16 16 48 15 15 16 49 17 17 16 50 16 16 17 51 17 17 17 52 13 13 17 53 18 18 18 54 19 19 18 55 20 20 18 56 18 18 19 57 20 20 19 58 21 21 19 59 25 25 20 60 24 24 20 61 26 26 20 62 23 23 21 63 19 19 21 64 18 18 21 65 23 23 22 66 18 18 22 67 22 22 22 68 25 25 23 69 21 21 23 70 20 20 23 71 25 25 24 72 20 20 24 73 24 24 24 74 26 26 25 75 24 24 25 76 23 23 25 77 26 26 26 78 23 23 26 79 22 22 26 80 27 27 27 81 28 28 27 82 29 29 27 83 27 27 28 84 29 29 28 85 30 30 28 86 32 32 29 87 28 28 29 88 27 27 29 89 32 32 30 90 27 27 30 91 31 31 30 92 34 34 31 93 30 30 31 94 29 29 31 95 34 34 32 96 29 29 32 97 33 33 32 98 35 35 33 99 33 33 33 100 32 32 33 101 35 35 34 102 32 32 34 103 31 31 34 104 6 6 35 105 2 2 35 106 1 1 35 107 6 6 36 108 1 1 36 109 5 5 36 110 4 4 37 111 7 7 37 112 8 8 37 113 4 4 38 114 0 0 38 115 3 3 38 116 4 4 39 117 3 3 39 118 7 7 39 119 10 10 40 120 14 14 40 121 15 15 40 122 10 10 41 123 15 15 41 124 11 11 41 125 14 14 42 126 17 17 42 127 15 15 42 128 13 13 43 129 9 9 43 130 12 12 43 131 13 13 44 132 12 12 44 133 16 16 44 134 24 24 45 135 20 20 45 136 19 19 45 137 24 24 46 138 19 19 46 139 23 23 46 140 22 22 47 141 25 25 47 142 26 26 47 143 22 22 48 144 18 18 48 145 21 21 48 146 22 22 49 147 21 21 49 148 25 25 49 149 33 33 50 150 29 29 50 151 28 28 50 152 33 33 51 153 28 28 51 154 32 32 51 155 31 31 52 156 27 27 52 157 30 30 52 158 31 31 53 159 30 30 53 160 34 34 53 161 34 34 54 162 33 33 54 163 35 35 54 164 31 31 55 165 34 34 55 166 35 35 55 167</p>
                </triangles>
            </mesh>
        </geometry>
    </library_geometries>
    <library_visual_scenes>
        <visual_scene id="VisualSceneNode" name="VisualScene">
            <node id="node" name="node">
                <instance_geometry url="#shape0-lib">
                    <bind_material>
                        <technique_common>
                            <instance_material symbol="material0" target="#material0">
                                <bind_vertex_input semantic="UVSET0" input_semantic="TEXCOORD"/>
                            </instance_material>
                        </technique_common>
                    </bind_material>
                </instance_geometry>
            </node>
        </visual_scene>
    </library_visual_scenes>
    <scene>
        <instance_visual_scene url="#VisualSceneNode"/>
    </scene>
</COLLADA>
