<?xml version="1.0" encoding="UTF-8"?>
<COLLADA xmlns="http://www.collada.org/2005/11/COLLADASchema" version="1.4.1">
    <asset>
        <contributor>
            <author>VCGLab</author>
            <authoring_tool>VCGLib | MeshLab</authoring_tool>
        </contributor>
        <created>Thu Jul 3 02:07:30 2025 GMT</created>
        <modified>Thu Jul 3 02:07:30 2025 GMT</modified>
        <up_axis>Y_UP</up_axis>
    </asset>
    <library_images>
        <image id="texture0" name="texture0">
            <init_from>./image/shelf_books.png</init_from>
        </image>
    </library_images>
    <library_materials>
        <material id="material0" name="material0">
            <instance_effect url="#material0-fx"/>
        </material>
    </library_materials>
    <library_effects>
        <effect id="material0-fx">
            <profile_COMMON>
                <newparam sid="texture0-surface">
                    <surface type="2D">
                        <init_from>texture0</init_from>
                        <format>R8G8B8</format>
                    </surface>
                </newparam>
                <newparam sid="texture0-sampler">
                    <sampler2D>
                        <source>texture0-surface</source>
                        <minfilter>LINEAR</minfilter>
                        <magfilter>LINEAR</magfilter>
                    </sampler2D>
                </newparam>
                <technique sid="common">
                    <blinn>
                        <diffuse>
                            <texture texture="texture0-sampler" texcoord="UVSET0"/>
                        </diffuse>
                    </blinn>
                </technique>
            </profile_COMMON>
        </effect>
    </library_effects>
    <library_geometries>
        <geometry id="shape0-lib" name="shape0">
            <mesh>
                <source id="shape0-lib-positions" name="position">
                    <float_array id="shape0-lib-positions-array" count="57">-0.164664 0.00492911 0.13239 -0.164667 0.023177 0.132509 0.168193 0.00039008 0.142272 0.168183 0.0271912 0.142651 -0.164681 0.000292004 0.133067 -0.164668 0.0279938 0.13256 0.174943 0.0272704 -0.115563 -0.157943 0.0254432 -0.12428 0.174943 0.00197892 -0.115563 -0.157943 0.00140873 -0.12428 0.168274 0.00408342 0.139114 0.168267 0.0237903 0.139371 0.171067 0.022988 -0.113405 -0.160813 0.00566085 0.131106 0.164428 0.019945 0.140183 0.164489 0.00436979 0.137846 -0.160811 0.0227371 0.131054 -0.15421 0.0102164 -0.121002 0.171075 0.0050258 -0.113714</float_array>
                    <technique_common>
                        <accessor count="19" source="#shape0-lib-positions-array" stride="3">
                            <param name="X" type="float"/>
                            <param name="Y" type="float"/>
                            <param name="Z" type="float"/>
                        </accessor>
                    </technique_common>
                </source>
                <source id="shape0-lib-normals" name="normal">
                    <float_array id="shape0-lib-normals-array" count="90">-0.0273942 0.144478 0.989129 -0.0303244 -0.010638 0.999484 0.000414326 -0.999991 -0.00432849 0.00187293 -0.99998 -0.0061131 -0.030375 -0.00652578 0.999517 -0.0298638 -0.0141399 0.999454 -0.00522504 0.999936 -0.0100669 0.00240027 0.999997 0.000369826 -0.00149542 0.999964 -0.00830226 0.00281529 0.999903 -0.0136405 0.0202222 0.0130488 -0.99971 0.020593 0.00652573 -0.999767 0.00202285 -0.99996 -0.00877173 0.00584183 -0.999892 -0.0134965 -0.0210744 -0.148453 0.988695 -0.00359182 -0.999829 -0.0181609 -0.0158873 -0.999869 -0.00302337 -0.0380039 0.997997 -0.05057 0.00824095 0.999891 0.012214 0.0226702 0.0171754 -0.999595 -0.999657 6.07334e-08 -0.0261806 -0.0280318 0.00303074 0.999602 0.999657 -1.24142e-05 0.0261741 -0.999657 -0.00029343 -0.0261738 -0.999657 0.000133132 -0.0261759 0.999657 -0.000481985 0.0261704 0.999667 -1.4644e-05 0.0258044 0.999671 6.85816e-06 0.025664 0.999657 0.000301405 0.0261738 0.999657 1.17871e-05 0.0261726</float_array>
                    <technique_common>
                        <accessor count="30" source="#shape0-lib-normals-array" stride="3">
                            <param name="X" type="float"/>
                            <param name="Y" type="float"/>
                            <param name="Z" type="float"/>
                        </accessor>
                    </technique_common>
                </source>
                <source id="shape0-lib-vcolor" name="vcolor">
                    <float_array id="shape0-lib-vcolor-array" count="76">1 1 1 1 1 1 1 1 1 1 1 1 1 1 1 1 1 1 1 1 1 1 1 1 1 1 1 1 1 1 1 1 1 1 1 1 1 1 1 1 1 1 1 1 1 1 1 1 1 1 1 1 1 1 1 1 1 1 1 1 1 1 1 1 1 1 1 1 1 1 1 1 1 1 1 1</float_array>
                    <technique_common>
                        <accessor count="19" source="#shape0-lib-vcolor-array" stride="4">
                            <param name="R" type="float"/>
                            <param name="G" type="float"/>
                            <param name="B" type="float"/>
                            <param name="A" type="float"/>
                        </accessor>
                    </technique_common>
                </source>
                <source id="shape0-lib-map" name="map">
                    <float_array id="shape0-lib-map-array" count="180">0.96784 0.942845 0.717581 0.945573 0.717612 0.942079 0.967837 0.968109 0.717615 0.969142 0.717581 0.965537 0.880514 0.595243 0.848673 0.594738 0.849099 0.572538 0.880514 0.595243 0.849099 0.572538 0.88094 0.573043 0.967837 0.968109 0.717581 0.965537 0.717581 0.945573 0.967837 0.968109 0.717581 0.945573 0.96784 0.942845 0.916433 0.573043 0.948274 0.572538 0.9487 0.594738 0.916433 0.573043 0.9487 0.594738 0.916859 0.595243 0.882974 0.619462 0.882553 0.597269 0.914399 0.596757 0.882974 0.619462 0.914399 0.596757 0.91482 0.61895 0.741448 0.241437 0.741449 0.237085 0.675111 0.237117 0.741448 0.241437 0.675111 0.237117 0.675111 0.241421 0.948279 0.619462 0.916433 0.61895 0.916854 0.596757 0.948279 0.619462 0.916854 0.596757 0.9487 0.597269 0.746161 0.177228 0.680882 0.174079 0.746171 0.173701 0.745935 0.331612 0.725381 0.331288 0.725657 0.317015 0.745935 0.331612 0.725657 0.317015 0.746211 0.317339 0.682055 0.332665 0.702609 0.332342 0.702885 0.346615 0.682055 0.332665 0.702885 0.346615 0.682331 0.346938 0.934382 0.532765 0.934383 0.526029 0.822786 0.528967 0.932008 0.317355 0.931879 0.323687 0.822432 0.319451 0.746161 0.177228 0.680883 0.178036 0.680882 0.174079 0.937508 0.427402 0.827487 0.421625 0.827649 0.428974 0.590565 0.485842 0.666993 0.485289 0.666753 0.487395 0.666882 0.498083 0.590565 0.497143 0.666779 0.495918 0.74757 0.481602 0.670888 0.481651 0.671857 0.480079 0.670888 0.481651 0.670971 0.469473 0.671913 0.471141 0.670888 0.481651 0.671913 0.471141 0.671857 0.480079 0.670971 0.469473 0.74757 0.469979 0.671913 0.471141 0.827487 0.421625 0.937508 0.427402 0.93599 0.420898</float_array>
                    <technique_common>
                        <accessor count="90" source="#shape0-lib-map-array" stride="2">
                            <param name="U" type="float"/>
                            <param name="V" type="float"/>
                        </accessor>
                    </technique_common>
                </source>
                <vertices id="shape0-lib-vertices">
                    <input semantic="POSITION" source="#shape0-lib-positions"/>
                </vertices>
                <triangles count="30" material="material0">
                    <input offset="0" semantic="VERTEX" source="#shape0-lib-vertices"/>
                    <input offset="1" semantic="COLOR" source="#shape0-lib-vcolor"/>
                    <input offset="2" semantic="NORMAL" source="#shape0-lib-normals"/>
                    <input offset="3" semantic="TEXCOORD" source="#shape0-lib-map"/>
                    <p>2 2 0 0 0 0 0 1 4 4 0 2 3 3 1 3 5 5 1 4 1 1 1 5 2 2 2 6 4 4 2 7 9 9 2 8 2 2 3 9 9 9 3 10 8 8 3 11 3 3 4 12 1 1 4 13 0 0 4 14 3 3 5 15 0 0 5 16 2 2 5 17 6 6 6 18 7 7 6 19 5 5 6 20 6 6 7 21 5 5 7 22 3 3 7 23 10 10 8 24 8 8 8 25 9 9 8 26 10 10 9 27 9 9 9 28 0 0 9 29 11 11 10 30 10 10 10 31 0 0 10 32 11 11 11 33 0 0 11 34 1 1 11 35 11 11 12 36 1 1 12 37 7 7 12 38 11 11 13 39 7 7 13 40 6 6 13 41 14 14 14 42 13 13 14 43 15 15 14 44 15 15 15 45 13 13 15 46 17 17 15 47 15 15 16 48 17 17 16 49 18 18 16 50 12 12 17 51 17 17 17 52 16 16 17 53 12 12 18 54 16 16 18 55 14 14 18 56 12 12 19 57 18 18 19 58 17 17 19 59 13 13 20 60 16 16 20 61 17 17 20 62 14 14 21 63 16 16 21 64 13 13 21 65 14 14 22 66 18 18 22 67 12 12 22 68 9 9 23 69 4 4 23 70 0 0 23 71 5 5 24 72 7 7 24 73 1 1 24 74 6 6 25 75 3 3 25 76 11 11 25 77 3 3 26 78 2 2 26 79 10 10 26 80 3 3 27 81 10 10 27 82 11 11 27 83 2 2 28 84 8 8 28 85 10 10 28 86 18 18 29 87 14 14 29 88 15 15 29 89</p>
                </triangles>
            </mesh>
        </geometry>
    </library_geometries>
    <library_visual_scenes>
        <visual_scene id="VisualSceneNode" name="VisualScene">
            <node id="node" name="node">
                <instance_geometry url="#shape0-lib">
                    <bind_material>
                        <technique_common>
                            <instance_material symbol="material0" target="#material0">
                                <bind_vertex_input semantic="UVSET0" input_semantic="TEXCOORD"/>
                            </instance_material>
                        </technique_common>
                    </bind_material>
                </instance_geometry>
            </node>
        </visual_scene>
    </library_visual_scenes>
    <scene>
        <instance_visual_scene url="#VisualSceneNode"/>
    </scene>
</COLLADA>
