<?xml version="1.0" encoding="UTF-8"?>
<COLLADA xmlns="http://www.collada.org/2005/11/COLLADASchema" version="1.4.1">
    <asset>
        <contributor>
            <author>VCGLab</author>
            <authoring_tool>VCGLib | MeshLab</authoring_tool>
        </contributor>
        <created>Thu Jul 3 01:50:07 2025 GMT</created>
        <modified>Thu Jul 3 01:50:07 2025 GMT</modified>
        <up_axis>Y_UP</up_axis>
    </asset>
    <library_images>
        <image id="texture0" name="texture0">
            <init_from>./image/shelf_books.png</init_from>
        </image>
    </library_images>
    <library_materials>
        <material id="material0" name="material0">
            <instance_effect url="#material0-fx"/>
        </material>
    </library_materials>
    <library_effects>
        <effect id="material0-fx">
            <profile_COMMON>
                <newparam sid="texture0-surface">
                    <surface type="2D">
                        <init_from>texture0</init_from>
                        <format>R8G8B8</format>
                    </surface>
                </newparam>
                <newparam sid="texture0-sampler">
                    <sampler2D>
                        <source>texture0-surface</source>
                        <minfilter>LINEAR</minfilter>
                        <magfilter>LINEAR</magfilter>
                    </sampler2D>
                </newparam>
                <technique sid="common">
                    <blinn>
                        <diffuse>
                            <texture texture="texture0-sampler" texcoord="UVSET0"/>
                        </diffuse>
                    </blinn>
                </technique>
            </profile_COMMON>
        </effect>
    </library_effects>
    <library_geometries>
        <geometry id="shape0-lib" name="shape0">
            <mesh>
                <source id="shape0-lib-positions" name="position">
                    <float_array id="shape0-lib-positions-array" count="216">-0.0468939 0.00108088 -0.0542915 -0.0472238 0.214964 -0.0542915 -0.0250045 0.214874 -0.0542915 -0.0246746 0.000990635 -0.0542915 -0.0468939 0.00108088 0.0628915 -0.0472238 0.214964 0.0628915 -0.0250045 0.214874 0.0628915 -0.0246746 0.000990635 0.0628915 -0.0261361 0.214878 0.0657101 -0.0260133 0.000996145 0.0658943 -0.0457623 0.00107618 0.0657101 -0.0458851 0.214958 0.0658943 -0.0209676 0.000769859 -0.0542915 -0.0209676 0.19997 -0.0542915 -0.00147691 0.19997 -0.0542915 -0.00147691 0.000769859 -0.0542915 -0.0204129 0.000769859 0.0653804 -0.0204112 0.19997 0.0655119 -0.00203162 0.19997 0.0653803 -0.00203331 0.000769859 0.0655118 0.000688649 0.00225986 -0.0542915 0.000688649 0.20146 -0.0542915 0.0201792 0.20146 -0.0542915 0.0201792 0.00225986 -0.0542915 0.00124337 0.00225986 0.0653804 0.00124505 0.20146 0.0655118 0.0196246 0.20146 0.0653804 0.0196229 0.00225986 0.0655119 0.022623 0.00176991 -0.0542915 0.022623 0.20097 -0.0542915 0.0421136 0.20097 -0.0542915 0.0421136 0.00176991 -0.0542915 0.0231776 0.00176991 0.0653804 0.0231793 0.20097 0.0655119 0.0415589 0.20097 0.0653804 0.0415572 0.00176991 0.0655119 0.043917 0.00180483 -0.0542582 0.050864 0.200874 -0.0562502 0.0703429 0.200194 -0.0562502 0.0633958 0.00112498 -0.0542582 0.0445131 0.00298109 0.0654076 0.0514618 0.202051 0.0635471 0.0698303 0.201409 0.0634156 0.0628816 0.00234102 0.0655391 0.0657459 0.00445951 -0.0542976 0.0744343 0.203467 -0.0552936 0.0939064 0.202617 -0.0552936 0.0852179 0.00360931 -0.0542976 0.0663261 0.00503287 0.0653727 0.0750164 0.204041 0.0645082 0.0933784 0.203239 0.0643768 0.0846882 0.0042317 0.0655043 -0.0951793 0.00177968 -0.0582915 -0.0951793 0.200979 -0.0582915 -0.0729043 0.200979 -0.0582915 -0.0729043 0.00177968 -0.0582915 -0.0945718 0.00177968 0.0613308 -0.0951793 0.200979 0.0588915 -0.0735118 0.200979 0.0613308 -0.0729043 0.00177968 0.0588915 -0.0742455 0.00177968 0.0618939 -0.0938381 0.200979 0.0618939 -0.0704293 0.00177968 -0.0582915 -0.0704293 0.200979 -0.0582915 -0.0481543 0.200979 -0.0582915 -0.0481543 0.00177968 -0.0582915 -0.0698218 0.00177968 0.0613308 -0.0704293 0.200979 0.0588915 -0.0487618 0.200979 0.0613308 -0.0481543 0.00177968 0.0588915 -0.0494955 0.00177968 0.0618939 -0.0690881 0.200979 0.0618939</float_array>
                    <technique_common>
                        <accessor count="72" source="#shape0-lib-positions-array" stride="3">
                            <param name="X" type="float"/>
                            <param name="Y" type="float"/>
                            <param name="Z" type="float"/>
                        </accessor>
                    </technique_common>
                </source>
                <source id="shape0-lib-normals" name="normal">
                    <float_array id="shape0-lib-normals-array" count="336">0 0 -1 0 0 -1 0.928006 0.00143139 0.372563 0.913345 0.000874941 0.407187 -0.928006 -0.00143139 0.372563 -0.913345 -0.000874964 0.407185 -0.999999 -0.00154243 0 -0.999999 -0.00154243 0 0.999999 0.00154243 0 0.999999 0.00154243 0 0.00933052 0.000866543 0.999956 -0.00933017 -0.00086658 0.999956 0.00405064 0.999992 7.71797e-05 0.00402275 0.999992 0.000285844 0.00405064 0.999992 0 0.00405064 0.999992 0 -0.00406153 -0.999992 -3.69864e-05 -0.00405282 -0.999992 2.81904e-05 -0.00406153 -0.999992 0 -0.00406153 -0.999992 0 0 0 -1 0 0 -1 -0.999989 0 0.00464404 -0.999989 5.41242e-06 0.00463504 0.999989 0 0.00464422 0.999989 -5.42283e-06 0.00463521 0.00715504 0.000659927 0.999974 -0.00715099 -0.000659927 0.999974 0 0 -1 0 0 -1 -0.999989 0 0.00464428 -0.999989 5.40642e-06 0.00463529 0.999989 0 0.0046435 0.999989 -5.44069e-06 0.00463445 0.00715021 0.000659964 0.999974 -0.00715629 -0.000659927 0.999974 0 0 -1 0 0 -1 -0.999989 0 0.00464353 -0.999989 5.42195e-06 0.00463451 0.999989 0 0.00464403 0.999989 -5.41244e-06 0.00463503 0.00715585 0.000659927 0.999974 -0.00715059 -0.000659964 0.999974 0 1 0 0 1 0 0 -1 0 0 -1 0 0 1 0 0 1 0 0 -1 0 0 -1 0 0 1 0 0 1 0 0 -1 0 0 -1 0 -0.000348888 -0.00999389 -0.99995 -0.000348808 -0.0099939 -0.99995 -0.999379 0.0349222 0.00464427 -0.999379 0.0349278 0.00463481 0.999382 -0.0348299 0.00464348 0.999382 -0.0348357 0.00463418 0.0075196 0.0104036 0.999918 -0.00681983 0.00958377 0.999931 -0.000218054 -0.00499526 -0.999988 -0.000218106 -0.00499525 -0.999988 -0.999037 0.0436399 0.00464472 -0.999036 0.0436458 0.00463472 0.999039 -0.0435939 0.00464337 0.999038 -0.0435992 0.00463462 0.00739237 0.00534257 0.999958 -0.00696021 0.00464786 0.999965 0.0348866 0.999341 -0.00999451 0.034881 0.999341 -0.00999364 -0.0348791 -0.999342 0.00999681 -0.034895 -0.999341 0.0099943 0.0436097 0.999036 -0.00499735 0.0436144 0.999036 -0.00499809 -0.0436206 -0.999036 0.004998 -0.0436251 -0.999035 0.00499728 0 0 -1 0 0 -1 0.913042 -0.00220976 0.40786 -0.913042 0.00220976 0.40786 -1 0 0 -0.999983 -0.00298761 0.00507863 1 0 0 0.999983 0.00298761 0.00507863 0.0276921 0.00272371 0.999613 -0.0276921 -0.00272371 0.999613 0 0 -1 0 0 -1 0.913041 -0.00220975 0.407861 -0.913041 0.00220974 0.407862 -1 0 0 -0.999983 -0.00298764 0.00507869 1 0 0 0.999983 0.00298762 0.00507866 0.0276923 0.00272373 0.999613 -0.0276923 -0.00272373 0.999613 0 1 0 0 1 0 0 1 0 0 -1 0 0 -1 0 0 -1 0 0 1 0 0 1 0 0 1 0 0 -1 0 0 -1 0 0 -1 0</float_array>
                    <technique_common>
                        <accessor count="112" source="#shape0-lib-normals-array" stride="3">
                            <param name="X" type="float"/>
                            <param name="Y" type="float"/>
                            <param name="Z" type="float"/>
                        </accessor>
                    </technique_common>
                </source>
                <source id="shape0-lib-vcolor" name="vcolor">
                    <float_array id="shape0-lib-vcolor-array" count="288">1 1 1 1 1 1 1 1 1 1 1 1 1 1 1 1 1 1 1 1 1 1 1 1 1 1 1 1 1 1 1 1 1 1 1 1 1 1 1 1 1 1 1 1 1 1 1 1 1 1 1 1 1 1 1 1 1 1 1 1 1 1 1 1 1 1 1 1 1 1 1 1 1 1 1 1 1 1 1 1 1 1 1 1 1 1 1 1 1 1 1 1 1 1 1 1 1 1 1 1 1 1 1 1 1 1 1 1 1 1 1 1 1 1 1 1 1 1 1 1 1 1 1 1 1 1 1 1 1 1 1 1 1 1 1 1 1 1 1 1 1 1 1 1 1 1 1 1 1 1 1 1 1 1 1 1 1 1 1 1 1 1 1 1 1 1 1 1 1 1 1 1 1 1 1 1 1 1 1 1 1 1 1 1 1 1 1 1 1 1 1 1 1 1 1 1 1 1 1 1 1 1 1 1 1 1 1 1 1 1 1 1 1 1 1 1 1 1 1 1 1 1 1 1 1 1 1 1 1 1 1 1 1 1 1 1 1 1 1 1 1 1 1 1 1 1 1 1 1 1 1 1 1 1 1 1 1 1 1 1 1 1 1 1 1 1 1 1 1 1 1 1 1 1 1 1 1 1 1 1 1 1 1 1 1 1 1 1</float_array>
                    <technique_common>
                        <accessor count="72" source="#shape0-lib-vcolor-array" stride="4">
                            <param name="R" type="float"/>
                            <param name="G" type="float"/>
                            <param name="B" type="float"/>
                            <param name="A" type="float"/>
                        </accessor>
                    </technique_common>
                </source>
                <source id="shape0-lib-map" name="map">
                    <float_array id="shape0-lib-map-array" count="672">0.27607 0.3073 0.276023 0.338563 0.279237 0.33855 0.27607 0.3073 0.279237 0.33855 0.279285 0.307286 0.0516167 0.746035 0.0515031 0.826718 0.0510763 0.82672 0.0516167 0.746035 0.0510763 0.82672 0.0511246 0.746037 0.0438573 0.826752 0.0439708 0.746069 0.0443976 0.746067 0.0438573 0.826752 0.0443976 0.746067 0.0443494 0.82675 0.491969 0.476209 0.486656 0.476209 0.486656 0.464618 0.491969 0.476209 0.486656 0.464618 0.491969 0.464618 0.467531 0.464618 0.472844 0.464618 0.472844 0.476209 0.467531 0.464618 0.472844 0.476209 0.467531 0.476209 0.0511246 0.746037 0.0510763 0.82672 0.0443494 0.82675 0.0511246 0.746037 0.0443494 0.82675 0.0443976 0.746067 0.0510763 0.82672 0.0515031 0.826718 0.0438573 0.826752 0.0510763 0.82672 0.0438573 0.826752 0.0443494 0.82675 0.0918826 0.547615 0.0918826 0.516429 0.0865507 0.516429 0.0918826 0.547615 0.0865507 0.516429 0.0865507 0.547615 0.0443976 0.746067 0.0439708 0.746069 0.0516167 0.746035 0.0443976 0.746067 0.0516167 0.746035 0.0511246 0.746037 0.0488565 0.351804 0.0488565 0.314734 0.0524213 0.314734 0.0488565 0.351804 0.0524213 0.314734 0.0524213 0.351804 0.279821 0.307254 0.279821 0.336371 0.282641 0.336371 0.279821 0.307254 0.282641 0.336371 0.282641 0.307254 0.428219 0.488959 0.422906 0.488959 0.422906 0.477368 0.428219 0.488959 0.422906 0.477368 0.428219 0.477368 0.429281 0.477368 0.434594 0.477368 0.434594 0.488959 0.429281 0.477368 0.434594 0.488959 0.429281 0.488959 0.0593932 0.745951 0.0593978 0.821096 0.0530983 0.821096 0.0593932 0.745951 0.0530983 0.821096 0.0530937 0.745951 0.282954 0.307472 0.282954 0.336589 0.285774 0.336589 0.282954 0.307472 0.285774 0.336589 0.285774 0.307472 0.491969 0.488959 0.486656 0.488959 0.486656 0.477368 0.491969 0.488959 0.486656 0.477368 0.491969 0.477368 0.467531 0.477368 0.472844 0.477368 0.472844 0.488959 0.467531 0.477368 0.472844 0.488959 0.467531 0.488959 0.0668453 0.746513 0.0668498 0.821658 0.0605504 0.821658 0.0668453 0.746513 0.0605504 0.821658 0.0605458 0.746513 0.286127 0.3074 0.286127 0.336517 0.288947 0.336517 0.286127 0.3074 0.288947 0.336517 0.288947 0.3074 0.447344 0.488959 0.442031 0.488959 0.442031 0.477368 0.447344 0.488959 0.442031 0.477368 0.447344 0.477368 0.435656 0.477368 0.440969 0.477368 0.440969 0.488959 0.435656 0.477368 0.440969 0.488959 0.435656 0.488959 0.0743931 0.746329 0.0743977 0.821473 0.0680982 0.821473 0.0743931 0.746329 0.0680982 0.821473 0.0680936 0.746329 0.0975284 0.547615 0.0975284 0.516429 0.0928513 0.516429 0.0975284 0.547615 0.0928513 0.516429 0.0928513 0.547615 0.053016 0.351804 0.053016 0.314734 0.056143 0.314734 0.053016 0.351804 0.056143 0.314734 0.056143 0.351804 0.102725 0.547615 0.102725 0.516429 0.0980481 0.516429 0.102725 0.547615 0.0980481 0.516429 0.0980481 0.547615 0.0564905 0.351804 0.0564905 0.314734 0.0596175 0.314734 0.0564905 0.351804 0.0596175 0.314734 0.0596175 0.351804 0.107989 0.547615 0.107989 0.516429 0.103312 0.516429 0.107989 0.547615 0.103312 0.516429 0.103312 0.547615 0.0600095 0.351804 0.0600095 0.314734 0.0631365 0.314734 0.0600095 0.351804 0.0631365 0.314734 0.0631365 0.351804 0.289208 0.307405 0.290213 0.336503 0.293031 0.336404 0.289208 0.307405 0.293031 0.336404 0.292026 0.307306 0.55563 0.476209 0.550406 0.476141 0.550495 0.464618 0.55563 0.476209 0.550495 0.464618 0.555719 0.464686 0.556781 0.464686 0.562005 0.464618 0.562094 0.476141 0.556781 0.464686 0.562094 0.476141 0.55687 0.476209 0.0817309 0.746543 0.0841261 0.821638 0.0778304 0.821879 0.0817309 0.746543 0.0778304 0.821879 0.0754353 0.746783 0.292366 0.307794 0.293623 0.336882 0.29644 0.336758 0.292366 0.307794 0.29644 0.336758 0.295183 0.307669 0.396299 0.488959 0.391031 0.488925 0.391076 0.477368 0.396299 0.488959 0.391076 0.477368 0.396344 0.477402 0.378281 0.477402 0.383549 0.477368 0.383594 0.488925 0.378281 0.477402 0.383594 0.488925 0.378326 0.488959 0.0892348 0.747257 0.0922292 0.822329 0.0859358 0.82263 0.0892348 0.747257 0.0859358 0.82263 0.0829413 0.747558 0.114773 0.547092 0.114763 0.515908 0.110089 0.515908 0.114773 0.547092 0.110089 0.515908 0.110098 0.547092 0.0634324 0.351813 0.0634258 0.314745 0.0665509 0.314745 0.0634324 0.351813 0.0665509 0.314745 0.0665575 0.351813 0.120423 0.547348 0.120417 0.516163 0.115745 0.516163 0.120423 0.547348 0.115745 0.516163 0.115751 0.547348 0.0669321 0.351801 0.066928 0.314732 0.070052 0.314732 0.0669321 0.351801 0.070052 0.314732 0.0700561 0.351801 0.267783 0.340875 0.267783 0.369991 0.271005 0.369991 0.267783 0.340875 0.271005 0.369991 0.271005 0.340875 0.0269233 0.832719 0.0267006 0.907863 0.0264302 0.832719 0.0192583 0.907863 0.019481 0.832719 0.0197514 0.907863 0.504719 0.488959 0.499406 0.488959 0.499406 0.477368 0.504719 0.488959 0.499406 0.477368 0.504719 0.477368 0.505781 0.477368 0.511094 0.477368 0.511094 0.488959 0.505781 0.477368 0.511094 0.488959 0.505781 0.488959 0.0264302 0.832719 0.0267006 0.907863 0.0197514 0.907863 0.0264302 0.832719 0.0197514 0.907863 0.019481 0.832719 0.271364 0.340875 0.271364 0.369991 0.274586 0.369991 0.271364 0.340875 0.274586 0.369991 0.274586 0.340875 0.03544 0.832719 0.0352173 0.907863 0.0349469 0.832719 0.027775 0.907863 0.0279977 0.832719 0.0282681 0.907863 0.498344 0.488959 0.493031 0.488959 0.493031 0.477368 0.498344 0.488959 0.493031 0.477368 0.498344 0.477368 0.473906 0.477368 0.479219 0.477368 0.479219 0.488959 0.473906 0.477368 0.479219 0.488959 0.473906 0.488959 0.0349469 0.832719 0.0352173 0.907863 0.0282681 0.907863 0.0349469 0.832719 0.0282681 0.907863 0.0279977 0.832719 0.0267006 0.907863 0.0192583 0.907863 0.0197514 0.907863 0.052877 0.597601 0.052877 0.55948 0.0463431 0.55948 0.052877 0.597601 0.0463431 0.55948 0.0463431 0.597601 0.019481 0.832719 0.0269233 0.832719 0.0264302 0.832719 0.0496971 0.394938 0.0496971 0.357869 0.0532708 0.357869 0.0496971 0.394938 0.0532708 0.357869 0.0532708 0.394938 0.0352173 0.907863 0.027775 0.907863 0.0282681 0.907863 0.0601369 0.597601 0.0601369 0.55948 0.053603 0.55948 0.0601369 0.597601 0.053603 0.55948 0.053603 0.597601 0.0279977 0.832719 0.03544 0.832719 0.0349469 0.832719 0.0536679 0.394938 0.0536679 0.357869 0.0572416 0.357869 0.0536679 0.394938 0.0572416 0.357869 0.0572416 0.394938</float_array>
                    <technique_common>
                        <accessor count="336" source="#shape0-lib-map-array" stride="2">
                            <param name="U" type="float"/>
                            <param name="V" type="float"/>
                        </accessor>
                    </technique_common>
                </source>
                <vertices id="shape0-lib-vertices">
                    <input semantic="POSITION" source="#shape0-lib-positions"/>
                </vertices>
                <triangles count="112" material="material0">
                    <input offset="0" semantic="VERTEX" source="#shape0-lib-vertices"/>
                    <input offset="1" semantic="COLOR" source="#shape0-lib-vcolor"/>
                    <input offset="2" semantic="NORMAL" source="#shape0-lib-normals"/>
                    <input offset="3" semantic="TEXCOORD" source="#shape0-lib-map"/>
                    <p>0 0 0 0 1 1 0 1 2 2 0 2 0 0 1 3 2 2 1 4 3 3 1 5 7 7 2 6 6 6 2 7 8 8 2 8 7 7 3 9 8 8 3 10 9 9 3 11 5 5 4 12 4 4 4 13 10 10 4 14 5 5 5 15 10 10 5 16 11 11 5 17 5 5 6 18 1 1 6 19 0 0 6 20 5 5 7 21 0 0 7 22 4 4 7 23 7 7 8 24 3 3 8 25 2 2 8 26 7 7 9 27 2 2 9 28 6 6 9 29 9 9 10 30 8 8 10 31 11 11 10 32 9 9 11 33 11 11 11 34 10 10 11 35 8 8 12 36 6 6 12 37 5 5 12 38 8 8 13 39 5 5 13 40 11 11 13 41 6 6 14 42 2 2 14 43 1 1 14 44 6 6 15 45 1 1 15 46 5 5 15 47 10 10 16 48 4 4 16 49 7 7 16 50 10 10 17 51 7 7 17 52 9 9 17 53 4 4 18 54 0 0 18 55 3 3 18 56 4 4 19 57 3 3 19 58 7 7 19 59 12 12 20 60 13 13 20 61 14 14 20 62 12 12 21 63 14 14 21 64 15 15 21 65 17 17 22 66 13 13 22 67 12 12 22 68 17 17 23 69 12 12 23 70 16 16 23 71 19 19 24 72 15 15 24 73 14 14 24 74 19 19 25 75 14 14 25 76 18 18 25 77 19 19 26 78 18 18 26 79 17 17 26 80 19 19 27 81 17 17 27 82 16 16 27 83 20 20 28 84 21 21 28 85 22 22 28 86 20 20 29 87 22 22 29 88 23 23 29 89 25 25 30 90 21 21 30 91 20 20 30 92 25 25 31 93 20 20 31 94 24 24 31 95 27 27 32 96 23 23 32 97 22 22 32 98 27 27 33 99 22 22 33 100 26 26 33 101 27 27 34 102 26 26 34 103 25 25 34 104 27 27 35 105 25 25 35 106 24 24 35 107 28 28 36 108 29 29 36 109 30 30 36 110 28 28 37 111 30 30 37 112 31 31 37 113 33 33 38 114 29 29 38 115 28 28 38 116 33 33 39 117 28 28 39 118 32 32 39 119 35 35 40 120 31 31 40 121 30 30 40 122 35 35 41 123 30 30 41 124 34 34 41 125 35 35 42 126 34 34 42 127 33 33 42 128 35 35 43 129 33 33 43 130 32 32 43 131 18 18 44 132 14 14 44 133 13 13 44 134 18 18 45 135 13 13 45 136 17 17 45 137 16 16 46 138 12 12 46 139 15 15 46 140 16 16 47 141 15 15 47 142 19 19 47 143 26 26 48 144 22 22 48 145 21 21 48 146 26 26 49 147 21 21 49 148 25 25 49 149 24 24 50 150 20 20 50 151 23 23 50 152 24 24 51 153 23 23 51 154 27 27 51 155 34 34 52 156 30 30 52 157 29 29 52 158 34 34 53 159 29 29 53 160 33 33 53 161 32 32 54 162 28 28 54 163 31 31 54 164 32 32 55 165 31 31 55 166 35 35 55 167 36 36 56 168 37 37 56 169 38 38 56 170 36 36 57 171 38 38 57 172 39 39 57 173 41 41 58 174 37 37 58 175 36 36 58 176 41 41 59 177 36 36 59 178 40 40 59 179 43 43 60 180 39 39 60 181 38 38 60 182 43 43 61 183 38 38 61 184 42 42 61 185 43 43 62 186 42 42 62 187 41 41 62 188 43 43 63 189 41 41 63 190 40 40 63 191 44 44 64 192 45 45 64 193 46 46 64 194 44 44 65 195 46 46 65 196 47 47 65 197 49 49 66 198 45 45 66 199 44 44 66 200 49 49 67 201 44 44 67 202 48 48 67 203 51 51 68 204 47 47 68 205 46 46 68 206 51 51 69 207 46 46 69 208 50 50 69 209 51 51 70 210 50 50 70 211 49 49 70 212 51 51 71 213 49 49 71 214 48 48 71 215 42 42 72 216 38 38 72 217 37 37 72 218 42 42 73 219 37 37 73 220 41 41 73 221 40 40 74 222 36 36 74 223 39 39 74 224 40 40 75 225 39 39 75 226 43 43 75 227 50 50 76 228 46 46 76 229 45 45 76 230 50 50 77 231 45 45 77 232 49 49 77 233 48 48 78 234 44 44 78 235 47 47 78 236 48 48 79 237 47 47 79 238 51 51 79 239 52 52 80 240 53 53 80 241 54 54 80 242 52 52 81 243 54 54 81 244 55 55 81 245 59 59 82 246 58 58 82 247 60 60 82 248 57 57 83 249 56 56 83 250 61 61 83 251 57 57 84 252 53 53 84 253 52 52 84 254 57 57 85 255 52 52 85 256 56 56 85 257 59 59 86 258 55 55 86 259 54 54 86 260 59 59 87 261 54 54 87 262 58 58 87 263 60 60 88 264 58 58 88 265 61 61 88 266 60 60 89 267 61 61 89 268 56 56 89 269 62 62 90 270 63 63 90 271 64 64 90 272 62 62 91 273 64 64 91 274 65 65 91 275 69 69 92 276 68 68 92 277 70 70 92 278 67 67 93 279 66 66 93 280 71 71 93 281 67 67 94 282 63 63 94 283 62 62 94 284 67 67 95 285 62 62 95 286 66 66 95 287 69 69 96 288 65 65 96 289 64 64 96 290 69 69 97 291 64 64 97 292 68 68 97 293 70 70 98 294 68 68 98 295 71 71 98 296 70 70 99 297 71 71 99 298 66 66 99 299 58 58 100 300 57 57 100 301 61 61 100 302 58 58 101 303 54 54 101 304 53 53 101 305 58 58 102 306 53 53 102 307 57 57 102 308 56 56 103 309 59 59 103 310 60 60 103 311 56 56 104 312 52 52 104 313 55 55 104 314 56 56 105 315 55 55 105 316 59 59 105 317 68 68 106 318 67 67 106 319 71 71 106 320 68 68 107 321 64 64 107 322 63 63 107 323 68 68 108 324 63 63 108 325 67 67 108 326 66 66 109 327 69 69 109 328 70 70 109 329 66 66 110 330 62 62 110 331 65 65 110 332 66 66 111 333 65 65 111 334 69 69 111 335</p>
                </triangles>
            </mesh>
        </geometry>
    </library_geometries>
    <library_visual_scenes>
        <visual_scene id="VisualSceneNode" name="VisualScene">
            <node id="node" name="node">
                <instance_geometry url="#shape0-lib">
                    <bind_material>
                        <technique_common>
                            <instance_material symbol="material0" target="#material0">
                                <bind_vertex_input semantic="UVSET0" input_semantic="TEXCOORD"/>
                            </instance_material>
                        </technique_common>
                    </bind_material>
                </instance_geometry>
            </node>
        </visual_scene>
    </library_visual_scenes>
    <scene>
        <instance_visual_scene url="#VisualSceneNode"/>
    </scene>
</COLLADA>
