<?xml version="1.0" encoding="UTF-8"?>
<COLLADA xmlns="http://www.collada.org/2005/11/COLLADASchema" version="1.4.1">
    <asset>
        <contributor>
            <author>VCGLab</author>
            <authoring_tool>VCGLib | MeshLab</authoring_tool>
        </contributor>
        <created>Thu Jul 3 01:57:32 2025 GMT</created>
        <modified>Thu Jul 3 01:57:32 2025 GMT</modified>
        <up_axis>Y_UP</up_axis>
    </asset>
    <library_images>
        <image id="texture0" name="texture0">
            <init_from>./image/shelf_items.png</init_from>
        </image>
    </library_images>
    <library_materials>
        <material id="material0" name="material0">
            <instance_effect url="#material0-fx"/>
        </material>
    </library_materials>
    <library_effects>
        <effect id="material0-fx">
            <profile_COMMON>
                <newparam sid="texture0-surface">
                    <surface type="2D">
                        <init_from>texture0</init_from>
                        <format>R8G8B8</format>
                    </surface>
                </newparam>
                <newparam sid="texture0-sampler">
                    <sampler2D>
                        <source>texture0-surface</source>
                        <minfilter>LINEAR</minfilter>
                        <magfilter>LINEAR</magfilter>
                    </sampler2D>
                </newparam>
                <technique sid="common">
                    <blinn>
                        <diffuse>
                            <texture texture="texture0-sampler" texcoord="UVSET0"/>
                        </diffuse>
                    </blinn>
                </technique>
            </profile_COMMON>
        </effect>
    </library_effects>
    <library_geometries>
        <geometry id="shape0-lib" name="shape0">
            <mesh>
                <source id="shape0-lib-positions" name="position">
                    <float_array id="shape0-lib-positions-array" count="381">0.0547018 0.0668299 0.000229367 -0.0114839 0.00623738 0.00465559 0.0577015 0.0110089 -0.00636888 0.0670715 0.0231743 -0.00869225 0.0539898 0.0667177 -0.0152057 0.0639573 0.0405112 -0.00770682 0.0517498 0.0260769 -0.00685407 0.0668883 0.0417479 -0.0271723 0.0466539 0.0668403 -0.0284086 0.0204513 0.000158786 -0.0334118 0.0473286 0.0106943 -0.0335679 0.0524836 0.021781 -0.0414541 0.0504616 0.0418133 -0.0509616 0.0380575 0.0668505 -0.0385576 0.0524682 0.0403945 -0.037643 0.0409739 0.025592 -0.0320897 0.0361393 0.066537 -0.0457688 0.0238222 0.0109413 -0.0534619 0.0268551 0.0315105 -0.0668569 0.0168167 0.0668191 -0.0531784 0.0249313 0.0408997 -0.0600879 0.0189668 0.0256907 -0.0486723 -0.000296882 0.0150916 -0.0375883 -0.0100752 0.00779507 -0.0165855 -0.000499993 0.0111316 -0.0585629 -0.00027955 0.0322439 -0.071973 -0.000482166 0.0667474 -0.0560967 -0.0157198 0.0668184 -0.0534258 -0.00785487 0.0402756 -0.0645365 -0.00659355 0.0261692 -0.0527161 -0.0230226 0.0002066 -0.0314316 -0.0211054 0.0109414 -0.0550016 -0.025767 0.0226116 -0.0631077 -0.0283308 0.0421492 -0.067223 -0.0293646 0.0668186 -0.0474053 -0.0328084 0.0404534 -0.0559598 -0.0419103 0.0111316 -0.0414102 -0.048247 0.0228063 -0.047747 -0.0514617 0.0418133 -0.0509616 -0.0390576 0.0668505 -0.0385576 -0.0325898 0.025592 -0.0414739 -0.0301308 0.0146565 -0.0230231 -0.0468433 0.0665569 -0.0356127 -0.050476 0.0403445 -0.0414465 -0.0385221 0.000233746 -0.00100445 -0.053962 0.0109413 -0.0243219 -0.0673569 0.0315103 -0.0273549 -0.0536784 0.0668191 -0.0173167 -0.0492662 0.0263966 -0.0215117 -0.0590629 0.0111316 -8.34465e-09 -0.0728159 0.0329315 0.00117664 -0.0560048 0.0668017 -0.00128378 -0.00273032 0.000373582 -0.00397208 -0.0547388 0.0667836 0.0135838 -0.0532253 0.0261731 0.00603957 -0.0352539 0.0146565 0.0141495 -0.0555016 0.0109414 0.0206049 -0.0670263 0.032156 0.0289895 -0.0481674 0.0667804 0.0289913 -0.0609528 0.0404937 0.0236776 -0.0419103 0.0111316 0.0414102 -0.0482471 0.0228063 0.047747 -0.0514617 0.0418133 0.0509616 -0.0390576 0.0668505 0.0385575 -0.046191 0.0404534 0.0456909 -0.0419733 0.0255919 0.0320902 -0.0371399 0.066537 0.0457684 0.000132321 0.00945584 0.0273519 -0.0250311 0.000206595 0.0298904 -0.0248224 0.0109413 0.0534618 -0.027225 0.0226079 0.0625022 -0.0283289 0.0421511 0.0672235 -0.0193997 0.066845 0.0521413 -0.0259315 0.0408997 0.0600879 -0.019967 0.0256907 0.0486722 0.00137497 0.0147563 0.0629382 -0.00261341 0.0667377 0.0564703 0.00896462 0.0413298 0.0719334 0.0138003 0.0668193 0.0533724 0.00784707 0.0404472 0.0646161 0.00559359 0.0261692 0.0527161 0.0201053 0.0109414 0.0550015 0.024767 0.0226117 0.0631077 0.0355353 0.0418133 0.062415 0.0409102 0.0111316 0.0414102 0.0472471 0.0228063 0.047747 0.0338324 0.0668306 0.0444016 0.0371171 0.0403362 0.0529243 0.0315899 0.025592 0.0414738 0.009317 2.21053e-05 0.0357217 0.0371941 0.000157894 0.0115896 0.0573317 0.0423835 0.043688 0.0499099 0.0667865 0.0241732 0.0529622 0.0109413 0.0243217 0.0620022 0.0226078 0.0267249 0.0716573 0.0407734 0.00898147 0.0547678 0.0667559 0.0111173 0.0595879 0.0408997 0.0254315 0.0481725 0.0256907 0.0194663 0.0255186 0.0138944 0.0263374 0.0259472 0.0107246 -0.0148176 0.0673782 0.05606 -0.00852947 0.0586273 0.056 -0.0341372 0.0578666 0.0560438 -0.0236883 0.0436865 0.056 -0.0441866 0.0402674 0.0564859 -0.0549142 0.0248429 0.0563229 -0.0574111 0.00803144 0.0555904 -0.0685701 -0.0142456 0.0563411 -0.0621617 -0.0258387 0.0558453 -0.063577 -0.0532912 0.0563645 -0.0437031 -0.0503325 0.0565317 -0.038218 -0.0687677 0.0557646 -0.00993862 -0.0662305 0.0445148 -0.00977508 -0.0648273 0.0557593 0.0246819 -0.0589692 0.0561577 0.0236778 -0.0487773 0.056 0.0482772 -0.0346372 0.056 0.0591273 -0.0373463 0.0564763 0.0506464 -0.00951411 0.0552989 0.068586 -0.00971456 0.0560373 0.0621256 0.0241773 0.056303 0.0639086 0.0223488 0.0564661 0.0585609 0.0518848 0.0558152 0.0446172 0.0496443 0.0562413 0.0378783 0.065448 0.056 0.0176707 0.0623732 0.0552942 0.0077795</float_array>
                    <technique_common>
                        <accessor count="127" source="#shape0-lib-positions-array" stride="3">
                            <param name="X" type="float"/>
                            <param name="Y" type="float"/>
                            <param name="Z" type="float"/>
                        </accessor>
                    </technique_common>
                </source>
                <source id="shape0-lib-normals" name="normal">
                    <float_array id="shape0-lib-normals-array" count="750">0.983491 -0.122666 -0.133039 -0.00630955 -0.999977 0.00232765 0.361348 -0.923725 -0.127123 0.367181 -0.92006 -0.136628 0.756737 -0.57417 -0.312535 0.736067 -0.619172 -0.273553 0.8589 -0.356941 -0.367264 -0.701466 0.652363 0.286998 -0.725766 0.630112 0.276084 -0.547889 0.807528 0.218438 0.808656 -0.183631 -0.558888 0.0761926 0.995067 -0.0635325 0.331993 -0.852922 -0.40287 0.490093 -0.525269 -0.69563 0.489716 -0.644997 -0.586649 0.617878 -0.285363 -0.732663 0.0347556 0.998009 -0.0526382 -0.459896 0.641333 0.614156 -0.492029 0.613712 0.617467 -0.326019 0.837956 0.437655 -0.230498 0.871525 0.432799 -0.0916675 0.953101 0.288436 -0.084156 0.994176 0.0673256 0.0895651 -0.883385 -0.460009 0.143019 -0.531715 -0.83476 0.166554 -0.555209 -0.814863 -0.109451 0.632641 0.766672 -0.116623 0.625052 0.771822 -0.0818878 0.787553 0.610782 -0.000796024 -0.999977 0.00666914 -0.0638672 -0.906231 -0.417931 -0.0186297 -0.922005 -0.38673 -0.059936 -0.585493 -0.808459 -0.139684 -0.529867 -0.836498 -0.240946 -0.230214 -0.94284 0.281355 0.671925 0.685096 0.255328 0.63429 0.729715 0.21975 0.851795 0.475558 0.206731 0.828413 0.52057 0.180564 0.9 0.396732 -0.280105 -0.864831 -0.416664 -0.45378 -0.602613 -0.656461 -0.431133 -0.624539 -0.651211 -0.557572 -0.229241 -0.797848 -0.549015 -0.240643 -0.800421 -0.0663761 0.994873 -0.0763033 0.501977 0.607464 0.615636 -0.370541 -0.888335 -0.271219 -0.71868 -0.533734 -0.445676 -0.648304 -0.603702 -0.463945 -0.7572 -0.231375 -0.61083 -0.0501346 0.998196 -0.0330321 0.569328 0.689432 0.447827 0.503761 0.770912 0.389769 0.00415641 -0.999987 0.00300941 -0.359423 -0.9152 -0.182272 0.786155 0.527783 0.321566 -0.470191 -0.877783 -0.0917437 -0.841297 -0.523473 -0.134893 -0.814862 -0.555211 -0.166553 0.761107 0.638432 0.114547 0.515274 0.854078 0.0710152 0.525891 0.846548 0.0824354 0.364945 0.926458 0.0921427 0.311057 0.949424 0.04287 -0.464692 -0.882527 0.0721673 -0.839408 -0.519339 0.160252 -0.83411 -0.533735 0.139236 0.840595 0.537375 -0.0680248 0.00370007 -0.99999 -0.00249455 -0.371303 -0.914388 0.161335 0.66597 0.694562 -0.272153 0.598483 0.763883 -0.241457 -0.390977 -0.881883 0.263475 -0.696477 -0.595417 0.400499 -0.692813 -0.557256 0.457685 -0.742796 -0.231854 0.62809 -0.0736756 0.995299 0.0628708 0.666625 0.597289 -0.445934 -0.290856 -0.86975 0.398669 -0.46318 -0.600489 0.651826 -0.463949 -0.603706 0.648298 -0.558223 -0.224491 0.798744 -0.560632 -0.229386 0.795659 -0.0363911 0.997928 0.0530696 0.459894 0.641333 -0.614157 0.417384 0.675124 -0.608275 0.278196 0.872351 -0.402009 0.304931 0.859697 -0.409803 0.232099 0.939478 -0.252013 -0.00407788 -0.999963 -0.00761673 -0.0401233 -0.883549 0.466617 -0.07513 -0.907246 0.413836 -0.183267 -0.625453 0.758433 -0.126267 -0.28552 0.950018 -0.0801865 -0.238347 0.967864 0.110416 0.625978 -0.771984 0.112009 0.624245 -0.773157 0.0730931 0.825482 -0.559676 0.0257082 -0.875951 0.481714 0.199826 -0.611564 0.765545 0.109662 -0.346655 0.93156 -0.167426 0.839411 -0.517067 0.335675 -0.154727 0.929183 -0.288573 0.652409 -0.700777 -0.282921 0.640033 -0.714362 -0.216056 0.812586 -0.541317 0.213488 -0.925161 0.313847 0.297703 -0.892487 0.338881 0.453777 -0.602618 0.656459 0.43113 -0.624542 0.65121 0.644006 -0.177451 0.744156 0.543825 -0.276393 0.792377 0.379521 -0.882589 0.27749 0.651823 -0.600495 0.463177 0.648298 -0.603709 0.463945 0.782394 -0.288603 0.551877 -0.614156 0.641338 -0.45989 -0.617473 0.613646 -0.492104 -0.515424 0.765612 -0.384938 -0.00221274 -0.999964 -0.00818282 0.916628 -0.112533 0.383574 -0.174711 0.981571 -0.07742 -0.150877 0.986563 -0.0626793 0.518938 -0.851221 0.0782635 0.797459 -0.59423 0.104636 0.773024 -0.623306 0.118002 0.92173 -0.366773 0.126062 -0.762884 0.639622 -0.0943006 -0.77392 0.623769 -0.109358 -0.493523 0.866756 -0.0718971 -0.473475 0.879303 -0.0514482 0.632998 0.77337 -0.0348213 0.983356 0.130716 -0.126192 -0.961453 -0.241244 0.131946 -0.859542 -0.498818 0.111216 -0.926816 -0.372754 0.0454636 0.556386 0.774116 -0.301957 0.673994 0.701373 -0.231966 0.881369 0.363265 -0.302039 -0.933605 0.00256416 0.358295 -0.718193 -0.573743 0.393722 0.563683 0.670465 -0.48243 0.537185 0.772406 -0.338853 0.711884 0.327203 -0.621417 0.807215 0.19576 -0.55685 -0.802298 -0.21856 0.555473 -0.703326 -0.517238 0.487645 -0.616276 -0.590204 0.521405 0.514478 0.129083 -0.847732 -0.631839 -0.0308016 0.774488 -0.570144 -0.143655 0.808888 -0.472035 -0.586384 0.658283 -0.449644 -0.607783 0.654538 0.260778 0.70297 -0.661686 0.262482 0.706153 -0.65761 0.374337 0.228691 -0.89865 0.101993 0.775038 -0.62363 0.186732 0.0762887 -0.979444 -0.118959 -0.170446 0.97816 -0.128238 -0.194757 0.972432 -0.108425 -0.441993 0.890442 -0.155322 -0.335996 0.928968 -0.0955807 0.722036 -0.685222 -0.120545 0.69761 -0.706264 -0.138038 0.278169 -0.950562 -0.102449 0.179093 -0.978483 0.132127 -0.62375 0.770376 -0.256068 0.773039 -0.580378 0.324959 -0.0105213 0.94567 0.32976 -0.576776 0.747388 -0.400256 0.711571 -0.577462 -0.401022 0.715038 -0.572626 -0.548536 0.316982 -0.773712 -0.554303 0.306829 -0.773695 0.525605 -0.303926 0.794587 0.627396 -0.157656 0.762574 0.515674 -0.354464 0.780022 0.548432 -0.579407 0.602917 -0.848983 0.146515 -0.507702 0.618198 -0.661507 0.424547 -0.65348 0.700387 -0.287091 -0.701328 0.659132 -0.271448 -0.884799 0.236734 -0.401357 0.885784 -0.0983158 0.453565 0.866927 -0.378039 0.324844 -0.616486 0.782364 -0.0886055 -0.978259 0.0803752 -0.191178 0.88217 -0.45334 0.127511 -0.694448 0.715177 0.0791505 -0.675362 0.73517 0.0584021 -0.970255 0.127906 0.205537 -0.96804 0.225282 0.110214 0.977783 -0.123815 -0.169144 0.915775 -0.397099 -0.0605713 0.898995 -0.431125 -0.0770733 -0.578266 0.777625 0.246796 0.739714 -0.594315 -0.315616 -0.573415 0.724409 0.382658 -0.576149 0.71877 0.38913 -0.838521 0.250247 0.484004 -0.814668 0.176704 0.552351 0.825903 -0.104578 -0.554029 0.760242 -0.231984 -0.606807 0.675179 -0.366291 -0.640285 0.673513 -0.511131 -0.533971 -0.461273 0.652576 0.601142 -0.598443 0.183342 0.779905 -0.558568 0.255038 0.789276 0.57891 -0.0682639 -0.812529 0.42982 -0.654234 -0.62228 -0.222998 0.729697 0.646385 -0.238659 0.740228 0.628573 -0.318966 0.365838 0.874313 0.365524 -0.271747 -0.890251 0.33437 -0.460161 -0.822465 -0.157366 0.761245 0.62908 -0.12335 0.0739621 0.989603 0.132746 -0.00879299 -0.991111 0.203588 -0.559672 -0.803318 0.117273 0.758257 0.641321 0.0772641 0.702615 0.707363 0.116539 0.374578 0.919842 -0.102874 -0.268868 -0.957667 -0.0950394 -0.41512 -0.904789 -0.153378 -0.541041 -0.826891 0.246741 0.796509 0.55199 0.330108 0.162917 0.929778 -0.370954 -0.0151638 -0.928528 -0.319692 -0.622125 -0.714673 0.418137 0.696666 0.582939 0.634626 0.20582 0.744908 0.540487 0.344546 0.767568 -0.58354 -0.266172 -0.767225 -0.559801 -0.383344 -0.734622 0.478762 0.792026 0.37879 -0.774343 0.0114018 -0.632663 -0.615678 -0.618715 -0.487988 0.617839 0.752485 0.228126 0.627015 0.710037 0.320468 0.91479 0.161854 0.370085 0.847215 0.313912 0.428587 -0.887846 -0.277921 -0.366728 -0.861776 -0.393844 -0.319733 -0.827016 -0.451051 -0.335555 0.647974 0.761661 0.00125001 0.692389 0.7196 0.0526564 0.937006 0.342267 0.0698132 -0.990893 0.0310732 -0.131016 -0.833072 -0.553163 0.00128804</float_array>
                    <technique_common>
                        <accessor count="250" source="#shape0-lib-normals-array" stride="3">
                            <param name="X" type="float"/>
                            <param name="Y" type="float"/>
                            <param name="Z" type="float"/>
                        </accessor>
                    </technique_common>
                </source>
                <source id="shape0-lib-vcolor" name="vcolor">
                    <float_array id="shape0-lib-vcolor-array" count="508">1 1 1 1 1 1 1 1 1 1 1 1 1 1 1 1 1 1 1 1 1 1 1 1 1 1 1 1 1 1 1 1 1 1 1 1 1 1 1 1 1 1 1 1 1 1 1 1 1 1 1 1 1 1 1 1 1 1 1 1 1 1 1 1 1 1 1 1 1 1 1 1 1 1 1 1 1 1 1 1 1 1 1 1 1 1 1 1 1 1 1 1 1 1 1 1 1 1 1 1 1 1 1 1 1 1 1 1 1 1 1 1 1 1 1 1 1 1 1 1 1 1 1 1 1 1 1 1 1 1 1 1 1 1 1 1 1 1 1 1 1 1 1 1 1 1 1 1 1 1 1 1 1 1 1 1 1 1 1 1 1 1 1 1 1 1 1 1 1 1 1 1 1 1 1 1 1 1 1 1 1 1 1 1 1 1 1 1 1 1 1 1 1 1 1 1 1 1 1 1 1 1 1 1 1 1 1 1 1 1 1 1 1 1 1 1 1 1 1 1 1 1 1 1 1 1 1 1 1 1 1 1 1 1 1 1 1 1 1 1 1 1 1 1 1 1 1 1 1 1 1 1 1 1 1 1 1 1 1 1 1 1 1 1 1 1 1 1 1 1 1 1 1 1 1 1 1 1 1 1 1 1 1 1 1 1 1 1 1 1 1 1 1 1 1 1 1 1 1 1 1 1 1 1 1 1 1 1 1 1 1 1 1 1 1 1 1 1 1 1 1 1 1 1 1 1 1 1 1 1 1 1 1 1 1 1 1 1 1 1 1 1 1 1 1 1 1 1 1 1 1 1 1 1 1 1 1 1 1 1 1 1 1 1 1 1 1 1 1 1 1 1 1 1 1 1 1 1 1 1 1 1 1 1 1 1 1 1 1 1 1 1 1 1 1 1 1 1 1 1 1 1 1 1 1 1 1 1 1 1 1 1 1 1 1 1 1 1 1 1 1 1 1 1 1 1 1 1 1 1 1 1 1 1 1 1 1 1 1 1 1 1 1 1 1 1 1 1 1 1 1 1 1 1 1 1 1 1 1 1 1 1 1 1 1 1 1 1 1 1 1 1 1 1 1 1 1 1 1 1 1 1 1 1 1 1 1 1 1 1 1 1 1 1 1 1 1 1 1 1 1 1 1 1 1 1 1 1</float_array>
                    <technique_common>
                        <accessor count="127" source="#shape0-lib-vcolor-array" stride="4">
                            <param name="R" type="float"/>
                            <param name="G" type="float"/>
                            <param name="B" type="float"/>
                            <param name="A" type="float"/>
                        </accessor>
                    </technique_common>
                </source>
                <source id="shape0-lib-map" name="map">
                    <float_array id="shape0-lib-map-array" count="1500">0.117098 0.951615 0.119482 0.954478 0.114817 0.954357 0.101727 0.932586 0.104268 0.929339 0.106135 0.934287 0.104268 0.929339 0.107221 0.929154 0.108461 0.932237 0.104268 0.929339 0.108461 0.932237 0.106135 0.934287 0.120494 0.949763 0.121472 0.951481 0.117098 0.951615 0.120494 0.949763 0.117098 0.951615 0.116959 0.949762 0.121472 0.951481 0.119482 0.954478 0.117098 0.951615 0.138507 0.9651 0.140188 0.963752 0.142991 0.963737 0.138507 0.9651 0.142991 0.963737 0.142854 0.96511 0.139117 0.929272 0.140948 0.931351 0.137875 0.932155 0.121472 0.951481 0.122539 0.954487 0.119482 0.954478 0.126352 0.914475 0.12614 0.915193 0.12524 0.916229 0.104268 0.929339 0.104566 0.927027 0.107221 0.929154 0.14098 0.940435 0.140472 0.943603 0.137828 0.942242 0.14098 0.940435 0.137828 0.942242 0.138644 0.940454 0.140472 0.943603 0.137414 0.945154 0.137828 0.942242 0.126352 0.914475 0.128219 0.913783 0.12614 0.915193 0.140188 0.926467 0.141658 0.927337 0.139117 0.929272 0.140188 0.926467 0.139117 0.929272 0.137939 0.92851 0.141658 0.927337 0.140948 0.931351 0.139117 0.929272 0.141658 0.927337 0.143958 0.928641 0.140948 0.931351 0.143958 0.928641 0.145078 0.931127 0.140948 0.931351 0.145078 0.931127 0.145295 0.933588 0.140948 0.931351 0.104268 0.929339 0.101977 0.926467 0.104566 0.927027 0.143977 0.940454 0.143952 0.943698 0.140472 0.943603 0.143977 0.940454 0.140472 0.943603 0.14098 0.940435 0.100897 0.965096 0.101038 0.963746 0.104645 0.963725 0.100897 0.965096 0.104645 0.963725 0.105603 0.965151 0.144735 0.9269 0.143958 0.928641 0.141658 0.927337 0.101727 0.932586 0.0994652 0.929558 0.104268 0.929339 0.0994652 0.929558 0.0995624 0.926954 0.101977 0.926467 0.0994652 0.929558 0.101977 0.926467 0.104268 0.929339 0.146737 0.940435 0.147238 0.942215 0.143952 0.943698 0.146737 0.940435 0.143952 0.943698 0.143977 0.940454 0.147238 0.942215 0.147555 0.945199 0.143952 0.943698 0.0973363 0.965111 0.0981878 0.963752 0.101038 0.963746 0.0973363 0.965111 0.101038 0.963746 0.100897 0.965096 0.147735 0.928171 0.147431 0.930354 0.143958 0.928641 0.147735 0.928171 0.143958 0.928641 0.144735 0.9269 0.147431 0.930354 0.145078 0.931127 0.143958 0.928641 0.0994652 0.929558 0.0973363 0.92839 0.0995624 0.926954 0.149309 0.940454 0.150125 0.942242 0.147238 0.942215 0.149309 0.940454 0.147238 0.942215 0.146737 0.940435 0.150125 0.942242 0.150539 0.945154 0.147555 0.945199 0.150125 0.942242 0.147555 0.945199 0.147238 0.942215 0.13458 0.915494 0.133813 0.915193 0.132819 0.914274 0.149892 0.92835 0.147735 0.928171 0.147766 0.926467 0.0994652 0.929558 0.0959732 0.93044 0.0973363 0.92839 0.15498 0.954435 0.154472 0.957603 0.151828 0.956242 0.15498 0.954435 0.151828 0.956242 0.152644 0.954454 0.154472 0.957603 0.151414 0.959154 0.151828 0.956242 0.13458 0.915494 0.135224 0.917272 0.133813 0.915193 0.149892 0.92835 0.149675 0.930586 0.147735 0.928171 0.149675 0.930586 0.147431 0.930354 0.147735 0.928171 0.101727 0.932586 0.0977409 0.932934 0.0994652 0.929558 0.0977409 0.932934 0.0959732 0.93044 0.0994652 0.929558 0.119196 0.970228 0.12012 0.968425 0.12209 0.969756 0.0977409 0.932934 0.0954141 0.93303 0.0959732 0.93044 0.157977 0.954454 0.158108 0.957791 0.154472 0.957603 0.157977 0.954454 0.154472 0.957603 0.15498 0.954435 0.119196 0.970228 0.117705 0.968413 0.12012 0.968425 0.150108 0.933784 0.148022 0.934683 0.147431 0.930354 0.150108 0.933784 0.147431 0.930354 0.149675 0.930586 0.148022 0.934683 0.145295 0.933588 0.145078 0.931127 0.148022 0.934683 0.145078 0.931127 0.147431 0.930354 0.0977409 0.932934 0.0959006 0.935444 0.0954141 0.93303 0.160737 0.954435 0.161666 0.957688 0.158108 0.957791 0.160737 0.954435 0.158108 0.957791 0.157977 0.954454 0.116039 0.969781 0.117705 0.968413 0.119196 0.970228 0.101727 0.932586 0.0992723 0.936354 0.0977409 0.932934 0.0992723 0.936354 0.0959006 0.935444 0.0977409 0.932934 0.116039 0.969781 0.115861 0.968419 0.117705 0.968413 0.148836 0.936788 0.148022 0.934683 0.150108 0.933784 0.0992723 0.936354 0.0973363 0.93767 0.0959006 0.935444 0.163309 0.954454 0.164125 0.956242 0.161666 0.957688 0.163309 0.954454 0.161666 0.957688 0.160737 0.954435 0.164125 0.956242 0.164539 0.959154 0.161666 0.957688 0.133601 0.923584 0.133813 0.922867 0.134748 0.921882 0.149335 0.938388 0.148836 0.936788 0.150539 0.936819 0.0992723 0.936354 0.0993872 0.939034 0.0973363 0.93767 0.12698 0.940435 0.126556 0.942215 0.123828 0.942242 0.12698 0.940435 0.123828 0.942242 0.124644 0.940454 0.126556 0.942215 0.126404 0.945199 0.123414 0.945154 0.126556 0.942215 0.123414 0.945154 0.123828 0.942242 0.133601 0.923584 0.13183 0.924209 0.133813 0.922867 0.147766 0.939592 0.146295 0.938724 0.148836 0.936788 0.147766 0.939592 0.148836 0.936788 0.149335 0.938388 0.146295 0.938724 0.143907 0.936133 0.148022 0.934683 0.146295 0.938724 0.148022 0.934683 0.148836 0.936788 0.143907 0.936133 0.145295 0.933588 0.148022 0.934683 0.103066 0.936808 0.0992723 0.936354 0.101727 0.932586 0.103066 0.936808 0.101977 0.939592 0.0993872 0.939034 0.103066 0.936808 0.0993872 0.939034 0.0992723 0.936354 0.130138 0.941008 0.126556 0.942215 0.12698 0.940435 0.130138 0.941008 0.131196 0.945091 0.126404 0.945199 0.130138 0.941008 0.126404 0.945199 0.126556 0.942215 0.100776 0.960443 0.101038 0.959079 0.104645 0.959058 0.100776 0.960443 0.104645 0.959058 0.105603 0.960484 0.143219 0.93916 0.143907 0.936133 0.146295 0.938724 0.103066 0.936808 0.104391 0.939106 0.101977 0.939592 0.132737 0.940435 0.133238 0.942215 0.130138 0.941008 0.133238 0.942215 0.131196 0.945091 0.130138 0.941008 0.143219 0.93916 0.140948 0.936085 0.143907 0.936133 0.133238 0.942215 0.134617 0.945154 0.131196 0.945091 0.0965058 0.960429 0.0981878 0.959085 0.101038 0.959079 0.0965058 0.960429 0.101038 0.959079 0.100776 0.960443 0.140219 0.937889 0.140948 0.936085 0.143219 0.93916 0.106135 0.934287 0.106617 0.93767 0.104391 0.939106 0.106135 0.934287 0.104391 0.939106 0.103066 0.936808 0.135309 0.940454 0.136125 0.942242 0.133238 0.942215 0.135309 0.940454 0.133238 0.942215 0.132737 0.940435 0.136125 0.942242 0.136539 0.945154 0.134617 0.945154 0.136125 0.942242 0.134617 0.945154 0.133238 0.942215 0.106135 0.934287 0.10798 0.935619 0.106617 0.93767 0.11298 0.949767 0.112556 0.951549 0.109828 0.951576 0.11298 0.949767 0.109828 0.951576 0.110644 0.949787 0.112556 0.951549 0.110298 0.95455 0.109828 0.951576 0.137414 0.936819 0.138282 0.935347 0.140219 0.937889 0.137414 0.936819 0.140219 0.937889 0.139534 0.939127 0.138282 0.935347 0.140948 0.936085 0.140219 0.937889 0.101727 0.932586 0.106135 0.934287 0.103066 0.936808 0.112556 0.951549 0.114817 0.954357 0.110298 0.95455 0.140948 0.936085 0.140948 0.931351 0.143907 0.936133 0.140948 0.931351 0.145295 0.933588 0.143907 0.936133 0.106135 0.934287 0.108461 0.932237 0.10798 0.935619 0.116959 0.949762 0.117098 0.951615 0.112556 0.951549 0.116959 0.949762 0.112556 0.951549 0.11298 0.949767 0.117098 0.951615 0.114817 0.954357 0.112556 0.951549 0.142854 0.96511 0.142991 0.963737 0.146646 0.963725 0.142854 0.96511 0.146646 0.963725 0.147603 0.965151 0.137875 0.932155 0.140948 0.931351 0.140948 0.936085 0.137875 0.932155 0.140948 0.936085 0.138282 0.935347 0.117171 0.956673 0.117916 0.958272 0.115977 0.958272 0.119482 0.954478 0.117171 0.956673 0.114817 0.954357 0.142854 0.96511 0.145098 0.966542 0.140571 0.966605 0.140571 0.966605 0.145098 0.966542 0.143977 0.967641 0.140571 0.966605 0.143977 0.967641 0.14195 0.967641 0.124093 0.915633 0.12524 0.916229 0.124547 0.91754 0.124093 0.915633 0.124547 0.91754 0.123414 0.917271 0.119482 0.954478 0.120373 0.95666 0.117171 0.956673 0.138507 0.9651 0.142854 0.96511 0.140571 0.966605 0.140571 0.966605 0.14195 0.967641 0.140061 0.967641 0.124093 0.915633 0.125997 0.913558 0.126352 0.914475 0.124093 0.915633 0.126352 0.914475 0.12524 0.916229 0.122539 0.954487 0.122193 0.95666 0.120373 0.95666 0.122539 0.954487 0.120373 0.95666 0.119482 0.954478 0.138507 0.9651 0.140571 0.966605 0.13763 0.966601 0.13763 0.966601 0.140571 0.966605 0.140061 0.967641 0.13763 0.966601 0.140061 0.967641 0.138439 0.967641 0.137414 0.945154 0.140472 0.943603 0.138913 0.947368 0.105603 0.965151 0.108539 0.965111 0.108323 0.966601 0.105603 0.965151 0.108323 0.966601 0.105578 0.966627 0.105578 0.966627 0.108323 0.966601 0.107515 0.967641 0.105578 0.966627 0.107515 0.967641 0.104876 0.96765 0.125997 0.913558 0.128218 0.912467 0.128219 0.913783 0.125997 0.913558 0.128219 0.913783 0.126352 0.914475 0.140472 0.943603 0.142879 0.947268 0.138913 0.947368 0.142879 0.947268 0.143977 0.948939 0.142037 0.948939 0.143952 0.943698 0.142879 0.947268 0.140472 0.943603 0.105603 0.965151 0.105578 0.966627 0.099955 0.966629 0.105603 0.965151 0.099955 0.966629 0.100897 0.965096 0.099955 0.966629 0.105578 0.966627 0.104876 0.96765 0.099955 0.966629 0.104876 0.96765 0.101977 0.967641 0.142879 0.947268 0.147277 0.947329 0.145916 0.948939 0.142879 0.947268 0.145916 0.948939 0.143977 0.948939 0.147555 0.945199 0.147277 0.947329 0.142879 0.947268 0.147555 0.945199 0.142879 0.947268 0.143952 0.943698 0.099955 0.966629 0.101977 0.967641 0.0999496 0.967641 0.132699 0.912834 0.132819 0.914274 0.131459 0.913672 0.0973363 0.965111 0.100897 0.965096 0.099955 0.966629 0.099955 0.966629 0.0999496 0.967641 0.0980607 0.967641 0.135283 0.914814 0.13458 0.915494 0.132819 0.914274 0.135283 0.914814 0.132819 0.914274 0.132699 0.912834 0.147555 0.945199 0.150539 0.945154 0.150193 0.947327 0.147555 0.945199 0.150193 0.947327 0.147277 0.947329 0.0973363 0.965111 0.099955 0.966629 0.0956302 0.966601 0.0973363 0.965111 0.0956302 0.966601 0.0954141 0.965111 0.0956302 0.966601 0.099955 0.966629 0.0980607 0.967641 0.0956302 0.966601 0.0980607 0.967641 0.0964387 0.967641 0.151414 0.959154 0.154472 0.957603 0.152752 0.961351 0.121837 0.971303 0.12189 0.972308 0.120184 0.972317 0.135283 0.914814 0.136539 0.917271 0.135224 0.917272 0.135283 0.914814 0.135224 0.917272 0.13458 0.915494 0.154472 0.957603 0.156723 0.961293 0.152752 0.961351 0.119196 0.970228 0.12209 0.969756 0.121837 0.971303 0.121837 0.971303 0.120184 0.972317 0.119196 0.970228 0.156723 0.961293 0.157977 0.962939 0.156037 0.962939 0.158108 0.957791 0.156723 0.961293 0.154472 0.957603 0.119196 0.970228 0.120184 0.972317 0.11831 0.972308 0.156723 0.961293 0.16131 0.96131 0.159916 0.962939 0.156723 0.961293 0.159916 0.962939 0.157977 0.962939 0.158108 0.957791 0.161666 0.957688 0.16131 0.96131 0.158108 0.957791 0.16131 0.96131 0.156723 0.961293 0.119196 0.970228 0.116109 0.971281 0.116039 0.969781 0.116109 0.971281 0.119196 0.970228 0.11831 0.972308 0.116109 0.971281 0.11831 0.972308 0.117 0.972308 0.136281 0.921558 0.134748 0.921882 0.135386 0.920431 0.116109 0.971281 0.117 0.972308 0.115778 0.972308 0.136281 0.921558 0.134781 0.923834 0.133601 0.923584 0.136281 0.921558 0.133601 0.923584 0.134748 0.921882 0.161666 0.957688 0.164539 0.959154 0.164193 0.961326 0.161666 0.957688 0.164193 0.961326 0.16131 0.96131 0.114068 0.969777 0.116039 0.969781 0.116109 0.971281 0.114068 0.969777 0.116109 0.971281 0.114207 0.971268 0.116109 0.971281 0.115778 0.972308 0.11473 0.972308 0.116109 0.971281 0.11473 0.972308 0.114207 0.971268 0.133374 0.924914 0.133601 0.923584 0.134781 0.923834 0.126404 0.945199 0.125581 0.947327 0.12376 0.947327 0.126404 0.945199 0.12376 0.947327 0.123414 0.945154 0.105603 0.960484 0.108539 0.960444 0.107273 0.961966 0.107273 0.961966 0.107515 0.962974 0.104876 0.962983 0.133374 0.924914 0.131735 0.925592 0.13183 0.924209 0.133374 0.924914 0.13183 0.924209 0.133601 0.923584 0.126404 0.945199 0.128827 0.94723 0.125581 0.947327 0.105603 0.960484 0.107273 0.961966 0.10327 0.961937 0.107273 0.961966 0.104876 0.962983 0.10327 0.961937 0.128827 0.94723 0.129977 0.948939 0.128037 0.948939 0.126404 0.945199 0.131196 0.945091 0.128827 0.94723 0.105603 0.960484 0.10327 0.961937 0.100776 0.960443 0.10327 0.961937 0.104876 0.962983 0.101977 0.962974 0.133232 0.947362 0.131916 0.948939 0.129977 0.948939 0.133232 0.947362 0.129977 0.948939 0.128827 0.94723 0.131196 0.945091 0.133232 0.947362 0.128827 0.94723 0.100776 0.960443 0.10327 0.961937 0.098676 0.961973 0.098676 0.961973 0.10327 0.961937 0.101977 0.962974 0.098676 0.961973 0.101977 0.962974 0.0999496 0.962974 0.12745 0.925313 0.126552 0.923429 0.128544 0.924373 0.134617 0.945154 0.133232 0.947362 0.131196 0.945091 0.100776 0.960443 0.098676 0.961973 0.0965058 0.960429 0.098676 0.961973 0.0999496 0.962974 0.0971832 0.962972 0.12745 0.925313 0.124764 0.923368 0.126552 0.923429 0.134617 0.945154 0.136539 0.945154 0.136193 0.947327 0.134617 0.945154 0.136193 0.947327 0.133232 0.947362 0.0965058 0.960429 0.098676 0.961973 0.0956302 0.961934 0.098676 0.961973 0.0971832 0.962972 0.0956302 0.961934 0.124764 0.923368 0.125032 0.92157 0.126552 0.923429 0.147603 0.965151 0.150539 0.965111 0.149393 0.966615 0.149393 0.966615 0.149515 0.967641 0.147893 0.967641 0.123414 0.920788 0.124524 0.920309 0.125032 0.92157 0.123414 0.920788 0.125032 0.92157 0.124764 0.923368 0.110298 0.95455 0.114817 0.954357 0.113701 0.95666 0.110298 0.95455 0.113701 0.95666 0.110568 0.956641 0.147603 0.965151 0.149393 0.966615 0.145098 0.966542 0.149393 0.966615 0.147893 0.967641 0.146004 0.967641 0.149393 0.966615 0.146004 0.967641 0.145098 0.966542 0.117171 0.956673 0.115977 0.958272 0.114037 0.958272 0.117171 0.956673 0.114037 0.958272 0.113701 0.95666 0.114817 0.954357 0.117171 0.956673 0.113701 0.95666 0.147603 0.965151 0.145098 0.966542 0.142854 0.96511 0.145098 0.966542 0.146004 0.967641 0.143977 0.967641</float_array>
                    <technique_common>
                        <accessor count="750" source="#shape0-lib-map-array" stride="2">
                            <param name="U" type="float"/>
                            <param name="V" type="float"/>
                        </accessor>
                    </technique_common>
                </source>
                <vertices id="shape0-lib-vertices">
                    <input semantic="POSITION" source="#shape0-lib-positions"/>
                </vertices>
                <triangles count="250" material="material0">
                    <input offset="0" semantic="VERTEX" source="#shape0-lib-vertices"/>
                    <input offset="1" semantic="COLOR" source="#shape0-lib-vcolor"/>
                    <input offset="2" semantic="NORMAL" source="#shape0-lib-normals"/>
                    <input offset="3" semantic="TEXCOORD" source="#shape0-lib-map"/>
                    <p>3 3 0 0 7 7 0 1 95 95 0 2 52 52 1 3 9 9 1 4 90 90 1 5 9 9 2 6 10 10 2 7 2 2 2 8 9 9 3 9 2 2 3 10 90 90 3 11 10 10 4 12 11 11 4 13 3 3 4 14 10 10 5 15 3 3 5 16 2 2 5 17 11 11 6 18 7 7 6 19 3 3 6 20 14 14 7 21 15 15 7 22 6 6 7 23 14 14 8 24 6 6 8 25 5 5 8 26 15 15 9 27 100 100 9 28 6 6 9 29 11 11 10 30 12 12 10 31 7 7 10 32 16 16 11 33 13 13 11 34 8 8 11 35 9 9 12 36 17 17 12 37 10 10 12 38 17 17 13 39 18 18 13 40 11 11 13 41 17 17 14 42 11 11 14 43 10 10 14 44 18 18 15 45 12 12 15 46 11 11 15 47 16 16 16 48 19 19 16 49 13 13 16 50 20 20 17 51 21 21 17 52 15 15 17 53 20 20 18 54 15 15 18 55 14 14 18 56 21 21 19 57 100 100 19 58 15 15 19 59 21 21 20 60 22 22 20 61 100 100 20 62 22 22 21 63 23 23 21 64 100 100 21 65 23 23 22 66 1 1 22 67 100 100 22 68 9 9 23 69 24 24 23 70 17 17 23 71 24 24 24 72 25 25 24 73 18 18 24 74 24 24 25 75 18 18 25 76 17 17 25 77 28 28 26 78 29 29 26 79 21 21 26 80 28 28 27 81 21 21 27 82 20 20 27 83 29 29 28 84 22 22 28 85 21 21 28 86 52 52 29 87 30 30 29 88 9 9 29 89 30 30 30 90 31 31 30 91 24 24 30 92 30 30 31 93 24 24 31 94 9 9 31 95 31 31 32 96 32 32 32 97 25 25 32 98 31 31 33 99 25 25 33 100 24 24 33 101 32 32 34 102 33 33 34 103 25 25 34 104 35 35 35 105 40 40 35 106 29 29 35 107 35 35 36 108 29 29 36 109 28 28 36 110 40 40 37 111 41 41 37 112 22 22 37 113 40 40 38 114 22 22 38 115 29 29 38 116 41 41 39 117 23 23 39 118 22 22 39 119 30 30 40 120 36 36 40 121 31 31 40 122 36 36 41 123 37 37 41 124 32 32 41 125 36 36 42 126 32 32 42 127 31 31 42 128 37 37 43 129 38 38 43 130 33 33 43 131 37 37 44 132 33 33 44 133 32 32 44 134 42 42 45 135 39 39 45 136 34 34 45 137 43 43 46 138 40 40 46 139 35 35 46 140 30 30 47 141 45 45 47 142 36 36 47 143 45 45 48 144 46 46 48 145 37 37 48 146 45 45 49 147 37 37 49 148 36 36 49 149 46 46 50 150 38 38 50 151 37 37 50 152 42 42 51 153 47 47 51 154 39 39 51 155 43 43 52 156 48 48 52 157 40 40 52 158 48 48 53 159 41 41 53 160 40 40 53 161 52 52 54 162 44 44 54 163 30 30 54 164 44 44 55 165 45 45 55 166 30 30 55 167 113 113 56 168 48 48 56 169 43 43 56 170 44 44 57 171 49 49 57 172 45 45 57 173 49 49 58 174 50 50 58 175 46 46 58 176 49 49 59 177 46 46 59 178 45 45 59 179 113 113 60 180 54 54 60 181 48 48 60 182 54 54 61 183 55 55 61 184 41 41 61 185 54 54 62 186 41 41 62 187 48 48 62 188 55 55 63 189 1 1 63 190 23 23 63 191 55 55 64 192 23 23 64 193 41 41 64 194 44 44 65 195 56 56 65 196 49 49 65 197 56 56 66 198 57 57 66 199 50 50 66 200 56 56 67 201 50 50 67 202 49 49 67 203 59 59 68 204 54 54 68 205 113 113 68 206 52 52 69 207 68 68 69 208 44 44 69 209 68 68 70 210 56 56 70 211 44 44 70 212 59 59 71 213 65 65 71 214 54 54 71 215 65 65 72 216 55 55 72 217 54 54 72 218 68 68 73 219 60 60 73 220 56 56 73 221 60 60 74 222 61 61 74 223 57 57 74 224 60 60 75 225 57 57 75 226 56 56 75 227 61 61 76 228 62 62 76 229 57 57 76 230 66 66 77 231 63 63 77 232 58 58 77 233 64 64 78 234 65 65 78 235 59 59 78 236 68 68 79 237 69 69 79 238 60 60 79 239 69 69 80 240 70 70 80 241 61 61 80 242 69 69 81 243 61 61 81 244 60 60 81 245 70 70 82 246 71 71 82 247 62 62 82 248 70 70 83 249 62 62 83 250 61 61 83 251 66 66 84 252 72 72 84 253 63 63 84 254 73 73 85 255 74 74 85 256 65 65 85 257 73 73 86 258 65 65 86 259 64 64 86 260 74 74 87 261 67 67 87 262 55 55 87 263 74 74 88 264 55 55 88 265 65 65 88 266 67 67 89 267 1 1 89 268 55 55 89 269 89 89 90 270 68 68 90 271 52 52 90 272 89 89 91 273 75 75 91 274 69 69 91 275 89 89 92 276 69 69 92 277 68 68 92 278 75 75 93 279 70 70 93 280 69 69 93 281 75 75 94 282 77 77 94 283 71 71 94 284 75 75 95 285 71 71 95 286 70 70 95 287 79 79 96 288 80 80 96 289 74 74 96 290 79 79 97 291 74 74 97 292 73 73 97 293 80 80 98 294 67 67 98 295 74 74 98 296 89 89 99 297 81 81 99 298 75 75 99 299 81 81 100 300 82 82 100 301 75 75 100 302 82 82 101 303 77 77 101 304 75 75 101 305 80 80 102 306 99 99 102 307 67 67 102 308 82 82 103 309 83 83 103 310 77 77 103 311 87 87 104 312 88 88 104 313 80 80 104 314 87 87 105 315 80 80 105 316 79 79 105 317 88 88 106 318 99 99 106 319 80 80 106 320 90 90 107 321 84 84 107 322 81 81 107 323 90 90 108 324 81 81 108 325 89 89 108 326 84 84 109 327 85 85 109 328 82 82 109 329 84 84 110 330 82 82 110 331 81 81 110 332 85 85 111 333 91 91 111 334 83 83 111 335 85 85 112 336 83 83 112 337 82 82 112 338 90 90 113 339 93 93 113 340 84 84 113 341 93 93 114 342 94 94 114 343 85 85 114 344 93 93 115 345 85 85 115 346 84 84 115 347 94 94 116 348 91 91 116 349 85 85 116 350 97 97 117 351 98 98 117 352 88 88 117 353 97 97 118 354 88 88 118 355 87 87 118 356 98 98 119 357 99 99 119 358 88 88 119 359 52 52 120 360 90 90 120 361 89 89 120 362 94 94 121 363 95 95 121 364 91 91 121 365 99 99 122 366 100 100 122 367 67 67 122 368 100 100 123 369 1 1 123 370 67 67 123 371 90 90 124 372 2 2 124 373 93 93 124 374 2 2 125 375 3 3 125 376 94 94 125 377 2 2 126 378 94 94 126 379 93 93 126 380 3 3 127 381 95 95 127 382 94 94 127 383 5 5 128 384 6 6 128 385 98 98 128 386 5 5 129 387 98 98 129 388 97 97 129 389 6 6 130 390 100 100 130 391 99 99 130 392 6 6 131 393 99 99 131 394 98 98 131 395 101 101 132 396 4 4 132 397 0 0 132 398 7 7 133 399 101 101 133 400 95 95 133 401 5 5 134 402 126 126 134 403 103 103 134 404 103 103 135 405 126 126 135 406 0 0 135 407 103 103 136 408 0 0 136 409 4 4 136 410 102 102 137 411 8 8 137 412 4 4 137 413 102 102 138 414 4 4 138 415 101 101 138 416 7 7 139 417 102 102 139 418 101 101 139 419 14 14 140 420 5 5 140 421 103 103 140 422 103 103 141 423 4 4 141 424 8 8 141 425 102 102 142 426 105 105 142 427 16 16 142 428 102 102 143 429 16 16 143 430 8 8 143 431 12 12 144 432 105 105 144 433 102 102 144 434 12 12 145 435 102 102 145 436 7 7 145 437 14 14 146 438 103 103 146 439 104 104 146 440 104 104 147 441 103 103 147 442 8 8 147 443 104 104 148 444 8 8 148 445 13 13 148 446 12 12 149 447 18 18 149 448 105 105 149 449 20 20 150 450 14 14 150 451 104 104 150 452 20 20 151 453 104 104 151 454 106 106 151 455 106 106 152 456 104 104 152 457 13 13 152 458 106 106 153 459 13 13 153 460 19 19 153 461 105 105 154 462 107 107 154 463 19 19 154 464 105 105 155 465 19 19 155 466 16 16 155 467 18 18 156 468 107 107 156 469 105 105 156 470 107 107 157 471 26 26 157 472 19 19 157 473 25 25 158 474 107 107 158 475 18 18 158 476 20 20 159 477 106 106 159 478 108 108 159 479 20 20 160 480 108 108 160 481 28 28 160 482 108 108 161 483 106 106 161 484 19 19 161 485 108 108 162 486 19 19 162 487 26 26 162 488 107 107 163 489 109 109 163 490 27 27 163 491 107 107 164 492 27 27 164 493 26 26 164 494 33 33 165 495 109 109 165 496 107 107 165 497 33 33 166 498 107 107 166 499 25 25 166 500 108 108 167 501 26 26 167 502 27 27 167 503 109 109 168 504 34 34 168 505 27 27 168 506 35 35 169 507 28 28 169 508 108 108 169 509 108 108 170 510 27 27 170 511 34 34 170 512 110 110 171 513 42 42 171 514 34 34 171 515 110 110 172 516 34 34 172 517 109 109 172 518 33 33 173 519 38 38 173 520 110 110 173 521 33 33 174 522 110 110 174 523 109 109 174 524 35 35 175 525 108 108 175 526 111 111 175 527 35 35 176 528 111 111 176 529 43 43 176 530 111 111 177 531 108 108 177 532 34 34 177 533 111 111 178 534 34 34 178 535 39 39 178 536 38 38 179 537 46 46 179 538 110 110 179 539 111 111 180 540 39 39 180 541 47 47 180 542 110 110 181 543 112 112 181 544 47 47 181 545 110 110 182 546 47 47 182 547 42 42 182 548 46 46 183 549 112 112 183 550 110 110 183 551 113 113 184 552 43 43 184 553 111 111 184 554 111 111 185 555 47 47 185 556 113 113 185 557 112 112 186 558 51 51 186 559 47 47 186 560 50 50 187 561 112 112 187 562 46 46 187 563 113 113 188 564 47 47 188 565 51 51 188 566 112 112 189 567 114 114 189 568 53 53 189 569 112 112 190 570 53 53 190 571 51 51 190 572 50 50 191 573 57 57 191 574 114 114 191 575 50 50 192 576 114 114 192 577 112 112 192 578 113 113 193 579 115 115 193 580 59 59 193 581 115 115 194 582 113 113 194 583 51 51 194 584 115 115 195 585 51 51 195 586 53 53 195 587 114 114 196 588 58 58 196 589 53 53 196 590 115 115 197 591 53 53 197 592 58 58 197 593 114 114 198 594 116 116 198 595 66 66 198 596 114 114 199 597 66 66 199 598 58 58 199 599 57 57 200 600 62 62 200 601 116 116 200 602 57 57 201 603 116 116 201 604 114 114 201 605 64 64 202 606 59 59 202 607 115 115 202 608 64 64 203 609 115 115 203 610 118 118 203 611 115 115 204 612 58 58 204 613 63 63 204 614 115 115 205 615 63 63 205 616 118 118 205 617 117 117 206 618 66 66 206 619 116 116 206 620 71 71 207 621 117 117 207 622 116 116 207 623 71 71 208 624 116 116 208 625 62 62 208 626 73 73 209 627 64 64 209 628 118 118 209 629 118 118 210 630 63 63 210 631 72 72 210 632 117 117 211 633 119 119 211 634 72 72 211 635 117 117 212 636 72 72 212 637 66 66 212 638 71 71 213 639 119 119 213 640 117 117 213 641 73 73 214 642 118 118 214 643 120 120 214 644 118 118 215 645 72 72 215 646 120 120 215 647 119 119 216 648 76 76 216 649 72 72 216 650 71 71 217 651 77 77 217 652 119 119 217 653 73 73 218 654 120 120 218 655 79 79 218 656 120 120 219 657 72 72 219 658 76 76 219 659 121 121 220 660 78 78 220 661 76 76 220 662 121 121 221 663 76 76 221 664 119 119 221 665 77 77 222 666 121 121 222 667 119 119 222 668 79 79 223 669 120 120 223 670 122 122 223 671 122 122 224 672 120 120 224 673 76 76 224 674 122 122 225 675 76 76 225 676 78 78 225 677 121 121 226 678 86 86 226 679 78 78 226 680 83 83 227 681 121 121 227 682 77 77 227 683 79 79 228 684 122 122 228 685 87 87 228 686 122 122 229 687 78 78 229 688 86 86 229 689 121 121 230 690 123 123 230 691 86 86 230 692 83 83 231 693 91 91 231 694 123 123 231 695 83 83 232 696 123 123 232 697 121 121 232 698 87 87 233 699 122 122 233 700 124 124 233 701 122 122 234 702 86 86 234 703 124 124 234 704 123 123 235 705 92 92 235 706 86 86 235 707 97 97 236 708 87 87 236 709 124 124 236 710 124 124 237 711 86 86 237 712 92 92 237 713 125 125 238 714 96 96 238 715 92 92 238 716 125 125 239 717 92 92 239 718 123 123 239 719 91 91 240 720 95 95 240 721 125 125 240 722 91 91 241 723 125 125 241 724 123 123 241 725 97 97 242 726 124 124 242 727 126 126 242 728 124 124 243 729 92 92 243 730 96 96 243 731 124 124 244 732 96 96 244 733 126 126 244 734 101 101 245 735 0 0 245 736 96 96 245 737 101 101 246 738 96 96 246 739 125 125 246 740 95 95 247 741 101 101 247 742 125 125 247 743 97 97 248 744 126 126 248 745 5 5 248 746 126 126 249 747 96 96 249 748 0 0 249 749</p>
                </triangles>
            </mesh>
        </geometry>
    </library_geometries>
    <library_visual_scenes>
        <visual_scene id="VisualSceneNode" name="VisualScene">
            <node id="node" name="node">
                <instance_geometry url="#shape0-lib">
                    <bind_material>
                        <technique_common>
                            <instance_material symbol="material0" target="#material0">
                                <bind_vertex_input semantic="UVSET0" input_semantic="TEXCOORD"/>
                            </instance_material>
                        </technique_common>
                    </bind_material>
                </instance_geometry>
            </node>
        </visual_scene>
    </library_visual_scenes>
    <scene>
        <instance_visual_scene url="#VisualSceneNode"/>
    </scene>
</COLLADA>
