<?xml version="1.0" encoding="UTF-8"?>
<COLLADA xmlns="http://www.collada.org/2005/11/COLLADASchema" version="1.4.1">
    <asset>
        <contributor>
            <author>VCGLab</author>
            <authoring_tool>VCGLib | MeshLab</authoring_tool>
        </contributor>
        <created>Thu Jul 3 02:14:21 2025 GMT</created>
        <modified>Thu Jul 3 02:14:21 2025 GMT</modified>
        <up_axis>Y_UP</up_axis>
    </asset>
    <library_images>
        <image id="texture0" name="texture0">
            <init_from>./image/shelf_items.png</init_from>
        </image>
    </library_images>
    <library_materials>
        <material id="material0" name="material0">
            <instance_effect url="#material0-fx"/>
        </material>
    </library_materials>
    <library_effects>
        <effect id="material0-fx">
            <profile_COMMON>
                <newparam sid="texture0-surface">
                    <surface type="2D">
                        <init_from>texture0</init_from>
                        <format>R8G8B8</format>
                    </surface>
                </newparam>
                <newparam sid="texture0-sampler">
                    <sampler2D>
                        <source>texture0-surface</source>
                        <minfilter>LINEAR</minfilter>
                        <magfilter>LINEAR</magfilter>
                    </sampler2D>
                </newparam>
                <technique sid="common">
                    <blinn>
                        <diffuse>
                            <texture texture="texture0-sampler" texcoord="UVSET0"/>
                        </diffuse>
                    </blinn>
                </technique>
            </profile_COMMON>
        </effect>
    </library_effects>
    <library_geometries>
        <geometry id="shape0-lib" name="shape0">
            <mesh>
                <source id="shape0-lib-positions" name="position">
                    <float_array id="shape0-lib-positions-array" count="81">-0.0351927 -0.000201297 -0.0549971 0.00536612 0.00366098 0.0687576 0.0677764 0.00325329 -0.0136501 0.0241746 0.00323169 -0.064164 -0.0539182 0.178265 0.000999778 -0.0248905 0.176945 -0.0488155 -0.0509583 0.175348 -0.0215407 -0.0453732 0.174707 0.0321186 -0.0247808 0.177721 0.0478488 0.000214601 0.174942 0.0562203 0.0271119 0.177659 0.0463902 0.0445286 0.174807 0.033034 0.0509524 0.178076 0.0149958 0.0448247 0.174705 -0.032877 0.0278842 0.177432 -0.0462544 0.00700815 0.174457 -0.0555581 -0.0160614 0.00576879 -0.0685467 -0.0587342 0.00579321 -0.0395882 -0.0682886 0.00335285 -0.00290541 -0.0653245 0.00604017 0.0248068 -0.0494455 0.00320919 0.0472442 -0.0272382 0.00603945 0.064294 0.0420863 0.00613401 0.0560172 0.0647419 0.00547155 0.0258309 0.0557191 0.00566203 -0.0422922 0.0527012 -9.00714e-05 0.0366214 0.0530962 0.178352 -0.00566913</float_array>
                    <technique_common>
                        <accessor count="27" source="#shape0-lib-positions-array" stride="3">
                            <param name="X" type="float"/>
                            <param name="Y" type="float"/>
                            <param name="Z" type="float"/>
                        </accessor>
                    </technique_common>
                </source>
                <source id="shape0-lib-normals" name="normal">
                    <float_array id="shape0-lib-normals-array" count="150">-0.0118635 -0.908757 -0.417158 -0.559839 -0.0781773 -0.824905 -0.334492 -0.930541 -0.149027 -0.345381 -0.929815 0.127109 -0.110297 -0.947254 0.300905 0.197784 -0.8967 0.395994 0.698752 -0.475051 0.534858 0.480234 -0.872919 0.0859552 0.185344 -0.969632 -0.159567 -0.219654 0.963422 -0.153524 -0.27873 0.942519 0.184305 0.00929722 0.957005 0.289922 0.367819 0.883171 0.291064 0.323061 0.92008 -0.221551 0.00670101 0.948006 -0.318181 -0.198089 0.102152 -0.974847 -0.560266 0.0662741 -0.825657 -0.721947 0.105893 -0.683798 -0.986504 0.0841849 -0.140435 -0.966434 0.0706144 -0.24702 -0.991981 0.0793022 0.0984148 -0.956336 0.101238 0.274178 -0.810012 0.0705783 0.582151 -0.613535 0.0839942 0.785187 -0.612621 0.0838625 0.785915 -0.306619 0.0951075 0.947069 -0.130415 0.0684767 0.989092 0.334798 0.0819152 0.938723 0.322035 0.0787437 0.943447 0.615641 0.0976344 0.781955 0.798577 0.0698955 0.59782 0.932009 0.0963911 0.349382 0.994191 0.0800748 0.0719124 0.990886 0.0856872 0.103937 0.921072 0.0805792 -0.380963 0.949043 0.093288 -0.301024 0.564518 0.0725128 -0.822229 0.625818 0.0835245 -0.775484 0.395372 0.0856035 -0.914523 0.111887 0.0610682 -0.991843 0.0504081 -0.997615 -0.0471478 0.0573863 -0.997144 -0.0491073 -0.0237217 -0.996402 0.0813628 -0.0313547 -0.999469 0.00891799 -0.0419506 -0.998259 0.0414571 -0.00837016 0.999812 -0.0174703 -0.0025533 0.999605 -0.0279774 -8.28551e-05 0.999932 0.0116694 0.00159627 0.999899 0.0141124 5.82089e-05 0.999911 0.0133449</float_array>
                    <technique_common>
                        <accessor count="50" source="#shape0-lib-normals-array" stride="3">
                            <param name="X" type="float"/>
                            <param name="Y" type="float"/>
                            <param name="Z" type="float"/>
                        </accessor>
                    </technique_common>
                </source>
                <source id="shape0-lib-vcolor" name="vcolor">
                    <float_array id="shape0-lib-vcolor-array" count="108">1 1 1 1 1 1 1 1 1 1 1 1 1 1 1 1 1 1 1 1 1 1 1 1 1 1 1 1 1 1 1 1 1 1 1 1 1 1 1 1 1 1 1 1 1 1 1 1 1 1 1 1 1 1 1 1 1 1 1 1 1 1 1 1 1 1 1 1 1 1 1 1 1 1 1 1 1 1 1 1 1 1 1 1 1 1 1 1 1 1 1 1 1 1 1 1 1 1 1 1 1 1 1 1 1 1 1 1</float_array>
                    <technique_common>
                        <accessor count="27" source="#shape0-lib-vcolor-array" stride="4">
                            <param name="R" type="float"/>
                            <param name="G" type="float"/>
                            <param name="B" type="float"/>
                            <param name="A" type="float"/>
                        </accessor>
                    </technique_common>
                </source>
                <source id="shape0-lib-map" name="map">
                    <float_array id="shape0-lib-map-array" count="300">0.263298 0.660359 0.265912 0.658559 0.271724 0.659004 0.263298 0.660359 0.260133 0.662656 0.265912 0.658559 0.258726 0.667661 0.260133 0.662656 0.263298 0.660359 0.26138 0.674647 0.259177 0.671534 0.258726 0.667661 0.26138 0.674647 0.269274 0.677593 0.264639 0.677081 0.275498 0.67295 0.274337 0.675738 0.269274 0.677593 0.275498 0.67295 0.27746 0.67152 0.274337 0.675738 0.277791 0.666145 0.27746 0.67152 0.275498 0.67295 0.271724 0.659004 0.276115 0.66204 0.277791 0.666145 0.277395 0.685929 0.277813 0.690102 0.272736 0.681061 0.276323 0.695322 0.272737 0.698107 0.277813 0.690102 0.268306 0.699384 0.263511 0.697887 0.272737 0.698107 0.260381 0.695388 0.259219 0.692214 0.263511 0.697887 0.26048 0.68371 0.26342 0.681349 0.259194 0.688476 0.267059 0.679856 0.272736 0.681061 0.26342 0.681349 0.325699 0.647403 0.327554 0.677867 0.320992 0.67763 0.3322 0.647688 0.327554 0.677867 0.325699 0.647403 0.358138 0.647449 0.36135 0.677772 0.357846 0.677516 0.365646 0.647449 0.367097 0.677751 0.36135 0.677772 0.365646 0.647449 0.36135 0.677772 0.358138 0.647449 0.365646 0.647449 0.370704 0.647443 0.367097 0.677751 0.370704 0.647443 0.372274 0.677586 0.367097 0.677751 0.375458 0.647626 0.372274 0.677586 0.370704 0.647443 0.377447 0.647491 0.381878 0.647455 0.381762 0.677704 0.377447 0.647491 0.381762 0.677704 0.379473 0.677516 0.381878 0.647455 0.387319 0.6777 0.381762 0.677704 0.388817 0.647472 0.387319 0.6777 0.381878 0.647455 0.395963 0.647575 0.392786 0.677697 0.387319 0.6777 0.395963 0.647575 0.387319 0.6777 0.388817 0.647472 0.395963 0.647575 0.395086 0.677418 0.392786 0.677697 0.29094 0.647493 0.295555 0.647379 0.294164 0.677641 0.295555 0.647379 0.297915 0.677686 0.294164 0.677641 0.295555 0.647379 0.302554 0.647441 0.302009 0.67769 0.295555 0.647379 0.302009 0.67769 0.297915 0.677686 0.302554 0.647441 0.309507 0.647535 0.307489 0.677578 0.302554 0.647441 0.307489 0.677578 0.302009 0.67769 0.312568 0.647494 0.317032 0.647435 0.316877 0.6777 0.312568 0.647494 0.316877 0.6777 0.314586 0.677442 0.317032 0.647435 0.320992 0.67763 0.316877 0.6777 0.325699 0.647403 0.320992 0.67763 0.317032 0.647435 0.263298 0.660359 0.271724 0.659004 0.275498 0.67295 0.271724 0.659004 0.277791 0.666145 0.275498 0.67295 0.269274 0.677593 0.26138 0.674647 0.275498 0.67295 0.26138 0.674647 0.258726 0.667661 0.275498 0.67295 0.258726 0.667661 0.263298 0.660359 0.275498 0.67295 0.26342 0.681349 0.272736 0.681061 0.259194 0.688476 0.272736 0.681061 0.277813 0.690102 0.259194 0.688476 0.277813 0.690102 0.272737 0.698107 0.259194 0.688476 0.272737 0.698107 0.263511 0.697887 0.259194 0.688476 0.263511 0.697887 0.259219 0.692214 0.259194 0.688476</float_array>
                    <technique_common>
                        <accessor count="150" source="#shape0-lib-map-array" stride="2">
                            <param name="U" type="float"/>
                            <param name="V" type="float"/>
                        </accessor>
                    </technique_common>
                </source>
                <vertices id="shape0-lib-vertices">
                    <input semantic="POSITION" source="#shape0-lib-positions"/>
                </vertices>
                <triangles count="50" material="material0">
                    <input offset="0" semantic="VERTEX" source="#shape0-lib-vertices"/>
                    <input offset="1" semantic="COLOR" source="#shape0-lib-vcolor"/>
                    <input offset="2" semantic="NORMAL" source="#shape0-lib-normals"/>
                    <input offset="3" semantic="TEXCOORD" source="#shape0-lib-map"/>
                    <p>0 0 0 0 16 16 0 1 3 3 0 2 0 0 1 3 17 17 1 4 16 16 1 5 18 18 2 6 17 17 2 7 0 0 2 8 20 20 3 9 19 19 3 10 18 18 3 11 20 20 4 12 1 1 4 13 21 21 4 14 25 25 5 15 22 22 5 16 1 1 5 17 25 25 6 18 23 23 6 19 22 22 6 20 2 2 7 21 23 23 7 22 25 25 7 23 3 3 8 24 24 24 8 25 2 2 8 26 6 6 9 27 4 4 9 28 5 5 9 29 7 7 10 30 8 8 10 31 4 4 10 32 9 9 11 33 10 10 11 34 8 8 11 35 11 11 12 36 12 12 12 37 10 10 12 38 13 13 13 39 14 14 13 40 26 26 13 41 15 15 14 42 5 5 14 43 14 14 14 44 16 16 15 45 5 5 15 46 15 15 15 47 17 17 16 48 5 5 16 49 16 16 16 50 17 17 17 51 6 6 17 52 5 5 17 53 18 18 18 54 4 4 18 55 6 6 18 56 18 18 19 57 6 6 19 58 17 17 19 59 18 18 20 60 19 19 20 61 4 4 20 62 19 19 21 63 7 7 21 64 4 4 21 65 20 20 22 66 7 7 22 67 19 19 22 68 20 20 23 69 21 21 23 70 8 8 23 71 20 20 24 72 8 8 24 73 7 7 24 74 21 21 25 75 9 9 25 76 8 8 25 77 1 1 26 78 9 9 26 79 21 21 26 80 22 22 27 81 10 10 27 82 9 9 27 83 22 22 28 84 9 9 28 85 1 1 28 86 22 22 29 87 11 11 29 88 10 10 29 89 22 22 30 90 23 23 30 91 11 11 30 92 23 23 31 93 12 12 31 94 11 11 31 95 23 23 32 96 2 2 32 97 26 26 32 98 23 23 33 99 26 26 33 100 12 12 33 101 2 2 34 102 24 24 34 103 13 13 34 104 2 2 35 105 13 13 35 106 26 26 35 107 24 24 36 108 3 3 36 109 14 14 36 110 24 24 37 111 14 14 37 112 13 13 37 113 3 3 38 114 15 15 38 115 14 14 38 116 16 16 39 117 15 15 39 118 3 3 39 119 0 0 40 120 3 3 40 121 25 25 40 122 3 3 41 123 2 2 41 124 25 25 41 125 1 1 42 126 20 20 42 127 25 25 42 128 20 20 43 129 18 18 43 130 25 25 43 131 18 18 44 132 0 0 44 133 25 25 44 134 14 14 45 135 5 5 45 136 26 26 45 137 5 5 46 138 4 4 46 139 26 26 46 140 4 4 47 141 8 8 47 142 26 26 47 143 8 8 48 144 10 10 48 145 26 26 48 146 10 10 49 147 12 12 49 148 26 26 49 149</p>
                </triangles>
            </mesh>
        </geometry>
    </library_geometries>
    <library_visual_scenes>
        <visual_scene id="VisualSceneNode" name="VisualScene">
            <node id="node" name="node">
                <instance_geometry url="#shape0-lib">
                    <bind_material>
                        <technique_common>
                            <instance_material symbol="material0" target="#material0">
                                <bind_vertex_input semantic="UVSET0" input_semantic="TEXCOORD"/>
                            </instance_material>
                        </technique_common>
                    </bind_material>
                </instance_geometry>
            </node>
        </visual_scene>
    </library_visual_scenes>
    <scene>
        <instance_visual_scene url="#VisualSceneNode"/>
    </scene>
</COLLADA>
