<?xml version="1.0" encoding="UTF-8"?>
<COLLADA xmlns="http://www.collada.org/2005/11/COLLADASchema" version="1.4.1">
    <asset>
        <contributor>
            <author>VCGLab</author>
            <authoring_tool>VCGLib | MeshLab</authoring_tool>
        </contributor>
        <created>Thu Jul 3 01:58:33 2025 GMT</created>
        <modified>Thu Jul 3 01:58:33 2025 GMT</modified>
        <up_axis>Y_UP</up_axis>
    </asset>
    <library_images>
        <image id="texture0" name="texture0">
            <init_from>./image/shelf_items.png</init_from>
        </image>
    </library_images>
    <library_materials>
        <material id="material0" name="material0">
            <instance_effect url="#material0-fx"/>
        </material>
    </library_materials>
    <library_effects>
        <effect id="material0-fx">
            <profile_COMMON>
                <newparam sid="texture0-surface">
                    <surface type="2D">
                        <init_from>texture0</init_from>
                        <format>R8G8B8</format>
                    </surface>
                </newparam>
                <newparam sid="texture0-sampler">
                    <sampler2D>
                        <source>texture0-surface</source>
                        <minfilter>LINEAR</minfilter>
                        <magfilter>LINEAR</magfilter>
                    </sampler2D>
                </newparam>
                <technique sid="common">
                    <blinn>
                        <diffuse>
                            <texture texture="texture0-sampler" texcoord="UVSET0"/>
                        </diffuse>
                    </blinn>
                </technique>
            </profile_COMMON>
        </effect>
    </library_effects>
    <library_geometries>
        <geometry id="shape0-lib" name="shape0">
            <mesh>
                <source id="shape0-lib-positions" name="position">
                    <float_array id="shape0-lib-positions-array" count="381">0.0547018 0.0668299 0.000729472 0.0577015 0.0110089 -0.00586878 0.0670715 0.0231744 -0.00819217 0.0539898 0.0667177 -0.0147058 0.0639634 0.0405125 -0.00715465 0.0517483 0.0260764 -0.00636155 0.0668885 0.0417478 -0.0266721 0.0554598 0.0404534 -0.0318084 0.0114018 0.00600523 -0.00167753 0.0473289 0.0109594 -0.0340284 0.0524837 0.0217809 -0.0409539 0.0504617 0.0418133 -0.0504616 0.0428295 0.0668339 -0.0339177 0.045191 0.0404534 -0.0451909 0.040974 0.0255921 -0.0315897 0.0361392 0.066537 -0.0452689 0.0285468 0.0130219 -0.0183312 0.0238221 0.0109414 -0.0529621 0.0270943 0.0316417 -0.0664342 0.0171342 0.0668573 -0.0526282 0.0249315 0.0408997 -0.0595879 0.0189669 0.0256907 -0.0481723 -0.000499955 0.0111316 -0.0580629 -0.00209407 0.031006 -0.0709194 -0.000482137 0.0667474 -0.0555967 0.00579943 0.000206603 -0.0376513 -0.0135793 0.0668584 -0.0534869 -0.00383406 0.0195927 -0.0454581 -0.0211052 0.0109414 -0.0545016 -0.0257668 0.0226117 -0.0626077 -0.0283307 0.0421492 -0.066723 -0.0328084 0.0404534 -0.0554598 -0.0419102 0.0111316 -0.0409102 -0.048247 0.0228064 -0.047247 -0.0514616 0.0418133 -0.0504616 -0.031621 0.0668622 -0.0455673 -0.0461909 0.0404534 -0.045191 -0.03259 0.025592 -0.0409738 -0.0189331 0.00917882 -0.0190295 -0.0468431 0.0665569 -0.0351129 -0.0564597 0.0404534 -0.0318084 -0.0303899 0.000206599 -0.0240315 -0.053962 0.0109414 -0.023822 -0.0675062 0.0315299 -0.0266931 -0.0547775 0.0668313 -0.0148176 -0.049266 0.0263966 -0.021012 -0.0590629 0.0111316 0.000499994 -0.0722962 0.0316961 0.00232351 -0.0560048 0.0668017 -0.000783776 -0.0368717 0.000224493 0.00482053 -0.0547388 0.0667836 0.0140838 -0.0532253 0.0261732 0.00653918 -0.0281816 0.0110808 0.0129675 -0.0555016 0.0109413 0.021105 -0.0671659 0.0325631 0.0298715 -0.0609528 0.0404938 0.0241774 -0.0419102 0.0111316 0.0419102 -0.0482471 0.0228064 0.048247 -0.0514616 0.0418133 0.0514616 -0.0464557 0.066934 0.0315536 -0.046191 0.0404534 0.0461909 -0.0419734 0.0255919 0.0325902 -0.0371397 0.066537 0.0462685 -0.025812 0.0162973 0.059755 -0.0283287 0.0421511 0.0677235 -0.0168893 0.0667874 0.054371 -0.0259313 0.0408997 0.0605879 -0.0199667 0.0256907 0.0491723 -0.00664415 0.0114195 0.0305669 -0.0214513 0.000158775 0.0339117 -0.000499955 0.0111316 0.0590629 -0.000499955 0.0665274 0.0586982 -0.000499955 0.0668505 0.0550286 0.00716865 0.0316057 0.0724252 0.0138003 0.0668193 0.0538724 0.00784707 0.0404472 0.0651161 0.00559375 0.0261691 0.0532161 0.0201054 0.0109414 0.0555015 0.0247672 0.0226118 0.0636077 0.0355353 0.0418133 0.062915 0.0318084 0.0404534 0.0564598 0.0409103 0.0111316 0.0419102 0.0472471 0.0228064 0.048247 0.0342526 0.066946 0.0444243 0.045191 0.0404534 0.046191 0.0315899 0.025592 0.0419737 0.0220225 0.000206603 0.0319316 0.0573316 0.0423834 0.0441882 0.0359057 -0.000106554 -0.0093231 0.0529621 0.0109413 0.0248219 0.0620021 0.0226078 0.0272252 0.0716573 0.0407733 0.00948193 0.0557152 0.0665274 0.0155628 0.0499825 0.0668705 0.023789 0.0595739 0.0409006 0.0259646 0.0482661 0.0263967 0.0220123 0.0239793 0.0124002 0.0243039 0.0673783 0.05606 -0.00802906 0.0586274 0.056 -0.0336372 0.0578689 0.0560442 -0.0231814 0.0477773 0.056 -0.0477772 0.0436866 0.056 -0.0436866 0.0336372 0.056 -0.0586273 0.0248428 0.0563228 -0.0569112 0.00803142 0.0555904 -0.0680701 -0.00399681 0.0450747 -0.0659594 -0.0258385 0.0558453 -0.063077 -0.0235455 0.0560334 -0.0579258 -0.0487773 0.056 -0.0477773 -0.0596273 0.056 -0.0336372 -0.0503326 0.0565316 -0.0377179 -0.0687677 0.0557647 -0.00943867 -0.0662733 0.0442632 -0.00929088 -0.0664479 0.056 0.0181707 -0.0596273 0.056 0.0346372 -0.0589692 0.0561577 0.0241778 -0.0487773 0.056 0.0487772 -0.0346371 0.056 0.0596273 -0.0373461 0.0564764 0.0511465 -0.0095141 0.0552989 0.069086 -0.00971461 0.0560373 0.0626256 0.0232976 0.0557085 0.0651164 0.0223488 0.0564661 0.0590609 0.0530162 0.0556324 0.0442635 0.0496415 0.0562416 0.0383826 0.065448 0.056 0.0181707 0.0623745 0.0552952 0.00826229</float_array>
                    <technique_common>
                        <accessor count="127" source="#shape0-lib-positions-array" stride="3">
                            <param name="X" type="float"/>
                            <param name="Y" type="float"/>
                            <param name="Z" type="float"/>
                        </accessor>
                    </technique_common>
                </source>
                <source id="shape0-lib-normals" name="normal">
                    <float_array id="shape0-lib-normals-array" count="750">0.983491 -0.122671 -0.133034 0.469004 -0.866437 -0.171237 0.762388 -0.565035 -0.315435 0.737078 -0.619347 -0.270417 0.8589 -0.356946 -0.36726 -0.685428 0.672226 0.279822 -0.732105 0.633263 0.251 -0.563475 0.794794 0.225386 0.808657 -0.183634 -0.558885 -0.624873 0.61614 0.479484 -0.00555053 -0.999971 -0.00515538 0.263512 -0.907796 -0.326294 0.263515 -0.919962 -0.290225 0.490247 -0.528541 -0.693038 0.490785 -0.623359 -0.608732 0.622205 -0.283529 -0.729707 0.0349066 0.998299 -0.0466892 -0.459897 0.641334 0.614155 -0.417381 0.675129 0.608271 -0.34147 0.820722 0.458054 -0.18428 0.882048 0.433626 -0.0858122 0.942695 0.322433 -0.0760884 0.944491 0.319606 0.0965634 -0.864831 -0.492689 0.14007 -0.529852 -0.836443 0.166407 -0.55621 -0.814211 -0.0745869 0.624814 0.777203 -0.0827525 0.618793 0.781183 -0.0702301 -0.888335 -0.453794 -0.0739049 -0.588661 -0.804994 -0.137818 -0.545738 -0.826545 -0.248478 -0.230764 -0.940748 0.000255102 -1 0.000677515 -0.137823 -0.920268 -0.366212 0.249278 0.677848 0.691652 0.180077 0.6173 0.765841 0.250103 0.843542 0.475275 -0.26348 -0.881881 -0.390978 -0.453779 -0.602612 -0.656463 -0.431132 -0.624537 -0.651213 -0.557572 -0.22924 -0.797849 -0.549012 -0.240644 -0.800422 0.479485 0.616139 0.624874 -0.398672 -0.86975 -0.290854 -0.717974 -0.534501 -0.445895 -0.648302 -0.603702 -0.463949 -0.756983 -0.231381 -0.611098 -0.040068 0.998771 -0.0291691 0.589644 0.659669 0.466001 0.590043 0.668478 0.452754 0.447261 0.827134 0.340303 0.776915 0.582018 0.240121 -0.426632 -0.900661 -0.0824304 -0.413359 -0.905878 -0.0923018 -0.838607 -0.527638 -0.135413 -0.813025 -0.558019 -0.166146 0.755834 0.64479 0.113847 0.496491 0.863131 0.0922013 0.488347 0.869225 0.0772278 0.118084 0.992692 -0.0248768 -0.450932 -0.889831 0.0697218 -0.836123 -0.520845 0.172104 -0.827279 -0.544589 0.137957 0.83785 0.541098 -0.0722509 -0.360333 -0.913489 0.188938 0.665973 0.694561 -0.272149 0.544112 0.810484 -0.216928 -0.377749 -0.890127 0.254912 -0.696309 -0.595454 0.400734 -0.692005 -0.558677 0.457175 -0.736646 -0.232019 0.635232 0.666628 0.597287 -0.445932 -0.26209 -0.837798 0.47896 -0.495096 -0.606437 0.622185 -0.546658 -0.294777 0.783755 -0.495673 -0.225674 0.838677 -0.0309733 0.998436 0.0465517 0.459892 0.641334 -0.614158 0.417382 0.675124 -0.608276 0.327014 0.848281 -0.41651 0.309144 0.855509 -0.415372 0.0824741 0.989346 -0.119967 -0.15954 -0.849205 0.503387 -0.0834364 -0.522533 0.848527 -0.213949 -0.306681 0.927455 -0.00735498 0.996119 0.0877065 0.110414 0.62598 -0.771983 0.112008 0.624244 -0.773158 0.0752726 0.816511 -0.572402 0.000973738 -0.999996 -0.00277517 0.0638665 -0.906231 0.41793 0.0186295 -0.922005 0.386729 0.0969063 -0.593611 0.798897 0.134012 -0.576327 0.806157 0.00926333 0.996103 0.0877051 -0.128138 0.861305 -0.491665 0.368691 -0.173819 0.913156 -0.281359 0.671926 -0.685093 -0.260634 0.642048 -0.721003 -0.209005 0.82464 -0.525628 0.280104 -0.864831 0.416663 0.453781 -0.602612 0.656461 0.431131 -0.624539 0.651212 0.644003 -0.177455 0.744157 0.543828 -0.276392 0.792375 -0.479481 0.616141 -0.624874 -0.0731513 0.97606 -0.204833 -0.00328855 -0.999974 0.00648396 0.370539 -0.888336 0.27122 0.651823 -0.600492 0.463181 0.648302 -0.603702 0.463948 0.782391 -0.288605 0.55188 -0.617199 0.61494 -0.49083 -0.608188 0.675099 -0.417551 -0.488952 0.786749 -0.376764 0.350746 -0.92808 0.12508 0.916626 -0.112537 0.383578 0.444885 -0.893098 0.0667362 0.797462 -0.594227 0.104637 0.773026 -0.623303 0.118003 0.921727 -0.366779 0.126062 0.080876 0.996614 0.0147972 -0.762224 0.639423 -0.100761 -0.769249 0.629526 -0.109332 -0.475022 0.87915 -0.0380707 -0.503093 0.861272 -0.0714635 -0.403308 0.914577 -0.0298715 0.632997 0.773371 -0.0348194 0.983357 0.130713 -0.126186 -0.961492 -0.241041 0.132033 -0.859421 -0.499015 0.111262 -0.926754 -0.372907 0.0454595 0.541473 0.781549 -0.309818 0.673997 0.701371 -0.231963 0.88137 0.363265 -0.302036 -0.944761 -0.0343779 0.325951 -0.706158 -0.579595 0.406707 0.555078 0.714474 -0.42593 0.536635 0.773803 -0.336529 0.766822 0.256436 -0.588409 0.807218 0.195756 -0.556847 -0.775745 -0.20951 0.595253 -0.814959 -0.13343 0.563948 -0.711338 -0.500877 0.493072 0.461274 0.652575 -0.601142 0.520007 0.130853 -0.844079 0.588406 0.256436 -0.766824 -0.576013 -0.133769 0.806421 -0.570141 -0.143661 0.808888 -0.460305 -0.614308 0.640894 -0.469107 -0.604884 0.643471 0.231486 0.715849 -0.658768 0.255499 0.735241 -0.627807 0.335805 0.204493 -0.919466 0.100377 0.774644 -0.62438 0.150557 0.0524097 -0.987211 -0.235052 -0.167514 0.957439 -0.107563 -0.440981 0.891048 -0.14933 -0.406717 0.901267 -0.0970301 0.712841 -0.694581 -0.107197 0.703575 -0.702489 -0.138038 0.278168 -0.950562 -0.0927259 0.152236 -0.983985 0.138707 -0.445418 0.884513 0.105378 -0.458796 0.882271 -0.251612 0.779549 -0.573581 0.350298 -0.0603247 0.934694 0.322151 -0.59765 0.734189 -0.39402 0.734689 -0.55225 -0.381484 0.720381 -0.579243 -0.558576 0.25503 -0.789273 -0.526673 0.306873 -0.792745 0.584289 -0.22392 0.780042 0.595536 -0.207327 0.776114 0.539784 -0.426043 0.726031 -0.596871 0.658778 -0.457992 -0.846644 0.125875 -0.517058 -0.766829 0.256427 -0.588404 0.790916 -0.0783422 0.606889 0.567696 -0.703961 0.426802 -0.657441 0.713794 -0.24139 -0.632792 0.730336 -0.257262 -0.917667 0.197653 -0.344703 0.889075 -0.184895 0.418759 0.870916 -0.362326 0.332002 -0.632109 0.77302 -0.0536499 -0.984518 0.0647292 -0.162892 0.895924 -0.437406 0.0774285 -0.667157 0.743256 0.0497202 -0.675363 0.73517 0.0584024 -0.976793 0.118875 0.178168 -0.97977 0.183105 0.0807611 0.977744 -0.12381 -0.169377 0.916686 -0.395135 -0.0596253 0.898994 -0.431126 -0.0770735 -0.57768 0.77127 0.26726 -0.606771 0.754097 0.251331 -0.902424 0.214262 0.373794 0.720496 -0.606403 -0.336394 -0.555082 0.714471 0.425929 -0.542924 0.756725 0.364145 -0.83079 0.251178 0.496687 -0.786592 0.13028 0.603573 0.825905 -0.104573 -0.554027 0.760239 -0.231989 -0.606809 0.70492 -0.435233 -0.560054 -0.461271 0.652577 0.601143 -0.59844 0.183342 0.779907 -0.558568 0.255035 0.789278 0.578908 -0.0682654 -0.812531 0.439041 -0.691747 -0.573348 -0.231829 0.706981 0.668156 -0.260168 0.73382 0.627551 -0.318967 0.365837 0.874313 0.365524 -0.271745 -0.890251 0.342984 -0.417294 -0.841563 -0.161603 0.736944 0.656352 -0.113594 0.0597828 0.991727 0.132745 -0.00879432 -0.991111 0.0345333 -0.594064 -0.803676 0.188431 0.773483 0.605159 0.0844888 0.639273 0.764324 0.114562 0.21728 0.969363 -0.102873 -0.268868 -0.957668 -0.0873668 -0.521754 -0.848611 -0.0711743 -0.493254 -0.866969 0.254835 0.786764 0.562193 0.284068 0.0990914 0.95367 -0.339367 -0.0478808 -0.939434 -0.324477 -0.62412 -0.710767 0.418922 0.68633 0.594521 0.635107 0.202625 0.745374 0.538096 0.352616 0.765581 -0.58993 -0.222416 -0.776218 -0.594446 -0.215576 -0.7747 -0.55833 -0.389126 -0.7327 0.482974 0.79582 0.36525 -0.81302 -0.057374 -0.579402 -0.620832 -0.626713 -0.470956 0.619717 0.672974 0.403804 0.619331 0.723353 0.305269 0.914787 0.16186 0.370089 0.865267 0.279462 0.41619 -0.887851 -0.278087 -0.366591 -0.832944 -0.437855 -0.338361 0.636027 0.771168 -0.0277256 0.726322 0.685145 0.055081 0.937007 0.342263 0.0698187 -0.990812 0.0308363 -0.131681 -0.771977 -0.615981 -0.156909</float_array>
                    <technique_common>
                        <accessor count="250" source="#shape0-lib-normals-array" stride="3">
                            <param name="X" type="float"/>
                            <param name="Y" type="float"/>
                            <param name="Z" type="float"/>
                        </accessor>
                    </technique_common>
                </source>
                <source id="shape0-lib-vcolor" name="vcolor">
                    <float_array id="shape0-lib-vcolor-array" count="508">1 1 1 1 1 1 1 1 1 1 1 1 1 1 1 1 1 1 1 1 1 1 1 1 1 1 1 1 1 1 1 1 1 1 1 1 1 1 1 1 1 1 1 1 1 1 1 1 1 1 1 1 1 1 1 1 1 1 1 1 1 1 1 1 1 1 1 1 1 1 1 1 1 1 1 1 1 1 1 1 1 1 1 1 1 1 1 1 1 1 1 1 1 1 1 1 1 1 1 1 1 1 1 1 1 1 1 1 1 1 1 1 1 1 1 1 1 1 1 1 1 1 1 1 1 1 1 1 1 1 1 1 1 1 1 1 1 1 1 1 1 1 1 1 1 1 1 1 1 1 1 1 1 1 1 1 1 1 1 1 1 1 1 1 1 1 1 1 1 1 1 1 1 1 1 1 1 1 1 1 1 1 1 1 1 1 1 1 1 1 1 1 1 1 1 1 1 1 1 1 1 1 1 1 1 1 1 1 1 1 1 1 1 1 1 1 1 1 1 1 1 1 1 1 1 1 1 1 1 1 1 1 1 1 1 1 1 1 1 1 1 1 1 1 1 1 1 1 1 1 1 1 1 1 1 1 1 1 1 1 1 1 1 1 1 1 1 1 1 1 1 1 1 1 1 1 1 1 1 1 1 1 1 1 1 1 1 1 1 1 1 1 1 1 1 1 1 1 1 1 1 1 1 1 1 1 1 1 1 1 1 1 1 1 1 1 1 1 1 1 1 1 1 1 1 1 1 1 1 1 1 1 1 1 1 1 1 1 1 1 1 1 1 1 1 1 1 1 1 1 1 1 1 1 1 1 1 1 1 1 1 1 1 1 1 1 1 1 1 1 1 1 1 1 1 1 1 1 1 1 1 1 1 1 1 1 1 1 1 1 1 1 1 1 1 1 1 1 1 1 1 1 1 1 1 1 1 1 1 1 1 1 1 1 1 1 1 1 1 1 1 1 1 1 1 1 1 1 1 1 1 1 1 1 1 1 1 1 1 1 1 1 1 1 1 1 1 1 1 1 1 1 1 1 1 1 1 1 1 1 1 1 1 1 1 1 1 1 1 1 1 1 1 1 1 1 1 1 1 1 1 1 1 1 1 1 1 1 1 1 1 1 1 1 1 1 1 1 1 1 1 1 1 1 1 1 1 1</float_array>
                    <technique_common>
                        <accessor count="127" source="#shape0-lib-vcolor-array" stride="4">
                            <param name="R" type="float"/>
                            <param name="G" type="float"/>
                            <param name="B" type="float"/>
                            <param name="A" type="float"/>
                        </accessor>
                    </technique_common>
                </source>
                <source id="shape0-lib-map" name="map">
                    <float_array id="shape0-lib-map-array" count="1500">0.159098 0.946948 0.161482 0.949811 0.156817 0.94969 0.161896 0.917949 0.163271 0.915164 0.164461 0.918237 0.162639 0.945118 0.163472 0.946814 0.159098 0.946948 0.162639 0.945118 0.159098 0.946948 0.158959 0.945096 0.163472 0.946814 0.161482 0.949811 0.159098 0.946948 0.152643 0.965111 0.153194 0.963752 0.155005 0.963737 0.152643 0.965111 0.155005 0.963737 0.154921 0.96511 0.125117 0.929272 0.12657 0.930813 0.123875 0.932155 0.163472 0.946814 0.164539 0.94982 0.161482 0.949811 0.124618 0.927672 0.125117 0.929272 0.123414 0.929241 0.15427 0.919507 0.158657 0.914798 0.161896 0.917949 0.158657 0.914798 0.160566 0.913027 0.163271 0.915164 0.158657 0.914798 0.163271 0.915164 0.161896 0.917949 0.11298 0.940435 0.112415 0.943615 0.109828 0.942242 0.11298 0.940435 0.109828 0.942242 0.110644 0.940454 0.112415 0.943615 0.109414 0.945154 0.109828 0.942242 0.112352 0.914475 0.11423 0.913758 0.111668 0.915675 0.126188 0.926467 0.127658 0.927337 0.125117 0.929272 0.126188 0.926467 0.125117 0.929272 0.124618 0.927672 0.127658 0.927337 0.12657 0.930813 0.125117 0.929272 0.127658 0.927337 0.130421 0.927581 0.12657 0.930813 0.130421 0.927581 0.132137 0.930765 0.12854 0.932767 0.130421 0.927581 0.12854 0.932767 0.12657 0.930813 0.158657 0.914798 0.157977 0.912467 0.160566 0.913027 0.115977 0.940454 0.116147 0.94354 0.112415 0.943615 0.115977 0.940454 0.112415 0.943615 0.11298 0.940435 0.143459 0.960931 0.143038 0.959079 0.146646 0.959058 0.143459 0.960931 0.146646 0.959058 0.147603 0.960484 0.158657 0.914798 0.155562 0.912954 0.157977 0.912467 0.118737 0.940435 0.119238 0.942215 0.116147 0.94354 0.118737 0.940435 0.116147 0.94354 0.115977 0.940454 0.119238 0.942215 0.119555 0.945199 0.116147 0.94354 0.15427 0.919507 0.154652 0.916326 0.158657 0.914798 0.154652 0.916326 0.155562 0.912954 0.158657 0.914798 0.139336 0.960444 0.140188 0.959085 0.143038 0.959079 0.139336 0.960444 0.143038 0.959079 0.143459 0.960931 0.133735 0.928171 0.132137 0.930765 0.130421 0.927581 0.154652 0.916326 0.153336 0.914389 0.155562 0.912954 0.121309 0.940454 0.122125 0.942242 0.119238 0.942215 0.121309 0.940454 0.119238 0.942215 0.118737 0.940435 0.122125 0.942242 0.122539 0.945154 0.119555 0.945199 0.122125 0.942242 0.119555 0.945199 0.119238 0.942215 0.135335 0.927672 0.133735 0.928171 0.133766 0.926467 0.154652 0.916326 0.151973 0.916441 0.153336 0.914389 0.12698 0.949768 0.126478 0.952939 0.123828 0.951576 0.12698 0.949768 0.123828 0.951576 0.124644 0.949787 0.126478 0.952939 0.123414 0.954487 0.123828 0.951576 0.12058 0.915494 0.121308 0.917399 0.119145 0.91454 0.136539 0.929241 0.135675 0.930586 0.133735 0.928171 0.136539 0.929241 0.133735 0.928171 0.135335 0.927672 0.135675 0.930586 0.132137 0.930765 0.133735 0.928171 0.100545 0.970201 0.101453 0.968425 0.102643 0.969777 0.15427 0.919507 0.151414 0.91903 0.151973 0.916441 0.15427 0.919507 0.151973 0.916441 0.154652 0.916326 0.129977 0.949787 0.130172 0.952962 0.126478 0.952939 0.129977 0.949787 0.126478 0.952939 0.12698 0.949768 0.100545 0.970201 0.0990386 0.968413 0.101453 0.968425 0.136108 0.933784 0.133176 0.934453 0.132137 0.930765 0.136108 0.933784 0.132137 0.930765 0.135675 0.930586 0.133176 0.934453 0.12854 0.932767 0.132137 0.930765 0.15427 0.919507 0.1519 0.921444 0.151414 0.91903 0.132737 0.949768 0.133698 0.953076 0.130172 0.952962 0.132737 0.949768 0.130172 0.952962 0.129977 0.949787 0.0973723 0.969781 0.0990386 0.968413 0.100545 0.970201 0.155686 0.922721 0.1519 0.921444 0.15427 0.919507 0.0973723 0.969781 0.0971939 0.968419 0.0990386 0.968413 0.134836 0.936788 0.133176 0.934453 0.136108 0.933784 0.155686 0.922721 0.153336 0.92367 0.1519 0.921444 0.135309 0.949787 0.136125 0.951576 0.133698 0.953076 0.135309 0.949787 0.133698 0.953076 0.132737 0.949768 0.136125 0.951576 0.136539 0.954487 0.133698 0.953076 0.135335 0.938388 0.134836 0.936788 0.136539 0.936819 0.155686 0.922721 0.155387 0.925034 0.153336 0.92367 0.0987872 0.941229 0.0958281 0.942242 0.0966441 0.940454 0.0987872 0.941229 0.0984038 0.945199 0.0954141 0.945154 0.0987872 0.941229 0.0954141 0.945154 0.0958281 0.942242 0.119601 0.923584 0.117656 0.924342 0.120366 0.922301 0.133766 0.939592 0.132295 0.938724 0.134836 0.936788 0.133766 0.939592 0.134836 0.936788 0.135335 0.938388 0.132295 0.938724 0.130668 0.936486 0.133176 0.934453 0.132295 0.938724 0.133176 0.934453 0.134836 0.936788 0.130668 0.936486 0.12854 0.932767 0.133176 0.934453 0.155686 0.922721 0.157977 0.925592 0.155387 0.925034 0.101977 0.940454 0.102909 0.943622 0.0987872 0.941229 0.102909 0.943622 0.0984038 0.945199 0.0987872 0.941229 0.115977 0.924821 0.115977 0.924456 0.117656 0.924342 0.128776 0.960443 0.129038 0.959079 0.132646 0.959058 0.128776 0.960443 0.132646 0.959058 0.133603 0.960484 0.129219 0.93916 0.130668 0.936486 0.132295 0.938724 0.15427 0.919507 0.160488 0.922503 0.155686 0.922721 0.160488 0.922503 0.160391 0.925106 0.157977 0.925592 0.160488 0.922503 0.157977 0.925592 0.155686 0.922721 0.104737 0.940435 0.105238 0.942215 0.102909 0.943622 0.104737 0.940435 0.102909 0.943622 0.101977 0.940454 0.114544 0.924373 0.115977 0.924456 0.115977 0.924821 0.129219 0.93916 0.127072 0.935807 0.130668 0.936486 0.105238 0.942215 0.106617 0.945154 0.102909 0.943622 0.125336 0.960444 0.126188 0.959085 0.129038 0.959079 0.125336 0.960444 0.129038 0.959079 0.128776 0.960443 0.126219 0.937889 0.127072 0.935807 0.129219 0.93916 0.160488 0.922503 0.162617 0.92367 0.160391 0.925106 0.107309 0.940454 0.108125 0.942242 0.105238 0.942215 0.107309 0.940454 0.105238 0.942215 0.104737 0.940435 0.108125 0.942242 0.108539 0.945154 0.106617 0.945154 0.108125 0.942242 0.106617 0.945154 0.105238 0.942215 0.124618 0.938388 0.126219 0.937889 0.126188 0.939592 0.127072 0.935807 0.12854 0.932767 0.130668 0.936486 0.161896 0.917949 0.160488 0.922503 0.15427 0.919507 0.160488 0.922503 0.16398 0.921619 0.162617 0.92367 0.15498 0.945101 0.154556 0.946882 0.151828 0.946909 0.15498 0.945101 0.151828 0.946909 0.152644 0.945121 0.154556 0.946882 0.152298 0.949883 0.151828 0.946909 0.123414 0.936819 0.124278 0.935473 0.126219 0.937889 0.123414 0.936819 0.126219 0.937889 0.124618 0.938388 0.124278 0.935473 0.127072 0.935807 0.126219 0.937889 0.161896 0.917949 0.16398 0.921619 0.160488 0.922503 0.154556 0.946882 0.156817 0.94969 0.152298 0.949883 0.161896 0.917949 0.164461 0.918237 0.16398 0.921619 0.158959 0.945096 0.159098 0.946948 0.154556 0.946882 0.158959 0.945096 0.154556 0.946882 0.15498 0.945101 0.159098 0.946948 0.156817 0.94969 0.154556 0.946882 0.110444 0.91904 0.110936 0.92119 0.110383 0.920529 0.154921 0.96511 0.155005 0.963737 0.157454 0.963758 0.154921 0.96511 0.157454 0.963758 0.15799 0.965151 0.123875 0.932155 0.12657 0.930813 0.127072 0.935807 0.123875 0.932155 0.127072 0.935807 0.124278 0.935473 0.12657 0.930813 0.12854 0.932767 0.127072 0.935807 0.159171 0.952006 0.159916 0.953606 0.157977 0.953606 0.161482 0.949811 0.159171 0.952006 0.156817 0.94969 0.154921 0.96511 0.156366 0.966542 0.153443 0.966605 0.153443 0.966605 0.156366 0.966542 0.155643 0.967641 0.153443 0.966605 0.155643 0.967641 0.154333 0.967641 0.110093 0.915633 0.111668 0.915675 0.110547 0.91754 0.110093 0.915633 0.110547 0.91754 0.109414 0.917271 0.161482 0.949811 0.162373 0.951993 0.159171 0.952006 0.152643 0.965111 0.154921 0.96511 0.153443 0.966605 0.153443 0.966605 0.154333 0.967641 0.15251 0.967631 0.110093 0.915633 0.111173 0.914226 0.112352 0.914475 0.110093 0.915633 0.112352 0.914475 0.111668 0.915675 0.164539 0.94982 0.164193 0.951993 0.162373 0.951993 0.164539 0.94982 0.162373 0.951993 0.161482 0.949811 0.151401 0.965111 0.152643 0.965111 0.153443 0.966605 0.151401 0.965111 0.153443 0.966605 0.151541 0.966601 0.151541 0.966601 0.153443 0.966605 0.15251 0.967631 0.111173 0.914226 0.11258 0.913146 0.112352 0.914475 0.109414 0.945154 0.112415 0.943615 0.111581 0.947327 0.109414 0.945154 0.111581 0.947327 0.10976 0.947327 0.147603 0.960484 0.150539 0.960444 0.150323 0.961934 0.147603 0.960484 0.150323 0.961934 0.147578 0.96196 0.147578 0.96196 0.150323 0.961934 0.149515 0.962974 0.147578 0.96196 0.149515 0.962974 0.146876 0.962983 0.11258 0.913146 0.114218 0.912467 0.11423 0.913758 0.11258 0.913146 0.11423 0.913758 0.112352 0.914475 0.112415 0.943615 0.114879 0.947268 0.111581 0.947327 0.114879 0.947268 0.115977 0.948939 0.114037 0.948939 0.116147 0.94354 0.114879 0.947268 0.112415 0.943615 0.147603 0.960484 0.147578 0.96196 0.143459 0.960931 0.143459 0.960931 0.147578 0.96196 0.146876 0.962983 0.143459 0.960931 0.146876 0.962983 0.143977 0.962974 0.114879 0.947268 0.119277 0.947329 0.117916 0.948939 0.114879 0.947268 0.117916 0.948939 0.115977 0.948939 0.119555 0.945199 0.119277 0.947329 0.114879 0.947268 0.119555 0.945199 0.114879 0.947268 0.116147 0.94354 0.143459 0.960931 0.143977 0.962974 0.14195 0.962974 0.143459 0.960931 0.14195 0.962974 0.140649 0.961936 0.118699 0.912834 0.119145 0.91454 0.117365 0.913637 0.139336 0.960444 0.143459 0.960931 0.140649 0.961936 0.140649 0.961936 0.14195 0.962974 0.13957 0.962971 0.120781 0.914226 0.12058 0.915494 0.119145 0.91454 0.120781 0.914226 0.119145 0.91454 0.118699 0.912834 0.119555 0.945199 0.122539 0.945154 0.122193 0.947327 0.119555 0.945199 0.122193 0.947327 0.119277 0.947329 0.139336 0.960444 0.140649 0.961936 0.13763 0.961934 0.139336 0.960444 0.13763 0.961934 0.137414 0.960444 0.13763 0.961934 0.140649 0.961936 0.13957 0.962971 0.12186 0.915633 0.12058 0.915494 0.120781 0.914226 0.123414 0.954487 0.126478 0.952939 0.125581 0.95666 0.123414 0.954487 0.125581 0.95666 0.12376 0.95666 0.103886 0.969777 0.10317 0.971303 0.102643 0.969777 0.10317 0.971303 0.103223 0.972308 0.101518 0.972317 0.12186 0.915633 0.122539 0.917271 0.121308 0.917399 0.12186 0.915633 0.121308 0.917399 0.12058 0.915494 0.126478 0.952939 0.128723 0.956627 0.125581 0.95666 0.100545 0.970201 0.102643 0.969777 0.10317 0.971303 0.10317 0.971303 0.101518 0.972317 0.100545 0.970201 0.128723 0.956627 0.129977 0.958272 0.128037 0.958272 0.130172 0.952962 0.128723 0.956627 0.126478 0.952939 0.100545 0.970201 0.101518 0.972317 0.0996433 0.972308 0.128723 0.956627 0.132252 0.95666 0.131916 0.958272 0.128723 0.956627 0.131916 0.958272 0.129977 0.958272 0.130172 0.952962 0.133698 0.953076 0.132252 0.95666 0.130172 0.952962 0.132252 0.95666 0.128723 0.956627 0.100545 0.970201 0.0974426 0.971281 0.0973723 0.969781 0.0974426 0.971281 0.100545 0.970201 0.0996433 0.972308 0.0974426 0.971281 0.0996433 0.972308 0.0983329 0.972308 0.12186 0.922427 0.120366 0.922301 0.121386 0.920431 0.12186 0.922427 0.121386 0.920431 0.122539 0.920788 0.133698 0.953076 0.134373 0.95666 0.132252 0.95666 0.0974426 0.971281 0.0983329 0.972308 0.0967164 0.972311 0.12186 0.922427 0.120781 0.923834 0.119601 0.923584 0.12186 0.922427 0.119601 0.923584 0.120366 0.922301 0.133698 0.953076 0.136539 0.954487 0.136193 0.95666 0.133698 0.953076 0.136193 0.95666 0.134373 0.95666 0.0954009 0.969777 0.0973723 0.969781 0.0974426 0.971281 0.0954009 0.969777 0.0974426 0.971281 0.0955406 0.971268 0.0974426 0.971281 0.0967164 0.972311 0.0955406 0.971268 0.119374 0.924914 0.119601 0.923584 0.120781 0.923834 0.0984038 0.945199 0.0975807 0.947327 0.0957598 0.947327 0.0984038 0.945199 0.0957598 0.947327 0.0954141 0.945154 0.133603 0.960484 0.136539 0.960444 0.135273 0.961966 0.135273 0.961966 0.135515 0.962974 0.132876 0.962983 0.119374 0.924914 0.117735 0.925592 0.117656 0.924342 0.119374 0.924914 0.117656 0.924342 0.119601 0.923584 0.0984038 0.945199 0.100827 0.94723 0.0975807 0.947327 0.133603 0.960484 0.135273 0.961966 0.13127 0.961937 0.135273 0.961966 0.132876 0.962983 0.13127 0.961937 0.100827 0.94723 0.101977 0.948939 0.100037 0.948939 0.0984038 0.945199 0.102909 0.943622 0.100827 0.94723 0.133603 0.960484 0.13127 0.961937 0.128776 0.960443 0.13127 0.961937 0.132876 0.962983 0.129977 0.962974 0.105071 0.947307 0.103916 0.948939 0.101977 0.948939 0.105071 0.947307 0.101977 0.948939 0.100827 0.94723 0.102909 0.943622 0.105071 0.947307 0.100827 0.94723 0.128776 0.960443 0.13127 0.961937 0.126676 0.961973 0.126676 0.961973 0.13127 0.961937 0.129977 0.962974 0.126676 0.961973 0.129977 0.962974 0.12795 0.962974 0.113478 0.925336 0.112529 0.923404 0.114544 0.924373 0.106617 0.945154 0.105071 0.947307 0.102909 0.943622 0.128776 0.960443 0.126676 0.961973 0.125336 0.960444 0.126676 0.961973 0.12795 0.962974 0.125184 0.962972 0.113478 0.925336 0.110682 0.92329 0.112529 0.923404 0.106617 0.945154 0.108539 0.945154 0.108193 0.947327 0.106617 0.945154 0.108193 0.947327 0.105071 0.947307 0.125336 0.960444 0.126676 0.961973 0.12363 0.961934 0.125336 0.960444 0.12363 0.961934 0.123414 0.960444 0.126676 0.961973 0.125184 0.962972 0.12363 0.961934 0.110682 0.92329 0.110936 0.92119 0.112529 0.923404 0.15799 0.965151 0.159886 0.965111 0.159145 0.966615 0.159145 0.966615 0.159223 0.967641 0.157928 0.967642 0.109414 0.920788 0.110383 0.920529 0.110936 0.92119 0.109414 0.920788 0.110936 0.92119 0.110682 0.92329 0.152298 0.949883 0.156817 0.94969 0.155701 0.951993 0.152298 0.949883 0.155701 0.951993 0.152676 0.951952 0.15799 0.965151 0.159145 0.966615 0.156366 0.966542 0.159145 0.966615 0.157928 0.967642 0.156366 0.966542 0.159171 0.952006 0.157977 0.953606 0.156037 0.953606 0.159171 0.952006 0.156037 0.953606 0.155701 0.951993 0.156817 0.94969 0.159171 0.952006 0.155701 0.951993 0.15799 0.965151 0.156366 0.966542 0.154921 0.96511 0.156366 0.966542 0.157928 0.967642 0.155643 0.967641</float_array>
                    <technique_common>
                        <accessor count="750" source="#shape0-lib-map-array" stride="2">
                            <param name="U" type="float"/>
                            <param name="V" type="float"/>
                        </accessor>
                    </technique_common>
                </source>
                <vertices id="shape0-lib-vertices">
                    <input semantic="POSITION" source="#shape0-lib-positions"/>
                </vertices>
                <triangles count="250" material="material0">
                    <input offset="0" semantic="VERTEX" source="#shape0-lib-vertices"/>
                    <input offset="1" semantic="COLOR" source="#shape0-lib-vcolor"/>
                    <input offset="2" semantic="NORMAL" source="#shape0-lib-normals"/>
                    <input offset="3" semantic="TEXCOORD" source="#shape0-lib-map"/>
                    <p>2 2 0 0 6 6 0 1 91 91 0 2 88 88 1 3 9 9 1 4 1 1 1 5 9 9 2 6 10 10 2 7 2 2 2 8 9 9 3 9 2 2 3 10 1 1 3 11 10 10 4 12 6 6 4 13 2 2 4 14 7 7 5 15 14 14 5 16 5 5 5 17 7 7 6 18 5 5 6 19 4 4 6 20 14 14 7 21 16 16 7 22 5 5 7 23 10 10 8 24 11 11 8 25 6 6 8 26 13 13 9 27 14 14 9 28 7 7 9 29 49 49 10 30 25 25 10 31 88 88 10 32 25 25 11 33 17 17 11 34 9 9 11 35 25 25 12 36 9 9 12 37 88 88 12 38 17 17 13 39 18 18 13 40 10 10 13 41 17 17 14 42 10 10 14 43 9 9 14 44 18 18 15 45 11 11 15 46 10 10 15 47 15 15 16 48 19 19 16 49 12 12 16 50 20 20 17 51 21 21 17 52 14 14 17 53 20 20 18 54 14 14 18 55 13 13 18 56 21 21 19 57 16 16 19 58 14 14 19 59 21 21 20 60 27 27 20 61 16 16 20 62 27 27 21 63 38 38 21 64 8 8 21 65 27 27 22 66 8 8 22 67 16 16 22 68 25 25 23 69 22 22 23 70 17 17 23 71 22 22 24 72 23 23 24 73 18 18 24 74 22 22 25 75 18 18 25 76 17 17 25 77 105 105 26 78 27 27 26 79 21 21 26 80 105 105 27 81 21 21 27 82 20 20 27 83 25 25 28 84 28 28 28 85 22 22 28 86 28 28 29 87 29 29 29 88 23 23 29 89 28 28 30 90 23 23 30 91 22 22 30 92 29 29 31 93 30 30 31 94 23 23 31 95 49 49 32 96 41 41 32 97 25 25 32 98 41 41 33 99 28 28 33 100 25 25 33 101 31 31 34 102 37 37 34 103 27 27 34 104 31 31 35 105 27 27 35 106 105 105 35 107 37 37 36 108 38 38 36 109 27 27 36 110 41 41 37 111 32 32 37 112 28 28 37 113 32 32 38 114 33 33 38 115 29 29 38 116 32 32 39 117 29 29 39 118 28 28 39 119 33 33 40 120 34 34 40 121 30 30 40 122 33 33 41 123 30 30 41 124 29 29 41 125 36 36 42 126 37 37 42 127 31 31 42 128 41 41 43 129 42 42 43 130 32 32 43 131 42 42 44 132 43 43 44 133 33 33 44 134 42 42 45 135 33 33 45 136 32 32 45 137 43 43 46 138 34 34 46 139 33 33 46 140 39 39 47 141 44 44 47 142 35 35 47 143 40 40 48 144 45 45 48 145 37 37 48 146 40 40 49 147 37 37 49 148 36 36 49 149 45 45 50 150 38 38 50 151 37 37 50 152 112 112 51 153 45 45 51 154 40 40 51 155 49 49 52 156 46 46 52 157 42 42 52 158 49 49 53 159 42 42 53 160 41 41 53 161 46 46 54 162 47 47 54 163 43 43 54 164 46 46 55 165 43 43 55 166 42 42 55 167 112 112 56 168 51 51 56 169 45 45 56 170 51 51 57 171 52 52 57 172 38 38 57 173 51 51 58 174 38 38 58 175 45 45 58 176 52 52 59 177 8 8 59 178 38 38 59 179 49 49 60 180 53 53 60 181 46 46 60 182 53 53 61 183 54 54 61 184 47 47 61 185 53 53 62 186 47 47 62 187 46 46 62 188 55 55 63 189 51 51 63 190 112 112 63 191 69 69 64 192 53 53 64 193 49 49 64 194 55 55 65 195 61 61 65 196 51 51 65 197 61 61 66 198 52 52 66 199 51 51 66 200 69 69 67 201 56 56 67 202 53 53 67 203 56 56 68 204 57 57 68 205 54 54 68 206 56 56 69 207 54 54 69 208 53 53 69 209 57 57 70 210 58 58 70 211 54 54 70 212 60 60 71 213 61 61 71 214 55 55 71 215 69 69 72 216 63 63 72 217 56 56 72 218 63 63 73 219 57 57 73 220 56 56 73 221 63 63 74 222 64 64 74 223 58 58 74 224 63 63 75 225 58 58 75 226 57 57 75 227 62 62 76 228 65 65 76 229 59 59 76 230 66 66 77 231 67 67 77 232 61 61 77 233 66 66 78 234 61 61 78 235 60 60 78 236 67 67 79 237 68 68 79 238 52 52 79 239 67 67 80 240 52 52 80 241 61 61 80 242 68 68 81 243 8 8 81 244 52 52 81 245 69 69 82 246 70 70 82 247 63 63 82 248 70 70 83 249 73 73 83 250 63 63 83 251 73 73 84 252 64 64 84 253 63 63 84 254 71 71 85 255 72 72 85 256 65 65 85 257 75 75 86 258 76 76 86 259 67 67 86 260 75 75 87 261 67 67 87 262 66 66 87 263 76 76 88 264 68 68 88 265 67 67 88 266 49 49 89 267 86 86 89 268 69 69 89 269 86 86 90 270 77 77 90 271 70 70 90 272 86 86 91 273 70 70 91 274 69 69 91 275 77 77 92 276 78 78 92 277 73 73 92 278 77 77 93 279 73 73 93 280 70 70 93 281 74 74 94 282 72 72 94 283 71 71 94 284 76 76 95 285 96 96 95 286 68 68 95 287 78 78 96 288 79 79 96 289 73 73 96 290 80 80 97 291 85 85 97 292 76 76 97 293 80 80 98 294 76 76 98 295 75 75 98 296 85 85 99 297 96 96 99 298 76 76 99 299 86 86 100 300 81 81 100 301 77 77 100 302 81 81 101 303 82 82 101 304 78 78 101 305 81 81 102 306 78 78 102 307 77 77 102 308 82 82 103 309 87 87 103 310 79 79 103 311 82 82 104 312 79 79 104 313 78 78 104 314 84 84 105 315 85 85 105 316 80 80 105 317 96 96 106 318 8 8 106 319 68 68 106 320 88 88 107 321 86 86 107 322 49 49 107 323 86 86 108 324 89 89 108 325 81 81 108 326 89 89 109 327 90 90 109 328 82 82 109 329 89 89 110 330 82 82 110 331 81 81 110 332 90 90 111 333 87 87 111 334 82 82 111 335 94 94 112 336 95 95 112 337 85 85 112 338 94 94 113 339 85 85 113 340 84 84 113 341 95 95 114 342 96 96 114 343 85 85 114 344 88 88 115 345 89 89 115 346 86 86 115 347 90 90 116 348 91 91 116 349 87 87 116 350 88 88 117 351 1 1 117 352 89 89 117 353 1 1 118 354 2 2 118 355 90 90 118 356 1 1 119 357 90 90 119 358 89 89 119 359 2 2 120 360 91 91 120 361 90 90 120 362 0 0 121 363 93 93 121 364 92 92 121 365 4 4 122 366 5 5 122 367 95 95 122 368 4 4 123 369 95 95 123 370 94 94 123 371 5 5 124 372 16 16 124 373 96 96 124 374 5 5 125 375 96 96 125 376 95 95 125 377 16 16 126 378 8 8 126 379 96 96 126 380 97 97 127 381 3 3 127 382 0 0 127 383 6 6 128 384 97 97 128 385 91 91 128 386 4 4 129 387 126 126 129 388 99 99 129 389 99 99 130 390 126 126 130 391 0 0 130 392 99 99 131 393 0 0 131 394 3 3 131 395 98 98 132 396 12 12 132 397 3 3 132 398 98 98 133 399 3 3 133 400 97 97 133 401 6 6 134 402 98 98 134 403 97 97 134 404 7 7 135 405 4 4 135 406 99 99 135 407 99 99 136 408 3 3 136 409 12 12 136 410 98 98 137 411 100 100 137 412 15 15 137 413 98 98 138 414 15 15 138 415 12 12 138 416 11 11 139 417 100 100 139 418 98 98 139 419 11 11 140 420 98 98 140 421 6 6 140 422 13 13 141 423 7 7 141 424 99 99 141 425 13 13 142 426 99 99 142 427 101 101 142 428 101 101 143 429 99 99 143 430 12 12 143 431 100 100 144 432 102 102 144 433 15 15 144 434 11 11 145 435 18 18 145 436 102 102 145 437 11 11 146 438 102 102 146 439 100 100 146 440 20 20 147 441 13 13 147 442 101 101 147 443 20 20 148 444 101 101 148 445 103 103 148 446 103 103 149 447 101 101 149 448 12 12 149 449 103 103 150 450 12 12 150 451 19 19 150 452 102 102 151 453 104 104 151 454 19 19 151 455 102 102 152 456 19 19 152 457 15 15 152 458 18 18 153 459 104 104 153 460 102 102 153 461 104 104 154 462 24 24 154 463 19 19 154 464 23 23 155 465 104 104 155 466 18 18 155 467 20 20 156 468 103 103 156 469 105 105 156 470 105 105 157 471 103 103 157 472 19 19 157 473 105 105 158 474 19 19 158 475 24 24 158 476 104 104 159 477 106 106 159 478 26 26 159 479 104 104 160 480 26 26 160 481 24 24 160 482 30 30 161 483 106 106 161 484 104 104 161 485 30 30 162 486 104 104 162 487 23 23 162 488 105 105 163 489 24 24 163 490 26 26 163 491 105 105 164 492 26 26 164 493 107 107 164 494 106 106 165 495 35 35 165 496 26 26 165 497 31 31 166 498 105 105 166 499 107 107 166 500 107 107 167 501 26 26 167 502 35 35 167 503 108 108 168 504 39 39 168 505 35 35 168 506 108 108 169 507 35 35 169 508 106 106 169 509 30 30 170 510 34 34 170 511 108 108 170 512 30 30 171 513 108 108 171 514 106 106 171 515 31 31 172 516 107 107 172 517 110 110 172 518 31 31 173 519 110 110 173 520 36 36 173 521 110 110 174 522 107 107 174 523 35 35 174 524 109 109 175 525 39 39 175 526 108 108 175 527 34 34 176 528 43 43 176 529 109 109 176 530 34 34 177 531 109 109 177 532 108 108 177 533 36 36 178 534 110 110 178 535 40 40 178 536 110 110 179 537 35 35 179 538 44 44 179 539 109 109 180 540 111 111 180 541 44 44 180 542 109 109 181 543 44 44 181 544 39 39 181 545 43 43 182 546 111 111 182 547 109 109 182 548 112 112 183 549 40 40 183 550 110 110 183 551 110 110 184 552 44 44 184 553 112 112 184 554 111 111 185 555 48 48 185 556 44 44 185 557 47 47 186 558 111 111 186 559 43 43 186 560 112 112 187 561 44 44 187 562 48 48 187 563 111 111 188 564 113 113 188 565 50 50 188 566 111 111 189 567 50 50 189 568 48 48 189 569 47 47 190 570 54 54 190 571 113 113 190 572 47 47 191 573 113 113 191 574 111 111 191 575 112 112 192 576 115 115 192 577 55 55 192 578 115 115 193 579 112 112 193 580 48 48 193 581 115 115 194 582 48 48 194 583 50 50 194 584 114 114 195 585 59 59 195 586 50 50 195 587 114 114 196 588 50 50 196 589 113 113 196 590 54 54 197 591 114 114 197 592 113 113 197 593 115 115 198 594 50 50 198 595 59 59 198 596 114 114 199 597 116 116 199 598 62 62 199 599 114 114 200 600 62 62 200 601 59 59 200 602 54 54 201 603 58 58 201 604 116 116 201 605 54 54 202 606 116 116 202 607 114 114 202 608 60 60 203 609 55 55 203 610 115 115 203 611 60 60 204 612 115 115 204 613 118 118 204 614 115 115 205 615 59 59 205 616 118 118 205 617 117 117 206 618 62 62 206 619 116 116 206 620 64 64 207 621 117 117 207 622 116 116 207 623 64 64 208 624 116 116 208 625 58 58 208 626 66 66 209 627 60 60 209 628 118 118 209 629 118 118 210 630 59 59 210 631 65 65 210 632 117 117 211 633 119 119 211 634 65 65 211 635 117 117 212 636 65 65 212 637 62 62 212 638 64 64 213 639 119 119 213 640 117 117 213 641 66 66 214 642 118 118 214 643 120 120 214 644 118 118 215 645 65 65 215 646 120 120 215 647 119 119 216 648 71 71 216 649 65 65 216 650 64 64 217 651 73 73 217 652 119 119 217 653 66 66 218 654 120 120 218 655 75 75 218 656 120 120 219 657 65 65 219 658 72 72 219 659 121 121 220 660 74 74 220 661 71 71 220 662 121 121 221 663 71 71 221 664 119 119 221 665 73 73 222 666 121 121 222 667 119 119 222 668 75 75 223 669 120 120 223 670 122 122 223 671 122 122 224 672 120 120 224 673 72 72 224 674 122 122 225 675 72 72 225 676 74 74 225 677 121 121 226 678 83 83 226 679 74 74 226 680 79 79 227 681 121 121 227 682 73 73 227 683 75 75 228 684 122 122 228 685 80 80 228 686 122 122 229 687 74 74 229 688 83 83 229 689 121 121 230 690 123 123 230 691 83 83 230 692 79 79 231 693 87 87 231 694 123 123 231 695 79 79 232 696 123 123 232 697 121 121 232 698 80 80 233 699 122 122 233 700 124 124 233 701 80 80 234 702 124 124 234 703 84 84 234 704 122 122 235 705 83 83 235 706 124 124 235 707 123 123 236 708 93 93 236 709 83 83 236 710 94 94 237 711 84 84 237 712 124 124 237 713 124 124 238 714 83 83 238 715 93 93 238 716 125 125 239 717 92 92 239 718 93 93 239 719 125 125 240 720 93 93 240 721 123 123 240 722 87 87 241 723 91 91 241 724 125 125 241 725 87 87 242 726 125 125 242 727 123 123 242 728 94 94 243 729 124 124 243 730 126 126 243 731 124 124 244 732 93 93 244 733 126 126 244 734 97 97 245 735 0 0 245 736 92 92 245 737 97 97 246 738 92 92 246 739 125 125 246 740 91 91 247 741 97 97 247 742 125 125 247 743 94 94 248 744 126 126 248 745 4 4 248 746 126 126 249 747 93 93 249 748 0 0 249 749</p>
                </triangles>
            </mesh>
        </geometry>
    </library_geometries>
    <library_visual_scenes>
        <visual_scene id="VisualSceneNode" name="VisualScene">
            <node id="node" name="node">
                <instance_geometry url="#shape0-lib">
                    <bind_material>
                        <technique_common>
                            <instance_material symbol="material0" target="#material0">
                                <bind_vertex_input semantic="UVSET0" input_semantic="TEXCOORD"/>
                            </instance_material>
                        </technique_common>
                    </bind_material>
                </instance_geometry>
            </node>
        </visual_scene>
    </library_visual_scenes>
    <scene>
        <instance_visual_scene url="#VisualSceneNode"/>
    </scene>
</COLLADA>
