<?xml version="1.0" encoding="UTF-8"?>
<COLLADA xmlns="http://www.collada.org/2005/11/COLLADASchema" version="1.4.1">
    <asset>
        <contributor>
            <author>VCGLab</author>
            <authoring_tool>VCGLib | MeshLab</authoring_tool>
        </contributor>
        <created>Thu Jul 3 02:10:08 2025 GMT</created>
        <modified>Thu Jul 3 02:10:08 2025 GMT</modified>
        <up_axis>Y_UP</up_axis>
    </asset>
    <library_images>
        <image id="texture0" name="texture0">
            <init_from>./image/shelf_books.png</init_from>
        </image>
    </library_images>
    <library_materials>
        <material id="material0" name="material0">
            <instance_effect url="#material0-fx"/>
        </material>
    </library_materials>
    <library_effects>
        <effect id="material0-fx">
            <profile_COMMON>
                <newparam sid="texture0-surface">
                    <surface type="2D">
                        <init_from>texture0</init_from>
                        <format>R8G8B8</format>
                    </surface>
                </newparam>
                <newparam sid="texture0-sampler">
                    <sampler2D>
                        <source>texture0-surface</source>
                        <minfilter>LINEAR</minfilter>
                        <magfilter>LINEAR</magfilter>
                    </sampler2D>
                </newparam>
                <technique sid="common">
                    <blinn>
                        <diffuse>
                            <texture texture="texture0-sampler" texcoord="UVSET0"/>
                        </diffuse>
                    </blinn>
                </technique>
            </profile_COMMON>
        </effect>
    </library_effects>
    <library_geometries>
        <geometry id="shape0-lib" name="shape0">
            <mesh>
                <source id="shape0-lib-positions" name="position">
                    <float_array id="shape0-lib-positions-array" count="108">-0.0568201 0.0467888 -0.0542915 0.0609734 0.0471188 -0.0542915 0.0609006 0.0248994 -0.0542915 -0.0568927 0.0245694 -0.0542915 -0.0568225 0.0460544 0.0654778 0.0609734 0.0471188 0.0628915 0.0609031 0.0256338 0.0654779 -0.0568908 0.0251656 0.0654298 0.060969 0.0458445 0.0658146 -0.0569008 0.0221006 -0.0542915 0.0608926 0.0224305 -0.0542915 0.0608199 0.000211349 -0.0542915 -0.0569734 -0.000118622 -0.0542915 -0.0569032 0.0213663 0.0654779 0.0608906 0.0218343 0.0654298 0.0608225 0.000945595 0.0654779 -0.0569734 -0.000118622 0.0628915 -0.0569692 0.00115536 0.0658145 -0.0568201 0.0967888 -0.0542915 0.0609734 0.0971187 -0.0542915 0.0609006 0.0748993 -0.0542915 -0.0568927 0.0745693 -0.0542915 -0.0568225 0.0960544 0.0654778 0.0609713 0.0965224 0.0654297 0.0609031 0.0756337 0.0654779 -0.0568908 0.0751656 0.0654298 -0.0569008 0.0721005 -0.0542915 0.0608926 0.0724305 -0.0542915 0.0608199 0.0502113 -0.0542915 -0.0569734 0.0498813 -0.0542915 -0.0569032 0.0713663 0.0654779 0.0608926 0.0724305 0.0628915 0.0608225 0.0509455 0.0654779 -0.0569734 0.0498813 0.0628915 -0.0569692 0.0511553 0.0658145 0.0608883 0.0711564 0.0658145</float_array>
                    <technique_common>
                        <accessor count="36" source="#shape0-lib-positions-array" stride="3">
                            <param name="X" type="float"/>
                            <param name="Y" type="float"/>
                            <param name="Z" type="float"/>
                        </accessor>
                    </technique_common>
                </source>
                <source id="shape0-lib-normals" name="normal">
                    <float_array id="shape0-lib-normals-array" count="168">0 0 -1 0 0 -1 0.000490977 0.916679 0.399625 -0.00280151 0.999996 0 -0.00890098 0.999942 0.0061314 0.00280148 -0.999984 0.00497994 0.00397155 -0.999973 0.00613112 -0.000341978 -0.0166545 0.999861 -0.00286268 -0.00229014 0.999993 0 0 -1 0 0 -1 -0.000490612 -0.916714 0.399545 -0.00280063 0.999984 0.00497978 -0.00397039 0.999973 0.00613067 0.00280126 -0.999996 0 0.0088993 -0.999942 0.00612995 0.00286205 0.00229159 0.999993 0.000342007 0.0166521 0.999861 0.999995 -0.00326089 8.09895e-05 0.999995 -0.00327638 -1.03072e-06 0.999995 -0.00327064 0 -0.999995 0.0032675 -2.74627e-07 -0.999995 0.00326663 -1.18696e-07 0.999995 -0.00327189 -1.40322e-06 0.999995 -0.00326235 3.07583e-07 -0.999995 0.00326296 1.92674e-05 -0.999995 0.00326752 -4.02235e-07 -0.999995 0.00326528 0 0 0 -1 0 0 -1 -0.00280059 0.999984 0.00498086 -0.00397018 0.999973 0.00613157 0.00280148 -0.999984 0.00498036 0.00397183 -0.999973 0.00613182 -0.00041752 0.00230801 0.999997 0.000417679 -0.00230122 0.999997 0 0 -1 0 0 -1 -0.000491116 -0.916708 0.399558 0.000491572 0.916702 0.399571 -0.00280151 0.999996 0 -0.00889907 0.999942 0.00612947 0.00280148 -0.999996 0 0.00889916 -0.999942 0.00612959 0.00282777 -0.0166643 0.999857 -0.00282795 0.0166624 0.999857 0.999995 -0.00327638 -1.02842e-06 0.999995 -0.00326593 8.46379e-07 -0.999995 0.00326748 -2.75124e-07 -0.999995 0.00326662 -1.20059e-07 0.999995 -0.00325828 4.79475e-05 0.999995 -0.00327188 -1.40445e-06 0.999995 -0.00326406 0 -0.999995 0.00326295 1.92197e-05 -0.999995 0.00326753 -4.05157e-07 -0.999995 0.00326527 0</float_array>
                    <technique_common>
                        <accessor count="56" source="#shape0-lib-normals-array" stride="3">
                            <param name="X" type="float"/>
                            <param name="Y" type="float"/>
                            <param name="Z" type="float"/>
                        </accessor>
                    </technique_common>
                </source>
                <source id="shape0-lib-vcolor" name="vcolor">
                    <float_array id="shape0-lib-vcolor-array" count="144">1 1 1 1 1 1 1 1 1 1 1 1 1 1 1 1 1 1 1 1 1 1 1 1 1 1 1 1 1 1 1 1 1 1 1 1 1 1 1 1 1 1 1 1 1 1 1 1 1 1 1 1 1 1 1 1 1 1 1 1 1 1 1 1 1 1 1 1 1 1 1 1 1 1 1 1 1 1 1 1 1 1 1 1 1 1 1 1 1 1 1 1 1 1 1 1 1 1 1 1 1 1 1 1 1 1 1 1 1 1 1 1 1 1 1 1 1 1 1 1 1 1 1 1 1 1 1 1 1 1 1 1 1 1 1 1 1 1 1 1 1 1 1 1</float_array>
                    <technique_common>
                        <accessor count="36" source="#shape0-lib-vcolor-array" stride="4">
                            <param name="R" type="float"/>
                            <param name="G" type="float"/>
                            <param name="B" type="float"/>
                            <param name="A" type="float"/>
                        </accessor>
                    </technique_common>
                </source>
                <source id="shape0-lib-map" name="map">
                    <float_array id="shape0-lib-map-array" count="336">0.461331 0.394739 0.478373 0.394787 0.478362 0.39154 0.461331 0.394739 0.478362 0.39154 0.461321 0.391491 0.552698 0.965357 0.503149 0.964831 0.552696 0.964775 0.556781 0.642007 0.556781 0.636695 0.562094 0.636695 0.556781 0.642007 0.562094 0.636695 0.562094 0.642007 0.403781 0.648382 0.403781 0.64307 0.409094 0.64307 0.403781 0.648382 0.409094 0.64307 0.409094 0.648382 0.503121 0.956198 0.552669 0.956415 0.552696 0.964775 0.503121 0.956198 0.552696 0.964775 0.503149 0.964831 0.46132 0.391131 0.478361 0.391179 0.47835 0.387931 0.46132 0.391131 0.47835 0.387931 0.461309 0.387883 0.503086 0.945525 0.552635 0.946051 0.503088 0.946107 0.550406 0.642007 0.550406 0.636695 0.555719 0.636695 0.550406 0.642007 0.555719 0.636695 0.555719 0.642007 0.397406 0.648382 0.397406 0.64307 0.402719 0.64307 0.397406 0.648382 0.402719 0.64307 0.402719 0.648382 0.503088 0.946107 0.552635 0.946051 0.552663 0.954684 0.503088 0.946107 0.552663 0.954684 0.503115 0.954466 0.684571 0.781756 0.683748 0.787644 0.684751 0.787241 0.684571 0.781756 0.643484 0.781516 0.643484 0.787644 0.684571 0.781756 0.643484 0.787644 0.683748 0.787644 0.681384 0.963049 0.640297 0.963289 0.640297 0.957161 0.681384 0.963049 0.640297 0.957161 0.681367 0.957378 0.684571 0.774947 0.643484 0.774707 0.643484 0.780835 0.684571 0.774947 0.643484 0.780835 0.684554 0.780617 0.681384 0.95624 0.68056 0.950352 0.681564 0.950755 0.681384 0.95624 0.640297 0.95648 0.640297 0.950352 0.681384 0.95624 0.640297 0.950352 0.68056 0.950352 0.461331 0.402048 0.478373 0.402096 0.478362 0.398848 0.461331 0.402048 0.478362 0.398848 0.461321 0.3988 0.544031 0.642007 0.544031 0.636695 0.549344 0.636695 0.544031 0.642007 0.549344 0.636695 0.549344 0.642007 0.384656 0.648382 0.384656 0.64307 0.389969 0.64307 0.384656 0.648382 0.389969 0.64307 0.389969 0.648382 0.503121 0.977189 0.552669 0.977407 0.552697 0.98604 0.503121 0.977189 0.552697 0.98604 0.503149 0.985822 0.46132 0.398439 0.478361 0.398487 0.47835 0.395239 0.46132 0.398439 0.47835 0.395239 0.461309 0.395191 0.503086 0.966516 0.552635 0.967042 0.503088 0.967098 0.552664 0.975983 0.503115 0.975458 0.552662 0.975401 0.537656 0.642007 0.537656 0.636695 0.542969 0.636695 0.537656 0.642007 0.542969 0.636695 0.542969 0.642007 0.391031 0.648382 0.391031 0.64307 0.396344 0.64307 0.391031 0.648382 0.396344 0.64307 0.396344 0.648382 0.503088 0.967098 0.552635 0.967042 0.552662 0.975401 0.503088 0.967098 0.552662 0.975401 0.503115 0.975458 0.684571 0.795545 0.643484 0.795305 0.643484 0.801434 0.684571 0.795545 0.643484 0.801434 0.684554 0.801216 0.681384 0.976839 0.640297 0.977079 0.640297 0.970951 0.681384 0.976839 0.640297 0.970951 0.681367 0.971168 0.684571 0.788737 0.683748 0.794625 0.684751 0.794222 0.684571 0.788737 0.643484 0.788497 0.643484 0.794625 0.684571 0.788737 0.643484 0.794625 0.683748 0.794625 0.681384 0.97003 0.68056 0.964142 0.681564 0.964545 0.681384 0.97003 0.640297 0.97027 0.640297 0.964142 0.681384 0.97003 0.640297 0.964142 0.68056 0.964142</float_array>
                    <technique_common>
                        <accessor count="168" source="#shape0-lib-map-array" stride="2">
                            <param name="U" type="float"/>
                            <param name="V" type="float"/>
                        </accessor>
                    </technique_common>
                </source>
                <vertices id="shape0-lib-vertices">
                    <input semantic="POSITION" source="#shape0-lib-positions"/>
                </vertices>
                <triangles count="56" material="material0">
                    <input offset="0" semantic="VERTEX" source="#shape0-lib-vertices"/>
                    <input offset="1" semantic="COLOR" source="#shape0-lib-vcolor"/>
                    <input offset="2" semantic="NORMAL" source="#shape0-lib-normals"/>
                    <input offset="3" semantic="TEXCOORD" source="#shape0-lib-map"/>
                    <p>0 0 0 0 1 1 0 1 2 2 0 2 0 0 1 3 2 2 1 4 3 3 1 5 5 5 2 6 4 4 2 7 8 8 2 8 5 5 3 9 1 1 3 10 0 0 3 11 5 5 4 12 0 0 4 13 4 4 4 14 7 7 5 15 3 3 5 16 2 2 5 17 7 7 6 18 2 2 6 19 6 6 6 20 7 7 7 21 6 6 7 22 8 8 7 23 7 7 8 24 8 8 8 25 4 4 8 26 9 9 9 27 10 10 9 28 11 11 9 29 9 9 10 30 11 11 10 31 12 12 10 32 16 16 11 33 15 15 11 34 17 17 11 35 14 14 12 36 10 10 12 37 9 9 12 38 14 14 13 39 9 9 13 40 13 13 13 41 16 16 14 42 12 12 14 43 11 11 14 44 16 16 15 45 11 11 15 46 15 15 15 47 17 17 16 48 15 15 16 49 14 14 16 50 17 17 17 51 14 14 17 52 13 13 17 53 6 6 18 54 5 5 18 55 8 8 18 56 6 6 19 57 2 2 19 58 1 1 19 59 6 6 20 60 1 1 20 61 5 5 20 62 4 4 21 63 0 0 21 64 3 3 21 65 4 4 22 66 3 3 22 67 7 7 22 68 15 15 23 69 11 11 23 70 10 10 23 71 15 15 24 72 10 10 24 73 14 14 24 74 13 13 25 75 16 16 25 76 17 17 25 77 13 13 26 78 9 9 26 79 12 12 26 80 13 13 27 81 12 12 27 82 16 16 27 83 18 18 28 84 19 19 28 85 20 20 28 86 18 18 29 87 20 20 29 88 21 21 29 89 23 23 30 90 19 19 30 91 18 18 30 92 23 23 31 93 18 18 31 94 22 22 31 95 25 25 32 96 21 21 32 97 20 20 32 98 25 25 33 99 20 20 33 100 24 24 33 101 25 25 34 102 24 24 34 103 23 23 34 104 25 25 35 105 23 23 35 106 22 22 35 107 26 26 36 108 27 27 36 109 28 28 36 110 26 26 37 111 28 28 37 112 29 29 37 113 33 33 38 114 32 32 38 115 34 34 38 116 31 31 39 117 30 30 39 118 35 35 39 119 31 31 40 120 27 27 40 121 26 26 40 122 31 31 41 123 26 26 41 124 30 30 41 125 33 33 42 126 29 29 42 127 28 28 42 128 33 33 43 129 28 28 43 130 32 32 43 131 34 34 44 132 32 32 44 133 35 35 44 134 34 34 45 135 35 35 45 136 30 30 45 137 24 24 46 138 20 20 46 139 19 19 46 140 24 24 47 141 19 19 47 142 23 23 47 143 22 22 48 144 18 18 48 145 21 21 48 146 22 22 49 147 21 21 49 148 25 25 49 149 32 32 50 150 31 31 50 151 35 35 50 152 32 32 51 153 28 28 51 154 27 27 51 155 32 32 52 156 27 27 52 157 31 31 52 158 30 30 53 159 33 33 53 160 34 34 53 161 30 30 54 162 26 26 54 163 29 29 54 164 30 30 55 165 29 29 55 166 33 33 55 167</p>
                </triangles>
            </mesh>
        </geometry>
    </library_geometries>
    <library_visual_scenes>
        <visual_scene id="VisualSceneNode" name="VisualScene">
            <node id="node" name="node">
                <instance_geometry url="#shape0-lib">
                    <bind_material>
                        <technique_common>
                            <instance_material symbol="material0" target="#material0">
                                <bind_vertex_input semantic="UVSET0" input_semantic="TEXCOORD"/>
                            </instance_material>
                        </technique_common>
                    </bind_material>
                </instance_geometry>
            </node>
        </visual_scene>
    </library_visual_scenes>
    <scene>
        <instance_visual_scene url="#VisualSceneNode"/>
    </scene>
</COLLADA>
