<?xml version="1.0" encoding="UTF-8"?>
<COLLADA xmlns="http://www.collada.org/2005/11/COLLADASchema" version="1.4.1">
    <asset>
        <contributor>
            <author>VCGLab</author>
            <authoring_tool>VCGLib | MeshLab</authoring_tool>
        </contributor>
        <created>Thu Jul 3 02:05:38 2025 GMT</created>
        <modified>Thu Jul 3 02:05:38 2025 GMT</modified>
        <up_axis>Y_UP</up_axis>
    </asset>
    <library_images>
        <image id="texture0" name="texture0">
            <init_from>./image/shelf_items.png</init_from>
        </image>
    </library_images>
    <library_materials>
        <material id="material0" name="material0">
            <instance_effect url="#material0-fx"/>
        </material>
    </library_materials>
    <library_effects>
        <effect id="material0-fx">
            <profile_COMMON>
                <newparam sid="texture0-surface">
                    <surface type="2D">
                        <init_from>texture0</init_from>
                        <format>R8G8B8</format>
                    </surface>
                </newparam>
                <newparam sid="texture0-sampler">
                    <sampler2D>
                        <source>texture0-surface</source>
                        <minfilter>LINEAR</minfilter>
                        <magfilter>LINEAR</magfilter>
                    </sampler2D>
                </newparam>
                <technique sid="common">
                    <blinn>
                        <diffuse>
                            <texture texture="texture0-sampler" texcoord="UVSET0"/>
                        </diffuse>
                    </blinn>
                </technique>
            </profile_COMMON>
        </effect>
    </library_effects>
    <library_geometries>
        <geometry id="shape0-lib" name="shape0">
            <mesh>
                <source id="shape0-lib-positions" name="position">
                    <float_array id="shape0-lib-positions-array" count="153">-0.368 0.00799997 -0.091 -0.317 0.00799997 -0.142 0.305 0.00799997 -0.142 0.356 0.00799997 -0.091 0.356 0.00799997 0.099 0.305 0.00799997 0.15 -0.368 0.00799997 0.099 -0.317 0.00799997 0.15 -0.336517 0.018 0.146118 -0.336517 0.00799997 0.146118 -0.351158 0.0181823 0.13643 -0.353063 0.00799997 0.135062 -0.364118 0.00799997 0.118517 0.324517 0.00799997 0.146118 0.32668 0.0181833 0.144776 0.341062 0.00799997 0.135062 0.341062 0.018 0.135062 0.352118 0.00799997 0.118517 0.324517 0.018 -0.138118 0.324517 0.00799997 -0.138118 0.339157 0.0181822 -0.12843 0.341062 0.00799997 -0.127062 0.352118 0.00799997 -0.110517 -0.336517 0.00799997 -0.138118 -0.338681 0.0181833 -0.136775 -0.353063 0.018 -0.127062 -0.358784 0.00819786 -0.1214 -0.334193 -8.53571e-05 -0.122346 0.336377 -0.00011452 -0.107998 0.322193 -8.53624e-05 0.130347 -0.348377 -0.000114552 0.115999 -0.324064 -2.28365e-05 0.13317 0.339186 -2.58682e-05 0.105948 0.312064 -2.28399e-05 -0.12517 -0.351278 -3.16489e-05 -0.0989736 -0.367844 0.0182602 -0.0909171 -0.317071 0.0182598 -0.141822 0.304962 0.0182598 -0.141835 0.355838 0.0182602 -0.0909936 0.355844 0.0182602 0.0989166 0.30507 0.0182598 0.149822 -0.316963 0.0182598 0.149835 -0.367838 0.0182602 0.0989931 -0.363971 0.0182601 0.118443 0.351993 0.0182601 0.118372 0.351971 0.0182601 -0.110443 -0.363993 0.0182601 -0.110372 -0.326826 0.0118284 -0.101779 0.315821 0.0118022 -0.100608 -0.327821 0.0118022 0.108608 0.314861 0.0118284 0.109729</float_array>
                    <technique_common>
                        <accessor count="51" source="#shape0-lib-positions-array" stride="3">
                            <param name="X" type="float"/>
                            <param name="Y" type="float"/>
                            <param name="Z" type="float"/>
                        </accessor>
                    </technique_common>
                </source>
                <source id="shape0-lib-normals" name="normal">
                    <float_array id="shape0-lib-normals-array" count="294">-0.18692 0.0164937 0.982237 -0.195082 0 0.980787 -0.551836 0 0.833953 -0.555565 -0.00775624 0.831437 -0.812093 0.074165 0.578796 -0.831364 0.0159438 0.5555 -0.980679 0.0154811 0.19501 -0.980668 0.0155765 0.195058 0.195058 0.0156735 0.980666 0.226944 0.0797308 0.970639 0.555585 -0.00844104 0.831417 0.559716 0 0.828684 0.831447 0 0.555604 0.836285 0.0179252 0.548002 0.980681 0.0146772 0.195062 0.980836 0.0164832 0.194137 0.186916 0.0165011 -0.982237 0.195082 0 -0.980787 0.551857 0 -0.833939 0.555588 -0.00775916 -0.831422 0.812068 0.0741656 -0.57883 0.831342 0.0159381 -0.555533 0.980678 0.0154812 -0.195015 0.980668 0.0155697 -0.195059 -0.195058 0.0156716 -0.980666 -0.22695 0.0797399 -0.970636 -0.600403 -0.0221951 -0.799389 -0.551896 -0.15161 -0.820015 -0.823542 0.167558 -0.541944 -0.942155 -0.173517 -0.286768 -0.980836 0.0164807 -0.194137 0 0.0161004 -0.99987 -2.05986e-05 0.0173488 -0.999849 0.999885 0.0151953 0 0.999876 0.0157499 -2.99698e-05 0 0.0161033 0.99987 2.04309e-05 0.0173416 0.99985 -0.999884 0.0152011 0 -0.999876 0.015747 2.94991e-05 -0.318576 -0.919382 -0.230753 -0.306569 -0.864612 -0.398072 -0.0883283 -0.891625 -0.444075 0 -0.902684 -0.430304 -0.00157799 -0.924313 -0.381633 0.0913962 -0.883463 -0.4595 0.223646 -0.915408 -0.33468 0.235399 -0.91117 -0.338166 0.406311 -0.872463 -0.271512 0.445175 -0.891055 -0.0885473 0.430772 -0.902461 0 0.385594 -0.922657 -0.00468004 0.459475 -0.883476 0.0913917 0.33588 -0.914772 0.224447 0.33861 -0.911464 0.233616 0.27195 -0.872021 0.406966 0.0883288 -0.891624 0.444078 0 -0.902685 0.430302 0.00157781 -0.924311 0.381637 -0.0913963 -0.883463 0.4595 -0.223633 -0.915411 0.33468 -0.2354 -0.911168 0.33817 -0.406317 -0.872467 0.271493 -0.445171 -0.891057 0.0885459 -0.432945 -0.90142 0 -0.385715 -0.922605 0.00484894 -0.486178 -0.860362 -0.152998 -0.0416567 0.998213 -0.0428378 -0.0236164 0.998236 0.0544688 0.0416621 0.998213 0.0428434 0.0236146 0.998237 -0.0544624 0.139574 0.981515 0.13095 0.163171 0.986069 0.0322914 0.159321 0.987227 -4.6907e-06 0.155133 0.987893 0.000856929 0.167002 0.985397 -0.0332032 0.148184 0.983758 -0.101297 0.0648319 0.983124 -0.171068 -3.24244e-06 0.987377 -0.158388 0.000229747 0.987944 -0.154809 -0.035445 0.985367 -0.166721 -0.13954 0.981524 -0.130919 -0.163275 0.986051 -0.032312 -0.159322 0.987227 4.76573e-06 -0.155255 0.987874 -0.000831974 -0.167003 0.985397 0.0332043 -0.148182 0.983758 0.101304 -0.064831 0.983124 0.171068 3.27295e-06 0.987346 0.15858 -0.000241804 0.987944 0.154811 0.0354889 0.985335 0.166902 -0.00360471 -0.999993 -0.000337001 0.00370314 -0.999993 9.78816e-05 9.56517e-05 -1 -0.000248482 -9.56654e-05 -1 0.000248476 -0.00370153 -0.999993 -9.79554e-05 0.00402013 -0.999992 0.000361584 4.10321e-05 1 -0.000124596 -4.10547e-05 1 0.000124444</float_array>
                    <technique_common>
                        <accessor count="98" source="#shape0-lib-normals-array" stride="3">
                            <param name="X" type="float"/>
                            <param name="Y" type="float"/>
                            <param name="Z" type="float"/>
                        </accessor>
                    </technique_common>
                </source>
                <source id="shape0-lib-vcolor" name="vcolor">
                    <float_array id="shape0-lib-vcolor-array" count="204">1 1 1 1 1 1 1 1 1 1 1 1 1 1 1 1 1 1 1 1 1 1 1 1 1 1 1 1 1 1 1 1 1 1 1 1 1 1 1 1 1 1 1 1 1 1 1 1 1 1 1 1 1 1 1 1 1 1 1 1 1 1 1 1 1 1 1 1 1 1 1 1 1 1 1 1 1 1 1 1 1 1 1 1 1 1 1 1 1 1 1 1 1 1 1 1 1 1 1 1 1 1 1 1 1 1 1 1 1 1 1 1 1 1 1 1 1 1 1 1 1 1 1 1 1 1 1 1 1 1 1 1 1 1 1 1 1 1 1 1 1 1 1 1 1 1 1 1 1 1 1 1 1 1 1 1 1 1 1 1 1 1 1 1 1 1 1 1 1 1 1 1 1 1 1 1 1 1 1 1 1 1 1 1 1 1 1 1 1 1 1 1 1 1 1 1 1 1 1 1 1 1 1 1</float_array>
                    <technique_common>
                        <accessor count="51" source="#shape0-lib-vcolor-array" stride="4">
                            <param name="R" type="float"/>
                            <param name="G" type="float"/>
                            <param name="B" type="float"/>
                            <param name="A" type="float"/>
                        </accessor>
                    </technique_common>
                </source>
                <source id="shape0-lib-map" name="map">
                    <float_array id="shape0-lib-map-array" count="588">0.156803 0.802935 0.156803 0.809454 0.153986 0.809454 0.156803 0.802935 0.153986 0.809454 0.153986 0.802935 0.153986 0.802935 0.153986 0.809454 0.151599 0.809454 0.153986 0.802935 0.151599 0.809454 0.151599 0.802935 0.18919 0.810758 0.18919 0.817277 0.186817 0.817277 0.18919 0.810758 0.186817 0.817277 0.186817 0.810758 0.186817 0.810758 0.186817 0.817277 0.184016 0.817277 0.186817 0.810758 0.184016 0.817277 0.184016 0.810758 0.246551 0.809454 0.246551 0.802935 0.249367 0.802935 0.246551 0.809454 0.249367 0.802935 0.249367 0.809454 0.249367 0.809454 0.249367 0.802935 0.251755 0.802935 0.249367 0.809454 0.251755 0.802935 0.251755 0.809454 0.190695 0.817277 0.190695 0.810758 0.193069 0.810758 0.190695 0.817277 0.193069 0.810758 0.193069 0.817277 0.193069 0.817277 0.193069 0.810758 0.195869 0.810758 0.193069 0.817277 0.195869 0.810758 0.195869 0.817277 0.156803 0.795112 0.156803 0.801631 0.153986 0.801631 0.156803 0.795112 0.153986 0.801631 0.153986 0.795112 0.153986 0.795112 0.153986 0.801631 0.151599 0.801631 0.153986 0.795112 0.151599 0.801631 0.151599 0.795112 0.228304 0.810758 0.228304 0.817277 0.22593 0.817277 0.228304 0.810758 0.22593 0.817277 0.22593 0.810758 0.22593 0.810758 0.22593 0.817277 0.22313 0.817277 0.22593 0.810758 0.22313 0.817277 0.22313 0.810758 0.246551 0.801631 0.246551 0.795112 0.249367 0.795112 0.246551 0.801631 0.249367 0.795112 0.249367 0.801631 0.249367 0.801631 0.249367 0.795112 0.251755 0.795112 0.249367 0.801631 0.251755 0.795112 0.251755 0.801631 0.151581 0.817277 0.152669 0.810791 0.153955 0.817277 0.153955 0.817277 0.152669 0.810791 0.156755 0.810758 0.153955 0.817277 0.156755 0.810758 0.156755 0.817277 0.156803 0.801631 0.156803 0.795112 0.246551 0.795112 0.156803 0.801631 0.246551 0.795112 0.246551 0.801631 0.195869 0.817277 0.195869 0.810758 0.22313 0.810758 0.195869 0.817277 0.22313 0.810758 0.22313 0.817277 0.156803 0.809454 0.156803 0.802935 0.246551 0.802935 0.156803 0.809454 0.246551 0.802935 0.246551 0.809454 0.156755 0.817277 0.156755 0.810758 0.184016 0.810758 0.156755 0.817277 0.184016 0.810758 0.184016 0.817277 0.152872 0.751581 0.156378 0.751355 0.153932 0.755026 0.152872 0.751581 0.155954 0.748884 0.156378 0.751355 0.155954 0.748884 0.158654 0.74828 0.156378 0.751355 0.158654 0.74828 0.244699 0.74828 0.245653 0.750912 0.158654 0.74828 0.245653 0.750912 0.156378 0.751355 0.244699 0.74828 0.247399 0.748884 0.245653 0.750912 0.247399 0.748884 0.249688 0.750604 0.249022 0.753692 0.247399 0.748884 0.249022 0.753692 0.245653 0.750912 0.249688 0.750604 0.251218 0.753178 0.249022 0.753692 0.251218 0.753178 0.251755 0.756214 0.249022 0.753692 0.251755 0.756214 0.251755 0.78577 0.249414 0.786824 0.251755 0.756214 0.249414 0.786824 0.249022 0.753692 0.251755 0.78577 0.251218 0.788806 0.249414 0.786824 0.251218 0.788806 0.249688 0.791379 0.246976 0.790628 0.251218 0.788806 0.246976 0.790628 0.249414 0.786824 0.249688 0.791379 0.247399 0.793099 0.246976 0.790628 0.247399 0.793099 0.244699 0.793703 0.246976 0.790628 0.244699 0.793703 0.158654 0.793703 0.157701 0.79107 0.244699 0.793703 0.157701 0.79107 0.246976 0.790628 0.158654 0.793703 0.155954 0.793099 0.157701 0.79107 0.155954 0.793099 0.153666 0.791379 0.154331 0.788291 0.155954 0.793099 0.154331 0.788291 0.157701 0.79107 0.153666 0.791379 0.152136 0.788806 0.154331 0.788291 0.152136 0.788806 0.151599 0.78577 0.154331 0.788291 0.151599 0.78577 0.151599 0.756214 0.153932 0.755026 0.151599 0.78577 0.153932 0.755026 0.154331 0.788291 0.151599 0.756214 0.152872 0.751581 0.153932 0.755026 0.249688 0.703667 0.251136 0.70629 0.247731 0.702298 0.247399 0.746162 0.244688 0.746664 0.249293 0.744638 0.153666 0.744443 0.152218 0.741819 0.155623 0.745811 0.155954 0.701947 0.158665 0.701445 0.154061 0.703472 0.247731 0.702298 0.251136 0.70629 0.246024 0.707661 0.251136 0.70629 0.251666 0.709295 0.246024 0.707661 0.251666 0.709295 0.251665 0.738824 0.246136 0.740289 0.251666 0.709295 0.246136 0.740289 0.246024 0.707661 0.251665 0.738824 0.251134 0.741828 0.246136 0.740289 0.251134 0.741828 0.249293 0.744638 0.246136 0.740289 0.249293 0.744638 0.244688 0.746664 0.246136 0.740289 0.244688 0.746664 0.158653 0.746663 0.157326 0.740442 0.244688 0.746664 0.157326 0.740442 0.246136 0.740289 0.158653 0.746663 0.155623 0.745811 0.157326 0.740442 0.155623 0.745811 0.152218 0.741819 0.157326 0.740442 0.152218 0.741819 0.151688 0.738815 0.157326 0.740442 0.151688 0.738815 0.151689 0.709286 0.157217 0.70782 0.151688 0.738815 0.157217 0.70782 0.157326 0.740442 0.151689 0.709286 0.15222 0.706282 0.157217 0.70782 0.15222 0.706282 0.154061 0.703472 0.157217 0.70782 0.154061 0.703472 0.158665 0.701445 0.157217 0.70782 0.158665 0.701445 0.2447 0.701446 0.246024 0.707661 0.158665 0.701445 0.246024 0.707661 0.157217 0.70782 0.2447 0.701446 0.247731 0.702298 0.246024 0.707661 0.153932 0.755026 0.156378 0.751355 0.154331 0.788291 0.156378 0.751355 0.157701 0.79107 0.154331 0.788291 0.156378 0.751355 0.245653 0.750912 0.246976 0.790628 0.156378 0.751355 0.246976 0.790628 0.157701 0.79107 0.245653 0.750912 0.249022 0.753692 0.246976 0.790628 0.249022 0.753692 0.249414 0.786824 0.246976 0.790628 0.157217 0.70782 0.246024 0.707661 0.157326 0.740442 0.246024 0.707661 0.246136 0.740289 0.157326 0.740442</float_array>
                    <technique_common>
                        <accessor count="294" source="#shape0-lib-map-array" stride="2">
                            <param name="U" type="float"/>
                            <param name="V" type="float"/>
                        </accessor>
                    </technique_common>
                </source>
                <vertices id="shape0-lib-vertices">
                    <input semantic="POSITION" source="#shape0-lib-positions"/>
                </vertices>
                <triangles count="98" material="material0">
                    <input offset="0" semantic="VERTEX" source="#shape0-lib-vertices"/>
                    <input offset="1" semantic="COLOR" source="#shape0-lib-vcolor"/>
                    <input offset="2" semantic="NORMAL" source="#shape0-lib-normals"/>
                    <input offset="3" semantic="TEXCOORD" source="#shape0-lib-map"/>
                    <p>7 7 0 0 41 41 0 1 8 8 0 2 7 7 1 3 8 8 1 4 9 9 1 5 9 9 2 6 8 8 2 7 10 10 2 8 9 9 3 9 10 10 3 10 11 11 3 11 11 11 4 12 10 10 4 13 43 43 4 14 11 11 5 15 43 43 5 16 12 12 5 17 12 12 6 18 43 43 6 19 42 42 6 20 12 12 7 21 42 42 7 22 6 6 7 23 40 40 8 24 5 5 8 25 13 13 8 26 40 40 9 27 13 13 9 28 14 14 9 29 14 14 10 30 13 13 10 31 15 15 10 32 14 14 11 33 15 15 11 34 16 16 11 35 16 16 12 36 15 15 12 37 17 17 12 38 16 16 13 39 17 17 13 40 44 44 13 41 44 44 14 42 17 17 14 43 4 4 14 44 44 44 15 45 4 4 15 46 39 39 15 47 2 2 16 48 37 37 16 49 18 18 16 50 2 2 17 51 18 18 17 52 19 19 17 53 19 19 18 54 18 18 18 55 20 20 18 56 19 19 19 57 20 20 19 58 21 21 19 59 21 21 20 60 20 20 20 61 45 45 20 62 21 21 21 63 45 45 21 64 22 22 21 65 22 22 22 66 45 45 22 67 38 38 22 68 22 22 23 69 38 38 23 70 3 3 23 71 36 36 24 72 1 1 24 73 23 23 24 74 36 36 25 75 23 23 25 76 24 24 25 77 24 24 26 78 23 23 26 79 26 26 26 80 24 24 27 81 26 26 27 82 25 25 27 83 25 25 28 84 26 26 28 85 46 46 28 86 46 46 29 87 26 26 29 88 0 0 29 89 46 46 30 90 0 0 30 91 35 35 30 92 37 37 31 93 2 2 31 94 1 1 31 95 37 37 32 96 1 1 32 97 36 36 32 98 39 39 33 99 4 4 33 100 3 3 33 101 39 39 34 102 3 3 34 103 38 38 34 104 41 41 35 105 7 7 35 106 5 5 35 107 41 41 36 108 5 5 36 109 40 40 36 110 35 35 37 111 0 0 37 112 6 6 37 113 35 35 38 114 6 6 38 115 42 42 38 116 26 26 39 117 27 27 39 118 34 34 39 119 26 26 40 120 23 23 40 121 27 27 40 122 23 23 41 123 1 1 41 124 27 27 41 125 1 1 42 126 2 2 42 127 33 33 42 128 1 1 43 129 33 33 43 130 27 27 43 131 2 2 44 132 19 19 44 133 33 33 44 134 19 19 45 135 21 21 45 136 28 28 45 137 19 19 46 138 28 28 46 139 33 33 46 140 21 21 47 141 22 22 47 142 28 28 47 143 22 22 48 144 3 3 48 145 28 28 48 146 3 3 49 147 4 4 49 148 32 32 49 149 3 3 50 150 32 32 50 151 28 28 50 152 4 4 51 153 17 17 51 154 32 32 51 155 17 17 52 156 15 15 52 157 29 29 52 158 17 17 53 159 29 29 53 160 32 32 53 161 15 15 54 162 13 13 54 163 29 29 54 164 13 13 55 165 5 5 55 166 29 29 55 167 5 5 56 168 7 7 56 169 31 31 56 170 5 5 57 171 31 31 57 172 29 29 57 173 7 7 58 174 9 9 58 175 31 31 58 176 9 9 59 177 11 11 59 178 30 30 59 179 9 9 60 180 30 30 60 181 31 31 60 182 11 11 61 183 12 12 61 184 30 30 61 185 12 12 62 186 6 6 62 187 30 30 62 188 6 6 63 189 0 0 63 190 34 34 63 191 6 6 64 192 34 34 64 193 30 30 64 194 0 0 65 195 26 26 65 196 34 34 65 197 25 25 66 198 46 46 66 199 24 24 66 200 8 8 67 201 41 41 67 202 10 10 67 203 16 16 68 204 44 44 68 205 14 14 68 206 18 18 69 207 37 37 69 208 20 20 69 209 24 24 70 210 46 46 70 211 47 47 70 212 46 46 71 213 35 35 71 214 47 47 71 215 35 35 72 216 42 42 72 217 49 49 72 218 35 35 73 219 49 49 73 220 47 47 73 221 42 42 74 222 43 43 74 223 49 49 74 224 43 43 75 225 10 10 75 226 49 49 75 227 10 10 76 228 41 41 76 229 49 49 76 230 41 41 77 231 40 40 77 232 50 50 77 233 41 41 78 234 50 50 78 235 49 49 78 236 40 40 79 237 14 14 79 238 50 50 79 239 14 14 80 240 44 44 80 241 50 50 80 242 44 44 81 243 39 39 81 244 50 50 81 245 39 39 82 246 38 38 82 247 48 48 82 248 39 39 83 249 48 48 83 250 50 50 83 251 38 38 84 252 45 45 84 253 48 48 84 254 45 45 85 255 20 20 85 256 48 48 85 257 20 20 86 258 37 37 86 259 48 48 86 260 37 37 87 261 36 36 87 262 47 47 87 263 37 37 88 264 47 47 88 265 48 48 88 266 36 36 89 267 24 24 89 268 47 47 89 269 34 34 90 270 27 27 90 271 30 30 90 272 27 27 91 273 31 31 91 274 30 30 91 275 27 27 92 276 33 33 92 277 29 29 92 278 27 27 93 279 29 29 93 280 31 31 93 281 33 33 94 282 28 28 94 283 29 29 94 284 28 28 95 285 32 32 95 286 29 29 95 287 48 48 96 288 47 47 96 289 50 50 96 290 47 47 97 291 49 49 97 292 50 50 97 293</p>
                </triangles>
            </mesh>
        </geometry>
    </library_geometries>
    <library_visual_scenes>
        <visual_scene id="VisualSceneNode" name="VisualScene">
            <node id="node" name="node">
                <instance_geometry url="#shape0-lib">
                    <bind_material>
                        <technique_common>
                            <instance_material symbol="material0" target="#material0">
                                <bind_vertex_input semantic="UVSET0" input_semantic="TEXCOORD"/>
                            </instance_material>
                        </technique_common>
                    </bind_material>
                </instance_geometry>
            </node>
        </visual_scene>
    </library_visual_scenes>
    <scene>
        <instance_visual_scene url="#VisualSceneNode"/>
    </scene>
</COLLADA>
