<?xml version="1.0" encoding="UTF-8"?>
<COLLADA xmlns="http://www.collada.org/2005/11/COLLADASchema" version="1.4.1">
    <asset>
        <contributor>
            <author>VCGLab</author>
            <authoring_tool>VCGLib | MeshLab</authoring_tool>
        </contributor>
        <created>Thu Jul 3 02:14:59 2025 GMT</created>
        <modified>Thu Jul 3 02:14:59 2025 GMT</modified>
        <up_axis>Y_UP</up_axis>
    </asset>
    <library_images>
        <image id="texture0" name="texture0">
            <init_from>./image/shelf_items.png</init_from>
        </image>
    </library_images>
    <library_materials>
        <material id="material0" name="material0">
            <instance_effect url="#material0-fx"/>
        </material>
    </library_materials>
    <library_effects>
        <effect id="material0-fx">
            <profile_COMMON>
                <newparam sid="texture0-surface">
                    <surface type="2D">
                        <init_from>texture0</init_from>
                        <format>R8G8B8</format>
                    </surface>
                </newparam>
                <newparam sid="texture0-sampler">
                    <sampler2D>
                        <source>texture0-surface</source>
                        <minfilter>LINEAR</minfilter>
                        <magfilter>LINEAR</magfilter>
                    </sampler2D>
                </newparam>
                <technique sid="common">
                    <blinn>
                        <diffuse>
                            <texture texture="texture0-sampler" texcoord="UVSET0"/>
                        </diffuse>
                    </blinn>
                </technique>
            </profile_COMMON>
        </effect>
    </library_effects>
    <library_geometries>
        <geometry id="shape0-lib" name="shape0">
            <mesh>
                <source id="shape0-lib-positions" name="position">
                    <float_array id="shape0-lib-positions-array" count="372">-0.100913 0.00042498 -0.0955 -0.100913 0.087575 -0.0955 0.0979125 0.087575 -0.0955 0.0979125 0.00042498 -0.0955 -0.100913 0.00042498 0.1014 -0.100913 0.087575 0.1014 0.0979125 0.087575 0.1014 0.0979125 0.00042498 0.1014 -0.0889124 0.087575 -0.0835 0.0859124 0.087575 -0.0835 -0.0889124 0.087575 0.0894 0.0859124 0.087575 0.0894 -0.0899125 0.077575 -0.0845 0.0869124 0.077575 -0.0845 -0.0899125 0.077575 0.0904 0.0869124 0.077575 0.0904 -0.0528821 0.0533545 0.0361791 0.033106 0.0819067 -0.0334528 0.0720488 0.118 -0.0649881 0.0694617 0.12126 -0.0628931 0.0361141 0.104621 -0.0358888 0.038839 0.121092 -0.0380953 0.0439349 0.145447 -0.0422218 0.0326959 0.178051 -0.0331207 0.0310414 0.179418 -0.0317809 0.0113545 0.130099 -0.0158388 0.00317328 0.13994 -0.00921379 0.00536325 0.156226 -0.0109872 0.00773649 0.196 -0.012909 0.00233641 0.188121 -0.00853612 -0.0096534 0.133091 0.00117311 -0.0304184 0.185275 0.0179882 -0.0193769 0.132206 0.009047 -0.027036 0.122874 0.0152492 -0.0423954 0.154468 0.027687 -0.0469492 0.178268 0.0313747 -0.0539761 0.172768 0.0370649 -0.0409789 0.145401 0.02654 -0.0680964 0.159984 0.0484992 -0.066574 0.130674 0.0472665 -0.0470365 0.114025 0.0314453 -0.07424 0.115346 0.0534742 -0.041863 0.101549 0.0272559 -0.057864 0.0533546 -0.0350643 0.0369782 0.0819067 0.0219227 0.0799309 0.118 0.0477312 0.0770774 0.12126 0.0460167 0.0402961 0.104621 0.0239163 0.0433016 0.121092 0.0257222 0.048922 0.145447 0.0290992 0.0365258 0.178051 0.0216509 0.034701 0.179418 0.0205544 0.0129869 0.130099 0.00750728 0.0039634 0.13994 0.00208538 0.00637879 0.156226 0.00353671 0.00899653 0.196 0.00510956 0.00304043 0.188121 0.00153077 -0.0101841 0.133091 -0.00641528 -0.033087 0.185275 -0.0201768 -0.0209088 0.132206 -0.0128593 -0.0293564 0.122874 -0.0179352 -0.0462974 0.154468 -0.0281144 -0.0513202 0.178268 -0.0311324 -0.0590706 0.172768 -0.0357893 -0.044735 0.145401 -0.0271756 -0.0746448 0.159984 -0.0451472 -0.0729655 0.130674 -0.0441382 -0.0514165 0.114025 -0.0311902 -0.0814209 0.115346 -0.0492187 -0.0457103 0.101549 -0.0277616 -0.0667348 0.0533545 -0.00137032 0.0438732 0.0819065 -0.00426672 0.0939662 0.118 -0.00557844 0.0906383 0.12126 -0.0054913 0.0477428 0.104621 -0.00436803 0.0512479 0.121092 -0.0044598 0.0578026 0.145447 -0.00463144 0.0433457 0.178051 -0.00425288 0.0412175 0.179418 -0.00419716 0.0158939 0.130099 -0.00353404 0.0053703 0.13994 -0.00325847 0.00818731 0.156226 -0.00333221 0.0112401 0.196 -0.00341218 0.00429396 0.188121 -0.00323028 -0.011129 0.133091 -0.0028264 -0.0378394 0.185275 -0.00212699 -0.0236364 0.132206 -0.00249891 -0.0334885 0.122874 -0.00224093 -0.0532455 0.154468 -0.00172357 -0.0591032 0.178268 -0.00157016 -0.068142 0.172768 -0.00133348 -0.0514235 0.145401 -0.00177127 -0.0863052 0.159984 -0.000857872 -0.0843469 0.130674 -0.000909144 -0.0592155 0.114025 -0.00156721 -0.0942076 0.115346 -0.000650917 -0.0525608 0.101549 -0.0017415 -0.0153107 0.0533545 0.0583105 0.00390269 0.0819066 -0.0506548 0.0126043 0.118 -0.100004 0.0120262 0.12126 -0.0967254 0.00457494 0.104621 -0.0544668 0.00518374 0.121092 -0.0579198 0.00632238 0.145447 -0.0643773 0.00381112 0.178051 -0.0501351 0.00344142 0.179418 -0.0480385 -0.000957443 0.130099 -0.023091 -0.00278552 0.13994 -0.0127238 -0.00229621 0.156226 -0.0154989 -0.00176592 0.196 -0.0185063 -0.00297254 0.188121 -0.0116633 -0.00565155 0.133091 0.0035304 -0.0102914 0.185275 0.0298439 -0.00782426 0.132206 0.0158521 -0.00953562 0.122874 0.0255577 -0.0129676 0.154468 0.0450214 -0.0139851 0.178268 0.050792 -0.0155552 0.172768 0.0596966 -0.012651 0.145401 0.0432263 -0.0187103 0.159984 0.0775898 -0.0183701 0.130674 0.0756606 -0.0140045 0.114025 0.0509027 -0.0200829 0.115346 0.085375 -0.0128486 0.101549 0.0443468</float_array>
                    <technique_common>
                        <accessor count="124" source="#shape0-lib-positions-array" stride="3">
                            <param name="X" type="float"/>
                            <param name="Y" type="float"/>
                            <param name="Z" type="float"/>
                        </accessor>
                    </technique_common>
                </source>
                <source id="shape0-lib-normals" name="normal">
                    <float_array id="shape0-lib-normals-array" count="384">0 0 -1 0 0 -1 -1 0 0 -1 0 0 1 0 0 1 0 0 0 -1 0 0 -1 0 0 0 1 0 0 1 0 1 0 0 1 0 0 1 0 0 1 0 0 1 0 0 1 0 0 1 0 0 1 0 0 -0.0995039 -0.995037 0 -0.0995039 -0.995037 -0.995037 -0.0995039 0 -0.995037 -0.0995039 0 0 -0.0995039 0.995037 0 -0.0995039 0.995037 0.995036 -0.0995134 0 0.995036 -0.0995134 0 0 1 0 0 1 0 0.629317 -2.12533e-06 0.777149 0.62932 -1.04016e-07 0.777146 0.629318 -4.51679e-07 0.777148 0.629318 5.7675e-07 0.777148 0.629315 1.34963e-07 0.77715 0.629322 3.4449e-07 0.777144 0.629322 2.66808e-06 0.777145 0.62932 -4.42686e-07 0.777146 0.62932 -3.60188e-06 0.777147 0.629321 -2.94275e-07 0.777145 0.629322 -2.8228e-06 0.777144 0.629319 2.98146e-06 0.777147 0.629322 2.17089e-06 0.777144 0.629318 -3.46323e-06 0.777148 0.62932 -2.3819e-06 0.777146 0.629321 -9.02736e-07 0.777145 0.62932 -1.21155e-06 0.777146 0.629321 3.2624e-07 0.777146 0.62932 4.85174e-07 0.777146 0.629321 1.39426e-06 0.777146 0.62932 6.51363e-07 0.777146 0.629321 -8.67787e-07 0.777146 0.629321 2.68263e-07 0.777146 0.62932 1.24461e-06 0.777146 0.629308 1.54021e-05 0.777156 -0.515043 -3.40806e-06 0.857164 -0.515037 -1.7336e-07 0.857168 -0.515036 1.68843e-06 0.857168 -0.515039 1.0814e-06 0.857167 -0.515044 3.36676e-07 0.857164 -0.515038 4.98604e-07 0.857168 -0.515038 2.66808e-06 0.857167 -0.515038 1.3913e-06 0.857167 -0.515038 -5.68714e-07 0.857167 -0.515039 -9.80921e-07 0.857167 -0.515033 -5.77395e-06 0.85717 -0.515037 -7.99318e-07 0.857168 -0.515038 -4.82421e-07 0.857167 -0.515036 2.06949e-06 0.857168 -0.515035 1.8673e-06 0.857169 -0.515039 -1.91274e-06 0.857167 -0.515041 -2.33338e-06 0.857166 -0.515038 -5.74804e-07 0.857167 -0.51504 7.88401e-07 0.857166 -0.515038 -2.51649e-06 0.857167 -0.515037 -7.37357e-07 0.857168 -0.515038 5.20673e-07 0.857168 -0.515038 2.54849e-06 0.857168 -0.515036 -1.23503e-06 0.857168 -0.515075 3.89635e-05 0.857145 0.0261721 -1.85971e-06 0.999657 0.0261764 2.45955e-07 0.999657 0.0261748 -6.15016e-07 0.999657 0.026178 5.51974e-07 0.999657 0.0261711 -2.94771e-07 0.999658 0.0261783 -1.35983e-07 0.999657 0.0261778 9.38479e-07 0.999657 0.0261765 4.74306e-08 0.999657 0.0261763 -7.10894e-07 0.999657 0.0261778 1.20775e-06 0.999657 0.0261768 3.04726e-08 0.999657 0.0261774 -7.83829e-07 0.999657 0.0261769 -6.93472e-07 0.999657 0.0261749 -2.82444e-06 0.999657 0.0261767 -7.77415e-07 0.999657 0.0261788 9.43501e-07 0.999657 0.0261789 9.50263e-07 0.999657 0.0261771 1.31079e-07 0.999657 0.0261762 6.32994e-07 0.999657 0.0261767 -2.60576e-06 0.999657 0.0261768 2.86344e-07 0.999657 0.0261771 -4.48362e-07 0.999657 0.0261775 2.22714e-06 0.999657 0.0261788 -1.45703e-06 0.999657 0.0261716 5.01115e-06 0.999657 0.984805 -7.64041e-06 0.173664 0.984808 5.89424e-07 0.173647 0.984807 -1.87931e-06 0.173653 0.984807 1.60408e-07 0.173652 0.984808 7.1339e-07 0.173647 0.984808 7.11643e-07 0.173647 0.984808 5.21206e-06 0.173649 0.984808 -1.26481e-06 0.173646 0.984808 2.81988e-06 0.173645 0.984807 -2.64848e-06 0.17365 0.984808 -3.88757e-06 0.173645 0.984808 -4.02254e-06 0.173645 0.984807 -3.21612e-06 0.17365 0.984807 -5.97616e-06 0.173653 0.984808 4.04336e-07 0.173646 0.984809 3.96399e-06 0.173642 0.984809 3.88895e-06 0.173642 0.984808 8.7774e-07 0.173648 0.984808 9.85507e-07 0.173648 0.984808 -6.99684e-06 0.173649 0.984808 1.56437e-07 0.173648 0.984808 -6.07454e-07 0.173647 0.984808 8.13731e-06 0.173646 0.984809 -3.28863e-06 0.173642 0.984805 1.40444e-05 0.173661</float_array>
                    <technique_common>
                        <accessor count="128" source="#shape0-lib-normals-array" stride="3">
                            <param name="X" type="float"/>
                            <param name="Y" type="float"/>
                            <param name="Z" type="float"/>
                        </accessor>
                    </technique_common>
                </source>
                <source id="shape0-lib-vcolor" name="vcolor">
                    <float_array id="shape0-lib-vcolor-array" count="496">1 1 1 1 1 1 1 1 1 1 1 1 1 1 1 1 1 1 1 1 1 1 1 1 1 1 1 1 1 1 1 1 1 1 1 1 1 1 1 1 1 1 1 1 1 1 1 1 1 1 1 1 1 1 1 1 1 1 1 1 1 1 1 1 1 1 1 1 1 1 1 1 1 1 1 1 1 1 1 1 1 1 1 1 1 1 1 1 1 1 1 1 1 1 1 1 1 1 1 1 1 1 1 1 1 1 1 1 1 1 1 1 1 1 1 1 1 1 1 1 1 1 1 1 1 1 1 1 1 1 1 1 1 1 1 1 1 1 1 1 1 1 1 1 1 1 1 1 1 1 1 1 1 1 1 1 1 1 1 1 1 1 1 1 1 1 1 1 1 1 1 1 1 1 1 1 1 1 1 1 1 1 1 1 1 1 1 1 1 1 1 1 1 1 1 1 1 1 1 1 1 1 1 1 1 1 1 1 1 1 1 1 1 1 1 1 1 1 1 1 1 1 1 1 1 1 1 1 1 1 1 1 1 1 1 1 1 1 1 1 1 1 1 1 1 1 1 1 1 1 1 1 1 1 1 1 1 1 1 1 1 1 1 1 1 1 1 1 1 1 1 1 1 1 1 1 1 1 1 1 1 1 1 1 1 1 1 1 1 1 1 1 1 1 1 1 1 1 1 1 1 1 1 1 1 1 1 1 1 1 1 1 1 1 1 1 1 1 1 1 1 1 1 1 1 1 1 1 1 1 1 1 1 1 1 1 1 1 1 1 1 1 1 1 1 1 1 1 1 1 1 1 1 1 1 1 1 1 1 1 1 1 1 1 1 1 1 1 1 1 1 1 1 1 1 1 1 1 1 1 1 1 1 1 1 1 1 1 1 1 1 1 1 1 1 1 1 1 1 1 1 1 1 1 1 1 1 1 1 1 1 1 1 1 1 1 1 1 1 1 1 1 1 1 1 1 1 1 1 1 1 1 1 1 1 1 1 1 1 1 1 1 1 1 1 1 1 1 1 1 1 1 1 1 1 1 1 1 1 1 1 1 1 1 1 1 1 1 1 1 1 1 1 1 1 1 1 1 1 1 1 1 1 1 1 1 1 1 1 1 1 1 1 1 1 1</float_array>
                    <technique_common>
                        <accessor count="124" source="#shape0-lib-vcolor-array" stride="4">
                            <param name="R" type="float"/>
                            <param name="G" type="float"/>
                            <param name="B" type="float"/>
                            <param name="A" type="float"/>
                        </accessor>
                    </technique_common>
                </source>
                <source id="shape0-lib-map" name="map">
                    <float_array id="shape0-lib-map-array" count="768">0.520709 0.944552 0.520709 0.951255 0.506664 0.951255 0.520709 0.944552 0.506664 0.951255 0.506664 0.944552 0.68564 0.93477 0.68564 0.942115 0.669615 0.942115 0.68564 0.93477 0.669615 0.942115 0.669615 0.93477 0.651987 0.942115 0.651987 0.93477 0.668013 0.93477 0.651987 0.942115 0.668013 0.93477 0.668013 0.942115 0.504798 0.896046 0.496702 0.896046 0.496702 0.887951 0.504798 0.896046 0.496702 0.887951 0.504798 0.887951 0.795952 0.900947 0.834048 0.900947 0.834048 0.919129 0.795952 0.900947 0.834048 0.919129 0.795952 0.919129 0.521411 0.944524 0.535455 0.944524 0.534608 0.947596 0.521411 0.944524 0.534608 0.947596 0.522259 0.947596 0.729777 0.926023 0.729777 0.942049 0.722432 0.941072 0.729777 0.926023 0.722432 0.941072 0.722432 0.927 0.874048 0.909204 0.835952 0.909204 0.838252 0.900871 0.874048 0.909204 0.838252 0.900871 0.871748 0.900871 0.634293 0.950862 0.634293 0.934837 0.641638 0.935814 0.634293 0.950862 0.641638 0.935814 0.641638 0.949886 0.863903 0.919204 0.836097 0.919204 0.835938 0.910871 0.863903 0.919204 0.835938 0.910871 0.864062 0.910871 0.694479 0.959743 0.687218 0.959743 0.687176 0.952398 0.694479 0.959743 0.687176 0.952398 0.694521 0.952398 0.531716 0.951283 0.521464 0.951283 0.521406 0.94821 0.531716 0.951283 0.521406 0.94821 0.531774 0.94821 0.676851 0.959743 0.66959 0.959743 0.669548 0.952398 0.676851 0.959743 0.669548 0.952398 0.676893 0.952398 0.659265 0.959743 0.651921 0.959743 0.651921 0.952398 0.659265 0.959743 0.651921 0.952398 0.659265 0.952398 0.811717 0.715874 0.814451 0.711159 0.812226 0.715514 0.808118 0.708814 0.814451 0.711159 0.811717 0.715874 0.80217 0.709127 0.804052 0.709258 0.800166 0.716667 0.806229 0.717112 0.807025 0.713186 0.807418 0.718601 0.806229 0.717112 0.806535 0.710275 0.807025 0.713186 0.804052 0.709258 0.806535 0.710275 0.806229 0.717112 0.804052 0.709258 0.808118 0.708814 0.806535 0.710275 0.808118 0.708814 0.813439 0.707476 0.814451 0.711159 0.808118 0.708814 0.812911 0.70503 0.813439 0.707476 0.804052 0.709258 0.812911 0.70503 0.808118 0.708814 0.819003 0.707449 0.812529 0.701414 0.819867 0.707017 0.812911 0.70503 0.812529 0.701414 0.819003 0.707449 0.804052 0.709258 0.812529 0.701414 0.812911 0.70503 0.80217 0.709127 0.812529 0.701414 0.804052 0.709258 0.795478 0.714945 0.79783 0.712349 0.796832 0.715967 0.797908 0.711038 0.79783 0.712349 0.795478 0.714945 0.797908 0.711038 0.800687 0.707741 0.79783 0.712349 0.80217 0.709127 0.796697 0.697695 0.812529 0.701414 0.80217 0.709127 0.797817 0.704574 0.796697 0.697695 0.797817 0.704574 0.796815 0.706427 0.791959 0.706496 0.793122 0.708892 0.797908 0.711038 0.792831 0.713171 0.793122 0.708892 0.800687 0.707741 0.797908 0.711038 0.796815 0.706427 0.800687 0.707741 0.793122 0.708892 0.797817 0.704574 0.800687 0.707741 0.796815 0.706427 0.797817 0.704574 0.80217 0.709127 0.800687 0.707741 0.811717 0.692536 0.814451 0.68782 0.812226 0.692176 0.808118 0.685476 0.814451 0.68782 0.811717 0.692536 0.80217 0.685789 0.804052 0.68592 0.800166 0.693328 0.806229 0.693774 0.807025 0.689848 0.807418 0.695262 0.806229 0.693774 0.806535 0.686937 0.807025 0.689848 0.804052 0.68592 0.806535 0.686937 0.806229 0.693774 0.804052 0.68592 0.808118 0.685476 0.806535 0.686937 0.808118 0.685476 0.813439 0.684138 0.814451 0.68782 0.808118 0.685476 0.812911 0.681692 0.813439 0.684138 0.804052 0.68592 0.812911 0.681692 0.808118 0.685476 0.819003 0.684111 0.812529 0.678076 0.819867 0.683679 0.812911 0.681692 0.812529 0.678076 0.819003 0.684111 0.804052 0.68592 0.812529 0.678076 0.812911 0.681692 0.80217 0.685789 0.812529 0.678076 0.804052 0.68592 0.795478 0.691607 0.79783 0.689011 0.796832 0.692629 0.797908 0.6877 0.79783 0.689011 0.795478 0.691607 0.797908 0.6877 0.800687 0.684403 0.79783 0.689011 0.80217 0.685789 0.796697 0.674357 0.812529 0.678076 0.80217 0.685789 0.797817 0.681236 0.796697 0.674357 0.797817 0.681236 0.796815 0.683088 0.791959 0.683158 0.793122 0.685553 0.797908 0.6877 0.792831 0.689833 0.793122 0.685553 0.800687 0.684403 0.797908 0.6877 0.796815 0.683088 0.800687 0.684403 0.793122 0.685553 0.797817 0.681236 0.800687 0.684403 0.796815 0.683088 0.797817 0.681236 0.80217 0.685789 0.800687 0.684403 0.842834 0.622522 0.845568 0.617806 0.843344 0.622162 0.839236 0.615461 0.845568 0.617806 0.842834 0.622522 0.833287 0.615774 0.835169 0.615906 0.831284 0.623314 0.837346 0.62376 0.838142 0.619834 0.838536 0.625248 0.837346 0.62376 0.837652 0.616923 0.838142 0.619834 0.835169 0.615906 0.837652 0.616923 0.837346 0.62376 0.835169 0.615906 0.839236 0.615461 0.837652 0.616923 0.839236 0.615461 0.844556 0.614124 0.845568 0.617806 0.839236 0.615461 0.844029 0.611678 0.844556 0.614124 0.835169 0.615906 0.844029 0.611678 0.839236 0.615461 0.850121 0.614097 0.843646 0.608061 0.850985 0.613664 0.844029 0.611678 0.843646 0.608061 0.850121 0.614097 0.835169 0.615906 0.843646 0.608061 0.844029 0.611678 0.833287 0.615774 0.843646 0.608061 0.835169 0.615906 0.826595 0.621592 0.828947 0.618997 0.82795 0.622615 0.829026 0.617686 0.828947 0.618997 0.826595 0.621592 0.829026 0.617686 0.831805 0.614388 0.828947 0.618997 0.833287 0.615774 0.827815 0.604343 0.843646 0.608061 0.833287 0.615774 0.828934 0.611221 0.827815 0.604343 0.828934 0.611221 0.827933 0.613074 0.823076 0.613144 0.82424 0.615539 0.829026 0.617686 0.823949 0.619819 0.82424 0.615539 0.831805 0.614388 0.829026 0.617686 0.827933 0.613074 0.831805 0.614388 0.82424 0.615539 0.828934 0.611221 0.831805 0.614388 0.827933 0.613074 0.828934 0.611221 0.833287 0.615774 0.831805 0.614388 0.811717 0.64586 0.814451 0.641144 0.812226 0.6455 0.808118 0.638799 0.814451 0.641144 0.811717 0.64586 0.80217 0.639112 0.804052 0.639244 0.800166 0.646652 0.806229 0.647098 0.807025 0.643172 0.807418 0.648586 0.806229 0.647098 0.806535 0.640261 0.807025 0.643172 0.804052 0.639244 0.806535 0.640261 0.806229 0.647098 0.804052 0.639244 0.808118 0.638799 0.806535 0.640261 0.808118 0.638799 0.813439 0.637462 0.814451 0.641144 0.808118 0.638799 0.812911 0.635016 0.813439 0.637462 0.804052 0.639244 0.812911 0.635016 0.808118 0.638799 0.819003 0.637435 0.812529 0.631399 0.819867 0.637003 0.812911 0.635016 0.812529 0.631399 0.819003 0.637435 0.804052 0.639244 0.812529 0.631399 0.812911 0.635016 0.80217 0.639112 0.812529 0.631399 0.804052 0.639244 0.795478 0.64493 0.79783 0.642335 0.796832 0.645953 0.797908 0.641024 0.79783 0.642335 0.795478 0.64493 0.797908 0.641024 0.800687 0.637726 0.79783 0.642335 0.80217 0.639112 0.796697 0.627681 0.812529 0.631399 0.80217 0.639112 0.797817 0.634559 0.796697 0.627681 0.797817 0.634559 0.796815 0.636412 0.791959 0.636482 0.793122 0.638877 0.797908 0.641024 0.792831 0.643157 0.793122 0.638877 0.800687 0.637726 0.797908 0.641024 0.796815 0.636412 0.800687 0.637726 0.793122 0.638877 0.797817 0.634559 0.800687 0.637726 0.796815 0.636412 0.797817 0.634559 0.80217 0.639112 0.800687 0.637726</float_array>
                    <technique_common>
                        <accessor count="384" source="#shape0-lib-map-array" stride="2">
                            <param name="U" type="float"/>
                            <param name="V" type="float"/>
                        </accessor>
                    </technique_common>
                </source>
                <vertices id="shape0-lib-vertices">
                    <input semantic="POSITION" source="#shape0-lib-positions"/>
                </vertices>
                <triangles count="128" material="material0">
                    <input offset="0" semantic="VERTEX" source="#shape0-lib-vertices"/>
                    <input offset="1" semantic="COLOR" source="#shape0-lib-vcolor"/>
                    <input offset="2" semantic="NORMAL" source="#shape0-lib-normals"/>
                    <input offset="3" semantic="TEXCOORD" source="#shape0-lib-map"/>
                    <p>0 0 0 0 1 1 0 1 2 2 0 2 0 0 1 3 2 2 1 4 3 3 1 5 4 4 2 6 5 5 2 7 1 1 2 8 4 4 3 9 1 1 3 10 0 0 3 11 6 6 4 12 7 7 4 13 3 3 4 14 6 6 5 15 3 3 5 16 2 2 5 17 7 7 6 18 4 4 6 19 0 0 6 20 7 7 7 21 0 0 7 22 3 3 7 23 4 4 8 24 7 7 8 25 6 6 8 26 4 4 9 27 6 6 9 28 5 5 9 29 2 2 10 30 1 1 10 31 8 8 10 32 2 2 11 33 8 8 11 34 9 9 11 35 1 1 12 36 5 5 12 37 10 10 12 38 1 1 13 39 10 10 13 40 8 8 13 41 5 5 14 42 6 6 14 43 11 11 14 44 5 5 15 45 11 11 15 46 10 10 15 47 6 6 16 48 2 2 16 49 9 9 16 50 6 6 17 51 9 9 17 52 11 11 17 53 10 10 18 54 11 11 18 55 15 15 18 56 10 10 19 57 15 15 19 58 14 14 19 59 11 11 20 60 9 9 20 61 13 13 20 62 11 11 21 63 13 13 21 64 15 15 21 65 9 9 22 66 8 8 22 67 12 12 22 68 9 9 23 69 12 12 23 70 13 13 23 71 8 8 24 72 10 10 24 73 14 14 24 74 8 8 25 75 14 14 25 76 12 12 25 77 14 14 26 78 15 15 26 79 13 13 26 80 14 14 27 81 13 13 27 82 12 12 27 83 24 24 28 84 22 22 28 85 23 23 28 86 25 25 29 87 22 22 29 88 24 24 29 89 32 32 30 90 30 30 30 91 31 31 30 92 29 29 31 93 27 27 31 94 28 28 31 95 29 29 32 96 26 26 32 97 27 27 32 98 30 30 33 99 26 26 33 100 29 29 33 101 30 30 34 102 25 25 34 103 26 26 34 104 25 25 35 105 21 21 35 106 22 22 35 107 25 25 36 108 20 20 36 109 21 21 36 110 30 30 37 111 20 20 37 112 25 25 37 113 19 19 38 114 17 17 38 115 18 18 38 116 20 20 39 117 17 17 39 118 19 19 39 119 30 30 40 120 17 17 40 121 20 20 40 122 32 32 41 123 17 17 41 124 30 30 41 125 36 36 42 126 34 34 42 127 35 35 42 128 37 37 43 129 34 34 43 130 36 36 43 131 37 37 44 132 33 33 44 133 34 34 44 134 32 32 45 135 16 16 45 136 17 17 45 137 32 32 46 138 42 42 46 139 16 16 46 140 42 42 47 141 40 40 47 142 41 41 47 143 39 39 48 144 37 37 48 145 38 38 48 146 39 39 49 147 33 33 49 148 37 37 49 149 40 40 50 150 33 33 50 151 39 39 50 152 42 42 51 153 33 33 51 154 40 40 51 155 42 42 52 156 32 32 52 157 33 33 52 158 51 51 53 159 49 49 53 160 50 50 53 161 52 52 54 162 49 49 54 163 51 51 54 164 59 59 55 165 57 57 55 166 58 58 55 167 56 56 56 168 54 54 56 169 55 55 56 170 56 56 57 171 53 53 57 172 54 54 57 173 57 57 58 174 53 53 58 175 56 56 58 176 57 57 59 177 52 52 59 178 53 53 59 179 52 52 60 180 48 48 60 181 49 49 60 182 52 52 61 183 47 47 61 184 48 48 61 185 57 57 62 186 47 47 62 187 52 52 62 188 46 46 63 189 44 44 63 190 45 45 63 191 47 47 64 192 44 44 64 193 46 46 64 194 57 57 65 195 44 44 65 196 47 47 65 197 59 59 66 198 44 44 66 199 57 57 66 200 63 63 67 201 61 61 67 202 62 62 67 203 64 64 68 204 61 61 68 205 63 63 68 206 64 64 69 207 60 60 69 208 61 61 69 209 59 59 70 210 43 43 70 211 44 44 70 212 59 59 71 213 69 69 71 214 43 43 71 215 69 69 72 216 67 67 72 217 68 68 72 218 66 66 73 219 64 64 73 220 65 65 73 221 66 66 74 222 60 60 74 223 64 64 74 224 67 67 75 225 60 60 75 226 66 66 75 227 69 69 76 228 60 60 76 229 67 67 76 230 69 69 77 231 59 59 77 232 60 60 77 233 78 78 78 234 76 76 78 235 77 77 78 236 79 79 79 237 76 76 79 238 78 78 79 239 86 86 80 240 84 84 80 241 85 85 80 242 83 83 81 243 81 81 81 244 82 82 81 245 83 83 82 246 80 80 82 247 81 81 82 248 84 84 83 249 80 80 83 250 83 83 83 251 84 84 84 252 79 79 84 253 80 80 84 254 79 79 85 255 75 75 85 256 76 76 85 257 79 79 86 258 74 74 86 259 75 75 86 260 84 84 87 261 74 74 87 262 79 79 87 263 73 73 88 264 71 71 88 265 72 72 88 266 74 74 89 267 71 71 89 268 73 73 89 269 84 84 90 270 71 71 90 271 74 74 90 272 86 86 91 273 71 71 91 274 84 84 91 275 90 90 92 276 88 88 92 277 89 89 92 278 91 91 93 279 88 88 93 280 90 90 93 281 91 91 94 282 87 87 94 283 88 88 94 284 86 86 95 285 70 70 95 286 71 71 95 287 86 86 96 288 96 96 96 289 70 70 96 290 96 96 97 291 94 94 97 292 95 95 97 293 93 93 98 294 91 91 98 295 92 92 98 296 93 93 99 297 87 87 99 298 91 91 99 299 94 94 100 300 87 87 100 301 93 93 100 302 96 96 101 303 87 87 101 304 94 94 101 305 96 96 102 306 86 86 102 307 87 87 102 308 105 105 103 309 103 103 103 310 104 104 103 311 106 106 104 312 103 103 104 313 105 105 104 314 113 113 105 315 111 111 105 316 112 112 105 317 110 110 106 318 108 108 106 319 109 109 106 320 110 110 107 321 107 107 107 322 108 108 107 323 111 111 108 324 107 107 108 325 110 110 108 326 111 111 109 327 106 106 109 328 107 107 109 329 106 106 110 330 102 102 110 331 103 103 110 332 106 106 111 333 101 101 111 334 102 102 111 335 111 111 112 336 101 101 112 337 106 106 112 338 100 100 113 339 98 98 113 340 99 99 113 341 101 101 114 342 98 98 114 343 100 100 114 344 111 111 115 345 98 98 115 346 101 101 115 347 113 113 116 348 98 98 116 349 111 111 116 350 117 117 117 351 115 115 117 352 116 116 117 353 118 118 118 354 115 115 118 355 117 117 118 356 118 118 119 357 114 114 119 358 115 115 119 359 113 113 120 360 97 97 120 361 98 98 120 362 113 113 121 363 123 123 121 364 97 97 121 365 123 123 122 366 121 121 122 367 122 122 122 368 120 120 123 369 118 118 123 370 119 119 123 371 120 120 124 372 114 114 124 373 118 118 124 374 121 121 125 375 114 114 125 376 120 120 125 377 123 123 126 378 114 114 126 379 121 121 126 380 123 123 127 381 113 113 127 382 114 114 127 383</p>
                </triangles>
            </mesh>
        </geometry>
    </library_geometries>
    <library_visual_scenes>
        <visual_scene id="VisualSceneNode" name="VisualScene">
            <node id="node" name="node">
                <instance_geometry url="#shape0-lib">
                    <bind_material>
                        <technique_common>
                            <instance_material symbol="material0" target="#material0">
                                <bind_vertex_input semantic="UVSET0" input_semantic="TEXCOORD"/>
                            </instance_material>
                        </technique_common>
                    </bind_material>
                </instance_geometry>
            </node>
        </visual_scene>
    </library_visual_scenes>
    <scene>
        <instance_visual_scene url="#VisualSceneNode"/>
    </scene>
</COLLADA>
