<?xml version="1.0" encoding="UTF-8"?>
<COLLADA xmlns="http://www.collada.org/2005/11/COLLADASchema" version="1.4.1">
    <asset>
        <contributor>
            <author>VCGLab</author>
            <authoring_tool>VCGLib | MeshLab</authoring_tool>
        </contributor>
        <created>Thu Jul 3 01:33:00 2025 GMT</created>
        <modified>Thu Jul 3 01:33:00 2025 GMT</modified>
        <up_axis>Y_UP</up_axis>
    </asset>
    <library_images>
        <image id="texture0" name="texture0">
            <init_from>./image/shelf_books.png</init_from>
        </image>
    </library_images>
    <library_materials>
        <material id="material0" name="material0">
            <instance_effect url="#material0-fx"/>
        </material>
    </library_materials>
    <library_effects>
        <effect id="material0-fx">
            <profile_COMMON>
                <newparam sid="texture0-surface">
                    <surface type="2D">
                        <init_from>texture0</init_from>
                        <format>R8G8B8</format>
                    </surface>
                </newparam>
                <newparam sid="texture0-sampler">
                    <sampler2D>
                        <source>texture0-surface</source>
                        <minfilter>LINEAR</minfilter>
                        <magfilter>LINEAR</magfilter>
                    </sampler2D>
                </newparam>
                <technique sid="common">
                    <blinn>
                        <diffuse>
                            <texture texture="texture0-sampler" texcoord="UVSET0"/>
                        </diffuse>
                    </blinn>
                </technique>
            </profile_COMMON>
        </effect>
    </library_effects>
    <library_geometries>
        <geometry id="shape0-lib" name="shape0">
            <mesh>
                <source id="shape0-lib-positions" name="position">
                    <float_array id="shape0-lib-positions-array" count="129">-0.0642614 0.12632 -0.0688495 0.0957387 0.12632 -0.0688495 0.0957387 0.104045 -0.0688495 -0.0642614 0.104045 -0.0688495 -0.0642613 0.125584 0.0509191 0.0957387 0.125723 0.0508706 0.0957387 0.104781 0.0509191 -0.0642613 0.104642 0.0508706 -0.0642614 0.10157 -0.0688495 0.0957387 0.10157 -0.0688495 0.0957387 0.0792949 -0.0688495 -0.0642614 0.0792949 -0.0688495 -0.0642613 0.100834 0.0509191 0.0957387 0.100973 0.0508706 0.0957387 0.0800305 0.0509191 -0.0642613 0.0798921 0.0508708 -0.0642614 0.0776449 -0.0688495 0.0957387 0.0776449 -0.0688495 0.0957387 0.0553699 -0.0688495 -0.0642614 0.0553699 -0.0688495 -0.0642613 0.0769093 0.0509192 0.0957387 0.0770477 0.0508708 0.0957387 0.0561055 0.0509192 -0.0642613 0.0559671 0.0508708 -0.0756565 0.0540844 -0.0688495 0.0961167 0.0514161 -0.0688495 -0.0761166 0.0318697 -0.0688495 -0.0756715 0.0533502 0.0509199 0.0961168 0.0514161 0.0483335 -0.0761006 0.0326482 0.0510084 0.0956812 0.0303953 0.0511728 0.0960904 0.0501423 0.0512565 -0.0759411 0.0278996 -0.0688495 0.0957796 0.00601023 -0.0688495 -0.0760137 0.00568014 -0.0688495 -0.0759447 0.0269114 0.0510616 0.0957888 0.00880819 0.0517505 -0.0760137 0.00568014 0.0483335 0.095778 0.00650436 0.050319 -0.0760095 0.00695428 0.0512565 0.0958549 0.0263772 0.0514464 0.0956563 0.0292014 -0.0688495 0.0956563 0.0292014 0.0483335</float_array>
                    <technique_common>
                        <accessor count="43" source="#shape0-lib-positions-array" stride="3">
                            <param name="X" type="float"/>
                            <param name="Y" type="float"/>
                            <param name="Z" type="float"/>
                        </accessor>
                    </technique_common>
                </source>
                <source id="shape0-lib-normals" name="normal">
                    <float_array id="shape0-lib-normals-array" count="210">0 0 -1 0 0 -1 0 0.999988 0.00498981 -0.000863787 0.999981 0.00614418 0 -0.999988 0.00498974 0.00086374 -0.999981 0.00614406 -0.000304822 0.00231379 0.999997 0.000304821 -0.00231343 0.999997 0 0 -1 0 0 -1 0 0.999988 0.00498981 -0.00086374 0.999981 0.00614412 0 -0.999988 0.00498812 0.000863139 -0.999981 0.00614163 -0.000304241 0.00231712 0.999997 0.000304814 -0.00230557 0.999997 0 0 -1 0 0 -1 0 0.999988 0.00498799 -0.000863232 0.999981 0.00614163 0 -0.999988 0.00498803 0.000863255 -0.999981 0.00614169 -0.000304328 0.00230982 0.999997 0.000304328 -0.00230982 0.999997 0.0163348 0.916561 0.39956 0.015532 0.999879 -1.38255e-08 0.01135 0.999917 0.00613108 -0.00101248 -0.00421722 0.999991 -0.00187955 0.00431719 0.999989 -0.000220229 -0.916696 0.399585 0.00325309 -0.52777 0.849381 0.00192143 -0.999998 0 0.00474975 -0.99998 0.00414643 -0.0030617 0.0173201 0.999845 -0.00220912 0.00977485 0.99995 1 0 0 1 0 0 -1 0 4.97665e-07 -1 -1.06893e-06 6.899e-07 1 0 0 1 0 0 -1 0 4.97665e-07 -1 -1.06891e-06 6.89898e-07 1 0 0 1 0 0 -1 0 4.97665e-07 -1 -1.0689e-06 6.89897e-07 -0.999786 0.0207069 1.86368e-06 -0.999785 0.0207242 -1.24484e-06 0.999992 -0.00378702 -0.00147289 -0.999995 0.00324881 1.12437e-05 -0.999995 0.00326732 -3.02209e-06 -0.999995 0.00325025 0 0 0 -1 0 0 -1 -0.0124592 -0.921707 0.387686 -0.0155317 -0.999858 0.00649671 -0.0200641 -0.999799 0 0 0 -1 0 0 -1 0.000798272 0.740632 0.67191 -0.00758614 0.999971 0 -0.0132123 0.999879 0.00823974 0.999785 -0.0207253 -5.532e-05 0.999785 -0.0207152 1.95924e-05 0.999785 -0.0207206 0 0.999785 -0.0207253 -8.90023e-07 0.997957 -0.000238846 -0.0638823 0.999986 0.00531659 -8.35298e-06 0.999986 0.00536044 0</float_array>
                    <technique_common>
                        <accessor count="70" source="#shape0-lib-normals-array" stride="3">
                            <param name="X" type="float"/>
                            <param name="Y" type="float"/>
                            <param name="Z" type="float"/>
                        </accessor>
                    </technique_common>
                </source>
                <source id="shape0-lib-vcolor" name="vcolor">
                    <float_array id="shape0-lib-vcolor-array" count="172">1 1 1 1 1 1 1 1 1 1 1 1 1 1 1 1 1 1 1 1 1 1 1 1 1 1 1 1 1 1 1 1 1 1 1 1 1 1 1 1 1 1 1 1 1 1 1 1 1 1 1 1 1 1 1 1 1 1 1 1 1 1 1 1 1 1 1 1 1 1 1 1 1 1 1 1 1 1 1 1 1 1 1 1 1 1 1 1 1 1 1 1 1 1 1 1 1 1 1 1 1 1 1 1 1 1 1 1 1 1 1 1 1 1 1 1 1 1 1 1 1 1 1 1 1 1 1 1 1 1 1 1 1 1 1 1 1 1 1 1 1 1 1 1 1 1 1 1 1 1 1 1 1 1 1 1 1 1 1 1 1 1 1 1 1 1 1 1 1 1 1 1</float_array>
                    <technique_common>
                        <accessor count="43" source="#shape0-lib-vcolor-array" stride="4">
                            <param name="R" type="float"/>
                            <param name="G" type="float"/>
                            <param name="B" type="float"/>
                            <param name="A" type="float"/>
                        </accessor>
                    </technique_common>
                </source>
                <source id="shape0-lib-map" name="map">
                    <float_array id="shape0-lib-map-array" count="420">0.430897 0.350601 0.454044 0.350601 0.454044 0.347345 0.430897 0.350601 0.454044 0.347345 0.430897 0.347345 0.48033 0.603757 0.48033 0.598445 0.49192 0.598445 0.48033 0.603757 0.49192 0.598445 0.49192 0.603757 0.537705 0.597382 0.537705 0.59207 0.549295 0.59207 0.537705 0.597382 0.549295 0.59207 0.549295 0.597382 0.414663 0.829401 0.481964 0.82948 0.481964 0.838135 0.414663 0.829401 0.481964 0.838135 0.414663 0.838056 0.430897 0.346983 0.454044 0.346983 0.454044 0.343727 0.430897 0.346983 0.454044 0.343727 0.430897 0.343727 0.45483 0.603757 0.45483 0.598445 0.46642 0.598445 0.45483 0.603757 0.46642 0.598445 0.46642 0.603757 0.49308 0.603757 0.49308 0.598445 0.50467 0.598445 0.49308 0.603757 0.50467 0.598445 0.50467 0.603757 0.414663 0.819011 0.481964 0.81909 0.481964 0.827744 0.414663 0.819011 0.481964 0.827744 0.414663 0.827665 0.430897 0.343486 0.454044 0.343486 0.454044 0.34023 0.430897 0.343486 0.454044 0.34023 0.430897 0.34023 0.410205 0.603757 0.410205 0.598445 0.421795 0.598445 0.410205 0.603757 0.421795 0.598445 0.421795 0.603757 0.37833 0.603757 0.37833 0.598445 0.38992 0.598445 0.37833 0.603757 0.38992 0.598445 0.38992 0.603757 0.414663 0.808966 0.481964 0.809045 0.481964 0.8177 0.414663 0.808966 0.481964 0.8177 0.414663 0.817621 0.484226 0.806997 0.411965 0.80773 0.484214 0.806415 0.422954 0.578257 0.422954 0.572945 0.434545 0.572945 0.422954 0.578257 0.434545 0.572945 0.434545 0.578257 0.411787 0.799183 0.484045 0.798278 0.484214 0.806415 0.411787 0.799183 0.484214 0.806415 0.411965 0.80773 0.411823 0.787796 0.484084 0.788117 0.411825 0.788378 0.411825 0.788378 0.484084 0.788117 0.484088 0.789109 0.422954 0.565507 0.422954 0.560195 0.434545 0.560195 0.422954 0.565507 0.434545 0.560195 0.434545 0.565507 0.411825 0.788378 0.484088 0.789109 0.484112 0.796588 0.411825 0.788378 0.484112 0.796588 0.411851 0.796633 0.635165 0.696224 0.594078 0.695984 0.594078 0.702127 0.635165 0.696224 0.594078 0.702127 0.635148 0.701909 0.635165 0.879766 0.594078 0.880006 0.594078 0.873863 0.635165 0.879766 0.594078 0.873863 0.635148 0.874081 0.635165 0.689398 0.594078 0.689158 0.594078 0.695301 0.635165 0.689398 0.594078 0.695301 0.635148 0.695083 0.635165 0.87294 0.594078 0.873181 0.594078 0.867037 0.635165 0.87294 0.594078 0.867037 0.635148 0.867255 0.635165 0.6828 0.594078 0.682559 0.594078 0.688703 0.635165 0.6828 0.594078 0.688703 0.635148 0.688485 0.635165 0.866341 0.594078 0.866582 0.594078 0.860439 0.635165 0.866341 0.594078 0.860439 0.635148 0.860656 0.635165 0.859844 0.594078 0.860084 0.594078 0.853957 0.635165 0.859844 0.594078 0.853957 0.634944 0.854138 0.635516 0.669718 0.634952 0.669069 0.635354 0.674619 0.635075 0.852621 0.634342 0.846734 0.635345 0.847137 0.635075 0.852621 0.594078 0.852862 0.594078 0.846734 0.635075 0.852621 0.594078 0.846734 0.634342 0.846734 0.429972 0.340042 0.454822 0.339652 0.454756 0.336405 0.429972 0.340042 0.454756 0.336405 0.429905 0.336795 0.411787 0.799183 0.484032 0.797671 0.484045 0.798278 0.41658 0.584632 0.41658 0.57932 0.42817 0.57932 0.41658 0.584632 0.42817 0.57932 0.42817 0.584632 0.429931 0.336215 0.454784 0.336263 0.454774 0.333015 0.429931 0.336215 0.454774 0.333015 0.42992 0.332967 0.484115 0.797263 0.411851 0.796633 0.484112 0.796588 0.48033 0.514507 0.48033 0.509195 0.49192 0.509195 0.48033 0.514507 0.49192 0.509195 0.49192 0.514507 0.635289 0.675687 0.634342 0.675342 0.634342 0.681469 0.635289 0.675687 0.634342 0.681469 0.635345 0.681066 0.634342 0.675342 0.594078 0.675342 0.594078 0.681469 0.634342 0.675342 0.594078 0.681469 0.634342 0.681469 0.634952 0.669069 0.634342 0.675074 0.635354 0.674619 0.634952 0.669069 0.594078 0.668946 0.594078 0.675074 0.634952 0.669069 0.594078 0.675074 0.634342 0.675074</float_array>
                    <technique_common>
                        <accessor count="210" source="#shape0-lib-map-array" stride="2">
                            <param name="U" type="float"/>
                            <param name="V" type="float"/>
                        </accessor>
                    </technique_common>
                </source>
                <vertices id="shape0-lib-vertices">
                    <input semantic="POSITION" source="#shape0-lib-positions"/>
                </vertices>
                <triangles count="70" material="material0">
                    <input offset="0" semantic="VERTEX" source="#shape0-lib-vertices"/>
                    <input offset="1" semantic="COLOR" source="#shape0-lib-vcolor"/>
                    <input offset="2" semantic="NORMAL" source="#shape0-lib-normals"/>
                    <input offset="3" semantic="TEXCOORD" source="#shape0-lib-map"/>
                    <p>0 0 0 0 1 1 0 1 2 2 0 2 0 0 1 3 2 2 1 4 3 3 1 5 5 5 2 6 1 1 2 7 0 0 2 8 5 5 3 9 0 0 3 10 4 4 3 11 7 7 4 12 3 3 4 13 2 2 4 14 7 7 5 15 2 2 5 16 6 6 5 17 7 7 6 18 6 6 6 19 5 5 6 20 7 7 7 21 5 5 7 22 4 4 7 23 8 8 8 24 9 9 8 25 10 10 8 26 8 8 9 27 10 10 9 28 11 11 9 29 13 13 10 30 9 9 10 31 8 8 10 32 13 13 11 33 8 8 11 34 12 12 11 35 15 15 12 36 11 11 12 37 10 10 12 38 15 15 13 39 10 10 13 40 14 14 13 41 15 15 14 42 14 14 14 43 13 13 14 44 15 15 15 45 13 13 15 46 12 12 15 47 16 16 16 48 17 17 16 49 18 18 16 50 16 16 17 51 18 18 17 52 19 19 17 53 21 21 18 54 17 17 18 55 16 16 18 56 21 21 19 57 16 16 19 58 20 20 19 59 23 23 20 60 19 19 20 61 18 18 20 62 23 23 21 63 18 18 21 64 22 22 21 65 23 23 22 66 22 22 22 67 21 21 22 68 23 23 23 69 21 21 23 70 20 20 23 71 28 28 24 72 27 27 24 73 31 31 24 74 28 28 25 75 25 25 25 76 24 24 25 77 28 28 26 78 24 24 26 79 27 27 26 80 29 29 27 81 30 30 27 82 31 31 27 83 29 29 28 84 31 31 28 85 27 27 28 86 37 37 29 87 38 38 29 88 39 39 29 89 39 39 30 90 38 38 30 91 36 36 30 92 37 37 31 93 34 34 31 94 33 33 31 95 37 37 32 96 33 33 32 97 38 38 32 98 39 39 33 99 36 36 33 100 40 40 33 101 39 39 34 102 40 40 34 103 35 35 34 104 6 6 35 105 2 2 35 106 1 1 35 107 6 6 36 108 1 1 36 109 5 5 36 110 4 4 37 111 0 0 37 112 3 3 37 113 4 4 38 114 3 3 38 115 7 7 38 116 14 14 39 117 10 10 39 118 9 9 39 119 14 14 40 120 9 9 40 121 13 13 40 122 12 12 41 123 8 8 41 124 11 11 41 125 12 12 42 126 11 11 42 127 15 15 42 128 22 22 43 129 18 18 43 130 17 17 43 131 22 22 44 132 17 17 44 133 21 21 44 134 20 20 45 135 16 16 45 136 19 19 45 137 20 20 46 138 19 19 46 139 23 23 46 140 27 27 47 141 24 24 47 142 26 26 47 143 27 27 48 144 26 26 48 145 29 29 48 146 36 36 49 147 38 38 49 148 40 40 49 149 35 35 50 150 37 37 50 151 39 39 50 152 35 35 51 153 32 32 51 154 34 34 51 155 35 35 52 156 34 34 52 157 37 37 52 158 24 24 53 159 25 25 53 160 41 41 53 161 24 24 54 162 41 41 54 163 26 26 54 164 29 29 55 165 42 42 55 166 30 30 55 167 29 29 56 168 26 26 56 169 41 41 56 170 29 29 57 171 41 41 57 172 42 42 57 173 32 32 58 174 41 41 58 175 33 33 58 176 32 32 59 177 33 33 59 178 34 34 59 179 42 42 60 180 35 35 60 181 40 40 60 182 42 42 61 183 41 41 61 184 32 32 61 185 42 42 62 186 32 32 62 187 35 35 62 188 30 30 63 189 42 42 63 190 28 28 63 191 30 30 64 192 28 28 64 193 31 31 64 194 42 42 65 195 41 41 65 196 25 25 65 197 42 42 66 198 25 25 66 199 28 28 66 200 38 38 67 201 42 42 67 202 40 40 67 203 38 38 68 204 33 33 68 205 41 41 68 206 38 38 69 207 41 41 69 208 42 42 69 209</p>
                </triangles>
            </mesh>
        </geometry>
    </library_geometries>
    <library_visual_scenes>
        <visual_scene id="VisualSceneNode" name="VisualScene">
            <node id="node" name="node">
                <instance_geometry url="#shape0-lib">
                    <bind_material>
                        <technique_common>
                            <instance_material symbol="material0" target="#material0">
                                <bind_vertex_input semantic="UVSET0" input_semantic="TEXCOORD"/>
                            </instance_material>
                        </technique_common>
                    </bind_material>
                </instance_geometry>
            </node>
        </visual_scene>
    </library_visual_scenes>
    <scene>
        <instance_visual_scene url="#VisualSceneNode"/>
    </scene>
</COLLADA>
