<?xml version="1.0" encoding="UTF-8"?>
<COLLADA xmlns="http://www.collada.org/2005/11/COLLADASchema" version="1.4.1">
    <asset>
        <contributor>
            <author>VCGLab</author>
            <authoring_tool>VCGLib | MeshLab</authoring_tool>
        </contributor>
        <created>Thu Jul 3 01:43:23 2025 GMT</created>
        <modified>Thu Jul 3 01:43:23 2025 GMT</modified>
        <up_axis>Y_UP</up_axis>
    </asset>
    <library_images>
        <image id="texture0" name="texture0">
            <init_from>./image/shelf_items.png</init_from>
        </image>
    </library_images>
    <library_materials>
        <material id="material0" name="material0">
            <instance_effect url="#material0-fx"/>
        </material>
    </library_materials>
    <library_effects>
        <effect id="material0-fx">
            <profile_COMMON>
                <newparam sid="texture0-surface">
                    <surface type="2D">
                        <init_from>texture0</init_from>
                        <format>R8G8B8</format>
                    </surface>
                </newparam>
                <newparam sid="texture0-sampler">
                    <sampler2D>
                        <source>texture0-surface</source>
                        <minfilter>LINEAR</minfilter>
                        <magfilter>LINEAR</magfilter>
                    </sampler2D>
                </newparam>
                <technique sid="common">
                    <blinn>
                        <diffuse>
                            <texture texture="texture0-sampler" texcoord="UVSET0"/>
                        </diffuse>
                    </blinn>
                </technique>
            </profile_COMMON>
        </effect>
    </library_effects>
    <library_geometries>
        <geometry id="shape0-lib" name="shape0">
            <mesh>
                <source id="shape0-lib-positions" name="position">
                    <float_array id="shape0-lib-positions-array" count="573">0.00400004 0.00500022 0.00483781 0.00400004 0.0910002 0.00483781 0.112647 0.0594772 0.00636903 0.0938484 0.0910095 -0.0104579 0.0947458 0.00499097 -0.00364173 0.105103 0.0597172 -0.037152 0.102195 0.0259543 -0.0341539 0.0816414 0.0602742 -0.0707414 0.0767826 0.0910125 -0.0510103 0.0782463 0.0265001 -0.0694084 0.0791029 0.00498953 -0.0473843 0.0456129 0.0597509 -0.0964184 0.0391074 0.0910125 -0.0799193 0.045803 0.0259477 -0.0921908 -0.0200604 0.0910417 -0.0849566 0.0017548 0.0479607 -0.106477 0.0338816 0.00496368 -0.0828702 -0.0379895 0.0597177 -0.0962656 -0.034991 0.0259541 -0.093357 -0.0270044 0.00498953 -0.0812221 -0.071579 0.060274 -0.0728036 -0.0603467 0.0910002 -0.0595089 -0.0702461 0.0265001 -0.0694084 -0.0603467 0.00500022 -0.0595089 -0.0972471 0.059746 -0.0367983 -0.0807571 0.0910125 -0.0302696 -0.0930038 0.0259402 -0.037014 -0.0857945 0.0910417 0.0288982 -0.107317 0.0479689 0.00721407 -0.0837079 0.00496368 -0.0250439 -0.0970898 0.0597229 0.046859 -0.0942041 0.0259452 0.0437951 -0.0820599 0.00498952 0.0358421 -0.0736416 0.060274 0.0804169 -0.0603467 0.0910002 0.0691845 -0.0702462 0.0265001 0.079084 -0.0603467 0.00500022 0.0691845 -0.0376128 0.0597504 0.106094 -0.0311076 0.0910125 0.0895948 -0.0378034 0.0259475 0.101866 0.0280603 0.0910417 0.0946323 0.00624529 0.0479608 0.116153 -0.0258816 0.00496368 0.0925458 0.0459895 0.0597171 0.105941 0.0429914 0.0259542 0.103033 0.0350049 0.00498952 0.0908975 0.0795792 0.060274 0.0824792 0.0683467 0.0910002 0.0691845 0.0782462 0.0265001 0.079084 0.0683467 0.00500022 0.0691845 0.104204 0.039491 0.0506862 0.101479 0.0696657 0.0459846 0.088757 0.0910125 0.0399455 0.109508 0.0272145 0.0187806 0.0867771 0.00498952 0.0437677 0.0294863 0.0555819 -0.0178286 0.0535803 0.0599688 -0.0373395 0.0435046 0.0770289 -0.0291804 0.0815489 0.114 -0.0599881 0.0789618 0.11726 -0.057893 0.0456143 0.100621 -0.0308888 0.0483392 0.117092 -0.0330953 0.0599408 0.146148 -0.0424901 0.035141 0.132502 -0.0224077 0.0421959 0.174051 -0.0281206 0.0366786 0.17833 -0.0236528 0.0328887 0.153866 -0.0205838 0.0208546 0.126099 -0.0108388 0.0126734 0.13594 -0.00421379 0.0148634 0.152227 -0.00598714 0.0172366 0.192 -0.00790901 0.010191 0.187968 -0.00220357 0.0102423 0.158406 -0.00224513 -0.000153332 0.129091 0.00617311 -0.0209183 0.181275 0.0229882 -0.00987682 0.128206 0.014047 -0.0175359 0.118874 0.0202492 -0.0328952 0.150467 0.0326869 -0.0374492 0.174268 0.0363747 -0.044476 0.168768 0.0420649 -0.0314788 0.141401 0.03154 -0.0585963 0.155984 0.0534993 -0.048359 0.133625 0.0452093 -0.0686378 0.12587 0.0616307 -0.0360341 0.119178 0.0352288 -0.0375364 0.110025 0.0364453 -0.0647398 0.111346 0.0584743 -0.032363 0.0975491 0.0322559 -0.044206 0.0522652 0.0418462 0.0320076 0.0555819 0.0182278 0.0585825 0.0599688 0.0341956 0.0474694 0.0770289 0.0275182 0.089431 0.114 0.0527312 0.0865774 0.11726 0.0510166 0.0497963 0.100621 0.0289163 0.0528017 0.117092 0.0307222 0.0655978 0.146148 0.0384108 0.0382446 0.132502 0.0219754 0.0460259 0.174051 0.0266509 0.0399406 0.17833 0.0229944 0.0357603 0.153866 0.0204827 0.0224871 0.126099 0.0125073 0.0134635 0.13594 0.00708538 0.015879 0.152226 0.00853673 0.0184966 0.192 0.0101096 0.0107255 0.187968 0.00544025 0.0107821 0.158406 0.00547422 -0.000683992 0.129091 -0.00141528 -0.0235871 0.181275 -0.0151769 -0.0114087 0.128206 -0.00785934 -0.0198564 0.118874 -0.0129352 -0.0367971 0.150468 -0.0231143 -0.0418201 0.174268 -0.0261324 -0.0495705 0.168768 -0.0307893 -0.0352349 0.141401 -0.0221756 -0.0651447 0.155984 -0.0401472 -0.0538533 0.133625 -0.0333626 -0.07622 0.12587 -0.0468019 -0.0402593 0.119178 -0.0251946 -0.0419163 0.110025 -0.0261902 -0.0719207 0.111346 -0.0442186 -0.0362101 0.0975491 -0.0227616 -0.0492727 0.0522652 -0.0306103 0.0364971 0.0555819 0.0011752 0.0674897 0.0599688 0.000363664 0.0545292 0.0770289 0.000703013 0.103466 0.114 -0.00057844 0.100138 0.11726 -0.000491294 0.0572429 0.100621 0.000631973 0.060748 0.117092 0.000540204 0.0756712 0.146148 0.000149422 0.0437709 0.132502 0.000984765 0.0528458 0.174051 0.000747117 0.0457489 0.17833 0.000932934 0.0408737 0.153866 0.00106062 0.025394 0.126099 0.00146596 0.0148704 0.13594 0.00174153 0.0176874 0.152226 0.00166779 0.0207402 0.192 0.00158782 0.0116773 0.187968 0.00182515 0.0117433 0.158406 0.00182342 -0.00162884 0.129091 0.0021736 -0.0283393 0.181275 0.00287301 -0.0141363 0.128206 0.00250109 -0.0239883 0.118874 0.00275907 -0.0437453 0.150468 0.00327643 -0.0496031 0.174268 0.00342984 -0.0586419 0.168767 0.00366652 -0.0419233 0.141401 0.00322873 -0.0768052 0.155984 0.00414213 -0.0636367 0.133625 0.00379732 -0.0897216 0.12587 0.00448036 -0.047783 0.119178 0.00338216 -0.0497154 0.110025 0.00343279 -0.0847076 0.111346 0.00434908 -0.0430607 0.0975491 0.0032585 -0.0582946 0.0522652 0.00365745 0.0104713 0.0555819 -0.0290292 0.015855 0.0599688 -0.0595614 0.0136036 0.0770289 -0.0467935 0.0221044 0.114 -0.0950036 0.0215263 0.11726 -0.0917251 0.014075 0.100621 -0.0494668 0.0146839 0.117092 -0.0529198 0.0172762 0.146148 -0.0676214 0.0117349 0.132502 -0.036195 0.0133112 0.174051 -0.045135 0.0120784 0.17833 -0.0381435 0.0112316 0.153866 -0.0333408 0.00854263 0.126099 -0.018091 0.00671461 0.13594 -0.00772379 0.00720393 0.152226 -0.0104989 0.00773421 0.192 -0.0135063 0.00615992 0.187968 -0.00457807 0.00617138 0.158406 -0.00464308 0.00384858 0.129091 0.0085304 -0.000791285 0.181275 0.034844 0.00167588 0.128206 0.0208521 -3.54934e-05 0.118874 0.0305577 -0.00346743 0.150468 0.0500212 -0.00448498 0.174268 0.055792 -0.00605505 0.168767 0.0646965 -0.00315092 0.141401 0.0482263 -0.00921017 0.155984 0.0825899 -0.00692269 0.133625 0.0696171 -0.0114538 0.12587 0.0953145 -0.00416878 0.119178 0.0539989 -0.00450447 0.110025 0.0559027 -0.0105829 0.111346 0.0903751 -0.0033485 0.0975491 0.0493468 -0.00599472 0.0522652 0.0643545</float_array>
                    <technique_common>
                        <accessor count="191" source="#shape0-lib-positions-array" stride="3">
                            <param name="X" type="float"/>
                            <param name="Y" type="float"/>
                            <param name="Z" type="float"/>
                        </accessor>
                    </technique_common>
                </source>
                <source id="shape0-lib-normals" name="normal">
                    <float_array id="shape0-lib-normals-array" count="702">0.882408 0.445764 -0.150501 0.980315 -0.0995962 -0.17048 0.980416 -0.146165 -0.131982 0.875398 -0.470781 -0.109744 -8.40521e-05 1 0.000111251 0.768442 0.552219 -0.323345 -9.57024e-05 -1 6.71617e-05 0.726457 -0.636223 -0.25977 0.738385 0.443067 -0.508409 0.814518 -0.104402 -0.570666 0.820321 -0.120321 -0.559104 0.721789 -0.480895 -0.497755 -8.48079e-05 1 0.000110267 0.534441 0.478811 -0.6965 0.489028 0.524623 -0.696866 0.578525 -0.0980188 -0.809754 0.573385 -0.0897795 -0.814352 0.000192991 -1 0.000482344 0.479039 -0.569027 -0.668378 0.486832 -0.615357 -0.619943 0.000464725 1 0.000337889 0.0748494 0.475696 -0.876419 0.072533 0.477291 -0.875747 0.252158 -0.118693 -0.960379 0.0714172 -0.438503 -0.895888 -0.116942 0.395785 -0.910867 -0.27695 -0.106856 -0.954924 -0.000417038 -1 0.000274511 -0.00730574 -0.503032 -0.864237 -0.0237267 -0.494691 -0.868745 -0.000631667 1 0.000631667 -0.466107 0.489321 -0.737095 -0.48046 0.52786 -0.700373 -0.570663 -0.104405 -0.81452 -0.559104 -0.120319 -0.820321 -0.000194247 -1 0.000194247 -0.478857 -0.539404 -0.692632 -0.448672 -0.569561 -0.68869 0.000248354 1 -0.000248354 -0.717794 0.483233 -0.501257 -0.717421 0.480508 -0.5044 -0.809674 -0.0979377 -0.57865 -0.814226 -0.0897941 -0.573562 0.000631868 -1 -0.000631869 -0.667985 -0.569425 -0.479115 -0.697078 -0.538784 -0.473068 0.000337924 1 -0.000464596 -0.876452 0.475635 -0.0748531 -0.875833 0.477103 -0.0727285 -0.960494 -0.118956 -0.251597 -0.896067 -0.438073 -0.0718045 -0.910739 0.395892 0.117578 -0.954648 -0.106768 0.277936 0.000274516 -1 0.000417023 -0.864081 -0.503307 0.00673289 -0.868729 -0.49472 0.0237245 0.000631667 1 0.000631667 -0.737094 0.489323 0.466106 -0.70014 0.528093 0.480543 -0.814432 -0.104403 0.57079 -0.820406 -0.120783 0.558879 0.000194264 -1 0.000194264 -0.692703 -0.539395 0.478763 -0.688759 -0.569443 0.448715 -0.000248355 1 -0.000248355 -0.50128 0.483162 0.717825 -0.504347 0.480503 0.717462 -0.578527 -0.0980247 0.809751 -0.573386 -0.0897821 0.814351 -0.000631923 -1 -0.000631923 -0.479039 -0.569032 0.668374 -0.473067 -0.538787 0.697078 -0.000464716 1 -0.000337975 -0.0748518 0.475704 0.876415 -0.072542 0.477294 0.875744 -0.252165 -0.118706 0.960376 -0.0714303 -0.438504 0.895886 0.116952 0.395788 0.910864 0.276956 -0.106865 0.954922 0.000417072 -1 -0.000274537 0.00731688 -0.503035 0.864235 0.0237271 -0.4947 0.86874 0.000631779 1 -0.000631779 0.466107 0.489322 0.737095 0.480458 0.527856 0.700377 0.570668 -0.104404 0.814517 0.559106 -0.120324 0.820319 0.000194266 -1 -0.000194266 0.478857 -0.539405 0.692631 0.448674 -0.56956 0.688689 0.828079 0.158568 0.537719 -0.000248356 1 0.000248356 0.687218 0.545331 0.479943 0.68922 0.484902 0.538373 0.75602 -0.0949426 0.647626 -0.000243933 -1 0.000243933 0.747644 -0.471432 0.46774 0.680809 -0.540889 0.493901 0.818376 -0.47749 0.319787 0.962908 0.124278 0.239505 -0.000115368 1 -7.27029e-05 0.835429 0.543085 0.0843559 0.841812 0.530245 0.100957 0.984219 -0.0285806 0.17463 -0.000106492 -1 -4.83089e-05 0.761712 -0.635144 0.128012 0.629322 -3.27245e-07 0.777145 0.629322 -6.24926e-07 0.777145 0.629321 -8.49138e-07 0.777146 0.629319 -2.90366e-07 0.777147 0.629321 1.8489e-06 0.777145 0.629311 -4.51427e-07 0.777154 0.62931 -1.68753e-06 0.777155 0.629321 2.96807e-07 0.777146 0.629321 2.48193e-07 0.777146 0.629319 2.21247e-06 0.777147 0.629319 3.34078e-06 0.777147 0.629318 -3.22273e-06 0.777148 0.629321 1.37328e-06 0.777146 0.629323 -3.80929e-06 0.777144 0.629321 -4.13761e-08 0.777146 0.629321 0 0.777146 0.629319 -2.49068e-06 0.777147 0.629322 3.66423e-06 0.777145 0.629321 -5.29305e-07 0.777146 0.629328 7.34717e-06 0.77714 0.629331 7.94263e-06 0.777138 0.629319 -1.28066e-06 0.777147 0.62932 1.04249e-06 0.777146 0.62932 -2.82358e-07 0.777146 0.62932 -3.82303e-07 0.777147 0.629322 -2.92458e-06 0.777145 0.629319 1.18774e-06 0.777147 0.62932 -3.99485e-07 0.777146 0.629322 -1.04187e-06 0.777145 0.629322 -3.65539e-06 0.777145 0.629322 -3.21686e-06 0.777145 0.629328 -1.08728e-05 0.777139 -0.515042 3.75867e-06 0.857165 -0.515036 -4.97622e-07 0.857168 -0.515039 -9.90655e-07 0.857167 -0.515038 1.72069e-07 0.857167 -0.515039 -7.88647e-07 0.857167 -0.515038 -5.94127e-07 0.857167 -0.515037 6.04978e-07 0.857168 -0.515038 5.19413e-07 0.857167 -0.515038 6.20482e-08 0.857168 -0.515037 1.50851e-06 0.857168 -0.515039 -8.90873e-07 0.857167 -0.51504 -3.4123e-06 0.857166 -0.515038 -9.80916e-08 0.857168 -0.515035 -2.70255e-06 0.857169 -0.515038 1.57606e-06 0.857167 -0.515037 1.34936e-06 0.857168 -0.515038 -3.3209e-07 0.857167 -0.51504 -3.20616e-06 0.857166 -0.515035 6.46925e-07 0.857169 -0.515032 3.64666e-06 0.857171 -0.515038 2.07911e-06 0.857167 -0.515038 -5.87941e-06 0.857167 -0.515038 1.5363e-06 0.857167 -0.515038 2.82358e-07 0.857168 -0.515039 -9.07972e-07 0.857167 -0.515037 -1.19024e-06 0.857168 -0.515037 2.37548e-06 0.857168 -0.515035 -2.32201e-06 0.857169 -0.515041 -5.34645e-07 0.857165 -0.515041 3.02257e-06 0.857165 -0.515039 -2.85305e-06 0.857166 -0.515001 -4.39447e-05 0.85719 0.0261747 1.44865e-06 0.999657 0.0261764 4.35601e-07 0.999657 0.0261757 3.4275e-07 0.999657 0.0261747 -6.50636e-07 0.999657 0.0261778 5.72879e-07 0.999657 0.0261739 -7.33748e-08 0.999657 0.0261733 -6.8657e-07 0.999657 0.0261783 6.95645e-09 0.999657 0.0261779 1.00829e-06 0.999657 0.026177 6.91394e-08 0.999657 0.0261761 -9.14072e-07 0.999657 0.0261762 -7.61249e-07 0.999657 0.0261779 1.43459e-06 0.999657 0.0261771 -2.44516e-07 0.999657 0.0261777 -9.66468e-07 0.999657 0.0261768 -8.58231e-07 0.999657 0.0261748 -3.00698e-06 0.999657 0.0261806 4.69477e-06 0.999657 0.0261768 -7.29633e-07 0.999657 0.0261788 8.8598e-07 0.999657 0.0261787 8.71279e-07 0.999657 0.0261767 -1.43347e-06 0.999657 0.0261773 5.58968e-07 0.999657 0.026176 -7.8825e-07 0.999657 0.026177 -9.15935e-08 0.999657 0.0261765 -2.71416e-06 0.999657 0.026177 9.05497e-07 0.999657 0.0261775 -4.82712e-07 0.999657 0.0261771 -3.74851e-07 0.999657 0.0261772 3.04077e-06 0.999657 0.0261787 -1.5079e-06 0.999657 0.0261739 2.80322e-06 0.999657 0.984807 2.56654e-06 0.173652 0.984808 1.1211e-06 0.173649 0.984807 8.93357e-07 0.173651 0.984807 -9.08736e-07 0.173652 0.984808 1.20125e-07 0.173649 0.984808 4.45676e-08 0.173649 0.984808 6.86572e-07 0.173649 0.984808 8.90422e-07 0.173647 0.984808 1.05482e-06 0.173647 0.984808 -2.91644e-07 0.173647 0.984808 -3.54492e-06 0.173649 0.984808 -2.36965e-06 0.173649 0.984808 -2.4523e-07 0.173647 0.984807 7.74724e-06 0.173655 0.984808 -1.15853e-06 0.173647 0.984808 -1.11124e-06 0.173648 0.984807 -5.41722e-06 0.173652 0.984809 1.042e-05 0.17364 0.984808 8.2336e-07 0.173645 0.984809 2.13621e-06 0.173644 0.984808 1.80615e-06 0.173645 0.984808 5.3846e-07 0.173648 0.984808 8.2302e-07 0.173648 0.984808 -9.88253e-07 0.17365 0.984808 6.37173e-08 0.173648 0.984808 -6.88638e-07 0.173648 0.984808 1.18774e-06 0.173648 0.984808 5.32648e-07 0.173648 0.984808 3.46149e-07 0.173647 0.984808 -8.74295e-08 0.173647 0.984808 -2.58496e-07 0.173647 0.984805 1.40449e-05 0.173663</float_array>
                    <technique_common>
                        <accessor count="234" source="#shape0-lib-normals-array" stride="3">
                            <param name="X" type="float"/>
                            <param name="Y" type="float"/>
                            <param name="Z" type="float"/>
                        </accessor>
                    </technique_common>
                </source>
                <source id="shape0-lib-vcolor" name="vcolor">
                    <float_array id="shape0-lib-vcolor-array" count="764">1 1 1 1 1 1 1 1 1 1 1 1 1 1 1 1 1 1 1 1 1 1 1 1 1 1 1 1 1 1 1 1 1 1 1 1 1 1 1 1 1 1 1 1 1 1 1 1 1 1 1 1 1 1 1 1 1 1 1 1 1 1 1 1 1 1 1 1 1 1 1 1 1 1 1 1 1 1 1 1 1 1 1 1 1 1 1 1 1 1 1 1 1 1 1 1 1 1 1 1 1 1 1 1 1 1 1 1 1 1 1 1 1 1 1 1 1 1 1 1 1 1 1 1 1 1 1 1 1 1 1 1 1 1 1 1 1 1 1 1 1 1 1 1 1 1 1 1 1 1 1 1 1 1 1 1 1 1 1 1 1 1 1 1 1 1 1 1 1 1 1 1 1 1 1 1 1 1 1 1 1 1 1 1 1 1 1 1 1 1 1 1 1 1 1 1 1 1 1 1 1 1 1 1 1 1 1 1 1 1 1 1 1 1 1 1 1 1 1 1 1 1 1 1 1 1 1 1 1 1 1 1 1 1 1 1 1 1 1 1 1 1 1 1 1 1 1 1 1 1 1 1 1 1 1 1 1 1 1 1 1 1 1 1 1 1 1 1 1 1 1 1 1 1 1 1 1 1 1 1 1 1 1 1 1 1 1 1 1 1 1 1 1 1 1 1 1 1 1 1 1 1 1 1 1 1 1 1 1 1 1 1 1 1 1 1 1 1 1 1 1 1 1 1 1 1 1 1 1 1 1 1 1 1 1 1 1 1 1 1 1 1 1 1 1 1 1 1 1 1 1 1 1 1 1 1 1 1 1 1 1 1 1 1 1 1 1 1 1 1 1 1 1 1 1 1 1 1 1 1 1 1 1 1 1 1 1 1 1 1 1 1 1 1 1 1 1 1 1 1 1 1 1 1 1 1 1 1 1 1 1 1 1 1 1 1 1 1 1 1 1 1 1 1 1 1 1 1 1 1 1 1 1 1 1 1 1 1 1 1 1 1 1 1 1 1 1 1 1 1 1 1 1 1 1 1 1 1 1 1 1 1 1 1 1 1 1 1 1 1 1 1 1 1 1 1 1 1 1 1 1 1 1 1 1 1 1 1 1 1 1 1 1 1 1 1 1 1 1 1 1 1 1 1 1 1 1 1 1 1 1 1 1 1 1 1 1 1 1 1 1 1 1 1 1 1 1 1 1 1 1 1 1 1 1 1 1 1 1 1 1 1 1 1 1 1 1 1 1 1 1 1 1 1 1 1 1 1 1 1 1 1 1 1 1 1 1 1 1 1 1 1 1 1 1 1 1 1 1 1 1 1 1 1 1 1 1 1 1 1 1 1 1 1 1 1 1 1 1 1 1 1 1 1 1 1 1 1 1 1 1 1 1 1 1 1 1 1 1 1 1 1 1 1 1 1 1 1 1 1 1 1 1 1 1 1 1 1 1 1 1 1 1 1 1 1 1 1 1 1 1 1 1 1 1 1 1 1 1 1 1 1 1 1 1 1 1 1 1 1 1 1 1 1 1 1 1 1 1 1 1 1 1 1 1 1 1 1 1 1 1 1 1 1 1 1 1 1 1 1 1 1 1 1 1 1 1 1 1 1 1 1 1 1 1 1 1 1 1 1 1 1 1 1 1 1 1 1 1 1 1 1 1 1 1 1 1 1 1 1 1 1 1 1 1 1 1 1 1 1 1 1 1 1 1 1 1 1 1 1 1 1 1 1</float_array>
                    <technique_common>
                        <accessor count="191" source="#shape0-lib-vcolor-array" stride="4">
                            <param name="R" type="float"/>
                            <param name="G" type="float"/>
                            <param name="B" type="float"/>
                            <param name="A" type="float"/>
                        </accessor>
                    </technique_common>
                </source>
                <source id="shape0-lib-map" name="map">
                    <float_array id="shape0-lib-map-array" count="1404">0.0488747 0.908294 0.0443555 0.912714 0.0419065 0.908265 0.0484321 0.903586 0.0488747 0.908294 0.0419065 0.908265 0.0484321 0.903586 0.0419065 0.908265 0.0398753 0.903743 0.0437044 0.900618 0.0484321 0.903586 0.0398753 0.903743 0.0579859 0.866974 0.0678263 0.874525 0.0555787 0.872757 0.0488747 0.908294 0.0513206 0.912673 0.0443555 0.912714 0.0421138 0.874525 0.0520585 0.867137 0.0544017 0.873063 0.0509008 0.900651 0.0484321 0.903586 0.0437044 0.900618 0.0543276 0.908271 0.0513206 0.912673 0.0488747 0.908294 0.0540987 0.903652 0.0543276 0.908271 0.0488747 0.908294 0.0540987 0.903652 0.0488747 0.908294 0.0484321 0.903586 0.0509008 0.900651 0.0540987 0.903652 0.0484321 0.903586 0.0630797 0.863065 0.0678263 0.874525 0.0579859 0.866974 0.0354063 0.895442 0.0364888 0.899839 0.0317268 0.899836 0.0354063 0.895442 0.0317268 0.899836 0.0296141 0.895465 0.0354148 0.89073 0.0354063 0.895442 0.0296141 0.895465 0.0354148 0.89073 0.0296141 0.895465 0.0301288 0.890796 0.0421138 0.874525 0.0455697 0.862699 0.0520585 0.867137 0.037746 0.887766 0.0354148 0.89073 0.0301288 0.890796 0.037746 0.887766 0.0301288 0.890796 0.0317268 0.887783 0.0710202 0.862605 0.0678263 0.874525 0.0630797 0.863065 0.0424186 0.893807 0.045942 0.899844 0.0364888 0.899839 0.0424186 0.893807 0.0364888 0.899839 0.0354063 0.895442 0.0424186 0.893807 0.0354063 0.895442 0.0354148 0.89073 0.037746 0.887766 0.0424186 0.893807 0.0354148 0.89073 0.0488746 0.895438 0.045942 0.899844 0.0424186 0.893807 0.048432 0.89073 0.0488746 0.895438 0.0424186 0.893807 0.0421138 0.874525 0.0375519 0.863007 0.0455697 0.862699 0.0473577 0.887774 0.048432 0.89073 0.0424186 0.893807 0.0473577 0.887774 0.0424186 0.893807 0.037746 0.887766 0.0766238 0.865727 0.0678263 0.874525 0.0710202 0.862605 0.0543276 0.895414 0.0525008 0.899836 0.045942 0.899844 0.0543276 0.895414 0.045942 0.899844 0.0488746 0.895438 0.0540987 0.890796 0.0543276 0.895414 0.0488746 0.895438 0.0540987 0.890796 0.0488746 0.895438 0.048432 0.89073 0.0421138 0.874525 0.0333162 0.865727 0.0375519 0.863007 0.0525008 0.887783 0.0540987 0.890796 0.048432 0.89073 0.0525008 0.887783 0.048432 0.89073 0.0473577 0.887774 0.0792856 0.869778 0.0678263 0.874525 0.0766238 0.865727 0.0601271 0.908298 0.061026 0.912694 0.0570832 0.912692 0.0601271 0.908298 0.0570832 0.912692 0.0553336 0.908321 0.0601312 0.903585 0.0601271 0.908298 0.0553336 0.908321 0.0601312 0.903585 0.0553336 0.908321 0.0557601 0.903652 0.0421138 0.874525 0.0302879 0.871069 0.0333162 0.865727 0.0620654 0.900622 0.0601312 0.903585 0.0557601 0.903652 0.0620654 0.900622 0.0557601 0.903652 0.0570832 0.900639 0.0797461 0.877719 0.0678263 0.874525 0.0792856 0.869778 0.0659509 0.906664 0.0688535 0.9127 0.061026 0.912694 0.0659509 0.906664 0.061026 0.912694 0.0601271 0.908298 0.0659509 0.906664 0.0601271 0.908298 0.0601312 0.903585 0.0620654 0.900622 0.0659509 0.906664 0.0601312 0.903585 0.0712851 0.908295 0.0688535 0.9127 0.0659509 0.906664 0.0709112 0.903585 0.0712851 0.908295 0.0659509 0.906664 0.0421138 0.874525 0.0305958 0.879087 0.0302879 0.871069 0.0700247 0.90063 0.0709112 0.903585 0.0659509 0.906664 0.0700247 0.90063 0.0659509 0.906664 0.0620654 0.900622 0.0766238 0.883322 0.0678263 0.874525 0.0797461 0.877719 0.0757966 0.908271 0.0742839 0.912692 0.0688535 0.9127 0.0757966 0.908271 0.0688535 0.9127 0.0712851 0.908295 0.075607 0.903652 0.0757966 0.908271 0.0712851 0.908295 0.075607 0.903652 0.0712851 0.908295 0.0709112 0.903585 0.0421138 0.874525 0.0333162 0.883322 0.0305958 0.879087 0.0742839 0.900639 0.075607 0.903652 0.0709112 0.903585 0.0742839 0.900639 0.0709112 0.903585 0.0700247 0.90063 0.0725729 0.885984 0.0678263 0.874525 0.0766238 0.883322 0.0611188 0.895442 0.0622013 0.899839 0.0574393 0.899836 0.0611188 0.895442 0.0574393 0.899836 0.0553266 0.895465 0.0611273 0.890729 0.0611188 0.895442 0.0553266 0.895465 0.0611273 0.890729 0.0553266 0.895465 0.0558413 0.890796 0.0421138 0.874525 0.0386578 0.88635 0.0333162 0.883322 0.0634585 0.887766 0.0611273 0.890729 0.0558413 0.890796 0.0634585 0.887766 0.0558413 0.890796 0.0574393 0.887783 0.0646324 0.886444 0.0678263 0.874525 0.0725729 0.885984 0.0681311 0.893807 0.0716545 0.899844 0.0622013 0.899839 0.0681311 0.893807 0.0622013 0.899839 0.0611188 0.895442 0.0681311 0.893807 0.0611188 0.895442 0.0611273 0.890729 0.0634585 0.887766 0.0681311 0.893807 0.0611273 0.890729 0.0745871 0.895438 0.0716545 0.899844 0.0681311 0.893807 0.0741445 0.89073 0.0745871 0.895438 0.0681311 0.893807 0.0421138 0.874525 0.0466757 0.886042 0.0386578 0.88635 0.0730703 0.887774 0.0741445 0.89073 0.0681311 0.893807 0.0730703 0.887774 0.0681311 0.893807 0.0634585 0.887766 0.0590288 0.883322 0.0678263 0.874525 0.0646324 0.886444 0.0800401 0.895414 0.0782133 0.899836 0.0716545 0.899844 0.0800401 0.895414 0.0716545 0.899844 0.0745871 0.895438 0.0798112 0.890796 0.0800401 0.895414 0.0745871 0.895438 0.0798112 0.890796 0.0745871 0.895438 0.0741445 0.89073 0.0421138 0.874525 0.0509113 0.883322 0.0466757 0.886042 0.0782133 0.887783 0.0798112 0.890796 0.0741445 0.89073 0.0782133 0.887783 0.0741445 0.89073 0.0730703 0.887774 0.0347353 0.905496 0.035506 0.909699 0.0296141 0.908321 0.0563669 0.879272 0.0678263 0.874525 0.0590288 0.883322 0.035506 0.909699 0.0364888 0.912695 0.0317268 0.912692 0.035506 0.909699 0.0317268 0.912692 0.0296141 0.908321 0.0347353 0.905496 0.0296141 0.908321 0.0301288 0.903652 0.0421138 0.874525 0.0534839 0.879444 0.0509113 0.883322 0.0361167 0.900629 0.0347353 0.905496 0.0301288 0.903652 0.0361167 0.900629 0.0301288 0.903652 0.0317268 0.900639 0.0361167 0.900629 0.0398753 0.903743 0.0347353 0.905496 0.0419065 0.908265 0.035506 0.909699 0.0347353 0.905496 0.0555787 0.872757 0.0678263 0.874525 0.0563669 0.879272 0.0419065 0.908265 0.0443555 0.912714 0.0364888 0.912695 0.0419065 0.908265 0.0364888 0.912695 0.035506 0.909699 0.0398753 0.903743 0.0419065 0.908265 0.0347353 0.905496 0.0421138 0.874525 0.0544017 0.873063 0.0534839 0.879444 0.0437044 0.900618 0.0398753 0.903743 0.0361167 0.900629 0.779331 0.712937 0.781109 0.715514 0.780064 0.71657 0.779331 0.712937 0.779766 0.709765 0.781109 0.715514 0.777001 0.708814 0.779766 0.709765 0.779331 0.712937 0.771052 0.709127 0.772934 0.709258 0.769049 0.716667 0.774807 0.717772 0.775907 0.713186 0.776301 0.718601 0.774947 0.713612 0.775907 0.713186 0.774807 0.717772 0.774947 0.713612 0.775417 0.710275 0.775907 0.713186 0.772934 0.709258 0.775417 0.710275 0.774947 0.713612 0.772934 0.709258 0.777001 0.708814 0.775417 0.710275 0.779766 0.709765 0.782321 0.707476 0.784522 0.711802 0.777001 0.708814 0.782321 0.707476 0.779766 0.709765 0.777001 0.708814 0.781794 0.70503 0.782321 0.707476 0.772934 0.709258 0.781794 0.70503 0.777001 0.708814 0.787886 0.707449 0.781385 0.701526 0.78875 0.707017 0.781794 0.70503 0.781385 0.701526 0.787886 0.707449 0.772934 0.709258 0.781385 0.701526 0.781794 0.70503 0.771052 0.709127 0.781385 0.701526 0.772934 0.709258 0.771052 0.709127 0.783336 0.698993 0.781385 0.701526 0.76436 0.714945 0.766712 0.712349 0.765715 0.715967 0.766791 0.711038 0.766712 0.712349 0.76436 0.714945 0.766791 0.711038 0.76957 0.707741 0.766712 0.712349 0.765989 0.707786 0.763603 0.709931 0.76 0.708796 0.778672 0.698341 0.766699 0.704574 0.764899 0.698097 0.771052 0.709127 0.778672 0.698341 0.783336 0.698993 0.771052 0.709127 0.766699 0.704574 0.778672 0.698341 0.766699 0.704574 0.765698 0.706427 0.760841 0.706496 0.763603 0.709931 0.766791 0.711038 0.761714 0.713171 0.765989 0.707786 0.766791 0.711038 0.763603 0.709931 0.765989 0.707786 0.76957 0.707741 0.766791 0.711038 0.765698 0.706427 0.76957 0.707741 0.765989 0.707786 0.766699 0.704574 0.76957 0.707741 0.765698 0.706427 0.766699 0.704574 0.771052 0.709127 0.76957 0.707741 0.841565 0.666261 0.843344 0.668838 0.842299 0.669894 0.841565 0.666261 0.842001 0.663088 0.843344 0.668838 0.839236 0.662137 0.842001 0.663088 0.841565 0.666261 0.833287 0.66245 0.835169 0.662582 0.831284 0.66999 0.837042 0.671096 0.838142 0.66651 0.838536 0.671924 0.837182 0.666935 0.838142 0.66651 0.837042 0.671096 0.837182 0.666935 0.837652 0.663599 0.838142 0.66651 0.835169 0.662582 0.837652 0.663599 0.837182 0.666935 0.835169 0.662582 0.839236 0.662137 0.837652 0.663599 0.842001 0.663088 0.844556 0.6608 0.846757 0.665126 0.839236 0.662137 0.844556 0.6608 0.842001 0.663088 0.839236 0.662137 0.844029 0.658354 0.844556 0.6608 0.835169 0.662582 0.844029 0.658354 0.839236 0.662137 0.850121 0.660773 0.84362 0.65485 0.850985 0.660341 0.844029 0.658354 0.84362 0.65485 0.850121 0.660773 0.835169 0.662582 0.84362 0.65485 0.844029 0.658354 0.833287 0.66245 0.84362 0.65485 0.835169 0.662582 0.833287 0.66245 0.845571 0.652316 0.84362 0.65485 0.826595 0.668268 0.828947 0.665673 0.82795 0.669291 0.829026 0.664362 0.828947 0.665673 0.826595 0.668268 0.829026 0.664362 0.831805 0.661064 0.828947 0.665673 0.828224 0.66111 0.825838 0.663255 0.822235 0.662119 0.840907 0.651665 0.828934 0.657897 0.827134 0.651421 0.833287 0.66245 0.840907 0.651665 0.845571 0.652316 0.833287 0.66245 0.828934 0.657897 0.840907 0.651665 0.828934 0.657897 0.827933 0.65975 0.823076 0.65982 0.825838 0.663255 0.829026 0.664362 0.823949 0.666495 0.828224 0.66111 0.829026 0.664362 0.825838 0.663255 0.828224 0.66111 0.831805 0.661064 0.829026 0.664362 0.827933 0.65975 0.831805 0.661064 0.828224 0.66111 0.828934 0.657897 0.831805 0.661064 0.827933 0.65975 0.828934 0.657897 0.833287 0.66245 0.831805 0.661064 0.779331 0.619585 0.781109 0.622162 0.780064 0.623218 0.779331 0.619585 0.779766 0.616412 0.781109 0.622162 0.777001 0.615461 0.779766 0.616412 0.779331 0.619585 0.771052 0.615774 0.772934 0.615906 0.769049 0.623314 0.774807 0.62442 0.775907 0.619834 0.776301 0.625248 0.774947 0.620259 0.775907 0.619834 0.774807 0.62442 0.774947 0.620259 0.775417 0.616923 0.775907 0.619834 0.772934 0.615906 0.775417 0.616923 0.774947 0.620259 0.772934 0.615906 0.777001 0.615461 0.775417 0.616923 0.779766 0.616412 0.782321 0.614124 0.784522 0.61845 0.777001 0.615461 0.782321 0.614124 0.779766 0.616412 0.777001 0.615461 0.781794 0.611678 0.782321 0.614124 0.772934 0.615906 0.781794 0.611678 0.777001 0.615461 0.787886 0.614097 0.781385 0.608174 0.78875 0.613664 0.781794 0.611678 0.781385 0.608174 0.787886 0.614097 0.772934 0.615906 0.781385 0.608174 0.781794 0.611678 0.771052 0.615774 0.781385 0.608174 0.772934 0.615906 0.771052 0.615774 0.783336 0.60564 0.781385 0.608174 0.76436 0.621592 0.766712 0.618997 0.765715 0.622615 0.766791 0.617686 0.766712 0.618997 0.76436 0.621592 0.766791 0.617686 0.76957 0.614388 0.766712 0.618997 0.765989 0.614433 0.763603 0.616579 0.76 0.615443 0.778672 0.604989 0.766699 0.611221 0.764899 0.604745 0.771052 0.615774 0.778672 0.604989 0.783336 0.60564 0.771052 0.615774 0.766699 0.611221 0.778672 0.604989 0.766699 0.611221 0.765698 0.613074 0.760841 0.613144 0.763603 0.616579 0.766791 0.617686 0.761714 0.619819 0.765989 0.614433 0.766791 0.617686 0.763603 0.616579 0.765989 0.614433 0.76957 0.614388 0.766791 0.617686 0.765698 0.613074 0.76957 0.614388 0.765989 0.614433 0.766699 0.611221 0.76957 0.614388 0.765698 0.613074 0.766699 0.611221 0.771052 0.615774 0.76957 0.614388 0.779331 0.642923 0.781109 0.6455 0.780064 0.646556 0.779331 0.642923 0.779766 0.63975 0.781109 0.6455 0.777001 0.638799 0.779766 0.63975 0.779331 0.642923 0.771052 0.639112 0.772934 0.639244 0.769049 0.646652 0.774807 0.647758 0.775907 0.643172 0.776301 0.648586 0.774947 0.643597 0.775907 0.643172 0.774807 0.647758 0.774947 0.643597 0.775417 0.640261 0.775907 0.643172 0.772934 0.639244 0.775417 0.640261 0.774947 0.643597 0.772934 0.639244 0.777001 0.638799 0.775417 0.640261 0.779766 0.63975 0.782321 0.637462 0.784522 0.641788 0.777001 0.638799 0.782321 0.637462 0.779766 0.63975 0.777001 0.638799 0.781794 0.635016 0.782321 0.637462 0.772934 0.639244 0.781794 0.635016 0.777001 0.638799 0.787886 0.637435 0.781385 0.631512 0.78875 0.637003 0.781794 0.635016 0.781385 0.631512 0.787886 0.637435 0.772934 0.639244 0.781385 0.631512 0.781794 0.635016 0.771052 0.639112 0.781385 0.631512 0.772934 0.639244 0.771052 0.639112 0.783336 0.628978 0.781385 0.631512 0.76436 0.64493 0.766712 0.642335 0.765715 0.645953 0.766791 0.641024 0.766712 0.642335 0.76436 0.64493 0.766791 0.641024 0.76957 0.637726 0.766712 0.642335 0.765989 0.637771 0.763603 0.639917 0.76 0.638781 0.778672 0.628327 0.766699 0.634559 0.764899 0.628083 0.771052 0.639112 0.778672 0.628327 0.783336 0.628978 0.771052 0.639112 0.766699 0.634559 0.778672 0.628327 0.766699 0.634559 0.765698 0.636412 0.760841 0.636482 0.763603 0.639917 0.766791 0.641024 0.761714 0.643157 0.765989 0.637771 0.766791 0.641024 0.763603 0.639917 0.765989 0.637771 0.76957 0.637726 0.766791 0.641024 0.765698 0.636412 0.76957 0.637726 0.765989 0.637771 0.766699 0.634559 0.76957 0.637726 0.765698 0.636412 0.766699 0.634559 0.771052 0.639112 0.76957 0.637726</float_array>
                    <technique_common>
                        <accessor count="702" source="#shape0-lib-map-array" stride="2">
                            <param name="U" type="float"/>
                            <param name="V" type="float"/>
                        </accessor>
                    </technique_common>
                </source>
                <vertices id="shape0-lib-vertices">
                    <input semantic="POSITION" source="#shape0-lib-positions"/>
                </vertices>
                <triangles count="234" material="material0">
                    <input offset="0" semantic="VERTEX" source="#shape0-lib-vertices"/>
                    <input offset="1" semantic="COLOR" source="#shape0-lib-vcolor"/>
                    <input offset="2" semantic="NORMAL" source="#shape0-lib-normals"/>
                    <input offset="3" semantic="TEXCOORD" source="#shape0-lib-map"/>
                    <p>5 5 0 0 3 3 0 1 2 2 0 2 6 6 1 3 5 5 1 4 2 2 1 5 6 6 2 6 2 2 2 7 53 53 2 8 4 4 3 9 6 6 3 10 53 53 3 11 8 8 4 12 1 1 4 13 3 3 4 14 5 5 5 15 8 8 5 16 3 3 5 17 0 0 6 18 10 10 6 19 4 4 6 20 10 10 7 21 6 6 7 22 4 4 7 23 7 7 8 24 8 8 8 25 5 5 8 26 9 9 9 27 7 7 9 28 5 5 9 29 9 9 10 30 5 5 10 31 6 6 10 32 10 10 11 33 9 9 11 34 6 6 11 35 12 12 12 36 1 1 12 37 8 8 12 38 11 11 13 39 12 12 13 40 8 8 13 41 11 11 14 42 8 8 14 43 7 7 14 44 13 13 15 45 11 11 15 46 7 7 15 47 13 13 16 48 7 7 16 49 9 9 16 50 0 0 17 51 16 16 17 52 10 10 17 53 16 16 18 54 13 13 18 55 9 9 18 56 16 16 19 57 9 9 19 58 10 10 19 59 14 14 20 60 1 1 20 61 12 12 20 62 15 15 21 63 14 14 21 64 12 12 21 65 15 15 22 66 12 12 22 67 11 11 22 68 15 15 23 69 11 11 23 70 13 13 23 71 16 16 24 72 15 15 24 73 13 13 24 74 17 17 25 75 14 14 25 76 15 15 25 77 18 18 26 78 17 17 26 79 15 15 26 80 0 0 27 81 19 19 27 82 16 16 27 83 19 19 28 84 18 18 28 85 15 15 28 86 19 19 29 87 15 15 29 88 16 16 29 89 21 21 30 90 1 1 30 91 14 14 30 92 20 20 31 93 21 21 31 94 14 14 31 95 20 20 32 96 14 14 32 97 17 17 32 98 22 22 33 99 20 20 33 100 17 17 33 101 22 22 34 102 17 17 34 103 18 18 34 104 0 0 35 105 23 23 35 106 19 19 35 107 23 23 36 108 22 22 36 109 18 18 36 110 23 23 37 111 18 18 37 112 19 19 37 113 25 25 38 114 1 1 38 115 21 21 38 116 24 24 39 117 25 25 39 118 21 21 39 119 24 24 40 120 21 21 40 121 20 20 40 122 26 26 41 123 24 24 41 124 20 20 41 125 26 26 42 126 20 20 42 127 22 22 42 128 0 0 43 129 29 29 43 130 23 23 43 131 29 29 44 132 26 26 44 133 22 22 44 134 29 29 45 135 22 22 45 136 23 23 45 137 27 27 46 138 1 1 46 139 25 25 46 140 28 28 47 141 27 27 47 142 25 25 47 143 28 28 48 144 25 25 48 145 24 24 48 146 28 28 49 147 24 24 49 148 26 26 49 149 29 29 50 150 28 28 50 151 26 26 50 152 30 30 51 153 27 27 51 154 28 28 51 155 31 31 52 156 30 30 52 157 28 28 52 158 0 0 53 159 32 32 53 160 29 29 53 161 32 32 54 162 31 31 54 163 28 28 54 164 32 32 55 165 28 28 55 166 29 29 55 167 34 34 56 168 1 1 56 169 27 27 56 170 33 33 57 171 34 34 57 172 27 27 57 173 33 33 58 174 27 27 58 175 30 30 58 176 35 35 59 177 33 33 59 178 30 30 59 179 35 35 60 180 30 30 60 181 31 31 60 182 0 0 61 183 36 36 61 184 32 32 61 185 36 36 62 186 35 35 62 187 31 31 62 188 36 36 63 189 31 31 63 190 32 32 63 191 38 38 64 192 1 1 64 193 34 34 64 194 37 37 65 195 38 38 65 196 34 34 65 197 37 37 66 198 34 34 66 199 33 33 66 200 39 39 67 201 37 37 67 202 33 33 67 203 39 39 68 204 33 33 68 205 35 35 68 206 0 0 69 207 42 42 69 208 36 36 69 209 42 42 70 210 39 39 70 211 35 35 70 212 42 42 71 213 35 35 71 214 36 36 71 215 40 40 72 216 1 1 72 217 38 38 72 218 41 41 73 219 40 40 73 220 38 38 73 221 41 41 74 222 38 38 74 223 37 37 74 224 41 41 75 225 37 37 75 226 39 39 75 227 42 42 76 228 41 41 76 229 39 39 76 230 43 43 77 231 40 40 77 232 41 41 77 233 44 44 78 234 43 43 78 235 41 41 78 236 0 0 79 237 45 45 79 238 42 42 79 239 45 45 80 240 44 44 80 241 41 41 80 242 45 45 81 243 41 41 81 244 42 42 81 245 47 47 82 246 1 1 82 247 40 40 82 248 46 46 83 249 47 47 83 250 40 40 83 251 46 46 84 252 40 40 84 253 43 43 84 254 48 48 85 255 46 46 85 256 43 43 85 257 48 48 86 258 43 43 86 259 44 44 86 260 0 0 87 261 49 49 87 262 45 45 87 263 49 49 88 264 48 48 88 265 44 44 88 266 49 49 89 267 44 44 89 268 45 45 89 269 50 50 90 270 51 51 90 271 46 46 90 272 52 52 91 273 1 1 91 274 47 47 91 275 51 51 92 276 52 52 92 277 47 47 92 278 51 51 93 279 47 47 93 280 46 46 93 281 50 50 94 282 46 46 94 283 48 48 94 284 0 0 95 285 54 54 95 286 49 49 95 287 54 54 96 288 50 50 96 289 48 48 96 290 54 54 97 291 48 48 97 292 49 49 97 293 54 54 98 294 53 53 98 295 50 50 98 296 2 2 99 297 51 51 99 298 50 50 99 299 3 3 100 300 1 1 100 301 52 52 100 302 2 2 101 303 3 3 101 304 52 52 101 305 2 2 102 306 52 52 102 307 51 51 102 308 53 53 103 309 2 2 103 310 50 50 103 311 0 0 104 312 4 4 104 313 54 54 104 314 4 4 105 315 53 53 105 316 54 54 105 317 66 66 106 318 64 64 106 319 65 65 106 320 66 66 107 321 63 63 107 322 64 64 107 323 67 67 108 324 63 63 108 325 66 66 108 326 75 75 109 327 73 73 109 328 74 74 109 329 71 71 110 330 69 69 110 331 70 70 110 332 72 72 111 333 69 69 111 334 71 71 111 335 72 72 112 336 68 68 112 337 69 69 112 338 73 73 113 339 68 68 113 340 72 72 113 341 73 73 114 342 67 67 114 343 68 68 114 344 63 63 115 345 61 61 115 346 62 62 115 347 67 67 116 348 61 61 116 349 63 63 116 350 67 67 117 351 60 60 117 352 61 61 117 353 73 73 118 354 60 60 118 355 67 67 118 356 59 59 119 357 57 57 119 358 58 58 119 359 60 60 120 360 57 57 120 361 59 59 120 362 73 73 121 363 57 57 121 364 60 60 121 365 75 75 122 366 57 57 122 367 73 73 122 368 75 75 123 369 56 56 123 370 57 57 123 371 79 79 124 372 77 77 124 373 78 78 124 374 80 80 125 375 77 77 125 376 79 79 125 377 80 80 126 378 76 76 126 379 77 77 126 380 84 84 127 381 82 82 127 382 83 83 127 383 55 55 128 384 87 87 128 385 88 88 128 386 75 75 129 387 55 55 129 388 56 56 129 389 75 75 130 390 87 87 130 391 55 55 130 392 87 87 131 393 85 85 131 394 86 86 131 395 82 82 132 396 80 80 132 397 81 81 132 398 84 84 133 399 80 80 133 400 82 82 133 401 84 84 134 402 76 76 134 403 80 80 134 404 85 85 135 405 76 76 135 406 84 84 135 407 87 87 136 408 76 76 136 409 85 85 136 410 87 87 137 411 75 75 137 412 76 76 137 413 100 100 138 414 98 98 138 415 99 99 138 416 100 100 139 417 97 97 139 418 98 98 139 419 101 101 140 420 97 97 140 421 100 100 140 422 109 109 141 423 107 107 141 424 108 108 141 425 105 105 142 426 103 103 142 427 104 104 142 428 106 106 143 429 103 103 143 430 105 105 143 431 106 106 144 432 102 102 144 433 103 103 144 434 107 107 145 435 102 102 145 436 106 106 145 437 107 107 146 438 101 101 146 439 102 102 146 440 97 97 147 441 95 95 147 442 96 96 147 443 101 101 148 444 95 95 148 445 97 97 148 446 101 101 149 447 94 94 149 448 95 95 149 449 107 107 150 450 94 94 150 451 101 101 150 452 93 93 151 453 91 91 151 454 92 92 151 455 94 94 152 456 91 91 152 457 93 93 152 458 107 107 153 459 91 91 153 460 94 94 153 461 109 109 154 462 91 91 154 463 107 107 154 464 109 109 155 465 90 90 155 466 91 91 155 467 113 113 156 468 111 111 156 469 112 112 156 470 114 114 157 471 111 111 157 472 113 113 157 473 114 114 158 474 110 110 158 475 111 111 158 476 118 118 159 477 116 116 159 478 117 117 159 479 89 89 160 480 121 121 160 481 122 122 160 482 109 109 161 483 89 89 161 484 90 90 161 485 109 109 162 486 121 121 162 487 89 89 162 488 121 121 163 489 119 119 163 490 120 120 163 491 116 116 164 492 114 114 164 493 115 115 164 494 118 118 165 495 114 114 165 496 116 116 165 497 118 118 166 498 110 110 166 499 114 114 166 500 119 119 167 501 110 110 167 502 118 118 167 503 121 121 168 504 110 110 168 505 119 119 168 506 121 121 169 507 109 109 169 508 110 110 169 509 134 134 170 510 132 132 170 511 133 133 170 512 134 134 171 513 131 131 171 514 132 132 171 515 135 135 172 516 131 131 172 517 134 134 172 518 143 143 173 519 141 141 173 520 142 142 173 521 139 139 174 522 137 137 174 523 138 138 174 524 140 140 175 525 137 137 175 526 139 139 175 527 140 140 176 528 136 136 176 529 137 137 176 530 141 141 177 531 136 136 177 532 140 140 177 533 141 141 178 534 135 135 178 535 136 136 178 536 131 131 179 537 129 129 179 538 130 130 179 539 135 135 180 540 129 129 180 541 131 131 180 542 135 135 181 543 128 128 181 544 129 129 181 545 141 141 182 546 128 128 182 547 135 135 182 548 127 127 183 549 125 125 183 550 126 126 183 551 128 128 184 552 125 125 184 553 127 127 184 554 141 141 185 555 125 125 185 556 128 128 185 557 143 143 186 558 125 125 186 559 141 141 186 560 143 143 187 561 124 124 187 562 125 125 187 563 147 147 188 564 145 145 188 565 146 146 188 566 148 148 189 567 145 145 189 568 147 147 189 569 148 148 190 570 144 144 190 571 145 145 190 572 152 152 191 573 150 150 191 574 151 151 191 575 123 123 192 576 155 155 192 577 156 156 192 578 143 143 193 579 123 123 193 580 124 124 193 581 143 143 194 582 155 155 194 583 123 123 194 584 155 155 195 585 153 153 195 586 154 154 195 587 150 150 196 588 148 148 196 589 149 149 196 590 152 152 197 591 148 148 197 592 150 150 197 593 152 152 198 594 144 144 198 595 148 148 198 596 153 153 199 597 144 144 199 598 152 152 199 599 155 155 200 600 144 144 200 601 153 153 200 602 155 155 201 603 143 143 201 604 144 144 201 605 168 168 202 606 166 166 202 607 167 167 202 608 168 168 203 609 165 165 203 610 166 166 203 611 169 169 204 612 165 165 204 613 168 168 204 614 177 177 205 615 175 175 205 616 176 176 205 617 173 173 206 618 171 171 206 619 172 172 206 620 174 174 207 621 171 171 207 622 173 173 207 623 174 174 208 624 170 170 208 625 171 171 208 626 175 175 209 627 170 170 209 628 174 174 209 629 175 175 210 630 169 169 210 631 170 170 210 632 165 165 211 633 163 163 211 634 164 164 211 635 169 169 212 636 163 163 212 637 165 165 212 638 169 169 213 639 162 162 213 640 163 163 213 641 175 175 214 642 162 162 214 643 169 169 214 644 161 161 215 645 159 159 215 646 160 160 215 647 162 162 216 648 159 159 216 649 161 161 216 650 175 175 217 651 159 159 217 652 162 162 217 653 177 177 218 654 159 159 218 655 175 175 218 656 177 177 219 657 158 158 219 658 159 159 219 659 181 181 220 660 179 179 220 661 180 180 220 662 182 182 221 663 179 179 221 664 181 181 221 665 182 182 222 666 178 178 222 667 179 179 222 668 186 186 223 669 184 184 223 670 185 185 223 671 157 157 224 672 189 189 224 673 190 190 224 674 177 177 225 675 157 157 225 676 158 158 225 677 177 177 226 678 189 189 226 679 157 157 226 680 189 189 227 681 187 187 227 682 188 188 227 683 184 184 228 684 182 182 228 685 183 183 228 686 186 186 229 687 182 182 229 688 184 184 229 689 186 186 230 690 178 178 230 691 182 182 230 692 187 187 231 693 178 178 231 694 186 186 231 695 189 189 232 696 178 178 232 697 187 187 232 698 189 189 233 699 177 177 233 700 178 178 233 701</p>
                </triangles>
            </mesh>
        </geometry>
    </library_geometries>
    <library_visual_scenes>
        <visual_scene id="VisualSceneNode" name="VisualScene">
            <node id="node" name="node">
                <instance_geometry url="#shape0-lib">
                    <bind_material>
                        <technique_common>
                            <instance_material symbol="material0" target="#material0">
                                <bind_vertex_input semantic="UVSET0" input_semantic="TEXCOORD"/>
                            </instance_material>
                        </technique_common>
                    </bind_material>
                </instance_geometry>
            </node>
        </visual_scene>
    </library_visual_scenes>
    <scene>
        <instance_visual_scene url="#VisualSceneNode"/>
    </scene>
</COLLADA>
