<?xml version="1.0" encoding="UTF-8"?>
<COLLADA xmlns="http://www.collada.org/2005/11/COLLADASchema" version="1.4.1">
    <asset>
        <contributor>
            <author>VCGLab</author>
            <authoring_tool>VCGLib | MeshLab</authoring_tool>
        </contributor>
        <created>Thu Jul 3 01:34:27 2025 GMT</created>
        <modified>Thu Jul 3 01:34:27 2025 GMT</modified>
        <up_axis>Y_UP</up_axis>
    </asset>
    <library_images>
        <image id="texture0" name="texture0">
            <init_from>./image/shelf_books.png</init_from>
        </image>
    </library_images>
    <library_materials>
        <material id="material0" name="material0">
            <instance_effect url="#material0-fx"/>
        </material>
    </library_materials>
    <library_effects>
        <effect id="material0-fx">
            <profile_COMMON>
                <newparam sid="texture0-surface">
                    <surface type="2D">
                        <init_from>texture0</init_from>
                        <format>R8G8B8</format>
                    </surface>
                </newparam>
                <newparam sid="texture0-sampler">
                    <sampler2D>
                        <source>texture0-surface</source>
                        <minfilter>LINEAR</minfilter>
                        <magfilter>LINEAR</magfilter>
                    </sampler2D>
                </newparam>
                <technique sid="common">
                    <blinn>
                        <diffuse>
                            <texture texture="texture0-sampler" texcoord="UVSET0"/>
                        </diffuse>
                    </blinn>
                </technique>
            </profile_COMMON>
        </effect>
    </library_effects>
    <library_geometries>
        <geometry id="shape0-lib" name="shape0">
            <mesh>
                <source id="shape0-lib-positions" name="position">
                    <float_array id="shape0-lib-positions-array" count="399">-0.173075 0.00121647 -0.0449198 -0.173075 0.161216 -0.0449198 -0.150801 0.161216 -0.0447253 -0.150801 0.00121647 -0.0447253 -0.173511 0.00121647 0.0747034 -0.174097 0.161216 0.0722588 -0.152452 0.161216 0.0748868 -0.152452 0.00121647 0.0750072 -0.172783 0.161216 0.0752726 -0.148326 0.00121647 -0.0447037 -0.148326 0.161216 -0.0447037 -0.126052 0.161216 -0.0445093 -0.126052 0.00121647 -0.0445093 -0.148762 0.00121647 0.0749195 -0.149348 0.161216 0.0724748 -0.127703 0.161216 0.0751028 -0.127703 0.00121647 0.0752231 -0.148034 0.161216 0.0754886 -0.124402 0.00121647 -0.044495 -0.124402 0.161216 -0.044495 -0.102128 0.161216 -0.0443006 -0.102128 0.00121647 -0.0443006 -0.124838 0.00121647 0.0751282 -0.125424 0.161216 0.0726836 -0.103779 0.161216 0.0753116 -0.103779 0.00121647 0.0754319 -0.12411 0.161216 0.0756974 -0.100842 0.00182145 -0.0442894 -0.0981738 0.173595 -0.0442661 -0.0786282 0.00136119 -0.0440954 -0.10128 0.00180898 0.0753343 -0.0991965 0.173595 0.0729124 -0.0803325 0.00137479 0.0756885 -0.0782137 0.173159 0.0759047 -0.0978843 0.173567 0.0759268 -0.0746582 0.00153666 -0.0440609 -0.0527698 0.173257 -0.0438698 -0.0524396 0.00146406 -0.043867 -0.0749652 0.00153415 0.0756641 -0.05442 0.173259 0.0757438 -0.0534623 0.00146406 0.0733116 -0.0548271 0.00146855 0.0763025 -0.0741527 0.173338 0.0762798 -0.0507939 0.00145858 -0.0438526 -0.0511239 0.173252 -0.0438554 -0.0289054 0.173179 -0.0436615 -0.0285754 0.00138598 -0.0436588 -0.0512313 0.00145661 0.0757714 -0.0521465 0.173252 0.0733231 -0.0305557 0.173181 0.0759517 -0.0295981 0.00138598 0.0735199 -0.030963 0.00139054 0.0765107 -0.0508338 0.173247 0.0763375 -0.0248687 0.00240546 -0.0436263 -0.0248687 0.162405 -0.0436263 -0.0053787 0.162405 -0.0434563 -0.0053787 0.00240546 -0.0434563 -0.0253583 0.00240546 0.0760459 -0.0253578 0.162405 0.0761774 -0.00697774 0.162405 0.0762062 -0.00698057 0.00240546 0.0763377 -0.00321319 0.00440543 -0.0434374 -0.00321319 0.164405 -0.0434374 0.0162766 0.164405 -0.0432672 0.0162766 0.00440543 -0.0432672 -0.00370291 0.00440543 0.0762347 -0.00370233 0.164405 0.0763662 0.0146776 0.164405 0.0763953 0.0146748 0.00440543 0.0765267 0.0177204 0.00240546 -0.0432547 0.0177204 0.162405 -0.0432547 0.0372102 0.162405 -0.0430846 0.0372102 0.00240546 -0.0430846 0.0172306 0.00240546 0.0764175 0.0172312 0.162405 0.076549 0.0356113 0.162405 0.0765778 0.0356084 0.00240546 0.0767093 0.0391289 0.00240546 -0.0430678 0.0391289 0.162405 -0.0430678 0.0586189 0.162405 -0.0428978 0.0586189 0.00240546 -0.0428978 0.0386393 0.00240546 0.0766042 0.0386399 0.162405 0.0767357 0.0570198 0.162405 0.0767647 0.057017 0.00240546 0.0768961 0.0607844 0.000405425 -0.0428789 0.0607844 0.160405 -0.0428789 0.0802742 0.160405 -0.0427088 0.0802742 0.000405425 -0.0427088 0.0602946 0.000405425 0.0767931 0.0602951 0.160405 0.0769246 0.0786752 0.160405 0.0769537 0.0786724 0.000405425 0.0770852 0.0817178 0.00240546 -0.0426962 0.0817178 0.162405 -0.0426962 0.101208 0.162405 -0.0425261 0.101208 0.00240546 -0.0425261 0.0812282 0.00240546 0.0769761 0.0812288 0.162405 0.0771075 0.0996088 0.162405 0.0771364 0.099606 0.00240546 0.0772679 0.102915 0.00321644 -0.0425113 0.102915 0.163216 -0.0425113 0.125189 0.163216 -0.0423168 0.125189 0.00321644 -0.0423168 0.102478 0.00321644 0.0771115 0.101892 0.163216 0.0746674 0.123538 0.163216 0.0772958 0.124166 0.00321644 0.0748617 0.122799 0.00321644 0.0778522 0.103208 0.163216 0.0776816 0.127664 0.00321644 -0.0422952 0.127664 0.163216 -0.0422952 0.149938 0.163216 -0.0421008 0.149938 0.00321644 -0.0421008 0.127227 0.00321644 0.0773275 0.126641 0.163216 0.0748834 0.148287 0.163216 0.0775119 0.148915 0.00321644 0.0750776 0.147549 0.00321644 0.0780682 0.127957 0.163216 0.0778975 0.151588 0.00321644 -0.0420864 0.151588 0.163216 -0.0420864 0.173862 0.163216 -0.041892 0.173862 0.00321644 -0.041892 0.151152 0.00321644 0.0775365 0.150565 0.163216 0.0750921 0.172211 0.163216 0.0777206 0.172839 0.00321644 0.0752865 0.171472 0.00321644 0.078277 0.151881 0.163216 0.0781063 -0.07596 0.173134 -0.0440723 -0.0769827 0.173134 0.0731064</float_array>
                    <technique_common>
                        <accessor count="133" source="#shape0-lib-positions-array" stride="3">
                            <param name="X" type="float"/>
                            <param name="Y" type="float"/>
                            <param name="Z" type="float"/>
                        </accessor>
                    </technique_common>
                </source>
                <source id="shape0-lib-normals" name="normal">
                    <float_array id="shape0-lib-normals-array" count="630">0.00873187 0 -0.999962 0.00873187 0 -0.999962 -0.916624 0.00275073 0.399741 -0.999962 0 -0.00872136 -0.999986 -0.0037178 -0.00364517 0.999905 0 0.0137867 0.999905 1.09379e-05 0.0138013 0.0189698 0.00075192 0.99982 -0.0144229 -0.00349133 0.99989 0.00872736 0 -0.999962 0.00872736 0 -0.999962 -0.91663 0.00275034 0.399728 -0.999962 0 -0.0087215 -0.999986 -0.00371835 -0.00364455 0.999905 0 0.0137864 0.999905 1.09365e-05 0.013801 0.0189693 0.000751827 0.99982 -0.0144151 -0.00349041 0.99989 0.00872736 0 -0.999962 0.00872736 0 -0.999962 -0.916627 0.00275079 0.399735 -0.999962 0 -0.00872136 -0.999986 -0.00371767 -0.00364536 0.999905 0 0.0137864 0.999905 1.09358e-05 0.013801 0.0189705 0.000751781 0.99982 -0.0144207 -0.0034913 0.99989 -0.916712 0.0167437 0.399198 -0.999841 0.015532 -0.00872636 -0.99992 0.0120732 -0.00365605 0.00109666 -0.00127243 0.999999 -0.0169728 -0.00311407 0.999851 0.909759 -0.00080586 0.415136 0.99996 0.00192214 0.00872736 0.99989 0.00537873 0.0137945 0.0271659 0.00318622 0.999626 -0.031697 -0.00343253 0.999492 0.00872652 4.78155e-07 -0.999962 0.00872217 1.03361e-06 -0.999962 0.909738 -0.000805931 0.415182 -0.91684 0.000805533 0.399254 -0.99996 -0.00192096 -0.00872654 -0.999979 -0.00537928 -0.00365645 0.99996 0.00192097 0.00872735 0.99989 0.00537842 0.0137957 0.0190283 0.00320799 0.999814 -0.0364635 -0.00320869 0.99933 0 1 0 0 1 0 0 1 0 0 -1 0 0 -1 0 0 1 0 0 1 0 0 1 0 0 -1 0 0 -1 0 0 1 0 0 1 0 0 1 0 0 -1 0 0 -1 0 -0.0207135 -0.999785 -0.000180002 -0.0207206 -0.999785 -0.000181334 -0.00325828 -0.999995 1.31898e-05 -0.00326726 -0.999995 -2.93096e-05 -0.00326284 -0.999995 -2.84771e-05 0.00326386 0.999995 0.000101252 0.00328534 0.999995 2.63931e-05 0.00327271 0.999995 2.85606e-05 -0.0032608 -0.999995 3.79977e-05 -0.00326728 -0.999995 -2.8436e-05 -0.00326772 -0.999995 -2.85197e-05 0.00872209 0 -0.999962 0.00872209 0 -0.999962 -0.999992 0 -0.00408209 -0.999992 6.72606e-06 -0.00409108 0.999911 0 0.0133707 0.999911 -6.71146e-06 0.0133617 -0.00156794 0.000821502 0.999998 -0.015872 -0.000821551 0.999874 0.00873231 0 -0.999962 0.00873231 0 -0.999962 -0.999992 0 -0.00408278 -0.999992 7.0093e-06 -0.00409214 0.999911 0 0.0133701 0.999911 -6.6828e-06 0.0133612 -0.00158214 0.000821502 0.999998 -0.0158894 -0.000821919 0.999873 0.00872733 0 -0.999962 0.00872733 0 -0.999962 -0.999992 0 -0.00408367 -0.999992 6.66908e-06 -0.00409257 0.999911 0 0.0133701 0.999911 -6.89858e-06 0.0133609 -0.00156834 0.000821921 0.999998 -0.015876 -0.000821552 0.999874 0 1 0 0 1 0 0 -1 0 0 -1 0 0 1 0 0 1 0 0 -1 0 0 -1 0 0 1 0 0 1 0 0 -1 0 0 -1 0 0.00872209 0 -0.999962 0.00872209 0 -0.999962 -0.999992 0 -0.00408199 -0.999992 6.73744e-06 -0.00409099 0.999911 0 0.013371 0.999911 -6.71702e-06 0.013362 -0.00157727 0.000821502 0.999998 -0.0158809 -0.000821504 0.999874 0.00872733 0 -0.999962 0.00872733 0 -0.999962 -0.999992 0 -0.00408376 -0.999992 6.97331e-06 -0.00409308 0.999911 0 0.0133702 0.999911 -6.6698e-06 0.0133613 -0.00158172 0.000821595 0.999998 -0.0158889 -0.000821826 0.999873 0.00872715 0 -0.999962 0.00872715 0 -0.999962 -0.999992 0 -0.00408174 -0.999992 6.71468e-06 -0.0040907 0.999911 0 0.0133719 0.999911 -6.85363e-06 0.0133628 -0.00156997 0.000821688 0.999998 -0.0158768 -0.000821691 0.999874 0 1 0 0 1 0 0 -1 0 0 -1 0 0 1 0 0 1 0 0 -1 0 0 -1 0 0 1 0 0 1 0 0 -1 0 0 -1 0 0.0087317 0 -0.999962 0.0087317 0 -0.999962 0.909535 -0.00275053 0.415619 -0.916483 0.00275189 0.400065 -0.999962 0 -0.00872988 -0.999986 -0.00372129 -0.00364892 0.999962 0 0.00873002 0.999898 0.00371726 0.0138051 0.0189716 0.00338913 0.999814 -0.0364223 -0.0033943 0.999331 0.00872735 0 -0.999962 0.00872735 0 -0.999962 0.909551 -0.0027505 0.415583 -0.916485 0.00275177 0.400059 -0.999962 0 -0.00872988 -0.999986 -0.0037212 -0.00364905 0.999962 0 0.00873003 0.999898 0.00371715 0.013805 0.018962 0.00338862 0.999815 -0.0364243 -0.00339393 0.999331 0.00872735 0 -0.999962 0.00872735 0 -0.999962 0.909532 -0.0027507 0.415625 -0.9165 0.00275129 0.400026 -0.999962 0 -0.00872989 -0.999986 -0.00372185 -0.00364817 0.999962 0 0.00872989 0.999898 0.00371717 0.0138049 0.0189663 0.00338919 0.999814 -0.0364163 -0.00339289 0.999331 0 1 0 0 1 0 0 1 0 0 -1 0 0 -1 0 0 -1 0 0 1 0 0 1 0 0 1 0 0 -1 0 0 -1 0 0 -1 0 0 1 0 0 1 0 0 1 0 0 -1 0 0 -1 0 0 -1 0 0.00872402 1.14383e-07 -0.999962 0.00873287 -1.17228e-06 -0.999962 0.915248 -0.0117961 0.402717 0.999778 -0.0155317 0.014227 0.999774 -0.0193675 0.0087257 0.00873177 -1.85934e-07 -0.999962 0.00872665 4.67004e-07 -0.999962 -0.746371 0.00114446 0.665529 -0.999933 -0.00758645 -0.00872708 -0.999927 -0.0117944 -0.00256422 0.0207471 0.999785 0.000129209 0.0207317 0.999785 0.000237239 0.0207467 0.999785 0.00018107 0.0207467 0.999785 0.000181072 0.00223152 0.997799 -0.0662809 -0.00530287 0.999986 -8.7734e-05 -0.00552277 0.999985 -4.82009e-05</float_array>
                    <technique_common>
                        <accessor count="210" source="#shape0-lib-normals-array" stride="3">
                            <param name="X" type="float"/>
                            <param name="Y" type="float"/>
                            <param name="Z" type="float"/>
                        </accessor>
                    </technique_common>
                </source>
                <source id="shape0-lib-vcolor" name="vcolor">
                    <float_array id="shape0-lib-vcolor-array" count="532">1 1 1 1 1 1 1 1 1 1 1 1 1 1 1 1 1 1 1 1 1 1 1 1 1 1 1 1 1 1 1 1 1 1 1 1 1 1 1 1 1 1 1 1 1 1 1 1 1 1 1 1 1 1 1 1 1 1 1 1 1 1 1 1 1 1 1 1 1 1 1 1 1 1 1 1 1 1 1 1 1 1 1 1 1 1 1 1 1 1 1 1 1 1 1 1 1 1 1 1 1 1 1 1 1 1 1 1 1 1 1 1 1 1 1 1 1 1 1 1 1 1 1 1 1 1 1 1 1 1 1 1 1 1 1 1 1 1 1 1 1 1 1 1 1 1 1 1 1 1 1 1 1 1 1 1 1 1 1 1 1 1 1 1 1 1 1 1 1 1 1 1 1 1 1 1 1 1 1 1 1 1 1 1 1 1 1 1 1 1 1 1 1 1 1 1 1 1 1 1 1 1 1 1 1 1 1 1 1 1 1 1 1 1 1 1 1 1 1 1 1 1 1 1 1 1 1 1 1 1 1 1 1 1 1 1 1 1 1 1 1 1 1 1 1 1 1 1 1 1 1 1 1 1 1 1 1 1 1 1 1 1 1 1 1 1 1 1 1 1 1 1 1 1 1 1 1 1 1 1 1 1 1 1 1 1 1 1 1 1 1 1 1 1 1 1 1 1 1 1 1 1 1 1 1 1 1 1 1 1 1 1 1 1 1 1 1 1 1 1 1 1 1 1 1 1 1 1 1 1 1 1 1 1 1 1 1 1 1 1 1 1 1 1 1 1 1 1 1 1 1 1 1 1 1 1 1 1 1 1 1 1 1 1 1 1 1 1 1 1 1 1 1 1 1 1 1 1 1 1 1 1 1 1 1 1 1 1 1 1 1 1 1 1 1 1 1 1 1 1 1 1 1 1 1 1 1 1 1 1 1 1 1 1 1 1 1 1 1 1 1 1 1 1 1 1 1 1 1 1 1 1 1 1 1 1 1 1 1 1 1 1 1 1 1 1 1 1 1 1 1 1 1 1 1 1 1 1 1 1 1 1 1 1 1 1 1 1 1 1 1 1 1 1 1 1 1 1 1 1 1 1 1 1 1 1 1 1 1 1 1 1 1 1 1 1 1 1 1 1 1 1 1 1 1 1 1 1 1 1 1 1 1 1 1 1 1 1 1 1 1 1 1 1 1 1 1 1 1 1 1 1</float_array>
                    <technique_common>
                        <accessor count="133" source="#shape0-lib-vcolor-array" stride="4">
                            <param name="R" type="float"/>
                            <param name="G" type="float"/>
                            <param name="B" type="float"/>
                            <param name="A" type="float"/>
                        </accessor>
                    </technique_common>
                </source>
                <source id="shape0-lib-map" name="map">
                    <float_array id="shape0-lib-map-array" count="1260">0.327015 0.307553 0.327015 0.33094 0.330237 0.33094 0.327015 0.307553 0.330237 0.33094 0.330237 0.307553 0.165146 0.807079 0.165369 0.746721 0.165639 0.807079 0.440969 0.622834 0.435656 0.622834 0.435656 0.611243 0.440969 0.622834 0.435656 0.611243 0.440969 0.611243 0.544031 0.604868 0.549344 0.604868 0.549344 0.616459 0.544031 0.604868 0.549344 0.616459 0.544031 0.616459 0.172585 0.746721 0.172588 0.807079 0.165639 0.807079 0.172585 0.746721 0.165639 0.807079 0.165369 0.746721 0.330595 0.307553 0.330595 0.33094 0.333818 0.33094 0.330595 0.307553 0.333818 0.33094 0.333818 0.307553 0.173663 0.807079 0.173885 0.746721 0.174155 0.807079 0.511094 0.616459 0.505781 0.616459 0.505781 0.604868 0.511094 0.616459 0.505781 0.604868 0.511094 0.604868 0.512156 0.604868 0.517469 0.604868 0.517469 0.616459 0.512156 0.604868 0.517469 0.616459 0.512156 0.616459 0.181101 0.746721 0.181105 0.807079 0.174155 0.807079 0.181101 0.746721 0.174155 0.807079 0.173885 0.746721 0.334057 0.307553 0.334057 0.33094 0.337279 0.33094 0.334057 0.307553 0.337279 0.33094 0.337279 0.307553 0.181895 0.807079 0.182118 0.746721 0.182388 0.807079 0.536594 0.616459 0.531281 0.616459 0.531281 0.604868 0.536594 0.616459 0.531281 0.604868 0.536594 0.604868 0.524906 0.604868 0.530219 0.604868 0.530219 0.616459 0.524906 0.604868 0.530219 0.616459 0.524906 0.616459 0.189334 0.746721 0.189338 0.807079 0.182388 0.807079 0.189334 0.746721 0.182388 0.807079 0.182118 0.746721 0.190921 0.811748 0.190225 0.746945 0.191413 0.811737 0.396344 0.584584 0.391031 0.584584 0.391031 0.572993 0.396344 0.584584 0.391031 0.572993 0.396344 0.572993 0.19741 0.746781 0.198122 0.811585 0.191413 0.811737 0.19741 0.746781 0.191413 0.811737 0.190225 0.746945 0.206659 0.746815 0.206323 0.811622 0.206167 0.746817 0.454781 0.515618 0.460094 0.515618 0.460094 0.527209 0.454781 0.515618 0.460094 0.527209 0.454781 0.527209 0.206167 0.746817 0.206323 0.811622 0.19952 0.811646 0.206167 0.746817 0.19952 0.811646 0.199261 0.746841 0.344706 0.307588 0.344658 0.332699 0.347873 0.332688 0.344706 0.307588 0.347873 0.332688 0.34792 0.307577 0.214871 0.746785 0.214536 0.811592 0.214379 0.746787 0.207112 0.811619 0.207448 0.746812 0.207604 0.811617 0.460094 0.514459 0.454781 0.514459 0.454781 0.502868 0.460094 0.514459 0.454781 0.502868 0.460094 0.502868 0.435656 0.502868 0.440969 0.502868 0.440969 0.514459 0.435656 0.502868 0.440969 0.514459 0.435656 0.514459 0.214379 0.746787 0.214536 0.811592 0.207604 0.811617 0.214379 0.746787 0.207604 0.811617 0.207448 0.746812 0.172588 0.807079 0.165146 0.807079 0.165639 0.807079 0.176478 0.544954 0.176478 0.513768 0.171132 0.513768 0.176478 0.544954 0.171132 0.513768 0.171132 0.544954 0.105353 0.35165 0.105353 0.31458 0.108926 0.31458 0.105353 0.35165 0.108926 0.31458 0.108926 0.35165 0.181105 0.807079 0.173663 0.807079 0.174155 0.807079 0.182417 0.544954 0.182417 0.513768 0.177072 0.513768 0.182417 0.544954 0.177072 0.513768 0.177072 0.544954 0.109323 0.35165 0.109323 0.31458 0.112897 0.31458 0.109323 0.35165 0.112897 0.31458 0.112897 0.35165 0.189338 0.807079 0.181895 0.807079 0.182388 0.807079 0.188158 0.544954 0.188158 0.513768 0.182813 0.513768 0.188158 0.544954 0.182813 0.513768 0.182813 0.544954 0.113162 0.35165 0.113162 0.31458 0.116736 0.31458 0.113162 0.35165 0.116736 0.31458 0.116736 0.35165 0.116942 0.35165 0.116942 0.31458 0.120506 0.31458 0.116942 0.35165 0.120506 0.31458 0.120506 0.35165 0.199261 0.746841 0.206659 0.746815 0.206167 0.746817 0.121143 0.35165 0.121143 0.31458 0.124708 0.31458 0.121143 0.35165 0.124708 0.31458 0.124708 0.35165 0.214536 0.811592 0.207112 0.811619 0.207604 0.811617 0.20573 0.544954 0.20573 0.513768 0.200398 0.513768 0.20573 0.544954 0.200398 0.513768 0.200398 0.544954 0.207448 0.746812 0.214871 0.746785 0.214379 0.746787 0.124972 0.35165 0.124972 0.31458 0.128536 0.31458 0.124972 0.35165 0.128536 0.31458 0.128536 0.35165 0.348457 0.307726 0.348457 0.331113 0.351276 0.331113 0.348457 0.307726 0.351276 0.331113 0.351276 0.307726 0.479219 0.616459 0.473906 0.616459 0.473906 0.604868 0.479219 0.616459 0.473906 0.604868 0.479219 0.604868 0.461156 0.604868 0.466469 0.604868 0.466469 0.616459 0.461156 0.604868 0.466469 0.616459 0.461156 0.616459 0.222648 0.74717 0.222653 0.807527 0.216353 0.807527 0.222648 0.74717 0.216353 0.807527 0.216348 0.74717 0.35159 0.308019 0.35159 0.331406 0.354409 0.331406 0.35159 0.308019 0.354409 0.331406 0.354409 0.308019 0.447344 0.616459 0.442031 0.616459 0.442031 0.604868 0.447344 0.616459 0.442031 0.604868 0.447344 0.604868 0.448406 0.604868 0.453719 0.604868 0.453719 0.616459 0.448406 0.604868 0.453719 0.616459 0.448406 0.616459 0.2301 0.747924 0.230105 0.808282 0.223805 0.808282 0.2301 0.747924 0.223805 0.808282 0.223801 0.747924 0.354618 0.307726 0.354618 0.331113 0.357438 0.331113 0.354618 0.307726 0.357438 0.331113 0.357438 0.307726 0.460094 0.616459 0.454781 0.616459 0.454781 0.604868 0.460094 0.616459 0.454781 0.604868 0.460094 0.604868 0.518531 0.611243 0.523844 0.611243 0.523844 0.622834 0.518531 0.611243 0.523844 0.622834 0.518531 0.622834 0.237304 0.74717 0.237308 0.807527 0.231009 0.807527 0.237304 0.74717 0.231009 0.807527 0.231004 0.74717 0.211376 0.544954 0.211376 0.513768 0.206698 0.513768 0.211376 0.544954 0.206698 0.513768 0.206698 0.544954 0.129131 0.35165 0.129131 0.31458 0.132258 0.31458 0.129131 0.35165 0.132258 0.31458 0.132258 0.35165 0.216572 0.544954 0.216572 0.513768 0.211895 0.513768 0.216572 0.544954 0.211895 0.513768 0.211895 0.544954 0.132606 0.35165 0.132606 0.31458 0.135733 0.31458 0.132606 0.35165 0.135733 0.31458 0.135733 0.35165 0.221596 0.544954 0.221596 0.513768 0.216919 0.513768 0.221596 0.544954 0.216919 0.513768 0.216919 0.544954 0.135964 0.35165 0.135964 0.31458 0.139091 0.31458 0.135964 0.35165 0.139091 0.31458 0.139091 0.35165 0.357715 0.307726 0.357715 0.331113 0.360535 0.331113 0.357715 0.307726 0.360535 0.331113 0.360535 0.307726 0.434594 0.622834 0.429281 0.622834 0.429281 0.611243 0.434594 0.622834 0.429281 0.611243 0.434594 0.611243 0.556781 0.604868 0.562094 0.604868 0.562094 0.616459 0.556781 0.604868 0.562094 0.616459 0.556781 0.616459 0.244671 0.74717 0.244676 0.807527 0.238376 0.807527 0.244671 0.74717 0.238376 0.807527 0.238371 0.74717 0.360849 0.307434 0.360849 0.330821 0.363668 0.330821 0.360849 0.307434 0.363668 0.330821 0.363668 0.307434 0.491969 0.629209 0.486656 0.629209 0.486656 0.617618 0.491969 0.629209 0.486656 0.617618 0.491969 0.617618 0.454781 0.617618 0.460094 0.617618 0.460094 0.629209 0.454781 0.617618 0.460094 0.629209 0.454781 0.629209 0.252123 0.746415 0.252128 0.806773 0.245828 0.806773 0.252123 0.746415 0.245828 0.806773 0.245824 0.746415 0.363877 0.307726 0.363877 0.331113 0.366697 0.331113 0.363877 0.307726 0.366697 0.331113 0.366697 0.307726 0.504719 0.616459 0.499406 0.616459 0.499406 0.604868 0.504719 0.616459 0.499406 0.604868 0.504719 0.604868 0.378281 0.604868 0.383594 0.604868 0.383594 0.616459 0.378281 0.604868 0.383594 0.616459 0.378281 0.616459 0.259327 0.74717 0.259331 0.807527 0.253032 0.807527 0.259327 0.74717 0.253032 0.807527 0.253027 0.74717 0.226734 0.544954 0.226734 0.513768 0.222056 0.513768 0.226734 0.544954 0.222056 0.513768 0.222056 0.544954 0.139399 0.35165 0.139399 0.31458 0.142526 0.31458 0.139399 0.35165 0.142526 0.31458 0.142526 0.35165 0.23193 0.544954 0.23193 0.513768 0.227253 0.513768 0.23193 0.544954 0.227253 0.513768 0.227253 0.544954 0.142874 0.35165 0.142874 0.31458 0.146001 0.31458 0.142874 0.35165 0.146001 0.31458 0.146001 0.35165 0.236954 0.544954 0.236954 0.513768 0.232277 0.513768 0.236954 0.544954 0.232277 0.513768 0.232277 0.544954 0.146232 0.35165 0.146232 0.31458 0.149359 0.31458 0.146232 0.35165 0.149359 0.31458 0.149359 0.35165 0.366944 0.307845 0.366944 0.331232 0.370166 0.331232 0.366944 0.307845 0.370166 0.331232 0.370166 0.307845 0.267785 0.747476 0.267562 0.807833 0.267292 0.747476 0.26012 0.807833 0.260343 0.747476 0.260613 0.807833 0.428219 0.603709 0.422906 0.603709 0.422906 0.592118 0.428219 0.603709 0.422906 0.592118 0.428219 0.592118 0.505781 0.592118 0.511094 0.592118 0.511094 0.603709 0.505781 0.592118 0.511094 0.603709 0.505781 0.603709 0.267292 0.747476 0.267562 0.807833 0.260613 0.807833 0.267292 0.747476 0.260613 0.807833 0.260343 0.747476 0.370524 0.307845 0.370524 0.331232 0.373747 0.331232 0.370524 0.307845 0.373747 0.331232 0.373747 0.307845 0.276302 0.747476 0.276079 0.807833 0.275809 0.747476 0.268637 0.807833 0.26886 0.747476 0.26913 0.807833 0.517469 0.603709 0.512156 0.603709 0.512156 0.592118 0.517469 0.603709 0.512156 0.592118 0.517469 0.592118 0.556781 0.592118 0.562094 0.592118 0.562094 0.603709 0.556781 0.592118 0.562094 0.603709 0.556781 0.603709 0.275809 0.747476 0.276079 0.807833 0.26913 0.807833 0.275809 0.747476 0.26913 0.807833 0.26886 0.747476 0.373986 0.307845 0.373986 0.331232 0.377208 0.331232 0.373986 0.307845 0.377208 0.331232 0.377208 0.307845 0.284535 0.747476 0.284312 0.807833 0.284042 0.747476 0.27687 0.807833 0.277092 0.747476 0.277363 0.807833 0.402719 0.616459 0.397406 0.616459 0.397406 0.604868 0.402719 0.616459 0.397406 0.604868 0.402719 0.604868 0.518531 0.598493 0.523844 0.598493 0.523844 0.610084 0.518531 0.598493 0.523844 0.610084 0.518531 0.610084 0.284042 0.747476 0.284312 0.807833 0.277363 0.807833 0.284042 0.747476 0.277363 0.807833 0.277092 0.747476 0.267562 0.807833 0.26012 0.807833 0.260613 0.807833 0.242709 0.544954 0.242709 0.513768 0.237363 0.513768 0.242709 0.544954 0.237363 0.513768 0.237363 0.544954 0.260343 0.747476 0.267785 0.747476 0.267292 0.747476 0.149633 0.35165 0.149633 0.31458 0.153207 0.31458 0.149633 0.35165 0.153207 0.31458 0.153207 0.35165 0.276079 0.807833 0.268637 0.807833 0.26913 0.807833 0.248648 0.544954 0.248648 0.513768 0.243303 0.513768 0.248648 0.544954 0.243303 0.513768 0.243303 0.544954 0.26886 0.747476 0.276302 0.747476 0.275809 0.747476 0.153604 0.35165 0.153604 0.31458 0.157178 0.31458 0.153604 0.35165 0.157178 0.31458 0.157178 0.35165 0.284312 0.807833 0.27687 0.807833 0.277363 0.807833 0.254389 0.544954 0.254389 0.513768 0.249044 0.513768 0.254389 0.544954 0.249044 0.513768 0.249044 0.544954 0.277092 0.747476 0.284535 0.747476 0.284042 0.747476 0.157442 0.35165 0.157442 0.31458 0.161016 0.31458 0.157442 0.35165 0.161016 0.31458 0.161016 0.35165 0.337465 0.307641 0.337851 0.332749 0.341065 0.332682 0.337465 0.307641 0.341065 0.332682 0.340679 0.307574 0.19741 0.746781 0.198565 0.811574 0.198122 0.811585 0.531281 0.572993 0.536594 0.572993 0.536594 0.584584 0.531281 0.572993 0.536594 0.584584 0.531281 0.584584 0.341253 0.307599 0.341206 0.33271 0.34442 0.3327 0.341253 0.307599 0.34442 0.3327 0.344468 0.307589 0.1989 0.811648 0.199261 0.746841 0.19952 0.811646 0.498344 0.501709 0.493031 0.501709 0.493031 0.490118 0.498344 0.501709 0.493031 0.490118 0.498344 0.490118 0.198122 0.811585 0.198565 0.811574 0.190921 0.811748 0.198122 0.811585 0.190921 0.811748 0.191413 0.811737 0.194438 0.544954 0.194438 0.513768 0.189107 0.513768 0.194438 0.544954 0.189107 0.513768 0.189107 0.544954 0.206323 0.811622 0.1989 0.811648 0.19952 0.811646 0.200003 0.544954 0.200003 0.513768 0.194671 0.513768 0.200003 0.544954 0.194671 0.513768 0.194671 0.544954</float_array>
                    <technique_common>
                        <accessor count="630" source="#shape0-lib-map-array" stride="2">
                            <param name="U" type="float"/>
                            <param name="V" type="float"/>
                        </accessor>
                    </technique_common>
                </source>
                <vertices id="shape0-lib-vertices">
                    <input semantic="POSITION" source="#shape0-lib-positions"/>
                </vertices>
                <triangles count="210" material="material0">
                    <input offset="0" semantic="VERTEX" source="#shape0-lib-vertices"/>
                    <input offset="1" semantic="COLOR" source="#shape0-lib-vcolor"/>
                    <input offset="2" semantic="NORMAL" source="#shape0-lib-normals"/>
                    <input offset="3" semantic="TEXCOORD" source="#shape0-lib-map"/>
                    <p>0 0 0 0 1 1 0 1 2 2 0 2 0 0 1 3 2 2 1 4 3 3 1 5 5 5 2 6 4 4 2 7 8 8 2 8 5 5 3 9 1 1 3 10 0 0 3 11 5 5 4 12 0 0 4 13 4 4 4 14 7 7 5 15 3 3 5 16 2 2 5 17 7 7 6 18 2 2 6 19 6 6 6 20 7 7 7 21 6 6 7 22 8 8 7 23 7 7 8 24 8 8 8 25 4 4 8 26 9 9 9 27 10 10 9 28 11 11 9 29 9 9 10 30 11 11 10 31 12 12 10 32 14 14 11 33 13 13 11 34 17 17 11 35 14 14 12 36 10 10 12 37 9 9 12 38 14 14 13 39 9 9 13 40 13 13 13 41 16 16 14 42 12 12 14 43 11 11 14 44 16 16 15 45 11 11 15 46 15 15 15 47 16 16 16 48 15 15 16 49 17 17 16 50 16 16 17 51 17 17 17 52 13 13 17 53 18 18 18 54 19 19 18 55 20 20 18 56 18 18 19 57 20 20 19 58 21 21 19 59 23 23 20 60 22 22 20 61 26 26 20 62 23 23 21 63 19 19 21 64 18 18 21 65 23 23 22 66 18 18 22 67 22 22 22 68 25 25 23 69 21 21 23 70 20 20 23 71 25 25 24 72 20 20 24 73 24 24 24 74 25 25 25 75 24 24 25 76 26 26 25 77 25 25 26 78 26 26 26 79 22 22 26 80 31 31 27 81 30 30 27 82 34 34 27 83 31 31 28 84 28 28 28 85 27 27 28 86 31 31 29 87 27 27 29 88 30 30 29 89 32 32 30 90 33 33 30 91 34 34 30 92 32 32 31 93 34 34 31 94 30 30 31 95 40 40 32 96 39 39 32 97 41 41 32 98 40 40 33 99 37 37 33 100 36 36 33 101 40 40 34 102 36 36 34 103 39 39 34 104 41 41 35 105 39 39 35 106 42 42 35 107 41 41 36 108 42 42 36 109 38 38 36 110 43 43 37 111 44 44 37 112 45 45 37 113 43 43 38 114 45 45 38 115 46 46 38 116 50 50 39 117 49 49 39 118 51 51 39 119 48 48 40 120 47 47 40 121 52 52 40 122 48 48 41 123 44 44 41 124 43 43 41 125 48 48 42 126 43 43 42 127 47 47 42 128 50 50 43 129 46 46 43 130 45 45 43 131 50 50 44 132 45 45 44 133 49 49 44 134 51 51 45 135 49 49 45 136 52 52 45 137 51 51 46 138 52 52 46 139 47 47 46 140 6 6 47 141 5 5 47 142 8 8 47 143 6 6 48 144 2 2 48 145 1 1 48 146 6 6 49 147 1 1 49 148 5 5 49 149 4 4 50 150 0 0 50 151 3 3 50 152 4 4 51 153 3 3 51 154 7 7 51 155 15 15 52 156 14 14 52 157 17 17 52 158 15 15 53 159 11 11 53 160 10 10 53 161 15 15 54 162 10 10 54 163 14 14 54 164 13 13 55 165 9 9 55 166 12 12 55 167 13 13 56 168 12 12 56 169 16 16 56 170 24 24 57 171 23 23 57 172 26 26 57 173 24 24 58 174 20 20 58 175 19 19 58 176 24 24 59 177 19 19 59 178 23 23 59 179 22 22 60 180 18 18 60 181 21 21 60 182 22 22 61 183 21 21 61 184 25 25 61 185 30 30 62 186 27 27 62 187 29 29 62 188 30 30 63 189 29 29 63 190 32 32 63 191 38 38 64 192 40 40 64 193 41 41 64 194 38 38 65 195 35 35 65 196 37 37 65 197 38 38 66 198 37 37 66 199 40 40 66 200 49 49 67 201 48 48 67 202 52 52 67 203 49 49 68 204 45 45 68 205 44 44 68 206 49 49 69 207 44 44 69 208 48 48 69 209 47 47 70 210 50 50 70 211 51 51 70 212 47 47 71 213 43 43 71 214 46 46 71 215 47 47 72 216 46 46 72 217 50 50 72 218 53 53 73 219 54 54 73 220 55 55 73 221 53 53 74 222 55 55 74 223 56 56 74 224 58 58 75 225 54 54 75 226 53 53 75 227 58 58 76 228 53 53 76 229 57 57 76 230 60 60 77 231 56 56 77 232 55 55 77 233 60 60 78 234 55 55 78 235 59 59 78 236 60 60 79 237 59 59 79 238 58 58 79 239 60 60 80 240 58 58 80 241 57 57 80 242 61 61 81 243 62 62 81 244 63 63 81 245 61 61 82 246 63 63 82 247 64 64 82 248 66 66 83 249 62 62 83 250 61 61 83 251 66 66 84 252 61 61 84 253 65 65 84 254 68 68 85 255 64 64 85 256 63 63 85 257 68 68 86 258 63 63 86 259 67 67 86 260 68 68 87 261 67 67 87 262 66 66 87 263 68 68 88 264 66 66 88 265 65 65 88 266 69 69 89 267 70 70 89 268 71 71 89 269 69 69 90 270 71 71 90 271 72 72 90 272 74 74 91 273 70 70 91 274 69 69 91 275 74 74 92 276 69 69 92 277 73 73 92 278 76 76 93 279 72 72 93 280 71 71 93 281 76 76 94 282 71 71 94 283 75 75 94 284 76 76 95 285 75 75 95 286 74 74 95 287 76 76 96 288 74 74 96 289 73 73 96 290 59 59 97 291 55 55 97 292 54 54 97 293 59 59 98 294 54 54 98 295 58 58 98 296 57 57 99 297 53 53 99 298 56 56 99 299 57 57 100 300 56 56 100 301 60 60 100 302 67 67 101 303 63 63 101 304 62 62 101 305 67 67 102 306 62 62 102 307 66 66 102 308 65 65 103 309 61 61 103 310 64 64 103 311 65 65 104 312 64 64 104 313 68 68 104 314 75 75 105 315 71 71 105 316 70 70 105 317 75 75 106 318 70 70 106 319 74 74 106 320 73 73 107 321 69 69 107 322 72 72 107 323 73 73 108 324 72 72 108 325 76 76 108 326 77 77 109 327 78 78 109 328 79 79 109 329 77 77 110 330 79 79 110 331 80 80 110 332 82 82 111 333 78 78 111 334 77 77 111 335 82 82 112 336 77 77 112 337 81 81 112 338 84 84 113 339 80 80 113 340 79 79 113 341 84 84 114 342 79 79 114 343 83 83 114 344 84 84 115 345 83 83 115 346 82 82 115 347 84 84 116 348 82 82 116 349 81 81 116 350 85 85 117 351 86 86 117 352 87 87 117 353 85 85 118 354 87 87 118 355 88 88 118 356 90 90 119 357 86 86 119 358 85 85 119 359 90 90 120 360 85 85 120 361 89 89 120 362 92 92 121 363 88 88 121 364 87 87 121 365 92 92 122 366 87 87 122 367 91 91 122 368 92 92 123 369 91 91 123 370 90 90 123 371 92 92 124 372 90 90 124 373 89 89 124 374 93 93 125 375 94 94 125 376 95 95 125 377 93 93 126 378 95 95 126 379 96 96 126 380 98 98 127 381 94 94 127 382 93 93 127 383 98 98 128 384 93 93 128 385 97 97 128 386 100 100 129 387 96 96 129 388 95 95 129 389 100 100 130 390 95 95 130 391 99 99 130 392 100 100 131 393 99 99 131 394 98 98 131 395 100 100 132 396 98 98 132 397 97 97 132 398 83 83 133 399 79 79 133 400 78 78 133 401 83 83 134 402 78 78 134 403 82 82 134 404 81 81 135 405 77 77 135 406 80 80 135 407 81 81 136 408 80 80 136 409 84 84 136 410 91 91 137 411 87 87 137 412 86 86 137 413 91 91 138 414 86 86 138 415 90 90 138 416 89 89 139 417 85 85 139 418 88 88 139 419 89 89 140 420 88 88 140 421 92 92 140 422 99 99 141 423 95 95 141 424 94 94 141 425 99 99 142 426 94 94 142 427 98 98 142 428 97 97 143 429 93 93 143 430 96 96 143 431 97 97 144 432 96 96 144 433 100 100 144 434 101 101 145 435 102 102 145 436 103 103 145 437 101 101 146 438 103 103 146 439 104 104 146 440 108 108 147 441 107 107 147 442 109 109 147 443 106 106 148 444 105 105 148 445 110 110 148 446 106 106 149 447 102 102 149 448 101 101 149 449 106 106 150 450 101 101 150 451 105 105 150 452 108 108 151 453 104 104 151 454 103 103 151 455 108 108 152 456 103 103 152 457 107 107 152 458 109 109 153 459 107 107 153 460 110 110 153 461 109 109 154 462 110 110 154 463 105 105 154 464 111 111 155 465 112 112 155 466 113 113 155 467 111 111 156 468 113 113 156 469 114 114 156 470 118 118 157 471 117 117 157 472 119 119 157 473 116 116 158 474 115 115 158 475 120 120 158 476 116 116 159 477 112 112 159 478 111 111 159 479 116 116 160 480 111 111 160 481 115 115 160 482 118 118 161 483 114 114 161 484 113 113 161 485 118 118 162 486 113 113 162 487 117 117 162 488 119 119 163 489 117 117 163 490 120 120 163 491 119 119 164 492 120 120 164 493 115 115 164 494 121 121 165 495 122 122 165 496 123 123 165 497 121 121 166 498 123 123 166 499 124 124 166 500 128 128 167 501 127 127 167 502 129 129 167 503 126 126 168 504 125 125 168 505 130 130 168 506 126 126 169 507 122 122 169 508 121 121 169 509 126 126 170 510 121 121 170 511 125 125 170 512 128 128 171 513 124 124 171 514 123 123 171 515 128 128 172 516 123 123 172 517 127 127 172 518 129 129 173 519 127 127 173 520 130 130 173 521 129 129 174 522 130 130 174 523 125 125 174 524 107 107 175 525 106 106 175 526 110 110 175 527 107 107 176 528 103 103 176 529 102 102 176 530 107 107 177 531 102 102 177 532 106 106 177 533 105 105 178 534 108 108 178 535 109 109 178 536 105 105 179 537 101 101 179 538 104 104 179 539 105 105 180 540 104 104 180 541 108 108 180 542 117 117 181 543 116 116 181 544 120 120 181 545 117 117 182 546 113 113 182 547 112 112 182 548 117 117 183 549 112 112 183 550 116 116 183 551 115 115 184 552 118 118 184 553 119 119 184 554 115 115 185 555 111 111 185 556 114 114 185 557 115 115 186 558 114 114 186 559 118 118 186 560 127 127 187 561 126 126 187 562 130 130 187 563 127 127 188 564 123 123 188 565 122 122 188 566 127 127 189 567 122 122 189 568 126 126 189 569 125 125 190 570 128 128 190 571 129 129 190 572 125 125 191 573 121 121 191 574 124 124 191 575 125 125 192 576 124 124 192 577 128 128 192 578 27 27 193 579 28 28 193 580 131 131 193 581 27 27 194 582 131 131 194 583 29 29 194 584 32 32 195 585 132 132 195 586 33 33 195 587 32 32 196 588 29 29 196 589 131 131 196 590 32 32 197 591 131 131 197 592 132 132 197 593 35 35 198 594 131 131 198 595 36 36 198 596 35 35 199 597 36 36 199 598 37 37 199 599 132 132 200 600 38 38 200 601 42 42 200 602 132 132 201 603 131 131 201 604 35 35 201 605 132 132 202 606 35 35 202 607 38 38 202 608 33 33 203 609 132 132 203 610 31 31 203 611 33 33 204 612 31 31 204 613 34 34 204 614 132 132 205 615 131 131 205 616 28 28 205 617 132 132 206 618 28 28 206 619 31 31 206 620 39 39 207 621 132 132 207 622 42 42 207 623 39 39 208 624 36 36 208 625 131 131 208 626 39 39 209 627 131 131 209 628 132 132 209 629</p>
                </triangles>
            </mesh>
        </geometry>
    </library_geometries>
    <library_visual_scenes>
        <visual_scene id="VisualSceneNode" name="VisualScene">
            <node id="node" name="node">
                <instance_geometry url="#shape0-lib">
                    <bind_material>
                        <technique_common>
                            <instance_material symbol="material0" target="#material0">
                                <bind_vertex_input semantic="UVSET0" input_semantic="TEXCOORD"/>
                            </instance_material>
                        </technique_common>
                    </bind_material>
                </instance_geometry>
            </node>
        </visual_scene>
    </library_visual_scenes>
    <scene>
        <instance_visual_scene url="#VisualSceneNode"/>
    </scene>
</COLLADA>
