<?xml version="1.0" encoding="UTF-8"?>
<COLLADA xmlns="http://www.collada.org/2005/11/COLLADASchema" version="1.4.1">
    <asset>
        <contributor>
            <author>VCGLab</author>
            <authoring_tool>VCGLib | MeshLab</authoring_tool>
        </contributor>
        <created>Thu Jul 3 02:09:52 2025 GMT</created>
        <modified>Thu Jul 3 02:09:52 2025 GMT</modified>
        <up_axis>Y_UP</up_axis>
    </asset>
    <library_images>
        <image id="texture0" name="texture0">
            <init_from>./image/shelf_items.png</init_from>
        </image>
    </library_images>
    <library_materials>
        <material id="material0" name="material0">
            <instance_effect url="#material0-fx"/>
        </material>
    </library_materials>
    <library_effects>
        <effect id="material0-fx">
            <profile_COMMON>
                <newparam sid="texture0-surface">
                    <surface type="2D">
                        <init_from>texture0</init_from>
                        <format>R8G8B8</format>
                    </surface>
                </newparam>
                <newparam sid="texture0-sampler">
                    <sampler2D>
                        <source>texture0-surface</source>
                        <minfilter>LINEAR</minfilter>
                        <magfilter>LINEAR</magfilter>
                    </sampler2D>
                </newparam>
                <technique sid="common">
                    <blinn>
                        <diffuse>
                            <texture texture="texture0-sampler" texcoord="UVSET0"/>
                        </diffuse>
                    </blinn>
                </technique>
            </profile_COMMON>
        </effect>
    </library_effects>
    <library_geometries>
        <geometry id="shape0-lib" name="shape0">
            <mesh>
                <source id="shape0-lib-positions" name="position">
                    <float_array id="shape0-lib-positions-array" count="150">-0.0259295 0.0291848 -0.0135796 -0.00983405 0.067886 -0.0023519 -0.0245049 0.064846 0.0096195 -0.0152383 0.0816582 0.0142126 0.00887182 0.0465552 -0.0164136 0.0155013 0.0537223 -0.0079357 0.00224986 0.0812784 0.0115956 -0.0116355 0.0382678 -0.0211919 0.0166984 0.0259641 -0.0214805 0.00661673 0.0144974 -0.0253263 -0.0299888 0.0571972 0.0419483 -0.0132296 0.0639696 0.0593224 -0.0221169 0.0849028 0.0548009 -0.0196389 0.0956486 0.0522946 -0.0295579 0.0472871 0.000302146 -0.0248588 0.0755851 0.0248335 -0.0313825 0.0252304 0.0243495 -0.0315438 0.0266495 -0.00142021 -0.0262118 0.0117291 0.016014 -0.0260873 0.0132246 -0.0102025 -0.010066 0.103592 0.05796 -0.00893062 0.0995216 0.0688121 0.00331383 0.105534 0.0569384 0.00369612 0.100986 0.0675454 0.00972964 0.0983543 0.0394146 0.0141327 0.0961164 0.0507758 0.0119746 0.093743 0.0577103 -0.00605096 0.0892056 0.0169796 0.00650059 0.0917955 0.0262245 -0.00785181 0.102706 0.0419652 -0.017318 0.0913354 0.02994 0.0222388 0.0607772 0.0451896 0.0163591 0.0824188 0.0484963 0.0284841 0.0334382 0.0321203 0.0273005 0.0125821 0.0158462 0.0302538 0.0247387 -0.00207672 0.0256281 0.0107545 -0.00797861 0.0262377 0.0577035 0.0159758 0.00240795 0.012375 0.0367744 0.0196001 0.0162211 0.0321762 -0.00834415 1.47482e-05 0.00964535 -0.0136319 0.0150713 0.0377813 -0.00130173 0.00367557 -0.0189239 -0.0178186 0.0101125 -0.0196506 0.0177288 0.00328937 0.00632752 0.0129088 0.00552463 -0.0182433 -0.0169055 0.0347256 0.0491833 0.00872638 0.0320281 0.0476126 0.00209914 0.0834161 0.0600829 -0.0153274 0.0932278 0.0630245</float_array>
                    <technique_common>
                        <accessor count="50" source="#shape0-lib-positions-array" stride="3">
                            <param name="X" type="float"/>
                            <param name="Y" type="float"/>
                            <param name="Z" type="float"/>
                        </accessor>
                    </technique_common>
                </source>
                <source id="shape0-lib-normals" name="normal">
                    <float_array id="shape0-lib-normals-array" count="288">-0.225605 -0.00378599 -0.974212 -0.615348 0.398292 -0.680228 -0.499763 0.0624587 -0.863907 -0.543082 0.510177 -0.666919 -0.619136 0.447938 -0.644998 -0.344939 0.663349 -0.664067 -0.542936 0.680073 -0.492669 -0.785919 0.324589 -0.526283 0.110059 0.52868 -0.841656 -0.207978 0.821112 -0.531527 0.138588 0.651631 -0.745768 0.182455 0.625449 -0.758633 0.110513 0.276887 -0.954526 0.537345 0.388446 -0.748579 0.0946913 0.24072 -0.965964 -0.781378 -0.274482 0.560453 -0.67743 -0.1635 0.717187 -0.679993 -0.555725 0.478309 -0.688236 -0.446401 0.571889 -0.685795 -0.136757 0.714831 -0.861719 0.294998 0.412814 -0.962351 0.271786 0.00354495 -0.974706 0.214941 -0.0612315 -0.971676 0.191903 -0.137908 -0.893169 0.446096 -0.0569828 -0.857091 0.411274 -0.310239 -0.994563 0.098518 -0.0337329 -0.999206 0.0389382 0.00840023 -0.9106 0.120614 -0.395298 -0.929572 -0.368358 -0.014465 -0.938467 -0.344527 -0.0241087 -0.865643 -0.225914 -0.446794 -0.718392 0.152077 -0.678812 -0.148861 0.985992 -0.0752309 -0.588389 0.798747 -0.125702 -0.107169 0.927174 0.358976 -0.0665695 0.916153 0.395263 -0.71377 0.564755 0.414227 -0.790921 0.541121 0.285712 0.184974 0.931283 -0.313842 0.624557 0.775865 -0.0892242 0.778538 0.586478 0.223434 0.720284 0.5562 0.414526 0.147472 0.870755 -0.469082 0.158927 0.87335 -0.460436 0.30053 0.730881 -0.612776 -0.378523 0.802639 -0.460967 -0.448723 0.733427 -0.51062 -0.63094 0.746974 -0.209631 -0.76496 0.498476 -0.40787 0.963558 0.245577 0.10606 0.846394 0.478507 -0.23377 0.97174 0.124577 0.200504 0.940123 0.0985051 0.326292 0.978898 0.168015 0.116321 0.993867 0.107956 0.0239681 0.989418 -0.119906 0.0817044 0.953892 -0.296881 -0.0441867 0.788645 -0.405439 0.462232 0.770678 0.375735 -0.514664 0.867764 0.247666 -0.430867 0.818585 -0.0286606 -0.573669 0.710512 0.545117 -0.444996 0.677163 0.613554 -0.406205 0.628016 0.533809 -0.566254 0.693156 -0.720757 0.00663134 0.166271 -0.88664 0.431536 0.284313 -0.909957 0.301902 0.419998 -0.823425 0.381541 -0.120392 -0.884515 0.450709 -0.414757 -0.832416 0.367506 -0.347788 -0.915329 -0.20302 -0.559969 -0.827014 -0.0498347 -0.485328 -0.862971 -0.140492 -0.129499 -0.432996 -0.892045 0.132875 -0.986696 -0.0936797 0.109871 -0.987683 -0.111405 0.112736 -0.565747 -0.816836 0.49134 -0.853406 -0.174021 0.564261 -0.23019 -0.792857 0.667169 -0.235618 -0.706661 0.023091 -0.330076 0.943672 0.000200669 -0.501777 0.864997 -0.0249499 -0.476598 0.878767 0.361467 -0.0916889 0.927866 0.327927 -0.534866 0.778705 0.61128 -0.223315 0.759254 0.600634 -0.307531 0.738013 0.330537 -0.2956 0.896307 0.631954 0.0535572 0.773153 0.568505 -0.37548 0.731995 0.561297 -0.36625 0.742164 0.100437 -0.117807 0.987944 0.137124 -0.397783 0.907175 -0.179377 -0.560902 0.808216 -0.68973 -0.139358 0.710529</float_array>
                    <technique_common>
                        <accessor count="96" source="#shape0-lib-normals-array" stride="3">
                            <param name="X" type="float"/>
                            <param name="Y" type="float"/>
                            <param name="Z" type="float"/>
                        </accessor>
                    </technique_common>
                </source>
                <source id="shape0-lib-vcolor" name="vcolor">
                    <float_array id="shape0-lib-vcolor-array" count="200">1 1 1 1 1 1 1 1 1 1 1 1 1 1 1 1 1 1 1 1 1 1 1 1 1 1 1 1 1 1 1 1 1 1 1 1 1 1 1 1 1 1 1 1 1 1 1 1 1 1 1 1 1 1 1 1 1 1 1 1 1 1 1 1 1 1 1 1 1 1 1 1 1 1 1 1 1 1 1 1 1 1 1 1 1 1 1 1 1 1 1 1 1 1 1 1 1 1 1 1 1 1 1 1 1 1 1 1 1 1 1 1 1 1 1 1 1 1 1 1 1 1 1 1 1 1 1 1 1 1 1 1 1 1 1 1 1 1 1 1 1 1 1 1 1 1 1 1 1 1 1 1 1 1 1 1 1 1 1 1 1 1 1 1 1 1 1 1 1 1 1 1 1 1 1 1 1 1 1 1 1 1 1 1 1 1 1 1 1 1 1 1 1 1 1 1 1 1 1 1</float_array>
                    <technique_common>
                        <accessor count="50" source="#shape0-lib-vcolor-array" stride="4">
                            <param name="R" type="float"/>
                            <param name="G" type="float"/>
                            <param name="B" type="float"/>
                            <param name="A" type="float"/>
                        </accessor>
                    </technique_common>
                </source>
                <source id="shape0-lib-map" name="map">
                    <float_array id="shape0-lib-map-array" count="576">0.684458 0.386577 0.679426 0.380071 0.686233 0.379097 0.684458 0.386577 0.689018 0.384086 0.690189 0.388565 0.684458 0.386577 0.686233 0.379097 0.689018 0.384086 0.684458 0.386577 0.690189 0.388565 0.691638 0.39385 0.684458 0.386577 0.691638 0.39385 0.686397 0.394538 0.686397 0.394538 0.689947 0.398453 0.687476 0.398927 0.686397 0.394538 0.691638 0.39385 0.691925 0.39745 0.686397 0.394538 0.691925 0.39745 0.689947 0.398453 0.684458 0.386577 0.686397 0.394538 0.682505 0.39382 0.684458 0.386577 0.682505 0.39382 0.680094 0.388842 0.659528 0.402166 0.662737 0.407311 0.659749 0.406846 0.659528 0.402166 0.659749 0.406846 0.656555 0.403815 0.684458 0.386577 0.680094 0.388842 0.678829 0.384003 0.654498 0.387678 0.651463 0.389727 0.654668 0.382362 0.684458 0.386577 0.678829 0.384003 0.679426 0.380071 0.66899 0.389349 0.66476 0.381079 0.671963 0.383492 0.66899 0.389349 0.671963 0.383492 0.673242 0.390541 0.66476 0.381079 0.663433 0.377428 0.669635 0.378542 0.66476 0.381079 0.669635 0.378542 0.671963 0.383492 0.66899 0.389349 0.673242 0.390541 0.672934 0.396466 0.672934 0.396466 0.675755 0.398645 0.672566 0.399419 0.66899 0.389349 0.672934 0.396466 0.665543 0.394244 0.66899 0.389349 0.665543 0.394244 0.659592 0.386704 0.672934 0.396466 0.672566 0.399419 0.667468 0.396934 0.672934 0.396466 0.667468 0.396934 0.665543 0.394244 0.659592 0.386704 0.665543 0.394244 0.662154 0.391389 0.66899 0.389349 0.659592 0.386704 0.658717 0.381366 0.66899 0.389349 0.658717 0.381366 0.66476 0.381079 0.659592 0.386704 0.656559 0.382031 0.658717 0.381366 0.66476 0.381079 0.658717 0.381366 0.657329 0.377843 0.66476 0.381079 0.657329 0.377843 0.663433 0.377428 0.691956 0.383392 0.689018 0.384086 0.686233 0.379097 0.691956 0.383392 0.686233 0.379097 0.689489 0.379716 0.666731 0.412946 0.66959 0.41646 0.665781 0.417835 0.666731 0.412946 0.671332 0.414011 0.66959 0.41646 0.665781 0.417835 0.66959 0.41646 0.67082 0.419184 0.665781 0.417835 0.67082 0.419184 0.667154 0.420339 0.675208 0.401557 0.672566 0.399419 0.675755 0.398645 0.675208 0.401557 0.675755 0.398645 0.677882 0.400489 0.666731 0.412946 0.665781 0.417835 0.661349 0.414493 0.661349 0.414493 0.665781 0.417835 0.66198 0.417748 0.665781 0.417835 0.667154 0.420339 0.663551 0.419131 0.665781 0.417835 0.663551 0.419131 0.66198 0.417748 0.666731 0.412946 0.661349 0.414493 0.661169 0.410561 0.666731 0.412946 0.661169 0.410561 0.662737 0.407311 0.662737 0.407311 0.661169 0.410561 0.659749 0.406846 0.666731 0.412946 0.662737 0.407311 0.66747 0.408916 0.662737 0.407311 0.664796 0.405405 0.66747 0.408916 0.666731 0.412946 0.66747 0.408916 0.671332 0.414011 0.692421 0.400795 0.689947 0.398453 0.691925 0.39745 0.644526 0.390705 0.638908 0.396707 0.639646 0.390976 0.644526 0.390705 0.640979 0.400902 0.637757 0.400453 0.644526 0.390705 0.637757 0.400453 0.638908 0.396707 0.648536 0.421333 0.647705 0.425128 0.646188 0.424477 0.644526 0.390705 0.639646 0.390976 0.642069 0.383576 0.644526 0.390705 0.642069 0.383576 0.648399 0.382095 0.648399 0.382095 0.642069 0.383576 0.644478 0.378921 0.648399 0.382095 0.644478 0.378921 0.65042 0.378509 0.654081 0.407859 0.652053 0.403367 0.655951 0.402225 0.644526 0.390705 0.648399 0.382095 0.654668 0.382362 0.644526 0.390705 0.654668 0.382362 0.651463 0.389727 0.648399 0.382095 0.65042 0.378509 0.654668 0.382362 0.644526 0.390705 0.644615 0.399221 0.640979 0.400902 0.644526 0.390705 0.651463 0.389727 0.648511 0.39654 0.644526 0.390705 0.648511 0.39654 0.644615 0.399221 0.68367 0.411309 0.687078 0.40879 0.684796 0.414669 0.677628 0.40901 0.68367 0.411309 0.681169 0.417284 0.677628 0.40901 0.681169 0.417284 0.676835 0.416494 0.68367 0.411309 0.684796 0.414669 0.681169 0.417284 0.677628 0.40901 0.676835 0.416494 0.673189 0.414612 0.677628 0.40901 0.673189 0.414612 0.672946 0.408205 0.677628 0.40901 0.679166 0.402164 0.68246 0.403301 0.677628 0.40901 0.672946 0.408205 0.675936 0.402343 0.677628 0.40901 0.675936 0.402343 0.679166 0.402164 0.682275 0.377102 0.686233 0.379097 0.679426 0.380071 0.677628 0.40901 0.68246 0.403301 0.685542 0.40515 0.677628 0.40901 0.685542 0.40515 0.68367 0.411309 0.682275 0.377102 0.679426 0.380071 0.678866 0.377608 0.68367 0.411309 0.685542 0.40515 0.687078 0.40879 0.654433 0.377102 0.655951 0.379539 0.654668 0.382362 0.654433 0.377102 0.654668 0.382362 0.65042 0.378509 0.639586 0.416203 0.640089 0.408235 0.646729 0.407599 0.646729 0.407599 0.640089 0.408235 0.643062 0.402582 0.646729 0.407599 0.643062 0.402582 0.646538 0.402169 0.639586 0.416203 0.646729 0.407599 0.650517 0.415405 0.646729 0.407599 0.646538 0.402169 0.652053 0.403367 0.650517 0.415405 0.646729 0.407599 0.654081 0.407859 0.646729 0.407599 0.652053 0.403367 0.654081 0.407859 0.639586 0.416203 0.650517 0.415405 0.64327 0.421683 0.650517 0.415405 0.648536 0.421333 0.64327 0.421683 0.64327 0.421683 0.648536 0.421333 0.646188 0.424477 0.64327 0.421683 0.646188 0.424477 0.642651 0.426406 0.639586 0.416203 0.64327 0.421683 0.639677 0.421848 0.64327 0.421683 0.642651 0.426406 0.639169 0.426061 0.64327 0.421683 0.639169 0.426061 0.639677 0.421848 0.639586 0.416203 0.639677 0.421848 0.638165 0.421465</float_array>
                    <technique_common>
                        <accessor count="288" source="#shape0-lib-map-array" stride="2">
                            <param name="U" type="float"/>
                            <param name="V" type="float"/>
                        </accessor>
                    </technique_common>
                </source>
                <vertices id="shape0-lib-vertices">
                    <input semantic="POSITION" source="#shape0-lib-positions"/>
                </vertices>
                <triangles count="96" material="material0">
                    <input offset="0" semantic="VERTEX" source="#shape0-lib-vertices"/>
                    <input offset="1" semantic="COLOR" source="#shape0-lib-vcolor"/>
                    <input offset="2" semantic="NORMAL" source="#shape0-lib-normals"/>
                    <input offset="3" semantic="TEXCOORD" source="#shape0-lib-map"/>
                    <p>7 7 0 0 9 9 0 1 43 43 0 2 7 7 1 3 0 0 1 4 14 14 1 5 7 7 2 6 43 43 2 7 0 0 2 8 7 7 3 9 14 14 3 10 2 2 3 11 7 7 4 12 2 2 4 13 1 1 4 14 1 1 5 15 3 3 5 16 27 27 5 17 1 1 6 18 2 2 6 19 15 15 6 20 1 1 7 21 15 15 7 22 3 3 7 23 7 7 8 24 1 1 8 25 5 5 8 26 7 7 9 27 5 5 9 28 4 4 9 29 1 1 10 30 27 27 10 31 6 6 10 32 1 1 11 33 6 6 11 34 5 5 11 35 7 7 12 36 4 4 12 37 8 8 12 38 4 4 13 39 5 5 13 40 8 8 13 41 7 7 14 42 8 8 14 43 9 9 14 44 10 10 15 45 16 16 15 46 46 46 15 47 10 10 16 48 46 46 16 49 11 11 16 50 16 16 17 51 18 18 17 52 41 41 17 53 16 16 18 54 41 41 18 55 46 46 18 56 10 10 19 57 11 11 19 58 12 12 19 59 12 12 20 60 49 49 20 61 13 13 20 62 10 10 21 63 12 12 21 64 15 15 21 65 10 10 22 66 15 15 22 67 14 14 22 68 12 12 23 69 13 13 23 70 30 30 23 71 12 12 24 72 30 30 24 73 15 15 24 74 14 14 25 75 15 15 25 76 2 2 25 77 10 10 26 78 14 14 26 79 17 17 26 80 10 10 27 81 17 17 27 82 16 16 27 83 14 14 28 84 0 0 28 85 17 17 28 86 16 16 29 87 17 17 29 88 19 19 29 89 16 16 30 90 19 19 30 91 18 18 30 92 17 17 31 93 0 0 31 94 43 43 31 95 17 17 32 96 43 43 32 97 19 19 32 98 29 29 33 99 20 20 33 100 22 22 33 101 29 29 34 102 13 13 34 103 20 20 34 104 22 22 35 105 20 20 35 106 21 21 35 107 22 22 36 108 21 21 36 109 23 23 36 110 20 20 37 111 13 13 37 112 49 49 37 113 20 20 38 114 49 49 38 115 21 21 38 116 29 29 39 117 22 22 39 118 24 24 39 119 24 24 40 120 22 22 40 121 25 25 40 122 22 22 41 123 23 23 41 124 26 26 41 125 22 22 42 126 26 26 42 127 25 25 42 128 29 29 43 129 24 24 43 130 28 28 43 131 29 29 44 132 28 28 44 133 27 27 44 134 27 27 45 135 28 28 45 136 6 6 45 137 29 29 46 138 27 27 46 139 30 30 46 140 27 27 47 141 3 3 47 142 30 30 47 143 29 29 48 144 30 30 48 145 13 13 48 146 30 30 49 147 3 3 49 148 15 15 49 149 37 37 50 150 32 32 50 151 31 31 50 152 37 37 51 153 24 24 51 154 25 25 51 155 37 37 52 156 25 25 52 157 32 32 52 158 32 32 53 159 25 25 53 160 26 26 53 161 37 37 54 162 31 31 54 163 33 33 54 164 37 37 55 165 33 33 55 166 35 35 55 167 35 35 56 168 33 33 56 169 34 34 56 170 35 35 57 171 34 34 57 172 36 36 57 173 33 33 58 174 39 39 58 175 34 34 58 176 37 37 59 177 35 35 59 178 8 8 59 179 37 37 60 180 8 8 60 181 5 5 60 182 35 35 61 183 36 36 61 184 8 8 61 185 37 37 62 186 28 28 62 187 24 24 62 188 37 37 63 189 5 5 63 190 6 6 63 191 37 37 64 192 6 6 64 193 28 28 64 194 44 44 65 195 36 36 65 196 34 34 65 197 40 40 66 198 44 44 66 199 39 39 66 200 40 40 67 201 39 39 67 202 38 38 67 203 44 44 68 204 34 34 68 205 39 39 68 206 40 40 69 207 38 38 69 208 41 41 69 209 40 40 70 210 41 41 70 211 18 18 70 212 40 40 71 213 43 43 71 214 42 42 71 215 40 40 72 216 18 18 72 217 19 19 72 218 40 40 73 219 19 19 73 220 43 43 73 221 42 42 74 222 43 43 74 223 9 9 74 224 40 40 75 225 42 42 75 226 45 45 75 227 40 40 76 228 45 45 76 229 44 44 76 230 42 42 77 231 9 9 77 232 45 45 77 233 44 44 78 234 45 45 78 235 36 36 78 236 45 45 79 237 9 9 79 238 8 8 79 239 45 45 80 240 8 8 80 241 36 36 80 242 11 11 81 243 46 46 81 244 47 47 81 245 47 47 82 246 46 46 82 247 41 41 82 248 47 47 83 249 41 41 83 250 38 38 83 251 11 11 84 252 47 47 84 253 31 31 84 254 47 47 85 255 38 38 85 256 39 39 85 257 31 31 86 258 47 47 86 259 33 33 86 260 47 47 87 261 39 39 87 262 33 33 87 263 11 11 88 264 31 31 88 265 48 48 88 266 31 31 89 267 32 32 89 268 48 48 89 269 48 48 90 270 32 32 90 271 26 26 90 272 48 48 91 273 26 26 91 274 23 23 91 275 11 11 92 276 48 48 92 277 49 49 92 278 48 48 93 279 23 23 93 280 21 21 93 281 48 48 94 282 21 21 94 283 49 49 94 284 11 11 95 285 49 49 95 286 12 12 95 287</p>
                </triangles>
            </mesh>
        </geometry>
    </library_geometries>
    <library_visual_scenes>
        <visual_scene id="VisualSceneNode" name="VisualScene">
            <node id="node" name="node">
                <instance_geometry url="#shape0-lib">
                    <bind_material>
                        <technique_common>
                            <instance_material symbol="material0" target="#material0">
                                <bind_vertex_input semantic="UVSET0" input_semantic="TEXCOORD"/>
                            </instance_material>
                        </technique_common>
                    </bind_material>
                </instance_geometry>
            </node>
        </visual_scene>
    </library_visual_scenes>
    <scene>
        <instance_visual_scene url="#VisualSceneNode"/>
    </scene>
</COLLADA>
