<?xml version="1.0" encoding="UTF-8"?>
<COLLADA xmlns="http://www.collada.org/2005/11/COLLADASchema" version="1.4.1">
    <asset>
        <contributor>
            <author>VCGLab</author>
            <authoring_tool>VCGLib | MeshLab</authoring_tool>
        </contributor>
        <created>Thu Jul 3 02:09:25 2025 GMT</created>
        <modified>Thu Jul 3 02:09:25 2025 GMT</modified>
        <up_axis>Y_UP</up_axis>
    </asset>
    <library_images>
        <image id="texture0" name="texture0">
            <init_from>./image/shelf_items.png</init_from>
        </image>
    </library_images>
    <library_materials>
        <material id="material0" name="material0">
            <instance_effect url="#material0-fx"/>
        </material>
    </library_materials>
    <library_effects>
        <effect id="material0-fx">
            <profile_COMMON>
                <newparam sid="texture0-surface">
                    <surface type="2D">
                        <init_from>texture0</init_from>
                        <format>R8G8B8</format>
                    </surface>
                </newparam>
                <newparam sid="texture0-sampler">
                    <sampler2D>
                        <source>texture0-surface</source>
                        <minfilter>LINEAR</minfilter>
                        <magfilter>LINEAR</magfilter>
                    </sampler2D>
                </newparam>
                <technique sid="common">
                    <blinn>
                        <diffuse>
                            <texture texture="texture0-sampler" texcoord="UVSET0"/>
                        </diffuse>
                    </blinn>
                </technique>
            </profile_COMMON>
        </effect>
    </library_effects>
    <library_geometries>
        <geometry id="shape0-lib" name="shape0">
            <mesh>
                <source id="shape0-lib-positions" name="position">
                    <float_array id="shape0-lib-positions-array" count="57">-0.201426 0.02157 -0.168832 -0.184763 0.3382 -0.153825 0.182763 0.3382 -0.153825 0.182763 0.000799998 -0.153825 -0.203273 0.0410356 0.16835 -0.184763 0.3382 0.153825 0.182763 0.3382 0.153825 0.201628 0.0379823 0.172157 -0.184763 0.312292 -0.153825 0.179945 0.311425 -0.148202 -0.184763 0.312292 0.153825 0.182763 0.312292 0.153825 -0.180391 0.305934 -0.148149 0.182763 0.305063 -0.153825 -0.184763 0.305063 0.153825 0.182763 0.305063 0.153825 -0.176327 0.3094 0.14539 0.174327 0.307955 0.14539 0.203015 0.123404 -0.171235</float_array>
                    <technique_common>
                        <accessor count="19" source="#shape0-lib-positions-array" stride="3">
                            <param name="X" type="float"/>
                            <param name="Y" type="float"/>
                            <param name="Z" type="float"/>
                        </accessor>
                    </technique_common>
                </source>
                <source id="shape0-lib-normals" name="normal">
                    <float_array id="shape0-lib-normals-array" count="102">0 1 0 0 1 0 -0.00806947 -0.998308 0.0575884 -0.058151 -0.991492 0.116457 0.0145909 -0.206983 -0.978236 0 0 -1 -1 0 0 -1 0 0 0.999956 0 -0.0093307 0.994506 -0.104676 0 0 0 1 0 0 1 -0.010161 0.659735 -0.75143 -0.460495 0.887653 -0.00410523 0 0.94596 0.324284 0.00366059 0.887814 0.460188 0.914296 0.405046 0 0.308816 0.950967 0.0171484 0 -0.94596 0.324284 -0.00366059 -0.887814 0.460188 -0.824003 -0.566586 0 -0.310289 -0.950515 0.01552 0.00997922 -0.662097 -0.749351 0.45862 -0.888631 -0.00172709 -0.0291147 0.0921446 -0.99532 -0.0154076 0.0736665 -0.997164 -0.997175 0.0744714 -0.00976095 -0.997505 0.0691471 -0.014241 0.997168 0.0719404 0.0219209 0.993843 0.110795 0 -0.00896759 0.0555562 0.998415 0 0.0684775 0.997653 0.0307611 -0.145503 -0.98888 0.985047 -0.168081 -0.0378356</float_array>
                    <technique_common>
                        <accessor count="34" source="#shape0-lib-normals-array" stride="3">
                            <param name="X" type="float"/>
                            <param name="Y" type="float"/>
                            <param name="Z" type="float"/>
                        </accessor>
                    </technique_common>
                </source>
                <source id="shape0-lib-vcolor" name="vcolor">
                    <float_array id="shape0-lib-vcolor-array" count="76">1 1 1 1 1 1 1 1 1 1 1 1 1 1 1 1 1 1 1 1 1 1 1 1 1 1 1 1 1 1 1 1 1 1 1 1 1 1 1 1 1 1 1 1 1 1 1 1 1 1 1 1 1 1 1 1 1 1 1 1 1 1 1 1 1 1 1 1 1 1 1 1 1 1 1 1</float_array>
                    <technique_common>
                        <accessor count="19" source="#shape0-lib-vcolor-array" stride="4">
                            <param name="R" type="float"/>
                            <param name="G" type="float"/>
                            <param name="B" type="float"/>
                            <param name="A" type="float"/>
                        </accessor>
                    </technique_common>
                </source>
                <source id="shape0-lib-map" name="map">
                    <float_array id="shape0-lib-map-array" count="204">0.68651 0.726911 0.636212 0.726911 0.636212 0.685264 0.68651 0.726911 0.636212 0.685264 0.68651 0.685264 0.710738 0.674626 0.67596 0.674626 0.67596 0.64583 0.710738 0.674626 0.67596 0.64583 0.710738 0.64583 0.67596 0.638766 0.67596 0.633774 0.710738 0.633774 0.67596 0.638766 0.710738 0.633774 0.710738 0.638766 0.679519 0.735684 0.679519 0.728465 0.721165 0.728465 0.679519 0.735684 0.721165 0.728465 0.721165 0.735684 0.679519 0.744347 0.679519 0.737128 0.721165 0.737128 0.679519 0.744347 0.721165 0.737128 0.721165 0.744347 0.621409 0.739916 0.521409 0.739916 0.521409 0.725564 0.621409 0.739916 0.521409 0.725564 0.621409 0.725564 0.67596 0.627785 0.710336 0.630415 0.676758 0.632776 0.734635 0.685931 0.738601 0.726911 0.731383 0.725769 0.621409 0.722694 0.521409 0.722694 0.523704 0.708342 0.621409 0.722694 0.523704 0.708342 0.619114 0.708342 0.72272 0.770223 0.72272 0.728577 0.729939 0.729719 0.72272 0.770223 0.729939 0.729719 0.729939 0.769081 0.621409 0.757138 0.521409 0.757138 0.523704 0.742787 0.621409 0.757138 0.523704 0.742787 0.619114 0.742787 0.731383 0.770223 0.731383 0.728577 0.738601 0.729719 0.731383 0.770223 0.738601 0.729719 0.738601 0.769081 0.67596 0.639764 0.710271 0.643091 0.676758 0.644755 0.681418 0.746791 0.686626 0.787548 0.679408 0.786406 0.641562 0.656658 0.64019 0.63994 0.674416 0.634764 0.641562 0.656658 0.674416 0.634764 0.67326 0.656658 0.690026 0.726911 0.688445 0.693544 0.729398 0.696447 0.690026 0.726911 0.729398 0.696447 0.727983 0.726911 0.638051 0.770223 0.636521 0.73936 0.677821 0.747291 0.638051 0.770223 0.677821 0.747291 0.676008 0.770223 0.525839 0.705251 0.521972 0.642361 0.620889 0.644432 0.525839 0.705251 0.620889 0.644432 0.61698 0.705251 0.674416 0.634764 0.64019 0.63994 0.641562 0.627861 0.676008 0.728577 0.677821 0.747291 0.636521 0.73936</float_array>
                    <technique_common>
                        <accessor count="102" source="#shape0-lib-map-array" stride="2">
                            <param name="U" type="float"/>
                            <param name="V" type="float"/>
                        </accessor>
                    </technique_common>
                </source>
                <vertices id="shape0-lib-vertices">
                    <input semantic="POSITION" source="#shape0-lib-positions"/>
                </vertices>
                <triangles count="34" material="material0">
                    <input offset="0" semantic="VERTEX" source="#shape0-lib-vertices"/>
                    <input offset="1" semantic="COLOR" source="#shape0-lib-vcolor"/>
                    <input offset="2" semantic="NORMAL" source="#shape0-lib-normals"/>
                    <input offset="3" semantic="TEXCOORD" source="#shape0-lib-map"/>
                    <p>5 5 0 0 6 6 0 1 2 2 0 2 5 5 1 3 2 2 1 4 1 1 1 5 7 7 2 6 4 4 2 7 0 0 2 8 7 7 3 9 0 0 3 10 3 3 3 11 2 2 4 12 9 9 4 13 8 8 4 14 2 2 5 15 8 8 5 16 1 1 5 17 1 1 6 18 8 8 6 19 10 10 6 20 1 1 7 21 10 10 7 22 5 5 7 23 6 6 8 24 11 11 8 25 9 9 8 26 6 6 9 27 9 9 9 28 2 2 9 29 6 6 10 30 5 5 10 31 10 10 10 32 6 6 11 33 10 10 11 34 11 11 11 35 13 13 12 36 12 12 12 37 9 9 12 38 12 12 13 39 14 14 13 40 16 16 13 41 14 14 14 42 15 15 14 43 17 17 14 44 14 14 15 45 17 17 15 46 16 16 15 47 15 15 16 48 13 13 16 49 9 9 16 50 15 15 17 51 9 9 17 52 17 17 17 53 11 11 18 54 10 10 18 55 16 16 18 56 11 11 19 57 16 16 19 58 17 17 19 59 10 10 20 60 8 8 20 61 12 12 20 62 10 10 21 63 12 12 21 64 16 16 21 65 8 8 22 66 9 9 22 67 12 12 22 68 9 9 23 69 11 11 23 70 17 17 23 71 13 13 24 72 18 18 24 73 0 0 24 74 13 13 25 75 0 0 25 76 12 12 25 77 12 12 26 78 0 0 26 79 4 4 26 80 12 12 27 81 4 4 27 82 14 14 27 83 15 15 28 84 7 7 28 85 18 18 28 86 15 15 29 87 18 18 29 88 13 13 29 89 14 14 30 90 4 4 30 91 7 7 30 92 14 14 31 93 7 7 31 94 15 15 31 95 0 0 32 96 18 18 32 97 3 3 32 98 3 3 33 99 18 18 33 100 7 7 33 101</p>
                </triangles>
            </mesh>
        </geometry>
    </library_geometries>
    <library_visual_scenes>
        <visual_scene id="VisualSceneNode" name="VisualScene">
            <node id="node" name="node">
                <instance_geometry url="#shape0-lib">
                    <bind_material>
                        <technique_common>
                            <instance_material symbol="material0" target="#material0">
                                <bind_vertex_input semantic="UVSET0" input_semantic="TEXCOORD"/>
                            </instance_material>
                        </technique_common>
                    </bind_material>
                </instance_geometry>
            </node>
        </visual_scene>
    </library_visual_scenes>
    <scene>
        <instance_visual_scene url="#VisualSceneNode"/>
    </scene>
</COLLADA>
