<?xml version="1.0" encoding="UTF-8"?>
<COLLADA xmlns="http://www.collada.org/2005/11/COLLADASchema" version="1.4.1">
    <asset>
        <contributor>
            <author>VCGLab</author>
            <authoring_tool>VCGLib | MeshLab</authoring_tool>
        </contributor>
        <created>Thu Jul 3 02:03:59 2025 GMT</created>
        <modified>Thu Jul 3 02:03:59 2025 GMT</modified>
        <up_axis>Y_UP</up_axis>
    </asset>
    <library_images>
        <image id="texture0" name="texture0">
            <init_from>./image/shelf_items.png</init_from>
        </image>
    </library_images>
    <library_materials>
        <material id="material0" name="material0">
            <instance_effect url="#material0-fx"/>
        </material>
    </library_materials>
    <library_effects>
        <effect id="material0-fx">
            <profile_COMMON>
                <newparam sid="texture0-surface">
                    <surface type="2D">
                        <init_from>texture0</init_from>
                        <format>R8G8B8</format>
                    </surface>
                </newparam>
                <newparam sid="texture0-sampler">
                    <sampler2D>
                        <source>texture0-surface</source>
                        <minfilter>LINEAR</minfilter>
                        <magfilter>LINEAR</magfilter>
                    </sampler2D>
                </newparam>
                <technique sid="common">
                    <blinn>
                        <diffuse>
                            <texture texture="texture0-sampler" texcoord="UVSET0"/>
                        </diffuse>
                    </blinn>
                </technique>
            </profile_COMMON>
        </effect>
    </library_effects>
    <library_geometries>
        <geometry id="shape0-lib" name="shape0">
            <mesh>
                <source id="shape0-lib-positions" name="position">
                    <float_array id="shape0-lib-positions-array" count="81">-0.102698 0.00460734 -0.102167 -0.129035 0.00545074 0.0697631 0.102698 0.00460734 0.102167 0.129035 0.00545074 -0.0697631 -0.0911958 0.271 -0.11405 -0.1425 0.265845 0.0362479 -0.0714999 0.265937 0.127831 0.0362478 0.265845 0.1425 0.144848 0.266743 0.00113729 0.002972 0.264394 -0.143276 -0.026283 0.267801 -0.14307 -0.0554198 0.0045546 -0.135109 -0.0707724 0.264409 -0.124417 -0.113517 0.264819 -0.0909942 -0.134767 0.00455471 -0.0562492 -0.136689 0.26782 -0.0503633 -0.145056 0.00232127 0.000440329 -0.0415337 0.0052638 0.140917 0.0481454 0.00370301 0.137399 0.0742121 0.0066059 0.122596 0.140917 0.00526381 0.0415337 0.112355 0.265861 0.0924218 0.136689 0.26782 0.0503633 0.0379283 0.00525207 -0.142927 0.0924218 0.265861 -0.112355 0.0503631 0.26782 -0.136689 0.135734 0.26871 -0.0544653</float_array>
                    <technique_common>
                        <accessor count="27" source="#shape0-lib-positions-array" stride="3">
                            <param name="X" type="float"/>
                            <param name="Y" type="float"/>
                            <param name="Z" type="float"/>
                        </accessor>
                    </technique_common>
                </source>
                <source id="shape0-lib-normals" name="normal">
                    <float_array id="shape0-lib-normals-array" count="150">-0.3918 0.198887 -0.898296 -0.510994 -0.566414 -0.646576 -0.599326 0.697221 -0.393307 0.0655543 0.610582 -0.789236 0.453901 -0.565904 0.688278 -0.0833564 -0.0125866 -0.99644 -0.0104286 -0.0290721 -0.999523 -0.387598 0.0150273 -0.921706 -0.571692 -1.5008e-05 -0.820468 -0.6159 0.00821678 -0.787782 -0.819803 -0.0095015 -0.572567 -0.868499 0.00474048 -0.495668 -0.983899 -0.00318876 -0.178695 -0.997611 0.0187128 -0.0664964 -0.97389 -0.021265 0.226024 -0.789769 0.0379634 0.612228 -0.630593 -0.0335667 0.775387 -0.134785 0.0342177 0.990284 0.038883 -0.0176744 0.999087 0.493362 0.0054681 0.869807 0.583699 0.0231635 0.81164 0.549638 0.0108416 0.835333 0.845966 -0.0113847 0.533116 0.865617 -0.00290033 0.500698 0.986524 0.0103933 0.163287 0.993856 -0.0313431 -0.106151 0.98662 -0.0156747 -0.162281 0.80027 0.0144715 -0.599465 0.625712 -0.0394446 -0.779056 0.500688 -0.00314687 -0.865622 0.136439 0.0170702 -0.990501 0.00644847 -0.999905 -0.0122103 0.00918321 -0.99992 -0.00872018 0.0106944 -0.999939 -0.00282118 0.0108608 -0.999933 -0.00398022 0.0120827 -0.999903 -0.00695673 -0.0161059 -0.999332 0.0328018 -0.0477053 -0.997288 0.0560457 -0.0736961 -0.995892 -0.0526113 -0.0233409 -0.999219 -0.031898 0.00071514 0.999933 -0.011565 0.0245462 0.998178 -0.0551229 -0.00253938 0.998841 0.0480594 -0.00292557 0.99974 0.0226067 -0.00848248 0.999949 0.00556925 -0.00105228 0.999901 0.0140152 0.0140051 0.999668 0.0216172 -0.064665 0.997866 0.00906075 0.171162 0.985219 0.00680453 0.129796 0.980825 -0.145379</float_array>
                    <technique_common>
                        <accessor count="50" source="#shape0-lib-normals-array" stride="3">
                            <param name="X" type="float"/>
                            <param name="Y" type="float"/>
                            <param name="Z" type="float"/>
                        </accessor>
                    </technique_common>
                </source>
                <source id="shape0-lib-vcolor" name="vcolor">
                    <float_array id="shape0-lib-vcolor-array" count="108">1 1 1 1 1 1 1 1 1 1 1 1 1 1 1 1 1 1 1 1 1 1 1 1 1 1 1 1 1 1 1 1 1 1 1 1 1 1 1 1 1 1 1 1 1 1 1 1 1 1 1 1 1 1 1 1 1 1 1 1 1 1 1 1 1 1 1 1 1 1 1 1 1 1 1 1 1 1 1 1 1 1 1 1 1 1 1 1 1 1 1 1 1 1 1 1 1 1 1 1 1 1 1 1 1 1 1 1</float_array>
                    <technique_common>
                        <accessor count="27" source="#shape0-lib-vcolor-array" stride="4">
                            <param name="R" type="float"/>
                            <param name="G" type="float"/>
                            <param name="B" type="float"/>
                            <param name="A" type="float"/>
                        </accessor>
                    </technique_common>
                </source>
                <source id="shape0-lib-map" name="map">
                    <float_array id="shape0-lib-map-array" count="300">0.407475 0.641226 0.414246 0.636453 0.416992 0.645465 0.416992 0.645465 0.414246 0.636453 0.4187 0.636453 0.388286 0.634651 0.390383 0.62561 0.396294 0.630419 0.396294 0.641232 0.403493 0.636453 0.407475 0.641226 0.386268 0.642234 0.381805 0.645465 0.378109 0.640675 0.30617 0.612895 0.300898 0.57159 0.314163 0.57153 0.30617 0.612895 0.314163 0.57153 0.311736 0.612895 0.311736 0.612895 0.314163 0.57153 0.316923 0.612895 0.316923 0.612895 0.314163 0.57153 0.321377 0.5717 0.316923 0.612895 0.321377 0.5717 0.321377 0.612895 0.390667 0.612945 0.388286 0.5717 0.395043 0.57153 0.390667 0.612945 0.395043 0.57153 0.397927 0.612895 0.397927 0.612895 0.395043 0.57153 0.403493 0.5717 0.397927 0.612895 0.403493 0.5717 0.40894 0.613001 0.40894 0.613001 0.403493 0.5717 0.414155 0.57161 0.40894 0.613001 0.414155 0.57161 0.4187 0.612895 0.263669 0.61301 0.258522 0.5717 0.267948 0.571585 0.263669 0.61301 0.267948 0.571585 0.279176 0.613001 0.279176 0.613001 0.267948 0.571585 0.279295 0.5717 0.279176 0.613001 0.279295 0.5717 0.284482 0.5717 0.279176 0.613001 0.284482 0.5717 0.288936 0.5717 0.279176 0.613001 0.288936 0.5717 0.288936 0.612895 0.357931 0.61301 0.355845 0.5717 0.365271 0.571585 0.357931 0.61301 0.365271 0.571585 0.365486 0.612895 0.365486 0.612895 0.365271 0.571585 0.371052 0.612895 0.371052 0.612895 0.365271 0.571585 0.381714 0.57161 0.371052 0.612895 0.381714 0.57161 0.379075 0.612945 0.379075 0.612945 0.381714 0.57161 0.386259 0.612895 0.293049 0.61301 0.290963 0.5717 0.300898 0.57159 0.293049 0.61301 0.300898 0.57159 0.300604 0.612895 0.300604 0.612895 0.300898 0.57159 0.30617 0.612895 0.437216 0.519402 0.452642 0.518374 0.42196 0.543343 0.452642 0.518374 0.469376 0.531087 0.42196 0.543343 0.469376 0.531087 0.471833 0.549849 0.42196 0.543343 0.471833 0.549849 0.465128 0.562017 0.42196 0.543343 0.465128 0.562017 0.456279 0.567871 0.42196 0.543343 0.456279 0.567871 0.440534 0.568722 0.42196 0.543343 0.440534 0.568722 0.424119 0.556186 0.42196 0.543343 0.422866 0.533252 0.428367 0.525256 0.42196 0.543343 0.428367 0.525256 0.437216 0.519402 0.42196 0.543343 0.328848 0.519478 0.342401 0.517895 0.315544 0.533551 0.342401 0.517895 0.354735 0.523191 0.315544 0.533551 0.354735 0.523191 0.36277 0.533873 0.315544 0.533551 0.36277 0.533873 0.363676 0.550225 0.315544 0.533551 0.363676 0.550225 0.351353 0.566146 0.315544 0.533551 0.351353 0.566146 0.332022 0.568701 0.315544 0.533551 0.332022 0.568701 0.32023 0.562017 0.315544 0.533551 0.32023 0.562017 0.314452 0.553399 0.315544 0.533551 0.314452 0.553399 0.312617 0.543636 0.315544 0.533551 0.32023 0.525256 0.328848 0.519478 0.315544 0.533551</float_array>
                    <technique_common>
                        <accessor count="150" source="#shape0-lib-map-array" stride="2">
                            <param name="U" type="float"/>
                            <param name="V" type="float"/>
                        </accessor>
                    </technique_common>
                </source>
                <vertices id="shape0-lib-vertices">
                    <input semantic="POSITION" source="#shape0-lib-positions"/>
                </vertices>
                <triangles count="50" material="material0">
                    <input offset="0" semantic="VERTEX" source="#shape0-lib-vertices"/>
                    <input offset="1" semantic="COLOR" source="#shape0-lib-vcolor"/>
                    <input offset="2" semantic="NORMAL" source="#shape0-lib-normals"/>
                    <input offset="3" semantic="TEXCOORD" source="#shape0-lib-map"/>
                    <p>10 10 0 0 12 12 0 1 4 4 0 2 4 4 1 3 12 12 1 4 13 13 1 5 4 4 2 6 13 13 2 7 15 15 2 8 25 25 3 9 9 9 3 10 10 10 3 11 2 2 4 12 19 19 4 13 18 18 4 14 9 9 5 15 23 23 5 16 11 11 5 17 9 9 6 18 11 11 6 19 10 10 6 20 10 10 7 21 11 11 7 22 12 12 7 23 12 12 8 24 11 11 8 25 0 0 8 26 12 12 9 27 0 0 9 28 13 13 9 29 13 13 10 30 0 0 10 31 14 14 10 32 13 13 11 33 14 14 11 34 15 15 11 35 15 15 12 36 14 14 12 37 16 16 12 38 15 15 13 39 16 16 13 40 5 5 13 41 5 5 14 42 16 16 14 43 1 1 14 44 5 5 15 45 1 1 15 46 6 6 15 47 6 6 16 48 1 1 16 49 17 17 16 50 6 6 17 51 17 17 17 52 7 7 17 53 7 7 18 54 17 17 18 55 18 18 18 56 7 7 19 57 18 18 19 58 19 19 19 59 7 7 20 60 19 19 20 61 2 2 20 62 7 7 21 63 2 2 21 64 21 21 21 65 21 21 22 66 2 2 22 67 20 20 22 68 21 21 23 69 20 20 23 70 22 22 23 71 22 22 24 72 20 20 24 73 8 8 24 74 8 8 25 75 20 20 25 76 3 3 25 77 8 8 26 78 3 3 26 79 26 26 26 80 26 26 27 81 3 3 27 82 24 24 27 83 24 24 28 84 3 3 28 85 23 23 28 86 24 24 29 87 23 23 29 88 25 25 29 89 25 25 30 90 23 23 30 91 9 9 30 92 11 11 31 93 23 23 31 94 16 16 31 95 23 23 32 96 3 3 32 97 16 16 32 98 3 3 33 99 20 20 33 100 16 16 33 101 20 20 34 102 2 2 34 103 16 16 34 104 2 2 35 105 18 18 35 106 16 16 35 107 18 18 36 108 17 17 36 109 16 16 36 110 17 17 37 111 1 1 37 112 16 16 37 113 14 14 38 114 0 0 38 115 16 16 38 116 0 0 39 117 11 11 39 118 16 16 39 119 25 25 40 120 10 10 40 121 26 26 40 122 10 10 41 123 4 4 41 124 26 26 41 125 4 4 42 126 15 15 42 127 26 26 42 128 15 15 43 129 5 5 43 130 26 26 43 131 5 5 44 132 6 6 44 133 26 26 44 134 6 6 45 135 7 7 45 136 26 26 45 137 7 7 46 138 21 21 46 139 26 26 46 140 21 21 47 141 22 22 47 142 26 26 47 143 22 22 48 144 8 8 48 145 26 26 48 146 24 24 49 147 25 25 49 148 26 26 49 149</p>
                </triangles>
            </mesh>
        </geometry>
    </library_geometries>
    <library_visual_scenes>
        <visual_scene id="VisualSceneNode" name="VisualScene">
            <node id="node" name="node">
                <instance_geometry url="#shape0-lib">
                    <bind_material>
                        <technique_common>
                            <instance_material symbol="material0" target="#material0">
                                <bind_vertex_input semantic="UVSET0" input_semantic="TEXCOORD"/>
                            </instance_material>
                        </technique_common>
                    </bind_material>
                </instance_geometry>
            </node>
        </visual_scene>
    </library_visual_scenes>
    <scene>
        <instance_visual_scene url="#VisualSceneNode"/>
    </scene>
</COLLADA>
