<?xml version="1.0" encoding="UTF-8"?>
<COLLADA xmlns="http://www.collada.org/2005/11/COLLADASchema" version="1.4.1">
    <asset>
        <contributor>
            <author>VCGLab</author>
            <authoring_tool>VCGLib | MeshLab</authoring_tool>
        </contributor>
        <created>Thu Jul 3 02:04:42 2025 GMT</created>
        <modified>Thu Jul 3 02:04:42 2025 GMT</modified>
        <up_axis>Y_UP</up_axis>
    </asset>
    <library_images>
        <image id="texture0" name="texture0">
            <init_from>./image/shelf_items.png</init_from>
        </image>
    </library_images>
    <library_materials>
        <material id="material0" name="material0">
            <instance_effect url="#material0-fx"/>
        </material>
    </library_materials>
    <library_effects>
        <effect id="material0-fx">
            <profile_COMMON>
                <newparam sid="texture0-surface">
                    <surface type="2D">
                        <init_from>texture0</init_from>
                        <format>R8G8B8</format>
                    </surface>
                </newparam>
                <newparam sid="texture0-sampler">
                    <sampler2D>
                        <source>texture0-surface</source>
                        <minfilter>LINEAR</minfilter>
                        <magfilter>LINEAR</magfilter>
                    </sampler2D>
                </newparam>
                <technique sid="common">
                    <blinn>
                        <diffuse>
                            <texture texture="texture0-sampler" texcoord="UVSET0"/>
                        </diffuse>
                    </blinn>
                </technique>
            </profile_COMMON>
        </effect>
    </library_effects>
    <library_geometries>
        <geometry id="shape0-lib" name="shape0">
            <mesh>
                <source id="shape0-lib-positions" name="position">
                    <float_array id="shape0-lib-positions-array" count="531">-7.62939e-09 0.00020039 -0.000162189 -7.62939e-09 0.1034 -0.000162189 0.11477 0.000164785 -0.0253318 0.114448 0.10341 -0.0203143 0.125905 0.0690609 -0.0578901 0.125241 0.0252811 -0.0496961 0.0982702 0.0518004 -0.0984323 0.0946639 0.0776005 -0.0948261 0.0928019 0.103414 -0.071375 0.0946639 0.0260001 -0.0948261 0.0580125 0.1034 -0.100643 0.0757423 0.000188939 -0.0888283 0.0531171 0.0657754 -0.12924 0.0535124 0.0252774 -0.123754 -0.00295084 0.0659359 -0.138604 0.0152699 0.103414 -0.116138 -7.62939e-09 0.0260001 -0.134037 0.0212636 0.00018894 -0.11482 -0.0536442 0.0657641 -0.129023 -0.0447645 0.103414 -0.108235 -0.0495335 0.025281 -0.125403 -0.0389156 0.000188936 -0.11009 -0.0982702 0.0518004 -0.0984323 -0.0946639 0.0776005 -0.0948261 -0.0820421 0.1034 -0.0822042 -0.0946639 0.0260001 -0.0948261 -0.0820421 0.00020039 -0.0822042 -0.129078 0.0657753 -0.0532796 -0.108073 0.103414 -0.0449273 -0.123592 0.0252774 -0.0536748 -0.105249 0.000188936 -0.0503749 -0.138442 0.0659359 0.00278861 -0.115976 0.103414 0.0151081 -0.116254 0.000188945 0.00897708 -0.128861 0.065764 0.053482 -0.133868 0.0243879 0.0242853 -0.0982702 0.0518004 0.0981079 -0.0946639 0.0776005 0.0945017 -0.0928045 0.103414 0.0710483 -0.0946639 0.0260001 0.0945017 -0.0961107 0.000188939 0.0658782 -0.0531188 0.0657771 0.128914 -0.0447651 0.103414 0.10791 -0.0502136 0.000188943 0.105085 0.00294896 0.0659365 0.13828 -0.0359741 0.0259898 0.131441 0.0152662 0.103414 0.115814 0.00913631 0.000188938 0.116092 0.0536464 0.0657658 0.128697 0.049534 0.025281 0.125079 0.0982702 0.0518004 0.098108 0.0946639 0.0776005 0.0945017 0.0712118 0.103414 0.0926408 0.0660418 0.00018894 0.0959471 0.105717 0.0244504 0.0822321 0.12814 0.0628227 0.056148 0.139589 0.0645424 0.000890835 0.108074 0.103414 0.0445997 0.134526 0.0268809 0.0176624 0.10525 0.000188943 0.0500483 0.0245784 0.0552584 -0.0142843 0.0482206 0.0598041 -0.0335061 0.0383339 0.0774817 -0.0254679 0.0751593 0.116999 -0.0554077 0.040404 0.101928 -0.0271509 0.0430778 0.118995 -0.0293247 0.0542139 0.148692 -0.0383787 0.0301271 0.134963 -0.0187955 0.0370886 0.178129 -0.0244555 0.0342083 0.179443 -0.0221137 0.0161085 0.128328 -0.00739815 0.00808077 0.138525 -0.000871394 0.0102253 0.155656 -0.00261493 0.0100967 0.194911 -0.0025104 0.00569522 0.161804 0.00106808 -0.00450546 0.131429 0.00936152 -0.0249714 0.185807 0.0260008 -0.0140467 0.130512 0.0171187 -0.0215621 0.120842 0.0232289 -0.036675 0.153658 0.0355161 -0.041102 0.178241 0.0391153 -0.0480962 0.172653 0.0448017 -0.0351097 0.143776 0.0342435 -0.0619163 0.159269 0.0560379 -0.0518074 0.136127 0.047819 -0.0449221 0.129827 0.0422211 -0.0411876 0.111672 0.039185 -0.068052 0.1131 0.0610263 -0.0361112 0.0987448 0.0350577 -0.0477433 0.0516423 0.0445148 0.0270524 0.0552584 0.0212375 0.0531291 0.0598041 0.0369686 0.0422243 0.0774817 0.0303901 0.0828143 0.11698 0.0548765 0.0445075 0.101928 0.0317675 0.0474566 0.118995 0.0335466 0.0597538 0.148716 0.0409651 0.0331724 0.134963 0.0249295 0.0408444 0.17812 0.0295577 0.0376448 0.179434 0.0276275 0.0177104 0.128328 0.0156018 0.00885605 0.138525 0.0102603 0.0112282 0.155607 0.0116913 0.0110645 0.194893 0.0115925 0.00622486 0.161804 0.00867299 -0.00502617 0.131429 0.00188562 -0.0275605 0.185738 -0.0117085 -0.0155498 0.130512 -0.0044629 -0.0238391 0.120842 -0.00946356 -0.040441 0.153521 -0.0194789 -0.0478996 0.175248 -0.0239784 -0.0388256 0.143855 -0.0185043 -0.0683259 0.159264 -0.0363009 -0.0571986 0.136127 -0.0295881 -0.0498607 0.129799 -0.0251615 -0.0454854 0.111672 -0.022522 -0.0749467 0.113056 -0.0402949 -0.0398862 0.0987448 -0.0191442 -0.0525763 0.0516918 -0.0267996 0.0314578 0.0552584 0.0044377 0.0618693 0.0598041 0.0036382 0.0491518 0.0774817 0.00397252 0.0964887 0.116979 0.00272801 0.0518145 0.101928 0.00390253 0.0552539 0.118995 0.00381212 0.0695891 0.148709 0.00343523 0.0385952 0.134963 0.00425009 0.0475431 0.178121 0.00401483 0.0438116 0.179434 0.00411293 0.0205628 0.128328 0.00472415 0.0102366 0.138525 0.00499563 0.0130034 0.15562 0.00492292 0.0128119 0.194895 0.00492793 0.00716805 0.161804 0.00507632 -0.00595332 0.131429 0.0054213 -0.0322345 0.185742 0.00611223 -0.0182263 0.130512 0.00574394 -0.0278936 0.120842 0.00599809 -0.0472543 0.153518 0.0065071 -0.0559556 0.175249 0.00673587 -0.045369 0.143849 0.00645754 -0.0797767 0.159264 0.00736214 -0.0667985 0.136127 0.00702095 -0.0582541 0.129797 0.0067963 -0.0531383 0.111672 0.00666182 -0.0874968 0.113056 0.00756512 -0.0466083 0.0987448 0.00649012 -0.0614041 0.0516894 0.00687913 0.00591993 0.0552584 -0.025319 0.0112026 0.0598041 -0.0553985 0.0089935 0.0774817 -0.0428198 0.0172166 0.116983 -0.0896419 0.00945609 0.101928 -0.0454536 0.0100535 0.118995 -0.0488553 0.0125475 0.148737 -0.0630561 0.00715982 0.134963 -0.0323785 0.00871369 0.178118 -0.0412264 0.00806546 0.179431 -0.0375355 0.00402742 0.128328 -0.0145429 0.00223368 0.138525 -0.00432936 0.00271407 0.155571 -0.0070647 0.00268111 0.194888 -0.00687731 0.00170063 0.161804 -0.00129432 -0.00057859 0.131429 0.0116839 -0.00514336 0.185729 0.0376749 -0.00271059 0.130512 0.0238229 -0.00438983 0.120842 0.0333847 -0.00775366 0.153527 0.0525379 -0.00926337 0.175244 0.0611343 -0.00742693 0.143873 0.0506777 -0.0134017 0.159266 0.0846977 -0.0111479 0.136127 0.071865 -0.00965535 0.129801 0.0633664 -0.008775 0.111672 0.0583538 -0.0147435 0.113055 0.0923379 -0.00764073 0.0987448 0.0518951 -0.0102132 0.0516979 0.0665431</float_array>
                    <technique_common>
                        <accessor count="177" source="#shape0-lib-positions-array" stride="3">
                            <param name="X" type="float"/>
                            <param name="Y" type="float"/>
                            <param name="Z" type="float"/>
                        </accessor>
                    </technique_common>
                </source>
                <source id="shape0-lib-normals" name="normal">
                    <float_array id="shape0-lib-normals-array" count="675">0.866814 0.470318 -0.165635 0.973448 -0.188613 -0.129708 0.87527 -0.471084 -0.109466 -7.39523e-05 1 9.61366e-05 0.742221 0.591721 -0.314604 0.971333 -0.0578844 -0.230569 0.770725 0.192623 -0.607355 0.71574 0.497183 -0.490433 0.846973 -0.1879 -0.497323 0.821327 -0.116956 -0.55834 -0.000346892 -1 -0.000167186 0.662633 -0.592279 -0.458392 0.644764 -0.653475 -0.396549 0.59299 0.192182 -0.781939 -0.000265231 1 -0.000153131 0.576178 0.445734 -0.685084 0.375381 0.637944 -0.672396 0.537264 -0.108065 -0.836462 0.566718 -0.191231 -0.801412 0.495833 -0.524344 -0.692253 0.00026508 1 0.000153044 0.283281 0.556691 -0.780927 -4.37796e-05 -1 9.17452e-05 0.324077 -0.658457 -0.67927 0.147995 0.454561 -0.878335 0.163625 -0.100142 -0.981427 0.185411 -0.130131 -0.974007 0.156463 -0.503664 -0.849613 1.59528e-05 1 0.000120242 -0.112987 0.500543 -0.858307 -0.155406 0.562387 -0.812139 -0.184324 -0.106073 -0.977125 -0.16863 -0.124279 -0.977813 8.02483e-06 -1 0.000101352 -0.134742 -0.5571 -0.819441 -0.0609798 -0.62791 -0.775894 -0.595066 0.19225 -0.780344 -0.000216544 1 0.000216544 -0.473305 0.563007 -0.6775 -0.459245 0.509918 -0.727377 -0.514346 -0.18882 -0.836537 -0.557575 -0.129917 -0.819898 -0.000161292 -1 0.000161292 -0.469833 -0.562635 -0.68022 -0.436117 -0.596007 -0.674223 -0.781936 0.192183 -0.592994 0.000216664 1 -0.000216664 -0.707727 0.504672 -0.494397 -0.710259 0.557652 -0.429601 -0.83646 -0.108066 -0.537268 -0.80141 -0.191232 -0.566721 0.000208127 -1 -0.000208127 -0.674784 -0.557031 -0.484132 -0.666983 -0.564313 -0.486502 0.000120357 1 1.58437e-05 -0.83612 0.537391 -0.110066 -0.850303 0.506364 -0.143463 -0.968456 -0.19002 -0.161202 -0.982576 -0.131823 -0.131021 9.99203e-05 -1 1.86804e-05 -0.8366 -0.535309 -0.116383 -0.78929 -0.596322 -0.146356 -0.868914 0.466364 0.165811 -0.982539 -0.0121032 0.185665 0.00011217 1 -4.63297e-05 -0.754658 0.576868 0.312592 9.57785e-05 -1 -3.40045e-05 -0.701642 -0.667833 0.24839 -0.780342 0.19225 0.595068 -0.735878 0.483609 0.473926 -0.836535 -0.188821 0.514349 -0.846403 -0.234839 0.477967 -0.776007 -0.4484 0.443566 -0.592998 0.192183 0.781933 7.386e-05 1 -9.62574e-05 -0.527077 0.500346 0.686909 -0.37539 0.637954 0.672381 -0.518835 -0.170372 0.837725 -0.52307 -0.189266 0.831009 6.60693e-05 -1 -7.72412e-05 -0.462748 -0.495498 0.735083 -0.505512 -0.62791 0.591766 1.58387e-05 1 -0.000120291 -0.110092 0.537391 0.836116 -0.14347 0.506383 0.85029 -0.164726 -0.00834739 0.986304 1.84616e-05 -1 -9.99548e-05 -0.135285 -0.670496 0.729475 0.16581 0.466372 0.86891 0.184338 -0.106051 0.977125 0.0701996 -0.234394 0.969604 0.0636295 -0.425714 0.902618 -4.65569e-05 1 -0.000112077 0.312581 0.576896 0.754642 -3.39038e-05 -1 -9.58395e-05 0.25116 -0.658459 0.709472 0.595076 0.192253 0.780335 0.47393 0.483629 0.735862 0.451394 -0.352853 0.819597 0.599916 -0.131469 0.789187 0.530989 -0.46959 0.705362 0.774841 0.192473 0.602142 -9.64119e-05 1 -7.38214e-05 0.690621 0.492176 0.529911 0.681659 0.644303 0.346719 0.822829 -0.100632 0.559308 -7.72495e-05 -1 -6.60543e-05 0.571871 -0.659035 0.488504 0.856842 0.478329 0.192413 0.886414 -0.255683 0.385872 0.811427 -0.472304 0.344261 -0.000101651 1 -6.11715e-05 0.816451 0.571827 0.0801395 0.978604 -0.0418321 0.201453 -0.00024678 -1 0.00028931 0.72439 -0.683263 0.09171 0.630838 1.53852e-06 0.775915 0.630833 2.25268e-06 0.775918 0.630834 -1.44918e-06 0.775918 0.630832 6.21824e-07 0.77592 0.630831 1.47686e-07 0.77592 0.630837 1.16582e-06 0.775915 0.630838 -7.92112e-07 0.775915 0.630838 2.52959e-06 0.775914 0.630835 -2.40564e-06 0.775917 0.630835 -2.14076e-06 0.775917 0.630838 3.66039e-06 0.775914 0.630837 -1.28646e-06 0.775915 0.630837 -1.16911e-06 0.775916 0.630834 -4.56529e-06 0.775918 0.630831 -8.99536e-06 0.77592 0.630835 1.09077e-06 0.775917 0.630834 -1.69768e-08 0.775918 0.630842 2.1606e-06 0.775911 0.630837 -4.29564e-07 0.775916 0.63084 3.14227e-06 0.775913 0.630837 1.14184e-06 0.775915 0.630836 -4.84808e-06 0.775916 0.630835 -4.18786e-06 0.775917 0.630835 -2.43196e-06 0.775917 0.630836 -3.70914e-06 0.775916 0.630838 5.8544e-06 0.775914 0.63084 -1.87085e-06 0.775913 0.630831 8.00802e-06 0.77592 -0.516549 1.50326e-06 0.856258 -0.516551 1.85597e-06 0.856256 -0.516549 2.84049e-07 0.856258 -0.516547 1.0474e-06 0.856259 -0.516547 6.60838e-07 0.856259 -0.516551 3.64508e-08 0.856256 -0.51655 -2.0118e-06 0.856257 -0.516548 -1.24419e-06 0.856258 -0.51655 -2.84452e-06 0.856257 -0.516549 -7.91563e-07 0.856257 -0.51655 -2.0239e-06 0.856257 -0.516548 -1.03594e-06 0.856258 -0.51655 -8.57796e-07 0.856257 -0.516549 8.15657e-08 0.856258 -0.516546 4.05006e-06 0.856259 -0.51654 3.979e-06 0.856263 -0.516545 2.77014e-06 0.85626 -0.516549 1.13106e-06 0.856257 -0.516549 7.85978e-07 0.856258 -0.51655 -1.40848e-07 0.856257 -0.516548 9.35085e-07 0.856258 -0.51655 3.46186e-06 0.856257 -0.516547 -5.22229e-06 0.856259 -0.51655 -2.01136e-06 0.856257 -0.51655 3.81733e-07 0.856257 -0.51655 1.50499e-07 0.856257 -0.516562 1.20173e-05 0.85625 0.0262794 6.90927e-07 0.999655 0.02628 6.12587e-07 0.999655 0.0262796 -5.80514e-07 0.999655 0.0262797 4.74284e-07 0.999655 0.026278 -1.13679e-06 0.999655 0.0262834 -4.32172e-07 0.999655 0.0262826 1.30448e-06 0.999655 0.0262818 6.78214e-08 0.999655 0.0262807 -1.06782e-06 0.999655 0.0262808 -6.6713e-07 0.999655 0.0262827 1.56778e-06 0.999655 0.026282 -6.19204e-07 0.999655 0.0262816 -5.75723e-07 0.999655 0.0262797 -2.42916e-06 0.999655 0.0262849 4.1951e-06 0.999655 0.0262863 1.56782e-06 0.999654 0.0262839 1.10978e-06 0.999655 0.0262819 3.03282e-07 0.999655 0.0262804 -9.08304e-07 0.999655 0.0262817 -1.09665e-07 0.999655 0.0262814 -1.8053e-06 0.999655 0.0262817 8.29065e-07 0.999655 0.0262824 -1.14539e-06 0.999655 0.0262817 -5.38466e-07 0.999655 0.0262823 1.33048e-06 0.999655 0.0262831 -9.21013e-07 0.999655 0.0262725 8.04777e-06 0.999655 0.984926 1.39292e-06 0.172979 0.984926 1.42589e-06 0.172979 0.984925 -1.63159e-06 0.172984 0.984926 1.04182e-06 0.172979 0.984926 6.86906e-07 0.172979 0.984926 1.29946e-06 0.172975 0.984926 1.67179e-06 0.172975 0.984926 -1.59959e-06 0.172976 0.984926 -3.54566e-06 0.172978 0.984926 5.57183e-07 0.172976 0.984926 2.64291e-06 0.172975 0.984926 -1.30332e-06 0.172976 0.984926 -1.2442e-06 0.172977 0.984925 -8.78441e-06 0.172984 0.984925 -3.47774e-06 0.17298 0.98493 8.43322e-06 0.172954 0.984927 4.81413e-06 0.172972 0.984926 6.44512e-07 0.172976 0.984926 5.07148e-07 0.172976 0.984926 3.27723e-07 0.172977 0.984926 -3.29686e-06 0.172978 0.984926 3.1295e-06 0.172977 0.984926 4.48228e-07 0.172976 0.984926 1.28456e-06 0.172977 0.984926 7.00621e-07 0.172977 0.984926 -2.03072e-06 0.172976 0.984932 -3.17335e-05 0.172941</float_array>
                    <technique_common>
                        <accessor count="225" source="#shape0-lib-normals-array" stride="3">
                            <param name="X" type="float"/>
                            <param name="Y" type="float"/>
                            <param name="Z" type="float"/>
                        </accessor>
                    </technique_common>
                </source>
                <source id="shape0-lib-vcolor" name="vcolor">
                    <float_array id="shape0-lib-vcolor-array" count="708">1 1 1 1 1 1 1 1 1 1 1 1 1 1 1 1 1 1 1 1 1 1 1 1 1 1 1 1 1 1 1 1 1 1 1 1 1 1 1 1 1 1 1 1 1 1 1 1 1 1 1 1 1 1 1 1 1 1 1 1 1 1 1 1 1 1 1 1 1 1 1 1 1 1 1 1 1 1 1 1 1 1 1 1 1 1 1 1 1 1 1 1 1 1 1 1 1 1 1 1 1 1 1 1 1 1 1 1 1 1 1 1 1 1 1 1 1 1 1 1 1 1 1 1 1 1 1 1 1 1 1 1 1 1 1 1 1 1 1 1 1 1 1 1 1 1 1 1 1 1 1 1 1 1 1 1 1 1 1 1 1 1 1 1 1 1 1 1 1 1 1 1 1 1 1 1 1 1 1 1 1 1 1 1 1 1 1 1 1 1 1 1 1 1 1 1 1 1 1 1 1 1 1 1 1 1 1 1 1 1 1 1 1 1 1 1 1 1 1 1 1 1 1 1 1 1 1 1 1 1 1 1 1 1 1 1 1 1 1 1 1 1 1 1 1 1 1 1 1 1 1 1 1 1 1 1 1 1 1 1 1 1 1 1 1 1 1 1 1 1 1 1 1 1 1 1 1 1 1 1 1 1 1 1 1 1 1 1 1 1 1 1 1 1 1 1 1 1 1 1 1 1 1 1 1 1 1 1 1 1 1 1 1 1 1 1 1 1 1 1 1 1 1 1 1 1 1 1 1 1 1 1 1 1 1 1 1 1 1 1 1 1 1 1 1 1 1 1 1 1 1 1 1 1 1 1 1 1 1 1 1 1 1 1 1 1 1 1 1 1 1 1 1 1 1 1 1 1 1 1 1 1 1 1 1 1 1 1 1 1 1 1 1 1 1 1 1 1 1 1 1 1 1 1 1 1 1 1 1 1 1 1 1 1 1 1 1 1 1 1 1 1 1 1 1 1 1 1 1 1 1 1 1 1 1 1 1 1 1 1 1 1 1 1 1 1 1 1 1 1 1 1 1 1 1 1 1 1 1 1 1 1 1 1 1 1 1 1 1 1 1 1 1 1 1 1 1 1 1 1 1 1 1 1 1 1 1 1 1 1 1 1 1 1 1 1 1 1 1 1 1 1 1 1 1 1 1 1 1 1 1 1 1 1 1 1 1 1 1 1 1 1 1 1 1 1 1 1 1 1 1 1 1 1 1 1 1 1 1 1 1 1 1 1 1 1 1 1 1 1 1 1 1 1 1 1 1 1 1 1 1 1 1 1 1 1 1 1 1 1 1 1 1 1 1 1 1 1 1 1 1 1 1 1 1 1 1 1 1 1 1 1 1 1 1 1 1 1 1 1 1 1 1 1 1 1 1 1 1 1 1 1 1 1 1 1 1 1 1 1 1 1 1 1 1 1 1 1 1 1 1 1 1 1 1 1 1 1 1 1 1 1 1 1 1 1 1 1 1 1 1 1 1 1 1 1 1 1 1 1 1 1 1 1 1 1 1 1 1 1 1 1 1 1 1 1 1 1 1 1 1 1 1 1 1 1 1 1 1 1 1 1 1 1 1 1 1 1 1 1 1 1 1 1 1 1 1 1</float_array>
                    <technique_common>
                        <accessor count="177" source="#shape0-lib-vcolor-array" stride="4">
                            <param name="R" type="float"/>
                            <param name="G" type="float"/>
                            <param name="B" type="float"/>
                            <param name="A" type="float"/>
                        </accessor>
                    </technique_common>
                </source>
                <source id="shape0-lib-map" name="map">
                    <float_array id="shape0-lib-map-array" count="1350">0.146151 0.899082 0.142858 0.902274 0.141294 0.898676 0.145486 0.895036 0.141294 0.898676 0.139882 0.895167 0.143593 0.892677 0.145486 0.895036 0.139882 0.895167 0.0945068 0.886404 0.102304 0.892388 0.0926028 0.890967 0.146151 0.899082 0.147393 0.90224 0.142858 0.902274 0.145486 0.895036 0.146151 0.899082 0.141294 0.898676 0.149516 0.897481 0.149216 0.899868 0.146151 0.899082 0.149216 0.899868 0.147393 0.90224 0.146151 0.899082 0.149216 0.895093 0.149516 0.897481 0.146151 0.899082 0.149216 0.895093 0.146151 0.899082 0.145486 0.895036 0.122678 0.892388 0.128789 0.884707 0.132131 0.890012 0.148168 0.892706 0.149216 0.895093 0.145486 0.895036 0.148168 0.892706 0.145486 0.895036 0.143593 0.892677 0.136949 0.888579 0.133491 0.889682 0.133191 0.887294 0.0973752 0.88385 0.102304 0.892388 0.0945068 0.886404 0.136949 0.888579 0.136535 0.892069 0.134539 0.892069 0.136949 0.888579 0.134539 0.892069 0.133491 0.889682 0.136944 0.88485 0.136949 0.888579 0.133191 0.887294 0.136944 0.88485 0.133191 0.887294 0.133491 0.884907 0.135418 0.882519 0.136944 0.88485 0.133491 0.884907 0.101021 0.882643 0.102304 0.892388 0.0973752 0.88385 0.136949 0.888579 0.140097 0.892071 0.136535 0.892069 0.122678 0.892388 0.12413 0.88268 0.128789 0.884707 0.139798 0.882511 0.136944 0.88485 0.135418 0.882519 0.141561 0.888591 0.140097 0.892071 0.136949 0.888579 0.141354 0.884907 0.141561 0.888591 0.136949 0.888579 0.141354 0.884907 0.136949 0.888579 0.136944 0.88485 0.139798 0.882511 0.141354 0.884907 0.136944 0.88485 0.106065 0.883307 0.102304 0.892388 0.101021 0.882643 0.145797 0.888578 0.14505 0.892071 0.140097 0.892071 0.145797 0.888578 0.140097 0.892071 0.141561 0.888591 0.145486 0.88485 0.145797 0.888578 0.141561 0.888591 0.145486 0.88485 0.141561 0.888591 0.141354 0.884907 0.122678 0.892388 0.119081 0.883255 0.12413 0.88268 0.144763 0.882511 0.145486 0.88485 0.141354 0.884907 0.144763 0.882511 0.141354 0.884907 0.139798 0.882511 0.149516 0.887294 0.149216 0.889682 0.145797 0.888578 0.109275 0.885417 0.102304 0.892388 0.106065 0.883307 0.149216 0.889682 0.148168 0.892069 0.14505 0.892071 0.149216 0.889682 0.14505 0.892071 0.145797 0.888578 0.149216 0.884907 0.149516 0.887294 0.145797 0.888578 0.149216 0.884907 0.145797 0.888578 0.145486 0.88485 0.122678 0.892388 0.115707 0.885417 0.119081 0.883255 0.148168 0.882519 0.149216 0.884907 0.145486 0.88485 0.148168 0.882519 0.145486 0.88485 0.144763 0.882511 0.153927 0.898765 0.150469 0.899868 0.150169 0.897481 0.111385 0.888626 0.102304 0.892388 0.109275 0.885417 0.153927 0.898765 0.154641 0.902258 0.151517 0.902256 0.153927 0.898765 0.151517 0.902256 0.150469 0.899868 0.153921 0.895036 0.153927 0.898765 0.150169 0.897481 0.153921 0.895036 0.150169 0.897481 0.150469 0.895093 0.122678 0.892388 0.113677 0.888472 0.115707 0.885417 0.154367 0.892698 0.153921 0.895036 0.150469 0.895093 0.154367 0.892698 0.150469 0.895093 0.151517 0.892706 0.112049 0.893671 0.102304 0.892388 0.111385 0.888626 0.158538 0.898777 0.159594 0.902258 0.154641 0.902258 0.158538 0.898777 0.154641 0.902258 0.153927 0.898765 0.160383 0.894966 0.158538 0.898777 0.153927 0.898765 0.160383 0.894966 0.153927 0.898765 0.153921 0.895036 0.122678 0.892388 0.112926 0.893498 0.113677 0.888472 0.159291 0.892698 0.160383 0.894966 0.153921 0.895036 0.159291 0.892698 0.153921 0.895036 0.154367 0.892698 0.162775 0.898764 0.159594 0.902258 0.158538 0.898777 0.160383 0.894966 0.162775 0.898764 0.158538 0.898777 0.110102 0.898371 0.102304 0.892388 0.112049 0.893671 0.162775 0.898764 0.164371 0.90224 0.159594 0.902258 0.122678 0.892388 0.114787 0.898225 0.112926 0.893498 0.164072 0.892716 0.160383 0.894966 0.159291 0.892698 0.166494 0.897481 0.166194 0.899868 0.162775 0.898764 0.166194 0.899868 0.164371 0.90224 0.162775 0.898764 0.166194 0.895093 0.166494 0.897481 0.162775 0.898764 0.166194 0.895093 0.162775 0.898764 0.160383 0.894966 0.164072 0.892716 0.166194 0.895093 0.160383 0.894966 0.153927 0.888579 0.150469 0.889682 0.150169 0.887294 0.106065 0.901468 0.102304 0.892388 0.110102 0.898371 0.153927 0.888579 0.154641 0.892071 0.151517 0.892069 0.153927 0.888579 0.151517 0.892069 0.150469 0.889682 0.155488 0.884906 0.153927 0.888579 0.150169 0.887294 0.155488 0.884906 0.150169 0.887294 0.150469 0.884907 0.122678 0.892388 0.118763 0.901389 0.114787 0.898225 0.154367 0.882511 0.155488 0.884906 0.150469 0.884907 0.154367 0.882511 0.150469 0.884907 0.151517 0.882519 0.101021 0.902132 0.102304 0.892388 0.106065 0.901468 0.158538 0.888591 0.159594 0.892071 0.154641 0.892071 0.158538 0.888591 0.154641 0.892071 0.153927 0.888579 0.155488 0.884906 0.158538 0.888591 0.153927 0.888579 0.122678 0.892388 0.123788 0.90214 0.118763 0.901389 0.159291 0.882511 0.155488 0.884906 0.154367 0.882511 0.162775 0.888578 0.159594 0.892071 0.158538 0.888591 0.162464 0.88485 0.162775 0.888578 0.158538 0.888591 0.162464 0.88485 0.158538 0.888591 0.155488 0.884906 0.159291 0.882511 0.162464 0.88485 0.155488 0.884906 0.096321 0.900185 0.102304 0.892388 0.101021 0.902132 0.162775 0.888578 0.164371 0.892053 0.159594 0.892071 0.122678 0.892388 0.128516 0.900278 0.123788 0.90214 0.164072 0.882529 0.162464 0.88485 0.159291 0.882511 0.166494 0.887294 0.166194 0.889682 0.162775 0.888578 0.166194 0.889682 0.164371 0.892053 0.162775 0.888578 0.166194 0.884907 0.166494 0.887294 0.162775 0.888578 0.166194 0.884907 0.162775 0.888578 0.162464 0.88485 0.164072 0.882529 0.166194 0.884907 0.162464 0.88485 0.136655 0.898473 0.133491 0.899868 0.133191 0.897481 0.0932238 0.896149 0.102304 0.892388 0.096321 0.900185 0.136655 0.898473 0.137663 0.902258 0.134539 0.902256 0.136655 0.898473 0.134539 0.902256 0.133491 0.899868 0.134559 0.894987 0.136655 0.898473 0.133191 0.897481 0.122678 0.892388 0.131679 0.896302 0.128516 0.900278 0.137389 0.892698 0.134559 0.894987 0.134539 0.892706 0.141294 0.898676 0.137663 0.902258 0.136655 0.898473 0.139882 0.895167 0.136655 0.898473 0.134559 0.894987 0.137389 0.892698 0.139882 0.895167 0.134559 0.894987 0.0926028 0.890967 0.102304 0.892388 0.0932238 0.896149 0.141294 0.898676 0.142858 0.902274 0.137663 0.902258 0.139882 0.895167 0.141294 0.898676 0.136655 0.898473 0.122678 0.892388 0.132131 0.890012 0.131679 0.896302 0.143593 0.892677 0.139882 0.895167 0.137389 0.892698 0.868147 0.645686 0.867702 0.63975 0.868698 0.645512 0.865661 0.638799 0.867702 0.63975 0.868147 0.645686 0.861269 0.639112 0.862658 0.639244 0.859779 0.646687 0.864144 0.643597 0.864853 0.6432 0.864703 0.648278 0.864144 0.643597 0.864491 0.640261 0.864853 0.6432 0.862658 0.639244 0.864491 0.640261 0.864144 0.643597 0.862658 0.639244 0.865661 0.638799 0.864491 0.640261 0.867702 0.63975 0.869588 0.637462 0.871185 0.641741 0.865661 0.638799 0.869588 0.637462 0.867702 0.63975 0.865661 0.638799 0.869199 0.635016 0.869588 0.637462 0.862658 0.639244 0.869199 0.635016 0.865661 0.638799 0.869199 0.635016 0.868897 0.631512 0.874106 0.63717 0.862658 0.639244 0.868897 0.631512 0.869199 0.635016 0.861269 0.639112 0.868897 0.631512 0.862658 0.639244 0.861269 0.639112 0.870337 0.628978 0.868897 0.631512 0.856317 0.644943 0.85806 0.642344 0.857328 0.645953 0.858139 0.640974 0.85806 0.642344 0.856317 0.644943 0.858139 0.640974 0.860174 0.637726 0.85806 0.642344 0.866894 0.628327 0.858055 0.634559 0.856725 0.628063 0.861269 0.639112 0.866894 0.628327 0.870337 0.628978 0.861269 0.639112 0.858055 0.634559 0.866894 0.628327 0.858055 0.634559 0.857316 0.636412 0.853711 0.636488 0.855769 0.639917 0.858139 0.640974 0.854367 0.643154 0.856457 0.638857 0.858139 0.640974 0.855769 0.639917 0.856457 0.638857 0.860174 0.637726 0.858139 0.640974 0.857316 0.636412 0.860174 0.637726 0.856457 0.638857 0.858055 0.634559 0.860174 0.637726 0.857316 0.636412 0.858055 0.634559 0.861269 0.639112 0.860174 0.637726 0.8426 0.692362 0.842001 0.686426 0.843349 0.692187 0.839236 0.685476 0.842001 0.686426 0.8426 0.692362 0.833287 0.685789 0.835169 0.68592 0.831275 0.693356 0.837182 0.690273 0.838142 0.689871 0.837938 0.694952 0.837182 0.690273 0.837652 0.686937 0.838142 0.689871 0.835169 0.68592 0.837652 0.686937 0.837182 0.690273 0.835169 0.68592 0.839236 0.685476 0.837652 0.686937 0.842001 0.686426 0.844556 0.684138 0.846721 0.68842 0.839236 0.685476 0.844556 0.684138 0.842001 0.686426 0.839236 0.685476 0.844029 0.681692 0.844556 0.684138 0.835169 0.68592 0.844029 0.681692 0.839236 0.685476 0.844029 0.681692 0.84362 0.678188 0.850672 0.683844 0.835169 0.68592 0.84362 0.678188 0.844029 0.681692 0.833287 0.685789 0.84362 0.678188 0.835169 0.68592 0.833287 0.685789 0.845571 0.675655 0.84362 0.678188 0.829042 0.687659 0.82895 0.689004 0.82749 0.692108 0.829042 0.687659 0.831805 0.684403 0.82895 0.689004 0.840907 0.675003 0.828934 0.681236 0.827152 0.674745 0.833287 0.685789 0.840907 0.675003 0.845571 0.675655 0.833287 0.685789 0.828934 0.681236 0.840907 0.675003 0.828934 0.681236 0.827933 0.683088 0.823073 0.683159 0.825838 0.686593 0.829042 0.687659 0.823942 0.689829 0.826739 0.68553 0.829042 0.687659 0.825838 0.686593 0.826739 0.68553 0.831805 0.684403 0.829042 0.687659 0.827933 0.683088 0.831805 0.684403 0.826739 0.68553 0.828934 0.681236 0.831805 0.684403 0.827933 0.683088 0.828934 0.681236 0.833287 0.685789 0.831805 0.684403 0.780366 0.669024 0.779766 0.663088 0.781114 0.66885 0.777001 0.662137 0.779766 0.663088 0.780366 0.669024 0.771052 0.66245 0.772934 0.662582 0.76904 0.670018 0.774947 0.666935 0.775907 0.666534 0.775703 0.671614 0.774947 0.666935 0.775417 0.663599 0.775907 0.666534 0.772934 0.662582 0.775417 0.663599 0.774947 0.666935 0.772934 0.662582 0.777001 0.662137 0.775417 0.663599 0.779766 0.663088 0.782321 0.6608 0.784485 0.665081 0.777001 0.662137 0.782321 0.6608 0.779766 0.663088 0.777001 0.662137 0.781794 0.658354 0.782321 0.6608 0.772934 0.662582 0.781794 0.658354 0.777001 0.662137 0.781794 0.658354 0.781385 0.65485 0.788437 0.660505 0.772934 0.662582 0.781385 0.65485 0.781794 0.658354 0.771052 0.66245 0.781385 0.65485 0.772934 0.662582 0.771052 0.66245 0.783336 0.652316 0.781385 0.65485 0.766807 0.664321 0.766716 0.665666 0.765255 0.66877 0.766807 0.664321 0.76957 0.661064 0.766716 0.665666 0.778672 0.651665 0.766699 0.657897 0.764917 0.651407 0.771052 0.66245 0.778672 0.651665 0.783336 0.652316 0.771052 0.66245 0.766699 0.657897 0.778672 0.651665 0.766699 0.657897 0.765698 0.65975 0.760838 0.659822 0.763603 0.663255 0.766807 0.664321 0.761707 0.666491 0.764502 0.662192 0.766807 0.664321 0.763603 0.663255 0.764502 0.662192 0.76957 0.661064 0.766807 0.664321 0.765698 0.65975 0.76957 0.661064 0.764502 0.662192 0.766699 0.657897 0.76957 0.661064 0.765698 0.65975 0.766699 0.657897 0.771052 0.66245 0.76957 0.661064 0.811483 0.669023 0.810884 0.663088 0.812231 0.668849 0.808118 0.662137 0.810884 0.663088 0.811483 0.669023 0.80217 0.66245 0.804052 0.662582 0.800158 0.670017 0.806064 0.666935 0.807025 0.666529 0.80682 0.671613 0.806064 0.666935 0.806535 0.663599 0.807025 0.666529 0.804052 0.662582 0.806535 0.663599 0.806064 0.666935 0.804052 0.662582 0.808118 0.662137 0.806535 0.663599 0.810884 0.663088 0.813439 0.6608 0.815606 0.665084 0.808118 0.662137 0.813439 0.6608 0.810884 0.663088 0.808118 0.662137 0.812911 0.658354 0.813439 0.6608 0.804052 0.662582 0.812911 0.658354 0.808118 0.662137 0.812911 0.658354 0.812503 0.65485 0.819555 0.660506 0.804052 0.662582 0.812503 0.65485 0.812911 0.658354 0.80217 0.66245 0.812503 0.65485 0.804052 0.662582 0.80217 0.66245 0.814453 0.652316 0.812503 0.65485 0.797923 0.664323 0.797833 0.665667 0.796373 0.66877 0.797923 0.664323 0.800687 0.661064 0.797833 0.665667 0.809789 0.651665 0.797817 0.657897 0.796033 0.651407 0.80217 0.66245 0.809789 0.651665 0.814453 0.652316 0.80217 0.66245 0.797817 0.657897 0.809789 0.651665 0.797817 0.657897 0.796815 0.65975 0.791956 0.659822 0.794721 0.663255 0.797923 0.664323 0.792825 0.666491 0.795625 0.662192 0.797923 0.664323 0.794721 0.663255 0.795625 0.662192 0.800687 0.661064 0.797923 0.664323 0.796815 0.65975 0.800687 0.661064 0.795625 0.662192 0.797817 0.657897 0.800687 0.661064 0.796815 0.65975 0.797817 0.657897 0.80217 0.66245 0.800687 0.661064</float_array>
                    <technique_common>
                        <accessor count="675" source="#shape0-lib-map-array" stride="2">
                            <param name="U" type="float"/>
                            <param name="V" type="float"/>
                        </accessor>
                    </technique_common>
                </source>
                <vertices id="shape0-lib-vertices">
                    <input semantic="POSITION" source="#shape0-lib-positions"/>
                </vertices>
                <triangles count="225" material="material0">
                    <input offset="0" semantic="VERTEX" source="#shape0-lib-vertices"/>
                    <input offset="1" semantic="COLOR" source="#shape0-lib-vcolor"/>
                    <input offset="2" semantic="NORMAL" source="#shape0-lib-normals"/>
                    <input offset="3" semantic="TEXCOORD" source="#shape0-lib-map"/>
                    <p>4 4 0 0 3 3 0 1 56 56 0 2 5 5 1 3 56 56 1 4 58 58 1 5 2 2 2 6 5 5 2 7 58 58 2 8 8 8 3 9 1 1 3 10 3 3 3 11 4 4 4 12 8 8 4 13 3 3 4 14 5 5 5 15 4 4 5 16 56 56 5 17 6 6 6 18 7 7 6 19 4 4 6 20 7 7 7 21 8 8 7 22 4 4 7 23 9 9 8 24 6 6 8 25 4 4 8 26 9 9 9 27 4 4 9 28 5 5 9 29 0 0 10 30 11 11 10 31 2 2 10 32 11 11 11 33 9 9 11 34 5 5 11 35 11 11 12 36 5 5 12 37 2 2 12 38 12 12 13 39 7 7 13 40 6 6 13 41 10 10 14 42 1 1 14 43 8 8 14 44 12 12 15 45 10 10 15 46 8 8 15 47 12 12 16 48 8 8 16 49 7 7 16 50 13 13 17 51 12 12 17 52 6 6 17 53 13 13 18 54 6 6 18 55 9 9 18 56 11 11 19 57 13 13 19 58 9 9 19 59 15 15 20 60 1 1 20 61 10 10 20 62 12 12 21 63 15 15 21 64 10 10 21 65 0 0 22 66 17 17 22 67 11 11 22 68 17 17 23 69 13 13 23 70 11 11 23 71 14 14 24 72 15 15 24 73 12 12 24 74 16 16 25 75 14 14 25 76 12 12 25 77 16 16 26 78 12 12 26 79 13 13 26 80 17 17 27 81 16 16 27 82 13 13 27 83 19 19 28 84 1 1 28 85 15 15 28 86 18 18 29 87 19 19 29 88 15 15 29 89 18 18 30 90 15 15 30 91 14 14 30 92 20 20 31 93 18 18 31 94 14 14 31 95 20 20 32 96 14 14 32 97 16 16 32 98 0 0 33 99 21 21 33 100 17 17 33 101 21 21 34 102 20 20 34 103 16 16 34 104 21 21 35 105 16 16 35 106 17 17 35 107 22 22 36 108 23 23 36 109 18 18 36 110 24 24 37 111 1 1 37 112 19 19 37 113 23 23 38 114 24 24 38 115 19 19 38 116 23 23 39 117 19 19 39 118 18 18 39 119 25 25 40 120 22 22 40 121 18 18 40 122 25 25 41 123 18 18 41 124 20 20 41 125 0 0 42 126 26 26 42 127 21 21 42 128 26 26 43 129 25 25 43 130 20 20 43 131 26 26 44 132 20 20 44 133 21 21 44 134 27 27 45 135 23 23 45 136 22 22 45 137 28 28 46 138 1 1 46 139 24 24 46 140 27 27 47 141 28 28 47 142 24 24 47 143 27 27 48 144 24 24 48 145 23 23 48 146 29 29 49 147 27 27 49 148 22 22 49 149 29 29 50 150 22 22 50 151 25 25 50 152 0 0 51 153 30 30 51 154 26 26 51 155 30 30 52 156 29 29 52 157 25 25 52 158 30 30 53 159 25 25 53 160 26 26 53 161 32 32 54 162 1 1 54 163 28 28 54 164 31 31 55 165 32 32 55 166 28 28 55 167 31 31 56 168 28 28 56 169 27 27 56 170 35 35 57 171 31 31 57 172 27 27 57 173 35 35 58 174 27 27 58 175 29 29 58 176 0 0 59 177 33 33 59 178 30 30 59 179 33 33 60 180 35 35 60 181 29 29 60 182 33 33 61 183 29 29 61 184 30 30 61 185 34 34 62 186 32 32 62 187 31 31 62 188 35 35 63 189 34 34 63 190 31 31 63 191 38 38 64 192 1 1 64 193 32 32 64 194 34 34 65 195 38 38 65 196 32 32 65 197 0 0 66 198 40 40 66 199 33 33 66 200 40 40 67 201 35 35 67 202 33 33 67 203 36 36 68 204 37 37 68 205 34 34 68 206 37 37 69 207 38 38 69 208 34 34 69 209 39 39 70 210 36 36 70 211 34 34 70 212 39 39 71 213 34 34 71 214 35 35 71 215 40 40 72 216 39 39 72 217 35 35 72 218 41 41 73 219 37 37 73 220 36 36 73 221 42 42 74 222 1 1 74 223 38 38 74 224 41 41 75 225 42 42 75 226 38 38 75 227 41 41 76 228 38 38 76 229 37 37 76 230 45 45 77 231 41 41 77 232 36 36 77 233 45 45 78 234 36 36 78 235 39 39 78 236 0 0 79 237 43 43 79 238 40 40 79 239 43 43 80 240 45 45 80 241 39 39 80 242 43 43 81 243 39 39 81 244 40 40 81 245 46 46 82 246 1 1 82 247 42 42 82 248 44 44 83 249 46 46 83 250 42 42 83 251 44 44 84 252 42 42 84 253 41 41 84 254 45 45 85 255 44 44 85 256 41 41 85 257 0 0 86 258 47 47 86 259 43 43 86 260 47 47 87 261 45 45 87 262 43 43 87 263 48 48 88 264 46 46 88 265 44 44 88 266 49 49 89 267 48 48 89 268 44 44 89 269 49 49 90 270 44 44 90 271 45 45 90 272 47 47 91 273 49 49 91 274 45 45 91 275 52 52 92 276 1 1 92 277 46 46 92 278 48 48 93 279 52 52 93 280 46 46 93 281 0 0 94 282 53 53 94 283 47 47 94 284 53 53 95 285 49 49 95 286 47 47 95 287 50 50 96 288 51 51 96 289 48 48 96 290 51 51 97 291 52 52 97 292 48 48 97 293 54 54 98 294 50 50 98 295 48 48 98 296 54 54 99 297 48 48 99 298 49 49 99 299 53 53 100 300 54 54 100 301 49 49 100 302 55 55 101 303 51 51 101 304 50 50 101 305 57 57 102 306 1 1 102 307 52 52 102 308 55 55 103 309 57 57 103 310 52 52 103 311 55 55 104 312 52 52 104 313 51 51 104 314 54 54 105 315 55 55 105 316 50 50 105 317 0 0 106 318 59 59 106 319 53 53 106 320 59 59 107 321 54 54 107 322 53 53 107 323 56 56 108 324 57 57 108 325 55 55 108 326 58 58 109 327 55 55 109 328 54 54 109 329 59 59 110 330 58 58 110 331 54 54 110 332 3 3 111 333 1 1 111 334 57 57 111 335 56 56 112 336 3 3 112 337 57 57 112 338 58 58 113 339 56 56 113 340 55 55 113 341 0 0 114 342 2 2 114 343 59 59 114 344 2 2 115 345 58 58 115 346 59 59 115 347 69 69 116 348 67 67 116 349 68 68 116 350 70 70 117 351 67 67 117 352 69 69 117 353 77 77 118 354 75 75 118 355 76 76 118 356 74 74 119 357 72 72 119 358 73 73 119 359 74 74 120 360 71 71 120 361 72 72 120 362 75 75 121 363 71 71 121 364 74 74 121 365 75 75 122 366 70 70 122 367 71 71 122 368 67 67 123 369 65 65 123 370 66 66 123 371 70 70 124 372 65 65 124 373 67 67 124 374 70 70 125 375 64 64 125 376 65 65 125 377 75 75 126 378 64 64 126 379 70 70 126 380 64 64 127 381 62 62 127 382 63 63 127 383 75 75 128 384 62 62 128 385 64 64 128 386 77 77 129 387 62 62 129 388 75 75 129 389 77 77 130 390 61 61 130 391 62 62 130 392 81 81 131 393 79 79 131 394 80 80 131 395 82 82 132 396 79 79 132 397 81 81 132 398 82 82 133 399 78 78 133 400 79 79 133 401 60 60 134 402 88 88 134 403 89 89 134 404 77 77 135 405 60 60 135 406 61 61 135 407 77 77 136 408 88 88 136 409 60 60 136 410 88 88 137 411 86 86 137 412 87 87 137 413 84 84 138 414 82 82 138 415 83 83 138 416 85 85 139 417 82 82 139 418 84 84 139 419 85 85 140 420 78 78 140 421 82 82 140 422 86 86 141 423 78 78 141 424 85 85 141 425 88 88 142 426 78 78 142 427 86 86 142 428 88 88 143 429 77 77 143 430 78 78 143 431 99 99 144 432 97 97 144 433 98 98 144 434 100 100 145 435 97 97 145 436 99 99 145 437 107 107 146 438 105 105 146 439 106 106 146 440 104 104 147 441 102 102 147 442 103 103 147 443 104 104 148 444 101 101 148 445 102 102 148 446 105 105 149 447 101 101 149 448 104 104 149 449 105 105 150 450 100 100 150 451 101 101 150 452 97 97 151 453 95 95 151 454 96 96 151 455 100 100 152 456 95 95 152 457 97 97 152 458 100 100 153 459 94 94 153 460 95 95 153 461 105 105 154 462 94 94 154 463 100 100 154 464 94 94 155 465 92 92 155 466 93 93 155 467 105 105 156 468 92 92 156 469 94 94 156 470 107 107 157 471 92 92 157 472 105 105 157 473 107 107 158 474 91 91 158 475 92 92 158 476 111 111 159 477 109 109 159 478 110 110 159 479 111 111 160 480 108 108 160 481 109 109 160 482 90 90 161 483 117 117 161 484 118 118 161 485 107 107 162 486 90 90 162 487 91 91 162 488 107 107 163 489 117 117 163 490 90 90 163 491 117 117 164 492 115 115 164 493 116 116 164 494 113 113 165 495 111 111 165 496 112 112 165 497 114 114 166 498 111 111 166 499 113 113 166 500 114 114 167 501 108 108 167 502 111 111 167 503 115 115 168 504 108 108 168 505 114 114 168 506 117 117 169 507 108 108 169 508 115 115 169 509 117 117 170 510 107 107 170 511 108 108 170 512 128 128 171 513 126 126 171 514 127 127 171 515 129 129 172 516 126 126 172 517 128 128 172 518 136 136 173 519 134 134 173 520 135 135 173 521 133 133 174 522 131 131 174 523 132 132 174 524 133 133 175 525 130 130 175 526 131 131 175 527 134 134 176 528 130 130 176 529 133 133 176 530 134 134 177 531 129 129 177 532 130 130 177 533 126 126 178 534 124 124 178 535 125 125 178 536 129 129 179 537 124 124 179 538 126 126 179 539 129 129 180 540 123 123 180 541 124 124 180 542 134 134 181 543 123 123 181 544 129 129 181 545 123 123 182 546 121 121 182 547 122 122 182 548 134 134 183 549 121 121 183 550 123 123 183 551 136 136 184 552 121 121 184 553 134 134 184 554 136 136 185 555 120 120 185 556 121 121 185 557 140 140 186 558 138 138 186 559 139 139 186 560 140 140 187 561 137 137 187 562 138 138 187 563 119 119 188 564 146 146 188 565 147 147 188 566 136 136 189 567 119 119 189 568 120 120 189 569 136 136 190 570 146 146 190 571 119 119 190 572 146 146 191 573 144 144 191 574 145 145 191 575 142 142 192 576 140 140 192 577 141 141 192 578 143 143 193 579 140 140 193 580 142 142 193 581 143 143 194 582 137 137 194 583 140 140 194 584 144 144 195 585 137 137 195 586 143 143 195 587 146 146 196 588 137 137 196 589 144 144 196 590 146 146 197 591 136 136 197 592 137 137 197 593 157 157 198 594 155 155 198 595 156 156 198 596 158 158 199 597 155 155 199 598 157 157 199 599 165 165 200 600 163 163 200 601 164 164 200 602 162 162 201 603 160 160 201 604 161 161 201 605 162 162 202 606 159 159 202 607 160 160 202 608 163 163 203 609 159 159 203 610 162 162 203 611 163 163 204 612 158 158 204 613 159 159 204 614 155 155 205 615 153 153 205 616 154 154 205 617 158 158 206 618 153 153 206 619 155 155 206 620 158 158 207 621 152 152 207 622 153 153 207 623 163 163 208 624 152 152 208 625 158 158 208 626 152 152 209 627 150 150 209 628 151 151 209 629 163 163 210 630 150 150 210 631 152 152 210 632 165 165 211 633 150 150 211 634 163 163 211 635 165 165 212 636 149 149 212 637 150 150 212 638 169 169 213 639 167 167 213 640 168 168 213 641 169 169 214 642 166 166 214 643 167 167 214 644 148 148 215 645 175 175 215 646 176 176 215 647 165 165 216 648 148 148 216 649 149 149 216 650 165 165 217 651 175 175 217 652 148 148 217 653 175 175 218 654 173 173 218 655 174 174 218 656 171 171 219 657 169 169 219 658 170 170 219 659 172 172 220 660 169 169 220 661 171 171 220 662 172 172 221 663 166 166 221 664 169 169 221 665 173 173 222 666 166 166 222 667 172 172 222 668 175 175 223 669 166 166 223 670 173 173 223 671 175 175 224 672 165 165 224 673 166 166 224 674</p>
                </triangles>
            </mesh>
        </geometry>
    </library_geometries>
    <library_visual_scenes>
        <visual_scene id="VisualSceneNode" name="VisualScene">
            <node id="node" name="node">
                <instance_geometry url="#shape0-lib">
                    <bind_material>
                        <technique_common>
                            <instance_material symbol="material0" target="#material0">
                                <bind_vertex_input semantic="UVSET0" input_semantic="TEXCOORD"/>
                            </instance_material>
                        </technique_common>
                    </bind_material>
                </instance_geometry>
            </node>
        </visual_scene>
    </library_visual_scenes>
    <scene>
        <instance_visual_scene url="#VisualSceneNode"/>
    </scene>
</COLLADA>
