<?xml version="1.0" encoding="UTF-8"?>
<COLLADA xmlns="http://www.collada.org/2005/11/COLLADASchema" version="1.4.1">
    <asset>
        <contributor>
            <author>VCGLab</author>
            <authoring_tool>VCGLib | MeshLab</authoring_tool>
        </contributor>
        <created>Thu Jul 3 02:09:03 2025 GMT</created>
        <modified>Thu Jul 3 02:09:03 2025 GMT</modified>
        <up_axis>Y_UP</up_axis>
    </asset>
    <library_images>
        <image id="texture0" name="texture0">
            <init_from>./image/shelf_items.png</init_from>
        </image>
    </library_images>
    <library_materials>
        <material id="material0" name="material0">
            <instance_effect url="#material0-fx"/>
        </material>
    </library_materials>
    <library_effects>
        <effect id="material0-fx">
            <profile_COMMON>
                <newparam sid="texture0-surface">
                    <surface type="2D">
                        <init_from>texture0</init_from>
                        <format>R8G8B8</format>
                    </surface>
                </newparam>
                <newparam sid="texture0-sampler">
                    <sampler2D>
                        <source>texture0-surface</source>
                        <minfilter>LINEAR</minfilter>
                        <magfilter>LINEAR</magfilter>
                    </sampler2D>
                </newparam>
                <technique sid="common">
                    <blinn>
                        <diffuse>
                            <texture texture="texture0-sampler" texcoord="UVSET0"/>
                        </diffuse>
                    </blinn>
                </technique>
            </profile_COMMON>
        </effect>
    </library_effects>
    <library_geometries>
        <geometry id="shape0-lib" name="shape0">
            <mesh>
                <source id="shape0-lib-positions" name="position">
                    <float_array id="shape0-lib-positions-array" count="156">-0.0281312 0.034401 -0.119576 -0.0848528 0.0345 -0.0853528 -0.110635 0.0344662 -0.0492464 -0.119406 0.034438 0.0269935 -0.0848528 0.0345 0.0843528 -0.0487462 0.0344661 0.110135 0.0273399 0.0346882 0.118922 0.0848528 0.0345 0.0843528 0.110635 0.0344662 0.0482464 0.119406 0.034438 -0.0279935 0.0848528 0.0345 -0.0853528 0.0487463 0.0344662 -0.111135 -0.108019 0.0945502 0.009434 -0.111854 0.0944999 0.0294712 -0.0183624 0.0945502 0.106409 2.6226e-08 0.0944999 0.1153 0.106909 0.0945502 0.0178622 0.1158 0.0944999 -0.0005 -0.0168257 0.0945814 -0.109117 -0.0570455 0.0945804 -0.0934267 -0.0791531 0.0945804 -0.0754955 -0.102479 0.0945814 -0.0402363 -0.0929268 0.0945804 0.0565453 -0.0749951 0.0945804 0.0786534 -0.0519533 0.0945804 0.0953666 0.044364 0.0945814 0.100062 0.0791529 0.0945804 0.0744958 0.0958669 0.0945804 0.0514528 0.101446 0.0945771 -0.043819 0.0749953 0.0945804 -0.0796534 0.0397366 0.0945814 -0.102978 -0.023943 0.0465 -0.10574 -0.0917684 0.0465 -0.0569156 -0.105212 0.0465 0.0235833 -0.0565703 0.0465 0.0911719 0.0239431 0.0465 0.10474 0.0747509 0.0465 0.0742509 0.103234 0.0465 0.0310114 0.0565705 0.0465 -0.0921718 0.0984781 0.0465 -0.0389907 -0.00906786 0.0250977 -0.0865331 -0.0886681 0.0242121 -0.0150155 -0.0252778 0.0247599 0.0839162 0.0670376 0.0249438 0.0540118 0.0775655 0.0247599 -0.0423171 0.00617517 -0.000351114 -0.0697046 -0.0568454 -0.00035111 -0.0404501 -0.0653573 -0.000147566 0.0194883 -0.0399096 -4.54855e-05 0.0539525 0.0119469 -0.000351116 0.0679448 0.0652483 -0.000351113 0.0233763 0.0578578 -7.31816e-05 -0.0359883</float_array>
                    <technique_common>
                        <accessor count="52" source="#shape0-lib-positions-array" stride="3">
                            <param name="X" type="float"/>
                            <param name="Y" type="float"/>
                            <param name="Z" type="float"/>
                        </accessor>
                    </technique_common>
                </source>
                <source id="shape0-lib-normals" name="normal">
                    <float_array id="shape0-lib-normals-array" count="300">-0.354188 0.224313 -0.907873 -0.512523 0.123011 -0.849816 -0.619177 0.183989 -0.763392 -0.802042 0.170026 -0.572556 -0.818464 0.192208 -0.541454 -0.982185 0.150196 -0.112936 -0.981983 0.154059 -0.109429 -0.973877 0.13013 -0.186089 -0.817119 0.0791874 0.571005 -0.850168 0.122727 0.512009 -0.763392 0.18399 0.619177 -0.572555 0.170025 0.802043 -0.579075 0.165245 0.798352 -0.305029 0.211836 0.928484 -0.114247 0.118947 0.986306 -0.431619 -0.143362 0.890591 0.317866 0.201402 0.926498 0.51159 0.122396 0.850468 0.581945 0.185128 0.791876 0.802042 0.170026 0.572556 0.798351 0.165246 0.579077 0.928487 0.211834 0.305022 0.986448 0.118546 0.113438 0.890493 -0.144092 0.431578 0.930765 0.196902 -0.308069 0.850533 0.119215 -0.512232 0.790668 0.185088 -0.583598 0.572556 0.170025 -0.802042 0.541454 0.192206 -0.818465 0.107783 0.149517 -0.982867 0.106667 0.150758 -0.982799 0.00554107 0.999985 -5.49666e-05 -0.00615846 0.99998 0.00133028 6.21108e-05 0.999985 0.00552632 -0.795217 0.151903 0.586988 -0.780675 0.109971 0.615185 -0.551729 -0.00571828 0.834004 -0.107505 0.0854818 0.990523 -0.164006 0.161309 0.973181 0.363421 0.01163 0.931553 0.624281 0.133634 0.769685 0.573497 0.190806 0.796677 0.834004 -0.00561838 0.55173 0.989768 0.0903354 0.110451 0.973559 0.16046 0.162588 0.951779 -0.0341837 -0.304874 0.769811 0.132431 -0.624383 0.796943 0.189564 -0.573539 0.587087 0.0142384 -0.809398 0.311896 0.0528127 -0.948647 0.163538 0.177681 -0.970404 -0.1005 -0.0539891 -0.993471 -0.591172 0.0582221 -0.804441 -0.509924 0.133886 -0.849737 -0.80317 0.124614 -0.582572 -0.832486 0.0790116 -0.548384 -0.949915 -0.0127997 -0.312245 -0.993642 0.0701753 0.0880381 -0.993242 0.0944281 0.0674811 0 1 0 0 1 0 0 1 0 0 1 0 0 1 0 0 1 0 0 1 0 0.0619154 -0.980767 0.185101 -0.0341807 -0.946828 0.319919 -0.155952 -0.963604 0.217134 -0.177679 -0.978134 0.108091 -0.159644 -0.981279 0.107724 -0.367319 -0.929119 -0.0425998 -0.212573 -0.965141 -0.152697 -0.123679 -0.971508 -0.202177 -0.124028 -0.980846 -0.150191 0.0324499 -0.957028 -0.288176 0.0849552 -0.981083 -0.173951 0.140737 -0.970489 -0.195816 0.276226 -0.946398 -0.167422 0.216503 -0.975955 0.025267 0.216966 -0.975844 0.0255759 0.231333 -0.958593 0.166087 0.132701 -0.965039 0.226031 0.767126 -0.633893 -0.0984697 0.97429 -0.19834 0.106861 0.459403 -0.697917 0.549419 0.305124 -0.146205 0.941023 -0.187416 -0.709742 0.679075 -0.841167 -0.0412007 0.539204 -0.781241 -0.236837 0.577556 -0.652685 -0.752249 -0.0901346 -0.664801 -0.0938914 -0.741097 -0.320501 -0.648527 -0.690429 0.432328 -0.302718 -0.849385 0.460457 -0.544161 -0.701333 -0.00354552 -0.999985 -0.00424031 -0.00462129 -0.999978 -0.0047155 0.00145392 -0.999997 0.00188838 0.00227832 -0.999991 0.0037194 0.00223564 -0.999986 0.00481619</float_array>
                    <technique_common>
                        <accessor count="100" source="#shape0-lib-normals-array" stride="3">
                            <param name="X" type="float"/>
                            <param name="Y" type="float"/>
                            <param name="Z" type="float"/>
                        </accessor>
                    </technique_common>
                </source>
                <source id="shape0-lib-vcolor" name="vcolor">
                    <float_array id="shape0-lib-vcolor-array" count="208">1 1 1 1 1 1 1 1 1 1 1 1 1 1 1 1 1 1 1 1 1 1 1 1 1 1 1 1 1 1 1 1 1 1 1 1 1 1 1 1 1 1 1 1 1 1 1 1 1 1 1 1 1 1 1 1 1 1 1 1 1 1 1 1 1 1 1 1 1 1 1 1 1 1 1 1 1 1 1 1 1 1 1 1 1 1 1 1 1 1 1 1 1 1 1 1 1 1 1 1 1 1 1 1 1 1 1 1 1 1 1 1 1 1 1 1 1 1 1 1 1 1 1 1 1 1 1 1 1 1 1 1 1 1 1 1 1 1 1 1 1 1 1 1 1 1 1 1 1 1 1 1 1 1 1 1 1 1 1 1 1 1 1 1 1 1 1 1 1 1 1 1 1 1 1 1 1 1 1 1 1 1 1 1 1 1 1 1 1 1 1 1 1 1 1 1 1 1 1 1 1 1 1 1 1 1 1 1</float_array>
                    <technique_common>
                        <accessor count="52" source="#shape0-lib-vcolor-array" stride="4">
                            <param name="R" type="float"/>
                            <param name="G" type="float"/>
                            <param name="B" type="float"/>
                            <param name="A" type="float"/>
                        </accessor>
                    </technique_common>
                </source>
                <source id="shape0-lib-map" name="map">
                    <float_array id="shape0-lib-map-array" count="600">0.281378 0.389484 0.284377 0.375054 0.290773 0.389482 0.290773 0.389482 0.284377 0.375054 0.296829 0.375062 0.290773 0.389482 0.296829 0.375062 0.296162 0.389482 0.21971 0.405345 0.219042 0.390924 0.227573 0.390921 0.21971 0.405345 0.227573 0.390921 0.228316 0.405345 0.228316 0.405345 0.227573 0.390921 0.244662 0.390919 0.228316 0.405345 0.244662 0.390919 0.238108 0.405345 0.238108 0.405345 0.244662 0.390919 0.244842 0.405345 0.244842 0.405345 0.244662 0.390919 0.251117 0.405345 0.251117 0.405345 0.244662 0.390919 0.257173 0.390924 0.251117 0.405345 0.257173 0.390924 0.256506 0.405345 0.259366 0.405345 0.258698 0.390924 0.26723 0.390921 0.259366 0.405345 0.26723 0.390921 0.264754 0.405345 0.264754 0.405345 0.26723 0.390921 0.27103 0.405345 0.27103 0.405345 0.26723 0.390921 0.284304 0.390944 0.27103 0.405345 0.284304 0.390944 0.277764 0.405345 0.277764 0.405345 0.284304 0.390944 0.287837 0.405346 0.287837 0.405346 0.284304 0.390944 0.296829 0.390924 0.287837 0.405346 0.296829 0.390924 0.296162 0.405345 0.21971 0.389482 0.219042 0.375062 0.227573 0.375059 0.21971 0.389482 0.227573 0.375059 0.225098 0.389482 0.225098 0.389482 0.227573 0.375059 0.231373 0.389482 0.231373 0.389482 0.227573 0.375059 0.244662 0.375057 0.231373 0.389482 0.244662 0.375057 0.238108 0.389482 0.238108 0.389482 0.244662 0.375057 0.248181 0.389483 0.248181 0.389483 0.244662 0.375057 0.257173 0.375062 0.248181 0.389483 0.257173 0.375062 0.256506 0.389482 0.259366 0.389482 0.258698 0.375062 0.26723 0.375059 0.259366 0.389482 0.26723 0.375059 0.267973 0.389482 0.267973 0.389482 0.26723 0.375059 0.284377 0.375054 0.267973 0.389482 0.284377 0.375054 0.281378 0.389484 0.371982 0.401582 0.375629 0.391752 0.374307 0.405518 0.425039 0.408567 0.420668 0.41453 0.423812 0.404163 0.39897 0.42857 0.389011 0.424813 0.402906 0.426245 0.227579 0.421207 0.219042 0.421207 0.219042 0.406787 0.227579 0.421207 0.219042 0.406787 0.227982 0.406787 0.233387 0.43707 0.226477 0.43707 0.229081 0.422649 0.226477 0.43707 0.215468 0.43707 0.213149 0.422649 0.226477 0.43707 0.213149 0.422649 0.229081 0.422649 0.215468 0.43707 0.207597 0.43707 0.213149 0.422649 0.207597 0.43707 0.203172 0.43707 0.203172 0.422649 0.207597 0.43707 0.203172 0.422649 0.213149 0.422649 0.296829 0.421207 0.288108 0.421207 0.291374 0.406787 0.288108 0.421207 0.274215 0.421207 0.271269 0.406787 0.288108 0.421207 0.271269 0.406787 0.291374 0.406787 0.274215 0.421207 0.264283 0.421207 0.271269 0.406787 0.264283 0.421207 0.258698 0.421207 0.258698 0.406787 0.264283 0.421207 0.258698 0.406787 0.271269 0.406787 0.201662 0.43707 0.197237 0.43707 0.197356 0.422649 0.197237 0.43707 0.189343 0.43707 0.197356 0.422649 0.189343 0.43707 0.181424 0.422649 0.197356 0.422649 0.189343 0.43707 0.178334 0.43707 0.181424 0.422649 0.178334 0.43707 0.171447 0.43707 0.171447 0.422649 0.178334 0.43707 0.171447 0.422649 0.181424 0.422649 0.257173 0.421207 0.251589 0.421207 0.245521 0.406787 0.257173 0.421207 0.245521 0.406787 0.257173 0.406787 0.251589 0.421207 0.241626 0.421207 0.245521 0.406787 0.241626 0.421207 0.227579 0.421207 0.227982 0.406787 0.241626 0.421207 0.227982 0.406787 0.245521 0.406787 0.182532 0.378332 0.19991 0.375619 0.173782 0.390009 0.19991 0.375619 0.214302 0.386203 0.173782 0.390009 0.214302 0.386203 0.216997 0.403579 0.173782 0.390009 0.216997 0.403579 0.20644 0.417938 0.173782 0.390009 0.20644 0.417938 0.189061 0.42065 0.173782 0.390009 0.189061 0.42065 0.178204 0.414417 0.173782 0.390009 0.178204 0.414417 0.172258 0.404641 0.173782 0.390009 0.349778 0.428089 0.337926 0.420277 0.358414 0.413655 0.349778 0.428089 0.332676 0.426421 0.337926 0.420277 0.332676 0.426421 0.324368 0.420665 0.337926 0.420277 0.324368 0.420665 0.316956 0.407932 0.323949 0.398462 0.324368 0.420665 0.323949 0.398462 0.337926 0.420277 0.316956 0.407932 0.318612 0.390806 0.323949 0.398462 0.318612 0.390806 0.324368 0.382498 0.323949 0.398462 0.324368 0.382498 0.336995 0.37514 0.341369 0.382445 0.324368 0.382498 0.341369 0.382445 0.323949 0.398462 0.336995 0.37514 0.354227 0.376742 0.341369 0.382445 0.354227 0.376742 0.360577 0.392269 0.341369 0.382445 0.354227 0.376742 0.362535 0.382498 0.360577 0.392269 0.362535 0.382498 0.369947 0.395231 0.360577 0.392269 0.369947 0.395231 0.368291 0.412357 0.358414 0.413655 0.369947 0.395231 0.358414 0.413655 0.360577 0.392269 0.368291 0.412357 0.362535 0.420665 0.358414 0.413655 0.362535 0.420665 0.349778 0.428089 0.358414 0.413655 0.360577 0.392269 0.357454 0.407037 0.356345 0.393815 0.360577 0.392269 0.358414 0.413655 0.357454 0.407037 0.358414 0.413655 0.345728 0.416436 0.357454 0.407037 0.358414 0.413655 0.337926 0.420277 0.345728 0.416436 0.337926 0.420277 0.33441 0.413633 0.345728 0.416436 0.337926 0.420277 0.323949 0.398462 0.328983 0.40573 0.337926 0.420277 0.328983 0.40573 0.33441 0.413633 0.323949 0.398462 0.331338 0.392688 0.328983 0.40573 0.323949 0.398462 0.341369 0.382445 0.331338 0.392688 0.341369 0.382445 0.345097 0.386644 0.331338 0.392688 0.341369 0.382445 0.360577 0.392269 0.345097 0.386644 0.360577 0.392269 0.356345 0.393815 0.345097 0.386644 0.264247 0.443224 0.25242 0.452841 0.262618 0.430097 0.25242 0.452841 0.240969 0.449927 0.262618 0.430097 0.240969 0.449927 0.235438 0.44206 0.262618 0.430097 0.235438 0.44206 0.237654 0.428856 0.262618 0.430097 0.237654 0.428856 0.251567 0.422628 0.262618 0.430097</float_array>
                    <technique_common>
                        <accessor count="300" source="#shape0-lib-map-array" stride="2">
                            <param name="U" type="float"/>
                            <param name="V" type="float"/>
                        </accessor>
                    </technique_common>
                </source>
                <vertices id="shape0-lib-vertices">
                    <input semantic="POSITION" source="#shape0-lib-positions"/>
                </vertices>
                <triangles count="100" material="material0">
                    <input offset="0" semantic="VERTEX" source="#shape0-lib-vertices"/>
                    <input offset="1" semantic="COLOR" source="#shape0-lib-vcolor"/>
                    <input offset="2" semantic="NORMAL" source="#shape0-lib-normals"/>
                    <input offset="3" semantic="TEXCOORD" source="#shape0-lib-map"/>
                    <p>18 18 0 0 0 0 0 1 19 19 0 2 19 19 1 3 0 0 1 4 1 1 1 5 19 19 2 6 1 1 2 7 20 20 2 8 20 20 3 9 1 1 3 10 2 2 3 11 20 20 4 12 2 2 4 13 21 21 4 14 21 21 5 15 2 2 5 16 3 3 5 17 21 21 6 18 3 3 6 19 12 12 6 20 12 12 7 21 3 3 7 22 13 13 7 23 13 13 8 24 3 3 8 25 22 22 8 26 22 22 9 27 3 3 9 28 4 4 9 29 22 22 10 30 4 4 10 31 23 23 10 32 23 23 11 33 4 4 11 34 5 5 11 35 23 23 12 36 5 5 12 37 24 24 12 38 24 24 13 39 5 5 13 40 14 14 13 41 14 14 14 42 5 5 14 43 6 6 14 44 14 14 15 45 6 6 15 46 15 15 15 47 15 15 16 48 6 6 16 49 25 25 16 50 25 25 17 51 6 6 17 52 7 7 17 53 25 25 18 54 7 7 18 55 26 26 18 56 26 26 19 57 7 7 19 58 8 8 19 59 26 26 20 60 8 8 20 61 27 27 20 62 27 27 21 63 8 8 21 64 16 16 21 65 16 16 22 66 8 8 22 67 9 9 22 68 16 16 23 69 9 9 23 70 17 17 23 71 17 17 24 72 9 9 24 73 28 28 24 74 28 28 25 75 9 9 25 76 10 10 25 77 28 28 26 78 10 10 26 79 29 29 26 80 29 29 27 81 10 10 27 82 11 11 27 83 29 29 28 84 11 11 28 85 30 30 28 86 30 30 29 87 11 11 29 88 0 0 29 89 30 30 30 90 0 0 30 91 18 18 30 92 17 17 31 93 28 28 31 94 16 16 31 95 13 13 32 96 22 22 32 97 12 12 32 98 15 15 33 99 25 25 33 100 14 14 33 101 28 28 34 102 29 29 34 103 38 38 34 104 28 28 35 105 38 38 35 106 39 39 35 107 29 29 36 108 30 30 36 109 38 38 36 110 30 30 37 111 18 18 37 112 31 31 37 113 30 30 38 114 31 31 38 115 38 38 38 116 18 18 39 117 19 19 39 118 31 31 39 119 19 19 40 120 20 20 40 121 32 32 40 122 19 19 41 123 32 32 41 124 31 31 41 125 20 20 42 126 21 21 42 127 32 32 42 128 21 21 43 129 12 12 43 130 33 33 43 131 21 21 44 132 33 33 44 133 32 32 44 134 12 12 45 135 22 22 45 136 33 33 45 137 22 22 46 138 23 23 46 139 34 34 46 140 22 22 47 141 34 34 47 142 33 33 47 143 23 23 48 144 24 24 48 145 34 34 48 146 24 24 49 147 14 14 49 148 34 34 49 149 14 14 50 150 35 35 50 151 34 34 50 152 14 14 51 153 25 25 51 154 35 35 51 155 25 25 52 156 26 26 52 157 36 36 52 158 25 25 53 159 36 36 53 160 35 35 53 161 26 26 54 162 27 27 54 163 37 37 54 164 26 26 55 165 37 37 55 166 36 36 55 167 27 27 56 168 16 16 56 169 37 37 56 170 16 16 57 171 28 28 57 172 39 39 57 173 16 16 58 174 39 39 58 175 37 37 58 176 38 38 59 177 31 31 59 178 39 39 59 179 31 31 60 180 32 32 60 181 39 39 60 182 32 32 61 183 33 33 61 184 39 39 61 185 33 33 62 186 34 34 62 187 39 39 62 188 34 34 63 189 35 35 63 190 39 39 63 191 35 35 64 192 36 36 64 193 39 39 64 194 36 36 65 195 37 37 65 196 39 39 65 197 6 6 66 198 42 42 66 199 43 43 66 200 6 6 67 201 5 5 67 202 42 42 67 203 5 5 68 204 4 4 68 205 42 42 68 206 4 4 69 207 3 3 69 208 41 41 69 209 4 4 70 210 41 41 70 211 42 42 70 212 3 3 71 213 2 2 71 214 41 41 71 215 2 2 72 216 1 1 72 217 41 41 72 218 1 1 73 219 0 0 73 220 40 40 73 221 1 1 74 222 40 40 74 223 41 41 74 224 0 0 75 225 11 11 75 226 40 40 75 227 11 11 76 228 44 44 76 229 40 40 76 230 11 11 77 231 10 10 77 232 44 44 77 233 10 10 78 234 9 9 78 235 44 44 78 236 9 9 79 237 8 8 79 238 43 43 79 239 9 9 80 240 43 43 80 241 44 44 80 242 8 8 81 243 7 7 81 244 43 43 81 245 7 7 82 246 6 6 82 247 43 43 82 248 44 44 83 249 50 50 83 250 51 51 83 251 44 44 84 252 43 43 84 253 50 50 84 254 43 43 85 255 49 49 85 256 50 50 85 257 43 43 86 258 42 42 86 259 49 49 86 260 42 42 87 261 48 48 87 262 49 49 87 263 42 42 88 264 41 41 88 265 47 47 88 266 42 42 89 267 47 47 89 268 48 48 89 269 41 41 90 270 46 46 90 271 47 47 90 272 41 41 91 273 40 40 91 274 46 46 91 275 40 40 92 276 45 45 92 277 46 46 92 278 40 40 93 279 44 44 93 280 45 45 93 281 44 44 94 282 51 51 94 283 45 45 94 284 50 50 95 285 49 49 95 286 51 51 95 287 49 49 96 288 48 48 96 289 51 51 96 290 48 48 97 291 47 47 97 292 51 51 97 293 47 47 98 294 46 46 98 295 51 51 98 296 46 46 99 297 45 45 99 298 51 51 99 299</p>
                </triangles>
            </mesh>
        </geometry>
    </library_geometries>
    <library_visual_scenes>
        <visual_scene id="VisualSceneNode" name="VisualScene">
            <node id="node" name="node">
                <instance_geometry url="#shape0-lib">
                    <bind_material>
                        <technique_common>
                            <instance_material symbol="material0" target="#material0">
                                <bind_vertex_input semantic="UVSET0" input_semantic="TEXCOORD"/>
                            </instance_material>
                        </technique_common>
                    </bind_material>
                </instance_geometry>
            </node>
        </visual_scene>
    </library_visual_scenes>
    <scene>
        <instance_visual_scene url="#VisualSceneNode"/>
    </scene>
</COLLADA>
