<?xml version="1.0" encoding="UTF-8"?>
<COLLADA xmlns="http://www.collada.org/2005/11/COLLADASchema" version="1.4.1">
    <asset>
        <contributor>
            <author>VCGLab</author>
            <authoring_tool>VCGLib | MeshLab</authoring_tool>
        </contributor>
        <created>Thu Jul 3 02:06:51 2025 GMT</created>
        <modified>Thu Jul 3 02:06:51 2025 GMT</modified>
        <up_axis>Y_UP</up_axis>
    </asset>
    <library_images>
        <image id="texture0" name="texture0">
            <init_from>./image/shelf_books.png</init_from>
        </image>
    </library_images>
    <library_materials>
        <material id="material0" name="material0">
            <instance_effect url="#material0-fx"/>
        </material>
    </library_materials>
    <library_effects>
        <effect id="material0-fx">
            <profile_COMMON>
                <newparam sid="texture0-surface">
                    <surface type="2D">
                        <init_from>texture0</init_from>
                        <format>R8G8B8</format>
                    </surface>
                </newparam>
                <newparam sid="texture0-sampler">
                    <sampler2D>
                        <source>texture0-surface</source>
                        <minfilter>LINEAR</minfilter>
                        <magfilter>LINEAR</magfilter>
                    </sampler2D>
                </newparam>
                <technique sid="common">
                    <blinn>
                        <diffuse>
                            <texture texture="texture0-sampler" texcoord="UVSET0"/>
                        </diffuse>
                    </blinn>
                </technique>
            </profile_COMMON>
        </effect>
    </library_effects>
    <library_geometries>
        <geometry id="shape0-lib" name="shape0">
            <mesh>
                <source id="shape0-lib-positions" name="position">
                    <float_array id="shape0-lib-positions-array" count="57">-0.164297 0.00492957 0.129146 -0.164295 0.0231761 0.129265 0.168675 0.000389799 0.124499 0.168682 0.0271913 0.124878 -0.164283 0.000291846 0.129823 -0.164293 0.0279937 0.129316 0.164171 0.0272703 -0.133385 -0.168778 0.0254431 -0.127573 0.164171 0.00197883 -0.133385 -0.168778 0.00140864 -0.127573 0.168618 0.00408346 0.12134 0.168622 0.02379 0.121597 0.160394 0.0229878 -0.13106 -0.160505 0.00566071 0.127695 0.164797 0.0231599 0.12115 0.164812 0.00621622 0.122073 -0.160505 0.0227371 0.127643 -0.164905 0.0102164 -0.124461 0.160389 0.0050254 -0.131369</float_array>
                    <technique_common>
                        <accessor count="19" source="#shape0-lib-positions-array" stride="3">
                            <param name="X" type="float"/>
                            <param name="Y" type="float"/>
                            <param name="Z" type="float"/>
                        </accessor>
                    </technique_common>
                </source>
                <source id="shape0-lib-normals" name="normal">
                    <float_array id="shape0-lib-normals-array" count="90">0.0157775 0.144423 0.98939 0.0133018 -0.0105513 0.999856 0.000224749 -0.999991 -0.00434268 0.00160448 -0.99998 -0.00618971 0.0132538 -0.0065325 0.999891 0.013761 -0.0141358 0.999805 -0.0056592 0.999936 -0.0098295 0.00241341 0.999997 0.000263791 -0.00185616 0.999964 -0.00822965 0.0022188 0.999903 -0.0137525 -0.0234063 0.0130599 -0.999641 -0.0230382 0.00653251 -0.999713 0.00164005 -0.999959 -0.0088549 0.00524754 -0.999892 -0.0137393 0.00139472 -0.999835 -0.0180885 -0.0158501 -0.999862 0.0049746 -0.0401732 0.997997 -0.048864 -0.00131308 0.999999 -0.000659462 0.0198566 0.0543883 0.998322 -0.0209541 0.0171764 -0.999633 -0.999848 -4.70175e-06 0.0174494 0.0172745 0.00303113 0.999846 0.999848 -2.96615e-06 -0.0174528 -0.999848 -0.000501408 0.0174564 -0.999848 0.000236508 0.0174529 0.999847 -0.000768312 -0.0174652 0.999836 -1.81055e-05 -0.0181078 0.999833 6.46696e-06 -0.0182682 0.999847 0.000537159 -0.0174588 0.999848 -2.47038e-05 -0.0174542</float_array>
                    <technique_common>
                        <accessor count="30" source="#shape0-lib-normals-array" stride="3">
                            <param name="X" type="float"/>
                            <param name="Y" type="float"/>
                            <param name="Z" type="float"/>
                        </accessor>
                    </technique_common>
                </source>
                <source id="shape0-lib-vcolor" name="vcolor">
                    <float_array id="shape0-lib-vcolor-array" count="76">1 1 1 1 1 1 1 1 1 1 1 1 1 1 1 1 1 1 1 1 1 1 1 1 1 1 1 1 1 1 1 1 1 1 1 1 1 1 1 1 1 1 1 1 1 1 1 1 1 1 1 1 1 1 1 1 1 1 1 1 1 1 1 1 1 1 1 1 1 1 1 1 1 1 1 1</float_array>
                    <technique_common>
                        <accessor count="19" source="#shape0-lib-vcolor-array" stride="4">
                            <param name="R" type="float"/>
                            <param name="G" type="float"/>
                            <param name="B" type="float"/>
                            <param name="A" type="float"/>
                        </accessor>
                    </technique_common>
                </source>
                <source id="shape0-lib-map" name="map">
                    <float_array id="shape0-lib-map-array" count="180">0.959463 0.786241 0.70924 0.788969 0.709287 0.785475 0.959459 0.811506 0.709291 0.812538 0.70924 0.808933 0.812539 0.701812 0.780907 0.701062 0.781542 0.679107 0.812539 0.701812 0.781542 0.679107 0.813173 0.679857 0.959459 0.811506 0.70924 0.808933 0.70924 0.788969 0.959459 0.811506 0.70924 0.788969 0.959463 0.786241 0.916427 0.655638 0.948059 0.654888 0.948693 0.676843 0.916427 0.655638 0.948693 0.676843 0.917062 0.677593 0.78154 0.595243 0.780913 0.573297 0.812553 0.572538 0.78154 0.595243 0.812553 0.572538 0.81318 0.594484 0.739233 0.193084 0.739233 0.188732 0.672908 0.188764 0.739233 0.193084 0.672908 0.188764 0.672909 0.193068 0.846433 0.595243 0.814793 0.594484 0.81542 0.572538 0.846433 0.595243 0.81542 0.572538 0.84706 0.573297 0.7458 0.300958 0.725381 0.300478 0.725792 0.286362 0.7458 0.300958 0.725792 0.286362 0.746211 0.286842 0.682055 0.302169 0.702473 0.301688 0.702885 0.315804 0.682055 0.302169 0.702885 0.315804 0.682466 0.316285 0.685877 0.137128 0.751145 0.133779 0.75115 0.137404 0.938182 0.458598 0.938183 0.451862 0.826607 0.4548 0.931381 0.243189 0.931253 0.249521 0.821826 0.245285 0.751145 0.133779 0.685877 0.137128 0.685876 0.133171 0.938026 0.34772 0.828115 0.345958 0.828276 0.353308 0.670607 0.517859 0.747034 0.517306 0.746794 0.519411 0.746924 0.5301 0.670607 0.52916 0.74682 0.527935 0.667528 0.513619 0.590847 0.513668 0.591815 0.512095 0.590847 0.513668 0.590929 0.501489 0.591871 0.503158 0.590847 0.513668 0.591871 0.503158 0.591815 0.512095 0.590929 0.501489 0.667528 0.501995 0.591871 0.503158 0.828276 0.353308 0.936597 0.355199 0.938026 0.34772</float_array>
                    <technique_common>
                        <accessor count="90" source="#shape0-lib-map-array" stride="2">
                            <param name="U" type="float"/>
                            <param name="V" type="float"/>
                        </accessor>
                    </technique_common>
                </source>
                <vertices id="shape0-lib-vertices">
                    <input semantic="POSITION" source="#shape0-lib-positions"/>
                </vertices>
                <triangles count="30" material="material0">
                    <input offset="0" semantic="VERTEX" source="#shape0-lib-vertices"/>
                    <input offset="1" semantic="COLOR" source="#shape0-lib-vcolor"/>
                    <input offset="2" semantic="NORMAL" source="#shape0-lib-normals"/>
                    <input offset="3" semantic="TEXCOORD" source="#shape0-lib-map"/>
                    <p>2 2 0 0 0 0 0 1 4 4 0 2 3 3 1 3 5 5 1 4 1 1 1 5 2 2 2 6 4 4 2 7 9 9 2 8 2 2 3 9 9 9 3 10 8 8 3 11 3 3 4 12 1 1 4 13 0 0 4 14 3 3 5 15 0 0 5 16 2 2 5 17 6 6 6 18 7 7 6 19 5 5 6 20 6 6 7 21 5 5 7 22 3 3 7 23 10 10 8 24 8 8 8 25 9 9 8 26 10 10 9 27 9 9 9 28 0 0 9 29 11 11 10 30 10 10 10 31 0 0 10 32 11 11 11 33 0 0 11 34 1 1 11 35 11 11 12 36 1 1 12 37 7 7 12 38 11 11 13 39 7 7 13 40 6 6 13 41 15 15 14 42 13 13 14 43 17 17 14 44 15 15 15 45 17 17 15 46 18 18 15 47 12 12 16 48 17 17 16 49 16 16 16 50 12 12 17 51 16 16 17 52 14 14 17 53 16 16 18 54 15 15 18 55 14 14 18 56 12 12 19 57 18 18 19 58 17 17 19 59 13 13 20 60 16 16 20 61 17 17 20 62 15 15 21 63 16 16 21 64 13 13 21 65 15 15 22 66 18 18 22 67 12 12 22 68 9 9 23 69 4 4 23 70 0 0 23 71 5 5 24 72 7 7 24 73 1 1 24 74 6 6 25 75 3 3 25 76 11 11 25 77 3 3 26 78 2 2 26 79 10 10 26 80 3 3 27 81 10 10 27 82 11 11 27 83 2 2 28 84 8 8 28 85 10 10 28 86 12 12 29 87 14 14 29 88 15 15 29 89</p>
                </triangles>
            </mesh>
        </geometry>
    </library_geometries>
    <library_visual_scenes>
        <visual_scene id="VisualSceneNode" name="VisualScene">
            <node id="node" name="node">
                <instance_geometry url="#shape0-lib">
                    <bind_material>
                        <technique_common>
                            <instance_material symbol="material0" target="#material0">
                                <bind_vertex_input semantic="UVSET0" input_semantic="TEXCOORD"/>
                            </instance_material>
                        </technique_common>
                    </bind_material>
                </instance_geometry>
            </node>
        </visual_scene>
    </library_visual_scenes>
    <scene>
        <instance_visual_scene url="#VisualSceneNode"/>
    </scene>
</COLLADA>
