<?xml version="1.0" encoding="UTF-8"?>
<COLLADA xmlns="http://www.collada.org/2005/11/COLLADASchema" version="1.4.1">
    <asset>
        <contributor>
            <author>VCGLab</author>
            <authoring_tool>VCGLib | MeshLab</authoring_tool>
        </contributor>
        <created>Thu Jul 3 02:08:16 2025 GMT</created>
        <modified>Thu Jul 3 02:08:16 2025 GMT</modified>
        <up_axis>Y_UP</up_axis>
    </asset>
    <library_images>
        <image id="texture0" name="texture0">
            <init_from>./image/shelf_books.png</init_from>
        </image>
    </library_images>
    <library_materials>
        <material id="material0" name="material0">
            <instance_effect url="#material0-fx"/>
        </material>
    </library_materials>
    <library_effects>
        <effect id="material0-fx">
            <profile_COMMON>
                <newparam sid="texture0-surface">
                    <surface type="2D">
                        <init_from>texture0</init_from>
                        <format>R8G8B8</format>
                    </surface>
                </newparam>
                <newparam sid="texture0-sampler">
                    <sampler2D>
                        <source>texture0-surface</source>
                        <minfilter>LINEAR</minfilter>
                        <magfilter>LINEAR</magfilter>
                    </sampler2D>
                </newparam>
                <technique sid="common">
                    <blinn>
                        <diffuse>
                            <texture texture="texture0-sampler" texcoord="UVSET0"/>
                        </diffuse>
                    </blinn>
                </technique>
            </profile_COMMON>
        </effect>
    </library_effects>
    <library_geometries>
        <geometry id="shape0-lib" name="shape0">
            <mesh>
                <source id="shape0-lib-positions" name="position">
                    <float_array id="shape0-lib-positions-array" count="57">-0.163584 0.00492955 0.13089 -0.163583 0.0231764 0.131009 0.169412 0.000390003 0.129149 0.169415 0.0271912 0.129527 -0.16358 0.000292026 0.131567 -0.163584 0.0279937 0.13106 0.167163 0.0272704 -0.128766 -0.165825 0.0254432 -0.12586 0.167163 0.00197888 -0.128766 -0.165825 0.00140869 -0.12586 0.169386 0.00408351 0.125989 0.169388 0.0237901 0.126246 0.163365 0.0229881 -0.126473 -0.15978 0.00566064 0.129471 0.165567 0.0231598 0.125766 0.165575 0.0062162 0.126689 -0.15978 0.0227371 0.129419 -0.161981 0.0102163 -0.122714 0.163363 0.00502566 -0.126782</float_array>
                    <technique_common>
                        <accessor count="19" source="#shape0-lib-positions-array" stride="3">
                            <param name="X" type="float"/>
                            <param name="Y" type="float"/>
                            <param name="Z" type="float"/>
                        </accessor>
                    </technique_common>
                </source>
                <source id="shape0-lib-normals" name="normal">
                    <float_array id="shape0-lib-normals-array" count="90">0.0071434 0.144533 0.989474 0.00457674 -0.010695 0.999932 0.000262708 -0.999991 -0.00434003 0.00165844 -0.99998 -0.00617483 0.00452669 -0.00652997 0.999968 0.0050348 -0.0141355 0.999887 -0.00557303 0.999936 -0.00987783 0.00241121 0.999997 0.000285555 -0.00178426 0.999964 -0.00824552 0.00233854 0.999903 -0.0137323 -0.0146816 0.0130585 -0.999807 -0.0143128 0.00653001 -0.999876 0.00171662 -0.99996 -0.0088392 0.00536709 -0.999892 -0.0136926 0.00155271 -0.999835 -0.0180751 -0.0158915 -0.999862 0.004835 -0.0397461 0.997997 -0.0492133 -0.00130661 0.999999 -0.000669309 0.0111406 0.0543741 0.998459 -0.0122268 0.0171701 -0.999778 -0.999962 4.6316e-06 0.00872891 0.00854602 0.00302977 0.999959 0.999962 6.34144e-06 -0.00872662 -0.999962 0.000409757 0.00872223 -0.999962 -0.000291308 0.00872645 0.999962 0.000506328 -0.0087174 0.999966 1.01556e-05 -0.00826946 0.999966 -1.91676e-06 -0.00819063 0.999962 -0.00037615 -0.00872101 0.999962 1.73363e-05 -0.00872589</float_array>
                    <technique_common>
                        <accessor count="30" source="#shape0-lib-normals-array" stride="3">
                            <param name="X" type="float"/>
                            <param name="Y" type="float"/>
                            <param name="Z" type="float"/>
                        </accessor>
                    </technique_common>
                </source>
                <source id="shape0-lib-vcolor" name="vcolor">
                    <float_array id="shape0-lib-vcolor-array" count="76">1 1 1 1 1 1 1 1 1 1 1 1 1 1 1 1 1 1 1 1 1 1 1 1 1 1 1 1 1 1 1 1 1 1 1 1 1 1 1 1 1 1 1 1 1 1 1 1 1 1 1 1 1 1 1 1 1 1 1 1 1 1 1 1 1 1 1 1 1 1 1 1 1 1 1 1</float_array>
                    <technique_common>
                        <accessor count="19" source="#shape0-lib-vcolor-array" stride="4">
                            <param name="R" type="float"/>
                            <param name="G" type="float"/>
                            <param name="B" type="float"/>
                            <param name="A" type="float"/>
                        </accessor>
                    </technique_common>
                </source>
                <source id="shape0-lib-map" name="map">
                    <float_array id="shape0-lib-map-array" count="180">0.971192 0.914499 0.720978 0.917227 0.720947 0.913733 0.971195 0.939763 0.720944 0.940796 0.720978 0.937191 0.91482 0.594738 0.882979 0.595243 0.882553 0.573043 0.91482 0.594738 0.882553 0.573043 0.914394 0.572538 0.971195 0.939763 0.720978 0.937191 0.720978 0.917227 0.971195 0.939763 0.720978 0.917227 0.971192 0.914499 0.781339 0.596757 0.81318 0.597263 0.812754 0.619462 0.781339 0.596757 0.812754 0.619462 0.780913 0.618956 0.814793 0.61895 0.815214 0.596757 0.84706 0.597269 0.814793 0.61895 0.84706 0.597269 0.846639 0.619462 0.742316 0.234792 0.742316 0.230439 0.67598 0.230471 0.742316 0.234792 0.67598 0.230471 0.67598 0.234775 0.88094 0.61895 0.849094 0.619462 0.848673 0.597269 0.88094 0.61895 0.848673 0.597269 0.880519 0.596757 0.702885 0.331288 0.682331 0.331612 0.682055 0.317339 0.702885 0.331288 0.682055 0.317339 0.702609 0.317015 0.703994 0.317015 0.724548 0.317339 0.724272 0.331612 0.703994 0.317015 0.724272 0.331612 0.703718 0.331288 0.68176 0.170908 0.747043 0.16756 0.74704 0.171184 0.93286 0.518169 0.932859 0.511433 0.821267 0.514371 0.934475 0.302759 0.934346 0.309091 0.824898 0.304855 0.747043 0.16756 0.68176 0.170908 0.681761 0.166952 0.934954 0.40879 0.82502 0.407028 0.825182 0.414378 0.670607 0.485842 0.747034 0.485289 0.746794 0.487395 0.746924 0.498083 0.670607 0.497143 0.74682 0.495918 0.667528 0.481602 0.590847 0.481651 0.591815 0.480079 0.590847 0.481651 0.590929 0.469473 0.591871 0.471141 0.590847 0.481651 0.591871 0.471141 0.591815 0.480079 0.590929 0.469473 0.667528 0.469979 0.591871 0.471141 0.825182 0.414378 0.933523 0.416269 0.934954 0.40879</float_array>
                    <technique_common>
                        <accessor count="90" source="#shape0-lib-map-array" stride="2">
                            <param name="U" type="float"/>
                            <param name="V" type="float"/>
                        </accessor>
                    </technique_common>
                </source>
                <vertices id="shape0-lib-vertices">
                    <input semantic="POSITION" source="#shape0-lib-positions"/>
                </vertices>
                <triangles count="30" material="material0">
                    <input offset="0" semantic="VERTEX" source="#shape0-lib-vertices"/>
                    <input offset="1" semantic="COLOR" source="#shape0-lib-vcolor"/>
                    <input offset="2" semantic="NORMAL" source="#shape0-lib-normals"/>
                    <input offset="3" semantic="TEXCOORD" source="#shape0-lib-map"/>
                    <p>2 2 0 0 0 0 0 1 4 4 0 2 3 3 1 3 5 5 1 4 1 1 1 5 2 2 2 6 4 4 2 7 9 9 2 8 2 2 3 9 9 9 3 10 8 8 3 11 3 3 4 12 1 1 4 13 0 0 4 14 3 3 5 15 0 0 5 16 2 2 5 17 6 6 6 18 7 7 6 19 5 5 6 20 6 6 7 21 5 5 7 22 3 3 7 23 10 10 8 24 8 8 8 25 9 9 8 26 10 10 9 27 9 9 9 28 0 0 9 29 11 11 10 30 10 10 10 31 0 0 10 32 11 11 11 33 0 0 11 34 1 1 11 35 11 11 12 36 1 1 12 37 7 7 12 38 11 11 13 39 7 7 13 40 6 6 13 41 15 15 14 42 13 13 14 43 17 17 14 44 15 15 15 45 17 17 15 46 18 18 15 47 12 12 16 48 17 17 16 49 16 16 16 50 12 12 17 51 16 16 17 52 14 14 17 53 16 16 18 54 15 15 18 55 14 14 18 56 12 12 19 57 18 18 19 58 17 17 19 59 13 13 20 60 16 16 20 61 17 17 20 62 15 15 21 63 16 16 21 64 13 13 21 65 15 15 22 66 18 18 22 67 12 12 22 68 9 9 23 69 4 4 23 70 0 0 23 71 5 5 24 72 7 7 24 73 1 1 24 74 6 6 25 75 3 3 25 76 11 11 25 77 3 3 26 78 2 2 26 79 10 10 26 80 3 3 27 81 10 10 27 82 11 11 27 83 2 2 28 84 8 8 28 85 10 10 28 86 12 12 29 87 14 14 29 88 15 15 29 89</p>
                </triangles>
            </mesh>
        </geometry>
    </library_geometries>
    <library_visual_scenes>
        <visual_scene id="VisualSceneNode" name="VisualScene">
            <node id="node" name="node">
                <instance_geometry url="#shape0-lib">
                    <bind_material>
                        <technique_common>
                            <instance_material symbol="material0" target="#material0">
                                <bind_vertex_input semantic="UVSET0" input_semantic="TEXCOORD"/>
                            </instance_material>
                        </technique_common>
                    </bind_material>
                </instance_geometry>
            </node>
        </visual_scene>
    </library_visual_scenes>
    <scene>
        <instance_visual_scene url="#VisualSceneNode"/>
    </scene>
</COLLADA>
