<?xml version="1.0" encoding="UTF-8"?>
<COLLADA xmlns="http://www.collada.org/2005/11/COLLADASchema" version="1.4.1">
    <asset>
        <contributor>
            <author>VCGLab</author>
            <authoring_tool>VCGLib | MeshLab</authoring_tool>
        </contributor>
        <created>Thu Jul 3 01:43:50 2025 GMT</created>
        <modified>Thu Jul 3 01:43:50 2025 GMT</modified>
        <up_axis>Y_UP</up_axis>
    </asset>
    <library_images>
        <image id="texture0" name="texture0">
            <init_from>./image/shelf_items.png</init_from>
        </image>
    </library_images>
    <library_materials>
        <material id="material0" name="material0">
            <instance_effect url="#material0-fx"/>
        </material>
    </library_materials>
    <library_effects>
        <effect id="material0-fx">
            <profile_COMMON>
                <newparam sid="texture0-surface">
                    <surface type="2D">
                        <init_from>texture0</init_from>
                        <format>R8G8B8</format>
                    </surface>
                </newparam>
                <newparam sid="texture0-sampler">
                    <sampler2D>
                        <source>texture0-surface</source>
                        <minfilter>LINEAR</minfilter>
                        <magfilter>LINEAR</magfilter>
                    </sampler2D>
                </newparam>
                <technique sid="common">
                    <blinn>
                        <diffuse>
                            <texture texture="texture0-sampler" texcoord="UVSET0"/>
                        </diffuse>
                    </blinn>
                </technique>
            </profile_COMMON>
        </effect>
    </library_effects>
    <library_geometries>
        <geometry id="shape0-lib" name="shape0">
            <mesh>
                <source id="shape0-lib-positions" name="position">
                    <float_array id="shape0-lib-positions-array" count="381">0.88823 0.470842 -0.0820741 0.964769 0.455671 0.0196626 0.911113 0.471022 -0.111957 1.02676 0.486635 -0.0673144 0.842939 0.456052 -0.0233743 0.935256 0.479037 0.0452216 0.813057 0.456733 0.00244343 0.913889 0.456562 0.0899783 0.874686 0.447963 -0.0596389 0.865331 0.420694 -0.0438637 0.905595 0.437904 -0.0895627 1.00633 0.469794 -0.0242301 0.928923 0.469712 -0.126484 0.933698 0.439348 -0.128402 0.933032 0.40423 -0.123447 0.951148 0.467269 -0.134357 1.02563 0.428851 -0.0623237 0.932473 0.450713 0.062342 0.92808 0.42964 0.0541479 0.799697 0.44879 0.0297385 0.896894 0.427033 0.0829112 0.890847 0.456141 0.112427 0.912906 0.418908 -0.06945 0.963766 0.41923 -0.0305316 1.00588 0.513581 -0.11572 0.933528 0.408433 -0.104605 0.988323 0.403609 -0.09449 1.01732 0.403255 -0.0543009 1.00571 0.408559 -0.110042 0.890598 0.485888 0.0558649 0.933532 0.509084 0.0177577 0.862933 0.497544 -0.00314253 0.892074 0.515381 -0.029117 0.902489 0.401463 0.0170021 0.810406 0.484918 0.127502 0.844898 0.483865 0.0357767 0.815017 0.482854 0.0438523 0.819978 0.488341 0.106494 0.7939 0.485583 0.103901 0.810874 0.426649 0.0738089 1.01857 0.492367 -0.109419 0.794769 0.482462 0.114228 1.02132 0.469457 -0.117316 1.0277 0.445096 -0.114447 1.01632 0.422701 -0.117791 0.98858 0.479413 -0.14187 0.988923 0.445934 -0.148584 0.819322 0.456866 0.112662 0.821406 0.433689 0.0997142 0.804864 0.457886 0.0998437 0.971638 0.495142 0.00213802 0.99269 0.510665 -0.0266601 0.89437 0.511424 -0.058955 0.877185 0.500743 -0.0335792 0.907669 0.508813 -0.0906038 0.890426 0.417914 -0.0645673 0.869423 0.40688 -0.0353056 0.905788 0.423291 -0.0845706 0.969634 0.418192 -0.00171608 0.985721 0.421321 -0.0206351 0.946463 0.40814 0.0246847 1.01076 0.510522 -0.0516939 0.929254 0.509948 -0.11181 0.957848 0.50966 -0.129553 0.981062 0.511077 -0.132961 0.91754 0.417582 -0.10121 0.945594 0.402486 -0.138085 0.962679 0.405334 -0.138942 1.00234 0.413918 -0.038119 1.02702 0.400977 -0.0705762 1.02875 0.405387 -0.0847291 0.90974 0.496714 0.0357521 0.85342 0.486937 -0.0152428 0.820097 0.476907 0.0167778 0.834353 0.404929 0.028461 0.852079 0.402265 -0.00608498 0.832228 0.430809 -0.00182939 0.884867 0.402064 0.0597887 0.903218 0.406941 0.0625544 0.923527 0.404456 0.0446832 0.8872 0.48272 0.0782862 0.860222 0.484963 0.100307 0.839358 0.479436 0.127664 0.796013 0.482918 0.0770321 0.792667 0.466642 0.0480581 0.817893 0.420668 0.0461833 0.88563 0.410325 0.0778913 0.858079 0.416801 0.0896604 0.846293 0.429529 0.107155 1.02235 0.51162 -0.0864678 1.02643 0.468958 -0.0973813 1.03217 0.424727 -0.0980331 0.972335 0.424456 -0.148921 0.867934 0.465254 0.121949 0.84563 0.447666 0.115748 0.869313 0.424872 0.0984369 0.787119 0.476936 0.0928638 0.788572 0.466019 0.0633621 1.00233 0.519436 -0.0961074 1.00647 0.518254 -0.0843281 0.981485 0.519079 -0.113353 0.981596 0.512626 -0.109938 0.963426 0.517226 -0.117181 0.940977 0.516836 -0.10731 0.915623 0.516366 -0.0855243 0.920964 0.509324 -0.0823111 0.899922 0.51515 -0.0555312 0.900297 0.514234 -0.0114858 0.921499 0.514266 0.00567272 0.93584 0.513826 0.00512559 0.987275 0.515212 -0.0340097 1.00212 0.516619 -0.0608407 0.923379 0.481726 0.0010918 0.929688 0.4605 -0.00685799 0.962729 0.51663 -0.00998776 0.996328 0.482689 -0.058429 0.952574 0.453517 -0.0224977 0.978783 0.454514 -0.0444292 0.990544 0.455363 -0.0701387 0.996679 0.464162 -0.0882066 0.999202 0.48832 -0.0941417 0.980258 0.488261 -0.10961 0.958214 0.468265 -0.107305 0.969057 0.457359 -0.10016 0.942032 0.502332 -0.10347 0.901685 0.468166 -0.0257305 0.914299 0.458073 -0.0597535</float_array>
                    <technique_common>
                        <accessor count="127" source="#shape0-lib-positions-array" stride="3">
                            <param name="X" type="float"/>
                            <param name="Y" type="float"/>
                            <param name="Z" type="float"/>
                        </accessor>
                    </technique_common>
                </source>
                <source id="shape0-lib-normals" name="normal">
                    <float_array id="shape0-lib-normals-array" count="750">-0.916985 0.210674 -0.338754 0.71957 0.173327 0.672441 0.679967 0.195438 0.706717 0.700581 0.272982 0.659293 -0.573939 0.359024 -0.736 -0.767163 0.261129 -0.585894 -0.314572 0.155827 -0.936356 -0.597592 0.387593 -0.701894 -0.693933 0.39414 -0.602586 -0.662021 0.356778 -0.659119 -0.70648 0.556877 -0.436776 -0.904117 0.0755298 -0.420556 0.829759 0.226736 0.509991 0.48021 0.716272 0.506313 -0.714533 -0.226185 -0.66203 -0.63584 -0.211315 -0.74233 -0.71373 -0.267712 -0.64724 0.754221 -0.27649 0.595571 0.741669 -0.257109 0.619533 0.773141 -0.235536 0.588876 -0.633513 -0.0508776 -0.772058 -0.754003 -0.215464 -0.620528 -0.838273 -0.202609 -0.506209 -0.763824 -0.269334 -0.586542 -0.835816 -0.0611188 -0.545597 -0.441461 0.0853783 -0.89321 -0.333209 0.00714046 -0.942826 -0.761137 -0.0764306 -0.644073 -0.438738 0.0932102 -0.893768 0.900323 0.0198553 0.434768 0.765606 -0.206118 0.609396 0.656543 -0.225755 0.719712 0.983551 -0.00373334 0.180594 0.987773 0.129394 -0.0869537 -0.759889 -0.10996 -0.640685 -0.618999 -0.341134 -0.707437 -0.793802 -0.1632 -0.58587 0.74707 0.288569 0.598844 0.746653 -0.221272 0.627334 0.761939 -0.366467 0.533996 -0.735742 -0.462521 -0.49473 -0.685947 -0.643008 -0.340614 0.659133 -0.51132 0.551448 0.625735 -0.449183 0.637722 0.641585 -0.390466 0.660231 0.609635 -0.49838 0.61641 0.428229 -0.598007 0.677501 0.143244 -0.97334 -0.179139 0.127276 -0.975134 -0.181425 0.172736 -0.974731 -0.141641 0.364984 0.919847 -0.143765 0.288576 0.884279 -0.367117 0.0906736 0.958647 -0.269766 -0.0149905 0.925869 -0.377548 -0.121081 -0.974017 0.191393 -0.148123 -0.968206 0.201585 -0.111545 -0.984589 0.134694 0.156799 -0.979242 -0.128453 0.161283 -0.978176 -0.130998 -0.363369 -0.896279 0.254258 -0.0628575 -0.939078 0.337908 -0.0945593 -0.974855 0.201781 0.0926755 -0.97407 -0.206395 0.110309 -0.952658 -0.283327 -0.111933 -0.991102 0.0720248 -0.0977072 0.875728 0.472815 -0.312571 0.868542 0.384621 -0.157244 0.952221 0.261819 -0.223298 0.931045 0.288605 -0.303699 0.871915 0.384099 -0.355153 0.907408 0.22467 -0.0187765 -0.999804 0.00630134 -0.079015 -0.996212 0.0362958 0.0439531 -0.990494 -0.130344 0.179444 0.954715 0.237318 0.057896 0.99785 -0.0307228 -0.0984832 0.987307 0.124607 -0.0360851 0.999313 -0.00842984 0.0691544 0.993311 -0.0924738 -0.129885 0.988589 -0.0762994 -0.0941879 0.98994 -0.105585 -0.115204 0.98741 0.108398 -0.287458 -0.91328 0.288597 -0.218739 -0.938582 0.266864 -0.305654 -0.880055 0.363426 -0.274115 -0.856072 0.43818 0.679721 0.196629 -0.706623 0.822613 0.361641 -0.438775 0.512307 0.343123 -0.787279 -0.388567 0.87247 0.296331 -0.879667 0.429698 0.203826 0.659454 0.0846385 -0.746965 0.622909 0.159961 -0.765765 0.628774 0.319882 -0.708745 0.642441 -0.216761 -0.735041 0.758949 -0.29939 -0.57824 0.707124 -0.481303 -0.518 0.502503 -0.673744 -0.541812 0.521352 -0.39077 -0.758611 0.417831 -0.657131 -0.627372 0.482229 -0.584186 -0.652826 -0.323609 -0.414721 0.850461 -0.268099 -0.488119 0.83058 -0.588254 -0.516266 0.622436 -0.471418 -0.581639 0.662919 -0.738476 -0.539821 0.404038 -0.617006 -0.425364 0.662094 0.481496 0.573582 0.662696 0.482537 0.573585 0.661936 0.481311 0.606264 0.633075 -0.551463 0.779894 -0.296064 -0.670433 0.727055 -0.148025 -0.83548 0.36196 -0.413471 -0.853053 0.349711 -0.387303 -0.0413098 -0.924735 -0.378364 -0.0163898 -0.962359 -0.271287 -0.742509 -0.22532 -0.630802 -0.567415 -0.548544 -0.614117 0.12163 -0.990733 -0.0604549 0.302346 -0.948379 -0.0957339 0.398929 0.902674 0.161354 0.837504 0.239865 0.49097 0.871538 0.385947 0.302435 0.776171 0.292226 0.558715 -0.46251 0.775779 -0.429246 -0.35069 0.851531 -0.389758 -0.255786 0.794857 -0.55025 -0.251716 0.872009 -0.419809 -0.673259 0.316277 -0.66835 -0.509992 0.240783 -0.825791 -0.123122 0.870361 -0.476773 -0.502267 -0.863911 -0.0372299 -0.473418 -0.880244 -0.0323388 -0.452839 -0.867596 0.205461 -0.831482 -0.189415 -0.522264 0.114015 -0.970279 0.213446 0.726877 -0.0208305 0.686451 0.846705 -0.111854 0.520173 0.992022 0.0122419 0.125467 0.26322 0.72245 0.63936 0.196028 0.667681 0.718175 -0.647428 0.727634 -0.226685 -0.371754 0.916174 0.149746 -0.649166 0.577929 -0.494552 -0.521957 0.801368 -0.292183 -0.60367 0.771322 -0.201604 -0.750962 -0.450234 -0.483059 -0.699202 -0.514592 -0.496298 -0.788574 -0.493762 -0.366538 0.151517 -0.98842 -0.00828787 0.191966 -0.918442 0.345851 0.0799393 -0.995696 0.0469 0.585858 -0.375762 0.718034 0.643878 -0.368419 0.670588 0.440259 0.700341 0.561867 0.18794 0.968168 0.165314 0.123769 0.950098 0.286347 0.474799 0.718331 0.508494 0.489726 0.724396 0.4852 -0.0950722 0.968403 -0.230557 -0.697104 0.706021 -0.124822 -0.826872 0.52569 -0.199832 -0.593157 0.729232 -0.341153 -0.597777 0.752147 -0.277376 -0.705213 -0.708527 -0.0257651 -0.815201 -0.467348 -0.342101 -0.035783 -0.908595 0.416143 0.17803 -0.898025 0.402314 0.0798379 -0.782544 0.617455 0.449337 -0.520991 0.725717 0.492918 -0.537822 0.683944 0.0767756 -0.780926 0.619887 0.981892 0.030259 -0.187009 -0.155168 0.233249 -0.959957 -0.240196 0.146703 -0.959575 0.463077 0.731206 0.500896 -0.800324 0.548401 -0.24236 0.950934 0.196657 -0.238852 0.957841 0.242935 -0.153374 0.985702 0.129434 -0.107882 0.946308 0.219749 -0.237089 0.98163 -0.0461214 0.185137 -0.251506 0.187824 -0.949456 -0.242926 0.202495 -0.948674 0.0353384 -0.476316 -0.878564 -0.0739207 -0.363002 0.928851 -0.275693 -0.516506 0.810688 0.0144016 -0.348673 0.937134 0.159582 -0.492629 0.855482 0.151039 -0.493523 0.856517 0.250353 -0.406996 0.878452 -0.752327 -0.629038 0.195744 -0.959054 -0.109718 -0.26111 -0.74051 -0.508606 0.439278 -0.863027 -0.410929 0.293805 -0.866127 -0.498864 -0.0309629 -0.814075 -0.57489 -0.0823587 0.594856 0.793375 -0.129241 -0.229107 0.452297 0.861938 -0.596542 0.367448 0.713527 0.492881 0.641856 0.587443 0.726635 0.224714 0.649235 0.384611 0.262279 0.885033 -0.455962 0.866403 -0.20358 -0.484716 0.861441 -0.151555 0.652148 0.662634 0.368264 0.0422755 0.932799 0.357909 0.109865 0.923764 0.366864 0.343208 0.8907 0.298097 0.38786 0.883982 0.261038 0.361653 0.896482 0.255982 0.462253 0.874586 0.146362 0.62237 0.144261 -0.769314 -0.0335524 0.137423 -0.989944 -0.491443 0.29379 -0.81986 -0.6498 0.332372 -0.683586 -0.757008 0.15615 -0.634473 -0.627328 0.247312 -0.738442 -0.495003 0.244894 -0.833666 -0.427833 0.202726 -0.88083 -0.871667 0.11505 -0.476404 -0.973424 0.154265 -0.169256 -0.942556 0.278529 -0.184415 -0.857831 0.344858 -0.38105 -0.968057 0.247703 -0.038842 -0.933579 0.115367 0.339294 -0.576103 0.10914 0.810058 -0.993961 0.0875271 -0.0661826 -0.631912 0.0451043 0.773727 -0.363006 0.032461 0.931221 -0.0846104 0.205676 0.974956 -0.232565 0.360525 0.903291 -0.445322 0.405528 0.79827 -0.613133 0.248268 0.749954 0.471716 0.125833 0.872726 0.726507 0.195469 0.658772 0.684604 0.248042 0.685414 0.792882 0.156141 0.589032 0.936581 0.215465 0.276388 0.935303 0.210785 0.284214 0.899305 0.153707 -0.40942 0.696009 0.231182 -0.679798 0.58245 0.431203 -0.68907 0.0344296 0.995665 0.0864065 0.0448448 0.998062 0.0431366 0.350685 0.925283 -0.14447 0.221317 0.969109 -0.108841 -0.351854 0.883036 0.310556 0.40128 0.746608 0.530613 0.0284911 0.998534 0.0460146</float_array>
                    <technique_common>
                        <accessor count="250" source="#shape0-lib-normals-array" stride="3">
                            <param name="X" type="float"/>
                            <param name="Y" type="float"/>
                            <param name="Z" type="float"/>
                        </accessor>
                    </technique_common>
                </source>
                <source id="shape0-lib-vcolor" name="vcolor">
                    <float_array id="shape0-lib-vcolor-array" count="508">1 1 1 1 1 1 1 1 1 1 1 1 1 1 1 1 1 1 1 1 1 1 1 1 1 1 1 1 1 1 1 1 1 1 1 1 1 1 1 1 1 1 1 1 1 1 1 1 1 1 1 1 1 1 1 1 1 1 1 1 1 1 1 1 1 1 1 1 1 1 1 1 1 1 1 1 1 1 1 1 1 1 1 1 1 1 1 1 1 1 1 1 1 1 1 1 1 1 1 1 1 1 1 1 1 1 1 1 1 1 1 1 1 1 1 1 1 1 1 1 1 1 1 1 1 1 1 1 1 1 1 1 1 1 1 1 1 1 1 1 1 1 1 1 1 1 1 1 1 1 1 1 1 1 1 1 1 1 1 1 1 1 1 1 1 1 1 1 1 1 1 1 1 1 1 1 1 1 1 1 1 1 1 1 1 1 1 1 1 1 1 1 1 1 1 1 1 1 1 1 1 1 1 1 1 1 1 1 1 1 1 1 1 1 1 1 1 1 1 1 1 1 1 1 1 1 1 1 1 1 1 1 1 1 1 1 1 1 1 1 1 1 1 1 1 1 1 1 1 1 1 1 1 1 1 1 1 1 1 1 1 1 1 1 1 1 1 1 1 1 1 1 1 1 1 1 1 1 1 1 1 1 1 1 1 1 1 1 1 1 1 1 1 1 1 1 1 1 1 1 1 1 1 1 1 1 1 1 1 1 1 1 1 1 1 1 1 1 1 1 1 1 1 1 1 1 1 1 1 1 1 1 1 1 1 1 1 1 1 1 1 1 1 1 1 1 1 1 1 1 1 1 1 1 1 1 1 1 1 1 1 1 1 1 1 1 1 1 1 1 1 1 1 1 1 1 1 1 1 1 1 1 1 1 1 1 1 1 1 1 1 1 1 1 1 1 1 1 1 1 1 1 1 1 1 1 1 1 1 1 1 1 1 1 1 1 1 1 1 1 1 1 1 1 1 1 1 1 1 1 1 1 1 1 1 1 1 1 1 1 1 1 1 1 1 1 1 1 1 1 1 1 1 1 1 1 1 1 1 1 1 1 1 1 1 1 1 1 1 1 1 1 1 1 1 1 1 1 1 1 1 1 1 1 1 1 1 1 1 1 1 1 1 1 1 1 1 1 1 1 1 1 1 1 1 1 1 1</float_array>
                    <technique_common>
                        <accessor count="127" source="#shape0-lib-vcolor-array" stride="4">
                            <param name="R" type="float"/>
                            <param name="G" type="float"/>
                            <param name="B" type="float"/>
                            <param name="A" type="float"/>
                        </accessor>
                    </technique_common>
                </source>
                <source id="shape0-lib-map" name="map">
                    <float_array id="shape0-lib-map-array" count="1500">0.0479736 0.761691 0.0554728 0.753918 0.0646989 0.771236 0.076212 0.673683 0.0941329 0.677164 0.0822794 0.686749 0.076212 0.673683 0.0822794 0.686749 0.0632405 0.684451 0.076212 0.673683 0.0632405 0.684451 0.0647392 0.669667 0.068986 0.800624 0.0531951 0.812039 0.0628866 0.798979 0.0375843 0.761687 0.0479736 0.761691 0.0447918 0.773544 0.0531951 0.812039 0.0548735 0.798396 0.0628866 0.798979 0.0678298 0.756549 0.076668 0.756962 0.0706915 0.766822 0.0678298 0.756549 0.0706915 0.766822 0.0646989 0.771236 0.0678298 0.756549 0.0646989 0.771236 0.0554728 0.753918 0.0922616 0.760276 0.081531 0.763414 0.076668 0.756962 0.0922616 0.760276 0.076668 0.756962 0.0861551 0.753977 0.110063 0.683632 0.0993903 0.687153 0.0941329 0.677164 0.118452 0.680511 0.110063 0.683632 0.111373 0.672306 0.0554728 0.753918 0.0479736 0.761691 0.0452468 0.750475 0.0810766 0.789365 0.0792349 0.783648 0.0885614 0.785031 0.0810766 0.789365 0.0727112 0.789388 0.0792349 0.783648 0.0757541 0.69749 0.0673189 0.697067 0.0632405 0.684451 0.0757541 0.69749 0.0632405 0.684451 0.0822794 0.686749 0.0757541 0.69749 0.0822794 0.686749 0.0865713 0.69961 0.0375843 0.761687 0.0326619 0.756825 0.0324386 0.750444 0.0375843 0.761687 0.0324386 0.750444 0.0389865 0.747814 0.0375843 0.761687 0.0389865 0.747814 0.0452468 0.750475 0.0375843 0.761687 0.0452468 0.750475 0.0479736 0.761691 0.0389865 0.747814 0.0324386 0.750444 0.0329048 0.743605 0.0548735 0.798396 0.047436 0.783999 0.061022 0.788741 0.0548735 0.798396 0.061022 0.788741 0.0628866 0.798979 0.061022 0.788741 0.0567092 0.777184 0.061635 0.777916 0.061022 0.788741 0.047436 0.783999 0.0567092 0.777184 0.0632405 0.684451 0.049269 0.697147 0.0475327 0.678402 0.0596213 0.700183 0.049269 0.697147 0.0632405 0.684451 0.0596213 0.700183 0.0632405 0.684451 0.0673189 0.697067 0.0475327 0.678402 0.049269 0.697147 0.0381857 0.696551 0.0475327 0.678402 0.0381857 0.696551 0.0393402 0.682125 0.0678298 0.756549 0.0554728 0.753918 0.0608835 0.745209 0.0678298 0.756549 0.0754035 0.748112 0.076668 0.756962 0.0754035 0.748112 0.0678298 0.756549 0.0608835 0.745209 0.0993903 0.687153 0.0822794 0.686749 0.0941329 0.677164 0.0947945 0.694517 0.0865713 0.69961 0.0822794 0.686749 0.0947945 0.694517 0.0822794 0.686749 0.0993903 0.687153 0.0754035 0.748112 0.0861551 0.753977 0.076668 0.756962 0.0754035 0.748112 0.0916567 0.745203 0.0861551 0.753977 0.0929027 0.776876 0.101168 0.773478 0.105095 0.783834 0.105095 0.783834 0.10093 0.792009 0.0926372 0.785031 0.105095 0.783834 0.0926372 0.785031 0.0929027 0.776876 0.110072 0.771636 0.105095 0.783834 0.101168 0.773478 0.114826 0.783894 0.105095 0.783834 0.110072 0.771636 0.061623 0.733926 0.0612689 0.714621 0.0824692 0.719878 0.061623 0.733926 0.0824692 0.719878 0.076869 0.737778 0.0612689 0.714621 0.0763702 0.708805 0.0824692 0.719878 0.0373143 0.66403 0.0457854 0.665179 0.0428031 0.668806 0.0451918 0.812718 0.0451017 0.815382 0.0416906 0.816007 0.0451918 0.812718 0.0416906 0.816007 0.0378566 0.813339 0.0451918 0.812718 0.0511939 0.815079 0.0451017 0.815382 0.0493452 0.735884 0.0416069 0.721117 0.0612689 0.714621 0.0493452 0.735884 0.0612689 0.714621 0.061623 0.733926 0.0416069 0.721117 0.0493452 0.735884 0.039582 0.739019 0.0416069 0.721117 0.039582 0.739019 0.0358901 0.734135 0.0416069 0.721117 0.0358901 0.734135 0.034757 0.719686 0.0511892 0.706603 0.0416069 0.721117 0.0449498 0.706564 0.0511892 0.706603 0.0588605 0.707334 0.0612689 0.714621 0.0511892 0.706603 0.0612689 0.714621 0.0416069 0.721117 0.0416069 0.721117 0.034757 0.719686 0.0360097 0.71005 0.0416069 0.721117 0.0360097 0.71005 0.03957 0.707346 0.0416069 0.721117 0.03957 0.707346 0.0449498 0.706564 0.133567 0.699091 0.127699 0.706725 0.124715 0.703168 0.133567 0.699091 0.124715 0.703168 0.119444 0.697037 0.121843 0.685218 0.134611 0.679418 0.138934 0.691538 0.121843 0.685218 0.138934 0.691538 0.133567 0.699091 0.121843 0.685218 0.133567 0.699091 0.119444 0.697037 0.121843 0.685218 0.119444 0.697037 0.113589 0.693966 0.0865405 0.735947 0.0824692 0.719878 0.0954715 0.716274 0.0865405 0.735947 0.0954715 0.716274 0.09771 0.733824 0.0865405 0.735947 0.076869 0.737778 0.0824692 0.719878 0.129763 0.763545 0.135758 0.763448 0.127021 0.764207 0.107397 0.664003 0.121721 0.669996 0.111373 0.672306 0.107397 0.664003 0.111373 0.672306 0.104208 0.67005 0.107397 0.664003 0.119403 0.661944 0.121721 0.669996 0.129566 0.664219 0.121721 0.669996 0.119403 0.661944 0.129566 0.664219 0.119403 0.661944 0.127072 0.661272 0.15482 0.669342 0.14707 0.664282 0.155855 0.663762 0.15482 0.669342 0.155855 0.663762 0.160794 0.667511 0.09771 0.733824 0.107549 0.716619 0.112622 0.730514 0.09771 0.733824 0.0954715 0.716274 0.107549 0.716619 0.112622 0.730514 0.107549 0.716619 0.115939 0.724314 0.107549 0.716619 0.114201 0.716607 0.115939 0.724314 0.0378566 0.813339 0.035378 0.807169 0.0423123 0.802253 0.0373143 0.66403 0.0428031 0.668806 0.0369314 0.672768 0.0451918 0.812718 0.0378566 0.813339 0.0423123 0.802253 0.139178 0.766035 0.135758 0.763448 0.138078 0.764459 0.159071 0.663942 0.155855 0.663762 0.155392 0.662259 0.0336797 0.799677 0.0326619 0.791285 0.0417619 0.790944 0.0336797 0.799677 0.0417619 0.790944 0.0423123 0.802253 0.0336797 0.799677 0.0423123 0.802253 0.035378 0.807169 0.0342511 0.7842 0.0417619 0.790944 0.0326619 0.791285 0.0352233 0.694593 0.0340184 0.688529 0.0381857 0.696551 0.0352233 0.694593 0.0381857 0.696551 0.041746 0.702484 0.0352233 0.694593 0.041746 0.702484 0.0399603 0.699853 0.047436 0.783999 0.0417619 0.790944 0.0342511 0.7842 0.047436 0.783999 0.0342511 0.7842 0.0380662 0.779662 0.047436 0.783999 0.0380662 0.779662 0.0506619 0.777848 0.129593 0.782013 0.123134 0.782445 0.124061 0.775493 0.129593 0.782013 0.124061 0.775493 0.13172 0.77347 0.134774 0.774389 0.13172 0.77347 0.135758 0.763448 0.134774 0.774389 0.135758 0.763448 0.139178 0.766035 0.109782 0.757023 0.114707 0.764572 0.107511 0.763183 0.109775 0.749577 0.112943 0.755709 0.109782 0.757023 0.0748113 0.665499 0.0865628 0.665692 0.076212 0.673683 0.0748113 0.665499 0.076212 0.673683 0.0647392 0.669667 0.076212 0.673683 0.0865628 0.665692 0.0941329 0.677164 0.0556769 0.774644 0.0453324 0.775716 0.0447918 0.773544 0.0556769 0.774644 0.0646989 0.771236 0.0683917 0.774464 0.0556769 0.774644 0.0479736 0.761691 0.0646989 0.771236 0.0556769 0.774644 0.0447918 0.773544 0.0479736 0.761691 0.0670529 0.738519 0.061623 0.733926 0.076869 0.737778 0.0670529 0.738519 0.0589595 0.739021 0.061623 0.733926 0.0792349 0.783648 0.0727112 0.789388 0.0727022 0.784929 0.0792349 0.783648 0.0876772 0.780873 0.0885614 0.785031 0.0666644 0.707625 0.0612689 0.714621 0.0588605 0.707334 0.0666644 0.707625 0.0763702 0.708805 0.0612689 0.714621 0.054685 0.670027 0.0428031 0.668806 0.0457854 0.665179 0.054685 0.670027 0.0632405 0.684451 0.0475327 0.678402 0.054685 0.670027 0.0475327 0.678402 0.0428031 0.668806 0.054685 0.670027 0.0647392 0.669667 0.0632405 0.684451 0.063572 0.812692 0.0720513 0.812449 0.0701433 0.814733 0.063572 0.812692 0.0701433 0.814733 0.0600042 0.815131 0.063572 0.812692 0.0600042 0.815131 0.0511939 0.815079 0.063572 0.812692 0.0511939 0.815079 0.0531951 0.812039 0.0376483 0.771732 0.0375843 0.761687 0.0447918 0.773544 0.063572 0.812692 0.0531951 0.812039 0.068986 0.800624 0.0531951 0.812039 0.0511939 0.815079 0.0451918 0.812718 0.0514095 0.739865 0.0493452 0.735884 0.061623 0.733926 0.0514095 0.739865 0.061623 0.733926 0.0589595 0.739021 0.0514095 0.739865 0.0447277 0.739896 0.0493452 0.735884 0.06765 0.782629 0.0727022 0.784929 0.0727112 0.789388 0.039582 0.739019 0.0493452 0.735884 0.0447277 0.739896 0.0596213 0.700183 0.0523701 0.704481 0.049269 0.697147 0.0465629 0.704769 0.049269 0.697147 0.0523701 0.704481 0.0465629 0.704769 0.042638 0.703179 0.049269 0.697147 0.0951762 0.668404 0.104208 0.67005 0.0941329 0.677164 0.0951762 0.668404 0.0941329 0.677164 0.0865628 0.665692 0.121843 0.685218 0.113589 0.693966 0.112417 0.689505 0.121843 0.685218 0.128193 0.671899 0.134611 0.679418 0.0706915 0.766822 0.076668 0.756962 0.081531 0.763414 0.118184 0.682594 0.128193 0.671899 0.121843 0.685218 0.118184 0.682594 0.121843 0.685218 0.112417 0.689505 0.0720057 0.74019 0.0754035 0.748112 0.0608835 0.745209 0.0720057 0.74019 0.0608835 0.745209 0.0633771 0.740802 0.0720057 0.74019 0.0832479 0.740652 0.0754035 0.748112 0.0855057 0.710242 0.0824692 0.719878 0.0763702 0.708805 0.0855057 0.710242 0.0933754 0.711155 0.0954715 0.716274 0.0855057 0.710242 0.0954715 0.716274 0.0824692 0.719878 0.0928696 0.793652 0.0926372 0.785031 0.10093 0.792009 0.0955897 0.698421 0.0865713 0.69961 0.0947945 0.694517 0.111373 0.672306 0.110063 0.683632 0.0941329 0.677164 0.111373 0.672306 0.0941329 0.677164 0.104208 0.67005 0.120662 0.764342 0.129763 0.763545 0.127021 0.764207 0.121721 0.669996 0.118452 0.680511 0.111373 0.672306 0.120662 0.764342 0.117886 0.768651 0.110072 0.771636 0.136825 0.670283 0.134611 0.679418 0.128193 0.671899 0.14707 0.664282 0.150691 0.662934 0.155855 0.663762 0.138774 0.66534 0.142304 0.663422 0.14707 0.664282 0.138774 0.66534 0.14707 0.664282 0.136825 0.670283 0.138774 0.66534 0.136825 0.670283 0.128193 0.671899 0.09771 0.733824 0.112622 0.730514 0.106564 0.733512 0.0832479 0.740652 0.0916567 0.745203 0.0754035 0.748112 0.0996603 0.712061 0.107549 0.716619 0.0954715 0.716274 0.0996603 0.712061 0.0954715 0.716274 0.0933754 0.711155 0.0996603 0.712061 0.106386 0.712687 0.107549 0.716619 0.106491 0.789632 0.105095 0.783834 0.114826 0.783894 0.106491 0.789632 0.10093 0.792009 0.105095 0.783834 0.118887 0.785134 0.114826 0.783894 0.123134 0.782445 0.0428031 0.668806 0.0475327 0.678402 0.0369314 0.672768 0.0531951 0.812039 0.0451918 0.812718 0.0423123 0.802253 0.0531951 0.812039 0.0423123 0.802253 0.0548735 0.798396 0.117886 0.768651 0.120662 0.764342 0.127021 0.764207 0.0976668 0.759555 0.107511 0.763183 0.101614 0.764029 0.0393402 0.682125 0.0342728 0.679851 0.0369314 0.672768 0.0393402 0.682125 0.0369314 0.672768 0.0475327 0.678402 0.0393402 0.682125 0.0381857 0.696551 0.0340184 0.688529 0.0393402 0.682125 0.0340184 0.688529 0.0342728 0.679851 0.0381857 0.696551 0.049269 0.697147 0.042638 0.703179 0.0548735 0.798396 0.0423123 0.802253 0.0417619 0.790944 0.0548735 0.798396 0.0417619 0.790944 0.047436 0.783999 0.047436 0.783999 0.0506619 0.777848 0.0567092 0.777184 0.124061 0.775493 0.127021 0.764207 0.135758 0.763448 0.124061 0.775493 0.135758 0.763448 0.13172 0.77347 0.117886 0.768651 0.127021 0.764207 0.124061 0.775493 0.114826 0.783894 0.110072 0.771636 0.117886 0.768651 0.114826 0.783894 0.117886 0.768651 0.124061 0.775493 0.114826 0.783894 0.124061 0.775493 0.123134 0.782445 0.107511 0.763183 0.0976668 0.759555 0.109782 0.757023 0.0976668 0.759555 0.0922616 0.760276 0.0861551 0.753977 0.101632 0.74799 0.109775 0.749577 0.109782 0.757023 0.101632 0.74799 0.109782 0.757023 0.0976668 0.759555 0.101632 0.74799 0.0976668 0.759555 0.0861551 0.753977 0.101632 0.74799 0.0861551 0.753977 0.0916567 0.745203 0.0431376 0.663146 0.0457854 0.665179 0.0373143 0.66403 0.123102 0.832282 0.117196 0.831212 0.123461 0.830159 0.123102 0.832282 0.123461 0.830159 0.127177 0.832575 0.109653 0.831525 0.101678 0.831326 0.102927 0.829099 0.109653 0.831525 0.102927 0.829099 0.1101 0.829335 0.109653 0.831525 0.1101 0.829335 0.117196 0.831212 0.104904 0.69675 0.0953219 0.701561 0.104312 0.695296 0.104904 0.69675 0.104312 0.695296 0.113589 0.693966 0.104904 0.69675 0.0964408 0.703155 0.0953219 0.701561 0.124715 0.703168 0.127699 0.706725 0.12475 0.707899 0.0748113 0.665499 0.0830403 0.663312 0.0865628 0.665692 0.0748113 0.665499 0.0647392 0.669667 0.0636406 0.66662 0.0534946 0.666407 0.0636406 0.66662 0.0647392 0.669667 0.0534946 0.666407 0.0647392 0.669667 0.054685 0.670027 0.0534946 0.666407 0.054685 0.670027 0.0457854 0.665179 0.0715703 0.815507 0.0732184 0.828998 0.0699898 0.821525 0.0715703 0.815507 0.0699898 0.821525 0.0717875 0.81755 0.120226 0.736436 0.11076 0.745902 0.110988 0.737008 0.120226 0.736436 0.128832 0.736828 0.12799 0.745515 0.120226 0.736436 0.12799 0.745515 0.127012 0.753141 0.120226 0.736436 0.127012 0.753141 0.118639 0.753376 0.120226 0.736436 0.118639 0.753376 0.112344 0.751507 0.120226 0.736436 0.112344 0.751507 0.11076 0.745902 0.120212 0.799067 0.112877 0.789563 0.120645 0.788725 0.120212 0.799067 0.120645 0.788725 0.12745 0.788215 0.120212 0.799067 0.128076 0.80481 0.121838 0.805684 0.120212 0.799067 0.121838 0.805684 0.11463 0.806008 0.130357 0.797489 0.120212 0.799067 0.12745 0.788215 0.130357 0.797489 0.12745 0.788215 0.130622 0.788354 0.128891 0.822284 0.1296 0.830054 0.123461 0.830159 0.130357 0.797489 0.128076 0.80481 0.120212 0.799067 0.122729 0.822247 0.128891 0.822284 0.123461 0.830159 0.122729 0.822247 0.123461 0.830159 0.117196 0.831212 0.122729 0.822247 0.117196 0.831212 0.117032 0.821959 0.115436 0.80956 0.112177 0.811846 0.110095 0.80568 0.122729 0.822247 0.12144 0.814256 0.127233 0.814326 0.122729 0.822247 0.127233 0.814326 0.128891 0.822284 0.109559 0.823375 0.112177 0.811846 0.115737 0.819887 0.109559 0.823375 0.099943 0.829441 0.0915459 0.818671 0.109559 0.823375 0.0915459 0.818671 0.112177 0.811846 0.0915459 0.818671 0.099943 0.829441 0.0888816 0.832239 0.0915459 0.818671 0.0888816 0.832239 0.0793329 0.832512 0.0915459 0.818671 0.0793329 0.832512 0.0783432 0.821574 0.0783432 0.821574 0.0793329 0.832512 0.0732184 0.828998 0.0783432 0.821574 0.0732184 0.828998 0.0715703 0.815507 0.0783432 0.821574 0.0715703 0.815507 0.0748212 0.80985 0.0915459 0.818671 0.0824902 0.803272 0.0927415 0.797717 0.0915459 0.818671 0.0927415 0.797717 0.110095 0.80568 0.0915459 0.818671 0.0783432 0.821574 0.0748212 0.80985 0.0915459 0.818671 0.0748212 0.80985 0.0824902 0.803272 0.110095 0.80568 0.102743 0.796406 0.109546 0.797956 0.110095 0.80568 0.112177 0.811846 0.0915459 0.818671 0.110095 0.80568 0.0927415 0.797717 0.102743 0.796406</float_array>
                    <technique_common>
                        <accessor count="750" source="#shape0-lib-map-array" stride="2">
                            <param name="U" type="float"/>
                            <param name="V" type="float"/>
                        </accessor>
                    </technique_common>
                </source>
                <vertices id="shape0-lib-vertices">
                    <input semantic="POSITION" source="#shape0-lib-positions"/>
                </vertices>
                <triangles count="250" material="material0">
                    <input offset="0" semantic="VERTEX" source="#shape0-lib-vertices"/>
                    <input offset="1" semantic="COLOR" source="#shape0-lib-vcolor"/>
                    <input offset="2" semantic="NORMAL" source="#shape0-lib-normals"/>
                    <input offset="3" semantic="TEXCOORD" source="#shape0-lib-map"/>
                    <p>0 0 0 0 8 8 0 1 53 53 0 2 50 50 1 3 5 5 1 4 1 1 1 5 50 50 2 6 1 1 2 7 11 11 2 8 50 50 3 9 11 11 3 10 51 51 3 11 2 2 4 12 63 63 4 13 12 12 4 14 2 2 5 15 0 0 5 16 54 54 5 17 63 63 6 18 15 15 6 19 12 12 6 20 4 4 7 21 6 6 7 22 72 72 7 23 4 4 8 24 72 72 8 25 53 53 8 26 4 4 9 27 53 53 9 28 8 8 9 29 84 84 10 30 73 73 10 31 6 6 10 32 84 84 11 33 6 6 11 34 19 19 11 35 7 7 12 36 17 17 12 37 5 5 12 38 21 21 13 39 7 7 13 40 80 80 13 41 8 8 14 42 0 0 14 43 10 10 14 44 8 8 15 45 55 55 15 46 9 9 15 47 8 8 16 48 10 10 16 49 55 55 16 50 58 58 17 51 59 59 17 52 11 11 17 53 58 58 18 54 11 11 18 55 1 1 18 56 58 58 19 57 1 1 19 58 60 60 19 59 2 2 20 60 12 12 20 61 13 13 20 62 2 2 21 63 13 13 21 64 65 65 21 65 2 2 22 66 65 65 22 67 10 10 22 68 2 2 23 69 10 10 23 70 0 0 23 71 65 65 24 72 13 13 24 73 14 14 24 74 15 15 25 75 92 92 25 76 13 13 25 77 15 15 26 78 13 13 26 79 12 12 26 80 13 13 27 81 66 66 27 82 14 14 27 83 13 13 28 84 92 92 28 85 66 66 28 86 11 11 29 87 16 16 29 88 3 3 29 89 68 68 30 90 16 16 30 91 11 11 30 92 68 68 31 93 11 11 31 94 59 59 31 95 3 3 32 96 16 16 32 97 91 91 32 98 3 3 33 99 91 91 33 100 90 90 33 101 4 4 34 102 8 8 34 103 9 9 34 104 4 4 35 105 76 76 35 106 6 6 35 107 76 76 36 108 4 4 36 109 9 9 36 110 17 17 37 111 1 1 37 112 5 5 37 113 18 18 38 114 60 60 38 115 1 1 38 116 18 18 39 117 1 1 39 118 17 17 39 119 76 76 40 120 19 19 40 121 6 6 40 122 76 76 41 123 85 85 41 124 19 19 41 125 17 17 42 126 7 7 42 127 20 20 42 128 20 20 43 129 78 78 43 130 18 18 43 131 20 20 44 132 18 18 44 133 17 17 44 134 21 21 45 135 20 20 45 136 7 7 45 137 95 95 46 138 20 20 46 139 21 21 46 140 22 22 47 141 23 23 47 142 33 33 47 143 22 22 48 144 33 33 48 145 56 56 48 146 23 23 49 147 60 60 49 148 33 33 49 149 24 24 50 150 99 99 50 151 89 89 50 152 64 64 51 153 100 100 51 154 98 98 51 155 64 64 52 156 98 98 52 157 24 24 52 158 64 64 53 159 102 102 53 160 100 100 53 161 25 25 54 162 26 26 54 163 23 23 54 164 25 25 55 165 23 23 55 166 22 22 55 167 26 26 56 168 25 25 56 169 66 66 56 170 26 26 57 171 66 66 57 172 67 67 57 173 26 26 58 174 67 67 58 175 28 28 58 176 68 68 59 177 26 26 59 178 27 27 59 179 68 68 60 180 59 59 60 181 23 23 60 182 68 68 61 183 23 23 61 184 26 26 61 185 26 26 62 186 28 28 62 187 70 70 62 188 26 26 63 189 70 70 63 190 69 69 63 191 26 26 64 192 69 69 64 193 27 27 64 194 71 71 65 195 30 30 65 196 108 108 65 197 71 71 66 198 108 108 66 199 107 107 66 200 31 31 67 201 35 35 67 202 29 29 67 203 31 31 68 204 29 29 68 205 71 71 68 206 31 31 69 207 71 71 69 208 107 107 69 209 31 31 70 210 107 107 70 211 32 32 70 212 75 75 71 213 33 33 71 214 77 77 71 215 75 75 72 216 77 77 72 217 74 74 72 218 75 75 73 219 56 56 73 220 33 33 73 221 37 37 74 222 34 34 74 223 82 82 74 224 35 35 75 225 81 81 75 226 80 80 75 227 35 35 76 228 80 80 76 229 29 29 76 230 35 35 77 231 36 36 77 232 81 81 77 233 37 37 78 234 81 81 78 235 36 36 78 236 37 37 79 237 36 36 79 238 83 83 79 239 37 37 80 240 83 83 80 241 38 38 80 242 37 37 81 243 38 38 81 244 34 34 81 245 74 74 82 246 87 87 82 247 39 39 82 248 74 74 83 249 77 77 83 250 87 87 83 251 39 39 84 252 87 87 84 253 48 48 84 254 87 87 85 255 88 88 85 256 48 48 85 257 24 24 86 258 40 40 86 259 45 45 86 260 24 24 87 261 89 89 87 262 40 40 87 263 64 64 88 264 24 24 88 265 45 45 88 266 41 41 89 267 34 34 89 268 38 38 89 269 41 41 90 270 38 38 90 271 96 96 90 272 42 42 91 273 43 43 91 274 46 46 91 275 42 42 92 276 46 46 92 277 45 45 92 278 42 42 93 279 45 45 93 280 40 40 93 281 44 44 94 282 46 46 94 283 43 43 94 284 44 44 95 285 43 43 95 286 91 91 95 287 44 44 96 288 91 91 96 289 70 70 96 290 44 44 97 291 70 70 97 292 28 28 97 293 92 92 98 294 46 46 98 295 44 44 98 296 92 92 99 297 44 44 99 298 28 28 99 299 92 92 100 300 28 28 100 301 67 67 100 302 48 48 101 303 88 88 101 304 94 94 101 305 48 48 102 306 94 94 102 307 47 47 102 308 49 49 103 309 47 47 103 310 34 34 103 311 49 49 104 312 34 34 104 313 41 41 104 314 49 49 105 315 41 41 105 316 96 96 105 317 48 48 106 318 47 47 106 319 49 49 106 320 114 114 107 321 30 30 107 322 50 50 107 323 114 114 108 324 50 50 108 325 51 51 108 326 50 50 109 327 30 30 109 328 5 5 109 329 52 52 110 330 104 104 110 331 54 54 110 332 52 52 111 333 53 53 111 334 32 32 111 335 52 52 112 336 0 0 112 337 53 53 112 338 52 52 113 339 54 54 113 340 0 0 113 341 55 55 114 342 22 22 114 343 56 56 114 344 55 55 115 345 57 57 115 346 22 22 115 347 55 55 116 348 10 10 116 349 57 57 116 350 55 55 117 351 56 56 117 352 9 9 117 353 58 58 118 354 23 23 118 355 59 59 118 356 58 58 119 357 60 60 119 358 23 23 119 359 61 61 120 360 89 89 120 361 99 99 120 362 61 61 121 363 11 11 121 364 3 3 121 365 61 61 122 366 3 3 122 367 89 89 122 368 61 61 123 369 51 51 123 370 11 11 123 371 62 62 124 372 54 54 124 373 104 104 124 374 62 62 125 375 104 104 125 376 103 103 125 377 62 62 126 378 103 103 126 379 102 102 126 380 62 62 127 381 102 102 127 382 63 63 127 383 62 62 128 384 2 2 128 385 54 54 128 386 62 62 129 387 63 63 129 388 2 2 129 389 63 63 130 390 102 102 130 391 64 64 130 392 65 65 131 393 25 25 131 394 22 22 131 395 65 65 132 396 22 22 132 397 57 57 132 398 65 65 133 399 14 14 133 400 25 25 133 401 65 65 134 402 57 57 134 403 10 10 134 404 66 66 135 405 25 25 135 406 14 14 135 407 68 68 136 408 27 27 136 409 16 16 136 410 69 69 137 411 16 16 137 412 27 27 137 413 69 69 138 414 70 70 138 415 16 16 138 416 71 71 139 417 29 29 139 418 5 5 139 419 71 71 140 420 5 5 140 421 30 30 140 422 31 31 141 423 32 32 141 424 53 53 141 425 31 31 142 426 73 73 142 427 35 35 142 428 72 72 143 429 6 6 143 430 73 73 143 431 72 72 144 432 73 73 144 433 31 31 144 434 72 72 145 435 31 31 145 436 53 53 145 437 75 75 146 438 76 76 146 439 9 9 146 440 75 75 147 441 9 9 147 442 56 56 147 443 75 75 148 444 74 74 148 445 76 76 148 446 79 79 149 447 33 33 149 448 60 60 149 449 79 79 150 450 78 78 150 451 77 77 150 452 79 79 151 453 77 77 151 454 33 33 151 455 79 79 152 456 18 18 152 457 78 78 152 458 79 79 153 459 60 60 153 460 18 18 153 461 80 80 154 462 7 7 154 463 5 5 154 464 80 80 155 465 5 5 155 466 29 29 155 467 81 81 156 468 37 37 156 469 82 82 156 470 81 81 157 471 21 21 157 472 80 80 157 473 81 81 158 474 93 93 158 475 21 21 158 476 36 36 159 477 35 35 159 478 73 73 159 479 83 83 160 480 96 96 160 481 38 38 160 482 84 84 161 483 97 97 161 484 83 83 161 485 84 84 162 486 83 83 162 487 36 36 162 488 84 84 163 489 36 36 163 490 73 73 163 491 74 74 164 492 39 39 164 493 85 85 164 494 74 74 165 495 85 85 165 496 76 76 165 497 86 86 166 498 87 87 166 499 77 77 166 500 86 86 167 501 77 77 167 502 78 78 167 503 86 86 168 504 95 95 168 505 87 87 168 506 86 86 169 507 20 20 169 508 95 95 169 509 86 86 170 510 78 78 170 511 20 20 170 512 87 87 171 513 95 95 171 514 88 88 171 515 89 89 172 516 3 3 172 517 40 40 172 518 63 63 173 519 64 64 173 520 45 45 173 521 63 63 174 522 45 45 174 523 15 15 174 524 93 93 175 525 81 81 175 526 82 82 175 527 97 97 176 528 96 96 176 529 83 83 176 530 90 90 177 531 42 42 177 532 40 40 177 533 90 90 178 534 40 40 178 535 3 3 178 536 90 90 179 537 91 91 179 538 43 43 179 539 90 90 180 540 43 43 180 541 42 42 180 542 91 91 181 543 16 16 181 544 70 70 181 545 15 15 182 546 45 45 182 547 46 46 182 548 15 15 183 549 46 46 183 550 92 92 183 551 92 92 184 552 67 67 184 553 66 66 184 554 94 94 185 555 82 82 185 556 34 34 185 557 94 94 186 558 34 34 186 559 47 47 186 560 93 93 187 561 82 82 187 562 94 94 187 563 95 95 188 564 21 21 188 565 93 93 188 566 95 95 189 567 93 93 189 568 94 94 189 569 95 95 190 570 94 94 190 571 88 88 190 572 96 96 191 573 97 97 191 574 49 49 191 575 97 97 192 576 84 84 192 577 19 19 192 578 39 39 193 579 48 48 193 580 49 49 193 581 39 39 194 582 49 49 194 583 97 97 194 584 39 39 195 585 97 97 195 586 19 19 195 587 39 39 196 588 19 19 196 589 85 85 196 590 98 98 197 591 99 99 197 592 24 24 197 593 100 100 198 594 102 102 198 595 101 101 198 596 100 100 199 597 101 101 199 598 98 98 199 599 103 103 200 600 104 104 200 601 105 105 200 602 103 103 201 603 105 105 201 604 124 124 201 605 103 103 202 606 124 124 202 607 102 102 202 608 106 106 203 609 104 104 203 610 52 52 203 611 106 106 204 612 52 52 204 613 32 32 204 614 106 106 205 615 105 105 205 616 104 104 205 617 108 108 206 618 30 30 206 619 109 109 206 620 114 114 207 621 109 109 207 622 30 30 207 623 114 114 208 624 51 51 208 625 110 110 208 626 111 111 209 627 110 110 209 628 51 51 209 629 111 111 210 630 51 51 210 631 61 61 210 632 111 111 211 633 61 61 211 634 99 99 211 635 112 112 212 636 107 107 212 637 108 108 212 638 112 112 213 639 108 108 213 640 109 109 213 641 114 114 214 642 112 112 214 643 109 109 214 644 114 114 215 645 110 110 215 646 115 115 215 647 114 114 216 648 115 115 216 649 117 117 216 650 114 114 217 651 117 117 217 652 116 116 217 653 114 114 218 654 116 116 218 655 113 113 218 656 114 114 219 657 113 113 219 658 112 112 219 659 115 115 220 660 110 110 220 661 111 111 220 662 115 115 221 663 111 111 221 664 99 99 221 665 115 115 222 666 119 119 222 667 118 118 222 668 115 115 223 669 118 118 223 670 117 117 223 671 120 120 224 672 115 115 224 673 99 99 224 674 120 120 225 675 99 99 225 676 98 98 225 677 120 120 226 678 98 98 226 679 101 101 226 680 120 120 227 681 119 119 227 682 115 115 227 683 121 121 228 684 120 120 228 685 101 101 228 686 121 121 229 687 101 101 229 688 102 102 229 689 121 121 230 690 102 102 230 691 122 122 230 692 121 121 231 693 122 122 231 694 123 123 231 695 121 121 232 696 123 123 232 697 119 119 232 698 121 121 233 699 119 119 233 700 120 120 233 701 124 124 234 702 122 122 234 703 102 102 234 704 124 124 235 705 105 105 235 706 126 126 235 707 124 124 236 708 126 126 236 709 122 122 236 710 126 126 237 711 105 105 237 712 106 106 237 713 126 126 238 714 106 106 238 715 32 32 238 716 126 126 239 717 32 32 239 718 125 125 239 719 125 125 240 720 32 32 240 721 107 107 240 722 125 125 241 723 107 107 241 724 112 112 241 725 125 125 242 726 112 112 242 727 113 113 242 728 126 126 243 729 116 116 243 730 117 117 243 731 126 126 244 732 117 117 244 733 123 123 244 734 126 126 245 735 125 125 245 736 113 113 245 737 126 126 246 738 113 113 246 739 116 116 246 740 123 123 247 741 118 118 247 742 119 119 247 743 123 123 248 744 122 122 248 745 126 126 248 746 123 123 249 747 117 117 249 748 118 118 249 749</p>
                </triangles>
            </mesh>
        </geometry>
    </library_geometries>
    <library_visual_scenes>
        <visual_scene id="VisualSceneNode" name="VisualScene">
            <node id="node" name="node">
                <instance_geometry url="#shape0-lib">
                    <bind_material>
                        <technique_common>
                            <instance_material symbol="material0" target="#material0">
                                <bind_vertex_input semantic="UVSET0" input_semantic="TEXCOORD"/>
                            </instance_material>
                        </technique_common>
                    </bind_material>
                </instance_geometry>
            </node>
        </visual_scene>
    </library_visual_scenes>
    <scene>
        <instance_visual_scene url="#VisualSceneNode"/>
    </scene>
</COLLADA>
