<?xml version="1.0" encoding="UTF-8"?>
<COLLADA xmlns="http://www.collada.org/2005/11/COLLADASchema" version="1.4.1">
    <asset>
        <contributor>
            <author>VCGLab</author>
            <authoring_tool>VCGLib | MeshLab</authoring_tool>
        </contributor>
        <created>Thu Jul 3 02:03:12 2025 GMT</created>
        <modified>Thu Jul 3 02:03:12 2025 GMT</modified>
        <up_axis>Y_UP</up_axis>
    </asset>
    <library_images>
        <image id="texture0" name="texture0">
            <init_from>./image/shelf_items.png</init_from>
        </image>
    </library_images>
    <library_materials>
        <material id="material0" name="material0">
            <instance_effect url="#material0-fx"/>
        </material>
    </library_materials>
    <library_effects>
        <effect id="material0-fx">
            <profile_COMMON>
                <newparam sid="texture0-surface">
                    <surface type="2D">
                        <init_from>texture0</init_from>
                        <format>R8G8B8</format>
                    </surface>
                </newparam>
                <newparam sid="texture0-sampler">
                    <sampler2D>
                        <source>texture0-surface</source>
                        <minfilter>LINEAR</minfilter>
                        <magfilter>LINEAR</magfilter>
                    </sampler2D>
                </newparam>
                <technique sid="common">
                    <blinn>
                        <diffuse>
                            <texture texture="texture0-sampler" texcoord="UVSET0"/>
                        </diffuse>
                    </blinn>
                </technique>
            </profile_COMMON>
        </effect>
    </library_effects>
    <library_geometries>
        <geometry id="shape0-lib" name="shape0">
            <mesh>
                <source id="shape0-lib-positions" name="position">
                    <float_array id="shape0-lib-positions-array" count="81">-0.103699 0.00460738 -0.103167 -0.143861 0.00526455 0.0332327 -0.103168 0.00460737 0.101698 0.0687632 0.00545075 0.128035 0.101167 0.00460734 -0.103698 -0.0921986 0.271 -0.115048 -0.1435 0.265845 0.0352471 -0.00213732 0.266743 0.143848 0.1415 0.265845 -0.0372479 0.00197204 0.264394 -0.144276 -0.027283 0.267801 -0.14407 -0.056419 0.00455461 -0.13611 -0.0717722 0.264409 -0.125417 -0.114516 0.264819 -0.0919961 -0.135767 0.00455472 -0.0572482 -0.13769 0.26782 -0.0513624 -0.0934241 0.265861 0.111354 -0.0572484 0.00455472 0.133767 -0.0513626 0.26782 0.13569 -0.000559697 0.00232127 0.144056 0.139917 0.00526381 0.0405337 0.126831 0.265937 0.0705 0.13411 0.00455461 -0.0564198 0.0369284 0.00525207 -0.143927 0.0914217 0.265861 -0.113355 0.0493633 0.26782 -0.137689 0.0534652 0.26871 0.134734</float_array>
                    <technique_common>
                        <accessor count="27" source="#shape0-lib-positions-array" stride="3">
                            <param name="X" type="float"/>
                            <param name="Y" type="float"/>
                            <param name="Z" type="float"/>
                        </accessor>
                    </technique_common>
                </source>
                <source id="shape0-lib-normals" name="normal">
                    <float_array id="shape0-lib-normals-array" count="150">-0.391799 0.198936 -0.898286 -0.510979 -0.566425 -0.646578 -0.599364 0.697183 -0.393317 0.0655544 0.610586 -0.789232 -0.0833543 -0.0125864 -0.996441 -0.0104279 -0.0290712 -0.999523 -0.387598 0.0150269 -0.921706 -0.571681 -1.49824e-05 -0.820476 -0.615887 0.00821645 -0.787792 -0.819813 -0.00950089 -0.572553 -0.868503 0.00474046 -0.495662 -0.996013 -0.00528119 -0.0890512 -0.997759 0.00190023 -0.0668898 -0.859631 -0.00275771 0.510908 -0.835342 0.0108407 0.549624 -0.572559 -0.00894582 0.819814 -0.500962 0.00488117 0.865456 -0.178693 -0.00318861 0.9839 -0.16352 -0.000202058 0.98654 0.225073 0.00210684 0.97434 0.162281 -0.0156748 0.98662 0.65902 0.0191637 0.751881 0.775388 -0.0335668 0.630593 0.990284 0.0342178 0.134785 0.997937 -0.0238512 -0.0596002 0.820334 0.0187376 -0.571577 0.835332 0.0108416 -0.549639 0.530643 -0.0115343 -0.847517 0.500688 -0.00314704 -0.865622 0.13644 0.0170703 -0.990501 0.0066919 -0.999934 -0.00930523 -0.00338684 -0.999938 -0.0106173 0.00732485 -0.999954 -0.00621924 0.0252156 -0.999665 0.00580206 0.0560457 -0.997288 0.0477052 -0.0526122 -0.995892 0.0736986 -0.0242658 -0.999694 0.00482691 -0.0248767 -0.999675 0.00561735 -0.00726087 -0.999954 -0.00621759 -0.00585646 -0.99996 -0.00680355 2.4317e-05 0.999995 -0.00326716 0.0422955 0.998985 -0.0155066 -0.0313907 0.99913 0.0274658 -0.0252011 0.99946 0.0211065 -0.0216169 0.999668 0.0140043 -0.0090609 0.997866 -0.0646596 -0.00680422 0.985219 0.171164 0.0420273 0.999105 0.00486644 0.0144271 0.999853 -0.00927402 0.0488318 0.998799 -0.00399816</float_array>
                    <technique_common>
                        <accessor count="50" source="#shape0-lib-normals-array" stride="3">
                            <param name="X" type="float"/>
                            <param name="Y" type="float"/>
                            <param name="Z" type="float"/>
                        </accessor>
                    </technique_common>
                </source>
                <source id="shape0-lib-vcolor" name="vcolor">
                    <float_array id="shape0-lib-vcolor-array" count="108">1 1 1 1 1 1 1 1 1 1 1 1 1 1 1 1 1 1 1 1 1 1 1 1 1 1 1 1 1 1 1 1 1 1 1 1 1 1 1 1 1 1 1 1 1 1 1 1 1 1 1 1 1 1 1 1 1 1 1 1 1 1 1 1 1 1 1 1 1 1 1 1 1 1 1 1 1 1 1 1 1 1 1 1 1 1 1 1 1 1 1 1 1 1 1 1 1 1 1 1 1 1 1 1 1 1 1 1</float_array>
                    <technique_common>
                        <accessor count="27" source="#shape0-lib-vcolor-array" stride="4">
                            <param name="R" type="float"/>
                            <param name="G" type="float"/>
                            <param name="B" type="float"/>
                            <param name="A" type="float"/>
                        </accessor>
                    </technique_common>
                </source>
                <source id="shape0-lib-map" name="map">
                    <float_array id="shape0-lib-map-array" count="300">0.439916 0.619599 0.446686 0.614826 0.449432 0.623837 0.449432 0.623837 0.446686 0.614826 0.45114 0.614826 0.323404 0.634651 0.325501 0.62561 0.331412 0.630419 0.428735 0.619605 0.435934 0.614826 0.439916 0.619599 0.435934 0.612895 0.430662 0.57159 0.443926 0.57153 0.435934 0.612895 0.443926 0.57153 0.4415 0.612895 0.4415 0.612895 0.443926 0.57153 0.446686 0.612895 0.446686 0.612895 0.443926 0.57153 0.45114 0.5717 0.446686 0.612895 0.45114 0.5717 0.45114 0.612895 0.455549 0.612945 0.453168 0.5717 0.459925 0.57153 0.455549 0.612945 0.459925 0.57153 0.462809 0.612895 0.462809 0.612895 0.459925 0.57153 0.473403 0.571585 0.462809 0.612895 0.473403 0.571585 0.473821 0.613001 0.473821 0.613001 0.473403 0.571585 0.483581 0.5717 0.473821 0.613001 0.483581 0.5717 0.483581 0.612895 0.260608 0.656265 0.258522 0.614955 0.265279 0.614785 0.260608 0.656265 0.265279 0.614785 0.268163 0.65615 0.268163 0.65615 0.265279 0.614785 0.273729 0.614955 0.268163 0.65615 0.273729 0.614955 0.273729 0.65615 0.273729 0.65615 0.273729 0.614955 0.284391 0.614865 0.273729 0.65615 0.284391 0.614865 0.281752 0.6562 0.281752 0.6562 0.284391 0.614865 0.288936 0.65615 0.328551 0.61301 0.323404 0.5717 0.33283 0.571585 0.328551 0.61301 0.33283 0.571585 0.344058 0.613001 0.344058 0.613001 0.33283 0.571585 0.346604 0.57153 0.344058 0.613001 0.346604 0.57153 0.353818 0.5717 0.344058 0.613001 0.353818 0.5717 0.353818 0.612895 0.422813 0.61301 0.420727 0.5717 0.430662 0.57159 0.422813 0.61301 0.430662 0.57159 0.430368 0.612895 0.430368 0.612895 0.430662 0.57159 0.435934 0.612895 0.32908 0.465334 0.344506 0.464305 0.338318 0.514355 0.344506 0.464305 0.356992 0.471187 0.338318 0.514355 0.356992 0.471187 0.362846 0.480037 0.338318 0.514355 0.362846 0.480037 0.363697 0.495781 0.338318 0.514355 0.363697 0.495781 0.351161 0.512198 0.338318 0.514355 0.328227 0.51345 0.32023 0.507949 0.338318 0.514355 0.32023 0.507949 0.313473 0.495871 0.338318 0.514355 0.313473 0.495871 0.314729 0.479184 0.338318 0.514355 0.314729 0.479184 0.32023 0.471187 0.338318 0.514355 0.32023 0.471187 0.32908 0.465334 0.338318 0.514355 0.27478 0.519478 0.288333 0.517895 0.274457 0.566703 0.288333 0.517895 0.300667 0.523191 0.274457 0.566703 0.300667 0.523191 0.308701 0.533873 0.274457 0.566703 0.308701 0.533873 0.309608 0.550224 0.274457 0.566703 0.309608 0.550224 0.302924 0.562017 0.274457 0.566703 0.302924 0.562017 0.294306 0.567795 0.274457 0.566703 0.294306 0.567795 0.284543 0.569631 0.274457 0.566703 0.262522 0.557108 0.259478 0.537048 0.274457 0.566703 0.259478 0.537048 0.266162 0.525256 0.274457 0.566703 0.266162 0.525256 0.27478 0.519478 0.274457 0.566703</float_array>
                    <technique_common>
                        <accessor count="150" source="#shape0-lib-map-array" stride="2">
                            <param name="U" type="float"/>
                            <param name="V" type="float"/>
                        </accessor>
                    </technique_common>
                </source>
                <vertices id="shape0-lib-vertices">
                    <input semantic="POSITION" source="#shape0-lib-positions"/>
                </vertices>
                <triangles count="50" material="material0">
                    <input offset="0" semantic="VERTEX" source="#shape0-lib-vertices"/>
                    <input offset="1" semantic="COLOR" source="#shape0-lib-vcolor"/>
                    <input offset="2" semantic="NORMAL" source="#shape0-lib-normals"/>
                    <input offset="3" semantic="TEXCOORD" source="#shape0-lib-map"/>
                    <p>10 10 0 0 12 12 0 1 5 5 0 2 5 5 1 3 12 12 1 4 13 13 1 5 5 5 2 6 13 13 2 7 15 15 2 8 25 25 3 9 9 9 3 10 10 10 3 11 9 9 4 12 23 23 4 13 11 11 4 14 9 9 5 15 11 11 5 16 10 10 5 17 10 10 6 18 11 11 6 19 12 12 6 20 12 12 7 21 11 11 7 22 0 0 7 23 12 12 8 24 0 0 8 25 13 13 8 26 13 13 9 27 0 0 9 28 14 14 9 29 13 13 10 30 14 14 10 31 15 15 10 32 15 15 11 33 14 14 11 34 1 1 11 35 15 15 12 36 1 1 12 37 6 6 12 38 6 6 13 39 1 1 13 40 2 2 13 41 6 6 14 42 2 2 14 43 16 16 14 44 16 16 15 45 2 2 15 46 17 17 15 47 16 16 16 48 17 17 16 49 18 18 16 50 18 18 17 51 17 17 17 52 19 19 17 53 18 18 18 54 19 19 18 55 7 7 18 56 7 7 19 57 19 19 19 58 3 3 19 59 7 7 20 60 3 3 20 61 26 26 20 62 26 26 21 63 3 3 21 64 21 21 21 65 21 21 22 66 3 3 22 67 20 20 22 68 21 21 23 69 20 20 23 70 8 8 23 71 8 8 24 72 20 20 24 73 22 22 24 74 8 8 25 75 22 22 25 76 4 4 25 77 8 8 26 78 4 4 26 79 24 24 26 80 24 24 27 81 4 4 27 82 23 23 27 83 24 24 28 84 23 23 28 85 25 25 28 86 25 25 29 87 23 23 29 88 9 9 29 89 11 11 30 90 23 23 30 91 19 19 30 92 23 23 31 93 4 4 31 94 19 19 31 95 4 4 32 96 22 22 32 97 19 19 32 98 22 22 33 99 20 20 33 100 19 19 33 101 20 20 34 102 3 3 34 103 19 19 34 104 17 17 35 105 2 2 35 106 19 19 35 107 2 2 36 108 1 1 36 109 19 19 36 110 1 1 37 111 14 14 37 112 19 19 37 113 14 14 38 114 0 0 38 115 19 19 38 116 0 0 39 117 11 11 39 118 19 19 39 119 25 25 40 120 10 10 40 121 26 26 40 122 10 10 41 123 5 5 41 124 26 26 41 125 5 5 42 126 15 15 42 127 26 26 42 128 15 15 43 129 6 6 43 130 26 26 43 131 6 6 44 132 16 16 44 133 26 26 44 134 16 16 45 135 18 18 45 136 26 26 45 137 18 18 46 138 7 7 46 139 26 26 46 140 21 21 47 141 8 8 47 142 26 26 47 143 8 8 48 144 24 24 48 145 26 26 48 146 24 24 49 147 25 25 49 148 26 26 49 149</p>
                </triangles>
            </mesh>
        </geometry>
    </library_geometries>
    <library_visual_scenes>
        <visual_scene id="VisualSceneNode" name="VisualScene">
            <node id="node" name="node">
                <instance_geometry url="#shape0-lib">
                    <bind_material>
                        <technique_common>
                            <instance_material symbol="material0" target="#material0">
                                <bind_vertex_input semantic="UVSET0" input_semantic="TEXCOORD"/>
                            </instance_material>
                        </technique_common>
                    </bind_material>
                </instance_geometry>
            </node>
        </visual_scene>
    </library_visual_scenes>
    <scene>
        <instance_visual_scene url="#VisualSceneNode"/>
    </scene>
</COLLADA>
