<?xml version="1.0" encoding="UTF-8"?>
<COLLADA xmlns="http://www.collada.org/2005/11/COLLADASchema" version="1.4.1">
    <asset>
        <contributor>
            <author>VCGLab</author>
            <authoring_tool>VCGLib | MeshLab</authoring_tool>
        </contributor>
        <created>Thu Jul 3 01:43:02 2025 GMT</created>
        <modified>Thu Jul 3 01:43:02 2025 GMT</modified>
        <up_axis>Y_UP</up_axis>
    </asset>
    <library_images>
        <image id="texture0" name="texture0">
            <init_from>./image/shelf_items.png</init_from>
        </image>
    </library_images>
    <library_materials>
        <material id="material0" name="material0">
            <instance_effect url="#material0-fx"/>
        </material>
    </library_materials>
    <library_effects>
        <effect id="material0-fx">
            <profile_COMMON>
                <newparam sid="texture0-surface">
                    <surface type="2D">
                        <init_from>texture0</init_from>
                        <format>R8G8B8</format>
                    </surface>
                </newparam>
                <newparam sid="texture0-sampler">
                    <sampler2D>
                        <source>texture0-surface</source>
                        <minfilter>LINEAR</minfilter>
                        <magfilter>LINEAR</magfilter>
                    </sampler2D>
                </newparam>
                <technique sid="common">
                    <blinn>
                        <diffuse>
                            <texture texture="texture0-sampler" texcoord="UVSET0"/>
                        </diffuse>
                    </blinn>
                </technique>
            </profile_COMMON>
        </effect>
    </library_effects>
    <library_geometries>
        <geometry id="shape0-lib" name="shape0">
            <mesh>
                <source id="shape0-lib-positions" name="position">
                    <float_array id="shape0-lib-positions-array" count="75">1.13275 0.402847 0.03043 1.11937 0.402847 0.0326731 1.10689 0.402847 0.0411411 1.09896 0.402847 0.0523054 1.09616 0.402847 0.0742295 1.10689 0.402847 0.0928589 1.11807 0.402847 0.100797 1.13275 0.402847 0.10357 1.14615 0.402847 0.101326 1.15861 0.402847 0.0928589 1.16654 0.402847 0.0816946 1.16934 0.402847 0.0597704 1.15861 0.402847 0.0411411 1.14744 0.402847 0.033205 1.14152 0.494847 0.0306149 1.11834 0.494847 0.0330698 1.10689 0.494847 0.0411411 1.09833 0.494847 0.0537535 1.09682 0.494847 0.0772469 1.11514 0.494847 0.0998709 1.14301 0.494847 0.102936 1.15861 0.494847 0.0928589 1.16927 0.494847 0.0749254 1.16667 0.494847 0.0525714 1.15861 0.494847 0.0411411</float_array>
                    <technique_common>
                        <accessor count="25" source="#shape0-lib-positions-array" stride="3">
                            <param name="X" type="float"/>
                            <param name="Y" type="float"/>
                            <param name="Z" type="float"/>
                        </accessor>
                    </technique_common>
                </source>
                <source id="shape0-lib-normals" name="normal">
                    <float_array id="shape0-lib-normals-array" count="138">-0.165295 0.0177413 -0.986085 -0.105298 0.0031079 -0.994436 -0.561514 -0.00272549 -0.827463 -0.576239 0 -0.817281 -0.815276 0 -0.579073 -0.827507 0.00319344 -0.561446 -0.991943 -0.00477214 -0.126593 -0.997878 0.0091983 -0.0644517 -0.866543 -0.0102145 0.498999 -0.77686 0.0217176 0.629299 -0.578844 -0.0102258 0.815374 -0.185636 0.00397899 0.982611 -0.109299 0.0190402 0.993827 0.165192 -0.0116217 0.986193 0.561914 0.00468441 0.827182 0.542574 0 0.840008 0.815275 0 0.579074 0.859546 0.0120869 0.510916 0.991754 -0.0201155 0.126568 0.993128 0.0197379 -0.11536 0.866502 -0.0139481 -0.498978 0.817148 0 -0.576428 0.579348 0 -0.815081 0.524436 0.00979651 -0.851393 0.18554 -0.0157145 -0.982511 0 -1 0 0 -1 0 0 -1 0 0 -1 0 0 -1 0 0 -1 0 0 -1 0 0 -1 0 0 -1 0 0 -1 0 0 -1 0 0 -1 0 0 1 0 0 1 0 0 1 0 0 1 0 0 1 0 0 1 0 0 1 0 0 1 0 0 1 0</float_array>
                    <technique_common>
                        <accessor count="46" source="#shape0-lib-normals-array" stride="3">
                            <param name="X" type="float"/>
                            <param name="Y" type="float"/>
                            <param name="Z" type="float"/>
                        </accessor>
                    </technique_common>
                </source>
                <source id="shape0-lib-vcolor" name="vcolor">
                    <float_array id="shape0-lib-vcolor-array" count="100">1 1 1 1 1 1 1 1 1 1 1 1 1 1 1 1 1 1 1 1 1 1 1 1 1 1 1 1 1 1 1 1 1 1 1 1 1 1 1 1 1 1 1 1 1 1 1 1 1 1 1 1 1 1 1 1 1 1 1 1 1 1 1 1 1 1 1 1 1 1 1 1 1 1 1 1 1 1 1 1 1 1 1 1 1 1 1 1 1 1 1 1 1 1 1 1 1 1 1 1</float_array>
                    <technique_common>
                        <accessor count="25" source="#shape0-lib-vcolor-array" stride="4">
                            <param name="R" type="float"/>
                            <param name="G" type="float"/>
                            <param name="B" type="float"/>
                            <param name="A" type="float"/>
                        </accessor>
                    </technique_common>
                </source>
                <source id="shape0-lib-map" name="map">
                    <float_array id="shape0-lib-map-array" count="276">0.651618 0.541151 0.65499 0.5082 0.660089 0.5082 0.651618 0.541151 0.660089 0.5082 0.660246 0.541151 0.660246 0.541151 0.660089 0.5082 0.664628 0.5082 0.660246 0.541151 0.664628 0.5082 0.664628 0.541151 0.665913 0.541151 0.665913 0.5082 0.670255 0.5082 0.665913 0.541151 0.670255 0.5082 0.670661 0.541151 0.670661 0.541151 0.670255 0.5082 0.678259 0.5082 0.670661 0.541151 0.678259 0.5082 0.679154 0.541151 0.679154 0.541151 0.678259 0.5082 0.685189 0.5082 0.679154 0.541151 0.685189 0.5082 0.685189 0.541151 0.69637 0.506882 0.693328 0.473932 0.697671 0.473932 0.69637 0.506882 0.697671 0.473932 0.702966 0.473932 0.69637 0.506882 0.702966 0.473932 0.70657 0.506882 0.70657 0.506882 0.702966 0.473932 0.708065 0.473932 0.70657 0.506882 0.708065 0.473932 0.712604 0.473932 0.70657 0.506882 0.712604 0.473932 0.712604 0.506882 0.624791 0.541151 0.624791 0.5082 0.629133 0.5082 0.624791 0.541151 0.629133 0.5082 0.631609 0.541151 0.631609 0.541151 0.629133 0.5082 0.637137 0.5082 0.631609 0.541151 0.637137 0.5082 0.639686 0.541151 0.639686 0.541151 0.637137 0.5082 0.644067 0.5082 0.639686 0.541151 0.644067 0.5082 0.644067 0.541151 0.645352 0.541151 0.645352 0.5082 0.649695 0.5082 0.645352 0.541151 0.649695 0.5082 0.651618 0.541151 0.651618 0.541151 0.649695 0.5082 0.65499 0.5082 0.686743 0.52409 0.687504 0.516083 0.694376 0.533284 0.686743 0.52409 0.694376 0.533284 0.690308 0.53048 0.687504 0.516083 0.690308 0.512018 0.699539 0.534303 0.687504 0.516083 0.699539 0.534303 0.694376 0.533284 0.690308 0.512018 0.694712 0.509076 0.704366 0.533422 0.690308 0.512018 0.704366 0.533422 0.699539 0.534303 0.694712 0.509076 0.699539 0.508194 0.70877 0.53048 0.694712 0.509076 0.70877 0.53048 0.704366 0.533422 0.699539 0.508194 0.704703 0.509214 0.711574 0.526415 0.699539 0.508194 0.711574 0.526415 0.70877 0.53048 0.704703 0.509214 0.70877 0.512018 0.712335 0.518408 0.704703 0.509214 0.712335 0.518408 0.711574 0.526415 0.686759 0.551663 0.68747 0.543567 0.695976 0.561354 0.686759 0.551663 0.695976 0.561354 0.690308 0.557894 0.68747 0.543567 0.690308 0.539432 0.695976 0.561354 0.690308 0.539432 0.696362 0.535857 0.705851 0.56021 0.690308 0.539432 0.705851 0.56021 0.695976 0.561354 0.696362 0.535857 0.704633 0.536594 0.71223 0.552224 0.696362 0.535857 0.71223 0.552224 0.705851 0.56021 0.704633 0.536594 0.70877 0.539432 0.71223 0.552224 0.70877 0.539432 0.711685 0.543839 0.71223 0.552224</float_array>
                    <technique_common>
                        <accessor count="138" source="#shape0-lib-map-array" stride="2">
                            <param name="U" type="float"/>
                            <param name="V" type="float"/>
                        </accessor>
                    </technique_common>
                </source>
                <vertices id="shape0-lib-vertices">
                    <input semantic="POSITION" source="#shape0-lib-positions"/>
                </vertices>
                <triangles count="46" material="material0">
                    <input offset="0" semantic="VERTEX" source="#shape0-lib-vertices"/>
                    <input offset="1" semantic="COLOR" source="#shape0-lib-vcolor"/>
                    <input offset="2" semantic="NORMAL" source="#shape0-lib-normals"/>
                    <input offset="3" semantic="TEXCOORD" source="#shape0-lib-map"/>
                    <p>14 14 0 0 0 0 0 1 1 1 0 2 14 14 1 3 1 1 1 4 15 15 1 5 15 15 2 6 1 1 2 7 2 2 2 8 15 15 3 9 2 2 3 10 16 16 3 11 16 16 4 12 2 2 4 13 3 3 4 14 16 16 5 15 3 3 5 16 17 17 5 17 17 17 6 18 3 3 6 19 4 4 6 20 17 17 7 21 4 4 7 22 18 18 7 23 18 18 8 24 4 4 8 25 5 5 8 26 18 18 9 27 5 5 9 28 19 19 9 29 19 19 10 30 5 5 10 31 6 6 10 32 19 19 11 33 6 6 11 34 7 7 11 35 19 19 12 36 7 7 12 37 20 20 12 38 20 20 13 39 7 7 13 40 8 8 13 41 20 20 14 42 8 8 14 43 9 9 14 44 20 20 15 45 9 9 15 46 21 21 15 47 21 21 16 48 9 9 16 49 10 10 16 50 21 21 17 51 10 10 17 52 22 22 17 53 22 22 18 54 10 10 18 55 11 11 18 56 22 22 19 57 11 11 19 58 23 23 19 59 23 23 20 60 11 11 20 61 12 12 20 62 23 23 21 63 12 12 21 64 24 24 21 65 24 24 22 66 12 12 22 67 13 13 22 68 24 24 23 69 13 13 23 70 14 14 23 71 14 14 24 72 13 13 24 73 0 0 24 74 4 4 25 75 3 3 25 76 6 6 25 77 4 4 26 78 6 6 26 79 5 5 26 80 3 3 27 81 2 2 27 82 7 7 27 83 3 3 28 84 7 7 28 85 6 6 28 86 2 2 29 87 1 1 29 88 8 8 29 89 2 2 30 90 8 8 30 91 7 7 30 92 1 1 31 93 0 0 31 94 9 9 31 95 1 1 32 96 9 9 32 97 8 8 32 98 0 0 33 99 13 13 33 100 10 10 33 101 0 0 34 102 10 10 34 103 9 9 34 104 13 13 35 105 12 12 35 106 11 11 35 107 13 13 36 108 11 11 36 109 10 10 36 110 22 22 37 111 23 23 37 112 20 20 37 113 22 22 38 114 20 20 38 115 21 21 38 116 23 23 39 117 24 24 39 118 20 20 39 119 24 24 40 120 14 14 40 121 19 19 40 122 24 24 41 123 19 19 41 124 20 20 41 125 14 14 42 126 15 15 42 127 18 18 42 128 14 14 43 129 18 18 43 130 19 19 43 131 15 15 44 132 16 16 44 133 18 18 44 134 16 16 45 135 17 17 45 136 18 18 45 137</p>
                </triangles>
            </mesh>
        </geometry>
    </library_geometries>
    <library_visual_scenes>
        <visual_scene id="VisualSceneNode" name="VisualScene">
            <node id="node" name="node">
                <instance_geometry url="#shape0-lib">
                    <bind_material>
                        <technique_common>
                            <instance_material symbol="material0" target="#material0">
                                <bind_vertex_input semantic="UVSET0" input_semantic="TEXCOORD"/>
                            </instance_material>
                        </technique_common>
                    </bind_material>
                </instance_geometry>
            </node>
        </visual_scene>
    </library_visual_scenes>
    <scene>
        <instance_visual_scene url="#VisualSceneNode"/>
    </scene>
</COLLADA>
