<?xml version="1.0" encoding="UTF-8"?>
<COLLADA xmlns="http://www.collada.org/2005/11/COLLADASchema" version="1.4.1">
    <asset>
        <contributor>
            <author>VCGLab</author>
            <authoring_tool>VCGLib | MeshLab</authoring_tool>
        </contributor>
        <created>Thu Jul 3 02:12:01 2025 GMT</created>
        <modified>Thu Jul 3 02:12:01 2025 GMT</modified>
        <up_axis>Y_UP</up_axis>
    </asset>
    <library_images>
        <image id="texture0" name="texture0">
            <init_from>./image/shelf_books.png</init_from>
        </image>
    </library_images>
    <library_materials>
        <material id="material0" name="material0">
            <instance_effect url="#material0-fx"/>
        </material>
    </library_materials>
    <library_effects>
        <effect id="material0-fx">
            <profile_COMMON>
                <newparam sid="texture0-surface">
                    <surface type="2D">
                        <init_from>texture0</init_from>
                        <format>R8G8B8</format>
                    </surface>
                </newparam>
                <newparam sid="texture0-sampler">
                    <sampler2D>
                        <source>texture0-surface</source>
                        <minfilter>LINEAR</minfilter>
                        <magfilter>LINEAR</magfilter>
                    </sampler2D>
                </newparam>
                <technique sid="common">
                    <blinn>
                        <diffuse>
                            <texture texture="texture0-sampler" texcoord="UVSET0"/>
                        </diffuse>
                    </blinn>
                </technique>
            </profile_COMMON>
        </effect>
    </library_effects>
    <library_geometries>
        <geometry id="shape0-lib" name="shape0">
            <mesh>
                <source id="shape0-lib-positions" name="position">
                    <float_array id="shape0-lib-positions-array" count="291">-0.125679 0.00121654 -0.0552915 -0.125679 0.161216 -0.0552915 -0.103404 0.161216 -0.0552915 -0.103404 0.00121654 -0.0552915 -0.125072 0.00121654 0.064331 -0.125679 0.161216 0.0618915 -0.104012 0.161216 0.0643307 -0.103404 0.00121654 0.0618915 -0.104746 0.00121654 0.064894 -0.124339 0.161216 0.0648937 -0.100929 0.00121654 -0.0552915 -0.100929 0.161216 -0.0552915 -0.0786543 0.161216 -0.0552915 -0.0786543 0.00121654 -0.0552915 -0.100322 0.00121654 0.064331 -0.100929 0.161216 0.0618915 -0.0792618 0.161216 0.0643307 -0.0792607 0.00121654 0.0644511 -0.0995886 0.161216 0.0648937 -0.0770044 0.00121654 -0.0552915 -0.0770044 0.161216 -0.0552915 -0.0547294 0.161216 -0.0552915 -0.0547294 0.00121654 -0.0552915 -0.0763969 0.00121654 0.0643307 -0.0770044 0.161216 0.0618915 -0.0553369 0.161216 0.0643307 -0.0547294 0.00121654 0.0618915 -0.0560706 0.00121654 0.0648939 -0.0756632 0.161216 0.0648939 -0.0534438 0.00182141 -0.0552915 -0.0507756 0.173595 -0.0552915 -0.0312292 0.00136126 -0.0552915 -0.0528375 0.00180899 0.0643318 -0.0507756 0.173595 0.0618915 -0.0318883 0.00137484 0.0645029 -0.0297676 0.173159 0.0647006 -0.0494372 0.173566 0.0648943 -0.0272591 0.00153673 -0.0552915 -0.00536972 0.173257 -0.0552915 -0.00503963 0.00146402 -0.0552915 -0.0265211 0.00153421 0.0644317 -0.00597608 0.173259 0.064332 -0.00503963 0.00146402 0.0618915 -0.00637839 0.00146849 0.0648943 -0.0257035 0.173339 0.0650402 -0.00339383 0.00145853 -0.0552915 -0.0037238 0.173252 -0.0552915 0.0184955 0.17318 -0.0552915 0.0188255 0.00138605 -0.0552915 -0.00278733 0.00145653 0.0643317 -0.0037238 0.173252 0.0618915 0.017889 0.173182 0.0643317 0.0188255 0.00138605 0.0618915 0.0174867 0.00139055 0.0648943 -0.00238504 0.173247 0.0648943 0.0225324 0.000405437 -0.0552915 0.0225324 0.160406 -0.0552915 0.0420231 0.160406 -0.0552915 0.0420231 0.000405437 -0.0552915 0.0230871 0.000405437 0.0643802 0.0230888 0.160406 0.0645117 0.0414684 0.160406 0.0643804 0.0414667 0.000405437 0.0645119 0.0441887 0.00240553 -0.0552915 0.0441887 0.162405 -0.0552915 0.0636793 0.162405 -0.0552915 0.0636793 0.00240553 -0.0552915 0.0447433 0.00240553 0.0643803 0.044745 0.162405 0.0645118 0.0631246 0.162405 0.0643804 0.0631229 0.00240553 0.0645119 0.065123 0.000405437 -0.0552915 0.065123 0.160406 -0.0552915 0.0846136 0.160406 -0.0552915 0.0846136 0.000405437 -0.0552915 0.0656776 0.000405437 0.0643803 0.0656793 0.160406 0.0645118 0.0840589 0.160406 0.0643805 0.0840572 0.000405437 0.0645119 0.0865324 0.000405437 -0.0552915 0.0865324 0.160406 -0.0552915 0.106023 0.160406 -0.0552915 0.106023 0.000405437 -0.0552915 0.0870871 0.000405437 0.0643802 0.0870888 0.160406 0.0645117 0.105468 0.160406 0.0643804 0.105467 0.000405437 0.0645118 0.108189 0.00240553 -0.0552915 0.108189 0.162405 -0.0552915 0.127679 0.162405 -0.0552915 0.127679 0.00240553 -0.0552915 0.108744 0.00240553 0.0643802 0.108745 0.162405 0.0645118 0.127124 0.162405 0.0643804 0.127123 0.00240553 0.0645118 -0.0285609 0.173134 -0.0552915 -0.0285609 0.173134 0.0618915</float_array>
                    <technique_common>
                        <accessor count="97" source="#shape0-lib-positions-array" stride="3">
                            <param name="X" type="float"/>
                            <param name="Y" type="float"/>
                            <param name="Z" type="float"/>
                        </accessor>
                    </technique_common>
                </source>
                <source id="shape0-lib-normals" name="normal">
                    <float_array id="shape0-lib-normals-array" count="462">0 0 -1 0 0 -1 0.912988 -0.00275128 0.407978 -0.913125 0.00275067 0.40767 -1 0 0 -0.99998 -0.00371732 0.00507555 1 0 0 0.99998 0.0037213 0.00508099 0.0276886 0.00339218 0.999611 -0.027684 -0.00338855 0.999611 0 0 -1 0 0 -1 -0.913122 0.00275062 0.407678 -1 0 0 -0.99998 -0.00371745 0.00507574 0.999987 0 0.00506397 0.999987 1.08977e-05 0.00507853 0.0276877 0.000752046 0.999616 -0.00570036 -0.0034909 0.999978 0 0 -1 0 0 -1 0.913037 -0.00275122 0.407866 -0.913037 0.00275124 0.407867 -1 0 0 -0.99998 -0.00371947 0.0050785 1 0 0 0.99998 0.00371947 0.0050785 0.0276944 0.0033913 0.999611 -0.0276944 -0.0033913 0.999611 -0.913193 0.0167449 0.407184 -0.999879 0.0155314 0 -0.999914 0.0120736 0.00506941 0.00981629 -0.00127226 0.999951 -0.00823273 -0.00311175 0.999961 0.913335 -0.000806188 0.407207 0.999998 0.00192144 0 0.999973 0.00537884 0.0050687 0.0358893 0.00318667 0.999351 -0.0229707 -0.00343187 0.99973 0 0 -1 0 0 -1 0.913331 -0.000805269 0.407218 -0.913336 0.000805383 0.407206 -0.999998 -0.00192073 0 -0.999973 -0.00537893 0.00506988 0.999998 0.0019209 0 0.999973 0.00537923 0.00507009 0.0277472 0.00320844 0.99961 -0.0277469 -0.00320832 0.99961 0 1 0 0 1 0 0 1 0 0 -1 0 0 -1 0 0 -1 0 0 1 0 0 1 0 0 1 0 0 -1 0 0 -1 0 0 1 0 0 1 0 0 1 0 0 -1 0 0 -1 0 0 -1 0 -0.0207094 -0.999786 1.1365e-06 -0.0207191 -0.999785 -6.21366e-07 -0.00326354 -0.999995 3.20818e-05 -0.00327234 -0.999995 -8.97844e-07 -0.00326733 -0.999995 0 0.00325169 0.999995 8.36517e-05 0.00324052 0.999995 3.72458e-06 0.00326113 0.999995 0 -0.00325573 -0.999995 4.77571e-05 -0.00326201 -0.999995 -1.60047e-07 -0.00326112 -0.999995 0 0 0 -1 0 0 -1 -0.999989 0 0.00464415 -0.999989 6.85403e-06 0.004635 0.999989 0 0.00464424 0.999989 -6.66858e-06 0.00463534 0.00714532 0.00082156 0.999974 -0.00716193 -0.000821792 0.999974 0 0 -1 0 0 -1 -0.999989 0 0.00464369 -0.999989 6.85447e-06 0.00463453 0.999989 0 0.00464424 0.999989 -6.66862e-06 0.00463534 0.00714817 0.000821566 0.999974 -0.00715911 -0.000821797 0.999974 0 0 -1 0 0 -1 -0.999989 0 0.00464369 -0.999989 6.85442e-06 0.00463453 0.999989 0 0.00464381 0.999989 -6.71534e-06 0.00463484 0.00714572 0.000821607 0.999974 -0.00716192 -0.000821792 0.999974 0 1 0 0 1 0 0 -1 0 0 -1 0 0 1 0 0 1 0 0 -1 0 0 -1 0 0 1 0 0 1 0 0 -1 0 0 -1 0 0 0 -1 0 0 -1 -0.999989 0 0.00464419 -0.999989 6.90084e-06 0.00463497 0.999989 0 0.00464474 0.999989 -6.66795e-06 0.00463584 0.007147 0.000821607 0.999974 -0.00716037 -0.000821745 0.999974 0 0 -1 0 0 -1 -0.999989 0 0.00464418 -0.999989 6.90046e-06 0.00463497 0.999989 0 0.0046448 0.999989 -6.71478e-06 0.00463584 0.00714886 0.000821566 0.999974 -0.00715938 -0.000821844 0.999974 0 1 0 0 1 0 0 -1 0 0 -1 0 0 1 0 0 1 0 0 -1 0 0 -1 0 0 0 -1 0 0 -1 0.918717 -0.0117961 0.394741 0.999864 -0.0155318 0.00550271 0.999812 -0.0193687 0 0 0 -1 0 0 -1 -0.740568 0.00114428 0.671981 -0.999971 -0.00758614 0 -0.999911 -0.0117945 0.00616312 0.0207474 0.999785 2.38693e-06 0.0207054 0.999786 0.000317093 0.0207474 0.999785 0 0.0207474 0.999785 0 0.0016534 0.997798 -0.0663057 -0.00530342 0.999986 -4.15813e-05 -0.00552365 0.999985 0</float_array>
                    <technique_common>
                        <accessor count="154" source="#shape0-lib-normals-array" stride="3">
                            <param name="X" type="float"/>
                            <param name="Y" type="float"/>
                            <param name="Z" type="float"/>
                        </accessor>
                    </technique_common>
                </source>
                <source id="shape0-lib-vcolor" name="vcolor">
                    <float_array id="shape0-lib-vcolor-array" count="388">1 1 1 1 1 1 1 1 1 1 1 1 1 1 1 1 1 1 1 1 1 1 1 1 1 1 1 1 1 1 1 1 1 1 1 1 1 1 1 1 1 1 1 1 1 1 1 1 1 1 1 1 1 1 1 1 1 1 1 1 1 1 1 1 1 1 1 1 1 1 1 1 1 1 1 1 1 1 1 1 1 1 1 1 1 1 1 1 1 1 1 1 1 1 1 1 1 1 1 1 1 1 1 1 1 1 1 1 1 1 1 1 1 1 1 1 1 1 1 1 1 1 1 1 1 1 1 1 1 1 1 1 1 1 1 1 1 1 1 1 1 1 1 1 1 1 1 1 1 1 1 1 1 1 1 1 1 1 1 1 1 1 1 1 1 1 1 1 1 1 1 1 1 1 1 1 1 1 1 1 1 1 1 1 1 1 1 1 1 1 1 1 1 1 1 1 1 1 1 1 1 1 1 1 1 1 1 1 1 1 1 1 1 1 1 1 1 1 1 1 1 1 1 1 1 1 1 1 1 1 1 1 1 1 1 1 1 1 1 1 1 1 1 1 1 1 1 1 1 1 1 1 1 1 1 1 1 1 1 1 1 1 1 1 1 1 1 1 1 1 1 1 1 1 1 1 1 1 1 1 1 1 1 1 1 1 1 1 1 1 1 1 1 1 1 1 1 1 1 1 1 1 1 1 1 1 1 1 1 1 1 1 1 1 1 1 1 1 1 1 1 1 1 1 1 1 1 1 1 1 1 1 1 1 1 1 1 1 1 1 1 1 1 1 1 1 1 1 1 1 1 1 1 1 1 1 1 1 1 1 1 1 1 1 1 1 1 1 1 1 1 1 1 1 1 1 1 1 1 1 1 1 1 1 1 1 1 1</float_array>
                    <technique_common>
                        <accessor count="97" source="#shape0-lib-vcolor-array" stride="4">
                            <param name="R" type="float"/>
                            <param name="G" type="float"/>
                            <param name="B" type="float"/>
                            <param name="A" type="float"/>
                        </accessor>
                    </technique_common>
                </source>
                <source id="shape0-lib-map" name="map">
                    <float_array id="shape0-lib-map-array" count="924">0.344458 0.376604 0.344458 0.399991 0.347681 0.399991 0.344458 0.376604 0.347681 0.399991 0.347681 0.376604 0.214301 0.924928 0.214079 0.985285 0.213808 0.924928 0.206636 0.985285 0.206859 0.924928 0.207129 0.985285 0.428219 0.642007 0.422906 0.642007 0.422906 0.636695 0.428219 0.642007 0.422906 0.636695 0.428219 0.636695 0.499406 0.63032 0.504719 0.63032 0.504719 0.635632 0.499406 0.63032 0.504719 0.635632 0.499406 0.635632 0.213808 0.924928 0.214079 0.985285 0.207129 0.985285 0.213808 0.924928 0.207129 0.985285 0.206859 0.924928 0.348039 0.376604 0.348039 0.399991 0.351261 0.399991 0.348039 0.376604 0.351261 0.399991 0.351261 0.376604 0.215153 0.985285 0.215376 0.924928 0.215646 0.985285 0.511094 0.635632 0.505781 0.635632 0.505781 0.63032 0.511094 0.635632 0.505781 0.63032 0.511094 0.63032 0.518531 0.623945 0.523844 0.623945 0.523844 0.629257 0.518531 0.623945 0.523844 0.629257 0.518531 0.629257 0.222592 0.924928 0.222595 0.985285 0.215646 0.985285 0.222592 0.924928 0.215646 0.985285 0.215376 0.924928 0.3515 0.376604 0.3515 0.399991 0.354722 0.399991 0.3515 0.376604 0.354722 0.399991 0.354722 0.376604 0.231051 0.924928 0.230828 0.985285 0.230558 0.924928 0.223386 0.985285 0.223609 0.924928 0.223879 0.985285 0.542969 0.629257 0.537656 0.629257 0.537656 0.623945 0.542969 0.629257 0.537656 0.623945 0.542969 0.623945 0.486656 0.63032 0.491969 0.63032 0.491969 0.635632 0.486656 0.63032 0.491969 0.635632 0.486656 0.635632 0.230558 0.924928 0.230828 0.985285 0.223879 0.985285 0.230558 0.924928 0.223879 0.985285 0.223609 0.924928 0.232411 0.989955 0.231715 0.925151 0.232903 0.989943 0.440969 0.578209 0.435656 0.578209 0.435656 0.566618 0.440969 0.578209 0.435656 0.566618 0.440969 0.566618 0.2389 0.924988 0.239613 0.989791 0.232903 0.989943 0.2389 0.924988 0.232903 0.989943 0.231715 0.925151 0.24815 0.925021 0.247813 0.989828 0.247658 0.925023 0.403781 0.528368 0.409094 0.528368 0.409094 0.539959 0.403781 0.528368 0.409094 0.539959 0.403781 0.539959 0.247658 0.925023 0.247813 0.989828 0.24101 0.989853 0.247658 0.925023 0.24101 0.989853 0.240752 0.925048 0.362149 0.376639 0.362101 0.40175 0.365316 0.401739 0.362149 0.376639 0.365316 0.401739 0.365364 0.376628 0.256362 0.924992 0.256026 0.989799 0.25587 0.924994 0.248602 0.989825 0.248938 0.925018 0.249094 0.989824 0.440969 0.539959 0.435656 0.539959 0.435656 0.528368 0.440969 0.539959 0.435656 0.528368 0.440969 0.528368 0.518531 0.515618 0.523844 0.515618 0.523844 0.527209 0.518531 0.515618 0.523844 0.527209 0.518531 0.527209 0.25587 0.924994 0.256026 0.989799 0.249094 0.989824 0.25587 0.924994 0.249094 0.989824 0.248938 0.925018 0.214079 0.985285 0.206636 0.985285 0.207129 0.985285 0.162891 0.643839 0.162891 0.605719 0.156357 0.605719 0.162891 0.643839 0.156357 0.605719 0.156357 0.643839 0.206859 0.924928 0.214301 0.924928 0.213808 0.924928 0.0915938 0.441082 0.0915938 0.404013 0.0951675 0.404013 0.0915938 0.441082 0.0951675 0.404013 0.0951675 0.441082 0.222595 0.985285 0.215153 0.985285 0.215646 0.985285 0.170151 0.643839 0.170151 0.605719 0.163617 0.605719 0.170151 0.643839 0.163617 0.605719 0.163617 0.643839 0.0955646 0.441082 0.0955646 0.404013 0.0991383 0.404013 0.0955646 0.441082 0.0991383 0.404013 0.0991383 0.441082 0.230828 0.985285 0.223386 0.985285 0.223879 0.985285 0.177169 0.643839 0.177169 0.605719 0.170635 0.605719 0.177169 0.643839 0.170635 0.605719 0.170635 0.643839 0.223609 0.924928 0.231051 0.924928 0.230558 0.924928 0.099403 0.441082 0.099403 0.404013 0.102977 0.404013 0.099403 0.441082 0.102977 0.404013 0.102977 0.441082 0.103183 0.441082 0.103183 0.404013 0.106747 0.404013 0.103183 0.441082 0.106747 0.404013 0.106747 0.441082 0.240752 0.925048 0.24815 0.925021 0.247658 0.925023 0.107384 0.441082 0.107384 0.404013 0.110949 0.404013 0.107384 0.441082 0.110949 0.404013 0.110949 0.441082 0.256026 0.989799 0.248602 0.989825 0.249094 0.989824 0.198648 0.643839 0.198648 0.605719 0.19213 0.605719 0.198648 0.643839 0.19213 0.605719 0.19213 0.643839 0.248938 0.925018 0.256362 0.924992 0.25587 0.924994 0.111213 0.441082 0.111213 0.404013 0.114778 0.404013 0.111213 0.441082 0.114778 0.404013 0.114778 0.441082 0.3659 0.376485 0.3659 0.399872 0.36872 0.399872 0.3659 0.376485 0.36872 0.399872 0.36872 0.376485 0.472844 0.603709 0.467531 0.603709 0.467531 0.592118 0.472844 0.603709 0.467531 0.592118 0.472844 0.592118 0.416531 0.604868 0.421844 0.604868 0.421844 0.616459 0.416531 0.604868 0.421844 0.616459 0.416531 0.616459 0.264138 0.924622 0.264143 0.984979 0.257843 0.984979 0.264138 0.924622 0.257843 0.984979 0.257839 0.924622 0.369033 0.376777 0.369033 0.400164 0.371853 0.400164 0.369033 0.376777 0.371853 0.400164 0.371853 0.376777 0.453719 0.642007 0.448406 0.642007 0.448406 0.636695 0.453719 0.642007 0.448406 0.636695 0.453719 0.636695 0.429281 0.636695 0.434594 0.636695 0.434594 0.642007 0.429281 0.636695 0.434594 0.642007 0.429281 0.642007 0.27159 0.925377 0.271595 0.985734 0.265295 0.985734 0.27159 0.925377 0.265295 0.985734 0.265291 0.925377 0.372062 0.376485 0.372062 0.399872 0.374881 0.399872 0.372062 0.376485 0.374881 0.399872 0.374881 0.376485 0.396344 0.616459 0.391031 0.616459 0.391031 0.604868 0.396344 0.616459 0.391031 0.604868 0.396344 0.604868 0.403781 0.604868 0.409094 0.604868 0.409094 0.616459 0.403781 0.604868 0.409094 0.616459 0.403781 0.616459 0.278794 0.924622 0.278799 0.984979 0.272499 0.984979 0.278794 0.924622 0.272499 0.984979 0.272495 0.924622 0.205549 0.643839 0.205549 0.605719 0.199832 0.605719 0.205549 0.643839 0.199832 0.605719 0.199832 0.643839 0.115372 0.441082 0.115372 0.404013 0.118499 0.404013 0.115372 0.441082 0.118499 0.404013 0.118499 0.441082 0.211901 0.643839 0.211901 0.605719 0.206184 0.605719 0.211901 0.643839 0.206184 0.605719 0.206184 0.643839 0.118847 0.441082 0.118847 0.404013 0.121974 0.404013 0.118847 0.441082 0.121974 0.404013 0.121974 0.441082 0.218042 0.643839 0.218042 0.605719 0.212325 0.605719 0.218042 0.643839 0.212325 0.605719 0.212325 0.643839 0.122205 0.441082 0.122205 0.404013 0.125332 0.404013 0.122205 0.441082 0.125332 0.404013 0.125332 0.441082 0.375159 0.376485 0.375159 0.399872 0.377979 0.399872 0.375159 0.376485 0.377979 0.399872 0.377979 0.376485 0.389969 0.616459 0.384656 0.616459 0.384656 0.604868 0.389969 0.616459 0.384656 0.604868 0.389969 0.604868 0.537656 0.598493 0.542969 0.598493 0.542969 0.610084 0.537656 0.598493 0.542969 0.610084 0.537656 0.610084 0.286161 0.924622 0.286166 0.984979 0.279866 0.984979 0.286161 0.924622 0.279866 0.984979 0.279862 0.924622 0.378292 0.376777 0.378292 0.400164 0.381112 0.400164 0.378292 0.376777 0.381112 0.400164 0.381112 0.376777 0.479219 0.642007 0.473906 0.642007 0.473906 0.636695 0.479219 0.642007 0.473906 0.636695 0.479219 0.636695 0.461156 0.636695 0.466469 0.636695 0.466469 0.642007 0.461156 0.636695 0.466469 0.642007 0.461156 0.642007 0.293613 0.925377 0.293618 0.985734 0.287318 0.985734 0.293613 0.925377 0.287318 0.985734 0.287314 0.925377 0.224322 0.643839 0.224322 0.605719 0.218605 0.605719 0.224322 0.643839 0.218605 0.605719 0.218605 0.643839 0.12564 0.441082 0.12564 0.404013 0.128767 0.404013 0.12564 0.441082 0.128767 0.404013 0.128767 0.441082 0.230675 0.643839 0.230675 0.605719 0.224957 0.605719 0.230675 0.643839 0.224957 0.605719 0.224957 0.643839 0.129115 0.441082 0.129115 0.404013 0.132242 0.404013 0.129115 0.441082 0.132242 0.404013 0.132242 0.441082 0.354908 0.376692 0.355294 0.4018 0.358508 0.401733 0.354908 0.376692 0.358508 0.401733 0.358122 0.376625 0.2389 0.924988 0.240056 0.989781 0.239613 0.989791 0.544031 0.579368 0.549344 0.579368 0.549344 0.590959 0.544031 0.579368 0.549344 0.590959 0.544031 0.590959 0.358697 0.37665 0.358649 0.401761 0.361863 0.401751 0.358697 0.37665 0.361863 0.401751 0.361911 0.37664 0.24039 0.989855 0.240752 0.925048 0.24101 0.989853 0.466469 0.539959 0.461156 0.539959 0.461156 0.528368 0.466469 0.539959 0.461156 0.528368 0.466469 0.528368 0.239613 0.989791 0.240056 0.989781 0.232411 0.989955 0.239613 0.989791 0.232411 0.989955 0.232903 0.989943 0.184845 0.643839 0.184845 0.605719 0.178328 0.605719 0.184845 0.643839 0.178328 0.605719 0.178328 0.643839 0.247813 0.989828 0.24039 0.989855 0.24101 0.989853 0.191647 0.643839 0.191647 0.605719 0.18513 0.605719 0.191647 0.643839 0.18513 0.605719 0.18513 0.643839</float_array>
                    <technique_common>
                        <accessor count="462" source="#shape0-lib-map-array" stride="2">
                            <param name="U" type="float"/>
                            <param name="V" type="float"/>
                        </accessor>
                    </technique_common>
                </source>
                <vertices id="shape0-lib-vertices">
                    <input semantic="POSITION" source="#shape0-lib-positions"/>
                </vertices>
                <triangles count="154" material="material0">
                    <input offset="0" semantic="VERTEX" source="#shape0-lib-vertices"/>
                    <input offset="1" semantic="COLOR" source="#shape0-lib-vcolor"/>
                    <input offset="2" semantic="NORMAL" source="#shape0-lib-normals"/>
                    <input offset="3" semantic="TEXCOORD" source="#shape0-lib-map"/>
                    <p>0 0 0 0 1 1 0 1 2 2 0 2 0 0 1 3 2 2 1 4 3 3 1 5 7 7 2 6 6 6 2 7 8 8 2 8 5 5 3 9 4 4 3 10 9 9 3 11 5 5 4 12 1 1 4 13 0 0 4 14 5 5 5 15 0 0 5 16 4 4 5 17 7 7 6 18 3 3 6 19 2 2 6 20 7 7 7 21 2 2 7 22 6 6 7 23 8 8 8 24 6 6 8 25 9 9 8 26 8 8 9 27 9 9 9 28 4 4 9 29 10 10 10 30 11 11 10 31 12 12 10 32 10 10 11 33 12 12 11 34 13 13 11 35 15 15 12 36 14 14 12 37 18 18 12 38 15 15 13 39 11 11 13 40 10 10 13 41 15 15 14 42 10 10 14 43 14 14 14 44 17 17 15 45 13 13 15 46 12 12 15 47 17 17 16 48 12 12 16 49 16 16 16 50 17 17 17 51 16 16 17 52 18 18 17 53 17 17 18 54 18 18 18 55 14 14 18 56 19 19 19 57 20 20 19 58 21 21 19 59 19 19 20 60 21 21 20 61 22 22 20 62 26 26 21 63 25 25 21 64 27 27 21 65 24 24 22 66 23 23 22 67 28 28 22 68 24 24 23 69 20 20 23 70 19 19 23 71 24 24 24 72 19 19 24 73 23 23 24 74 26 26 25 75 22 22 25 76 21 21 25 77 26 26 26 78 21 21 26 79 25 25 26 80 27 27 27 81 25 25 27 82 28 28 27 83 27 27 28 84 28 28 28 85 23 23 28 86 33 33 29 87 32 32 29 88 36 36 29 89 33 33 30 90 30 30 30 91 29 29 30 92 33 33 31 93 29 29 31 94 32 32 31 95 34 34 32 96 35 35 32 97 36 36 32 98 34 34 33 99 36 36 33 100 32 32 33 101 42 42 34 102 41 41 34 103 43 43 34 104 42 42 35 105 39 39 35 106 38 38 35 107 42 42 36 108 38 38 36 109 41 41 36 110 43 43 37 111 41 41 37 112 44 44 37 113 43 43 38 114 44 44 38 115 40 40 38 116 45 45 39 117 46 46 39 118 47 47 39 119 45 45 40 120 47 47 40 121 48 48 40 122 52 52 41 123 51 51 41 124 53 53 41 125 50 50 42 126 49 49 42 127 54 54 42 128 50 50 43 129 46 46 43 130 45 45 43 131 50 50 44 132 45 45 44 133 49 49 44 134 52 52 45 135 48 48 45 136 47 47 45 137 52 52 46 138 47 47 46 139 51 51 46 140 53 53 47 141 51 51 47 142 54 54 47 143 53 53 48 144 54 54 48 145 49 49 48 146 6 6 49 147 5 5 49 148 9 9 49 149 6 6 50 150 2 2 50 151 1 1 50 152 6 6 51 153 1 1 51 154 5 5 51 155 4 4 52 156 7 7 52 157 8 8 52 158 4 4 53 159 0 0 53 160 3 3 53 161 4 4 54 162 3 3 54 163 7 7 54 164 16 16 55 165 15 15 55 166 18 18 55 167 16 16 56 168 12 12 56 169 11 11 56 170 16 16 57 171 11 11 57 172 15 15 57 173 14 14 58 174 10 10 58 175 13 13 58 176 14 14 59 177 13 13 59 178 17 17 59 179 25 25 60 180 24 24 60 181 28 28 60 182 25 25 61 183 21 21 61 184 20 20 61 185 25 25 62 186 20 20 62 187 24 24 62 188 23 23 63 189 26 26 63 190 27 27 63 191 23 23 64 192 19 19 64 193 22 22 64 194 23 23 65 195 22 22 65 196 26 26 65 197 32 32 66 198 29 29 66 199 31 31 66 200 32 32 67 201 31 31 67 202 34 34 67 203 40 40 68 204 42 42 68 205 43 43 68 206 40 40 69 207 37 37 69 208 39 39 69 209 40 40 70 210 39 39 70 211 42 42 70 212 51 51 71 213 50 50 71 214 54 54 71 215 51 51 72 216 47 47 72 217 46 46 72 218 51 51 73 219 46 46 73 220 50 50 73 221 49 49 74 222 52 52 74 223 53 53 74 224 49 49 75 225 45 45 75 226 48 48 75 227 49 49 76 228 48 48 76 229 52 52 76 230 55 55 77 231 56 56 77 232 57 57 77 233 55 55 78 234 57 57 78 235 58 58 78 236 60 60 79 237 56 56 79 238 55 55 79 239 60 60 80 240 55 55 80 241 59 59 80 242 62 62 81 243 58 58 81 244 57 57 81 245 62 62 82 246 57 57 82 247 61 61 82 248 62 62 83 249 61 61 83 250 60 60 83 251 62 62 84 252 60 60 84 253 59 59 84 254 63 63 85 255 64 64 85 256 65 65 85 257 63 63 86 258 65 65 86 259 66 66 86 260 68 68 87 261 64 64 87 262 63 63 87 263 68 68 88 264 63 63 88 265 67 67 88 266 70 70 89 267 66 66 89 268 65 65 89 269 70 70 90 270 65 65 90 271 69 69 90 272 70 70 91 273 69 69 91 274 68 68 91 275 70 70 92 276 68 68 92 277 67 67 92 278 71 71 93 279 72 72 93 280 73 73 93 281 71 71 94 282 73 73 94 283 74 74 94 284 76 76 95 285 72 72 95 286 71 71 95 287 76 76 96 288 71 71 96 289 75 75 96 290 78 78 97 291 74 74 97 292 73 73 97 293 78 78 98 294 73 73 98 295 77 77 98 296 78 78 99 297 77 77 99 298 76 76 99 299 78 78 100 300 76 76 100 301 75 75 100 302 61 61 101 303 57 57 101 304 56 56 101 305 61 61 102 306 56 56 102 307 60 60 102 308 59 59 103 309 55 55 103 310 58 58 103 311 59 59 104 312 58 58 104 313 62 62 104 314 69 69 105 315 65 65 105 316 64 64 105 317 69 69 106 318 64 64 106 319 68 68 106 320 67 67 107 321 63 63 107 322 66 66 107 323 67 67 108 324 66 66 108 325 70 70 108 326 77 77 109 327 73 73 109 328 72 72 109 329 77 77 110 330 72 72 110 331 76 76 110 332 75 75 111 333 71 71 111 334 74 74 111 335 75 75 112 336 74 74 112 337 78 78 112 338 79 79 113 339 80 80 113 340 81 81 113 341 79 79 114 342 81 81 114 343 82 82 114 344 84 84 115 345 80 80 115 346 79 79 115 347 84 84 116 348 79 79 116 349 83 83 116 350 86 86 117 351 82 82 117 352 81 81 117 353 86 86 118 354 81 81 118 355 85 85 118 356 86 86 119 357 85 85 119 358 84 84 119 359 86 86 120 360 84 84 120 361 83 83 120 362 87 87 121 363 88 88 121 364 89 89 121 365 87 87 122 366 89 89 122 367 90 90 122 368 92 92 123 369 88 88 123 370 87 87 123 371 92 92 124 372 87 87 124 373 91 91 124 374 94 94 125 375 90 90 125 376 89 89 125 377 94 94 126 378 89 89 126 379 93 93 126 380 94 94 127 381 93 93 127 382 92 92 127 383 94 94 128 384 92 92 128 385 91 91 128 386 85 85 129 387 81 81 129 388 80 80 129 389 85 85 130 390 80 80 130 391 84 84 130 392 83 83 131 393 79 79 131 394 82 82 131 395 83 83 132 396 82 82 132 397 86 86 132 398 93 93 133 399 89 89 133 400 88 88 133 401 93 93 134 402 88 88 134 403 92 92 134 404 91 91 135 405 87 87 135 406 90 90 135 407 91 91 136 408 90 90 136 409 94 94 136 410 29 29 137 411 30 30 137 412 95 95 137 413 29 29 138 414 95 95 138 415 31 31 138 416 34 34 139 417 96 96 139 418 35 35 139 419 34 34 140 420 31 31 140 421 95 95 140 422 34 34 141 423 95 95 141 424 96 96 141 425 37 37 142 426 95 95 142 427 38 38 142 428 37 37 143 429 38 38 143 430 39 39 143 431 96 96 144 432 40 40 144 433 44 44 144 434 96 96 145 435 95 95 145 436 37 37 145 437 96 96 146 438 37 37 146 439 40 40 146 440 35 35 147 441 96 96 147 442 33 33 147 443 35 35 148 444 33 33 148 445 36 36 148 446 96 96 149 447 95 95 149 448 30 30 149 449 96 96 150 450 30 30 150 451 33 33 150 452 41 41 151 453 96 96 151 454 44 44 151 455 41 41 152 456 38 38 152 457 95 95 152 458 41 41 153 459 95 95 153 460 96 96 153 461</p>
                </triangles>
            </mesh>
        </geometry>
    </library_geometries>
    <library_visual_scenes>
        <visual_scene id="VisualSceneNode" name="VisualScene">
            <node id="node" name="node">
                <instance_geometry url="#shape0-lib">
                    <bind_material>
                        <technique_common>
                            <instance_material symbol="material0" target="#material0">
                                <bind_vertex_input semantic="UVSET0" input_semantic="TEXCOORD"/>
                            </instance_material>
                        </technique_common>
                    </bind_material>
                </instance_geometry>
            </node>
        </visual_scene>
    </library_visual_scenes>
    <scene>
        <instance_visual_scene url="#VisualSceneNode"/>
    </scene>
</COLLADA>
