<?xml version="1.0" encoding="UTF-8"?>
<COLLADA xmlns="http://www.collada.org/2005/11/COLLADASchema" version="1.4.1">
    <asset>
        <contributor>
            <author>VCGLab</author>
            <authoring_tool>VCGLib | MeshLab</authoring_tool>
        </contributor>
        <created>Thu Jul 3 01:44:17 2025 GMT</created>
        <modified>Thu Jul 3 01:44:17 2025 GMT</modified>
        <up_axis>Y_UP</up_axis>
    </asset>
    <library_images>
        <image id="texture0" name="texture0">
            <init_from>./image/shelf_books.png</init_from>
        </image>
    </library_images>
    <library_materials>
        <material id="material0" name="material0">
            <instance_effect url="#material0-fx"/>
        </material>
    </library_materials>
    <library_effects>
        <effect id="material0-fx">
            <profile_COMMON>
                <newparam sid="texture0-surface">
                    <surface type="2D">
                        <init_from>texture0</init_from>
                        <format>R8G8B8</format>
                    </surface>
                </newparam>
                <newparam sid="texture0-sampler">
                    <sampler2D>
                        <source>texture0-surface</source>
                        <minfilter>LINEAR</minfilter>
                        <magfilter>LINEAR</magfilter>
                    </sampler2D>
                </newparam>
                <technique sid="common">
                    <blinn>
                        <diffuse>
                            <texture texture="texture0-sampler" texcoord="UVSET0"/>
                        </diffuse>
                    </blinn>
                </technique>
            </profile_COMMON>
        </effect>
    </library_effects>
    <library_geometries>
        <geometry id="shape0-lib" name="shape0">
            <mesh>
                <source id="shape0-lib-positions" name="position">
                    <float_array id="shape0-lib-positions-array" count="75">-0.0766891 0.0721449 -0.0557915 0.083311 0.0721449 -0.0557915 0.083311 0.04987 -0.0557915 -0.0766891 0.04987 -0.0557915 -0.0766891 0.0714093 0.0639772 0.083311 0.0715477 0.0639288 0.083311 0.0506055 0.0639772 -0.0766891 0.0504671 0.0639288 -0.0880841 0.0485844 -0.0557915 0.0836891 0.045916 -0.0557915 -0.0885443 0.0263698 -0.0557915 -0.0880993 0.0478502 0.0639779 0.0836891 0.045916 0.0613915 -0.0885313 0.0269999 0.0638888 0.0832535 0.0248952 0.0642308 0.0836625 0.0446423 0.0643145 -0.0883689 0.0223996 -0.0557915 0.0833519 0.00051016 -0.0557915 -0.0884415 0.000180189 -0.0557915 -0.0883724 0.0214113 0.0641196 0.0833545 0.00124434 0.0639778 -0.0884395 0.000776388 0.0639298 0.0834272 0.0208772 0.0645044 0.0832286 0.0237014 -0.0557915 0.0832286 0.0237014 0.0613915</float_array>
                    <technique_common>
                        <accessor count="25" source="#shape0-lib-positions-array" stride="3">
                            <param name="X" type="float"/>
                            <param name="Y" type="float"/>
                            <param name="Z" type="float"/>
                        </accessor>
                    </technique_common>
                </source>
                <source id="shape0-lib-normals" name="normal">
                    <float_array id="shape0-lib-normals-array" count="126">0 0 -1 0 0 -1 0 0.999988 0.00498806 -0.000863232 0.999981 0.00614169 0 -0.999988 0.00498759 0.000863116 -0.999981 0.00614107 -0.000304165 0.00231071 0.999997 0.000304303 -0.00230751 0.999997 0.0163352 0.916574 0.399532 0.0155326 0.999879 0 0.0113508 0.999917 0.00613078 -0.00204188 -0.00419888 0.999989 -0.00203898 -0.00422715 0.999989 0.00192072 -0.999986 0.00497978 0.00272211 -0.999978 0.00612971 -0.00020612 -0.0268127 0.99964 -0.00226825 -0.00919002 0.999955 1 0 0 1 0 0 -1 0 0 -1 0 0 -0.999785 0.0207117 3.93944e-07 -0.999785 0.0207167 -5.18544e-07 -0.999995 0.00326733 -2.64781e-06 -0.999995 0.0032474 8.79961e-07 0 0 -1 0 0 -1 -0.0120646 -0.92173 0.387644 -0.0155324 -0.999866 0.00526561 -0.0192004 -0.999816 0 0 0 -1 0 0 -1 0.000797919 0.740636 0.671906 -0.00758613 0.999971 0 -0.0132126 0.999879 0.00824019 0.999785 -0.0207251 -5.41043e-05 0.999786 -0.0207088 6.65289e-05 0.999785 -0.0207251 0 0.999785 -0.0207251 0 0.997857 -0.00193847 -0.0654078 0.999986 0.00531657 -5.43003e-05 0.999984 0.00560616 0</float_array>
                    <technique_common>
                        <accessor count="42" source="#shape0-lib-normals-array" stride="3">
                            <param name="X" type="float"/>
                            <param name="Y" type="float"/>
                            <param name="Z" type="float"/>
                        </accessor>
                    </technique_common>
                </source>
                <source id="shape0-lib-vcolor" name="vcolor">
                    <float_array id="shape0-lib-vcolor-array" count="100">1 1 1 1 1 1 1 1 1 1 1 1 1 1 1 1 1 1 1 1 1 1 1 1 1 1 1 1 1 1 1 1 1 1 1 1 1 1 1 1 1 1 1 1 1 1 1 1 1 1 1 1 1 1 1 1 1 1 1 1 1 1 1 1 1 1 1 1 1 1 1 1 1 1 1 1 1 1 1 1 1 1 1 1 1 1 1 1 1 1 1 1 1 1 1 1 1 1 1 1</float_array>
                    <technique_common>
                        <accessor count="25" source="#shape0-lib-vcolor-array" stride="4">
                            <param name="R" type="float"/>
                            <param name="G" type="float"/>
                            <param name="B" type="float"/>
                            <param name="A" type="float"/>
                        </accessor>
                    </technique_common>
                </source>
                <source id="shape0-lib-map" name="map">
                    <float_array id="shape0-lib-map-array" count="252">0.431621 0.387337 0.454768 0.387337 0.454768 0.384081 0.431621 0.387337 0.454768 0.384081 0.431621 0.384081 0.410205 0.597382 0.410205 0.59207 0.421795 0.59207 0.410205 0.597382 0.421795 0.59207 0.421795 0.597382 0.49308 0.597382 0.49308 0.59207 0.50467 0.59207 0.49308 0.597382 0.50467 0.59207 0.50467 0.597382 0.416766 0.934914 0.484067 0.934993 0.484067 0.943648 0.416766 0.934914 0.484067 0.943648 0.416766 0.943569 0.484226 0.932945 0.411965 0.933678 0.484214 0.932363 0.461204 0.578257 0.461204 0.572945 0.472795 0.572945 0.461204 0.578257 0.472795 0.572945 0.472795 0.578257 0.411787 0.925106 0.484045 0.924226 0.484214 0.932363 0.411787 0.925106 0.484214 0.932363 0.411965 0.933678 0.537705 0.552757 0.537705 0.547445 0.549295 0.547445 0.537705 0.552757 0.549295 0.547445 0.549295 0.552757 0.411824 0.914052 0.484085 0.914269 0.484112 0.922536 0.411824 0.914052 0.484112 0.922536 0.411851 0.92258 0.635165 0.765539 0.594078 0.765299 0.594078 0.771442 0.635165 0.765539 0.594078 0.771442 0.635148 0.771224 0.635165 0.949081 0.594078 0.949321 0.594078 0.943178 0.635165 0.949081 0.594078 0.943178 0.635148 0.943396 0.635165 0.942584 0.594078 0.942823 0.594078 0.936697 0.635165 0.942584 0.594078 0.936697 0.634917 0.936859 0.635075 0.935361 0.594078 0.935602 0.594078 0.929474 0.635075 0.935361 0.594078 0.929474 0.635148 0.929691 0.429972 0.383893 0.454822 0.383503 0.454756 0.380256 0.429972 0.383893 0.454756 0.380256 0.429905 0.380646 0.411787 0.925106 0.484032 0.923619 0.484045 0.924226 0.429329 0.584632 0.429329 0.57932 0.44092 0.57932 0.429329 0.584632 0.44092 0.57932 0.44092 0.584632 0.429931 0.380065 0.454784 0.380114 0.454774 0.376866 0.429931 0.380065 0.454774 0.376866 0.42992 0.376818 0.484115 0.923211 0.411851 0.92258 0.484112 0.922536 0.49308 0.514507 0.49308 0.509195 0.50467 0.509195 0.49308 0.514507 0.50467 0.509195 0.50467 0.514507 0.635289 0.758426 0.634342 0.758081 0.634342 0.764208 0.635289 0.758426 0.634342 0.764208 0.635345 0.763805 0.634342 0.758081 0.594078 0.758081 0.594078 0.764208 0.634342 0.758081 0.594078 0.764208 0.634342 0.764208 0.635165 0.751925 0.634342 0.757813 0.635354 0.757359 0.635165 0.751925 0.594078 0.751685 0.594078 0.757813 0.635165 0.751925 0.594078 0.757813 0.634342 0.757813</float_array>
                    <technique_common>
                        <accessor count="126" source="#shape0-lib-map-array" stride="2">
                            <param name="U" type="float"/>
                            <param name="V" type="float"/>
                        </accessor>
                    </technique_common>
                </source>
                <vertices id="shape0-lib-vertices">
                    <input semantic="POSITION" source="#shape0-lib-positions"/>
                </vertices>
                <triangles count="42" material="material0">
                    <input offset="0" semantic="VERTEX" source="#shape0-lib-vertices"/>
                    <input offset="1" semantic="COLOR" source="#shape0-lib-vcolor"/>
                    <input offset="2" semantic="NORMAL" source="#shape0-lib-normals"/>
                    <input offset="3" semantic="TEXCOORD" source="#shape0-lib-map"/>
                    <p>0 0 0 0 1 1 0 1 2 2 0 2 0 0 1 3 2 2 1 4 3 3 1 5 5 5 2 6 1 1 2 7 0 0 2 8 5 5 3 9 0 0 3 10 4 4 3 11 7 7 4 12 3 3 4 13 2 2 4 14 7 7 5 15 2 2 5 16 6 6 5 17 7 7 6 18 6 6 6 19 5 5 6 20 7 7 7 21 5 5 7 22 4 4 7 23 12 12 8 24 11 11 8 25 15 15 8 26 12 12 9 27 9 9 9 28 8 8 9 29 12 12 10 30 8 8 10 31 11 11 10 32 13 13 11 33 14 14 11 34 15 15 11 35 13 13 12 36 15 15 12 37 11 11 12 38 21 21 13 39 18 18 13 40 17 17 13 41 21 21 14 42 17 17 14 43 20 20 14 44 21 21 15 45 20 20 15 46 22 22 15 47 21 21 16 48 22 22 16 49 19 19 16 50 6 6 17 51 2 2 17 52 1 1 17 53 6 6 18 54 1 1 18 55 5 5 18 56 4 4 19 57 0 0 19 58 3 3 19 59 4 4 20 60 3 3 20 61 7 7 20 62 11 11 21 63 8 8 21 64 10 10 21 65 11 11 22 66 10 10 22 67 13 13 22 68 19 19 23 69 16 16 23 70 18 18 23 71 19 19 24 72 18 18 24 73 21 21 24 74 8 8 25 75 9 9 25 76 23 23 25 77 8 8 26 78 23 23 26 79 10 10 26 80 13 13 27 81 24 24 27 82 14 14 27 83 13 13 28 84 10 10 28 85 23 23 28 86 13 13 29 87 23 23 29 88 24 24 29 89 16 16 30 90 23 23 30 91 17 17 30 92 16 16 31 93 17 17 31 94 18 18 31 95 24 24 32 96 19 19 32 97 22 22 32 98 24 24 33 99 23 23 33 100 16 16 33 101 24 24 34 102 16 16 34 103 19 19 34 104 14 14 35 105 24 24 35 106 12 12 35 107 14 14 36 108 12 12 36 109 15 15 36 110 24 24 37 111 23 23 37 112 9 9 37 113 24 24 38 114 9 9 38 115 12 12 38 116 20 20 39 117 24 24 39 118 22 22 39 119 20 20 40 120 17 17 40 121 23 23 40 122 20 20 41 123 23 23 41 124 24 24 41 125</p>
                </triangles>
            </mesh>
        </geometry>
    </library_geometries>
    <library_visual_scenes>
        <visual_scene id="VisualSceneNode" name="VisualScene">
            <node id="node" name="node">
                <instance_geometry url="#shape0-lib">
                    <bind_material>
                        <technique_common>
                            <instance_material symbol="material0" target="#material0">
                                <bind_vertex_input semantic="UVSET0" input_semantic="TEXCOORD"/>
                            </instance_material>
                        </technique_common>
                    </bind_material>
                </instance_geometry>
            </node>
        </visual_scene>
    </library_visual_scenes>
    <scene>
        <instance_visual_scene url="#VisualSceneNode"/>
    </scene>
</COLLADA>
