<?xml version="1.0" encoding="UTF-8"?>
<COLLADA xmlns="http://www.collada.org/2005/11/COLLADASchema" version="1.4.1">
    <asset>
        <contributor>
            <author>VCGLab</author>
            <authoring_tool>VCGLib | MeshLab</authoring_tool>
        </contributor>
        <created>Thu Jul 3 01:38:39 2025 GMT</created>
        <modified>Thu Jul 3 01:38:39 2025 GMT</modified>
        <up_axis>Y_UP</up_axis>
    </asset>
    <library_images>
        <image id="texture0" name="texture0">
            <init_from>./image/shelf_books.png</init_from>
        </image>
    </library_images>
    <library_materials>
        <material id="material0" name="material0">
            <instance_effect url="#material0-fx"/>
        </material>
    </library_materials>
    <library_effects>
        <effect id="material0-fx">
            <profile_COMMON>
                <newparam sid="texture0-surface">
                    <surface type="2D">
                        <init_from>texture0</init_from>
                        <format>R8G8B8</format>
                    </surface>
                </newparam>
                <newparam sid="texture0-sampler">
                    <sampler2D>
                        <source>texture0-surface</source>
                        <minfilter>LINEAR</minfilter>
                        <magfilter>LINEAR</magfilter>
                    </sampler2D>
                </newparam>
                <technique sid="common">
                    <blinn>
                        <diffuse>
                            <texture texture="texture0-sampler" texcoord="UVSET0"/>
                        </diffuse>
                    </blinn>
                </technique>
            </profile_COMMON>
        </effect>
    </library_effects>
    <library_geometries>
        <geometry id="shape0-lib" name="shape0">
            <mesh>
                <source id="shape0-lib-positions" name="position">
                    <float_array id="shape0-lib-positions-array" count="183">0.0340743 -0.00107207 -0.0692915 0.0337442 0.170721 -0.0692915 0.0559636 0.170649 -0.0692915 0.0562936 -0.00114455 -0.0692915 0.0346807 -0.00107401 0.0503317 0.0343496 0.17072 0.0504523 0.055357 0.170651 0.0503317 0.0562936 -0.00114455 0.0478915 0.0549549 -0.0011401 0.0508943 0.0587624 -0.00115266 -0.0692915 0.0584324 0.170641 -0.0692915 0.0806517 0.170568 -0.0692915 0.0809817 -0.00122538 -0.0692915 0.059369 -0.00115478 0.0503319 0.0590378 0.170639 0.0504523 0.0800452 0.17057 0.0503317 0.0803763 -0.00122343 0.0504522 -0.0889125 -0.00115266 -0.0692915 -0.0666374 -0.00115266 -0.0692915 -0.0653519 -0.000547791 -0.0692915 0.00938621 -0.000991249 -0.0692915 0.0316055 -0.00106397 -0.0692915 -0.0431373 -0.00100794 -0.0692915 -0.0391671 -0.000832462 -0.0692915 -0.0169478 -0.00090518 -0.0692915 -0.0153019 -0.000910664 -0.0692915 0.00691738 -0.000983143 -0.0692915 -0.0889125 0.158847 -0.0692915 -0.0666374 0.158847 -0.0692915 -0.0626837 0.171225 -0.0692915 0.00905617 0.170802 -0.0692915 0.0312755 0.170729 -0.0692915 -0.0172778 0.170888 -0.0692915 -0.0156319 0.170883 -0.0692915 0.00658741 0.17081 -0.0692915 -0.088305 -0.00115266 0.0503307 -0.0672438 -0.00115266 0.0504512 -0.0647456 -0.000560184 0.0503317 0.00999267 -0.000993366 0.0503318 0.0310001 -0.00106187 0.0504523 -0.0437962 -0.000994332 0.0505028 -0.0384293 -0.000835002 0.0504316 -0.0169478 -0.00090518 0.0478915 -0.0182865 -0.000900734 0.0508943 -0.0146954 -0.000912631 0.0503318 0.00691738 -0.000983143 0.0478915 0.00557862 -0.000978616 0.0508943 -0.0883061 0.158847 0.0504511 -0.067245 0.158847 0.0503309 -0.0626837 0.171225 0.0478915 -0.0613453 0.171197 0.0508942 0.00905617 0.170802 0.0478915 0.030669 0.170731 0.0503317 0.0103949 0.170797 0.0508943 -0.0416756 0.17079 0.0507007 -0.0178842 0.17089 0.050332 -0.0376114 0.170969 0.0510403 -0.0150265 0.170881 0.0504523 0.0059809 0.170812 0.0503317 -0.040469 0.170765 -0.0692915 -0.040469 0.170765 0.0478915</float_array>
                    <technique_common>
                        <accessor count="61" source="#shape0-lib-positions-array" stride="3">
                            <param name="X" type="float"/>
                            <param name="Y" type="float"/>
                            <param name="Z" type="float"/>
                        </accessor>
                    </technique_common>
                </source>
                <source id="shape0-lib-normals" name="normal">
                    <float_array id="shape0-lib-normals-array" count="294">0 0 -1 0 0 -1 0.913342 -0.00080465 0.407192 -0.999985 -0.00192146 0.00505592 -0.999985 -0.00193095 0.00506954 0.999998 0.00192091 0 0.999973 0.00537951 0.00507047 0.00574682 0.00326082 0.999978 -0.0277383 -0.000754845 0.999615 0 0 -1 0 0 -1 -0.999985 -0.00192089 0.00505563 -0.999985 -0.00193143 0.00507075 0.999985 0.00192089 0.00505604 0.999985 0.0019306 0.00506997 0.00574584 0.000712907 0.999983 -0.00573116 -0.000712082 0.999983 0.00323983 0.999995 -2.25678e-06 0.0032494 0.999995 -3.98484e-06 -0.00326053 -0.999995 2.84108e-05 -0.00326201 -0.999995 3.11461e-07 -0.00326374 -0.999995 0 0.00328545 0.999995 -2.02752e-06 0.00326432 0.999995 1.78928e-06 -0.00327281 -0.999995 -1.09348e-06 -0.00326813 -0.999995 -2.46574e-07 0 0 -1 0 0 -1 -0.913334 0.000805351 0.407211 -0.999998 -0.00192114 0 -0.999973 -0.00537912 0.00506954 0.999985 0.0019209 0.00505588 0.999985 0.00193055 0.00506974 0.0277371 0.000754725 0.999615 -0.00574738 -0.00326085 0.999978 0.00327008 0.999995 0 0.00328545 0.999995 -2.7757e-06 0.0032617 0.999995 7.42103e-05 -0.00327286 -0.999995 -1.10845e-06 -0.00326071 -0.999995 1.08739e-06 0 0 -1 0 0 -1 -0.999987 0 0.00506384 -0.999987 -1.08976e-05 0.00507841 0.999987 0 0.0050644 0.999987 1.12229e-05 0.0050794 0.00570641 0.000751888 0.999983 -0.00571913 -0.000752166 0.999983 -0.91319 0.0167449 0.40719 -0.999879 0.0155314 0 -0.999914 0.0120736 0.00506946 0.00981441 -0.00127279 0.999951 -0.00823056 -0.00311188 0.999961 0.913342 -0.000805983 0.407192 0.999998 0.00192091 0 0.999973 0.00537873 0.00506933 0.0358926 0.00318678 0.999351 -0.0229758 -0.00343263 0.99973 0 0 -1 0 0 -1 0.913336 -0.000805386 0.407207 -0.999985 -0.00192088 0.00505563 -0.999985 -0.00193071 0.00506974 0.999998 0.00192074 0 0.999973 0.00537895 0.0050699 0.00575043 0.00326097 0.999978 -0.0277364 -0.000754878 0.999615 0 1 0 0 1 0 0 -1 0 0 -1 0 -0.0207094 -0.999786 1.39295e-06 -0.0207193 -0.999785 -3.95643e-07 -0.00326391 -0.999995 2.54078e-05 -0.00327272 -0.999995 -1.0424e-06 -0.00326691 -0.999995 0 0.00328545 0.999995 -1.03081e-06 0.00327212 0.999995 1.37653e-06 -0.00325619 -0.999995 5.59419e-05 -0.00326197 -0.999995 9.68257e-08 -0.00326251 -0.999995 0 0 0 -1 0 0 -1 0.918723 -0.0117959 0.394727 0.999864 -0.0155318 0.00550165 0.999812 -0.0193679 0 0 0 -1 0 0 -1 -0.740548 0.00114455 0.672002 -0.999971 -0.00758672 0 -0.999911 -0.0117943 0.00616205 0.0207025 0.999786 -7.02651e-05 0.0206833 0.999786 7.37135e-05 0.0207025 0.999786 0 0.0207025 0.999786 0 0.00165515 0.9978 -0.0662735 -0.00530405 0.999986 -4.04668e-05 -0.00551839 0.999985 0</float_array>
                    <technique_common>
                        <accessor count="98" source="#shape0-lib-normals-array" stride="3">
                            <param name="X" type="float"/>
                            <param name="Y" type="float"/>
                            <param name="Z" type="float"/>
                        </accessor>
                    </technique_common>
                </source>
                <source id="shape0-lib-vcolor" name="vcolor">
                    <float_array id="shape0-lib-vcolor-array" count="244">1 1 1 1 1 1 1 1 1 1 1 1 1 1 1 1 1 1 1 1 1 1 1 1 1 1 1 1 1 1 1 1 1 1 1 1 1 1 1 1 1 1 1 1 1 1 1 1 1 1 1 1 1 1 1 1 1 1 1 1 1 1 1 1 1 1 1 1 1 1 1 1 1 1 1 1 1 1 1 1 1 1 1 1 1 1 1 1 1 1 1 1 1 1 1 1 1 1 1 1 1 1 1 1 1 1 1 1 1 1 1 1 1 1 1 1 1 1 1 1 1 1 1 1 1 1 1 1 1 1 1 1 1 1 1 1 1 1 1 1 1 1 1 1 1 1 1 1 1 1 1 1 1 1 1 1 1 1 1 1 1 1 1 1 1 1 1 1 1 1 1 1 1 1 1 1 1 1 1 1 1 1 1 1 1 1 1 1 1 1 1 1 1 1 1 1 1 1 1 1 1 1 1 1 1 1 1 1 1 1 1 1 1 1 1 1 1 1 1 1 1 1 1 1 1 1 1 1 1 1 1 1 1 1 1 1 1 1 1 1 1 1 1 1</float_array>
                    <technique_common>
                        <accessor count="61" source="#shape0-lib-vcolor-array" stride="4">
                            <param name="R" type="float"/>
                            <param name="G" type="float"/>
                            <param name="B" type="float"/>
                            <param name="A" type="float"/>
                        </accessor>
                    </technique_common>
                </source>
                <source id="shape0-lib-map" name="map">
                    <float_array id="shape0-lib-map-array" count="588">0.379671 0.34075 0.379624 0.365861 0.382838 0.36585 0.379671 0.34075 0.382838 0.36585 0.382886 0.340739 0.288525 0.83237 0.288189 0.897177 0.288033 0.832372 0.453719 0.527209 0.448406 0.527209 0.448406 0.515618 0.453719 0.527209 0.448406 0.515618 0.453719 0.515618 0.499406 0.560243 0.504719 0.560243 0.504719 0.571834 0.499406 0.560243 0.504719 0.571834 0.499406 0.571834 0.288033 0.832372 0.288189 0.897177 0.280992 0.897202 0.288033 0.832372 0.280992 0.897202 0.281101 0.832396 0.383243 0.340738 0.383195 0.365849 0.38641 0.365839 0.383243 0.340738 0.38641 0.365839 0.386457 0.340728 0.434594 0.527209 0.429281 0.527209 0.429281 0.515618 0.434594 0.527209 0.429281 0.515618 0.434594 0.515618 0.473906 0.553868 0.479219 0.553868 0.479219 0.565459 0.473906 0.553868 0.479219 0.565459 0.473906 0.565459 0.296794 0.832341 0.296685 0.897147 0.289487 0.897172 0.296794 0.832341 0.289487 0.897172 0.289597 0.832366 0.278516 0.594348 0.278516 0.556227 0.271998 0.556227 0.278516 0.594348 0.271998 0.556227 0.271998 0.594348 0.281101 0.832396 0.288525 0.83237 0.288033 0.832372 0.174343 0.393781 0.174343 0.356712 0.177908 0.356712 0.174343 0.393781 0.177908 0.356712 0.177908 0.393781 0.285758 0.594348 0.285758 0.556227 0.27924 0.556227 0.285758 0.594348 0.27924 0.556227 0.27924 0.594348 0.178304 0.393781 0.178304 0.356712 0.181868 0.356712 0.178304 0.393781 0.181868 0.356712 0.181868 0.393781 0.3761 0.340762 0.376052 0.365873 0.379266 0.365862 0.3761 0.340762 0.379266 0.365862 0.379314 0.340751 0.27227 0.897234 0.272606 0.832427 0.272762 0.897232 0.542969 0.520834 0.537656 0.520834 0.537656 0.509243 0.542969 0.520834 0.537656 0.509243 0.542969 0.509243 0.544031 0.509243 0.549344 0.509243 0.549344 0.520834 0.544031 0.509243 0.549344 0.520834 0.544031 0.520834 0.279804 0.832401 0.279694 0.897207 0.272762 0.897232 0.279804 0.832401 0.272762 0.897232 0.272606 0.832427 0.264757 0.556227 0.264757 0.594348 0.271274 0.594348 0.264757 0.556227 0.271274 0.594348 0.271274 0.556227 0.27227 0.897234 0.272762 0.897232 0.279694 0.897207 0.170382 0.393781 0.170382 0.356712 0.173947 0.356712 0.170382 0.393781 0.173947 0.356712 0.173947 0.393781 0.357879 0.340738 0.357879 0.364125 0.361101 0.364125 0.357879 0.340738 0.361101 0.364125 0.361101 0.340738 0.409094 0.629209 0.403781 0.629209 0.403781 0.617618 0.409094 0.629209 0.403781 0.617618 0.409094 0.617618 0.512156 0.617618 0.517469 0.617618 0.517469 0.629209 0.512156 0.617618 0.517469 0.629209 0.512156 0.629209 0.237997 0.832367 0.238001 0.892724 0.230784 0.892724 0.237997 0.832367 0.230784 0.892724 0.230781 0.832367 0.247584 0.897393 0.246888 0.83259 0.248076 0.897382 0.491969 0.584584 0.486656 0.584584 0.486656 0.572993 0.491969 0.584584 0.486656 0.572993 0.491969 0.572993 0.254073 0.832427 0.254785 0.89723 0.248076 0.897382 0.254073 0.832427 0.248076 0.897382 0.246888 0.83259 0.263322 0.83246 0.262985 0.897267 0.26283 0.832462 0.493031 0.560243 0.498344 0.560243 0.498344 0.571834 0.493031 0.560243 0.498344 0.571834 0.493031 0.571834 0.26283 0.832462 0.262985 0.897267 0.256183 0.897292 0.26283 0.832462 0.256183 0.897292 0.255924 0.832487 0.372528 0.340774 0.37248 0.365885 0.375695 0.365874 0.372528 0.340774 0.375695 0.365874 0.375742 0.340763 0.271534 0.832431 0.271199 0.897238 0.271042 0.832433 0.383594 0.527209 0.378281 0.527209 0.378281 0.515618 0.383594 0.527209 0.378281 0.515618 0.383594 0.515618 0.371906 0.515618 0.377219 0.515618 0.377219 0.527209 0.371906 0.515618 0.377219 0.527209 0.371906 0.527209 0.271042 0.832433 0.271199 0.897238 0.264001 0.897263 0.271042 0.832433 0.264001 0.897263 0.26411 0.832457 0.242553 0.594348 0.242553 0.556227 0.236019 0.556227 0.242553 0.594348 0.236019 0.556227 0.236019 0.594348 0.154611 0.393781 0.154611 0.356712 0.158185 0.356712 0.154611 0.393781 0.158185 0.356712 0.158185 0.393781 0.158391 0.393781 0.158391 0.356712 0.161955 0.356712 0.158391 0.393781 0.161955 0.356712 0.161955 0.393781 0.255924 0.832487 0.263322 0.83246 0.26283 0.832462 0.162592 0.393781 0.162592 0.356712 0.166157 0.356712 0.162592 0.393781 0.166157 0.356712 0.166157 0.393781 0.264033 0.594348 0.264033 0.556227 0.257515 0.556227 0.264033 0.594348 0.257515 0.556227 0.257515 0.594348 0.26411 0.832457 0.271534 0.832431 0.271042 0.832433 0.166421 0.393781 0.166421 0.356712 0.169986 0.356712 0.166421 0.393781 0.169986 0.356712 0.169986 0.393781 0.365287 0.340827 0.365673 0.365935 0.368887 0.365867 0.365287 0.340827 0.368887 0.365867 0.368501 0.340759 0.254073 0.832427 0.255228 0.89722 0.254785 0.89723 0.454781 0.579368 0.460094 0.579368 0.460094 0.590959 0.454781 0.579368 0.460094 0.590959 0.454781 0.590959 0.369075 0.340785 0.369028 0.365896 0.372242 0.365885 0.369075 0.340785 0.372242 0.365885 0.37229 0.340774 0.255563 0.897294 0.255924 0.832487 0.256183 0.897292 0.428219 0.527209 0.422906 0.527209 0.422906 0.515618 0.428219 0.527209 0.422906 0.515618 0.428219 0.515618 0.254785 0.89723 0.255228 0.89722 0.247584 0.897393 0.254785 0.89723 0.247584 0.897393 0.248076 0.897382 0.250229 0.594348 0.250229 0.556227 0.243713 0.556227 0.250229 0.594348 0.243713 0.556227 0.243713 0.594348 0.262985 0.897267 0.255563 0.897294 0.256183 0.897292 0.257032 0.594348 0.257032 0.556227 0.250515 0.556227 0.257032 0.594348 0.250515 0.556227 0.250515 0.594348</float_array>
                    <technique_common>
                        <accessor count="294" source="#shape0-lib-map-array" stride="2">
                            <param name="U" type="float"/>
                            <param name="V" type="float"/>
                        </accessor>
                    </technique_common>
                </source>
                <vertices id="shape0-lib-vertices">
                    <input semantic="POSITION" source="#shape0-lib-positions"/>
                </vertices>
                <triangles count="98" material="material0">
                    <input offset="0" semantic="VERTEX" source="#shape0-lib-vertices"/>
                    <input offset="1" semantic="COLOR" source="#shape0-lib-vcolor"/>
                    <input offset="2" semantic="NORMAL" source="#shape0-lib-normals"/>
                    <input offset="3" semantic="TEXCOORD" source="#shape0-lib-map"/>
                    <p>0 0 0 0 1 1 0 1 2 2 0 2 0 0 1 3 2 2 1 4 3 3 1 5 7 7 2 6 6 6 2 7 8 8 2 8 5 5 3 9 1 1 3 10 0 0 3 11 5 5 4 12 0 0 4 13 4 4 4 14 7 7 5 15 3 3 5 16 2 2 5 17 7 7 6 18 2 2 6 19 6 6 6 20 8 8 7 21 6 6 7 22 5 5 7 23 8 8 8 24 5 5 8 25 4 4 8 26 9 9 9 27 10 10 9 28 11 11 9 29 9 9 10 30 11 11 10 31 12 12 10 32 14 14 11 33 10 10 11 34 9 9 11 35 14 14 12 36 9 9 12 37 13 13 12 38 16 16 13 39 12 12 13 40 11 11 13 41 16 16 14 42 11 11 14 43 15 15 14 44 16 16 15 45 15 15 15 46 14 14 15 47 16 16 16 48 14 14 16 49 13 13 16 50 6 6 17 51 2 2 17 52 1 1 17 53 6 6 18 54 1 1 18 55 5 5 18 56 4 4 19 57 7 7 19 58 8 8 19 59 4 4 20 60 0 0 20 61 3 3 20 62 4 4 21 63 3 3 21 64 7 7 21 65 15 15 22 66 11 11 22 67 10 10 22 68 15 15 23 69 10 10 23 70 14 14 23 71 13 13 24 72 9 9 24 73 12 12 24 74 13 13 25 75 12 12 25 76 16 16 25 77 20 20 26 78 30 30 26 79 31 31 26 80 20 20 27 81 31 31 27 82 21 21 27 83 51 51 28 84 38 38 28 85 53 53 28 86 51 51 29 87 30 30 29 88 20 20 29 89 51 51 30 90 20 20 30 91 38 38 30 92 39 39 31 93 21 21 31 94 31 31 31 95 39 39 32 96 31 31 32 97 52 52 32 98 39 39 33 99 52 52 33 100 53 53 33 101 39 39 34 102 53 53 34 103 38 38 34 104 30 30 35 105 51 51 35 106 52 52 35 107 30 30 36 108 52 52 36 109 31 31 36 110 51 51 37 111 53 53 37 112 52 52 37 113 38 38 38 114 20 20 38 115 21 21 38 116 38 38 39 117 21 21 39 118 39 39 39 119 17 17 40 120 27 27 40 121 28 28 40 122 17 17 41 123 28 28 41 124 18 18 41 125 47 47 42 126 27 27 42 127 17 17 42 128 47 47 43 129 17 17 43 130 35 35 43 131 36 36 44 132 18 18 44 133 28 28 44 134 36 36 45 135 28 28 45 136 48 48 45 137 36 36 46 138 48 48 46 139 47 47 46 140 36 36 47 141 47 47 47 142 35 35 47 143 49 49 48 144 37 37 48 145 50 50 48 146 49 49 49 147 29 29 49 148 19 19 49 149 49 49 50 150 19 19 50 151 37 37 50 152 40 40 51 153 54 54 51 154 50 50 51 155 40 40 52 156 50 50 52 157 37 37 52 158 42 42 53 159 55 55 53 160 43 43 53 161 42 42 54 162 24 24 54 163 32 32 54 164 42 42 55 165 32 32 55 166 55 55 55 167 43 43 56 168 55 55 56 169 56 56 56 170 43 43 57 171 56 56 57 172 41 41 57 173 25 25 58 174 33 33 58 175 34 34 58 176 25 25 59 177 34 34 59 178 26 26 59 179 45 45 60 180 58 58 60 181 46 46 60 182 57 57 61 183 33 33 61 184 25 25 61 185 57 57 62 186 25 25 62 187 44 44 62 188 45 45 63 189 26 26 63 190 34 34 63 191 45 45 64 192 34 34 64 193 58 58 64 194 46 46 65 195 58 58 65 196 57 57 65 197 46 46 66 198 57 57 66 199 44 44 66 200 48 48 67 201 28 28 67 202 27 27 67 203 48 48 68 204 27 27 68 205 47 47 68 206 35 35 69 207 17 17 69 208 18 18 69 209 35 35 70 210 18 18 70 211 36 36 70 212 37 37 71 213 19 19 71 214 22 22 71 215 37 37 72 216 22 22 72 217 40 40 72 218 41 41 73 219 42 42 73 220 43 43 73 221 41 41 74 222 23 23 74 223 24 24 74 224 41 41 75 225 24 24 75 226 42 42 75 227 58 58 76 228 34 34 76 229 33 33 76 230 58 58 77 231 33 33 77 232 57 57 77 233 44 44 78 234 45 45 78 235 46 46 78 236 44 44 79 237 25 25 79 238 26 26 79 239 44 44 80 240 26 26 80 241 45 45 80 242 19 19 81 243 29 29 81 244 59 59 81 245 19 19 82 246 59 59 82 247 22 22 82 248 40 40 83 249 60 60 83 250 54 54 83 251 40 40 84 252 22 22 84 253 59 59 84 254 40 40 85 255 59 59 85 256 60 60 85 257 23 23 86 258 59 59 86 259 32 32 86 260 23 23 87 261 32 32 87 262 24 24 87 263 60 60 88 264 41 41 88 265 56 56 88 266 60 60 89 267 59 59 89 268 23 23 89 269 60 60 90 270 23 23 90 271 41 41 90 272 54 54 91 273 60 60 91 274 49 49 91 275 54 54 92 276 49 49 92 277 50 50 92 278 60 60 93 279 59 59 93 280 29 29 93 281 60 60 94 282 29 29 94 283 49 49 94 284 55 55 95 285 60 60 95 286 56 56 95 287 55 55 96 288 32 32 96 289 59 59 96 290 55 55 97 291 59 59 97 292 60 60 97 293</p>
                </triangles>
            </mesh>
        </geometry>
    </library_geometries>
    <library_visual_scenes>
        <visual_scene id="VisualSceneNode" name="VisualScene">
            <node id="node" name="node">
                <instance_geometry url="#shape0-lib">
                    <bind_material>
                        <technique_common>
                            <instance_material symbol="material0" target="#material0">
                                <bind_vertex_input semantic="UVSET0" input_semantic="TEXCOORD"/>
                            </instance_material>
                        </technique_common>
                    </bind_material>
                </instance_geometry>
            </node>
        </visual_scene>
    </library_visual_scenes>
    <scene>
        <instance_visual_scene url="#VisualSceneNode"/>
    </scene>
</COLLADA>
