<?xml version="1.0" encoding="UTF-8"?>
<COLLADA xmlns="http://www.collada.org/2005/11/COLLADASchema" version="1.4.1">
    <asset>
        <contributor>
            <author>VCGLab</author>
            <authoring_tool>VCGLib | MeshLab</authoring_tool>
        </contributor>
        <created>Thu Jul 3 02:12:45 2025 GMT</created>
        <modified>Thu Jul 3 02:12:45 2025 GMT</modified>
        <up_axis>Y_UP</up_axis>
    </asset>
    <library_images>
        <image id="texture0" name="texture0">
            <init_from>./image/shelf_books.png</init_from>
        </image>
    </library_images>
    <library_materials>
        <material id="material0" name="material0">
            <instance_effect url="#material0-fx"/>
        </material>
    </library_materials>
    <library_effects>
        <effect id="material0-fx">
            <profile_COMMON>
                <newparam sid="texture0-surface">
                    <surface type="2D">
                        <init_from>texture0</init_from>
                        <format>R8G8B8</format>
                    </surface>
                </newparam>
                <newparam sid="texture0-sampler">
                    <sampler2D>
                        <source>texture0-surface</source>
                        <minfilter>LINEAR</minfilter>
                        <magfilter>LINEAR</magfilter>
                    </sampler2D>
                </newparam>
                <technique sid="common">
                    <blinn>
                        <diffuse>
                            <texture texture="texture0-sampler" texcoord="UVSET0"/>
                        </diffuse>
                    </blinn>
                </technique>
            </profile_COMMON>
        </effect>
    </library_effects>
    <library_geometries>
        <geometry id="shape0-lib" name="shape0">
            <mesh>
                <source id="shape0-lib-positions" name="position">
                    <float_array id="shape0-lib-positions-array" count="387">-0.113884 0.0029522 -0.0537915 -0.111216 0.174725 -0.0537915 -0.0916695 0.00249205 -0.0537915 -0.113278 0.00293979 0.0658319 -0.110611 0.174712 0.0659525 -0.0923284 0.00250564 0.0660028 -0.0902077 0.17429 0.0662006 -0.0876992 0.00266753 -0.0537915 -0.0658099 0.174388 -0.0537915 -0.0654799 0.00259481 -0.0537915 -0.0869613 0.002665 0.0659316 -0.0664163 0.17439 0.065832 -0.0654799 0.00259481 0.0633915 -0.0668186 0.00259927 0.0663942 -0.0861436 0.174469 0.0665402 -0.063834 0.00258933 -0.0537915 -0.0641641 0.174383 -0.0537915 -0.0419447 0.17431 -0.0537915 -0.0416147 0.00251685 -0.0537915 -0.0632275 0.00258735 0.0658318 -0.0635587 0.174381 0.0659523 -0.0425512 0.174312 0.0658318 -0.0416147 0.00251685 0.0633915 -0.0429535 0.00252134 0.0663943 -0.0391459 0.00250874 -0.0537915 -0.039476 0.174302 -0.0537915 -0.0172567 0.174229 -0.0537915 -0.0169266 0.00243602 -0.0537915 -0.0385394 0.00250664 0.0658318 -0.0388706 0.1743 0.0659523 -0.0178631 0.174231 0.0658318 -0.0169266 0.00243602 0.0633915 -0.0182653 0.00244075 0.0663942 -0.0144579 0.00242792 -0.0537915 -0.0147878 0.174221 -0.0537915 0.00743147 0.174149 -0.0537915 0.00776144 0.00235544 -0.0537915 -0.0138514 0.00242596 0.0658317 -0.0147878 0.174221 0.0633915 0.00682496 0.174151 0.0658317 0.00776144 0.00235544 0.0633915 0.00642284 0.00235983 0.0663942 -0.0134491 0.174217 0.0663943 0.0102303 0.00234733 -0.0537915 0.00990029 0.174141 -0.0537915 0.0321196 0.174068 -0.0537915 0.0324496 0.00227461 -0.0537915 0.0108368 0.00234522 0.0658317 0.0105057 0.174139 0.0659523 0.0315131 0.17407 0.0658317 0.0318442 0.00227657 0.0659523 0.0341159 0.0029522 -0.0537915 0.0367841 0.174725 -0.0537915 0.0563305 0.00249205 -0.0537915 0.0347224 0.00293979 0.0658318 0.0373894 0.174712 0.0659523 0.0556716 0.00250564 0.0660028 0.0577923 0.17429 0.0662007 0.0603008 0.00266753 -0.0537915 0.0821901 0.174388 -0.0537915 0.0825201 0.00259481 -0.0537915 0.0610387 0.002665 0.0659316 0.0815837 0.17439 0.065832 0.0825201 0.00259481 0.0633915 0.0811814 0.00259927 0.0663942 0.0618564 0.174469 0.0665402 0.084166 0.00258933 -0.0537915 0.0838359 0.174383 -0.0537915 0.106055 0.17431 -0.0537915 0.106385 0.00251685 -0.0537915 0.0847725 0.00258735 0.0658317 0.0844413 0.174381 0.0659522 0.105449 0.174312 0.065832 0.10578 0.00251882 0.0659526 0.108854 0.00250874 -0.0537915 0.108524 0.174302 -0.0537915 0.130743 0.174229 -0.0537915 0.131073 0.00243602 -0.0537915 0.109461 0.00250664 0.0658315 0.10913 0.1743 0.0659521 0.130137 0.174231 0.065832 0.131073 0.00243602 0.0633915 0.129735 0.00244075 0.0663941 0.133542 0.00242792 -0.0537915 0.133212 0.174221 -0.0537915 0.155431 0.174149 -0.0537915 0.155761 0.00235544 -0.0537915 0.134149 0.00242596 0.0658315 0.133212 0.174221 0.0633915 0.154825 0.174151 0.0658321 0.155156 0.0023574 0.0659526 0.134551 0.174217 0.0663944 0.15823 0.00234733 -0.0537915 0.1579 0.174141 -0.0537915 0.18012 0.174068 -0.0537915 0.18045 0.00227461 -0.0537915 0.158837 0.00234522 0.0658315 0.1579 0.174141 0.0633915 0.179513 0.17407 0.0658315 0.179844 0.00227657 0.065952 0.159239 0.174136 0.0663944 -0.186135 -0.000156421 -0.0537915 -0.183466 0.141617 -0.0537915 -0.16392 -0.000616688 -0.0537915 -0.185528 -0.000168878 0.0658315 -0.182861 0.141604 0.0659524 -0.164579 -0.000603089 0.066003 -0.162458 0.141181 0.0662006 -0.15995 -0.000441212 -0.0537915 -0.13806 0.14128 -0.0537915 -0.13773 -0.000513811 -0.0537915 -0.159212 -0.000443747 0.0659316 -0.138667 0.141281 0.0658318 -0.138336 -0.000511825 0.0659521 -0.158394 0.141361 0.0665403 -0.136085 -0.000519294 -0.0537915 -0.136415 0.141274 -0.0537915 -0.114195 0.141202 -0.0537915 -0.113865 -0.000591893 -0.0537915 -0.135478 -0.000521262 0.0658315 -0.135809 0.141272 0.065952 -0.114802 0.141204 0.0658315 -0.114471 -0.000589873 0.065952 -0.161252 0.141156 -0.0537915 -0.161252 0.141156 0.0633915 -0.0890012 0.174265 -0.0537915 -0.0890012 0.174265 0.0633915 0.0589988 0.174265 -0.0537915 0.0589988 0.174265 0.0633915</float_array>
                    <technique_common>
                        <accessor count="129" source="#shape0-lib-positions-array" stride="3">
                            <param name="X" type="float"/>
                            <param name="Y" type="float"/>
                            <param name="Z" type="float"/>
                        </accessor>
                    </technique_common>
                </source>
                <source id="shape0-lib-normals" name="normal">
                    <float_array id="shape0-lib-normals-array" count="630">-0.999867 0.0155301 0.00505416 -0.999867 0.0155203 0.00506821 -0.0121817 -0.001001 0.999925 -0.00817017 -0.000575103 0.999967 0.913344 -0.000806144 0.407189 0.999998 0.00192092 0 0.999973 0.00537847 0.00506893 0.0358901 0.00318676 0.999351 -0.0229733 -0.00343215 0.99973 0 0 -1 0 0 -1 0.913328 -0.000805609 0.407223 -0.999985 -0.00192149 0.00505591 -0.999985 -0.00193112 0.00506973 0.999998 0.00192092 0 0.999973 0.0053791 0.00506985 0.00574687 0.00326082 0.999978 -0.0277372 -0.000754696 0.999615 0 0 -1 0 0 -1 0.913345 -0.000805016 0.407187 -0.999985 -0.00192146 0.00505588 -0.999985 -0.00193111 0.00506972 0.999998 0.00192149 0 0.999973 0.00537919 0.00506914 0.00574507 0.00326049 0.999978 -0.0277359 -0.000754695 0.999615 0 0 -1 0 0 -1 0.913353 -0.00080478 0.407168 -0.913345 0.000805261 0.407187 -0.999998 -0.00192033 0 -0.999973 -0.00537867 0.00507009 0.999998 0.00192073 0 0.999973 0.00537893 0.00506989 0.0277449 0.00320808 0.99961 -0.0277459 -0.00320836 0.99961 0 0 -1 0 0 -1 -0.999985 -0.00192094 0.00505547 -0.999985 -0.00193077 0.00506958 0.999985 0.00192089 0.00505607 0.999985 0.00193086 0.00507038 0.0057439 0.000712731 0.999983 -0.00573893 -0.000712982 0.999983 -0.0207095 -0.999786 1.23148e-06 -0.0207193 -0.999785 -5.44913e-07 -0.00326413 -0.999995 2.94994e-05 -0.00327281 -0.999995 -9.31543e-07 -0.00326762 -0.999995 0 0.00328544 0.999995 -1.15562e-06 0.00327353 0.999995 9.95234e-07 -0.00325679 -0.999995 4.40089e-05 -0.00326202 -0.999995 -4.70027e-08 -0.00326176 -0.999995 0 0.00326361 0.999995 1.79213e-06 0.00328545 0.999995 -2.15439e-06 -0.00325345 -0.999995 0.000126307 -0.00327281 -0.999995 -9.22646e-07 -0.00326771 -0.999995 0 0.00324075 0.999995 -0.000124767 0.00323985 0.999995 -2.38312e-06 0.00322666 0.999995 0 -0.00326182 -0.999995 9.06447e-06 -0.003262 -0.999995 1.51069e-07 -0.00326284 -0.999995 0 0.00328545 0.999995 -2.02619e-06 0.00326291 0.999995 2.04584e-06 -0.00327281 -0.999995 -1.04964e-06 -0.003268 -0.999995 -1.80952e-07 -0.999867 0.0155312 0.00505591 -0.999867 0.015521 0.00507064 -0.0121939 -0.00100103 0.999925 -0.0081752 -0.000574368 0.999966 0.913345 -0.000806113 0.407187 0.999998 0.00192092 0 0.999973 0.00537847 0.00506893 0.0358901 0.00318676 0.999351 -0.0229733 -0.00343215 0.99973 0 0 -1 0 0 -1 -0.999985 -0.00192145 0.00505597 -0.999985 -0.00193095 0.0050696 0.999985 0.00192089 0.00505341 0.999985 0.00193082 0.00506766 0.0057258 0.000712828 0.999983 -0.00575524 -0.000712668 0.999983 0 0 -1 0 0 -1 0.913409 -0.000804764 0.407042 -0.999985 -0.00192089 0.00505785 -0.999985 -0.00193104 0.00507241 0.999998 0.00192092 0 0.999973 0.00537727 0.00506715 0.00572742 0.00325885 0.999978 -0.02774 -0.0007547 0.999615 0 0 -1 0 0 -1 -0.91327 0.000805967 0.407355 -0.999998 -0.00192092 0 -0.999973 -0.00538034 0.00507167 0.999985 0.00192089 0.00505347 0.999985 0.00193094 0.0050679 0.0277275 0.000754498 0.999615 -0.00577531 -0.00326312 0.999978 0 0 -1 0 0 -1 -0.913274 0.000805802 0.407345 -0.999998 -0.00192091 0 -0.999973 -0.00538041 0.00507179 0.999985 0.00192089 0.00505785 0.999985 0.00193078 0.00507204 0.027755 0.000754806 0.999614 -0.00574789 -0.00326294 0.999978 -0.0207094 -0.999786 1.28521e-06 -0.0207194 -0.999785 -5.24266e-07 -0.00326413 -0.999995 2.95068e-05 -0.00327281 -0.999995 -9.31541e-07 -0.00326762 -0.999995 0 0.00328548 0.999995 -1.16297e-06 0.00327354 0.999995 9.9501e-07 -0.00326206 -0.999995 -4.52429e-08 -0.00326208 -0.999995 -4.90793e-08 0.00326365 0.999995 1.7855e-06 0.00328549 0.999995 -2.16062e-06 -0.00325353 -0.999995 0.00012649 -0.00327286 -0.999995 -9.11706e-07 -0.00326781 -0.999995 0 0.00324085 0.999995 -0.000125586 0.00323989 0.999995 -2.38973e-06 0.00322666 0.999995 0 -0.00326205 -0.999995 1.58396e-07 -0.00326373 -0.999995 -1.45116e-07 0.00324602 0.999995 0.000249287 0.00328535 0.999995 -2.02129e-06 0.00327416 0.999995 0 -0.00327271 -0.999995 -1.04449e-06 -0.00326796 -0.999995 -1.86509e-07 -0.99981 0.0188222 0.00505622 -0.99981 0.0188082 0.00507277 -0.0121908 -0.00121109 0.999925 -0.00820294 -0.000698397 0.999966 0.999985 0.0023273 0.00505784 0.999984 0.00233865 0.00507129 0.0358988 0.000931602 0.999355 -0.000994719 -0.00428709 0.99999 0 0 -1 0 0 -1 -0.999985 -0.0023273 0.00505785 -0.999984 -0.00233928 0.00507203 0.999985 0.00232724 0.00505784 0.999984 0.00233918 0.00507197 0.00574008 0.000863466 0.999983 -0.00574043 -0.000863414 0.999983 -0.0207143 -0.999785 9.43137e-07 -0.0207222 -0.999785 -4.74986e-07 -0.00326726 -0.999995 -1.02368e-06 -0.00326104 -0.999995 9.34579e-08 0.00324041 0.999995 3.23155e-06 0.00327278 0.999995 -2.6161e-06 -0.00326726 -0.999995 1.21895e-07 -0.00326598 -0.999995 3.53315e-07 0 0 -1 0 0 -1 0.91874 -0.0117967 0.394686 0.999864 -0.0155318 0.00550146 0.999812 -0.0193678 0 0 0 -1 0 0 -1 -0.740548 0.0011441 0.672002 -0.999971 -0.00758733 0 -0.999911 -0.0117951 0.00616233 0.020692 0.999786 -8.12676e-05 0.0207024 0.999786 0 0.0207016 0.999786 1.47852e-07 0.00165353 0.997801 -0.0662591 -0.00530403 0.999986 -4.04645e-05 -0.00551835 0.999985 0 0 0 -1 0 0 -1 0.918736 -0.0117964 0.394696 0.999864 -0.0155318 0.0055013 0.999812 -0.0193677 0 0 0 -1 0 0 -1 -0.740549 0.0011441 0.672002 -0.999971 -0.00758731 0 -0.999911 -0.0117951 0.00616233 0.0206924 0.999786 -8.07856e-05 0.0207025 0.999786 0 0.0207019 0.999786 1.10276e-07 0.00165353 0.997801 -0.0662591 -0.00530403 0.999986 -4.04645e-05 -0.00551835 0.999985 0 0 0 -1 0 0 -1 0.918749 -0.0142923 0.394584 0.999808 -0.0188152 0.00550083 0.999725 -0.0234618 0 0 0 -1 0 0 -1 -0.740504 0.00138594 0.672051 -0.999958 -0.00919474 0 -0.999879 -0.0142962 0.00616525 0.0207454 0.999785 -3.48502e-05 0.0207481 0.999785 0 0.0207495 0.999785 -2.59895e-07 0.00166073 0.997785 -0.0665077 -0.00534627 0.999986 -3.60818e-05 -0.00553737 0.999985 0</float_array>
                    <technique_common>
                        <accessor count="210" source="#shape0-lib-normals-array" stride="3">
                            <param name="X" type="float"/>
                            <param name="Y" type="float"/>
                            <param name="Z" type="float"/>
                        </accessor>
                    </technique_common>
                </source>
                <source id="shape0-lib-vcolor" name="vcolor">
                    <float_array id="shape0-lib-vcolor-array" count="516">1 1 1 1 1 1 1 1 1 1 1 1 1 1 1 1 1 1 1 1 1 1 1 1 1 1 1 1 1 1 1 1 1 1 1 1 1 1 1 1 1 1 1 1 1 1 1 1 1 1 1 1 1 1 1 1 1 1 1 1 1 1 1 1 1 1 1 1 1 1 1 1 1 1 1 1 1 1 1 1 1 1 1 1 1 1 1 1 1 1 1 1 1 1 1 1 1 1 1 1 1 1 1 1 1 1 1 1 1 1 1 1 1 1 1 1 1 1 1 1 1 1 1 1 1 1 1 1 1 1 1 1 1 1 1 1 1 1 1 1 1 1 1 1 1 1 1 1 1 1 1 1 1 1 1 1 1 1 1 1 1 1 1 1 1 1 1 1 1 1 1 1 1 1 1 1 1 1 1 1 1 1 1 1 1 1 1 1 1 1 1 1 1 1 1 1 1 1 1 1 1 1 1 1 1 1 1 1 1 1 1 1 1 1 1 1 1 1 1 1 1 1 1 1 1 1 1 1 1 1 1 1 1 1 1 1 1 1 1 1 1 1 1 1 1 1 1 1 1 1 1 1 1 1 1 1 1 1 1 1 1 1 1 1 1 1 1 1 1 1 1 1 1 1 1 1 1 1 1 1 1 1 1 1 1 1 1 1 1 1 1 1 1 1 1 1 1 1 1 1 1 1 1 1 1 1 1 1 1 1 1 1 1 1 1 1 1 1 1 1 1 1 1 1 1 1 1 1 1 1 1 1 1 1 1 1 1 1 1 1 1 1 1 1 1 1 1 1 1 1 1 1 1 1 1 1 1 1 1 1 1 1 1 1 1 1 1 1 1 1 1 1 1 1 1 1 1 1 1 1 1 1 1 1 1 1 1 1 1 1 1 1 1 1 1 1 1 1 1 1 1 1 1 1 1 1 1 1 1 1 1 1 1 1 1 1 1 1 1 1 1 1 1 1 1 1 1 1 1 1 1 1 1 1 1 1 1 1 1 1 1 1 1 1 1 1 1 1 1 1 1 1 1 1 1 1 1 1 1 1 1 1 1 1 1 1 1 1 1 1 1 1 1 1 1 1 1 1 1 1 1 1 1 1 1 1 1 1 1 1 1 1 1 1 1 1 1 1 1 1 1 1 1 1 1 1 1 1 1 1 1 1 1 1 1 1</float_array>
                    <technique_common>
                        <accessor count="129" source="#shape0-lib-vcolor-array" stride="4">
                            <param name="R" type="float"/>
                            <param name="G" type="float"/>
                            <param name="B" type="float"/>
                            <param name="A" type="float"/>
                        </accessor>
                    </technique_common>
                </source>
                <source id="shape0-lib-map" name="map">
                    <float_array id="shape0-lib-map-array" count="1260">0.415469 0.578209 0.410156 0.578209 0.410156 0.566618 0.415469 0.578209 0.410156 0.566618 0.415469 0.566618 0.16511 0.66569 0.165822 0.730493 0.158846 0.730652 0.16511 0.66569 0.158846 0.730652 0.157924 0.665853 0.174359 0.665723 0.174022 0.730531 0.173867 0.665725 0.537656 0.496493 0.542969 0.496493 0.542969 0.508084 0.537656 0.496493 0.542969 0.508084 0.537656 0.508084 0.173867 0.665725 0.174022 0.730531 0.167219 0.730555 0.173867 0.665725 0.167219 0.730555 0.166961 0.66575 0.331126 0.276167 0.331078 0.301278 0.334293 0.301267 0.331126 0.276167 0.334293 0.301267 0.334341 0.276156 0.182571 0.665694 0.182235 0.730501 0.182079 0.665696 0.536594 0.501709 0.531281 0.501709 0.531281 0.490118 0.536594 0.501709 0.531281 0.490118 0.536594 0.490118 0.556781 0.490118 0.562094 0.490118 0.562094 0.501709 0.556781 0.490118 0.562094 0.501709 0.556781 0.501709 0.182079 0.665696 0.182235 0.730501 0.175037 0.730527 0.182079 0.665696 0.175037 0.730527 0.175147 0.66572 0.334698 0.276155 0.33465 0.301266 0.337864 0.301255 0.334698 0.276155 0.337864 0.301255 0.337912 0.276144 0.191066 0.665664 0.190731 0.730471 0.190574 0.665666 0.555719 0.501709 0.550406 0.501709 0.550406 0.490118 0.555719 0.501709 0.550406 0.490118 0.555719 0.490118 0.486656 0.490118 0.491969 0.490118 0.491969 0.501709 0.486656 0.490118 0.491969 0.501709 0.486656 0.501709 0.190574 0.665666 0.190731 0.730471 0.183533 0.730496 0.190574 0.665666 0.183533 0.730496 0.183642 0.66569 0.338269 0.276143 0.338222 0.301254 0.341436 0.301244 0.338269 0.276143 0.341436 0.301244 0.341484 0.276133 0.199562 0.665633 0.199226 0.73044 0.19907 0.665635 0.191802 0.730467 0.192138 0.66566 0.192294 0.730465 0.542969 0.495334 0.537656 0.495334 0.537656 0.483743 0.542969 0.495334 0.537656 0.483743 0.542969 0.483743 0.556781 0.553868 0.562094 0.553868 0.562094 0.565459 0.556781 0.553868 0.562094 0.565459 0.556781 0.565459 0.19907 0.665635 0.199226 0.73044 0.192294 0.730465 0.19907 0.665635 0.192294 0.730465 0.192138 0.66566 0.341841 0.276132 0.341793 0.301242 0.345008 0.301232 0.341841 0.276132 0.345008 0.301232 0.345055 0.276121 0.421844 0.514459 0.416531 0.514459 0.416531 0.502868 0.421844 0.514459 0.416531 0.502868 0.421844 0.502868 0.410156 0.502868 0.415469 0.502868 0.415469 0.514459 0.410156 0.502868 0.415469 0.514459 0.410156 0.514459 0.207831 0.665604 0.207722 0.73041 0.200524 0.730435 0.207831 0.665604 0.200524 0.730435 0.200633 0.665629 0.109907 0.310522 0.109907 0.273452 0.113471 0.273452 0.109907 0.310522 0.113471 0.273452 0.113471 0.310522 0.166961 0.66575 0.174359 0.665723 0.173867 0.665725 0.114108 0.310522 0.114108 0.273452 0.117673 0.273452 0.114108 0.310522 0.117673 0.273452 0.117673 0.310522 0.159205 0.504454 0.159205 0.473268 0.153873 0.473268 0.159205 0.504454 0.153873 0.473268 0.153873 0.504454 0.175147 0.66572 0.182571 0.665694 0.182079 0.665696 0.117937 0.310522 0.117937 0.273452 0.121502 0.273452 0.117937 0.310522 0.121502 0.273452 0.121502 0.310522 0.159797 0.473268 0.159797 0.504454 0.165129 0.504454 0.159797 0.473268 0.165129 0.504454 0.165129 0.473268 0.183642 0.66569 0.191066 0.665664 0.190574 0.665666 0.121898 0.310522 0.121898 0.273452 0.125463 0.273452 0.121898 0.310522 0.125463 0.273452 0.125463 0.310522 0.199226 0.73044 0.191802 0.730467 0.192294 0.730465 0.171053 0.504454 0.171053 0.473268 0.165721 0.473268 0.171053 0.504454 0.165721 0.473268 0.165721 0.504454 0.192138 0.66566 0.199562 0.665633 0.19907 0.665635 0.125859 0.310522 0.125859 0.273452 0.129424 0.273452 0.125859 0.310522 0.129424 0.273452 0.129424 0.310522 0.176978 0.504454 0.176978 0.473268 0.171646 0.473268 0.176978 0.504454 0.171646 0.473268 0.171646 0.504454 0.12982 0.310522 0.12982 0.273452 0.133384 0.273452 0.12982 0.310522 0.133384 0.273452 0.133384 0.310522 0.421844 0.578209 0.416531 0.578209 0.416531 0.566618 0.421844 0.578209 0.416531 0.566618 0.421844 0.566618 0.216038 0.66569 0.21675 0.730493 0.209775 0.730652 0.216038 0.66569 0.209775 0.730652 0.208853 0.665853 0.225287 0.665723 0.22495 0.730531 0.224795 0.665725 0.544031 0.483743 0.549344 0.483743 0.549344 0.495334 0.544031 0.483743 0.549344 0.495334 0.544031 0.495334 0.224795 0.665725 0.22495 0.730531 0.218147 0.730555 0.224795 0.665725 0.218147 0.730555 0.217889 0.66575 0.352537 0.276167 0.35249 0.301278 0.355704 0.301267 0.352537 0.276167 0.355704 0.301267 0.355752 0.276156 0.377219 0.501709 0.371906 0.501709 0.371906 0.490118 0.377219 0.501709 0.371906 0.490118 0.377219 0.490118 0.550406 0.477368 0.555719 0.477368 0.555719 0.488959 0.550406 0.477368 0.555719 0.488959 0.550406 0.488959 0.233273 0.665695 0.233164 0.730501 0.225966 0.730527 0.233273 0.665695 0.225966 0.730527 0.226075 0.66572 0.356109 0.276155 0.356061 0.301266 0.359276 0.301255 0.356109 0.276155 0.359276 0.301255 0.359323 0.276144 0.241995 0.665664 0.241659 0.730471 0.241502 0.665666 0.562094 0.488959 0.556781 0.488959 0.556781 0.477368 0.562094 0.488959 0.556781 0.477368 0.562094 0.477368 0.403781 0.502868 0.409094 0.502868 0.409094 0.514459 0.403781 0.502868 0.409094 0.514459 0.403781 0.514459 0.241502 0.665666 0.241659 0.730471 0.234461 0.730496 0.241502 0.665666 0.234461 0.730496 0.234571 0.66569 0.359681 0.276143 0.359633 0.301254 0.362847 0.301244 0.359681 0.276143 0.362847 0.301244 0.362895 0.276133 0.24273 0.730467 0.243066 0.66566 0.243223 0.730465 0.402719 0.514459 0.397406 0.514459 0.397406 0.502868 0.402719 0.514459 0.397406 0.502868 0.402719 0.502868 0.461156 0.560243 0.466469 0.560243 0.466469 0.571834 0.461156 0.560243 0.466469 0.571834 0.461156 0.571834 0.250264 0.665634 0.250154 0.73044 0.243223 0.730465 0.250264 0.665634 0.243223 0.730465 0.243066 0.66566 0.363252 0.276132 0.363204 0.301242 0.366419 0.301232 0.363252 0.276132 0.366419 0.301232 0.366467 0.276121 0.251226 0.730436 0.251561 0.665629 0.251718 0.730434 0.472844 0.514459 0.467531 0.514459 0.467531 0.502868 0.472844 0.514459 0.467531 0.502868 0.472844 0.502868 0.442031 0.502868 0.447344 0.502868 0.447344 0.514459 0.442031 0.502868 0.447344 0.514459 0.442031 0.514459 0.258759 0.665604 0.25865 0.73041 0.251718 0.730434 0.258759 0.665604 0.251718 0.730434 0.251561 0.665629 0.133652 0.310522 0.133652 0.273452 0.137216 0.273452 0.133652 0.310522 0.137216 0.273452 0.137216 0.310522 0.217889 0.66575 0.225287 0.665723 0.224795 0.665725 0.137853 0.310522 0.137853 0.273452 0.141417 0.273452 0.137853 0.310522 0.141417 0.273452 0.141417 0.310522 0.19472 0.504454 0.19472 0.473268 0.189388 0.473268 0.19472 0.504454 0.189388 0.473268 0.189388 0.504454 0.141682 0.310522 0.141682 0.273452 0.145246 0.273452 0.141682 0.310522 0.145246 0.273452 0.145246 0.310522 0.195312 0.473268 0.195312 0.504454 0.200644 0.504454 0.195312 0.473268 0.200644 0.504454 0.200644 0.473268 0.234571 0.66569 0.241995 0.665664 0.241502 0.665666 0.145642 0.310522 0.145642 0.273452 0.149207 0.273452 0.145642 0.310522 0.149207 0.273452 0.149207 0.310522 0.250154 0.73044 0.24273 0.730467 0.243223 0.730465 0.206569 0.504454 0.206569 0.473268 0.201237 0.473268 0.206569 0.504454 0.201237 0.473268 0.201237 0.504454 0.149603 0.310522 0.149603 0.273452 0.153168 0.273452 0.149603 0.310522 0.153168 0.273452 0.153168 0.310522 0.25865 0.73041 0.251226 0.730436 0.251718 0.730434 0.212493 0.504454 0.212493 0.473268 0.207161 0.473268 0.212493 0.504454 0.207161 0.473268 0.207161 0.504454 0.153564 0.310522 0.153564 0.273452 0.157129 0.273452 0.153564 0.310522 0.157129 0.273452 0.157129 0.310522 0.517469 0.642007 0.512156 0.642007 0.512156 0.636695 0.517469 0.642007 0.512156 0.636695 0.517469 0.636695 0.140247 0.664517 0.14096 0.718004 0.133984 0.718162 0.140247 0.664517 0.133984 0.718162 0.133062 0.664681 0.505781 0.636695 0.511094 0.636695 0.511094 0.642007 0.505781 0.636695 0.511094 0.642007 0.505781 0.642007 0.149271 0.664552 0.14916 0.718041 0.142357 0.718065 0.149271 0.664552 0.142357 0.718065 0.142099 0.664577 0.320674 0.275712 0.320626 0.296438 0.32384 0.296428 0.320674 0.275712 0.32384 0.296428 0.323888 0.275702 0.498344 0.642007 0.493031 0.642007 0.493031 0.636695 0.498344 0.642007 0.493031 0.636695 0.498344 0.636695 0.499406 0.636695 0.504719 0.636695 0.504719 0.642007 0.499406 0.636695 0.504719 0.642007 0.499406 0.642007 0.157483 0.664522 0.157373 0.718011 0.150175 0.718037 0.157483 0.664522 0.150175 0.718037 0.150285 0.664548 0.0983156 0.310522 0.0983156 0.273452 0.10188 0.273452 0.0983156 0.310522 0.10188 0.273452 0.10188 0.310522 0.102517 0.310522 0.102517 0.273452 0.106081 0.273452 0.102517 0.310522 0.106081 0.273452 0.106081 0.310522 0.141867 0.504454 0.141867 0.473268 0.136535 0.473268 0.141867 0.504454 0.136535 0.473268 0.136535 0.504454 0.106345 0.310522 0.106345 0.273452 0.10991 0.273452 0.106345 0.310522 0.10991 0.273452 0.10991 0.310522 0.323885 0.27622 0.324271 0.301328 0.327485 0.301261 0.323885 0.27622 0.327485 0.301261 0.327099 0.276153 0.16511 0.66569 0.166265 0.730483 0.165822 0.730493 0.442031 0.579368 0.447344 0.579368 0.447344 0.590959 0.442031 0.579368 0.447344 0.590959 0.442031 0.590959 0.327673 0.276178 0.327626 0.301289 0.33084 0.301279 0.327673 0.276178 0.33084 0.301279 0.330888 0.276168 0.166599 0.730557 0.166961 0.66575 0.167219 0.730555 0.549344 0.508084 0.544031 0.508084 0.544031 0.496493 0.549344 0.508084 0.544031 0.496493 0.549344 0.496493 0.165822 0.730493 0.166265 0.730483 0.158846 0.730652 0.147913 0.504454 0.147913 0.473268 0.142582 0.473268 0.147913 0.504454 0.142582 0.473268 0.142582 0.504454 0.174022 0.730531 0.166599 0.730557 0.167219 0.730555 0.153478 0.504454 0.153478 0.473268 0.148146 0.473268 0.153478 0.504454 0.148146 0.473268 0.148146 0.504454 0.345297 0.27622 0.345683 0.301328 0.348896 0.301261 0.345297 0.27622 0.348896 0.301261 0.34851 0.276153 0.216038 0.66569 0.217193 0.730483 0.21675 0.730493 0.448406 0.579368 0.453719 0.579368 0.453719 0.590959 0.448406 0.579368 0.453719 0.590959 0.448406 0.590959 0.349085 0.276178 0.349037 0.301289 0.352251 0.301279 0.349085 0.276178 0.352251 0.301279 0.352299 0.276168 0.217527 0.730557 0.217889 0.66575 0.218147 0.730555 0.440969 0.501709 0.435656 0.501709 0.435656 0.490118 0.440969 0.501709 0.435656 0.490118 0.440969 0.490118 0.21675 0.730493 0.217193 0.730483 0.209775 0.730652 0.183428 0.504454 0.183428 0.473268 0.178097 0.473268 0.183428 0.504454 0.178097 0.473268 0.178097 0.504454 0.22495 0.730531 0.217527 0.730557 0.218147 0.730555 0.188993 0.504454 0.188993 0.473268 0.183661 0.473268 0.188993 0.504454 0.183661 0.473268 0.183661 0.504454 0.313433 0.275766 0.313819 0.296488 0.317033 0.296421 0.313433 0.275766 0.317033 0.296421 0.316647 0.275698 0.140247 0.664517 0.141403 0.717993 0.14096 0.718004 0.518531 0.636695 0.523844 0.636695 0.523844 0.642007 0.518531 0.636695 0.523844 0.642007 0.518531 0.642007 0.317221 0.275724 0.317173 0.29645 0.320388 0.296439 0.317221 0.275724 0.320388 0.296439 0.320436 0.275713 0.141737 0.718067 0.142099 0.664577 0.142357 0.718065 0.491969 0.642007 0.486656 0.642007 0.486656 0.636695 0.491969 0.642007 0.486656 0.636695 0.491969 0.636695 0.14096 0.718004 0.141403 0.717993 0.133984 0.718162 0.130575 0.504454 0.130575 0.473268 0.125244 0.473268 0.130575 0.504454 0.125244 0.473268 0.125244 0.504454 0.14916 0.718041 0.141737 0.718067 0.142357 0.718065 0.13614 0.504454 0.13614 0.473268 0.130808 0.473268 0.13614 0.504454 0.130808 0.473268 0.130808 0.504454</float_array>
                    <technique_common>
                        <accessor count="630" source="#shape0-lib-map-array" stride="2">
                            <param name="U" type="float"/>
                            <param name="V" type="float"/>
                        </accessor>
                    </technique_common>
                </source>
                <vertices id="shape0-lib-vertices">
                    <input semantic="POSITION" source="#shape0-lib-positions"/>
                </vertices>
                <triangles count="210" material="material0">
                    <input offset="0" semantic="VERTEX" source="#shape0-lib-vertices"/>
                    <input offset="1" semantic="COLOR" source="#shape0-lib-vcolor"/>
                    <input offset="2" semantic="NORMAL" source="#shape0-lib-normals"/>
                    <input offset="3" semantic="TEXCOORD" source="#shape0-lib-map"/>
                    <p>4 4 0 0 1 1 0 1 0 0 0 2 4 4 1 3 0 0 1 4 3 3 1 5 5 5 2 6 6 6 2 7 4 4 2 8 5 5 3 9 4 4 3 10 3 3 3 11 12 12 4 12 11 11 4 13 13 13 4 14 12 12 5 15 9 9 5 16 8 8 5 17 12 12 6 18 8 8 6 19 11 11 6 20 13 13 7 21 11 11 7 22 14 14 7 23 13 13 8 24 14 14 8 25 10 10 8 26 15 15 9 27 16 16 9 28 17 17 9 29 15 15 10 30 17 17 10 31 18 18 10 32 22 22 11 33 21 21 11 34 23 23 11 35 20 20 12 36 16 16 12 37 15 15 12 38 20 20 13 39 15 15 13 40 19 19 13 41 22 22 14 42 18 18 14 43 17 17 14 44 22 22 15 45 17 17 15 46 21 21 15 47 23 23 16 48 21 21 16 49 20 20 16 50 23 23 17 51 20 20 17 52 19 19 17 53 24 24 18 54 25 25 18 55 26 26 18 56 24 24 19 57 26 26 19 58 27 27 19 59 31 31 20 60 30 30 20 61 32 32 20 62 29 29 21 63 25 25 21 64 24 24 21 65 29 29 22 66 24 24 22 67 28 28 22 68 31 31 23 69 27 27 23 70 26 26 23 71 31 31 24 72 26 26 24 73 30 30 24 74 32 32 25 75 30 30 25 76 29 29 25 77 32 32 26 78 29 29 26 79 28 28 26 80 33 33 27 81 34 34 27 82 35 35 27 83 33 33 28 84 35 35 28 85 36 36 28 86 40 40 29 87 39 39 29 88 41 41 29 89 38 38 30 90 37 37 30 91 42 42 30 92 38 38 31 93 34 34 31 94 33 33 31 95 38 38 32 96 33 33 32 97 37 37 32 98 40 40 33 99 36 36 33 100 35 35 33 101 40 40 34 102 35 35 34 103 39 39 34 104 41 41 35 105 39 39 35 106 42 42 35 107 41 41 36 108 42 42 36 109 37 37 36 110 43 43 37 111 44 44 37 112 45 45 37 113 43 43 38 114 45 45 38 115 46 46 38 116 48 48 39 117 44 44 39 118 43 43 39 119 48 48 40 120 43 43 40 121 47 47 40 122 50 50 41 123 46 46 41 124 45 45 41 125 50 50 42 126 45 45 42 127 49 49 42 128 50 50 43 129 49 49 43 130 48 48 43 131 50 50 44 132 48 48 44 133 47 47 44 134 3 3 45 135 0 0 45 136 2 2 45 137 3 3 46 138 2 2 46 139 5 5 46 140 10 10 47 141 12 12 47 142 13 13 47 143 10 10 48 144 7 7 48 145 9 9 48 146 10 10 49 147 9 9 49 148 12 12 49 149 21 21 50 150 17 17 50 151 16 16 50 152 21 21 51 153 16 16 51 154 20 20 51 155 19 19 52 156 22 22 52 157 23 23 52 158 19 19 53 159 15 15 53 160 18 18 53 161 19 19 54 162 18 18 54 163 22 22 54 164 25 25 55 165 29 29 55 166 30 30 55 167 25 25 56 168 30 30 56 169 26 26 56 170 28 28 57 171 31 31 57 172 32 32 57 173 28 28 58 174 24 24 58 175 27 27 58 176 28 28 59 177 27 27 59 178 31 31 59 179 39 39 60 180 38 38 60 181 42 42 60 182 39 39 61 183 35 35 61 184 34 34 61 185 39 39 62 186 34 34 62 187 38 38 62 188 37 37 63 189 40 40 63 190 41 41 63 191 37 37 64 192 33 33 64 193 36 36 64 194 37 37 65 195 36 36 65 196 40 40 65 197 49 49 66 198 45 45 66 199 44 44 66 200 49 49 67 201 44 44 67 202 48 48 67 203 47 47 68 204 43 43 68 205 46 46 68 206 47 47 69 207 46 46 69 208 50 50 69 209 55 55 70 210 52 52 70 211 51 51 70 212 55 55 71 213 51 51 71 214 54 54 71 215 56 56 72 216 57 57 72 217 55 55 72 218 56 56 73 219 55 55 73 220 54 54 73 221 63 63 74 222 62 62 74 223 64 64 74 224 63 63 75 225 60 60 75 226 59 59 75 227 63 63 76 228 59 59 76 229 62 62 76 230 64 64 77 231 62 62 77 232 65 65 77 233 64 64 78 234 65 65 78 235 61 61 78 236 66 66 79 237 67 67 79 238 68 68 79 239 66 66 80 240 68 68 80 241 69 69 80 242 71 71 81 243 67 67 81 244 66 66 81 245 71 71 82 246 66 66 82 247 70 70 82 248 73 73 83 249 69 69 83 250 68 68 83 251 73 73 84 252 68 68 84 253 72 72 84 254 73 73 85 255 72 72 85 256 71 71 85 257 73 73 86 258 71 71 86 259 70 70 86 260 74 74 87 261 75 75 87 262 76 76 87 263 74 74 88 264 76 76 88 265 77 77 88 266 81 81 89 267 80 80 89 268 82 82 89 269 79 79 90 270 75 75 90 271 74 74 90 272 79 79 91 273 74 74 91 274 78 78 91 275 81 81 92 276 77 77 92 277 76 76 92 278 81 81 93 279 76 76 93 280 80 80 93 281 82 82 94 282 80 80 94 283 79 79 94 284 82 82 95 285 79 79 95 286 78 78 95 287 83 83 96 288 84 84 96 289 85 85 96 290 83 83 97 291 85 85 97 292 86 86 97 293 88 88 98 294 87 87 98 295 91 91 98 296 88 88 99 297 84 84 99 298 83 83 99 299 88 88 100 300 83 83 100 301 87 87 100 302 90 90 101 303 86 86 101 304 85 85 101 305 90 90 102 306 85 85 102 307 89 89 102 308 90 90 103 309 89 89 103 310 91 91 103 311 90 90 104 312 91 91 104 313 87 87 104 314 92 92 105 315 93 93 105 316 94 94 105 317 92 92 106 318 94 94 106 319 95 95 106 320 97 97 107 321 96 96 107 322 100 100 107 323 97 97 108 324 93 93 108 325 92 92 108 326 97 97 109 327 92 92 109 328 96 96 109 329 99 99 110 330 95 95 110 331 94 94 110 332 99 99 111 333 94 94 111 334 98 98 111 335 99 99 112 336 98 98 112 337 100 100 112 338 99 99 113 339 100 100 113 340 96 96 113 341 54 54 114 342 51 51 114 343 53 53 114 344 54 54 115 345 53 53 115 346 56 56 115 347 61 61 116 348 63 63 116 349 64 64 116 350 61 61 117 351 58 58 117 352 60 60 117 353 61 61 118 354 60 60 118 355 63 63 118 356 72 72 119 357 68 68 119 358 67 67 119 359 72 72 120 360 67 67 120 361 71 71 120 362 70 70 121 363 66 66 121 364 69 69 121 365 70 70 122 366 69 69 122 367 73 73 122 368 75 75 123 369 79 79 123 370 80 80 123 371 75 75 124 372 80 80 124 373 76 76 124 374 78 78 125 375 81 81 125 376 82 82 125 377 78 78 126 378 74 74 126 379 77 77 126 380 78 78 127 381 77 77 127 382 81 81 127 383 89 89 128 384 88 88 128 385 91 91 128 386 89 89 129 387 85 85 129 388 84 84 129 389 89 89 130 390 84 84 130 391 88 88 130 392 87 87 131 393 83 83 131 394 86 86 131 395 87 87 132 396 86 86 132 397 90 90 132 398 98 98 133 399 97 97 133 400 100 100 133 401 98 98 134 402 94 94 134 403 93 93 134 404 98 98 135 405 93 93 135 406 97 97 135 407 96 96 136 408 92 92 136 409 95 95 136 410 96 96 137 411 95 95 137 412 99 99 137 413 105 105 138 414 102 102 138 415 101 101 138 416 105 105 139 417 101 101 139 418 104 104 139 419 106 106 140 420 107 107 140 421 105 105 140 422 106 106 141 423 105 105 141 424 104 104 141 425 113 113 142 426 110 110 142 427 109 109 142 428 113 113 143 429 109 109 143 430 112 112 143 431 113 113 144 432 112 112 144 433 114 114 144 434 113 113 145 435 114 114 145 436 111 111 145 437 115 115 146 438 116 116 146 439 117 117 146 440 115 115 147 441 117 117 147 442 118 118 147 443 120 120 148 444 116 116 148 445 115 115 148 446 120 120 149 447 115 115 149 448 119 119 149 449 122 122 150 450 118 118 150 451 117 117 150 452 122 122 151 453 117 117 151 454 121 121 151 455 122 122 152 456 121 121 152 457 120 120 152 458 122 122 153 459 120 120 153 460 119 119 153 461 104 104 154 462 101 101 154 463 103 103 154 464 104 104 155 465 103 103 155 466 106 106 155 467 111 111 156 468 108 108 156 469 110 110 156 470 111 111 157 471 110 110 157 472 113 113 157 473 121 121 158 474 117 117 158 475 116 116 158 476 121 121 159 477 116 116 159 478 120 120 159 479 119 119 160 480 115 115 160 481 118 118 160 482 119 119 161 483 118 118 161 484 122 122 161 485 0 0 162 486 1 1 162 487 125 125 162 488 0 0 163 489 125 125 163 490 2 2 163 491 5 5 164 492 126 126 164 493 6 6 164 494 5 5 165 495 2 2 165 496 125 125 165 497 5 5 166 498 125 125 166 499 126 126 166 500 7 7 167 501 125 125 167 502 8 8 167 503 7 7 168 504 8 8 168 505 9 9 168 506 126 126 169 507 10 10 169 508 14 14 169 509 126 126 170 510 125 125 170 511 7 7 170 512 126 126 171 513 7 7 171 514 10 10 171 515 6 6 172 516 126 126 172 517 4 4 172 518 126 126 173 519 125 125 173 520 1 1 173 521 126 126 174 522 1 1 174 523 4 4 174 524 11 11 175 525 126 126 175 526 14 14 175 527 11 11 176 528 8 8 176 529 125 125 176 530 11 11 177 531 125 125 177 532 126 126 177 533 51 51 178 534 52 52 178 535 127 127 178 536 51 51 179 537 127 127 179 538 53 53 179 539 56 56 180 540 128 128 180 541 57 57 180 542 56 56 181 543 53 53 181 544 127 127 181 545 56 56 182 546 127 127 182 547 128 128 182 548 58 58 183 549 127 127 183 550 59 59 183 551 58 58 184 552 59 59 184 553 60 60 184 554 128 128 185 555 61 61 185 556 65 65 185 557 128 128 186 558 127 127 186 559 58 58 186 560 128 128 187 561 58 58 187 562 61 61 187 563 57 57 188 564 128 128 188 565 55 55 188 566 128 128 189 567 127 127 189 568 52 52 189 569 128 128 190 570 52 52 190 571 55 55 190 572 62 62 191 573 128 128 191 574 65 65 191 575 62 62 192 576 59 59 192 577 127 127 192 578 62 62 193 579 127 127 193 580 128 128 193 581 101 101 194 582 102 102 194 583 123 123 194 584 101 101 195 585 123 123 195 586 103 103 195 587 106 106 196 588 124 124 196 589 107 107 196 590 106 106 197 591 103 103 197 592 123 123 197 593 106 106 198 594 123 123 198 595 124 124 198 596 108 108 199 597 123 123 199 598 109 109 199 599 108 108 200 600 109 109 200 601 110 110 200 602 124 124 201 603 111 111 201 604 114 114 201 605 124 124 202 606 123 123 202 607 108 108 202 608 124 124 203 609 108 108 203 610 111 111 203 611 107 107 204 612 124 124 204 613 105 105 204 614 124 124 205 615 123 123 205 616 102 102 205 617 124 124 206 618 102 102 206 619 105 105 206 620 112 112 207 621 124 124 207 622 114 114 207 623 112 112 208 624 109 109 208 625 123 123 208 626 112 112 209 627 123 123 209 628 124 124 209 629</p>
                </triangles>
            </mesh>
        </geometry>
    </library_geometries>
    <library_visual_scenes>
        <visual_scene id="VisualSceneNode" name="VisualScene">
            <node id="node" name="node">
                <instance_geometry url="#shape0-lib">
                    <bind_material>
                        <technique_common>
                            <instance_material symbol="material0" target="#material0">
                                <bind_vertex_input semantic="UVSET0" input_semantic="TEXCOORD"/>
                            </instance_material>
                        </technique_common>
                    </bind_material>
                </instance_geometry>
            </node>
        </visual_scene>
    </library_visual_scenes>
    <scene>
        <instance_visual_scene url="#VisualSceneNode"/>
    </scene>
</COLLADA>
