<?xml version="1.0" encoding="UTF-8"?>
<COLLADA xmlns="http://www.collada.org/2005/11/COLLADASchema" version="1.4.1">
    <asset>
        <contributor>
            <author>VCGLab</author>
            <authoring_tool>VCGLib | MeshLab</authoring_tool>
        </contributor>
        <created>Thu Jul 3 01:59:22 2025 GMT</created>
        <modified>Thu Jul 3 01:59:22 2025 GMT</modified>
        <up_axis>Y_UP</up_axis>
    </asset>
    <library_images>
        <image id="texture0" name="texture0">
            <init_from>./image/shelf_items.png</init_from>
        </image>
    </library_images>
    <library_materials>
        <material id="material0" name="material0">
            <instance_effect url="#material0-fx"/>
        </material>
    </library_materials>
    <library_effects>
        <effect id="material0-fx">
            <profile_COMMON>
                <newparam sid="texture0-surface">
                    <surface type="2D">
                        <init_from>texture0</init_from>
                        <format>R8G8B8</format>
                    </surface>
                </newparam>
                <newparam sid="texture0-sampler">
                    <sampler2D>
                        <source>texture0-surface</source>
                        <minfilter>LINEAR</minfilter>
                        <magfilter>LINEAR</magfilter>
                    </sampler2D>
                </newparam>
                <technique sid="common">
                    <blinn>
                        <diffuse>
                            <texture texture="texture0-sampler" texcoord="UVSET0"/>
                        </diffuse>
                    </blinn>
                </technique>
            </profile_COMMON>
        </effect>
    </library_effects>
    <library_geometries>
        <geometry id="shape0-lib" name="shape0">
            <mesh>
                <source id="shape0-lib-positions" name="position">
                    <float_array id="shape0-lib-positions-array" count="291">0.124443 0.0616822 0.0208412 0.128359 0.10646 -0.00388347 0.107887 0.0591636 -0.00848193 0.0138053 0.011296 0.0182066 0.0663868 0.000305558 -0.00829065 0.115216 0.0454281 -0.014872 0.123542 0.106456 -0.0376564 0.0600396 0.0253442 -0.0258155 0.0873701 0.0190703 -0.0347326 0.113088 0.0589038 -0.0514519 0.109587 0.106456 -0.0683471 0.0428038 0.000108513 -0.05341 0.0814455 0.045 -0.0814455 0.0908406 0.0744241 -0.0908407 0.0940451 0.106 -0.0940452 0.0881154 0.106576 -0.0881154 0.0985586 0.0613718 -0.0520538 0.0554406 0.018631 -0.0752473 0.051838 0.0633305 -0.115205 0.060731 0.106456 -0.113984 0.0709402 0.07161 -0.0917161 0.0291604 0.106456 -0.125818 0.0362324 0.0593027 -0.102342 0.00880025 0.0253995 -0.0651399 -0.0126407 0.013832 -0.0305225 0.0139104 0.0189483 -0.0928318 0.0158983 0.0445635 -0.114756 -0.0194545 0.0621641 -0.124545 -0.00439689 0.106456 -0.129078 -0.00829062 0.000304034 -0.0663849 -0.0376562 0.106456 -0.123542 -0.0141404 0.0624022 -0.110414 -0.0347323 0.0190702 -0.0873701 -0.0575907 0.045 -0.09975 -0.0683476 0.106456 -0.109586 -0.046749 0.0263991 -0.0469877 -0.0534094 0.000108518 -0.0428046 -0.0814456 0.045 -0.0814455 -0.0812153 0.0729689 -0.0996442 -0.0940453 0.106 -0.0940452 -0.0881156 0.106576 -0.0881155 -0.0674516 0.0624021 -0.0885516 -0.0217061 0.000525658 -1.39219e-05 -0.0752471 0.0186311 -0.0554411 -0.115205 0.0633304 -0.051838 -0.113984 0.106456 -0.060731 -0.125818 0.106456 -0.0291604 -0.0243701 0.0125825 0.0186947 -0.0928316 0.018948 -0.0139104 -0.114756 0.0445635 -0.0158984 -0.124545 0.0621641 0.0194543 -0.129078 0.106456 0.00439682 -0.109487 0.0645643 -0.033202 -0.0820057 0.0356758 -0.0108357 -0.0610884 -7.31388e-05 0.033144 -0.123542 0.106456 0.0376561 -0.057486 0.0263989 0.0329945 -0.0873702 0.0190703 0.0347324 -0.0997501 0.045 0.0575907 -0.109586 0.106456 0.0683475 -0.102993 0.0624023 0.0422338 -0.0814457 0.045 0.0814455 -0.0996441 0.0729689 0.0812154 -0.0940453 0.106 0.0940452 -0.0881156 0.106576 0.0881154 -0.055441 0.018631 0.075247 -0.0518381 0.0633304 0.115205 -0.0607308 0.106456 0.113984 -0.0680769 0.0624022 0.088072 -0.000967263 0.000228888 0.0675526 -0.0291606 0.106456 0.125818 -0.0139106 0.0189482 0.0928316 -0.0158984 0.0445634 0.114756 0.0194544 0.0621641 0.124545 0.00439692 0.106456 0.129078 -0.0149212 0.0624022 0.110311 0.04704 -0.000453533 0.0436365 0.0376563 0.106456 0.123542 0.0286406 0.0627032 0.106843 -0.00880024 0.0253995 0.0651398 0.0347326 0.0190703 0.0873701 0.0607267 0.054673 0.105321 0.0683472 0.106456 0.109586 0.0814455 0.045 0.0814456 0.0940451 0.106 0.0940452 0.0881154 0.106576 0.0881155 0.0674517 0.0624021 0.0885515 0.0752473 0.018631 0.0554407 0.09975 0.045 0.0575907 0.102879 0.0751232 0.0785632 0.113984 0.106456 0.0607308 0.0227492 0.000253842 -0.0174437 0.0937009 0.0189963 0.0124289 0.125818 0.106456 0.0291605 0.102691 0.0624024 0.0429618 0.0520129 0.0253997 0.0401913 0.0303692 0.0138401 -0.0127464</float_array>
                    <technique_common>
                        <accessor count="97" source="#shape0-lib-positions-array" stride="3">
                            <param name="X" type="float"/>
                            <param name="Y" type="float"/>
                            <param name="Z" type="float"/>
                        </accessor>
                    </technique_common>
                </source>
                <source id="shape0-lib-normals" name="normal">
                    <float_array id="shape0-lib-normals-array" count="570">0.604628 -0.792234 -0.0824063 0.720023 -0.687033 -0.0977317 0.961841 -0.233816 -0.142097 0.974884 -0.173993 -0.139027 0.975089 -0.166312 -0.146772 -0.882051 0.421662 0.210209 -0.914444 0.383137 0.130377 0.000302238 -0.999991 0.00420918 0.463092 -0.853668 -0.238321 0.755748 -0.599009 -0.26464 0.907408 -0.0797889 -0.412607 -0.853115 0.348875 0.38792 -0.609074 0.774754 0.169662 0.49233 -0.783315 -0.379511 0.6288 -0.699794 -0.338967 0.626302 -0.608761 -0.486986 0.715968 -0.409214 -0.565626 0.848587 -0.137954 -0.510754 0.842159 -0.124413 -0.52468 0.0493669 0.997649 -0.0475427 -0.743318 0.303739 0.596005 -0.620662 0.396322 0.67654 0.4268 -0.583343 -0.691051 0.564303 -0.409139 -0.717055 0.511039 -0.0811528 -0.855718 0.552859 -0.13948 -0.821518 0.0448191 0.997636 -0.0520893 -0.664736 0.254172 0.702512 -0.420735 0.76344 0.490043 -0.359578 0.806301 0.469661 -0.40784 0.780774 0.473348 -0.227958 0.926841 0.29833 0.226865 -0.803557 -0.550299 0.320259 -0.630225 -0.707284 0.301308 -0.62187 -0.722836 0.35064 -0.0458207 -0.935389 -0.388149 0.363446 0.846905 -0.314512 0.44401 0.83901 -0.105811 0.960981 0.255578 -0.0278968 0.99736 0.0670454 -0.0042508 -0.99999 0.00167043 0.123756 -0.856985 -0.500261 0.12941 -0.27064 -0.953943 0.0958279 -0.133532 -0.986401 0.130739 -0.171565 -0.976459 -0.119713 0.40964 0.904358 -0.087136 0.433499 0.896931 -0.0573301 0.758584 0.649049 -0.00521866 -0.999984 0.00228428 -0.0708891 -0.786269 -0.613804 -0.0999425 -0.629373 -0.77065 -0.0869657 -0.643883 -0.760165 -0.164036 -0.0450871 -0.985423 0.153412 0.356537 0.9216 0.00679625 -0.999966 0.00471278 -0.238328 -0.853663 -0.463097 -0.241675 -0.583291 -0.775478 -0.402176 -0.336486 -0.851488 -0.411388 -0.110532 -0.904733 -0.391242 -0.140176 -0.90955 0.346065 0.409982 0.843892 0.371372 0.441632 0.816728 0.204014 0.787971 0.58093 0.223986 0.807153 0.5462 0.144796 0.908023 0.3931 -0.379509 -0.783314 -0.492333 -0.446783 -0.679235 -0.582259 -0.451551 -0.676063 -0.582272 -0.542042 -0.455176 -0.706403 -0.515973 -0.0555201 -0.854804 -0.0475431 0.997649 -0.0493674 0.697857 0.320124 0.640716 -0.691052 -0.583344 -0.426799 -0.717942 -0.375482 -0.58615 -0.85572 -0.0811526 -0.511036 -0.778592 -0.201696 -0.594233 -0.05209 0.997636 -0.0448193 0.72705 0.429864 0.535365 0.689033 0.315882 0.652267 0.540188 0.750391 0.380933 -0.550295 -0.803559 -0.226867 -0.707284 -0.630225 -0.320258 -0.722835 -0.621871 -0.301309 -0.935389 -0.0458213 -0.35064 0.888892 0.314391 0.333211 0.542448 0.77219 0.330868 0.324865 0.94032 0.101294 0.316727 0.946212 0.066083 0.0340894 0.998858 0.0334825 0.0144168 -0.999896 -0.000933943 -0.459435 -0.886882 -0.0485733 -0.953943 -0.27064 -0.12941 -0.986401 -0.133532 -0.0958284 -0.976459 -0.171565 -0.13074 0.930805 0.354153 0.0904273 -0.584736 -0.808395 0.0676831 -0.77065 -0.629373 0.0999427 -0.760166 -0.643883 0.0869657 -0.985423 -0.045087 0.164037 0.906884 0.416156 -0.0661459 0.8426 0.519953 -0.140262 0.740819 0.670224 -0.0445679 0.591426 0.789558 -0.163745 0.379027 0.925244 -0.0162049 -0.775479 -0.58329 0.241672 -0.85149 -0.336481 0.402175 -0.904733 -0.110533 0.411388 -0.90955 -0.140177 0.391242 0.850487 0.356537 -0.386722 -0.522587 -0.750951 0.403703 -0.582258 -0.679236 0.446782 -0.582271 -0.676064 0.451551 -0.706405 -0.455173 0.542043 -0.854805 -0.0555214 0.515971 -0.049367 0.997649 0.0475427 0.74813 0.339938 -0.569863 0.595017 0.473865 -0.649159 0.519164 0.757683 -0.395456 -0.426799 -0.583345 0.691051 -0.586152 -0.375481 0.717942 -0.511038 -0.0811529 0.855719 -0.594234 -0.201695 0.778592 -0.044819 0.997636 0.0520895 0.65612 0.29832 -0.69319 0.328303 0.818311 -0.471788 0.237704 0.912973 -0.331628 0.00914307 -0.999932 -0.00719834 -0.209684 -0.834063 0.510267 -0.236426 -0.875809 0.420787 -0.320258 -0.630226 0.707284 -0.301309 -0.621871 0.722834 -0.350639 -0.0458224 0.935389 0.352027 0.409981 -0.841423 0.314923 0.441633 -0.84011 0.248301 0.765579 -0.593494 -0.0142261 -0.999899 -2.5267e-05 -0.12941 -0.270639 0.953943 -0.0958278 -0.133532 0.986401 -0.130739 -0.171565 0.976459 0.0903389 0.356542 -0.929901 0.0712313 -0.783817 0.616893 0.0999437 -0.629373 0.770649 0.0869662 -0.643884 0.760164 0.164038 -0.0450874 0.985423 -0.0762856 0.369226 -0.926203 -0.147323 0.441638 -0.885015 -0.0560404 0.76863 -0.637234 0.0288731 0.961043 -0.274887 0.210475 -0.869268 0.447296 0.256118 -0.577749 0.77499 0.410156 -0.134659 0.902019 0.396568 -0.142427 0.906889 -0.387484 0.403627 -0.828819 -0.379883 0.397145 -0.835443 -0.22404 0.807204 -0.546102 -0.238552 0.820387 -0.519672 -0.142417 0.926936 -0.34714 0.355796 -0.812021 0.462635 0.381446 -0.692988 0.611773 0.468216 -0.645885 0.602997 0.61962 -0.374896 0.689583 0.494375 -0.272446 0.825449 0.581057 -0.151378 0.799661 0.047543 0.997649 0.0493674 -0.697856 0.32012 -0.640718 0.623487 -0.618369 0.478418 0.70782 -0.451667 0.543129 0.85807 -0.0119232 0.513395 0.0520898 0.997636 0.0448195 -0.721643 0.409981 -0.557805 -0.689031 0.315878 -0.652271 -0.524496 0.748694 -0.405414 -0.00921707 -0.999926 -0.00791472 0.489154 -0.848326 0.202661 0.764103 -0.597993 0.241972 0.689159 -0.664033 0.290035 0.840935 -0.365305 0.399225 0.932265 -0.093565 0.349468 0.921404 -0.115363 0.371087 -0.874836 0.356535 -0.32794 -0.302317 0.949522 -0.0837371 0.00394284 -0.999906 -0.013148 0.470277 -0.867423 0.162533 0.804161 -0.59124 0.0613184 0.996056 -0.0448188 0.07658 -0.907209 0.404063 -0.117067 -0.891997 0.446817 -0.0685224 -0.559118 0.826238 -0.0686855 -0.582231 0.805613 -0.109525 -0.378989 0.924214 -0.0468632</float_array>
                    <technique_common>
                        <accessor count="190" source="#shape0-lib-normals-array" stride="3">
                            <param name="X" type="float"/>
                            <param name="Y" type="float"/>
                            <param name="Z" type="float"/>
                        </accessor>
                    </technique_common>
                </source>
                <source id="shape0-lib-vcolor" name="vcolor">
                    <float_array id="shape0-lib-vcolor-array" count="388">1 1 1 1 1 1 1 1 1 1 1 1 1 1 1 1 1 1 1 1 1 1 1 1 1 1 1 1 1 1 1 1 1 1 1 1 1 1 1 1 1 1 1 1 1 1 1 1 1 1 1 1 1 1 1 1 1 1 1 1 1 1 1 1 1 1 1 1 1 1 1 1 1 1 1 1 1 1 1 1 1 1 1 1 1 1 1 1 1 1 1 1 1 1 1 1 1 1 1 1 1 1 1 1 1 1 1 1 1 1 1 1 1 1 1 1 1 1 1 1 1 1 1 1 1 1 1 1 1 1 1 1 1 1 1 1 1 1 1 1 1 1 1 1 1 1 1 1 1 1 1 1 1 1 1 1 1 1 1 1 1 1 1 1 1 1 1 1 1 1 1 1 1 1 1 1 1 1 1 1 1 1 1 1 1 1 1 1 1 1 1 1 1 1 1 1 1 1 1 1 1 1 1 1 1 1 1 1 1 1 1 1 1 1 1 1 1 1 1 1 1 1 1 1 1 1 1 1 1 1 1 1 1 1 1 1 1 1 1 1 1 1 1 1 1 1 1 1 1 1 1 1 1 1 1 1 1 1 1 1 1 1 1 1 1 1 1 1 1 1 1 1 1 1 1 1 1 1 1 1 1 1 1 1 1 1 1 1 1 1 1 1 1 1 1 1 1 1 1 1 1 1 1 1 1 1 1 1 1 1 1 1 1 1 1 1 1 1 1 1 1 1 1 1 1 1 1 1 1 1 1 1 1 1 1 1 1 1 1 1 1 1 1 1 1 1 1 1 1 1 1 1 1 1 1 1 1 1 1 1 1 1 1 1 1 1 1 1 1 1 1 1 1 1 1 1 1 1 1 1 1 1 1 1 1 1 1 1</float_array>
                    <technique_common>
                        <accessor count="97" source="#shape0-lib-vcolor-array" stride="4">
                            <param name="R" type="float"/>
                            <param name="G" type="float"/>
                            <param name="B" type="float"/>
                            <param name="A" type="float"/>
                        </accessor>
                    </technique_common>
                </source>
                <source id="shape0-lib-map" name="map">
                    <float_array id="shape0-lib-map-array" count="1140">0.503801 0.235345 0.510695 0.226731 0.512582 0.242137 0.390997 0.291403 0.383527 0.300773 0.373598 0.29137 0.383527 0.300773 0.396527 0.305606 0.371027 0.306948 0.396527 0.305606 0.390359 0.322888 0.378316 0.322888 0.396527 0.305606 0.378316 0.322888 0.371027 0.306948 0.536847 0.149621 0.54455 0.143086 0.541334 0.157553 0.536847 0.149621 0.541334 0.157553 0.535432 0.160367 0.489451 0.232344 0.495881 0.220614 0.503801 0.235345 0.495881 0.220614 0.510695 0.226731 0.503801 0.235345 0.390997 0.291403 0.396527 0.305606 0.383527 0.300773 0.396527 0.305606 0.401581 0.322888 0.390359 0.322888 0.540994 0.139607 0.54455 0.143086 0.536847 0.149621 0.54455 0.143086 0.556998 0.15183 0.541334 0.157553 0.495881 0.220614 0.500112 0.213186 0.510695 0.226731 0.500112 0.213186 0.508816 0.211231 0.514853 0.219099 0.500112 0.213186 0.514853 0.219099 0.510695 0.226731 0.406809 0.300681 0.410096 0.311393 0.396527 0.305606 0.410096 0.311393 0.411217 0.322888 0.401581 0.322888 0.410096 0.311393 0.401581 0.322888 0.396527 0.305606 0.461229 0.131007 0.46308 0.132859 0.456126 0.139775 0.547593 0.131007 0.553393 0.129855 0.54455 0.143086 0.547593 0.131007 0.54455 0.143086 0.540994 0.139607 0.500112 0.213186 0.500948 0.205194 0.508816 0.211231 0.49838 0.307448 0.484719 0.311393 0.488006 0.300681 0.49838 0.307448 0.493234 0.322888 0.483598 0.322888 0.49838 0.307448 0.483598 0.322888 0.484719 0.311393 0.47104 0.125302 0.46308 0.132859 0.461229 0.131007 0.556192 0.124409 0.553393 0.129855 0.547593 0.131007 0.553393 0.129855 0.564998 0.126634 0.54455 0.143086 0.564998 0.126634 0.574057 0.138765 0.556998 0.15183 0.564998 0.126634 0.556998 0.15183 0.54455 0.143086 0.574057 0.138765 0.566929 0.156164 0.556998 0.15183 0.495881 0.220614 0.486193 0.207554 0.500112 0.213186 0.511946 0.291321 0.510992 0.300541 0.49838 0.307448 0.511946 0.291321 0.49838 0.307448 0.500048 0.291483 0.49838 0.307448 0.504456 0.322888 0.493234 0.322888 0.566206 0.120261 0.564998 0.126634 0.553393 0.129855 0.566206 0.120261 0.553393 0.129855 0.556192 0.124409 0.574057 0.138765 0.581127 0.150304 0.566929 0.156164 0.581127 0.150304 0.572279 0.166519 0.566929 0.156164 0.489451 0.232344 0.479204 0.216247 0.495881 0.220614 0.479204 0.216247 0.486193 0.207554 0.495881 0.220614 0.510992 0.300541 0.523388 0.307057 0.49838 0.307448 0.523388 0.307057 0.516498 0.322888 0.504456 0.322888 0.523388 0.307057 0.504456 0.322888 0.49838 0.307448 0.576953 0.118846 0.581645 0.12394 0.564998 0.126634 0.576953 0.118846 0.564998 0.126634 0.566206 0.120261 0.581645 0.12394 0.574057 0.138765 0.564998 0.126634 0.47479 0.23809 0.479204 0.216247 0.489451 0.232344 0.479204 0.216247 0.470589 0.209352 0.486193 0.207554 0.529179 0.291403 0.523388 0.307057 0.510992 0.300541 0.529179 0.291403 0.510992 0.300541 0.511946 0.291321 0.523388 0.307057 0.528541 0.322888 0.516498 0.322888 0.587699 0.120261 0.581645 0.12394 0.576953 0.118846 0.47479 0.23809 0.464473 0.224166 0.479204 0.216247 0.464473 0.224166 0.470589 0.209352 0.479204 0.216247 0.529179 0.291403 0.536645 0.300681 0.523388 0.307057 0.536645 0.300681 0.545455 0.311076 0.523388 0.307057 0.545455 0.311076 0.539762 0.322888 0.528541 0.322888 0.545455 0.311076 0.528541 0.322888 0.523388 0.307057 0.597713 0.124409 0.599229 0.131166 0.581645 0.12394 0.597713 0.124409 0.581645 0.12394 0.587699 0.120261 0.599229 0.131166 0.592494 0.144768 0.574057 0.138765 0.599229 0.131166 0.574057 0.138765 0.581645 0.12394 0.592494 0.144768 0.581127 0.150304 0.574057 0.138765 0.464473 0.224166 0.457045 0.219935 0.470589 0.209352 0.457045 0.219935 0.45509 0.211231 0.462958 0.205194 0.457045 0.219935 0.462958 0.205194 0.470589 0.209352 0.544991 0.300681 0.545455 0.311076 0.536645 0.300681 0.545455 0.311076 0.549399 0.322888 0.539762 0.322888 0.519949 0.131007 0.518098 0.132859 0.511182 0.125904 0.606313 0.131007 0.599229 0.131166 0.597713 0.124409 0.457045 0.219935 0.449052 0.219099 0.45509 0.211231 0.567471 0.307448 0.55381 0.311393 0.557097 0.300681 0.567471 0.307448 0.562325 0.322888 0.552689 0.322888 0.567471 0.307448 0.552689 0.322888 0.55381 0.311393 0.525654 0.140818 0.518098 0.132859 0.519949 0.131007 0.612911 0.139607 0.613047 0.149315 0.599229 0.131166 0.612911 0.139607 0.599229 0.131166 0.606313 0.131007 0.613047 0.149315 0.592494 0.144768 0.599229 0.131166 0.464473 0.224166 0.451412 0.233854 0.457045 0.219935 0.581037 0.291321 0.580083 0.300541 0.567471 0.307448 0.581037 0.291321 0.567471 0.307448 0.569139 0.291483 0.567471 0.307448 0.573547 0.322888 0.562325 0.322888 0.617059 0.149621 0.613047 0.149315 0.612911 0.139607 0.604121 0.156784 0.592494 0.144768 0.613047 0.149315 0.604121 0.156784 0.584966 0.166526 0.581127 0.150304 0.604121 0.156784 0.581127 0.150304 0.592494 0.144768 0.584966 0.166526 0.572279 0.166519 0.581127 0.150304 0.47479 0.23809 0.462151 0.248926 0.464473 0.224166 0.462151 0.248926 0.451412 0.233854 0.464473 0.224166 0.580083 0.300541 0.592479 0.307057 0.567471 0.307448 0.592479 0.307057 0.585589 0.322888 0.573547 0.322888 0.592479 0.307057 0.573547 0.322888 0.567471 0.307448 0.618474 0.160367 0.613047 0.149315 0.617059 0.149621 0.462151 0.248926 0.453211 0.249458 0.451412 0.233854 0.598269 0.291403 0.592479 0.307057 0.580083 0.300541 0.598269 0.291403 0.580083 0.300541 0.581037 0.291321 0.592479 0.307057 0.597632 0.322888 0.585589 0.322888 0.617059 0.171114 0.610924 0.174326 0.613047 0.149315 0.617059 0.171114 0.613047 0.149315 0.618474 0.160367 0.610924 0.174326 0.604121 0.156784 0.613047 0.149315 0.610924 0.174326 0.596043 0.171341 0.604121 0.156784 0.596043 0.171341 0.584966 0.166526 0.604121 0.156784 0.598269 0.291403 0.605736 0.300681 0.592479 0.307057 0.605736 0.300681 0.614546 0.311076 0.592479 0.307057 0.614546 0.311076 0.608853 0.322888 0.597632 0.322888 0.614546 0.311076 0.597632 0.322888 0.592479 0.307057 0.612911 0.181128 0.610924 0.174326 0.617059 0.171114 0.462151 0.248926 0.463793 0.263002 0.453211 0.249458 0.463793 0.263002 0.45509 0.264957 0.449052 0.257089 0.463793 0.263002 0.449052 0.257089 0.453211 0.249458 0.614082 0.300681 0.614546 0.311076 0.605736 0.300681 0.614546 0.311076 0.61849 0.322888 0.608853 0.322888 0.519949 0.189727 0.518098 0.187876 0.525052 0.18096 0.606313 0.189727 0.599393 0.189442 0.610924 0.174326 0.606313 0.189727 0.610924 0.174326 0.612911 0.181128 0.599393 0.189442 0.596043 0.171341 0.610924 0.174326 0.463793 0.263002 0.462958 0.270995 0.45509 0.264957 0.429289 0.307448 0.415628 0.311393 0.418915 0.300681 0.429289 0.307448 0.424143 0.322888 0.414507 0.322888 0.429289 0.307448 0.414507 0.322888 0.415628 0.311393 0.510139 0.195432 0.518098 0.187876 0.519949 0.189727 0.597713 0.196325 0.599393 0.189442 0.606313 0.189727 0.599393 0.189442 0.579849 0.181969 0.596043 0.171341 0.579849 0.181969 0.584966 0.166526 0.596043 0.171341 0.47479 0.23809 0.48168 0.260255 0.462151 0.248926 0.48168 0.260255 0.477713 0.268635 0.463793 0.263002 0.48168 0.260255 0.463793 0.263002 0.462151 0.248926 0.442855 0.291321 0.441901 0.300541 0.429289 0.307448 0.442855 0.291321 0.429289 0.307448 0.430957 0.291483 0.429289 0.307448 0.435365 0.322888 0.424143 0.322888 0.587699 0.200473 0.58185 0.196767 0.599393 0.189442 0.587699 0.200473 0.599393 0.189442 0.597713 0.196325 0.58185 0.196767 0.579849 0.181969 0.599393 0.189442 0.496666 0.251926 0.48168 0.260255 0.47479 0.23809 0.441901 0.300541 0.454297 0.307057 0.429289 0.307448 0.454297 0.307057 0.447407 0.322888 0.435365 0.322888 0.454297 0.307057 0.435365 0.322888 0.429289 0.307448 0.576953 0.201888 0.58185 0.196767 0.587699 0.200473 0.48168 0.260255 0.493316 0.266836 0.477713 0.268635 0.460088 0.291403 0.454297 0.307057 0.441901 0.300541 0.460088 0.291403 0.441901 0.300541 0.442855 0.291321 0.454297 0.307057 0.45945 0.322888 0.447407 0.322888 0.566206 0.200473 0.567484 0.195691 0.58185 0.196767 0.566206 0.200473 0.58185 0.196767 0.576953 0.201888 0.567484 0.195691 0.579849 0.181969 0.58185 0.196767 0.579849 0.181969 0.572279 0.166519 0.584966 0.166526 0.496666 0.251926 0.493316 0.266836 0.48168 0.260255 0.460088 0.291403 0.468511 0.303993 0.454297 0.307057 0.468511 0.303993 0.470671 0.322888 0.45945 0.322888 0.468511 0.303993 0.45945 0.322888 0.454297 0.307057 0.556192 0.196325 0.554677 0.189568 0.567484 0.195691 0.556192 0.196325 0.567484 0.195691 0.566206 0.200473 0.554677 0.189568 0.559693 0.173676 0.579849 0.181969 0.554677 0.189568 0.579849 0.181969 0.567484 0.195691 0.559693 0.173676 0.572279 0.166519 0.579849 0.181969 0.496666 0.251926 0.506861 0.256254 0.493316 0.266836 0.506861 0.256254 0.508816 0.264957 0.500948 0.270995 0.506861 0.256254 0.500948 0.270995 0.493316 0.266836 0.4759 0.300681 0.479187 0.311393 0.468511 0.303993 0.479187 0.311393 0.480308 0.322888 0.470671 0.322888 0.479187 0.311393 0.470671 0.322888 0.468511 0.303993 0.461229 0.189727 0.46308 0.187876 0.469997 0.19483 0.547593 0.189727 0.554677 0.189568 0.556192 0.196325 0.506861 0.256254 0.514853 0.257089 0.508816 0.264957 0.358169 0.300681 0.351022 0.311615 0.349824 0.300681 0.351022 0.311615 0.355052 0.322888 0.345416 0.322888 0.455524 0.179917 0.46308 0.187876 0.461229 0.189727 0.540994 0.181128 0.54306 0.174518 0.554677 0.189568 0.540994 0.181128 0.554677 0.189568 0.547593 0.189727 0.54306 0.174518 0.559693 0.173676 0.554677 0.189568 0.47479 0.23809 0.489451 0.232344 0.496666 0.251926 0.496666 0.251926 0.512582 0.242137 0.506861 0.256254 0.373598 0.29137 0.371027 0.306948 0.358169 0.300681 0.373598 0.29137 0.358169 0.300681 0.361866 0.291483 0.371027 0.306948 0.351022 0.311615 0.358169 0.300681 0.371027 0.306948 0.366274 0.322888 0.355052 0.322888 0.371027 0.306948 0.355052 0.322888 0.351022 0.311615 0.536847 0.171114 0.54306 0.174518 0.540994 0.181128 0.559693 0.173676 0.566929 0.156164 0.572279 0.166519 0.489451 0.232344 0.503801 0.235345 0.496666 0.251926 0.503801 0.235345 0.512582 0.242137 0.496666 0.251926 0.373598 0.29137 0.383527 0.300773 0.371027 0.306948 0.371027 0.306948 0.378316 0.322888 0.366274 0.322888 0.535432 0.160367 0.541334 0.157553 0.54306 0.174518 0.535432 0.160367 0.54306 0.174518 0.536847 0.171114 0.541334 0.157553 0.556998 0.15183 0.559693 0.173676 0.541334 0.157553 0.559693 0.173676 0.54306 0.174518 0.556998 0.15183 0.566929 0.156164 0.559693 0.173676</float_array>
                    <technique_common>
                        <accessor count="570" source="#shape0-lib-map-array" stride="2">
                            <param name="U" type="float"/>
                            <param name="V" type="float"/>
                        </accessor>
                    </technique_common>
                </source>
                <vertices id="shape0-lib-vertices">
                    <input semantic="POSITION" source="#shape0-lib-positions"/>
                </vertices>
                <triangles count="190" material="material0">
                    <input offset="0" semantic="VERTEX" source="#shape0-lib-vertices"/>
                    <input offset="1" semantic="COLOR" source="#shape0-lib-vcolor"/>
                    <input offset="2" semantic="NORMAL" source="#shape0-lib-normals"/>
                    <input offset="3" semantic="TEXCOORD" source="#shape0-lib-map"/>
                    <p>4 4 0 0 8 8 0 1 92 92 0 2 8 8 1 3 5 5 1 4 92 92 1 5 5 5 2 6 9 9 2 7 0 0 2 8 9 9 3 9 6 6 3 10 1 1 3 11 9 9 4 12 1 1 4 13 0 0 4 14 6 6 5 15 16 16 5 16 2 2 5 17 6 6 6 18 2 2 6 19 1 1 6 20 91 91 7 21 11 11 7 22 4 4 7 23 11 11 8 24 8 8 8 25 4 4 8 26 8 8 9 27 9 9 9 28 5 5 9 29 9 9 10 30 10 10 10 31 6 6 10 32 10 10 11 33 16 16 11 34 6 6 11 35 16 16 12 36 7 7 12 37 2 2 12 38 11 11 13 39 17 17 13 40 8 8 13 41 17 17 14 42 12 12 14 43 9 9 14 44 17 17 15 45 9 9 15 46 8 8 15 47 12 12 16 48 13 13 16 49 9 9 16 50 13 13 17 51 14 14 17 52 10 10 17 53 13 13 18 54 10 10 18 55 9 9 18 56 14 14 19 57 15 15 19 58 10 10 19 59 15 15 20 60 20 20 20 61 16 16 20 62 15 15 21 63 16 16 21 64 10 10 21 65 17 17 22 66 18 18 22 67 12 12 22 68 18 18 23 69 13 13 23 70 12 12 23 71 18 18 24 72 19 19 24 73 14 14 24 74 18 18 25 75 14 14 25 76 13 13 25 77 19 19 26 78 15 15 26 79 14 14 26 80 19 19 27 81 20 20 27 82 15 15 27 83 20 20 28 84 22 22 28 85 16 16 28 86 22 22 29 87 23 23 29 88 7 7 29 89 22 22 30 90 7 7 30 91 16 16 30 92 23 23 31 93 96 96 31 94 7 7 31 95 11 11 32 96 25 25 32 97 17 17 32 98 25 25 33 99 26 26 33 100 18 18 33 101 25 25 34 102 18 18 34 103 17 17 34 104 18 18 35 105 21 21 35 106 19 19 35 107 21 21 36 108 22 22 36 109 20 20 36 110 21 21 37 111 20 20 37 112 19 19 37 113 23 23 38 114 24 24 38 115 96 96 38 116 24 24 39 117 3 3 39 118 96 96 39 119 91 91 40 120 29 29 40 121 11 11 40 122 29 29 41 123 25 25 41 124 11 11 41 125 26 26 42 126 27 27 42 127 18 18 42 128 27 27 43 129 28 28 43 130 21 21 43 131 27 27 44 132 21 21 44 133 18 18 44 134 28 28 45 135 31 31 45 136 22 22 45 137 28 28 46 138 22 22 46 139 21 21 46 140 31 31 47 141 23 23 47 142 22 22 47 143 42 42 48 144 29 29 48 145 91 91 48 146 29 29 49 147 32 32 49 148 25 25 49 149 32 32 50 150 27 27 50 151 26 26 50 152 32 32 51 153 26 26 51 154 25 25 51 155 27 27 52 156 30 30 52 157 28 28 52 158 30 30 53 159 31 31 53 160 28 28 53 161 42 42 54 162 36 36 54 163 29 29 54 164 36 36 55 165 32 32 55 166 29 29 55 167 32 32 56 168 33 33 56 169 27 27 56 170 33 33 57 171 38 38 57 172 27 27 57 173 38 38 58 174 34 34 58 175 30 30 58 176 38 38 59 177 30 30 59 178 27 27 59 179 34 34 60 180 41 41 60 181 31 31 60 182 34 34 61 183 31 31 61 184 30 30 61 185 41 41 62 186 35 35 62 187 23 23 62 188 41 41 63 189 23 23 63 190 31 31 63 191 35 35 64 192 24 24 64 193 23 23 64 194 36 36 65 195 43 43 65 196 32 32 65 197 43 43 66 198 37 37 66 199 33 33 66 200 43 43 67 201 33 33 67 202 32 32 67 203 37 37 68 204 38 38 68 205 33 33 68 206 38 38 69 207 39 39 69 208 34 34 69 209 39 39 70 210 40 40 70 211 34 34 70 212 40 40 71 213 41 41 71 214 34 34 71 215 43 43 72 216 44 44 72 217 37 37 72 218 44 44 73 219 38 38 73 220 37 37 73 221 44 44 74 222 45 45 74 223 39 39 74 224 44 44 75 225 39 39 75 226 38 38 75 227 45 45 76 228 40 40 76 229 39 39 76 230 45 45 77 231 52 52 77 232 41 41 77 233 45 45 78 234 41 41 78 235 40 40 78 236 52 52 79 237 35 35 79 238 41 41 79 239 36 36 80 240 48 48 80 241 43 43 80 242 48 48 81 243 49 49 81 244 44 44 81 245 48 48 82 246 44 44 82 247 43 43 82 248 44 44 83 249 46 46 83 250 45 45 83 251 46 46 84 252 52 52 84 253 45 45 84 254 53 53 85 255 35 35 85 256 52 52 85 257 53 53 86 258 47 47 86 259 24 24 86 260 53 53 87 261 24 24 87 262 35 35 87 263 47 47 88 264 3 3 88 265 24 24 88 266 42 42 89 267 54 54 89 268 36 36 89 269 54 54 90 270 48 48 90 271 36 36 90 272 49 49 91 273 50 50 91 274 44 44 91 275 50 50 92 276 51 51 92 277 46 46 92 278 50 50 93 279 46 46 93 280 44 44 93 281 51 51 94 282 52 52 94 283 46 46 94 284 54 54 95 285 57 57 95 286 48 48 95 287 57 57 96 288 50 50 96 289 49 49 96 290 57 57 97 291 49 49 97 292 48 48 97 293 50 50 98 294 55 55 98 295 51 51 98 296 55 55 99 297 60 60 99 298 52 52 99 299 55 55 100 300 52 52 100 301 51 51 100 302 60 60 101 303 53 53 101 304 52 52 101 305 60 60 102 306 56 56 102 307 53 53 102 308 56 56 103 309 47 47 103 310 53 53 103 311 57 57 104 312 58 58 104 313 50 50 104 314 58 58 105 315 62 62 105 316 50 50 105 317 62 62 106 318 59 59 106 319 55 55 106 320 62 62 107 321 55 55 107 322 50 50 107 323 59 59 108 324 60 60 108 325 55 55 108 326 54 54 109 327 65 65 109 328 57 57 109 329 65 65 110 330 61 61 110 331 58 58 110 332 65 65 111 333 58 58 111 334 57 57 111 335 61 61 112 336 62 62 112 337 58 58 112 338 62 62 113 339 63 63 113 340 59 59 113 341 63 63 114 342 64 64 114 343 59 59 114 344 64 64 115 345 68 68 115 346 60 60 115 347 64 64 116 348 60 60 116 349 59 59 116 350 68 68 117 351 56 56 117 352 60 60 117 353 65 65 118 354 66 66 118 355 61 61 118 356 66 66 119 357 62 62 119 358 61 61 119 359 66 66 120 360 67 67 120 361 63 63 120 362 66 66 121 363 63 63 121 364 62 62 121 365 67 67 122 366 64 64 122 367 63 63 122 368 67 67 123 369 68 68 123 370 64 64 123 371 68 68 124 372 79 79 124 373 56 56 124 374 79 79 125 375 47 47 125 376 56 56 125 377 42 42 126 378 69 69 126 379 54 54 126 380 69 69 127 381 71 71 127 382 65 65 127 383 69 69 128 384 65 65 128 385 54 54 128 386 71 71 129 387 72 72 129 388 66 66 129 389 71 71 130 390 66 66 130 391 65 65 130 392 66 66 131 393 70 70 131 394 67 67 131 395 70 70 132 396 75 75 132 397 68 68 132 398 70 70 133 399 68 68 133 400 67 67 133 401 75 75 134 402 79 79 134 403 68 68 134 404 76 76 135 405 69 69 135 406 42 42 135 407 72 72 136 408 73 73 136 409 66 66 136 410 73 73 137 411 74 74 137 412 70 70 137 413 73 73 138 414 70 70 138 415 66 66 138 416 74 74 139 417 75 75 139 418 70 70 139 419 69 69 140 420 80 80 140 421 71 71 140 422 80 80 141 423 73 73 141 424 72 72 141 425 80 80 142 426 72 72 142 427 71 71 142 428 73 73 143 429 77 77 143 430 74 74 143 431 77 77 144 432 78 78 144 433 75 75 144 434 77 77 145 435 75 75 145 436 74 74 145 437 78 78 146 438 79 79 146 439 75 75 146 440 79 79 147 441 3 3 147 442 47 47 147 443 76 76 148 444 80 80 148 445 69 69 148 446 80 80 149 447 81 81 149 448 73 73 149 449 81 81 150 450 82 82 150 451 77 77 150 452 81 81 151 453 77 77 151 454 73 73 151 455 82 82 152 456 86 86 152 457 78 78 152 458 82 82 153 459 78 78 153 460 77 77 153 461 86 86 154 462 95 95 154 463 79 79 154 464 86 86 155 465 79 79 155 466 78 78 155 467 95 95 156 468 3 3 156 469 79 79 156 470 76 76 157 471 87 87 157 472 80 80 157 473 87 87 158 474 83 83 158 475 81 81 158 476 87 87 159 477 81 81 159 478 80 80 159 479 83 83 160 480 89 89 160 481 81 81 160 482 89 89 161 483 84 84 161 484 82 82 161 485 89 89 162 486 82 82 162 487 81 81 162 488 84 84 163 489 85 85 163 490 82 82 163 491 85 85 164 492 86 86 164 493 82 82 164 494 87 87 165 495 88 88 165 496 83 83 165 497 88 88 166 498 89 89 166 499 83 83 166 500 89 89 167 501 90 90 167 502 84 84 167 503 90 90 168 504 85 85 168 505 84 84 168 506 90 90 169 507 94 94 169 508 86 86 169 509 90 90 170 510 86 86 170 511 85 85 170 512 94 94 171 513 95 95 171 514 86 86 171 515 42 42 172 516 91 91 172 517 76 76 172 518 76 76 173 519 92 92 173 520 87 87 173 521 92 92 174 522 0 0 174 523 88 88 174 524 92 92 175 525 88 88 175 526 87 87 175 527 0 0 176 528 89 89 176 529 88 88 176 530 0 0 177 531 93 93 177 532 90 90 177 533 0 0 178 534 90 90 178 535 89 89 178 536 93 93 179 537 94 94 179 538 90 90 179 539 95 95 180 540 96 96 180 541 3 3 180 542 91 91 181 543 4 4 181 544 76 76 181 545 4 4 182 546 92 92 182 547 76 76 182 548 92 92 183 549 5 5 183 550 0 0 183 551 0 0 184 552 1 1 184 553 93 93 184 554 1 1 185 555 2 2 185 556 94 94 185 557 1 1 186 558 94 94 186 559 93 93 186 560 2 2 187 561 7 7 187 562 95 95 187 563 2 2 188 564 95 95 188 565 94 94 188 566 7 7 189 567 96 96 189 568 95 95 189 569</p>
                </triangles>
            </mesh>
        </geometry>
    </library_geometries>
    <library_visual_scenes>
        <visual_scene id="VisualSceneNode" name="VisualScene">
            <node id="node" name="node">
                <instance_geometry url="#shape0-lib">
                    <bind_material>
                        <technique_common>
                            <instance_material symbol="material0" target="#material0">
                                <bind_vertex_input semantic="UVSET0" input_semantic="TEXCOORD"/>
                            </instance_material>
                        </technique_common>
                    </bind_material>
                </instance_geometry>
            </node>
        </visual_scene>
    </library_visual_scenes>
    <scene>
        <instance_visual_scene url="#VisualSceneNode"/>
    </scene>
</COLLADA>
