<?xml version="1.0" encoding="UTF-8"?>
<COLLADA xmlns="http://www.collada.org/2005/11/COLLADASchema" version="1.4.1">
    <asset>
        <contributor>
            <author>VCGLab</author>
            <authoring_tool>VCGLib | MeshLab</authoring_tool>
        </contributor>
        <created>Thu Jul 3 02:01:27 2025 GMT</created>
        <modified>Thu Jul 3 02:01:27 2025 GMT</modified>
        <up_axis>Y_UP</up_axis>
    </asset>
    <library_images>
        <image id="texture0" name="texture0">
            <init_from>./image/shelf_items.png</init_from>
        </image>
    </library_images>
    <library_materials>
        <material id="material0" name="material0">
            <instance_effect url="#material0-fx"/>
        </material>
    </library_materials>
    <library_effects>
        <effect id="material0-fx">
            <profile_COMMON>
                <newparam sid="texture0-surface">
                    <surface type="2D">
                        <init_from>texture0</init_from>
                        <format>R8G8B8</format>
                    </surface>
                </newparam>
                <newparam sid="texture0-sampler">
                    <sampler2D>
                        <source>texture0-surface</source>
                        <minfilter>LINEAR</minfilter>
                        <magfilter>LINEAR</magfilter>
                    </sampler2D>
                </newparam>
                <technique sid="common">
                    <blinn>
                        <diffuse>
                            <texture texture="texture0-sampler" texcoord="UVSET0"/>
                        </diffuse>
                    </blinn>
                </technique>
            </profile_COMMON>
        </effect>
    </library_effects>
    <library_geometries>
        <geometry id="shape0-lib" name="shape0">
            <mesh>
                <source id="shape0-lib-positions" name="position">
                    <float_array id="shape0-lib-positions-array" count="312">2.86102e-09 0.186 -0.104 -0.0383192 0.186 -0.0975302 -0.0735391 0.186 -0.0735391 -0.0962946 0.186 -0.0413785 -0.104 0.186 1.11759e-10 -0.0975302 0.186 0.0383193 -0.0735391 0.186 0.0735391 -0.0413782 0.186 0.0962947 2.86102e-09 0.186 0.104 0.0624473 0.186 0.0839649 0.0962946 0.186 0.0413785 0.104 0.186 1.11759e-10 0.0975302 0.186 -0.0383193 0.0735391 0.186 -0.0735391 0.0413782 0.186 -0.0962947 2.86102e-09 0.186249 -0.117801 -0.0304892 0.186249 -0.113787 -0.0730227 0.186249 -0.093411 -0.102018 0.186249 -0.0589004 -0.113787 0.186249 -0.0304891 -0.117801 0.186249 1.11759e-10 -0.109197 0.186249 0.0466669 -0.0832978 0.186249 0.0832977 -0.0439366 0.186249 0.110318 2.86102e-09 0.186249 0.117801 0.0304892 0.186249 0.113787 0.0730227 0.186249 0.093411 0.102018 0.186249 0.0589004 0.113787 0.186249 0.0304891 0.117801 0.186249 1.11759e-10 0.109197 0.186249 -0.0466669 0.0832978 0.186249 -0.0832977 0.0439366 0.186249 -0.110318 -0.000378657 0.00209416 -0.101646 -0.0346927 0.00318093 -0.0974219 -0.0705102 0.00249624 -0.07413 -0.0900667 0.00540001 -0.052 -0.0981264 0.00249624 -0.02895 -0.101635 0.00229673 -6.75917e-05 -0.100456 0.00540001 0.0269172 -0.0898711 0.00255964 0.0487872 -0.0735391 0.00540001 0.0735391 -0.0533538 0.00249565 0.0872936 4.7212e-05 0.00209984 0.101653 0.0346927 0.00318095 0.0974219 0.0705102 0.00249624 0.07413 0.0976594 0.00264 0.033464 0.103044 0.00317035 -0.00863867 0.0898563 0.00249589 -0.0489151 0.0735391 0.00540001 -0.0735391 0.0533538 0.00249565 -0.0872937 0.0257948 0.00211897 -0.0983332 -0.015605 0.204874 -0.116613 -0.0582592 0.204373 -0.101816 -0.0826274 0.204373 -0.0832666 -0.101285 0.204393 -0.0591678 -0.113193 0.204373 -0.0307918 -0.117419 0.204871 0.0124951 -0.101812 0.204372 0.0582672 -0.0832641 0.204372 0.0826313 -0.0590428 0.204372 0.101364 -0.0304923 0.20493 0.112764 0.0156052 0.204874 0.116614 0.0582594 0.204373 0.101815 0.0826276 0.204373 0.0832664 0.101364 0.204373 0.0590413 0.113193 0.204373 0.0307924 0.117419 0.204871 -0.0124949 0.101812 0.204372 -0.0582674 0.0832638 0.204372 -0.0826317 0.0590425 0.204372 -0.101364 0.030533 0.204894 -0.112705 0.0260664 0.186 0.10023 -0.0242586 0.000586078 0.098213 2.86102e-09 0.205751 -1.28523e-09 -0.0403279 0.1545 -0.0906921 -0.0644376 0.1545 -0.0995308 -0.0888153 0.1545 -0.0945934 -0.103526 0.1545 -0.0823749 -0.112259 0.1545 -0.067134 -0.113269 0.1545 -0.0421691 -0.101469 0.1545 -0.0204478 -0.0422846 0.1715 -0.0920531 -0.067146 0.1715 -0.0996928 -0.0839306 0.1715 -0.0963526 -0.0946486 0.1715 -0.0906537 -0.107779 0.1715 -0.0768692 -0.11497 0.1715 -0.0468163 -0.105502 0.1715 -0.0257947 -0.0972235 0.1715 -0.0169168 0.0406819 0.1545 0.0878947 0.0647916 0.1545 0.0967335 0.0891689 0.1545 0.0917962 0.103881 0.1545 0.0795776 0.112614 0.1545 0.0643358 0.113623 0.1545 0.0393717 0.101823 0.1545 0.0176506 0.0426386 0.1715 0.0892558 0.0675 0.1715 0.0968955 0.0842847 0.1715 0.0935553 0.0950027 0.1715 0.0878564 0.108132 0.1715 0.0740736 0.115324 0.1715 0.0440188 0.100145 0.1715 0.0159413</float_array>
                    <technique_common>
                        <accessor count="104" source="#shape0-lib-positions-array" stride="3">
                            <param name="X" type="float"/>
                            <param name="Y" type="float"/>
                            <param name="Z" type="float"/>
                        </accessor>
                    </technique_common>
                </source>
                <source id="shape0-lib-normals" name="normal">
                    <float_array id="shape0-lib-normals-array" count="564">0.356094 -0.870914 -0.338682 -0.352812 -0.874383 0.333133 -0.482472 -0.867536 0.120842 -0.419392 -0.870858 -0.256353 -0.122279 -0.00301349 -0.992491 -0.166472 -0.0122766 -0.98597 -0.545066 -0.00629729 -0.838369 -0.562938 -0.0116563 -0.826417 -0.748408 0.0131902 -0.663107 -0.816267 -0.0116136 -0.577558 -0.943365 -0.0130355 -0.3315 -0.992612 -0.0127362 -0.120659 -0.983097 -0.00258579 -0.183069 -0.999023 0.013528 0.0420811 -0.985964 -0.0127563 0.16647 -0.900694 -0.0128253 0.434264 -0.834676 0 0.550742 -0.82647 -0.0023814 0.562976 -0.563473 -0.00374985 0.826126 -0.577594 0 0.816324 -0.352591 -0.0228769 0.935498 -0.139344 -0.0126733 0.990163 -0.183065 -0.00673206 0.983078 0.121508 -0.00951368 0.992545 0.14312 -0.012594 0.989625 0.408146 0.00523475 0.912902 0.54476 -0.0209944 0.838329 0.831584 -0.0177713 0.555115 0.782853 0.00105019 0.622206 0.991877 -0.0111735 0.126712 0.9831 -0.000584612 0.183069 0.986041 0.00271042 -0.166483 0.950236 -0.0217929 -0.310769 0.83359 0 -0.552384 0.82647 -0.00205442 -0.562977 0.563473 -0.00374987 -0.826126 0.577594 0 -0.816324 0.37202 -0.0212402 -0.927981 0.125578 -0.0129551 -0.991999 0.183067 -0.004616 -0.98309 -0.130388 -0.0460983 -0.990391 -0.431094 -0.0661318 -0.89988 -0.326688 0.118783 -0.937638 -0.601053 0.123446 -0.789618 -0.765459 0.0214649 -0.643127 -0.788455 -0.076205 -0.610354 -0.923608 0.0238913 -0.382592 -0.921643 0.031556 -0.386753 -0.985722 0.10729 -0.129774 -0.994755 0.0309865 -0.0974796 -0.978399 -0.10097 0.180388 -0.931298 0.175017 0.319457 -0.816314 0.0227425 0.577161 -0.794072 -0.0633615 0.604512 -0.564778 -0.0642907 0.822735 -0.611502 0.0302119 0.790666 -0.369325 0.145604 0.917823 -0.164528 0.199444 0.965998 -0.0830961 -0.0703747 0.994054 0.130388 -0.046106 0.99039 0.431094 -0.0661298 0.89988 0.326692 0.118778 0.937637 0.601054 0.123446 0.789617 0.76544 0.0226159 0.64311 0.788694 -0.0765302 0.610004 0.923608 0.0238889 0.382592 0.92198 0.0302619 0.386054 0.985722 0.107288 0.129774 0.994754 0.0309936 0.0974837 0.978399 -0.10097 -0.180388 0.931298 0.175018 -0.319457 0.816314 0.0227428 -0.577161 0.794071 -0.063365 -0.604513 0.564778 -0.0642936 -0.822735 0.611499 0.030204 -0.790668 0.367922 0.14694 -0.918173 0.164528 0.199446 -0.965998 0.0842571 -0.0667096 -0.994209 0 1 0 0 1 0 0 1 0 0 1 0 0 1 0 0 1 0 0 1 0 0 1 0 0 1 0 0 1 0 0 1 0 0 1 0 0 1 0 0 1 0 0.00187474 -0.999972 -0.00732149 0.015236 -0.999876 -0.00391811 0.00752071 -0.999946 -0.00714675 0.0269387 -0.999606 0.00791862 0.0108957 -0.999878 -0.0112016 0.0231846 -0.99966 0.0119444 0.0450804 -0.994111 0.098547 0.0452391 -0.992109 0.116935 -0.0999835 -0.990617 0.0931724 -0.0416547 -0.999013 0.015406 -0.0115509 -0.999899 -0.0083101 -0.0125991 -0.999891 -0.00770109 0.0101376 -0.999853 -0.0138025 -0.0330668 -0.999387 -0.011492 -0.0137119 0.99989 -0.00568708 -0.00717568 0.99993 -0.00942768 -0.00889418 0.999931 -0.00772238 -0.0111063 0.999931 -0.00393569 -0.00880866 0.999885 -0.0123798 -0.00610903 0.999897 0.0129901 -0.00943342 0.99993 0.0071821 -0.00725592 0.99993 0.00937627 -0.0202474 0.999793 0.00180712 0.000595034 0.999972 0.00744437 0.0137084 0.99989 0.00568893 0.00717647 0.99993 0.00942708 0.009375 0.99993 0.00724542 0.0109333 0.99993 0.00457011 0.00880852 0.999885 0.0123787 0.00610902 0.999897 -0.0129904 0.00943229 0.99993 -0.00718432 0.00725705 0.99993 -0.0093762 0.0192689 0.999812 -0.00237793 0.000189563 0.999972 -0.00754797 0.343987 -0.0355278 -0.938302 0.293529 0.0376623 -0.955208 -0.198342 -0.0409315 -0.979278 -0.194976 -0.0453663 -0.979758 -0.46903 0.0434842 -0.882111 -0.6384 -0.0409345 -0.768616 -0.72344 0.0421987 -0.689096 -0.866287 -0.0559431 -0.496404 -0.965262 0.122141 -0.230977 -0.993082 -0.110337 -0.0401734 -0.877904 0.0425451 0.476943 -0.908341 -0.0868328 0.409116 -0.730751 0.0409459 0.681414 -0.343989 -0.0355289 0.938301 -0.29353 0.037662 0.955208 0.198338 -0.0409306 0.979279 0.194975 -0.045362 0.979759 0.46903 0.04348 0.882111 0.63837 -0.0409285 0.768641 0.723414 0.0422109 0.689122 0.866321 -0.0559392 0.496345 0.96526 0.122146 0.230982 0.993082 -0.110335 0.0401679 0.877905 0.0425439 -0.476942 0.879008 0.0389838 -0.475211 0 -1 0 0 -1 0 0 -1 0 0 -1 0 0 -1 0 0 -1 0 0 -1 0 0 -1 0 0 -1 0 0 -1 0 0 -1 0 0 -1 0 0 -1 0 0 -1 0 0 -1 0 0 -1 0 0 -1 0 0 -1 0 0 -1 0 0 -1 0 0 -1 0 0 1 0 0 1 0 0 1 0 0 1 0 0 1 0 0 1 0 0 -1 0 0 -1 0 0 -1 0 0 -1 0 0 -1 0 0 1 0 0 1 0 0 1 0 0 1 0 0 1 0</float_array>
                    <technique_common>
                        <accessor count="188" source="#shape0-lib-normals-array" stride="3">
                            <param name="X" type="float"/>
                            <param name="Y" type="float"/>
                            <param name="Z" type="float"/>
                        </accessor>
                    </technique_common>
                </source>
                <source id="shape0-lib-vcolor" name="vcolor">
                    <float_array id="shape0-lib-vcolor-array" count="416">1 1 1 1 1 1 1 1 1 1 1 1 1 1 1 1 1 1 1 1 1 1 1 1 1 1 1 1 1 1 1 1 1 1 1 1 1 1 1 1 1 1 1 1 1 1 1 1 1 1 1 1 1 1 1 1 1 1 1 1 1 1 1 1 1 1 1 1 1 1 1 1 1 1 1 1 1 1 1 1 1 1 1 1 1 1 1 1 1 1 1 1 1 1 1 1 1 1 1 1 1 1 1 1 1 1 1 1 1 1 1 1 1 1 1 1 1 1 1 1 1 1 1 1 1 1 1 1 1 1 1 1 1 1 1 1 1 1 1 1 1 1 1 1 1 1 1 1 1 1 1 1 1 1 1 1 1 1 1 1 1 1 1 1 1 1 1 1 1 1 1 1 1 1 1 1 1 1 1 1 1 1 1 1 1 1 1 1 1 1 1 1 1 1 1 1 1 1 1 1 1 1 1 1 1 1 1 1 1 1 1 1 1 1 1 1 1 1 1 1 1 1 1 1 1 1 1 1 1 1 1 1 1 1 1 1 1 1 1 1 1 1 1 1 1 1 1 1 1 1 1 1 1 1 1 1 1 1 1 1 1 1 1 1 1 1 1 1 1 1 1 1 1 1 1 1 1 1 1 1 1 1 1 1 1 1 1 1 1 1 1 1 1 1 1 1 1 1 1 1 1 1 1 1 1 1 1 1 1 1 1 1 1 1 1 1 1 1 1 1 1 1 1 1 1 1 1 1 1 1 1 1 1 1 1 1 1 1 1 1 1 1 1 1 1 1 1 1 1 1 1 1 1 1 1 1 1 1 1 1 1 1 1 1 1 1 1 1 1 1 1 1 1 1 1 1 1 1 1 1 1 1 1 1 1 1 1 1 1 1 1 1 1 1 1 1 1 1 1 1 1 1 1 1 1 1 1 1 1 1 1 1 1 1 1 1</float_array>
                    <technique_common>
                        <accessor count="104" source="#shape0-lib-vcolor-array" stride="4">
                            <param name="R" type="float"/>
                            <param name="G" type="float"/>
                            <param name="B" type="float"/>
                            <param name="A" type="float"/>
                        </accessor>
                    </technique_common>
                </source>
                <source id="shape0-lib-map" name="map">
                    <float_array id="shape0-lib-map-array" count="1128">0.822359 0.212945 0.82418 0.21587 0.820141 0.211423 0.805932 0.229953 0.80409 0.226875 0.80815 0.231475 0.0852343 0.0352314 0.0974286 0.0341017 0.098096 0.0366569 0.804086 0.215436 0.806343 0.212859 0.80324 0.218048 0.15648 0.0350755 0.172425 0.0354244 0.174948 0.122111 0.15648 0.0350755 0.174948 0.122111 0.156354 0.122111 0.172425 0.0354244 0.19147 0.0366569 0.19147 0.122111 0.172425 0.0354244 0.19147 0.122111 0.174948 0.122111 0.0501258 0.0366569 0.0604113 0.0366569 0.0659696 0.122111 0.0501258 0.0366569 0.0659696 0.122111 0.0501258 0.122111 0.0604113 0.0366569 0.0723889 0.0366569 0.0659696 0.122111 0.0723889 0.0366569 0.0852343 0.0352314 0.0852425 0.122111 0.0723889 0.0366569 0.0852425 0.122111 0.0659696 0.122111 0.0852343 0.0352314 0.098096 0.0366569 0.103837 0.122111 0.0852343 0.0352314 0.103837 0.122111 0.0852425 0.122111 0.098096 0.0366569 0.110074 0.0366569 0.103837 0.122111 0.110074 0.0366569 0.120359 0.0366569 0.120359 0.122111 0.110074 0.0366569 0.120359 0.122111 0.103837 0.122111 0.121237 0.125546 0.131522 0.125546 0.13708 0.210999 0.121237 0.125546 0.13708 0.210999 0.121237 0.210999 0.131522 0.125546 0.143851 0.124123 0.13708 0.210999 0.143851 0.124123 0.156379 0.123967 0.156354 0.210999 0.143851 0.124123 0.156354 0.210999 0.13708 0.210999 0.156379 0.123967 0.172425 0.124314 0.169207 0.210999 0.156379 0.123967 0.169207 0.210999 0.156354 0.210999 0.172425 0.124314 0.186666 0.210999 0.169207 0.210999 0.172425 0.124314 0.19147 0.125546 0.186666 0.210999 0.0501258 0.125546 0.0703556 0.124208 0.0659696 0.210999 0.0501258 0.125546 0.0659696 0.210999 0.0501258 0.210999 0.0703556 0.124208 0.0888446 0.12431 0.0852425 0.210999 0.0703556 0.124208 0.0852425 0.210999 0.0659696 0.210999 0.0888446 0.12431 0.103837 0.210999 0.0852425 0.210999 0.0888446 0.12431 0.110074 0.125546 0.103837 0.210999 0.110074 0.125546 0.120359 0.125546 0.120359 0.210999 0.110074 0.125546 0.120359 0.210999 0.103837 0.210999 0.121237 0.0366569 0.131522 0.0366569 0.13708 0.122111 0.121237 0.0366569 0.13708 0.122111 0.121237 0.122111 0.131522 0.0366569 0.143963 0.0350155 0.13708 0.122111 0.143963 0.0350155 0.15648 0.0350755 0.156354 0.122111 0.143963 0.0350155 0.156354 0.122111 0.13708 0.122111 0.300589 0.308625 0.30948 0.308625 0.305587 0.322303 0.30948 0.308625 0.32179 0.308625 0.317765 0.321395 0.30948 0.308625 0.317765 0.321395 0.305587 0.322303 0.32179 0.308625 0.324879 0.321395 0.317765 0.321395 0.379936 0.325897 0.38705 0.325897 0.38705 0.338668 0.379936 0.325897 0.38705 0.338668 0.379936 0.338668 0.38705 0.325897 0.395335 0.325897 0.395335 0.338668 0.38705 0.325897 0.395335 0.338668 0.38705 0.338668 0.395335 0.325897 0.404225 0.325897 0.408832 0.339445 0.395335 0.325897 0.408832 0.339445 0.395335 0.338668 0.404225 0.325897 0.417501 0.325897 0.408832 0.339445 0.417501 0.325897 0.421401 0.338668 0.408832 0.339445 0.417501 0.325897 0.428515 0.325897 0.428515 0.338668 0.417501 0.325897 0.428515 0.338668 0.421401 0.338668 0.276299 0.325897 0.287652 0.325897 0.283414 0.338668 0.276299 0.325897 0.283414 0.338668 0.276299 0.338668 0.287652 0.325897 0.291728 0.339745 0.283414 0.338668 0.287652 0.325897 0.300589 0.325897 0.305587 0.339575 0.287652 0.325897 0.305587 0.339575 0.291728 0.339745 0.300589 0.325897 0.30948 0.325897 0.305587 0.339575 0.30948 0.325897 0.32179 0.325897 0.317765 0.338668 0.30948 0.325897 0.317765 0.338668 0.305587 0.339575 0.32179 0.325897 0.324879 0.338668 0.317765 0.338668 0.328117 0.325897 0.335232 0.325897 0.335232 0.338668 0.328117 0.325897 0.335232 0.338668 0.328117 0.338668 0.335232 0.325897 0.343517 0.325897 0.343517 0.338668 0.335232 0.325897 0.343517 0.338668 0.335232 0.338668 0.343517 0.325897 0.352407 0.325897 0.357014 0.339445 0.343517 0.325897 0.357014 0.339445 0.343517 0.338668 0.352407 0.325897 0.365683 0.325897 0.357014 0.339445 0.365683 0.325897 0.369583 0.338668 0.357014 0.339445 0.365683 0.325897 0.376697 0.325897 0.376697 0.338668 0.365683 0.325897 0.376697 0.338668 0.369583 0.338668 0.276299 0.308625 0.287652 0.308625 0.283414 0.321395 0.276299 0.308625 0.283414 0.321395 0.276299 0.321395 0.287652 0.308625 0.291741 0.322471 0.283414 0.321395 0.287652 0.308625 0.300589 0.308625 0.305587 0.322303 0.287652 0.308625 0.305587 0.322303 0.291741 0.322471 0.78404 0.210732 0.78859 0.209833 0.78578 0.232241 0.78859 0.209833 0.792912 0.210641 0.78578 0.232241 0.792912 0.210641 0.796804 0.213235 0.78578 0.232241 0.796804 0.213235 0.799307 0.2169 0.78578 0.232241 0.799307 0.2169 0.800206 0.221449 0.78578 0.232241 0.800206 0.221449 0.799398 0.225772 0.78578 0.232241 0.799398 0.225772 0.796804 0.229663 0.78578 0.232241 0.796804 0.229663 0.793139 0.232166 0.78578 0.232241 0.793139 0.232166 0.78859 0.233065 0.78578 0.232241 0.781603 0.230746 0.777873 0.225999 0.78578 0.232241 0.777873 0.225999 0.776974 0.221449 0.78578 0.232241 0.776974 0.221449 0.777781 0.217127 0.78578 0.232241 0.777781 0.217127 0.780376 0.213235 0.78578 0.232241 0.780376 0.213235 0.78404 0.210732 0.78578 0.232241 0.814145 0.210048 0.817064 0.210077 0.811479 0.23249 0.817064 0.210077 0.820141 0.211423 0.811479 0.23249 0.820141 0.211423 0.82418 0.21587 0.811479 0.23249 0.82418 0.21587 0.825552 0.220429 0.811479 0.23249 0.825552 0.220429 0.824866 0.225598 0.811479 0.23249 0.824866 0.225598 0.821948 0.230039 0.811479 0.23249 0.821948 0.230039 0.818036 0.232598 0.811479 0.23249 0.818036 0.232598 0.814145 0.232851 0.811479 0.23249 0.80815 0.231475 0.80409 0.226875 0.811479 0.23249 0.80409 0.226875 0.802733 0.221447 0.811479 0.23249 0.802733 0.221447 0.80324 0.218048 0.811479 0.23249 0.80324 0.218048 0.806343 0.212859 0.811479 0.23249 0.806343 0.212859 0.810255 0.2103 0.811479 0.23249 0.810255 0.2103 0.814145 0.210048 0.811479 0.23249 0.410887 0.205281 0.424809 0.210211 0.404225 0.246731 0.424809 0.210211 0.433383 0.216884 0.404225 0.246731 0.433383 0.216884 0.439953 0.225566 0.404225 0.246731 0.439953 0.225566 0.444122 0.23574 0.404225 0.246731 0.444122 0.23574 0.445331 0.251064 0.404225 0.246731 0.445331 0.251064 0.440063 0.267707 0.404225 0.246731 0.440063 0.267707 0.433514 0.276444 0.404225 0.246731 0.433514 0.276444 0.42497 0.283156 0.404225 0.246731 0.42497 0.283156 0.414933 0.287329 0.404225 0.246731 0.414933 0.287329 0.397563 0.288181 0.404225 0.246731 0.397563 0.288181 0.383642 0.283251 0.404225 0.246731 0.383642 0.283251 0.375068 0.276577 0.404225 0.246731 0.375068 0.276577 0.36848 0.267869 0.404225 0.246731 0.36848 0.267869 0.364329 0.257721 0.404225 0.246731 0.364329 0.257721 0.36312 0.242398 0.404225 0.246731 0.36312 0.242398 0.368388 0.225754 0.404225 0.246731 0.368388 0.225754 0.374937 0.217017 0.404225 0.246731 0.374937 0.217017 0.383481 0.210305 0.404225 0.246731 0.383481 0.210305 0.393501 0.206144 0.404225 0.246731 0.393501 0.206144 0.410887 0.205281 0.404225 0.246731 0.194494 0.202147 0.194169 0.194066 0.204619 0.194066 0.194494 0.202147 0.204619 0.194066 0.205801 0.202147 0.205801 0.202147 0.204619 0.194066 0.215924 0.194066 0.205801 0.202147 0.215924 0.194066 0.213533 0.202147 0.213533 0.202147 0.215924 0.194066 0.218486 0.202147 0.218486 0.202147 0.215924 0.194066 0.222588 0.194066 0.218486 0.202147 0.222588 0.194066 0.222588 0.202147 0.0525782 0.219924 0.050119 0.211844 0.0574009 0.211844 0.0525782 0.219924 0.0574009 0.211844 0.066469 0.219924 0.066469 0.219924 0.0574009 0.211844 0.068905 0.211844 0.066469 0.219924 0.068905 0.211844 0.0785219 0.211844 0.066469 0.219924 0.0785219 0.211844 0.0762636 0.219924 0.0762636 0.219924 0.0785219 0.211844 0.0803659 0.219924 0.194494 0.211035 0.194169 0.202955 0.204619 0.202955 0.194494 0.211035 0.204619 0.202955 0.205801 0.211035 0.205801 0.211035 0.204619 0.202955 0.215924 0.202955 0.205801 0.211035 0.215924 0.202955 0.213533 0.211035 0.213533 0.211035 0.215924 0.202955 0.218486 0.211035 0.218486 0.211035 0.215924 0.202955 0.222588 0.202955 0.218486 0.211035 0.222588 0.202955 0.222588 0.211035 0.083689 0.219924 0.0812301 0.211844 0.0885121 0.211844 0.083689 0.219924 0.0885121 0.211844 0.0975799 0.219924 0.0975799 0.219924 0.0885121 0.211844 0.100016 0.211844 0.0975799 0.219924 0.100016 0.211844 0.109633 0.211844 0.0975799 0.219924 0.109633 0.211844 0.109914 0.219924 0.34331 0.279542 0.328608 0.286837 0.35382 0.267491 0.328608 0.286837 0.317862 0.288252 0.357968 0.257477 0.328608 0.286837 0.357968 0.257477 0.35382 0.267491 0.317862 0.288252 0.302302 0.285382 0.359383 0.246731 0.317862 0.288252 0.359383 0.246731 0.357968 0.257477 0.302302 0.285382 0.356226 0.230471 0.359383 0.246731 0.302302 0.285382 0.288502 0.276091 0.356226 0.230471 0.288502 0.276091 0.279498 0.26299 0.347222 0.217371 0.288502 0.276091 0.347222 0.217371 0.356226 0.230471 0.279498 0.26299 0.333421 0.20808 0.347222 0.217371 0.279498 0.26299 0.276341 0.246731 0.333421 0.20808 0.276341 0.246731 0.277756 0.235984 0.317862 0.20521 0.276341 0.246731 0.317862 0.20521 0.333421 0.20808 0.277756 0.235984 0.281904 0.22597 0.307115 0.206625 0.277756 0.235984 0.307115 0.206625 0.317862 0.20521 0.281904 0.22597 0.292414 0.21392 0.307115 0.206625 0.217495 0.114025 0.229978 0.118002 0.205226 0.116385 0.229978 0.118002 0.198938 0.151543 0.197711 0.122054 0.229978 0.118002 0.197711 0.122054 0.205226 0.116385 0.198938 0.151543 0.193287 0.12943 0.197711 0.122054 0.198938 0.151543 0.192851 0.141146 0.193287 0.12943 0.207081 0.153982 0.216 0.155397 0.194506 0.157578 0.216 0.155397 0.221528 0.158111 0.194506 0.157578 0.221528 0.158111 0.228142 0.164626 0.222856 0.193227 0.221528 0.158111 0.222856 0.193227 0.194506 0.157578 0.228142 0.164626 0.227126 0.188999 0.222856 0.193227 0.228142 0.164626 0.231592 0.178694 0.227126 0.188999 0.206323 0.0732987 0.19384 0.069321 0.218592 0.0709381 0.19384 0.069321 0.22488 0.0357809 0.226107 0.0652698 0.19384 0.069321 0.226107 0.0652698 0.218592 0.0709381 0.22488 0.0357809 0.230531 0.0578928 0.226107 0.0652698 0.22488 0.0357809 0.230967 0.0461777 0.230531 0.0578928 0.216738 0.113341 0.207818 0.111926 0.229312 0.109745 0.207818 0.111926 0.20229 0.109213 0.229312 0.109745 0.20229 0.109213 0.195677 0.102698 0.1995 0.075237 0.20229 0.109213 0.1995 0.075237 0.229312 0.109745 0.195677 0.102698 0.192226 0.08863 0.1995 0.075237</float_array>
                    <technique_common>
                        <accessor count="564" source="#shape0-lib-map-array" stride="2">
                            <param name="U" type="float"/>
                            <param name="V" type="float"/>
                        </accessor>
                    </technique_common>
                </source>
                <vertices id="shape0-lib-vertices">
                    <input semantic="POSITION" source="#shape0-lib-positions"/>
                </vertices>
                <triangles count="188" material="material0">
                    <input offset="0" semantic="VERTEX" source="#shape0-lib-vertices"/>
                    <input offset="1" semantic="COLOR" source="#shape0-lib-vcolor"/>
                    <input offset="2" semantic="NORMAL" source="#shape0-lib-normals"/>
                    <input offset="3" semantic="TEXCOORD" source="#shape0-lib-map"/>
                    <p>49 49 0 0 48 48 0 1 50 50 0 2 41 41 1 3 40 40 1 4 42 42 1 5 38 38 2 6 40 40 2 7 39 39 2 8 36 36 3 9 35 35 3 10 37 37 3 11 33 33 4 12 34 34 4 13 1 1 4 14 33 33 5 15 1 1 5 16 0 0 5 17 34 34 6 18 35 35 6 19 2 2 6 20 34 34 7 21 2 2 7 22 1 1 7 23 35 35 8 24 36 36 8 25 3 3 8 26 35 35 9 27 3 3 9 28 2 2 9 29 36 36 10 30 37 37 10 31 3 3 10 32 37 37 11 33 38 38 11 34 4 4 11 35 37 37 12 36 4 4 12 37 3 3 12 38 38 38 13 39 39 39 13 40 5 5 13 41 38 38 14 42 5 5 14 43 4 4 14 44 39 39 15 45 40 40 15 46 5 5 15 47 40 40 16 48 41 41 16 49 6 6 16 50 40 40 17 51 6 6 17 52 5 5 17 53 41 41 18 54 42 42 18 55 7 7 18 56 41 41 19 57 7 7 19 58 6 6 19 59 42 42 20 60 73 73 20 61 7 7 20 62 73 73 21 63 43 43 21 64 8 8 21 65 73 73 22 66 8 8 22 67 7 7 22 68 43 43 23 69 44 44 23 70 72 72 23 71 43 43 24 72 72 72 24 73 8 8 24 74 44 44 25 75 9 9 25 76 72 72 25 77 44 44 26 78 45 45 26 79 9 9 26 80 45 45 27 81 46 46 27 82 10 10 27 83 45 45 28 84 10 10 28 85 9 9 28 86 46 46 29 87 47 47 29 88 11 11 29 89 46 46 30 90 11 11 30 91 10 10 30 92 47 47 31 93 12 12 31 94 11 11 31 95 47 47 32 96 48 48 32 97 12 12 32 98 48 48 33 99 49 49 33 100 13 13 33 101 48 48 34 102 13 13 34 103 12 12 34 104 49 49 35 105 50 50 35 106 14 14 35 107 49 49 36 108 14 14 36 109 13 13 36 110 50 50 37 111 51 51 37 112 14 14 37 113 51 51 38 114 33 33 38 115 0 0 38 116 51 51 39 117 0 0 39 118 14 14 39 119 15 15 40 120 16 16 40 121 52 52 40 122 16 16 41 123 17 17 41 124 53 53 41 125 16 16 42 126 53 53 42 127 52 52 42 128 17 17 43 129 54 54 43 130 53 53 43 131 17 17 44 132 18 18 44 133 55 55 44 134 17 17 45 135 55 55 45 136 54 54 45 137 18 18 46 138 19 19 46 139 56 56 46 140 18 18 47 141 56 56 47 142 55 55 47 143 19 19 48 144 20 20 48 145 57 57 48 146 19 19 49 147 57 57 49 148 56 56 49 149 20 20 50 150 21 21 50 151 57 57 50 152 21 21 51 153 58 58 51 154 57 57 51 155 21 21 52 156 22 22 52 157 59 59 52 158 21 21 53 159 59 59 53 160 58 58 53 161 22 22 54 162 23 23 54 163 60 60 54 164 22 22 55 165 60 60 55 166 59 59 55 167 23 23 56 168 61 61 56 169 60 60 56 170 23 23 57 171 24 24 57 172 62 62 57 173 23 23 58 174 62 62 58 175 61 61 58 176 24 24 59 177 25 25 59 178 62 62 59 179 25 25 60 180 26 26 60 181 63 63 60 182 25 25 61 183 63 63 61 184 62 62 61 185 26 26 62 186 64 64 62 187 63 63 62 188 26 26 63 189 27 27 63 190 65 65 63 191 26 26 64 192 65 65 64 193 64 64 64 194 27 27 65 195 28 28 65 196 66 66 65 197 27 27 66 198 66 66 66 199 65 65 66 200 28 28 67 201 29 29 67 202 67 67 67 203 28 28 68 204 67 67 68 205 66 66 68 206 29 29 69 207 30 30 69 208 67 67 69 209 30 30 70 210 68 68 70 211 67 67 70 212 30 30 71 213 31 31 71 214 69 69 71 215 30 30 72 216 69 69 72 217 68 68 72 218 31 31 73 219 32 32 73 220 70 70 73 221 31 31 74 222 70 70 74 223 69 69 74 224 32 32 75 225 71 71 75 226 70 70 75 227 32 32 76 228 15 15 76 229 52 52 76 230 32 32 77 231 52 52 77 232 71 71 77 233 14 14 78 234 0 0 78 235 72 72 78 236 0 0 79 237 1 1 79 238 72 72 79 239 1 1 80 240 2 2 80 241 72 72 80 242 2 2 81 243 3 3 81 244 72 72 81 245 3 3 82 246 4 4 82 247 72 72 82 248 4 4 83 249 5 5 83 250 72 72 83 251 5 5 84 252 6 6 84 253 72 72 84 254 6 6 85 255 7 7 85 256 72 72 85 257 7 7 86 258 8 8 86 259 72 72 86 260 9 9 87 261 10 10 87 262 72 72 87 263 10 10 88 264 11 11 88 265 72 72 88 266 11 11 89 267 12 12 89 268 72 72 89 269 12 12 90 270 13 13 90 271 72 72 90 272 13 13 91 273 14 14 91 274 72 72 91 275 33 33 92 276 51 51 92 277 73 73 92 278 51 51 93 279 50 50 93 280 73 73 93 281 50 50 94 282 48 48 94 283 73 73 94 284 48 48 95 285 47 47 95 286 73 73 95 287 47 47 96 288 46 46 96 289 73 73 96 290 46 46 97 291 45 45 97 292 73 73 97 293 45 45 98 294 44 44 98 295 73 73 98 296 44 44 99 297 43 43 99 298 73 73 99 299 42 42 100 300 40 40 100 301 73 73 100 302 40 40 101 303 38 38 101 304 73 73 101 305 38 38 102 306 37 37 102 307 73 73 102 308 37 37 103 309 35 35 103 310 73 73 103 311 35 35 104 312 34 34 104 313 73 73 104 314 34 34 105 315 33 33 105 316 73 73 105 317 52 52 106 318 53 53 106 319 74 74 106 320 53 53 107 321 54 54 107 322 74 74 107 323 54 54 108 324 55 55 108 325 74 74 108 326 55 55 109 327 56 56 109 328 74 74 109 329 56 56 110 330 57 57 110 331 74 74 110 332 57 57 111 333 58 58 111 334 74 74 111 335 58 58 112 336 59 59 112 337 74 74 112 338 59 59 113 339 60 60 113 340 74 74 113 341 60 60 114 342 61 61 114 343 74 74 114 344 61 61 115 345 62 62 115 346 74 74 115 347 62 62 116 348 63 63 116 349 74 74 116 350 63 63 117 351 64 64 117 352 74 74 117 353 64 64 118 354 65 65 118 355 74 74 118 356 65 65 119 357 66 66 119 358 74 74 119 359 66 66 120 360 67 67 120 361 74 74 120 362 67 67 121 363 68 68 121 364 74 74 121 365 68 68 122 366 69 69 122 367 74 74 122 368 69 69 123 369 70 70 123 370 74 74 123 371 70 70 124 372 71 71 124 373 74 74 124 374 71 71 125 375 52 52 125 376 74 74 125 377 82 82 126 378 75 75 126 379 76 76 126 380 82 82 127 381 76 76 127 382 83 83 127 383 83 83 128 384 76 76 128 385 77 77 128 386 83 83 129 387 77 77 129 388 84 84 129 389 84 84 130 390 77 77 130 391 85 85 130 392 85 85 131 393 77 77 131 394 78 78 131 395 85 85 132 396 78 78 132 397 86 86 132 398 86 86 133 399 78 78 133 400 79 79 133 401 86 86 134 402 79 79 134 403 87 87 134 404 87 87 135 405 79 79 135 406 80 80 135 407 87 87 136 408 80 80 136 409 81 81 136 410 87 87 137 411 81 81 137 412 88 88 137 413 88 88 138 414 81 81 138 415 89 89 138 416 97 97 139 417 90 90 139 418 91 91 139 419 97 97 140 420 91 91 140 421 98 98 140 422 98 98 141 423 91 91 141 424 92 92 141 425 98 98 142 426 92 92 142 427 99 99 142 428 99 99 143 429 92 92 143 430 100 100 143 431 100 100 144 432 92 92 144 433 93 93 144 434 100 100 145 435 93 93 145 436 101 101 145 437 101 101 146 438 93 93 146 439 94 94 146 440 101 101 147 441 94 94 147 442 102 102 147 443 102 102 148 444 94 94 148 445 95 95 148 446 102 102 149 447 95 95 149 448 96 96 149 449 102 102 150 450 96 96 150 451 103 103 150 452 26 26 151 453 25 25 151 454 27 27 151 455 25 25 152 456 24 24 152 457 28 28 152 458 25 25 153 459 28 28 153 460 27 27 153 461 24 24 154 462 23 23 154 463 29 29 154 464 24 24 155 465 29 29 155 466 28 28 155 467 23 23 156 468 30 30 156 469 29 29 156 470 23 23 157 471 22 22 157 472 30 30 157 473 22 22 158 474 21 21 158 475 31 31 158 476 22 22 159 477 31 31 159 478 30 30 159 479 21 21 160 480 32 32 160 481 31 31 160 482 21 21 161 483 20 20 161 484 32 32 161 485 20 20 162 486 19 19 162 487 15 15 162 488 20 20 163 489 15 15 163 490 32 32 163 491 19 19 164 492 18 18 164 493 16 16 164 494 19 19 165 495 16 16 165 496 15 15 165 497 18 18 166 498 17 17 166 499 16 16 166 500 76 76 167 501 75 75 167 502 77 77 167 503 75 75 168 504 81 81 168 505 78 78 168 506 75 75 169 507 78 78 169 508 77 77 169 509 81 81 170 510 79 79 170 511 78 78 170 512 81 81 171 513 80 80 171 514 79 79 171 515 83 83 172 516 84 84 172 517 82 82 172 518 84 84 173 519 85 85 173 520 82 82 173 521 85 85 174 522 86 86 174 523 89 89 174 524 85 85 175 525 89 89 175 526 82 82 175 527 86 86 176 528 88 88 176 529 89 89 176 530 86 86 177 531 87 87 177 532 88 88 177 533 91 91 178 534 90 90 178 535 92 92 178 536 90 90 179 537 96 96 179 538 93 93 179 539 90 90 180 540 93 93 180 541 92 92 180 542 96 96 181 543 94 94 181 544 93 93 181 545 96 96 182 546 95 95 182 547 94 94 182 548 98 98 183 549 99 99 183 550 97 97 183 551 99 99 184 552 100 100 184 553 97 97 184 554 100 100 185 555 101 101 185 556 103 103 185 557 100 100 186 558 103 103 186 559 97 97 186 560 101 101 187 561 102 102 187 562 103 103 187 563</p>
                </triangles>
            </mesh>
        </geometry>
    </library_geometries>
    <library_visual_scenes>
        <visual_scene id="VisualSceneNode" name="VisualScene">
            <node id="node" name="node">
                <instance_geometry url="#shape0-lib">
                    <bind_material>
                        <technique_common>
                            <instance_material symbol="material0" target="#material0">
                                <bind_vertex_input semantic="UVSET0" input_semantic="TEXCOORD"/>
                            </instance_material>
                        </technique_common>
                    </bind_material>
                </instance_geometry>
            </node>
        </visual_scene>
    </library_visual_scenes>
    <scene>
        <instance_visual_scene url="#VisualSceneNode"/>
    </scene>
</COLLADA>
