<?xml version="1.0" encoding="UTF-8"?>
<COLLADA xmlns="http://www.collada.org/2005/11/COLLADASchema" version="1.4.1">
    <asset>
        <contributor>
            <author>VCGLab</author>
            <authoring_tool>VCGLib | MeshLab</authoring_tool>
        </contributor>
        <created>Thu Jul 3 01:49:16 2025 GMT</created>
        <modified>Thu Jul 3 01:49:16 2025 GMT</modified>
        <up_axis>Y_UP</up_axis>
    </asset>
    <library_images>
        <image id="texture0" name="texture0">
            <init_from>./image/shelf_books.png</init_from>
        </image>
    </library_images>
    <library_materials>
        <material id="material0" name="material0">
            <instance_effect url="#material0-fx"/>
        </material>
    </library_materials>
    <library_effects>
        <effect id="material0-fx">
            <profile_COMMON>
                <newparam sid="texture0-surface">
                    <surface type="2D">
                        <init_from>texture0</init_from>
                        <format>R8G8B8</format>
                    </surface>
                </newparam>
                <newparam sid="texture0-sampler">
                    <sampler2D>
                        <source>texture0-surface</source>
                        <minfilter>LINEAR</minfilter>
                        <magfilter>LINEAR</magfilter>
                    </sampler2D>
                </newparam>
                <technique sid="common">
                    <blinn>
                        <diffuse>
                            <texture texture="texture0-sampler" texcoord="UVSET0"/>
                        </diffuse>
                    </blinn>
                </technique>
            </profile_COMMON>
        </effect>
    </library_effects>
    <library_geometries>
        <geometry id="shape0-lib" name="shape0">
            <mesh>
                <source id="shape0-lib-positions" name="position">
                    <float_array id="shape0-lib-positions-array" count="108">-0.0845966 0.0963053 -0.0537915 0.0871968 0.0966355 -0.0537915 0.0871244 0.0744161 -0.0537915 -0.0846691 0.0740861 -0.0537915 -0.084599 0.0955711 0.0659779 0.0871948 0.0960392 0.0659297 0.0871267 0.0751503 0.0659779 -0.0846671 0.0746823 0.0659298 -0.0846772 0.0716173 -0.0537915 0.0871163 0.0719473 -0.0537915 0.0870435 0.0497281 -0.0537915 -0.0847499 0.0493979 -0.0537915 -0.0846798 0.0708831 0.0659779 0.0871163 0.0719473 0.0633915 0.087046 0.0504623 0.0659779 -0.0847479 0.0499942 0.0659297 0.0871118 0.0706733 0.0663145 -0.084758 0.0469293 -0.0537915 0.0870354 0.0472593 -0.0537915 0.0869627 0.0250399 -0.0537915 -0.0848305 0.0247099 -0.0537915 -0.0847605 0.0461949 0.0659778 0.0870335 0.046663 0.0659297 0.0869654 0.0257743 0.0659779 -0.0848305 0.0247099 0.0633915 -0.0848263 0.0259838 0.0663145 -0.0848386 0.0222411 -0.0537915 0.0869548 0.022571 -0.0537915 0.0868821 0.00035185 -0.0537915 -0.0849113 2.18792e-05 -0.0537915 -0.0848412 0.0215068 0.0659779 0.0869548 0.022571 0.0633915 0.0868846 0.00108607 0.0659779 -0.0849113 2.18792e-05 0.0633915 -0.084907 0.00129591 0.0663145 0.0869504 0.021297 0.0663145</float_array>
                    <technique_common>
                        <accessor count="36" source="#shape0-lib-positions-array" stride="3">
                            <param name="X" type="float"/>
                            <param name="Y" type="float"/>
                            <param name="Z" type="float"/>
                        </accessor>
                    </technique_common>
                </source>
                <source id="shape0-lib-normals" name="normal">
                    <float_array id="shape0-lib-normals-array" count="168">0 0 -1 0 0 -1 -0.00192202 0.999986 0.00498051 -0.00272298 0.999978 0.00612982 0.00192089 -0.999986 0.00498013 0.00272247 -0.999978 0.00613032 -0.000286276 0.00230685 0.999997 0.000286792 -0.00230472 0.999997 0 0 -1 0 0 -1 0.000336792 0.916708 0.399559 -0.00192091 0.999998 0 -0.00610202 0.999963 0.00612971 0.00192204 -0.999986 0.00498051 0.00272298 -0.999978 0.00612978 -0.000235101 -0.0166521 0.999861 -0.00196221 -0.00230094 0.999995 0 0 -1 0 0 -1 -0.000335418 -0.91672 0.399531 -0.00192089 0.999986 0.00498092 -0.002723 0.999978 0.00613187 0.00192091 -0.999998 0 0.00610298 -0.999963 0.00613112 0.00196216 0.00230202 0.999995 0.000234921 0.0166542 0.999861 0 0 -1 0 0 -1 -0.000336691 -0.916709 0.399555 0.000336584 0.916717 0.399538 -0.00192032 0.999998 0 -0.00610177 0.999963 0.00613023 0.00192074 -0.999998 0 0.00610197 -0.999963 0.0061299 0.00193917 -0.0166621 0.999859 -0.00193909 0.0166614 0.999859 0.999995 -0.00325828 4.41763e-07 0.999995 -0.00326037 6.62803e-08 -0.999995 0.003263 -2.15188e-07 -0.999995 0.00326145 6.20982e-08 0.999995 -0.00327081 0 0.999995 -0.00327641 -1.00397e-06 0.999995 -0.00325764 0.00010948 -0.999995 0.00327202 -1.83926e-06 -0.999995 0.00325786 7.01078e-07 0.999995 -0.00327202 -2.14567e-06 0.999995 -0.00326182 -3.15675e-07 -0.999995 0.00325814 7.42231e-06 -0.999995 0.00326297 -7.06325e-07 -0.999995 0.00325903 0 0.999995 -0.00325933 7.8227e-05 0.999995 -0.00327206 -5.94309e-07 0.999995 -0.00326875 0 -0.999995 0.00325903 3.7503e-05 -0.999995 0.00327205 -1.52639e-06 -0.999995 0.00326354 0</float_array>
                    <technique_common>
                        <accessor count="56" source="#shape0-lib-normals-array" stride="3">
                            <param name="X" type="float"/>
                            <param name="Y" type="float"/>
                            <param name="Z" type="float"/>
                        </accessor>
                    </technique_common>
                </source>
                <source id="shape0-lib-vcolor" name="vcolor">
                    <float_array id="shape0-lib-vcolor-array" count="144">1 1 1 1 1 1 1 1 1 1 1 1 1 1 1 1 1 1 1 1 1 1 1 1 1 1 1 1 1 1 1 1 1 1 1 1 1 1 1 1 1 1 1 1 1 1 1 1 1 1 1 1 1 1 1 1 1 1 1 1 1 1 1 1 1 1 1 1 1 1 1 1 1 1 1 1 1 1 1 1 1 1 1 1 1 1 1 1 1 1 1 1 1 1 1 1 1 1 1 1 1 1 1 1 1 1 1 1 1 1 1 1 1 1 1 1 1 1 1 1 1 1 1 1 1 1 1 1 1 1 1 1 1 1 1 1 1 1 1 1 1 1 1 1</float_array>
                    <technique_common>
                        <accessor count="36" source="#shape0-lib-vcolor-array" stride="4">
                            <param name="R" type="float"/>
                            <param name="G" type="float"/>
                            <param name="B" type="float"/>
                            <param name="A" type="float"/>
                        </accessor>
                    </technique_common>
                </source>
                <source id="shape0-lib-map" name="map">
                    <float_array id="shape0-lib-map-array" count="336">0.429681 0.402562 0.454534 0.40261 0.454524 0.399362 0.429681 0.402562 0.454524 0.399362 0.42967 0.399314 0.550455 0.508132 0.550455 0.50282 0.562045 0.50282 0.550455 0.508132 0.562045 0.50282 0.562045 0.508132 0.51858 0.514507 0.51858 0.509195 0.53017 0.509195 0.51858 0.514507 0.53017 0.509195 0.53017 0.514507 0.411097 0.978666 0.483359 0.978883 0.483387 0.987516 0.411097 0.978666 0.483387 0.987516 0.411125 0.987299 0.429669 0.398953 0.454523 0.399001 0.454512 0.395754 0.429669 0.398953 0.454512 0.395754 0.429659 0.395705 0.483354 0.97746 0.411091 0.976934 0.483352 0.976878 0.50583 0.514507 0.50583 0.509195 0.51742 0.509195 0.50583 0.514507 0.51742 0.509195 0.51742 0.514507 0.51858 0.508132 0.51858 0.50282 0.53017 0.50282 0.51858 0.508132 0.53017 0.50282 0.53017 0.508132 0.411063 0.968301 0.483325 0.968518 0.483352 0.976878 0.411063 0.968301 0.483352 0.976878 0.411091 0.976934 0.429657 0.395344 0.454511 0.395393 0.4545 0.392145 0.429657 0.395344 0.4545 0.392145 0.429647 0.392097 0.411028 0.957628 0.483291 0.958154 0.41103 0.95821 0.384705 0.514507 0.384705 0.509195 0.396295 0.509195 0.384705 0.514507 0.396295 0.509195 0.396295 0.514507 0.50583 0.565507 0.50583 0.560195 0.51742 0.560195 0.50583 0.565507 0.51742 0.560195 0.51742 0.565507 0.41103 0.95821 0.483291 0.958154 0.483319 0.966787 0.41103 0.95821 0.483319 0.966787 0.411057 0.966569 0.429646 0.391736 0.454499 0.391784 0.454489 0.388536 0.429646 0.391736 0.454489 0.388536 0.429635 0.388488 0.410994 0.947263 0.483257 0.947789 0.410996 0.947846 0.483286 0.95673 0.411023 0.956205 0.483284 0.956148 0.49308 0.508132 0.49308 0.50282 0.50467 0.50282 0.49308 0.508132 0.50467 0.50282 0.50467 0.508132 0.50583 0.508132 0.50583 0.50282 0.51742 0.50282 0.50583 0.508132 0.51742 0.50282 0.51742 0.508132 0.410996 0.947846 0.483257 0.947789 0.483284 0.956148 0.410996 0.947846 0.483284 0.956148 0.411023 0.956205 0.635165 0.794372 0.594078 0.794132 0.594078 0.80026 0.635165 0.794372 0.594078 0.80026 0.635148 0.800043 0.635165 0.977809 0.594078 0.978049 0.594078 0.971921 0.635165 0.977809 0.594078 0.971921 0.635148 0.972138 0.594078 0.793451 0.634342 0.793451 0.635165 0.787563 0.594078 0.793451 0.635165 0.787563 0.594078 0.787323 0.634342 0.793451 0.635345 0.793048 0.635165 0.787563 0.635165 0.971 0.594078 0.97124 0.594078 0.965112 0.635165 0.971 0.594078 0.965112 0.635148 0.965329 0.635165 0.780754 0.594078 0.780514 0.594078 0.786642 0.635165 0.780754 0.594078 0.786642 0.635148 0.786425 0.635165 0.964191 0.634342 0.958303 0.635345 0.958706 0.635165 0.964191 0.594078 0.964431 0.594078 0.958303 0.635165 0.964191 0.594078 0.958303 0.634342 0.958303 0.635165 0.773945 0.634342 0.779833 0.635345 0.779431 0.635165 0.773945 0.594078 0.773705 0.594078 0.779833 0.635165 0.773945 0.594078 0.779833 0.634342 0.779833 0.635165 0.957382 0.634342 0.951494 0.635345 0.951897 0.635165 0.957382 0.594078 0.957622 0.594078 0.951494 0.635165 0.957382 0.594078 0.951494 0.634342 0.951494</float_array>
                    <technique_common>
                        <accessor count="168" source="#shape0-lib-map-array" stride="2">
                            <param name="U" type="float"/>
                            <param name="V" type="float"/>
                        </accessor>
                    </technique_common>
                </source>
                <vertices id="shape0-lib-vertices">
                    <input semantic="POSITION" source="#shape0-lib-positions"/>
                </vertices>
                <triangles count="56" material="material0">
                    <input offset="0" semantic="VERTEX" source="#shape0-lib-vertices"/>
                    <input offset="1" semantic="COLOR" source="#shape0-lib-vcolor"/>
                    <input offset="2" semantic="NORMAL" source="#shape0-lib-normals"/>
                    <input offset="3" semantic="TEXCOORD" source="#shape0-lib-map"/>
                    <p>0 0 0 0 1 1 0 1 2 2 0 2 0 0 1 3 2 2 1 4 3 3 1 5 5 5 2 6 1 1 2 7 0 0 2 8 5 5 3 9 0 0 3 10 4 4 3 11 7 7 4 12 3 3 4 13 2 2 4 14 7 7 5 15 2 2 5 16 6 6 5 17 7 7 6 18 6 6 6 19 5 5 6 20 7 7 7 21 5 5 7 22 4 4 7 23 8 8 8 24 9 9 8 25 10 10 8 26 8 8 9 27 10 10 9 28 11 11 9 29 13 13 10 30 12 12 10 31 16 16 10 32 13 13 11 33 9 9 11 34 8 8 11 35 13 13 12 36 8 8 12 37 12 12 12 38 15 15 13 39 11 11 13 40 10 10 13 41 15 15 14 42 10 10 14 43 14 14 14 44 15 15 15 45 14 14 15 46 16 16 15 47 15 15 16 48 16 16 16 49 12 12 16 50 17 17 17 51 18 18 17 52 19 19 17 53 17 17 18 54 19 19 18 55 20 20 18 56 24 24 19 57 23 23 19 58 25 25 19 59 22 22 20 60 18 18 20 61 17 17 20 62 22 22 21 63 17 17 21 64 21 21 21 65 24 24 22 66 20 20 22 67 19 19 22 68 24 24 23 69 19 19 23 70 23 23 23 71 25 25 24 72 23 23 24 73 22 22 24 74 25 25 25 75 22 22 25 76 21 21 25 77 26 26 26 78 27 27 26 79 28 28 26 80 26 26 27 81 28 28 27 82 29 29 27 83 33 33 28 84 32 32 28 85 34 34 28 86 31 31 29 87 30 30 29 88 35 35 29 89 31 31 30 90 27 27 30 91 26 26 30 92 31 31 31 93 26 26 31 94 30 30 31 95 33 33 32 96 29 29 32 97 28 28 32 98 33 33 33 99 28 28 33 100 32 32 33 101 34 34 34 102 32 32 34 103 35 35 34 104 34 34 35 105 35 35 35 106 30 30 35 107 6 6 36 108 2 2 36 109 1 1 36 110 6 6 37 111 1 1 37 112 5 5 37 113 4 4 38 114 0 0 38 115 3 3 38 116 4 4 39 117 3 3 39 118 7 7 39 119 9 9 40 120 13 13 40 121 14 14 40 122 9 9 41 123 14 14 41 124 10 10 41 125 13 13 42 126 16 16 42 127 14 14 42 128 12 12 43 129 8 8 43 130 11 11 43 131 12 12 44 132 11 11 44 133 15 15 44 134 23 23 45 135 19 19 45 136 18 18 45 137 23 23 46 138 18 18 46 139 22 22 46 140 21 21 47 141 24 24 47 142 25 25 47 143 21 21 48 144 17 17 48 145 20 20 48 146 21 21 49 147 20 20 49 148 24 24 49 149 32 32 50 150 31 31 50 151 35 35 50 152 32 32 51 153 28 28 51 154 27 27 51 155 32 32 52 156 27 27 52 157 31 31 52 158 30 30 53 159 33 33 53 160 34 34 53 161 30 30 54 162 26 26 54 163 29 29 54 164 30 30 55 165 29 29 55 166 33 33 55 167</p>
                </triangles>
            </mesh>
        </geometry>
    </library_geometries>
    <library_visual_scenes>
        <visual_scene id="VisualSceneNode" name="VisualScene">
            <node id="node" name="node">
                <instance_geometry url="#shape0-lib">
                    <bind_material>
                        <technique_common>
                            <instance_material symbol="material0" target="#material0">
                                <bind_vertex_input semantic="UVSET0" input_semantic="TEXCOORD"/>
                            </instance_material>
                        </technique_common>
                    </bind_material>
                </instance_geometry>
            </node>
        </visual_scene>
    </library_visual_scenes>
    <scene>
        <instance_visual_scene url="#VisualSceneNode"/>
    </scene>
</COLLADA>
