<?xml version="1.0" encoding="UTF-8"?>
<COLLADA xmlns="http://www.collada.org/2005/11/COLLADASchema" version="1.4.1">
    <asset>
        <contributor>
            <author>VCGLab</author>
            <authoring_tool>VCGLib | MeshLab</authoring_tool>
        </contributor>
        <created>Thu Jul 3 01:56:42 2025 GMT</created>
        <modified>Thu Jul 3 01:56:42 2025 GMT</modified>
        <up_axis>Y_UP</up_axis>
    </asset>
    <library_images>
        <image id="texture0" name="texture0">
            <init_from>./image/shelf_items.png</init_from>
        </image>
    </library_images>
    <library_materials>
        <material id="material0" name="material0">
            <instance_effect url="#material0-fx"/>
        </material>
    </library_materials>
    <library_effects>
        <effect id="material0-fx">
            <profile_COMMON>
                <newparam sid="texture0-surface">
                    <surface type="2D">
                        <init_from>texture0</init_from>
                        <format>R8G8B8</format>
                    </surface>
                </newparam>
                <newparam sid="texture0-sampler">
                    <sampler2D>
                        <source>texture0-surface</source>
                        <minfilter>LINEAR</minfilter>
                        <magfilter>LINEAR</magfilter>
                    </sampler2D>
                </newparam>
                <technique sid="common">
                    <blinn>
                        <diffuse>
                            <texture texture="texture0-sampler" texcoord="UVSET0"/>
                        </diffuse>
                    </blinn>
                </technique>
            </profile_COMMON>
        </effect>
    </library_effects>
    <library_geometries>
        <geometry id="shape0-lib" name="shape0">
            <mesh>
                <source id="shape0-lib-positions" name="position">
                    <float_array id="shape0-lib-positions-array" count="204">-0.00780072 0.155268 -0.0515652 -0.0355169 0.155268 -0.0366169 -0.0466104 0.155268 -0.0200142 -0.0506626 0.155268 0.00783051 -0.0355169 0.155268 0.0357569 -0.0189142 0.155268 0.0468504 0.00893008 0.155268 0.0509027 0.0368569 0.155268 0.0357569 0.0479504 0.155268 0.0191542 0.0520026 0.155268 -0.0086904 0.0368569 0.155268 -0.0366169 0.0202541 0.155268 -0.0477104 -0.000450738 0.169724 -0.0498029 -0.0445155 0.169724 0.0195 0.00179113 0.169724 0.0489429 0.0467135 0.169724 0.0174287 -0.0187034 0.170021 -0.0469721 -0.0350398 0.170021 -0.0360154 -0.0459393 0.170021 -0.0196412 -0.0497431 0.170021 -0.00034226 -0.0349154 0.170021 0.0352797 -0.0185412 0.170021 0.0461793 0.0200433 0.170021 0.0461122 0.0363794 0.170021 0.0351557 0.0510832 0.170021 -0.000517763 0.0472122 0.170021 -0.0198032 0.0362553 0.170021 -0.0361398 0.0198813 0.170021 -0.0470392 -0.0296181 0.1654 -0.0232892 -0.0208629 0.16606 0.0303932 0.0209063 0.16606 0.0312594 0.0376913 0.16606 -0.00699914 0.0205206 0.165864 -0.0288581 0.00067007 0.155268 -0.000429998 -0.00603053 -0.000563873 -0.0423222 -0.0336817 -0.000572058 -0.0253125 -0.0413816 -0.000563576 0.00608044 -0.0242126 -0.000572057 0.0339215 0.00718008 -0.000563577 0.0416216 0.0350214 -0.000572067 0.0244529 0.025553 -0.000572065 -0.0347813 -0.00915383 0.157523 -0.0417045 -0.0289913 0.157439 -0.0300914 -0.0413 0.157526 -0.00789408 -0.0339528 0.157539 0.0242644 -0.00679382 0.157526 0.04154 0.025365 0.157539 0.0341924 0.04264 0.157526 0.00703377 0.0352925 0.157539 -0.0251249 -0.0105465 0.132136 -0.0561528 -0.0388784 0.132764 -0.0399785 -0.0550293 0.132943 -0.0119637 -0.0452624 0.13281 0.0324103 -0.0108639 0.132942 0.0552693 0.0335104 0.13281 0.0455025 0.0563692 0.132942 0.0111041 0.0523426 0.132764 -0.0218335 0.0334127 0.132375 -0.0469864 -0.00972854 0.0213655 -0.0557855 -0.0458295 0.0213623 -0.0322037 -0.0552643 0.0219919 0.00933528 -0.0311036 0.0213623 0.0460696 0.0104355 0.021992 0.0555043 0.0471696 0.0213623 0.0313439 0.0566042 0.021992 -0.0101957 0.032444 0.0213623 -0.0469295 0.0425708 -0.000505732 -0.00726135 0.0162351 0.157457 -0.0390318</float_array>
                    <technique_common>
                        <accessor count="68" source="#shape0-lib-positions-array" stride="3">
                            <param name="X" type="float"/>
                            <param name="Y" type="float"/>
                            <param name="Z" type="float"/>
                        </accessor>
                    </technique_common>
                </source>
                <source id="shape0-lib-normals" name="normal">
                    <float_array id="shape0-lib-normals-array" count="384">-0.1473 0.193147 -0.97005 -0.473302 -0.0765614 -0.877567 -0.556267 0.0518069 -0.829387 -0.830453 0.0494819 -0.554887 -0.831321 0.0518063 -0.553372 -0.988407 0.0485962 -0.143842 -0.980089 -0.0459277 -0.193175 -0.94695 0.198872 0.252459 -0.878989 -0.0110519 0.476715 -0.85361 0.0515706 0.518353 -0.554887 0.0494861 0.830453 -0.553376 0.0518043 0.831319 -0.143848 0.0485964 0.988406 -0.133393 0.068164 0.988716 0.146808 0.203722 0.967959 0.475452 -0.0734805 0.876668 0.556263 0.0518011 0.82939 0.830453 0.0494887 0.554887 0.857243 0.13273 0.497511 0.984482 0.101334 0.143272 0.969515 -0.0697075 0.234908 0.966559 0.167708 -0.194007 0.876667 -0.0734785 -0.475454 0.829387 0.0518084 -0.556268 0.554885 0.0494818 -0.830454 0.553373 0.0518022 -0.831321 0.135963 0.0484528 -0.989528 0.133746 0.0526405 -0.989617 -0.150021 0.962653 0.225374 -0.04469 0.973528 0.224157 0.0489036 0.97584 0.212941 0.179329 0.946758 0.267376 0.308869 0.928616 0.205601 0.283535 0.957332 0.0558845 0.186261 0.981899 -0.0343744 0.21907 0.963888 -0.151422 0.175626 0.948444 -0.263836 0.0480756 0.967113 -0.249762 -0.0560619 0.963888 -0.260341 -0.176542 0.948445 -0.263223 -0.212351 0.967113 -0.139995 -0.261976 0.963888 -0.0478363 -0.310747 0.948444 0.0623743 -0.19592 0.971776 0.131402 -0.201517 0.967987 0.149642 0.00994109 0.985118 0.171592 -0.021174 0.993946 -0.107812 0.117186 0.989996 0.0785822 -0.100401 0.992236 -0.0733971 0.184365 0.982848 -0.00437787 -0.141796 0.989893 -0.0023082 0.310654 0.91645 -0.252217 0 -1 0 0 -1 0 0 -1 0 0 -1 0 0 -1 0 0 -1 0 0 -1 0 0 -1 0 0 -1 0 0 -1 0 0 -1 0 0 -1 0 -0.431409 0.464 -0.773686 -0.444462 0.48092 -0.755758 -0.758507 0.480374 -0.440351 -0.759468 0.494175 -0.423082 -0.869934 0.453906 0.192832 -0.865261 0.460778 0.197505 -0.490721 0.466782 0.735736 -0.468102 0.488674 0.73626 0.19283 0.453904 0.869935 0.197511 0.460788 0.865254 0.735739 0.466777 0.490721 0.736263 0.488676 0.468094 0.875434 0.470754 -0.109571 0.82064 0.539883 -0.187286 0.7208 0.423116 -0.549017 0.490652 0.550286 -0.675608 0.184105 0.409467 -0.893556 0.0925906 0.488671 -0.867541 -0.546868 -0.0068139 -0.837191 -0.496061 -0.0296101 -0.867782 -0.475925 -0.492505 -0.728652 -0.446931 -0.521571 -0.726786 -0.866127 0.0191865 -0.499456 -0.974502 -0.0403084 -0.220729 -0.848588 -0.495569 -0.18523 -0.828165 -0.522435 -0.202989 -0.975679 0.0433173 0.21488 -0.835161 -0.0388602 0.548631 -0.731424 -0.491556 0.472644 -0.730048 -0.514282 0.450049 -0.553277 0.0317302 0.832393 -0.220726 -0.0403085 0.974503 -0.185227 -0.495566 0.84859 -0.202992 -0.522441 0.82816 0.214878 0.0433174 0.97568 0.54863 -0.0388601 0.835162 0.472642 -0.491555 0.731425 0.450037 -0.514291 0.730049 0.832394 0.0317303 0.553275 0.974504 -0.0403087 0.220722 0.844558 -0.502785 0.184198 0.830256 -0.521579 0.196548 0.992273 0.025416 -0.121441 0.835416 -0.025541 -0.549025 0.799037 -0.00728061 -0.601238 0.731426 -0.491555 -0.472641 0.730064 -0.514112 -0.450218 0.205512 -0.00229464 -0.978652 0.20414 -0.00173857 -0.97894 0.178802 -0.4927 -0.851632 0.197986 -0.521774 -0.829791 -0.000979468 -0.999995 0.00301601 -0.00186915 -0.999995 -0.00253656 0.000475871 -1 -0.000838794 0.000583412 -1 -0.000664403 0.000761625 -1 0.000456992 0.00071035 -1 0.000673588 0.00154751 0.99995 0.00986331 -0.00132578 0.999988 -0.00467165 0.000881371 0.999999 -0.000593374 0.000854576 0.999999 -0.00061462 -0.00062884 0.999999 -0.00103861 -0.000858858 0.999999 -0.00100993 -0.00549346 0.999984 0.00164667</float_array>
                    <technique_common>
                        <accessor count="128" source="#shape0-lib-normals-array" stride="3">
                            <param name="X" type="float"/>
                            <param name="Y" type="float"/>
                            <param name="Z" type="float"/>
                        </accessor>
                    </technique_common>
                </source>
                <source id="shape0-lib-vcolor" name="vcolor">
                    <float_array id="shape0-lib-vcolor-array" count="272">1 1 1 1 1 1 1 1 1 1 1 1 1 1 1 1 1 1 1 1 1 1 1 1 1 1 1 1 1 1 1 1 1 1 1 1 1 1 1 1 1 1 1 1 1 1 1 1 1 1 1 1 1 1 1 1 1 1 1 1 1 1 1 1 1 1 1 1 1 1 1 1 1 1 1 1 1 1 1 1 1 1 1 1 1 1 1 1 1 1 1 1 1 1 1 1 1 1 1 1 1 1 1 1 1 1 1 1 1 1 1 1 1 1 1 1 1 1 1 1 1 1 1 1 1 1 1 1 1 1 1 1 1 1 1 1 1 1 1 1 1 1 1 1 1 1 1 1 1 1 1 1 1 1 1 1 1 1 1 1 1 1 1 1 1 1 1 1 1 1 1 1 1 1 1 1 1 1 1 1 1 1 1 1 1 1 1 1 1 1 1 1 1 1 1 1 1 1 1 1 1 1 1 1 1 1 1 1 1 1 1 1 1 1 1 1 1 1 1 1 1 1 1 1 1 1 1 1 1 1 1 1 1 1 1 1 1 1 1 1 1 1 1 1 1 1 1 1 1 1 1 1 1 1 1 1 1 1 1 1 1 1 1 1 1 1 1 1 1 1 1 1</float_array>
                    <technique_common>
                        <accessor count="68" source="#shape0-lib-vcolor-array" stride="4">
                            <param name="R" type="float"/>
                            <param name="G" type="float"/>
                            <param name="B" type="float"/>
                            <param name="A" type="float"/>
                        </accessor>
                    </technique_common>
                </source>
                <source id="shape0-lib-map" name="map">
                    <float_array id="shape0-lib-map-array" count="768">0.631002 0.548092 0.634313 0.542381 0.638068 0.548092 0.638068 0.548092 0.634313 0.542381 0.644057 0.542381 0.638068 0.548092 0.644057 0.542381 0.644057 0.548092 0.617948 0.554946 0.617948 0.549235 0.623937 0.549235 0.617948 0.554946 0.623937 0.549235 0.623937 0.554946 0.623937 0.554946 0.623937 0.549235 0.634276 0.549235 0.623937 0.554946 0.634276 0.549235 0.631002 0.554946 0.631002 0.554946 0.634276 0.549235 0.638068 0.554946 0.638068 0.554946 0.634276 0.549235 0.644057 0.549235 0.638068 0.554946 0.644057 0.549235 0.644057 0.554946 0.590533 0.548092 0.590533 0.542381 0.596523 0.542381 0.590533 0.548092 0.596523 0.542381 0.596523 0.548092 0.596523 0.548092 0.596523 0.542381 0.606862 0.542381 0.596523 0.548092 0.606862 0.542381 0.603588 0.548092 0.603588 0.548092 0.606862 0.542381 0.610653 0.548092 0.610653 0.548092 0.606862 0.542381 0.616642 0.542381 0.610653 0.548092 0.616642 0.542381 0.616642 0.548092 0.645362 0.554946 0.645362 0.549235 0.651352 0.549235 0.645362 0.554946 0.651352 0.549235 0.651352 0.554946 0.651352 0.554946 0.651352 0.549235 0.661691 0.549235 0.651352 0.554946 0.661691 0.549235 0.658417 0.554946 0.658417 0.554946 0.661691 0.549235 0.665482 0.554946 0.665482 0.554946 0.661691 0.549235 0.671472 0.549235 0.665482 0.554946 0.671472 0.549235 0.671472 0.554946 0.617948 0.548092 0.617948 0.542381 0.623937 0.542381 0.617948 0.548092 0.623937 0.542381 0.623937 0.548092 0.623937 0.548092 0.623937 0.542381 0.634313 0.542381 0.623937 0.548092 0.634313 0.542381 0.631002 0.548092 0.59569 0.479056 0.600897 0.475587 0.600835 0.481528 0.600897 0.475587 0.607306 0.474869 0.600835 0.481528 0.607306 0.474869 0.613168 0.475601 0.616655 0.483272 0.613168 0.475601 0.618366 0.479084 0.616655 0.483272 0.618366 0.479084 0.621835 0.484289 0.616655 0.483272 0.621835 0.484289 0.623048 0.490426 0.616655 0.483272 0.623048 0.490426 0.621258 0.496622 0.616655 0.483272 0.621258 0.496622 0.618339 0.501758 0.613884 0.500315 0.618339 0.501758 0.613133 0.505228 0.613884 0.500315 0.613133 0.505228 0.606724 0.505945 0.613884 0.500315 0.606724 0.505945 0.600861 0.505213 0.60049 0.500545 0.600861 0.505213 0.595663 0.501731 0.60049 0.500545 0.595663 0.501731 0.592549 0.496084 0.60049 0.500545 0.592549 0.496084 0.590981 0.490388 0.595152 0.488259 0.590981 0.490388 0.592209 0.484254 0.595152 0.488259 0.592209 0.484254 0.59569 0.479056 0.600835 0.481528 0.592209 0.484254 0.600835 0.481528 0.595152 0.488259 0.607306 0.474869 0.616655 0.483272 0.600835 0.481528 0.616655 0.483272 0.621258 0.496622 0.600835 0.481528 0.621258 0.496622 0.613884 0.500315 0.600835 0.481528 0.613884 0.500315 0.606724 0.505945 0.600835 0.481528 0.606724 0.505945 0.60049 0.500545 0.600835 0.481528 0.60049 0.500545 0.592549 0.496084 0.600835 0.481528 0.592549 0.496084 0.595152 0.488259 0.600835 0.481528 0.638405 0.474163 0.647588 0.475186 0.641283 0.490407 0.647588 0.475186 0.652933 0.478758 0.641283 0.490407 0.652933 0.478758 0.657568 0.487573 0.641283 0.490407 0.657568 0.487573 0.656504 0.496712 0.641283 0.490407 0.656504 0.496712 0.652933 0.502057 0.641283 0.490407 0.652933 0.502057 0.644118 0.506692 0.641283 0.490407 0.644118 0.506692 0.634978 0.505628 0.641283 0.490407 0.634978 0.505628 0.629633 0.502057 0.641283 0.490407 0.629633 0.502057 0.624998 0.493242 0.641283 0.490407 0.624998 0.493242 0.626062 0.484103 0.641283 0.490407 0.626062 0.484103 0.629633 0.478758 0.641283 0.490407 0.629633 0.478758 0.638405 0.474163 0.641283 0.490407 0.161274 0.561254 0.161588 0.557563 0.165547 0.557627 0.161274 0.561254 0.165547 0.557627 0.164167 0.561241 0.131604 0.561241 0.130224 0.557627 0.134155 0.55765 0.131604 0.561241 0.134155 0.55765 0.134664 0.561249 0.134664 0.561249 0.134155 0.55765 0.140452 0.55764 0.134664 0.561249 0.140452 0.55764 0.13916 0.561236 0.119462 0.561241 0.118082 0.557627 0.122013 0.55765 0.119462 0.561241 0.122013 0.55765 0.122522 0.561249 0.122522 0.561249 0.122013 0.55765 0.128309 0.55764 0.122522 0.561249 0.128309 0.55764 0.127017 0.561236 0.143746 0.561241 0.142366 0.557627 0.146298 0.55765 0.143746 0.561241 0.146298 0.55765 0.146807 0.561249 0.146807 0.561249 0.146298 0.55765 0.150873 0.557627 0.146807 0.561249 0.150873 0.557627 0.151302 0.561236 0.151302 0.561236 0.150873 0.557627 0.153405 0.557627 0.155889 0.561241 0.155481 0.557572 0.157788 0.561241 0.157788 0.561241 0.155481 0.557572 0.161588 0.557563 0.157788 0.561241 0.161588 0.557563 0.161274 0.561254 0.161588 0.557563 0.161491 0.541336 0.165547 0.541485 0.161588 0.557563 0.165547 0.541485 0.165547 0.557627 0.164167 0.538113 0.165547 0.541485 0.161491 0.541336 0.164167 0.538113 0.161491 0.541336 0.161058 0.5381 0.130224 0.557627 0.131391 0.541354 0.134155 0.55765 0.134155 0.55765 0.131391 0.541354 0.137132 0.541415 0.13676 0.538104 0.137132 0.541415 0.131391 0.541354 0.13676 0.538104 0.131391 0.541354 0.132459 0.538116 0.134155 0.55765 0.137132 0.541415 0.140452 0.55764 0.140452 0.55764 0.137132 0.541415 0.141263 0.541485 0.139883 0.538113 0.141263 0.541485 0.137132 0.541415 0.139883 0.538113 0.137132 0.541415 0.13676 0.538104 0.118082 0.557627 0.119249 0.541354 0.122013 0.55765 0.122013 0.55765 0.119249 0.541354 0.12499 0.541415 0.124617 0.538104 0.12499 0.541415 0.119249 0.541354 0.124617 0.538104 0.119249 0.541354 0.120317 0.538116 0.122013 0.55765 0.12499 0.541415 0.128309 0.55764 0.128309 0.55764 0.12499 0.541415 0.12912 0.541485 0.12774 0.538113 0.12912 0.541485 0.12499 0.541415 0.12774 0.538113 0.12499 0.541415 0.124617 0.538104 0.142366 0.557627 0.143533 0.541354 0.146298 0.55765 0.146298 0.55765 0.143533 0.541354 0.149275 0.541415 0.148902 0.538104 0.149275 0.541415 0.143533 0.541354 0.148902 0.538104 0.143533 0.541354 0.144601 0.538116 0.146298 0.55765 0.149275 0.541415 0.150873 0.557627 0.150873 0.557627 0.149275 0.541415 0.153405 0.541485 0.150873 0.557627 0.153405 0.541485 0.153405 0.557627 0.152025 0.538113 0.153405 0.541485 0.149275 0.541415 0.152025 0.538113 0.149275 0.541415 0.148902 0.538104 0.155481 0.557572 0.155676 0.541354 0.161491 0.541336 0.155481 0.557572 0.161491 0.541336 0.161588 0.557563 0.161058 0.5381 0.161491 0.541336 0.155676 0.541354 0.161058 0.5381 0.155676 0.541354 0.156744 0.538116 0.183372 0.586732 0.187497 0.587661 0.189565 0.591302 0.188826 0.595359 0.185237 0.597632 0.189565 0.591302 0.185237 0.597632 0.181128 0.596688 0.189565 0.591302 0.181128 0.596688 0.178855 0.593099 0.189565 0.591302 0.178855 0.593099 0.179799 0.588991 0.189565 0.591302 0.179799 0.588991 0.183372 0.586732 0.189565 0.591302 0.0641022 0.592856 0.0667921 0.594343 0.0609422 0.593424 0.0667921 0.594343 0.0683398 0.597239 0.0609422 0.593424 0.0683398 0.597239 0.0674265 0.601414 0.0609422 0.593424 0.0674265 0.601414 0.0638964 0.603696 0.0609422 0.593424 0.0638964 0.603696 0.0597217 0.602783 0.0609422 0.593424 0.0597217 0.602783 0.0574391 0.599253 0.0609422 0.593424 0.0574391 0.599253 0.0583523 0.595078 0.0609422 0.593424</float_array>
                    <technique_common>
                        <accessor count="384" source="#shape0-lib-map-array" stride="2">
                            <param name="U" type="float"/>
                            <param name="V" type="float"/>
                        </accessor>
                    </technique_common>
                </source>
                <vertices id="shape0-lib-vertices">
                    <input semantic="POSITION" source="#shape0-lib-positions"/>
                </vertices>
                <triangles count="128" material="material0">
                    <input offset="0" semantic="VERTEX" source="#shape0-lib-vertices"/>
                    <input offset="1" semantic="COLOR" source="#shape0-lib-vcolor"/>
                    <input offset="2" semantic="NORMAL" source="#shape0-lib-normals"/>
                    <input offset="3" semantic="TEXCOORD" source="#shape0-lib-map"/>
                    <p>12 12 0 0 0 0 0 1 16 16 0 2 16 16 1 3 0 0 1 4 1 1 1 5 16 16 2 6 1 1 2 7 17 17 2 8 17 17 3 9 1 1 3 10 2 2 3 11 17 17 4 12 2 2 4 13 18 18 4 14 18 18 5 15 2 2 5 16 3 3 5 17 18 18 6 18 3 3 6 19 19 19 6 20 19 19 7 21 3 3 7 22 13 13 7 23 13 13 8 24 3 3 8 25 4 4 8 26 13 13 9 27 4 4 9 28 20 20 9 29 20 20 10 30 4 4 10 31 5 5 10 32 20 20 11 33 5 5 11 34 21 21 11 35 21 21 12 36 5 5 12 37 6 6 12 38 21 21 13 39 6 6 13 40 14 14 13 41 14 14 14 42 6 6 14 43 22 22 14 44 22 22 15 45 6 6 15 46 7 7 15 47 22 22 16 48 7 7 16 49 23 23 16 50 23 23 17 51 7 7 17 52 8 8 17 53 23 23 18 54 8 8 18 55 15 15 18 56 15 15 19 57 8 8 19 58 9 9 19 59 15 15 20 60 9 9 20 61 24 24 20 62 24 24 21 63 9 9 21 64 25 25 21 65 25 25 22 66 9 9 22 67 10 10 22 68 25 25 23 69 10 10 23 70 26 26 23 71 26 26 24 72 10 10 24 73 11 11 24 74 26 26 25 75 11 11 25 76 27 27 25 77 27 27 26 78 11 11 26 79 0 0 26 80 27 27 27 81 0 0 27 82 12 12 27 83 26 26 28 84 27 27 28 85 32 32 28 86 27 27 29 87 12 12 29 88 32 32 29 89 12 12 30 90 16 16 30 91 28 28 30 92 16 16 31 93 17 17 31 94 28 28 31 95 17 17 32 96 18 18 32 97 28 28 32 98 18 18 33 99 19 19 33 100 28 28 33 101 19 19 34 102 13 13 34 103 28 28 34 104 13 13 35 105 20 20 35 106 29 29 35 107 20 20 36 108 21 21 36 109 29 29 36 110 21 21 37 111 14 14 37 112 29 29 37 113 14 14 38 114 22 22 38 115 30 30 38 116 22 22 39 117 23 23 39 118 30 30 39 119 23 23 40 120 15 15 40 121 30 30 40 122 15 15 41 123 24 24 41 124 31 31 41 125 24 24 42 126 25 25 42 127 31 31 42 128 25 25 43 129 26 26 43 130 32 32 43 131 25 25 44 132 32 32 44 133 31 31 44 134 12 12 45 135 28 28 45 136 32 32 45 137 28 28 46 138 13 13 46 139 32 32 46 140 13 13 47 141 29 29 47 142 32 32 47 143 29 29 48 144 14 14 48 145 32 32 48 146 14 14 49 147 30 30 49 148 32 32 49 149 30 30 50 150 15 15 50 151 32 32 50 152 15 15 51 153 31 31 51 154 32 32 51 155 0 0 52 156 11 11 52 157 33 33 52 158 11 11 53 159 10 10 53 160 33 33 53 161 10 10 54 162 9 9 54 163 33 33 54 164 9 9 55 165 8 8 55 166 33 33 55 167 8 8 56 168 7 7 56 169 33 33 56 170 7 7 57 171 6 6 57 172 33 33 57 173 6 6 58 174 5 5 58 175 33 33 58 176 5 5 59 177 4 4 59 178 33 33 59 179 4 4 60 180 3 3 60 181 33 33 60 182 3 3 61 183 2 2 61 184 33 33 61 185 2 2 62 186 1 1 62 187 33 33 62 188 1 1 63 189 0 0 63 190 33 33 63 191 41 41 64 192 49 49 64 193 50 50 64 194 41 41 65 195 50 50 65 196 42 42 65 197 42 42 66 198 50 50 66 199 51 51 66 200 42 42 67 201 51 51 67 202 43 43 67 203 43 43 68 204 51 51 68 205 52 52 68 206 43 43 69 207 52 52 69 208 44 44 69 209 44 44 70 210 52 52 70 211 53 53 70 212 44 44 71 213 53 53 71 214 45 45 71 215 45 45 72 216 53 53 72 217 54 54 72 218 45 45 73 219 54 54 73 220 46 46 73 221 46 46 74 222 54 54 74 223 55 55 74 224 46 46 75 225 55 55 75 226 47 47 75 227 47 47 76 228 55 55 76 229 56 56 76 230 47 47 77 231 56 56 77 232 48 48 77 233 48 48 78 234 56 56 78 235 57 57 78 236 48 48 79 237 57 57 79 238 67 67 79 239 67 67 80 240 57 57 80 241 49 49 80 242 67 67 81 243 49 49 81 244 41 41 81 245 49 49 82 246 58 58 82 247 59 59 82 248 49 49 83 249 59 59 83 250 50 50 83 251 35 35 84 252 59 59 84 253 58 58 84 254 35 35 85 255 58 58 85 256 34 34 85 257 50 50 86 258 59 59 86 259 51 51 86 260 51 51 87 261 59 59 87 262 60 60 87 263 36 36 88 264 60 60 88 265 59 59 88 266 36 36 89 267 59 59 89 268 35 35 89 269 51 51 90 270 60 60 90 271 52 52 90 272 52 52 91 273 60 60 91 274 61 61 91 275 37 37 92 276 61 61 92 277 60 60 92 278 37 37 93 279 60 60 93 280 36 36 93 281 52 52 94 282 61 61 94 283 53 53 94 284 53 53 95 285 61 61 95 286 62 62 95 287 38 38 96 288 62 62 96 289 61 61 96 290 38 38 97 291 61 61 97 292 37 37 97 293 53 53 98 294 62 62 98 295 54 54 98 296 54 54 99 297 62 62 99 298 63 63 99 299 39 39 100 300 63 63 100 301 62 62 100 302 39 39 101 303 62 62 101 304 38 38 101 305 54 54 102 306 63 63 102 307 55 55 102 308 55 55 103 309 63 63 103 310 64 64 103 311 66 66 104 312 64 64 104 313 63 63 104 314 66 66 105 315 63 63 105 316 39 39 105 317 55 55 106 318 64 64 106 319 56 56 106 320 56 56 107 321 64 64 107 322 65 65 107 323 56 56 108 324 65 65 108 325 57 57 108 326 40 40 109 327 65 65 109 328 64 64 109 329 40 40 110 330 64 64 110 331 66 66 110 332 57 57 111 333 65 65 111 334 58 58 111 335 57 57 112 336 58 58 112 337 49 49 112 338 34 34 113 339 58 58 113 340 65 65 113 341 34 34 114 342 65 65 114 343 40 40 114 344 34 34 115 345 40 40 115 346 66 66 115 347 39 39 116 348 38 38 116 349 66 66 116 350 38 38 117 351 37 37 117 352 66 66 117 353 37 37 118 354 36 36 118 355 66 66 118 356 36 36 119 357 35 35 119 358 66 66 119 359 35 35 120 360 34 34 120 361 66 66 120 362 41 41 121 363 42 42 121 364 67 67 121 365 42 42 122 366 43 43 122 367 67 67 122 368 43 43 123 369 44 44 123 370 67 67 123 371 44 44 124 372 45 45 124 373 67 67 124 374 45 45 125 375 46 46 125 376 67 67 125 377 46 46 126 378 47 47 126 379 67 67 126 380 47 47 127 381 48 48 127 382 67 67 127 383</p>
                </triangles>
            </mesh>
        </geometry>
    </library_geometries>
    <library_visual_scenes>
        <visual_scene id="VisualSceneNode" name="VisualScene">
            <node id="node" name="node">
                <instance_geometry url="#shape0-lib">
                    <bind_material>
                        <technique_common>
                            <instance_material symbol="material0" target="#material0">
                                <bind_vertex_input semantic="UVSET0" input_semantic="TEXCOORD"/>
                            </instance_material>
                        </technique_common>
                    </bind_material>
                </instance_geometry>
            </node>
        </visual_scene>
    </library_visual_scenes>
    <scene>
        <instance_visual_scene url="#VisualSceneNode"/>
    </scene>
</COLLADA>
