<?xml version="1.0" encoding="UTF-8"?>
<COLLADA xmlns="http://www.collada.org/2005/11/COLLADASchema" version="1.4.1">
    <asset>
        <contributor>
            <author>VCGLab</author>
            <authoring_tool>VCGLib | MeshLab</authoring_tool>
        </contributor>
        <created>Thu Jul 3 02:05:01 2025 GMT</created>
        <modified>Thu Jul 3 02:05:01 2025 GMT</modified>
        <up_axis>Y_UP</up_axis>
    </asset>
    <library_images>
        <image id="texture0" name="texture0">
            <init_from>./image/shelf_items.png</init_from>
        </image>
    </library_images>
    <library_materials>
        <material id="material0" name="material0">
            <instance_effect url="#material0-fx"/>
        </material>
    </library_materials>
    <library_effects>
        <effect id="material0-fx">
            <profile_COMMON>
                <newparam sid="texture0-surface">
                    <surface type="2D">
                        <init_from>texture0</init_from>
                        <format>R8G8B8</format>
                    </surface>
                </newparam>
                <newparam sid="texture0-sampler">
                    <sampler2D>
                        <source>texture0-surface</source>
                        <minfilter>LINEAR</minfilter>
                        <magfilter>LINEAR</magfilter>
                    </sampler2D>
                </newparam>
                <technique sid="common">
                    <blinn>
                        <diffuse>
                            <texture texture="texture0-sampler" texcoord="UVSET0"/>
                        </diffuse>
                    </blinn>
                </technique>
            </profile_COMMON>
        </effect>
    </library_effects>
    <library_geometries>
        <geometry id="shape0-lib" name="shape0">
            <mesh>
                <source id="shape0-lib-positions" name="position">
                    <float_array id="shape0-lib-positions-array" count="435">-0.0501877 0.000420742 -0.0385872 -0.0515384 0.0174282 -0.0411939 -0.0518544 0.0343153 -0.0431368 -0.0508793 0.0500405 -0.042188 -0.0455738 0.0741863 -0.0393103 -0.0417296 0.0983041 -0.0352751 -0.0197051 0.0983041 -0.0352751 -0.00073729 0.0983041 -0.0352751 0.0188451 0.0983041 -0.0352751 0.0408696 0.0983041 -0.0352751 0.0433431 0.0812407 -0.0384476 0.0486019 0.0565074 -0.0414387 0.0509944 0.0343153 -0.0431368 0.0506784 0.0174282 -0.0411939 0.0493277 0.000420742 -0.0385872 0.0242876 0.000214391 -0.0385872 -0.000816743 0.000285678 -0.0385872 -0.0251476 0.000214391 -0.0385872 -0.0132604 0.0283899 -0.0428017 0.0251028 0.0283731 -0.0428025 0.0115161 0.0570438 -0.0413361 -0.0232038 0.0655127 -0.0404971 0.00971117 0.0812407 -0.0384476 -0.0501877 0.000420742 -0.0176383 -0.0519896 0.0254401 -0.0188065 -0.0456413 0.0742356 -0.0169443 -0.0417296 0.0986928 -0.0152795 -0.0102208 0.0988392 -0.000414928 0.0188451 0.0988392 -0.000414928 0.0408696 0.0986928 -0.0152795 0.0511378 0.0256904 -0.0188022 0.0493277 0.000420742 -0.0176383 -0.0501877 0.000420742 0.00353 -0.0519856 0.0251472 0.0144949 0.0493277 0.000420742 0.00353 -0.0130004 0.000240989 -0.0070546 -0.0501877 0.000420742 0.0247505 -0.0501776 0.0538849 0.00614942 -0.04421 0.0824082 0.00867756 -0.0417286 0.0988285 0.00708669 0.0408745 0.0988218 0.00708491 0.0440368 0.0783056 -0.00413607 0.0492121 0.0541357 0.00614353 0.0511347 0.0253923 0.014496 0.0493277 0.000420742 0.0247505 0.0242876 0.000214391 0.00354733 -0.0130004 0.000240989 0.0247505 -0.0501877 0.000420742 0.0457228 -0.0519913 0.0246255 0.0477835 -0.0508793 0.0495475 0.0455166 -0.0474574 0.0660024 0.0414657 -0.0442031 0.082405 0.0355168 -0.0417296 0.0988075 0.0296535 -0.0197051 0.0988075 0.0296535 -0.00073729 0.0988075 0.0296535 0.0188451 0.0988075 0.0296535 0.0408696 0.0988075 0.0296535 0.0449829 0.0736106 0.0390709 0.0500193 0.0495475 0.0455166 0.0510933 0.0238857 0.0478538 0.0493277 0.000420742 0.0457228 -0.000816743 0.000285678 0.0457228 -0.0251476 0.000214391 0.0457228 -0.0132648 0.0166547 0.0476013 0.0245866 0.000771037 0.0464186 -0.0261004 0.0427993 0.046578 0.0124312 0.0428074 0.04658 -0.0218063 0.0724769 0.0393252 0.0101923 0.0724809 0.0393235 -0.000429969 0.12493 -0.060865 -0.0155243 0.12493 -0.0588778 -0.02959 0.12493 -0.0530516 -0.0416685 0.12493 -0.0437835 -0.0509366 0.12493 -0.031705 -0.0567628 0.12493 -0.0176393 -0.05875 0.12493 -0.002545 -0.0567628 0.12493 0.0125493 -0.0509366 0.12493 0.026615 -0.0416685 0.12493 0.0386935 -0.02959 0.12493 0.0479616 -0.0155243 0.12493 0.0537878 -0.000429969 0.12493 0.055775 0.0146643 0.12493 0.0537878 0.02873 0.12493 0.0479616 0.0408085 0.12493 0.0386935 0.0500766 0.12493 0.026615 0.0559028 0.12493 0.0125493 0.05789 0.12493 -0.002545 0.0559028 0.12493 -0.0176393 0.0500766 0.12493 -0.031705 0.0408085 0.12493 -0.0437835 0.02873 0.12493 -0.0530516 0.0146643 0.12493 -0.0588778 -0.01015 0.096985 -0.014695 0.008075 0.096985 -0.014695 0.008075 0.096985 0.00596 -0.01015 0.096985 0.00596 -0.01015 0.126145 -0.014695 0.008075 0.126145 -0.014695 0.008075 0.126145 0.00596 -0.01015 0.126145 0.00596 -0.000456818 0.134396 -0.0601562 -0.0153668 0.134396 -0.0581862 -0.0292586 0.134396 -0.0524245 -0.0411862 0.134396 -0.0432633 -0.0503362 0.134396 -0.0313273 -0.0560851 0.134396 -0.0174299 -0.0580412 0.134396 -0.00251838 -0.0560713 0.134396 0.0123916 -0.0503093 0.134396 0.0262838 -0.0411483 0.134396 0.0382113 -0.0292125 0.134396 0.0473611 -0.0153151 0.134396 0.05311 -0.000403139 0.134396 0.0550662 0.0145067 0.134396 0.0530962 0.0283987 0.134396 0.0473344 0.0403262 0.134396 0.0381734 0.0494762 0.134396 0.0262374 0.0552251 0.134396 0.0123399 0.0571812 0.134396 -0.00257156 0.0552112 0.134396 -0.0174816 0.0494494 0.134396 -0.0313738 0.0402884 0.134396 -0.0433012 0.0283525 0.134396 -0.0524511 0.0144551 0.134396 -0.0582001 -0.00480448 0.127691 -0.050194 -0.0371471 0.127923 -0.0315845 -0.0477909 0.127715 0.00263216 -0.0252259 0.127837 0.0376837 0.0104825 0.127837 0.0434344 0.0397989 0.127837 0.0222506 0.0460671 0.127923 -0.00797358 0.0339331 0.127837 -0.0349851 0.00967266 0.11577 -0.0431457 -0.0169238 0.11619 -0.0413963 -0.0259018 0.111 -0.0175159 -0.0423231 0.11619 -0.00768658 -0.0362825 0.11577 0.0190197 -0.0157236 0.110716 0.0220966 0.0414194 0.115773 -0.00338434 0.0225535 0.111079 -0.0211869 0.00946035 0.111285 0.0266511 0.0260455 0.111121 0.0122682 -0.00406328 0.11017 -0.0254629 -0.000429969 0.127968 -0.002545</float_array>
                    <technique_common>
                        <accessor count="145" source="#shape0-lib-positions-array" stride="3">
                            <param name="X" type="float"/>
                            <param name="Y" type="float"/>
                            <param name="Z" type="float"/>
                        </accessor>
                    </technique_common>
                </source>
                <source id="shape0-lib-normals" name="normal">
                    <float_array id="shape0-lib-normals-array" count="834">0.00182568 -0.151357 -0.988478 -0.00121496 -0.147432 -0.989071 0.000433955 -0.148112 -0.98897 -8.56813e-05 -0.148337 -0.988937 -0.000420365 -0.148035 -0.988982 -0.00113987 -0.148015 -0.988984 0.00124927 -0.151596 -0.988442 -0.00894699 -0.114459 -0.993388 0.0134601 -0.114537 -0.993328 0.0282884 0.0584549 -0.997889 0.0189497 0.0670045 -0.997573 -0.009636 0.059386 -0.998189 1.41479e-06 0.0510785 -0.998695 -0.00203822 0.0501144 -0.998741 -0.0296451 0.073083 -0.996885 -0.00625973 0.119695 -0.992791 0.0050089 0.118901 -0.992894 0 0.118534 -0.99295 -0.00101305 0.119848 -0.992792 0 0.16502 -0.98629 0.00824596 0.156404 -0.987659 0 0.157268 -0.987556 -0.020253 0.170753 -0.985106 0 0.182792 -0.983152 0 0.182792 -0.983152 0 0.182792 -0.983152 -0.99742 -0.0715782 0.00551257 -0.996861 -0.0791689 0 -0.999713 -0.020194 -0.0129229 -0.998451 0.0547049 0.0101424 -0.998006 0.06088 0.0166606 -0.976856 0.213869 -0.00341891 -0.976623 0.214938 -0.00291806 -0.987412 0.158137 -0.00307404 -0.987442 0.157949 -0.00332774 0.0029758 0.999865 -0.0161587 0 0.999811 -0.0194354 0 0.999882 -0.0153494 0 0.999882 -0.0153494 0 0.999882 -0.0153494 -0.00646896 0.99979 -0.019435 0 0.999882 -0.0153494 0.98871 0.149669 -0.0071852 0.989578 0.143969 -0.00279863 0.978085 0.208197 -0.00196377 0.978019 0.208503 -0.0021504 0.998364 0.0554973 0.0137864 0.994151 0.107744 -0.00737936 0.999711 -0.0202091 -0.0130542 0.997444 -0.0714486 0 0.996926 -0.0779031 0.00829107 0.00824054 -0.999966 0 0.00824054 -0.999966 0 -0.000279642 -0.999999 -0.00152527 -0.00283962 -0.999996 0 0.00292989 -0.999996 -0.000285162 -0.00483366 -0.999988 0 -0.00824048 -0.999958 0.00401793 -0.997383 -0.0722923 -0.000514427 -0.997416 -0.0718354 0 -0.998014 0.0629827 0.000675619 -0.978553 0.205704 -0.0109473 -0.988786 0.149335 -0.00086318 -0.98749 0.157607 0.00489368 -0.00178629 0.99998 -0.00606555 0.00275641 0.99998 -0.00576789 0.988238 0.152922 -0.00109942 0.997757 0.0669402 0.000691278 0.997392 -0.0721752 0 0.997442 -0.0714737 -0.000547937 0.00824054 -0.999966 0 -0.00483366 -0.999988 0 -0.997367 -0.0725192 0 0.997392 -0.0721752 0 0.00824054 -0.999966 0 -0.000713317 -1 0 -0.00483366 -0.999988 0 -0.00483366 -0.999988 0 -0.997243 -0.0741951 -0.00133409 -0.997367 -0.0725192 0 -0.998973 0.0433885 -0.0130245 -0.998012 0.0630234 0.000816264 -0.978789 0.204806 0.00511971 -0.980862 0.194704 0.000273957 -0.978887 0.204335 0.00528868 -0.988815 0.149148 9.62928e-05 -0.98877 0.149443 0.000270529 0 0.999999 0.00105582 -0.000120972 1 0.000929055 0 0.999999 0.00105582 0 0.999999 0.00105582 0 0.999999 0.00105582 0 1 0.00063286 0.000433314 0.999999 0.00105582 0.98718 0.159555 -0.00428015 0.988355 0.152168 0.000311813 0.977712 0.209948 0.00140306 0.978572 0.205866 0.00392815 0.999108 0.0421016 0.00314209 0.997931 0.0629372 -0.0131246 0.997181 -0.0750327 0 0.997329 -0.0730162 -0.00205926 -0.0137881 -0.999819 0.013078 0.00824054 -0.999966 0 0.0193513 -0.999771 -0.00911161 0.00664284 -0.999894 0.0129364 0.00292989 -0.999996 0.000428752 -0.00824054 -0.999966 0 -0.00483362 -0.99998 -0.00406787 -0.000930042 -0.112858 0.993611 -0.0129678 -0.0857819 0.99623 0.000333303 -0.113759 0.993508 -0.0246094 -0.132427 0.990887 0.0266836 -0.0924016 0.995364 0.0141797 0.0460561 0.998838 -5.97689e-05 0.0390808 0.999236 0.0337076 0.00590999 0.999414 -0.0405288 -0.015555 0.999057 -0.0177678 0.0913583 0.99566 0.0118193 0.0911847 0.995764 0.0221813 0.234313 0.971908 0.0218577 0.2347 0.971822 -9.98702e-05 0.237538 0.971378 2.12718e-05 0.237398 0.971413 -0.0183956 0.255106 0.966738 -0.00066003 0.237498 0.971388 -0.00800542 0.342342 0.939541 -0.00654001 0.345244 0.93849 0 0.336604 0.941646 5.99249e-06 0.344787 0.938681 0 0.344792 0.938679 0 0.344785 0.938682 -0.00454514 0.349444 0.936946 0 0.344785 0.938682 -0.130171 0.0736698 -0.988751 -0.130624 0.0744061 -0.988636 -0.381644 0.0736674 -0.921369 -0.38205 0.0744015 -0.921142 -0.607105 0.0736721 -0.791199 -0.607439 0.0744085 -0.790873 -0.791199 0.0736726 -0.607105 -0.791438 0.0744078 -0.606704 -0.921369 0.0736702 -0.381643 -0.921496 0.0744081 -0.381193 -0.988751 0.0736716 -0.130171 -0.988757 0.0744058 -0.129706 -0.98875 0.0736745 0.130171 -0.988637 0.0744043 0.13062 -0.921369 0.0736731 0.381643 -0.921141 0.074408 0.38205 -0.791199 0.0736707 0.607105 -0.790873 0.0744092 0.60744 -0.607105 0.073672 0.791199 -0.606706 0.0744042 0.791437 -0.381643 0.0736722 0.921369 -0.381195 0.0744074 0.921496 -0.130171 0.0736744 0.988751 -0.129705 0.0744098 0.988757 0.130172 0.0736727 0.988751 0.130624 0.074408 0.988636 0.381643 0.0736726 0.921369 0.38205 0.0744063 0.921142 0.607105 0.0736725 0.791199 0.607438 0.074406 0.790875 0.791199 0.0736716 0.607105 0.791438 0.0744076 0.606704 0.921369 0.0736712 0.381643 0.921496 0.0744097 0.381192 0.988751 0.0736716 0.130171 0.988757 0.0744028 0.129707 0.988751 0.073673 -0.130171 0.988636 0.0744056 -0.130622 0.921369 0.0736736 -0.381643 0.921142 0.0744068 -0.382049 0.791199 0.073671 -0.607105 0.790875 0.0744049 -0.607438 0.607105 0.0736716 -0.791199 0.606705 0.0744044 -0.791437 0.381643 0.0736709 -0.921369 0.381197 0.0744013 -0.921495 0.130172 0.0736685 -0.988751 0.129703 0.0744074 -0.988757 0 -1 0 0 -1 0 0 0 -1 0 0 -1 1 0 0 1 0 0 0 0 1 0 0 1 -1 0 0 -1 0 0 0 1 0 0 1 0 0.520468 0.851148 0.0682743 0.57081 0.817612 -0.0754154 0.467427 0.862512 -0.193869 0.358339 0.8921 -0.275228 0.339839 0.913913 -0.221974 0.331202 0.838833 -0.432046 0.202971 0.84738 -0.490663 0.0587687 0.892099 -0.448002 0.0688405 0.90141 -0.42746 -0.0713081 0.838832 -0.539701 -0.203427 0.84738 -0.490475 -0.275224 0.892102 -0.358337 -0.253581 0.901411 -0.350934 -0.432049 0.838832 -0.331202 -0.490667 0.847377 -0.202973 -0.479252 0.875423 -0.0628694 -0.437147 0.895064 -0.0881102 -0.527081 0.846957 0.0696397 -0.417366 0.892099 0.173105 -0.428273 0.883541 0.189571 -0.43174 0.838833 0.331602 -0.323047 0.847381 0.421409 -0.158086 0.910477 0.382153 -0.156813 0.907061 0.390705 -0.0702656 0.841506 0.535658 0.0765616 0.811391 0.579468 0.193848 0.862544 0.467377 0.294426 0.875424 0.383336 0.215416 0.906513 0.363083 0.421945 0.846958 0.323458 0.369121 0.916752 0.152693 0.438329 0.887564 0.141763 0.482458 -0.873613 0.0635167 0.412274 -0.894912 0.17077 0.414548 -0.899202 0.13995 0.352938 -0.895596 0.270817 0.261862 -0.902754 0.341267 0.270857 -0.906952 0.322607 0.172294 -0.892914 0.415956 0.0578759 -0.896322 0.439611 -0.0538362 -0.910977 0.408928 -0.0533546 -0.911084 0.408754 -0.167481 -0.899145 0.404336 -0.265657 -0.899757 0.346213 -0.272527 -0.897377 0.347048 -0.389597 -0.871117 0.298947 -0.449582 -0.873612 0.186223 -0.454233 -0.888874 0.0598008 -0.428575 -0.899706 0.0827883 -0.484248 -0.872605 -0.0637524 -0.40502 -0.898784 -0.167765 -0.402376 -0.893218 -0.200637 -0.348389 -0.898422 -0.267327 -0.278904 -0.888874 -0.363478 -0.290647 -0.906491 -0.306265 -0.186913 -0.872605 -0.451248 -0.0569608 -0.899755 -0.432662 -0.0436521 -0.89218 -0.449566 0.0640987 -0.871115 -0.486878 0.186223 -0.873611 -0.449582 0.262065 -0.902595 -0.341532 0.25599 -0.903708 -0.343193 0.349366 -0.897819 -0.268076 0.403934 -0.899357 -0.167315 0.388943 -0.90475 -0.173641 0.487408 -0.870813 -0.0641684 -0.129883 -0.957659 -0.256944 -0.0364312 -0.94422 -0.327295 0.0729996 -0.965723 -0.249099 0.264752 -0.963955 -0.0264229 -0.275231 -0.960221 0.0471522 -0.246273 -0.967562 0.0563383 0.0345092 -0.999402 -0.00234585 0.00710903 -0.999784 0.0195287 0.0196256 -0.999675 0.0162783 -0.0371035 -0.999309 0.00236563 0.0036399 0.999975 -0.00614263 -0.00484898 0.999978 0.00459059 -0.00535636 0.999986 -5.04652e-05 -0.000476294 0.999996 0.00295751 0.0017558 0.999996 0.00242776 0.00132623 0.999994 0.0031247 0.000559852 0.999994 -0.00343952 -0.00154289 0.999983 -0.00566686</float_array>
                    <technique_common>
                        <accessor count="278" source="#shape0-lib-normals-array" stride="3">
                            <param name="X" type="float"/>
                            <param name="Y" type="float"/>
                            <param name="Z" type="float"/>
                        </accessor>
                    </technique_common>
                </source>
                <source id="shape0-lib-vcolor" name="vcolor">
                    <float_array id="shape0-lib-vcolor-array" count="580">1 1 1 1 1 1 1 1 1 1 1 1 1 1 1 1 1 1 1 1 1 1 1 1 1 1 1 1 1 1 1 1 1 1 1 1 1 1 1 1 1 1 1 1 1 1 1 1 1 1 1 1 1 1 1 1 1 1 1 1 1 1 1 1 1 1 1 1 1 1 1 1 1 1 1 1 1 1 1 1 1 1 1 1 1 1 1 1 1 1 1 1 1 1 1 1 1 1 1 1 1 1 1 1 1 1 1 1 1 1 1 1 1 1 1 1 1 1 1 1 1 1 1 1 1 1 1 1 1 1 1 1 1 1 1 1 1 1 1 1 1 1 1 1 1 1 1 1 1 1 1 1 1 1 1 1 1 1 1 1 1 1 1 1 1 1 1 1 1 1 1 1 1 1 1 1 1 1 1 1 1 1 1 1 1 1 1 1 1 1 1 1 1 1 1 1 1 1 1 1 1 1 1 1 1 1 1 1 1 1 1 1 1 1 1 1 1 1 1 1 1 1 1 1 1 1 1 1 1 1 1 1 1 1 1 1 1 1 1 1 1 1 1 1 1 1 1 1 1 1 1 1 1 1 1 1 1 1 1 1 1 1 1 1 1 1 1 1 1 1 1 1 1 1 1 1 1 1 1 1 1 1 1 1 1 1 1 1 1 1 1 1 1 1 1 1 1 1 1 1 1 1 1 1 1 1 1 1 1 1 1 1 1 1 1 1 1 1 1 1 1 1 1 1 1 1 1 1 1 1 1 1 1 1 1 1 1 1 1 1 1 1 1 1 1 1 1 1 1 1 1 1 1 1 1 1 1 1 1 1 1 1 1 1 1 1 1 1 1 1 1 1 1 1 1 1 1 1 1 1 1 1 1 1 1 1 1 1 1 1 1 1 1 1 1 1 1 1 1 1 1 1 1 1 1 1 1 1 1 1 1 1 1 1 1 1 1 1 1 1 1 1 1 1 1 1 1 1 1 1 1 1 1 1 1 1 1 1 1 1 1 1 1 1 1 1 1 1 1 1 1 1 1 1 1 1 1 1 1 1 1 1 1 1 1 1 1 1 1 1 1 1 1 1 1 1 1 1 1 1 1 1 1 1 1 1 1 1 1 1 1 1 1 1 1 1 1 1 1 1 1 1 1 1 1 1 1 1 1 1 1 1 1 1 1 1 1 1 1 1 1 1 1 1 1 1 1 1 1 1 1 1 1 1 1 1 1 1 1 1 1 1 1 1 1 1 1 1 1 1 1 1 1 1 1 1 1 1 1 1 1 1 1 1 1 1 1 1 1 1 1 1 1 1 1 1 1 1 1 1</float_array>
                    <technique_common>
                        <accessor count="145" source="#shape0-lib-vcolor-array" stride="4">
                            <param name="R" type="float"/>
                            <param name="G" type="float"/>
                            <param name="B" type="float"/>
                            <param name="A" type="float"/>
                        </accessor>
                    </technique_common>
                </source>
                <source id="shape0-lib-map" name="map">
                    <float_array id="shape0-lib-map-array" count="1668">0.889782 0.507755 0.890171 0.512541 0.879153 0.515521 0.889782 0.507755 0.879153 0.515521 0.882574 0.507697 0.882574 0.507697 0.879153 0.515521 0.87557 0.507717 0.87557 0.507717 0.879153 0.515521 0.868109 0.515516 0.87557 0.507717 0.868109 0.515516 0.868344 0.507697 0.868344 0.507697 0.868109 0.515516 0.860747 0.512541 0.868344 0.507697 0.860747 0.512541 0.861136 0.507755 0.890171 0.512541 0.890262 0.517294 0.879153 0.515521 0.868109 0.515516 0.860656 0.517294 0.860747 0.512541 0.890262 0.517294 0.889981 0.521719 0.882015 0.526077 0.890262 0.517294 0.882015 0.526077 0.879153 0.515521 0.879153 0.515521 0.882015 0.526077 0.872021 0.523718 0.879153 0.515521 0.872021 0.523718 0.868109 0.515516 0.868109 0.515516 0.872021 0.523718 0.861395 0.52374 0.868109 0.515516 0.861395 0.52374 0.860656 0.517294 0.889981 0.521719 0.888497 0.528373 0.882015 0.526077 0.882015 0.526077 0.872539 0.5305 0.872021 0.523718 0.872021 0.523718 0.872539 0.5305 0.862859 0.5305 0.872021 0.523718 0.862859 0.5305 0.861395 0.52374 0.888497 0.528373 0.887347 0.535302 0.881007 0.535302 0.888497 0.528373 0.881007 0.535302 0.882015 0.526077 0.882015 0.526077 0.881007 0.535302 0.875548 0.535302 0.882015 0.526077 0.875548 0.535302 0.872539 0.5305 0.872539 0.5305 0.875548 0.535302 0.869911 0.535302 0.872539 0.5305 0.869911 0.535302 0.863571 0.535302 0.872539 0.5305 0.863571 0.535302 0.862859 0.5305 0.853852 0.535697 0.853521 0.54271 0.847204 0.540469 0.853852 0.535697 0.847204 0.540469 0.84794 0.535697 0.853521 0.54271 0.846656 0.545207 0.847204 0.540469 0.853521 0.54271 0.860564 0.550789 0.846924 0.549619 0.853521 0.54271 0.846924 0.549619 0.846656 0.545207 0.860564 0.550789 0.854048 0.556393 0.847738 0.556329 0.860564 0.550789 0.847738 0.556329 0.846924 0.549619 0.854048 0.556393 0.854518 0.56327 0.848875 0.563161 0.854048 0.556393 0.848875 0.563161 0.847738 0.556329 0.816262 0.543118 0.807258 0.547151 0.809968 0.537695 0.816262 0.543118 0.809968 0.537695 0.816262 0.537695 0.807258 0.547151 0.804547 0.537695 0.809968 0.537695 0.807258 0.547151 0.79895 0.547151 0.79895 0.537695 0.807258 0.547151 0.79895 0.537695 0.804547 0.537695 0.79895 0.547151 0.792656 0.543118 0.792656 0.537695 0.79895 0.547151 0.792656 0.537695 0.79895 0.537695 0.838401 0.54127 0.835255 0.535544 0.844939 0.536373 0.838401 0.54127 0.844939 0.536373 0.844043 0.541161 0.835255 0.535544 0.845761 0.529523 0.844939 0.536373 0.835255 0.535544 0.832355 0.528851 0.845761 0.529523 0.832355 0.528851 0.839396 0.520769 0.846262 0.523207 0.832355 0.528851 0.846262 0.523207 0.845761 0.529523 0.839396 0.520769 0.845714 0.518469 0.846262 0.523207 0.839396 0.520769 0.839066 0.513697 0.844978 0.513697 0.839396 0.520769 0.844978 0.513697 0.845714 0.518469 0.820262 0.519562 0.813316 0.525494 0.813316 0.513696 0.820262 0.519562 0.813316 0.513696 0.820262 0.513696 0.813316 0.525494 0.802973 0.522525 0.806352 0.513696 0.813316 0.525494 0.806352 0.513696 0.813316 0.513696 0.802973 0.522525 0.799602 0.513696 0.806352 0.513696 0.802973 0.522525 0.792656 0.519562 0.792656 0.513696 0.802973 0.522525 0.792656 0.513696 0.799602 0.513696 0.859826 0.535697 0.86292 0.542628 0.853521 0.54271 0.859826 0.535697 0.853521 0.54271 0.853852 0.535697 0.86292 0.542628 0.860564 0.550789 0.853521 0.54271 0.860564 0.550789 0.861278 0.558701 0.854048 0.556393 0.861278 0.558701 0.86083 0.563304 0.854518 0.56327 0.861278 0.558701 0.854518 0.56327 0.854048 0.556393 0.816262 0.549184 0.807258 0.547151 0.816262 0.543118 0.79895 0.547151 0.792655 0.549184 0.792656 0.543118 0.832088 0.541304 0.835255 0.535544 0.838401 0.54127 0.832355 0.528851 0.829998 0.520687 0.839396 0.520769 0.829998 0.520687 0.833093 0.513697 0.839066 0.513697 0.829998 0.520687 0.839066 0.513697 0.839396 0.520769 0.820262 0.525489 0.813316 0.525494 0.820262 0.519562 0.802973 0.522525 0.792656 0.525489 0.792656 0.519562 0.865814 0.535697 0.86292 0.542628 0.859826 0.535697 0.829998 0.520687 0.827104 0.513697 0.833093 0.513697 0.820262 0.53143 0.813316 0.525494 0.820262 0.525489 0.813316 0.525494 0.802973 0.53143 0.802973 0.522525 0.802973 0.53143 0.792656 0.53143 0.792656 0.525489 0.802973 0.53143 0.792656 0.525489 0.802973 0.522525 0.871733 0.535697 0.872243 0.542549 0.86292 0.542628 0.871733 0.535697 0.86292 0.542628 0.865814 0.535697 0.872243 0.542549 0.871674 0.549481 0.860564 0.550789 0.872243 0.542549 0.860564 0.550789 0.86292 0.542628 0.871674 0.549481 0.870531 0.554098 0.860564 0.550789 0.870531 0.554098 0.868852 0.5587 0.861278 0.558701 0.870531 0.554098 0.861278 0.558701 0.860564 0.550789 0.868852 0.5587 0.867198 0.563302 0.86083 0.563304 0.868852 0.5587 0.86083 0.563304 0.861278 0.558701 0.816262 0.555304 0.809968 0.555304 0.807258 0.547151 0.816262 0.555304 0.807258 0.547151 0.816262 0.549184 0.809968 0.555304 0.804547 0.555304 0.807258 0.547151 0.804547 0.555304 0.79895 0.555304 0.79895 0.547151 0.804547 0.555304 0.79895 0.547151 0.807258 0.547151 0.79895 0.555304 0.792656 0.555304 0.792655 0.549184 0.79895 0.555304 0.792655 0.549184 0.79895 0.547151 0.82572 0.541302 0.823159 0.534331 0.835255 0.535544 0.82572 0.541302 0.835255 0.535544 0.832088 0.541304 0.823159 0.534331 0.832355 0.528851 0.835255 0.535544 0.823159 0.534331 0.821244 0.527481 0.832355 0.528851 0.821244 0.527481 0.820667 0.520464 0.829998 0.520687 0.821244 0.527481 0.829998 0.520687 0.832355 0.528851 0.820667 0.520464 0.821186 0.513697 0.827104 0.513697 0.820667 0.520464 0.827104 0.513697 0.829998 0.520687 0.820262 0.537303 0.813316 0.537303 0.813316 0.525494 0.820262 0.537303 0.813316 0.525494 0.820262 0.53143 0.813316 0.537303 0.806352 0.537303 0.802973 0.53143 0.813316 0.537303 0.802973 0.53143 0.813316 0.525494 0.806352 0.537303 0.799602 0.537303 0.802973 0.53143 0.799602 0.537303 0.792656 0.537303 0.792656 0.53143 0.799602 0.537303 0.792656 0.53143 0.802973 0.53143 0.861136 0.479754 0.868344 0.479697 0.871764 0.4843 0.861136 0.479754 0.871764 0.4843 0.860639 0.486556 0.868344 0.479697 0.875348 0.479717 0.871764 0.4843 0.875348 0.479717 0.88266 0.480282 0.871764 0.4843 0.88266 0.480282 0.889782 0.479754 0.890271 0.486401 0.860639 0.486556 0.871764 0.4843 0.86807 0.491563 0.871764 0.4843 0.879161 0.491566 0.86807 0.491563 0.871764 0.4843 0.88266 0.480282 0.879161 0.491566 0.88266 0.480282 0.890271 0.486401 0.879161 0.491566 0.860639 0.486556 0.86807 0.491563 0.860937 0.49351 0.879161 0.491566 0.890271 0.486401 0.889981 0.49351 0.860937 0.49351 0.86807 0.491563 0.869306 0.499998 0.860937 0.49351 0.869306 0.499998 0.861922 0.498117 0.86807 0.491563 0.879161 0.491566 0.878517 0.499999 0.86807 0.491563 0.878517 0.499999 0.869306 0.499998 0.879161 0.491566 0.889981 0.49351 0.88853 0.500283 0.879161 0.491566 0.88853 0.500283 0.878517 0.499999 0.861922 0.498117 0.869306 0.499998 0.862859 0.50271 0.862859 0.50271 0.869306 0.499998 0.869911 0.507302 0.862859 0.50271 0.869911 0.507302 0.863571 0.507302 0.869306 0.499998 0.878517 0.499999 0.875371 0.507302 0.869306 0.499998 0.875371 0.507302 0.869911 0.507302 0.878517 0.499999 0.881007 0.507302 0.875371 0.507302 0.878517 0.499999 0.88853 0.500283 0.887347 0.507302 0.878517 0.499999 0.887347 0.507302 0.881007 0.507302 0.828459 0.545318 0.828459 0.541681 0.832779 0.541681 0.828459 0.545318 0.832779 0.541681 0.832779 0.545318 0.832779 0.545318 0.832779 0.541681 0.836805 0.541681 0.832779 0.545318 0.836805 0.541681 0.836805 0.545318 0.836805 0.545318 0.836805 0.541681 0.840262 0.541681 0.836805 0.545318 0.840262 0.541681 0.840262 0.545318 0.816656 0.553318 0.816656 0.549681 0.820113 0.549681 0.816656 0.553318 0.820113 0.549681 0.820113 0.553318 0.820113 0.553318 0.820113 0.549681 0.824139 0.549681 0.820113 0.553318 0.824139 0.549681 0.824139 0.553318 0.824139 0.553318 0.824139 0.549681 0.828459 0.549681 0.824139 0.553318 0.828459 0.549681 0.828459 0.553318 0.828459 0.553318 0.828459 0.549681 0.832779 0.549681 0.828459 0.553318 0.832779 0.549681 0.832779 0.553318 0.832779 0.553318 0.832779 0.549681 0.836805 0.549681 0.832779 0.553318 0.836805 0.549681 0.836805 0.553318 0.836805 0.553318 0.836805 0.549681 0.840262 0.549681 0.836805 0.553318 0.840262 0.549681 0.840262 0.553318 0.816656 0.549318 0.816656 0.545681 0.820113 0.545681 0.816656 0.549318 0.820113 0.545681 0.820113 0.549318 0.820113 0.549318 0.820113 0.545681 0.824139 0.545681 0.820113 0.549318 0.824139 0.545681 0.824139 0.549318 0.824139 0.549318 0.824139 0.545681 0.828459 0.545681 0.824139 0.549318 0.828459 0.545681 0.828459 0.549318 0.828459 0.549318 0.828459 0.545681 0.832779 0.545681 0.828459 0.549318 0.832779 0.545681 0.832779 0.549318 0.832779 0.549318 0.832779 0.545681 0.836805 0.545681 0.832779 0.549318 0.836805 0.545681 0.836805 0.549318 0.836805 0.549318 0.836805 0.545681 0.840262 0.545681 0.836805 0.549318 0.840262 0.545681 0.840262 0.549318 0.816656 0.557318 0.816656 0.553681 0.820113 0.553681 0.816656 0.557318 0.820113 0.553681 0.820113 0.557318 0.820113 0.557318 0.820113 0.553681 0.824139 0.553681 0.820113 0.557318 0.824139 0.553681 0.824139 0.557318 0.824139 0.557318 0.824139 0.553681 0.828459 0.553681 0.824139 0.557318 0.828459 0.553681 0.828459 0.557318 0.828459 0.557318 0.828459 0.553681 0.832779 0.553681 0.828459 0.557318 0.832779 0.553681 0.832779 0.557318 0.832779 0.557318 0.832779 0.553681 0.836805 0.553681 0.832779 0.557318 0.836805 0.553681 0.836805 0.557318 0.836805 0.557318 0.836805 0.553681 0.840262 0.553681 0.836805 0.557318 0.840262 0.553681 0.840262 0.557318 0.816656 0.545318 0.816656 0.541681 0.820113 0.541681 0.816656 0.545318 0.820113 0.541681 0.820113 0.545318 0.820113 0.545318 0.820113 0.541681 0.824139 0.541681 0.820113 0.545318 0.824139 0.541681 0.824139 0.545318 0.824139 0.545318 0.824139 0.541681 0.828459 0.541681 0.824139 0.545318 0.828459 0.541681 0.828459 0.545318 0.872646 0.535687 0.878271 0.535687 0.878271 0.541312 0.872646 0.535687 0.878271 0.541312 0.872646 0.541312 0.852272 0.523307 0.846646 0.523307 0.846646 0.513692 0.852272 0.523307 0.846646 0.513692 0.852272 0.513692 0.858272 0.523307 0.852647 0.523307 0.852647 0.513692 0.858272 0.523307 0.852647 0.513692 0.858272 0.513692 0.852272 0.533307 0.846646 0.533307 0.846646 0.523692 0.852272 0.533307 0.846646 0.523692 0.852272 0.523692 0.858272 0.533307 0.852647 0.533307 0.852647 0.523692 0.858272 0.533307 0.852647 0.523692 0.858272 0.523692 0.884272 0.535687 0.884272 0.541312 0.878646 0.541312 0.884272 0.535687 0.878646 0.541312 0.878646 0.535687 0.859395 0.492233 0.859956 0.496503 0.856963 0.498022 0.859956 0.496503 0.859393 0.500773 0.856963 0.498022 0.859393 0.500773 0.857744 0.504752 0.856963 0.498022 0.857744 0.504752 0.855121 0.508167 0.850501 0.508052 0.857744 0.504752 0.850501 0.508052 0.856963 0.498022 0.855121 0.508167 0.851704 0.510789 0.850501 0.508052 0.851704 0.510789 0.847725 0.512435 0.850501 0.508052 0.847725 0.512435 0.843455 0.512997 0.840271 0.509648 0.847725 0.512435 0.840271 0.509648 0.850501 0.508052 0.843455 0.512997 0.839185 0.512433 0.840271 0.509648 0.839185 0.512433 0.835207 0.510785 0.840271 0.509648 0.835207 0.510785 0.831791 0.508161 0.831907 0.503542 0.835207 0.510785 0.831907 0.503542 0.840271 0.509648 0.831791 0.508161 0.82917 0.504745 0.831907 0.503542 0.82917 0.504745 0.827523 0.500766 0.831907 0.503542 0.827523 0.500766 0.826962 0.496495 0.830098 0.494905 0.827523 0.500766 0.830098 0.494905 0.831907 0.503542 0.826962 0.496495 0.827525 0.492226 0.830098 0.494905 0.827525 0.492226 0.829174 0.488247 0.833667 0.487164 0.827525 0.492226 0.833667 0.487164 0.830098 0.494905 0.829174 0.488247 0.831797 0.484831 0.833667 0.487164 0.831797 0.484831 0.835214 0.48221 0.833667 0.487164 0.835214 0.48221 0.839193 0.480563 0.844795 0.482939 0.835214 0.48221 0.844795 0.482939 0.833667 0.487164 0.839193 0.480563 0.843463 0.480002 0.844795 0.482939 0.843463 0.480002 0.847733 0.480565 0.844795 0.482939 0.847733 0.480565 0.851711 0.482214 0.844795 0.482939 0.851711 0.482214 0.855127 0.484837 0.854034 0.488179 0.851711 0.482214 0.854034 0.488179 0.844795 0.482939 0.855127 0.484837 0.857748 0.488254 0.854034 0.488179 0.857748 0.488254 0.859395 0.492233 0.856963 0.498022 0.857748 0.488254 0.856963 0.498022 0.854034 0.488179 0.826261 0.496499 0.825689 0.500848 0.821496 0.496295 0.825689 0.500848 0.82401 0.504901 0.817104 0.500723 0.825689 0.500848 0.817104 0.500723 0.821496 0.496295 0.82401 0.504901 0.82134 0.50838 0.817104 0.500723 0.82134 0.50838 0.81786 0.511051 0.812294 0.504912 0.82134 0.50838 0.812294 0.504912 0.817104 0.500723 0.81786 0.511051 0.813808 0.512729 0.812294 0.504912 0.813808 0.512729 0.809459 0.513302 0.812294 0.504912 0.809459 0.513302 0.80511 0.512729 0.805024 0.503491 0.809459 0.513302 0.805024 0.503491 0.812294 0.504912 0.80511 0.512729 0.801058 0.511051 0.805024 0.503491 0.801058 0.511051 0.797578 0.50838 0.799129 0.502675 0.801058 0.511051 0.799129 0.502675 0.805024 0.503491 0.797578 0.50838 0.794908 0.504901 0.799129 0.502675 0.794908 0.504901 0.793229 0.500848 0.799129 0.502675 0.793229 0.500848 0.792657 0.496499 0.7974 0.495003 0.793229 0.500848 0.7974 0.495003 0.799129 0.502675 0.792657 0.496499 0.793229 0.492151 0.7974 0.495003 0.793229 0.492151 0.794908 0.488098 0.80213 0.492214 0.793229 0.492151 0.80213 0.492214 0.7974 0.495003 0.794908 0.488098 0.797578 0.484618 0.80213 0.492214 0.797578 0.484618 0.801058 0.481948 0.804725 0.485307 0.797578 0.484618 0.804725 0.485307 0.80213 0.492214 0.801058 0.481948 0.80511 0.48027 0.804725 0.485307 0.80511 0.48027 0.809459 0.479697 0.812397 0.484828 0.80511 0.48027 0.812397 0.484828 0.804725 0.485307 0.809459 0.479697 0.813808 0.48027 0.812397 0.484828 0.813808 0.48027 0.81786 0.481948 0.812397 0.484828 0.81786 0.481948 0.82134 0.484618 0.816092 0.491167 0.81786 0.481948 0.816092 0.491167 0.812397 0.484828 0.82134 0.484618 0.82401 0.488098 0.816092 0.491167 0.82401 0.488098 0.825689 0.492151 0.821496 0.496295 0.82401 0.488098 0.821496 0.496295 0.816092 0.491167 0.825689 0.492151 0.826261 0.496499 0.821496 0.496295 0.80213 0.492214 0.804725 0.485307 0.80845 0.490037 0.804725 0.485307 0.812397 0.484828 0.80845 0.490037 0.812397 0.484828 0.816092 0.491167 0.80845 0.490037 0.821496 0.496295 0.817104 0.500723 0.816092 0.491167 0.799129 0.502675 0.7974 0.495003 0.80213 0.492214 0.799129 0.502675 0.80213 0.492214 0.805024 0.503491 0.816092 0.491167 0.817104 0.500723 0.80845 0.490037 0.817104 0.500723 0.812294 0.504912 0.80845 0.490037 0.812294 0.504912 0.805024 0.503491 0.80845 0.490037 0.805024 0.503491 0.80213 0.492214 0.80845 0.490037 0.844795 0.482939 0.854034 0.488179 0.843459 0.496499 0.854034 0.488179 0.856963 0.498022 0.843459 0.496499 0.856963 0.498022 0.850501 0.508052 0.843459 0.496499 0.850501 0.508052 0.840271 0.509648 0.843459 0.496499 0.840271 0.509648 0.831907 0.503542 0.843459 0.496499 0.831907 0.503542 0.830098 0.494905 0.843459 0.496499 0.830098 0.494905 0.833667 0.487164 0.843459 0.496499 0.833667 0.487164 0.844795 0.482939 0.843459 0.496499</float_array>
                    <technique_common>
                        <accessor count="834" source="#shape0-lib-map-array" stride="2">
                            <param name="U" type="float"/>
                            <param name="V" type="float"/>
                        </accessor>
                    </technique_common>
                </source>
                <vertices id="shape0-lib-vertices">
                    <input semantic="POSITION" source="#shape0-lib-positions"/>
                </vertices>
                <triangles count="278" material="material0">
                    <input offset="0" semantic="VERTEX" source="#shape0-lib-vertices"/>
                    <input offset="1" semantic="COLOR" source="#shape0-lib-vcolor"/>
                    <input offset="2" semantic="NORMAL" source="#shape0-lib-normals"/>
                    <input offset="3" semantic="TEXCOORD" source="#shape0-lib-map"/>
                    <p>0 0 0 0 1 1 0 1 18 18 0 2 0 0 1 3 18 18 1 4 17 17 1 5 17 17 2 6 18 18 2 7 16 16 2 8 16 16 3 9 18 18 3 10 19 19 3 11 16 16 4 12 19 19 4 13 15 15 4 14 15 15 5 15 19 19 5 16 13 13 5 17 15 15 6 18 13 13 6 19 14 14 6 20 1 1 7 21 2 2 7 22 18 18 7 23 19 19 8 24 12 12 8 25 13 13 8 26 2 2 9 27 3 3 9 28 21 21 9 29 2 2 10 30 21 21 10 31 18 18 10 32 18 18 11 33 21 21 11 34 20 20 11 35 18 18 12 36 20 20 12 37 19 19 12 38 19 19 13 39 20 20 13 40 11 11 13 41 19 19 14 42 11 11 14 43 12 12 14 44 3 3 15 45 4 4 15 46 21 21 15 47 21 21 16 48 22 22 16 49 20 20 16 50 20 20 17 51 22 22 17 52 10 10 17 53 20 20 18 54 10 10 18 55 11 11 18 56 4 4 19 57 5 5 19 58 6 6 19 59 4 4 20 60 6 6 20 61 21 21 20 62 21 21 21 63 6 6 21 64 7 7 21 65 21 21 22 66 7 7 22 67 22 22 22 68 22 22 23 69 7 7 23 70 8 8 23 71 22 22 24 72 8 8 24 73 9 9 24 74 22 22 25 75 9 9 25 76 10 10 25 77 23 23 26 78 24 24 26 79 1 1 26 80 23 23 27 81 1 1 27 82 0 0 27 83 24 24 28 84 2 2 28 85 1 1 28 86 24 24 29 87 37 37 29 88 3 3 29 89 24 24 30 90 3 3 30 91 2 2 30 92 37 37 31 93 25 25 31 94 4 4 31 95 37 37 32 96 4 4 32 97 3 3 32 98 25 25 33 99 26 26 33 100 5 5 33 101 25 25 34 102 5 5 34 103 4 4 34 104 26 26 35 105 27 27 35 106 6 6 35 107 26 26 36 108 6 6 36 109 5 5 36 110 27 27 37 111 7 7 37 112 6 6 37 113 27 27 38 114 28 28 38 115 8 8 38 116 27 27 39 117 8 8 39 118 7 7 39 119 28 28 40 120 29 29 40 121 9 9 40 122 28 28 41 123 9 9 41 124 8 8 41 125 29 29 42 126 41 41 42 127 10 10 42 128 29 29 43 129 10 10 43 130 9 9 43 131 41 41 44 132 11 11 44 133 10 10 44 134 41 41 45 135 42 42 45 136 11 11 45 137 42 42 46 138 30 30 46 139 12 12 46 140 42 42 47 141 12 12 47 142 11 11 47 143 30 30 48 144 13 13 48 145 12 12 48 146 30 30 49 147 31 31 49 148 14 14 49 149 30 30 50 150 14 14 50 151 13 13 50 152 31 31 51 153 45 45 51 154 15 15 51 155 31 31 52 156 15 15 52 157 14 14 52 158 45 45 53 159 35 35 53 160 16 16 53 161 45 45 54 162 16 16 54 163 15 15 54 164 35 35 55 165 17 17 55 166 16 16 55 167 35 35 56 168 23 23 56 169 0 0 56 170 35 35 57 171 0 0 57 172 17 17 57 173 32 32 58 174 33 33 58 175 24 24 58 176 32 32 59 177 24 24 59 178 23 23 59 179 33 33 60 180 37 37 60 181 24 24 60 182 37 37 61 183 38 38 61 184 25 25 61 185 38 38 62 186 39 39 62 187 26 26 62 188 38 38 63 189 26 26 63 190 25 25 63 191 39 39 64 192 27 27 64 193 26 26 64 194 28 28 65 195 40 40 65 196 29 29 65 197 40 40 66 198 41 41 66 199 29 29 66 200 42 42 67 201 43 43 67 202 30 30 67 203 43 43 68 204 34 34 68 205 31 31 68 206 43 43 69 207 31 31 69 208 30 30 69 209 34 34 70 210 45 45 70 211 31 31 70 212 35 35 71 213 32 32 71 214 23 23 71 215 36 36 72 216 33 33 72 217 32 32 72 218 43 43 73 219 44 44 73 220 34 34 73 221 44 44 74 222 45 45 74 223 34 34 74 224 45 45 75 225 46 46 75 226 35 35 75 227 46 46 76 228 36 36 76 229 32 32 76 230 46 46 77 231 32 32 77 232 35 35 77 233 47 47 78 234 48 48 78 235 33 33 78 236 47 47 79 237 33 33 79 238 36 36 79 239 48 48 80 240 49 49 80 241 37 37 80 242 48 48 81 243 37 37 81 244 33 33 81 245 49 49 82 246 50 50 82 247 37 37 82 248 50 50 83 249 51 51 83 250 38 38 83 251 50 50 84 252 38 38 84 253 37 37 84 254 51 51 85 255 52 52 85 256 39 39 85 257 51 51 86 258 39 39 86 259 38 38 86 260 52 52 87 261 53 53 87 262 27 27 87 263 52 52 88 264 27 27 88 265 39 39 88 266 53 53 89 267 54 54 89 268 27 27 89 269 54 54 90 270 55 55 90 271 28 28 90 272 54 54 91 273 28 28 91 274 27 27 91 275 55 55 92 276 56 56 92 277 40 40 92 278 55 55 93 279 40 40 93 280 28 28 93 281 56 56 94 282 57 57 94 283 41 41 94 284 56 56 95 285 41 41 95 286 40 40 95 287 57 57 96 288 42 42 96 289 41 41 96 290 57 57 97 291 58 58 97 292 42 42 97 293 58 58 98 294 59 59 98 295 43 43 98 296 58 58 99 297 43 43 99 298 42 42 99 299 59 59 100 300 60 60 100 301 44 44 100 302 59 59 101 303 44 44 101 304 43 43 101 305 60 60 102 306 64 64 102 307 45 45 102 308 60 60 103 309 45 45 103 310 44 44 103 311 64 64 104 312 61 61 104 313 46 46 104 314 64 64 105 315 46 46 105 316 45 45 105 317 61 61 106 318 62 62 106 319 46 46 106 320 62 62 107 321 47 47 107 322 36 36 107 323 62 62 108 324 36 36 108 325 46 46 108 326 47 47 109 327 62 62 109 328 63 63 109 329 47 47 110 330 63 63 110 331 48 48 110 332 62 62 111 333 61 61 111 334 63 63 111 335 61 61 112 336 64 64 112 337 63 63 112 338 64 64 113 339 60 60 113 340 59 59 113 341 48 48 114 342 63 63 114 343 65 65 114 344 63 63 115 345 66 66 115 346 65 65 115 347 63 63 116 348 64 64 116 349 66 66 116 350 64 64 117 351 59 59 117 352 66 66 117 353 48 48 118 354 65 65 118 355 49 49 118 356 66 66 119 357 59 59 119 358 58 58 119 359 49 49 120 360 65 65 120 361 67 67 120 362 49 49 121 363 67 67 121 364 50 50 121 365 65 65 122 366 66 66 122 367 68 68 122 368 65 65 123 369 68 68 123 370 67 67 123 371 66 66 124 372 58 58 124 373 57 57 124 374 66 66 125 375 57 57 125 376 68 68 125 377 50 50 126 378 67 67 126 379 51 51 126 380 51 51 127 381 67 67 127 382 53 53 127 383 51 51 128 384 53 53 128 385 52 52 128 386 67 67 129 387 68 68 129 388 54 54 129 389 67 67 130 390 54 54 130 391 53 53 130 392 68 68 131 393 55 55 131 394 54 54 131 395 68 68 132 396 57 57 132 397 56 56 132 398 68 68 133 399 56 56 133 400 55 55 133 401 101 101 134 402 69 69 134 403 70 70 134 404 101 101 135 405 70 70 135 406 102 102 135 407 102 102 136 408 70 70 136 409 71 71 136 410 102 102 137 411 71 71 137 412 103 103 137 413 103 103 138 414 71 71 138 415 72 72 138 416 103 103 139 417 72 72 139 418 104 104 139 419 104 104 140 420 72 72 140 421 73 73 140 422 104 104 141 423 73 73 141 424 105 105 141 425 105 105 142 426 73 73 142 427 74 74 142 428 105 105 143 429 74 74 143 430 106 106 143 431 106 106 144 432 74 74 144 433 75 75 144 434 106 106 145 435 75 75 145 436 107 107 145 437 107 107 146 438 75 75 146 439 76 76 146 440 107 107 147 441 76 76 147 442 108 108 147 443 108 108 148 444 76 76 148 445 77 77 148 446 108 108 149 447 77 77 149 448 109 109 149 449 109 109 150 450 77 77 150 451 78 78 150 452 109 109 151 453 78 78 151 454 110 110 151 455 110 110 152 456 78 78 152 457 79 79 152 458 110 110 153 459 79 79 153 460 111 111 153 461 111 111 154 462 79 79 154 463 80 80 154 464 111 111 155 465 80 80 155 466 112 112 155 467 112 112 156 468 80 80 156 469 81 81 156 470 112 112 157 471 81 81 157 472 113 113 157 473 113 113 158 474 81 81 158 475 82 82 158 476 113 113 159 477 82 82 159 478 114 114 159 479 114 114 160 480 82 82 160 481 83 83 160 482 114 114 161 483 83 83 161 484 115 115 161 485 115 115 162 486 83 83 162 487 84 84 162 488 115 115 163 489 84 84 163 490 116 116 163 491 116 116 164 492 84 84 164 493 85 85 164 494 116 116 165 495 85 85 165 496 117 117 165 497 117 117 166 498 85 85 166 499 86 86 166 500 117 117 167 501 86 86 167 502 118 118 167 503 118 118 168 504 86 86 168 505 87 87 168 506 118 118 169 507 87 87 169 508 119 119 169 509 119 119 170 510 87 87 170 511 88 88 170 512 119 119 171 513 88 88 171 514 120 120 171 515 120 120 172 516 88 88 172 517 89 89 172 518 120 120 173 519 89 89 173 520 121 121 173 521 121 121 174 522 89 89 174 523 90 90 174 524 121 121 175 525 90 90 175 526 122 122 175 527 122 122 176 528 90 90 176 529 91 91 176 530 122 122 177 531 91 91 177 532 123 123 177 533 123 123 178 534 91 91 178 535 92 92 178 536 123 123 179 537 92 92 179 538 124 124 179 539 124 124 180 540 92 92 180 541 69 69 180 542 124 124 181 543 69 69 181 544 101 101 181 545 93 93 182 546 94 94 182 547 95 95 182 548 93 93 183 549 95 95 183 550 96 96 183 551 97 97 184 552 98 98 184 553 94 94 184 554 97 97 185 555 94 94 185 556 93 93 185 557 98 98 186 558 99 99 186 559 95 95 186 560 98 98 187 561 95 95 187 562 94 94 187 563 99 99 188 564 100 100 188 565 96 96 188 566 99 99 189 567 96 96 189 568 95 95 189 569 100 100 190 570 97 97 190 571 93 93 190 572 100 100 191 573 93 93 191 574 96 96 191 575 97 97 192 576 100 100 192 577 99 99 192 578 97 97 193 579 99 99 193 580 98 98 193 581 106 106 194 582 107 107 194 583 127 127 194 584 107 107 195 585 108 108 195 586 127 127 195 587 108 108 196 588 109 109 196 589 127 127 196 590 109 109 197 591 110 110 197 592 128 128 197 593 109 109 198 594 128 128 198 595 127 127 198 596 110 110 199 597 111 111 199 598 128 128 199 599 111 111 200 600 112 112 200 601 128 128 200 602 112 112 201 603 113 113 201 604 129 129 201 605 112 112 202 606 129 129 202 607 128 128 202 608 113 113 203 609 114 114 203 610 129 129 203 611 114 114 204 612 115 115 204 613 129 129 204 614 115 115 205 615 116 116 205 616 130 130 205 617 115 115 206 618 130 130 206 619 129 129 206 620 116 116 207 621 117 117 207 622 130 130 207 623 117 117 208 624 118 118 208 625 130 130 208 626 118 118 209 627 119 119 209 628 131 131 209 629 118 118 210 630 131 131 210 631 130 130 210 632 119 119 211 633 120 120 211 634 131 131 211 635 120 120 212 636 121 121 212 637 132 132 212 638 120 120 213 639 132 132 213 640 131 131 213 641 121 121 214 642 122 122 214 643 132 132 214 644 122 122 215 645 123 123 215 646 132 132 215 647 123 123 216 648 124 124 216 649 125 125 216 650 123 123 217 651 125 125 217 652 132 132 217 653 124 124 218 654 101 101 218 655 125 125 218 656 101 101 219 657 102 102 219 658 125 125 219 659 102 102 220 660 103 103 220 661 125 125 220 662 103 103 221 663 104 104 221 664 126 126 221 665 103 103 222 666 126 126 222 667 125 125 222 668 104 104 223 669 105 105 223 670 126 126 223 671 105 105 224 672 106 106 224 673 127 127 224 674 105 105 225 675 127 127 225 676 126 126 225 677 87 87 226 678 86 86 226 679 139 139 226 680 86 86 227 681 85 85 227 682 142 142 227 683 86 86 228 684 142 142 228 685 139 139 228 686 85 85 229 687 84 84 229 688 142 142 229 689 84 84 230 690 83 83 230 691 141 141 230 692 84 84 231 693 141 141 231 694 142 142 231 695 83 83 232 696 82 82 232 697 141 141 232 698 82 82 233 699 81 81 233 700 141 141 233 701 81 81 234 702 80 80 234 703 138 138 234 704 81 81 235 705 138 138 235 706 141 141 235 707 80 80 236 708 79 79 236 709 138 138 236 710 79 79 237 711 78 78 237 712 137 137 237 713 79 79 238 714 137 137 238 715 138 138 238 716 78 78 239 717 77 77 239 718 137 137 239 719 77 77 240 720 76 76 240 721 137 137 240 722 76 76 241 723 75 75 241 724 136 136 241 725 76 76 242 726 136 136 242 727 137 137 242 728 75 75 243 729 74 74 243 730 136 136 243 731 74 74 244 732 73 73 244 733 135 135 244 734 74 74 245 735 135 135 245 736 136 136 245 737 73 73 246 738 72 72 246 739 135 135 246 740 72 72 247 741 71 71 247 742 134 134 247 743 72 72 248 744 134 134 248 745 135 135 248 746 71 71 249 747 70 70 249 748 134 134 249 749 70 70 250 750 69 69 250 751 133 133 250 752 70 70 251 753 133 133 251 754 134 134 251 755 69 69 252 756 92 92 252 757 133 133 252 758 92 92 253 759 91 91 253 760 133 133 253 761 91 91 254 762 90 90 254 763 140 140 254 764 91 91 255 765 140 140 255 766 133 133 255 767 90 90 256 768 89 89 256 769 140 140 256 770 89 89 257 771 88 88 257 772 139 139 257 773 89 89 258 774 139 139 258 775 140 140 258 776 88 88 259 777 87 87 259 778 139 139 259 779 135 135 260 780 134 134 260 781 143 143 260 782 134 134 261 783 133 133 261 784 143 143 261 785 133 133 262 786 140 140 262 787 143 143 262 788 139 139 263 789 142 142 263 790 140 140 263 791 137 137 264 792 136 136 264 793 135 135 264 794 137 137 265 795 135 135 265 796 138 138 265 797 140 140 266 798 142 142 266 799 143 143 266 800 142 142 267 801 141 141 267 802 143 143 267 803 141 141 268 804 138 138 268 805 143 143 268 806 138 138 269 807 135 135 269 808 143 143 269 809 125 125 270 810 126 126 270 811 144 144 270 812 126 126 271 813 127 127 271 814 144 144 271 815 127 127 272 816 128 128 272 817 144 144 272 818 128 128 273 819 129 129 273 820 144 144 273 821 129 129 274 822 130 130 274 823 144 144 274 824 130 130 275 825 131 131 275 826 144 144 275 827 131 131 276 828 132 132 276 829 144 144 276 830 132 132 277 831 125 125 277 832 144 144 277 833</p>
                </triangles>
            </mesh>
        </geometry>
    </library_geometries>
    <library_visual_scenes>
        <visual_scene id="VisualSceneNode" name="VisualScene">
            <node id="node" name="node">
                <instance_geometry url="#shape0-lib">
                    <bind_material>
                        <technique_common>
                            <instance_material symbol="material0" target="#material0">
                                <bind_vertex_input semantic="UVSET0" input_semantic="TEXCOORD"/>
                            </instance_material>
                        </technique_common>
                    </bind_material>
                </instance_geometry>
            </node>
        </visual_scene>
    </library_visual_scenes>
    <scene>
        <instance_visual_scene url="#VisualSceneNode"/>
    </scene>
</COLLADA>
