<?xml version="1.0" encoding="UTF-8"?>
<COLLADA xmlns="http://www.collada.org/2005/11/COLLADASchema" version="1.4.1">
    <asset>
        <contributor>
            <author>VCGLab</author>
            <authoring_tool>VCGLib | MeshLab</authoring_tool>
        </contributor>
        <created>Thu Jul 3 01:38:58 2025 GMT</created>
        <modified>Thu Jul 3 01:38:58 2025 GMT</modified>
        <up_axis>Y_UP</up_axis>
    </asset>
    <library_images>
        <image id="texture0" name="texture0">
            <init_from>./image/shelf_books.png</init_from>
        </image>
    </library_images>
    <library_materials>
        <material id="material0" name="material0">
            <instance_effect url="#material0-fx"/>
        </material>
    </library_materials>
    <library_effects>
        <effect id="material0-fx">
            <profile_COMMON>
                <newparam sid="texture0-surface">
                    <surface type="2D">
                        <init_from>texture0</init_from>
                        <format>R8G8B8</format>
                    </surface>
                </newparam>
                <newparam sid="texture0-sampler">
                    <sampler2D>
                        <source>texture0-surface</source>
                        <minfilter>LINEAR</minfilter>
                        <magfilter>LINEAR</magfilter>
                    </sampler2D>
                </newparam>
                <technique sid="common">
                    <blinn>
                        <diffuse>
                            <texture texture="texture0-sampler" texcoord="UVSET0"/>
                        </diffuse>
                    </blinn>
                </technique>
            </profile_COMMON>
        </effect>
    </library_effects>
    <library_geometries>
        <geometry id="shape0-lib" name="shape0">
            <mesh>
                <source id="shape0-lib-positions" name="position">
                    <float_array id="shape0-lib-positions-array" count="312">-0.158884 0.0074522 -0.0592915 -0.156216 0.179225 -0.0592915 -0.13667 0.00699205 -0.0592915 -0.158278 0.0074398 0.0603319 -0.155611 0.179212 0.0604525 -0.137329 0.00700563 0.0605029 -0.135208 0.17879 0.0607007 -0.132699 0.00716753 -0.0592915 -0.11081 0.178888 -0.0592915 -0.11048 0.00709481 -0.0592915 -0.131962 0.00716498 0.0604317 -0.111416 0.17889 0.0603322 -0.111085 0.00709678 0.0604526 -0.131144 0.178969 0.0610401 -0.108834 0.00708933 -0.0592915 -0.109164 0.178883 -0.0592915 -0.0869447 0.17881 -0.0592915 -0.0866147 0.00701685 -0.0592915 -0.108228 0.00708736 0.060332 -0.108559 0.178881 0.0604526 -0.0875512 0.178812 0.0603317 -0.0872201 0.00701884 0.0604523 -0.0841459 0.00700874 -0.0592915 -0.084476 0.178802 -0.0592915 -0.0622567 0.178729 -0.0592915 -0.0619266 0.00693602 -0.0592915 -0.0835394 0.00700663 0.0603318 -0.0838706 0.1788 0.0604523 -0.0628631 0.178731 0.0603318 -0.062532 0.00693808 0.0604523 -0.0594579 0.00692792 -0.0592915 -0.0597879 0.178721 -0.0592915 -0.0375686 0.178649 -0.0592915 -0.0372386 0.00685544 -0.0592915 -0.0588514 0.00692598 0.0603317 -0.0597879 0.178721 0.0578915 -0.0381751 0.178651 0.0603318 -0.0372386 0.00685544 0.0578915 -0.0385772 0.00685987 0.0608942 -0.0584491 0.178717 0.0608943 -0.0347698 0.00684733 -0.0592915 -0.0350997 0.178641 -0.0592915 -0.0128804 0.178568 -0.0592915 -0.0125505 0.00677461 -0.0592915 -0.0341633 0.00684521 0.0603317 -0.0350997 0.178641 0.0578915 -0.0134869 0.17857 0.0603317 -0.0125505 0.00677461 0.0578915 -0.0138892 0.00677916 0.0608943 -0.0337611 0.178636 0.0608942 -0.0108841 0.0074522 -0.0592915 -0.00821589 0.179225 -0.0592915 0.0113305 0.00699205 -0.0592915 -0.0102777 0.00743981 0.0603317 -0.00761061 0.179212 0.0604523 0.0106715 0.00700563 0.0605028 0.0127922 0.17879 0.0607007 0.0153008 0.00716753 -0.0592915 0.0371901 0.178888 -0.0592915 0.0375201 0.00709481 -0.0592915 0.0160386 0.00716498 0.0604316 0.0365837 0.17889 0.0603319 0.0369147 0.00709678 0.0604523 0.0168564 0.178969 0.0610402 0.039166 0.00708933 -0.0592915 0.0388359 0.178883 -0.0592915 0.0610553 0.17881 -0.0592915 0.0613853 0.00701685 -0.0592915 0.0397724 0.00708736 0.0603318 0.0394413 0.178881 0.0604523 0.0604488 0.178812 0.0603318 0.0607799 0.00701884 0.0604523 0.0638541 0.00700874 -0.0592915 0.063524 0.178802 -0.0592915 0.0857433 0.178729 -0.0592915 0.0860734 0.00693602 -0.0592915 0.0644605 0.00700663 0.0603317 0.0641294 0.1788 0.0604522 0.0851368 0.178731 0.0603318 0.085468 0.00693808 0.0604523 0.0885421 0.00692792 -0.0592915 0.0882121 0.178721 -0.0592915 0.110431 0.178649 -0.0592915 0.110761 0.00685544 -0.0592915 0.0891486 0.00692598 0.0603317 0.0882121 0.178721 0.0578915 0.109825 0.178651 0.060332 0.110761 0.00685544 0.0578915 0.109423 0.00685987 0.0608941 0.0895509 0.178717 0.0608943 0.11323 0.00684733 -0.0592915 0.1129 0.178641 -0.0592915 0.13512 0.178568 -0.0592915 0.13545 0.00677461 -0.0592915 0.113837 0.00684521 0.0603315 0.1129 0.178641 0.0578915 0.134513 0.17857 0.0603314 0.13545 0.00677461 0.0578915 0.134111 0.00677916 0.0608944 0.114239 0.178636 0.0608944 -0.134001 0.178765 -0.0592915 -0.134001 0.178765 0.0578915 0.0139988 0.178765 -0.0592915 0.0139988 0.178765 0.0578915</float_array>
                    <technique_common>
                        <accessor count="104" source="#shape0-lib-positions-array" stride="3">
                            <param name="X" type="float"/>
                            <param name="Y" type="float"/>
                            <param name="Z" type="float"/>
                        </accessor>
                    </technique_common>
                </source>
                <source id="shape0-lib-normals" name="normal">
                    <float_array id="shape0-lib-normals-array" count="504">-0.999867 0.0155301 0.00505416 -0.999867 0.0155202 0.00506833 -0.0121844 -0.00100082 0.999925 -0.00817341 -0.000574988 0.999966 0.999985 0.00192085 0.00505347 0.999985 0.00193013 0.00506678 0.035862 0.000769276 0.999357 -0.0010103 -0.00353621 0.999993 0 0 -1 0 0 -1 -0.999985 -0.00192089 0.00505341 -0.999985 -0.00193069 0.00506747 0.999985 0.00192089 0.00505591 0.999985 0.00193056 0.00506979 0.00575375 0.00071262 0.999983 -0.00572733 -0.000712894 0.999983 0 0 -1 0 0 -1 -0.999985 -0.00192146 0.00505591 -0.999985 -0.00193113 0.00506979 0.999985 0.00192148 0.00505563 0.999985 0.001931 0.00506928 0.00573697 0.000712352 0.999983 -0.00573927 -0.000712552 0.999983 0 0 -1 0 0 -1 0.913359 -0.000804609 0.407155 -0.91333 0.000805239 0.407219 -0.999998 -0.00192092 0 -0.999973 -0.00537926 0.00507008 0.999998 0.00192089 0 0.999973 0.00537895 0.00506969 0.0277443 0.00320789 0.99961 -0.0277459 -0.00320847 0.99961 0 0 -1 0 0 -1 0.913344 -0.000805264 0.407189 -0.913358 0.000804757 0.407157 -0.999998 -0.00192033 0 -0.999973 -0.00537869 0.00507013 0.999998 0.00192032 0 0.999973 0.00537868 0.00507011 0.0277457 0.00320841 0.99961 -0.0277465 -0.0032082 0.99961 -0.02071 -0.999786 1.33957e-06 -0.0207211 -0.999785 -6.64855e-07 -0.00327286 -0.999995 -1.0961e-06 -0.00326724 -0.999995 -8.89539e-08 0.00328545 0.999995 -1.0316e-06 0.00327137 0.999995 1.51204e-06 -0.003262 -0.999995 2.53746e-08 -0.00326135 -0.999995 1.42898e-07 0.00326786 0.999995 1.27276e-06 0.00328545 0.999995 -1.9052e-06 -0.00327281 -0.999995 -1.08399e-06 -0.00326312 -0.999995 6.67679e-07 0.00324116 0.999995 -0.000110207 0.00324052 0.999995 -2.13127e-06 0.00322872 0.999995 0 -0.00326129 -0.999995 2.28475e-05 -0.00326202 -0.999995 3.34061e-07 -0.00326387 -0.999995 0 0.00324526 0.999995 0.000250508 0.00328545 0.999995 -2.15121e-06 0.00327354 0.999995 0 -0.0032596 -0.999995 6.1282e-05 -0.00327281 -0.999995 -1.13696e-06 -0.00326652 -0.999995 0 -0.999867 0.0155313 0.00505575 -0.999867 0.0155213 0.00507003 -0.0121927 -0.00100102 0.999925 -0.00817947 -0.00057495 0.999966 0.999985 0.00192089 0.00505585 0.999985 0.00193037 0.00506944 0.0358849 0.00076935 0.999356 -0.00100265 -0.00353776 0.999993 0 0 -1 0 0 -1 -0.999985 -0.00192145 0.00505569 -0.999985 -0.00193093 0.00506929 0.999985 0.00192089 0.00505588 0.999985 0.00193056 0.00506976 0.00573979 0.000712593 0.999983 -0.00573714 -0.000712394 0.999983 0 0 -1 0 0 -1 -0.999985 -0.00192146 0.00505535 -0.999985 -0.00193134 0.00506954 0.999985 0.00192146 0.00505566 0.999985 0.00193121 0.00506966 0.00573164 0.000712257 0.999983 -0.00574157 -0.000712276 0.999983 0 0 -1 0 0 -1 0.91341 -0.000804724 0.407039 -0.913331 0.000805161 0.407217 -0.999998 -0.00192088 0 -0.999973 -0.00537936 0.00507029 0.999998 0.00192091 0 0.999973 0.00537725 0.00506716 0.0277351 0.00320598 0.99961 -0.0277377 -0.0032084 0.99961 0 0 -1 0 0 -1 0.913273 -0.000805601 0.407348 -0.913274 0.000805787 0.407346 -0.999998 -0.00192091 0 -0.999973 -0.00538045 0.00507185 0.999998 0.00192091 0 0.999973 0.0053805 0.00507191 0.0277666 0.00321038 0.999609 -0.0277614 -0.00321016 0.999609 -0.0207094 -0.999786 1.3875e-06 -0.0207208 -0.999785 -6.65929e-07 -0.00327281 -0.999995 -1.09108e-06 -0.00326725 -0.999995 -9.28211e-08 0.00328544 0.999995 -1.03177e-06 0.0032714 0.999995 1.50446e-06 -0.003262 -0.999995 3.12665e-08 -0.00326136 -0.999995 1.46876e-07 0.00326786 0.999995 1.2746e-06 0.00328545 0.999995 -1.90396e-06 -0.00327281 -0.999995 -1.08091e-06 -0.00326314 -0.999995 6.67497e-07 0.00324118 0.999995 -0.000110208 0.00324058 0.999995 -2.13914e-06 0.00322874 0.999995 0 -0.00326133 -0.999995 2.30904e-05 -0.00326208 -0.999995 3.35062e-07 -0.00326393 -0.999995 0 0.00324529 0.999995 0.000249604 0.00328535 0.999995 -2.14587e-06 0.00327347 0.999995 0 -0.00325959 -0.999995 6.07154e-05 -0.00327271 -0.999995 -1.13188e-06 -0.00326644 -0.999995 0 0 0 -1 0 0 -1 0.91865 -0.0117957 0.394897 0.999864 -0.0155358 0.00550201 0.999812 -0.0193722 0 0 0 -1 0 0 -1 -0.740614 0.00114452 0.67193 -0.999971 -0.00758733 0 -0.999912 -0.0117928 0.0061589 0.0206938 0.999786 -6.41018e-05 0.0207022 0.999786 0 0.0207015 0.999786 1.48553e-07 0.00165622 0.9978 -0.0662777 -0.00530346 0.999986 -4.05742e-05 -0.00551835 0.999985 0 0 0 -1 0 0 -1 0.918725 -0.0117961 0.394722 0.999864 -0.0155318 0.00550177 0.999812 -0.019368 0 0 0 -1 0 0 -1 -0.740545 0.00114456 0.672006 -0.999971 -0.00758731 0 -0.999911 -0.0117947 0.00616171 0.0206938 0.999786 -6.8876e-05 0.0207025 0.999786 0 0.0207019 0.999786 1.13437e-07 0.00165572 0.9978 -0.0662746 -0.00530339 0.999986 -4.04634e-05 -0.0055177 0.999985 0</float_array>
                    <technique_common>
                        <accessor count="168" source="#shape0-lib-normals-array" stride="3">
                            <param name="X" type="float"/>
                            <param name="Y" type="float"/>
                            <param name="Z" type="float"/>
                        </accessor>
                    </technique_common>
                </source>
                <source id="shape0-lib-vcolor" name="vcolor">
                    <float_array id="shape0-lib-vcolor-array" count="416">1 1 1 1 1 1 1 1 1 1 1 1 1 1 1 1 1 1 1 1 1 1 1 1 1 1 1 1 1 1 1 1 1 1 1 1 1 1 1 1 1 1 1 1 1 1 1 1 1 1 1 1 1 1 1 1 1 1 1 1 1 1 1 1 1 1 1 1 1 1 1 1 1 1 1 1 1 1 1 1 1 1 1 1 1 1 1 1 1 1 1 1 1 1 1 1 1 1 1 1 1 1 1 1 1 1 1 1 1 1 1 1 1 1 1 1 1 1 1 1 1 1 1 1 1 1 1 1 1 1 1 1 1 1 1 1 1 1 1 1 1 1 1 1 1 1 1 1 1 1 1 1 1 1 1 1 1 1 1 1 1 1 1 1 1 1 1 1 1 1 1 1 1 1 1 1 1 1 1 1 1 1 1 1 1 1 1 1 1 1 1 1 1 1 1 1 1 1 1 1 1 1 1 1 1 1 1 1 1 1 1 1 1 1 1 1 1 1 1 1 1 1 1 1 1 1 1 1 1 1 1 1 1 1 1 1 1 1 1 1 1 1 1 1 1 1 1 1 1 1 1 1 1 1 1 1 1 1 1 1 1 1 1 1 1 1 1 1 1 1 1 1 1 1 1 1 1 1 1 1 1 1 1 1 1 1 1 1 1 1 1 1 1 1 1 1 1 1 1 1 1 1 1 1 1 1 1 1 1 1 1 1 1 1 1 1 1 1 1 1 1 1 1 1 1 1 1 1 1 1 1 1 1 1 1 1 1 1 1 1 1 1 1 1 1 1 1 1 1 1 1 1 1 1 1 1 1 1 1 1 1 1 1 1 1 1 1 1 1 1 1 1 1 1 1 1 1 1 1 1 1 1 1 1 1 1 1 1 1 1 1 1 1 1 1 1 1 1 1 1 1 1 1 1 1 1 1 1 1 1 1 1 1 1 1 1</float_array>
                    <technique_common>
                        <accessor count="104" source="#shape0-lib-vcolor-array" stride="4">
                            <param name="R" type="float"/>
                            <param name="G" type="float"/>
                            <param name="B" type="float"/>
                            <param name="A" type="float"/>
                        </accessor>
                    </technique_common>
                </source>
                <source id="shape0-lib-map" name="map">
                    <float_array id="shape0-lib-map-array" count="1008">0.460094 0.578209 0.454781 0.578209 0.454781 0.566618 0.460094 0.578209 0.454781 0.566618 0.460094 0.566618 0.0343478 0.663804 0.0350604 0.728607 0.0280849 0.728766 0.0343478 0.663804 0.0280849 0.728766 0.0271631 0.663967 0.448406 0.528368 0.453719 0.528368 0.453719 0.539959 0.448406 0.528368 0.453719 0.539959 0.448406 0.539959 0.0433712 0.663838 0.0432607 0.728644 0.0364577 0.728669 0.0433712 0.663838 0.0364577 0.728669 0.0361992 0.663864 0.276151 0.275436 0.276104 0.300547 0.279318 0.300536 0.276151 0.275436 0.279318 0.300536 0.279366 0.275425 0.447344 0.539959 0.442031 0.539959 0.442031 0.528368 0.447344 0.539959 0.442031 0.528368 0.447344 0.528368 0.454781 0.528368 0.460094 0.528368 0.460094 0.539959 0.454781 0.528368 0.460094 0.539959 0.454781 0.539959 0.0515834 0.663809 0.0514735 0.728615 0.0442758 0.72864 0.0515834 0.663809 0.0442758 0.72864 0.0443859 0.663834 0.279723 0.275424 0.279675 0.300535 0.28289 0.300525 0.279723 0.275424 0.28289 0.300525 0.282938 0.275414 0.434594 0.539959 0.429281 0.539959 0.429281 0.528368 0.434594 0.539959 0.429281 0.528368 0.434594 0.528368 0.550406 0.509243 0.555719 0.509243 0.555719 0.520834 0.550406 0.509243 0.555719 0.520834 0.550406 0.520834 0.0600788 0.663778 0.0599689 0.728584 0.0527712 0.72861 0.0600788 0.663778 0.0527712 0.72861 0.0528812 0.663804 0.283295 0.275412 0.283247 0.300523 0.286461 0.300513 0.283295 0.275412 0.286461 0.300513 0.286509 0.275402 0.0688001 0.663747 0.0684643 0.728554 0.0683081 0.663749 0.0610408 0.72858 0.0613766 0.663773 0.0615328 0.728578 0.409094 0.527209 0.403781 0.527209 0.403781 0.515618 0.409094 0.527209 0.403781 0.515618 0.409094 0.515618 0.518531 0.560243 0.523844 0.560243 0.523844 0.571834 0.518531 0.560243 0.523844 0.571834 0.518531 0.571834 0.0683081 0.663749 0.0684643 0.728554 0.0615328 0.728578 0.0683081 0.663749 0.0615328 0.728578 0.0613766 0.663773 0.286866 0.275401 0.286819 0.300512 0.290033 0.300501 0.286866 0.275401 0.290033 0.300501 0.290081 0.27539 0.0772956 0.663717 0.0769597 0.728524 0.0768034 0.663718 0.0695361 0.72855 0.069872 0.663743 0.0700282 0.728548 0.389969 0.527209 0.384656 0.527209 0.384656 0.515618 0.389969 0.527209 0.384656 0.515618 0.389969 0.515618 0.391031 0.515618 0.396344 0.515618 0.396344 0.527209 0.391031 0.515618 0.396344 0.527209 0.391031 0.527209 0.0768034 0.663718 0.0769597 0.728524 0.0700282 0.728548 0.0768034 0.663718 0.0700282 0.728548 0.069872 0.663743 0.0489415 0.310522 0.0489415 0.273452 0.0525056 0.273452 0.0489415 0.310522 0.0525056 0.273452 0.0525056 0.310522 0.0531425 0.310522 0.0531425 0.273452 0.0567073 0.273452 0.0531425 0.310522 0.0567073 0.273452 0.0567073 0.310522 0.068017 0.504454 0.068017 0.473268 0.062685 0.473268 0.068017 0.504454 0.062685 0.473268 0.062685 0.504454 0.0569713 0.310522 0.0569713 0.273452 0.0605361 0.273452 0.0569713 0.310522 0.0605361 0.273452 0.0605361 0.310522 0.0686094 0.473268 0.0686094 0.504454 0.0739413 0.504454 0.0686094 0.473268 0.0739413 0.504454 0.0739413 0.473268 0.0609322 0.310522 0.0609322 0.273452 0.064497 0.273452 0.0609322 0.310522 0.064497 0.273452 0.064497 0.310522 0.0684643 0.728554 0.0610408 0.72858 0.0615328 0.728578 0.0798656 0.504454 0.0798656 0.473268 0.0745337 0.473268 0.0798656 0.504454 0.0745337 0.473268 0.0745337 0.504454 0.0613766 0.663773 0.0688001 0.663747 0.0683081 0.663749 0.0648931 0.310522 0.0648931 0.273452 0.0684579 0.273452 0.0648931 0.310522 0.0684579 0.273452 0.0684579 0.310522 0.0769597 0.728524 0.0695361 0.72855 0.0700282 0.728548 0.08579 0.504454 0.08579 0.473268 0.0804581 0.473268 0.08579 0.504454 0.0804581 0.473268 0.0804581 0.504454 0.069872 0.663743 0.0772956 0.663717 0.0768034 0.663718 0.0688539 0.310522 0.0688539 0.273452 0.0724187 0.273452 0.0688539 0.310522 0.0724187 0.273452 0.0724187 0.310522 0.389969 0.584584 0.384656 0.584584 0.384656 0.572993 0.389969 0.584584 0.384656 0.572993 0.389969 0.572993 0.0852761 0.663804 0.0859886 0.728607 0.079013 0.728766 0.0852761 0.663804 0.079013 0.728766 0.0780913 0.663967 0.550406 0.521993 0.555719 0.521993 0.555719 0.533584 0.550406 0.521993 0.555719 0.533584 0.550406 0.533584 0.0942994 0.663838 0.0941889 0.728644 0.087386 0.728669 0.0942994 0.663838 0.087386 0.728669 0.0871274 0.663864 0.297563 0.275436 0.297515 0.300547 0.300729 0.300536 0.297563 0.275436 0.300729 0.300536 0.300777 0.275425 0.389969 0.539959 0.384656 0.539959 0.384656 0.528368 0.389969 0.539959 0.384656 0.528368 0.389969 0.528368 0.537656 0.521993 0.542969 0.521993 0.542969 0.533584 0.537656 0.521993 0.542969 0.533584 0.537656 0.533584 0.102512 0.663809 0.102402 0.728615 0.095204 0.72864 0.102512 0.663809 0.095204 0.72864 0.095314 0.663834 0.301134 0.275424 0.301087 0.300535 0.304301 0.300525 0.301134 0.275424 0.304301 0.300525 0.304349 0.275414 0.504719 0.527209 0.499406 0.527209 0.499406 0.515618 0.504719 0.527209 0.499406 0.515618 0.504719 0.515618 0.505781 0.515618 0.511094 0.515618 0.511094 0.527209 0.505781 0.515618 0.511094 0.527209 0.505781 0.527209 0.111007 0.663778 0.110897 0.728584 0.103699 0.72861 0.111007 0.663778 0.103699 0.72861 0.103809 0.663804 0.304706 0.275412 0.304658 0.300523 0.307873 0.300513 0.304706 0.275412 0.307873 0.300513 0.30792 0.275402 0.119728 0.663747 0.119393 0.728554 0.119236 0.663749 0.111969 0.72858 0.112304 0.663773 0.112461 0.728578 0.377219 0.539959 0.371906 0.539959 0.371906 0.528368 0.377219 0.539959 0.371906 0.528368 0.377219 0.528368 0.550406 0.560243 0.555719 0.560243 0.555719 0.571834 0.550406 0.560243 0.555719 0.571834 0.550406 0.571834 0.119236 0.663749 0.119393 0.728554 0.112461 0.728578 0.119236 0.663749 0.112461 0.728578 0.112304 0.663773 0.308278 0.275401 0.30823 0.300512 0.311444 0.300501 0.308278 0.275401 0.311444 0.300501 0.311492 0.27539 0.128224 0.663717 0.127888 0.728524 0.127732 0.663718 0.120464 0.72855 0.1208 0.663743 0.120956 0.728548 0.536594 0.527209 0.531281 0.527209 0.531281 0.515618 0.536594 0.527209 0.531281 0.515618 0.536594 0.515618 0.512156 0.515618 0.517469 0.515618 0.517469 0.527209 0.512156 0.515618 0.517469 0.527209 0.512156 0.527209 0.127732 0.663718 0.127888 0.728524 0.120956 0.728548 0.127732 0.663718 0.120956 0.728548 0.1208 0.663743 0.072686 0.310522 0.072686 0.273452 0.0762501 0.273452 0.072686 0.310522 0.0762501 0.273452 0.0762501 0.310522 0.0768871 0.310522 0.0768871 0.273452 0.0804518 0.273452 0.0768871 0.310522 0.0804518 0.273452 0.0804518 0.310522 0.103532 0.504454 0.103532 0.473268 0.0982002 0.473268 0.103532 0.504454 0.0982002 0.473268 0.0982002 0.504454 0.0807159 0.310522 0.0807159 0.273452 0.0842807 0.273452 0.0807159 0.310522 0.0842807 0.273452 0.0842807 0.310522 0.104125 0.473268 0.104125 0.504454 0.109456 0.504454 0.104125 0.473268 0.109456 0.504454 0.109456 0.473268 0.0846768 0.310522 0.0846768 0.273452 0.0882415 0.273452 0.0846768 0.310522 0.0882415 0.273452 0.0882415 0.310522 0.119393 0.728554 0.111969 0.72858 0.112461 0.728578 0.115381 0.504454 0.115381 0.473268 0.110049 0.473268 0.115381 0.504454 0.110049 0.473268 0.110049 0.504454 0.112304 0.663773 0.119728 0.663747 0.119236 0.663749 0.0886376 0.310522 0.0886376 0.273452 0.0922024 0.273452 0.0886376 0.310522 0.0922024 0.273452 0.0922024 0.310522 0.127888 0.728524 0.120464 0.72855 0.120956 0.728548 0.121305 0.504454 0.121305 0.473268 0.115973 0.473268 0.121305 0.504454 0.115973 0.473268 0.115973 0.504454 0.1208 0.663743 0.128224 0.663717 0.127732 0.663718 0.0925985 0.310522 0.0925985 0.273452 0.0961632 0.273452 0.0925985 0.310522 0.0961632 0.273452 0.0961632 0.310522 0.268911 0.275489 0.269297 0.300597 0.27251 0.30053 0.268911 0.275489 0.27251 0.30053 0.272124 0.275422 0.0343478 0.663804 0.0355032 0.728597 0.0350604 0.728607 0.537656 0.579368 0.542969 0.579368 0.542969 0.590959 0.537656 0.579368 0.542969 0.590959 0.537656 0.590959 0.272699 0.275447 0.272651 0.300558 0.275866 0.300548 0.272699 0.275447 0.275866 0.300548 0.275913 0.275437 0.0358377 0.728671 0.0361992 0.663864 0.0364577 0.728669 0.428219 0.539959 0.422906 0.539959 0.422906 0.528368 0.428219 0.539959 0.422906 0.528368 0.428219 0.528368 0.0350604 0.728607 0.0355032 0.728597 0.0280849 0.728766 0.0567249 0.504454 0.0567249 0.473268 0.0513941 0.473268 0.0567249 0.504454 0.0513941 0.473268 0.0513941 0.504454 0.0432607 0.728644 0.0358377 0.728671 0.0364577 0.728669 0.0622901 0.504454 0.0622901 0.473268 0.0569582 0.473268 0.0622901 0.504454 0.0569582 0.473268 0.0569582 0.504454 0.290322 0.275489 0.290708 0.300597 0.293922 0.30053 0.290322 0.275489 0.293922 0.30053 0.293536 0.275422 0.0852761 0.663804 0.0864314 0.728597 0.0859886 0.728607 0.505781 0.579368 0.511094 0.579368 0.511094 0.590959 0.505781 0.579368 0.511094 0.590959 0.505781 0.590959 0.29411 0.275447 0.294062 0.300558 0.297277 0.300548 0.29411 0.275447 0.297277 0.300548 0.297325 0.275437 0.0867659 0.728671 0.0871274 0.663864 0.087386 0.728669 0.549344 0.533584 0.544031 0.533584 0.544031 0.521993 0.549344 0.533584 0.544031 0.521993 0.549344 0.521993 0.0859886 0.728607 0.0864314 0.728597 0.079013 0.728766 0.0922401 0.504454 0.0922401 0.473268 0.0869093 0.473268 0.0922401 0.504454 0.0869093 0.473268 0.0869093 0.504454 0.0941889 0.728644 0.0867659 0.728671 0.087386 0.728669 0.0978053 0.504454 0.0978053 0.473268 0.0924734 0.473268 0.0978053 0.504454 0.0924734 0.473268 0.0924734 0.504454</float_array>
                    <technique_common>
                        <accessor count="504" source="#shape0-lib-map-array" stride="2">
                            <param name="U" type="float"/>
                            <param name="V" type="float"/>
                        </accessor>
                    </technique_common>
                </source>
                <vertices id="shape0-lib-vertices">
                    <input semantic="POSITION" source="#shape0-lib-positions"/>
                </vertices>
                <triangles count="168" material="material0">
                    <input offset="0" semantic="VERTEX" source="#shape0-lib-vertices"/>
                    <input offset="1" semantic="COLOR" source="#shape0-lib-vcolor"/>
                    <input offset="2" semantic="NORMAL" source="#shape0-lib-normals"/>
                    <input offset="3" semantic="TEXCOORD" source="#shape0-lib-map"/>
                    <p>4 4 0 0 1 1 0 1 0 0 0 2 4 4 1 3 0 0 1 4 3 3 1 5 5 5 2 6 6 6 2 7 4 4 2 8 5 5 3 9 4 4 3 10 3 3 3 11 12 12 4 12 9 9 4 13 8 8 4 14 12 12 5 15 8 8 5 16 11 11 5 17 12 12 6 18 11 11 6 19 13 13 6 20 12 12 7 21 13 13 7 22 10 10 7 23 14 14 8 24 15 15 8 25 16 16 8 26 14 14 9 27 16 16 9 28 17 17 9 29 19 19 10 30 15 15 10 31 14 14 10 32 19 19 11 33 14 14 11 34 18 18 11 35 21 21 12 36 17 17 12 37 16 16 12 38 21 21 13 39 16 16 13 40 20 20 13 41 21 21 14 42 20 20 14 43 19 19 14 44 21 21 15 45 19 19 15 46 18 18 15 47 22 22 16 48 23 23 16 49 24 24 16 50 22 22 17 51 24 24 17 52 25 25 17 53 27 27 18 54 23 23 18 55 22 22 18 56 27 27 19 57 22 22 19 58 26 26 19 59 29 29 20 60 25 25 20 61 24 24 20 62 29 29 21 63 24 24 21 64 28 28 21 65 29 29 22 66 28 28 22 67 27 27 22 68 29 29 23 69 27 27 23 70 26 26 23 71 30 30 24 72 31 31 24 73 32 32 24 74 30 30 25 75 32 32 25 76 33 33 25 77 37 37 26 78 36 36 26 79 38 38 26 80 35 35 27 81 34 34 27 82 39 39 27 83 35 35 28 84 31 31 28 85 30 30 28 86 35 35 29 87 30 30 29 88 34 34 29 89 37 37 30 90 33 33 30 91 32 32 30 92 37 37 31 93 32 32 31 94 36 36 31 95 38 38 32 96 36 36 32 97 39 39 32 98 38 38 33 99 39 39 33 100 34 34 33 101 40 40 34 102 41 41 34 103 42 42 34 104 40 40 35 105 42 42 35 106 43 43 35 107 47 47 36 108 46 46 36 109 48 48 36 110 45 45 37 111 44 44 37 112 49 49 37 113 45 45 38 114 41 41 38 115 40 40 38 116 45 45 39 117 40 40 39 118 44 44 39 119 47 47 40 120 43 43 40 121 42 42 40 122 47 47 41 123 42 42 41 124 46 46 41 125 48 48 42 126 46 46 42 127 49 49 42 128 48 48 43 129 49 49 43 130 44 44 43 131 3 3 44 132 0 0 44 133 2 2 44 134 3 3 45 135 2 2 45 136 5 5 45 137 10 10 46 138 7 7 46 139 9 9 46 140 10 10 47 141 9 9 47 142 12 12 47 143 20 20 48 144 16 16 48 145 15 15 48 146 20 20 49 147 15 15 49 148 19 19 49 149 18 18 50 150 14 14 50 151 17 17 50 152 18 18 51 153 17 17 51 154 21 21 51 155 23 23 52 156 27 27 52 157 28 28 52 158 23 23 53 159 28 28 53 160 24 24 53 161 26 26 54 162 22 22 54 163 25 25 54 164 26 26 55 165 25 25 55 166 29 29 55 167 36 36 56 168 35 35 56 169 39 39 56 170 36 36 57 171 32 32 57 172 31 31 57 173 36 36 58 174 31 31 58 175 35 35 58 176 34 34 59 177 37 37 59 178 38 38 59 179 34 34 60 180 30 30 60 181 33 33 60 182 34 34 61 183 33 33 61 184 37 37 61 185 46 46 62 186 45 45 62 187 49 49 62 188 46 46 63 189 42 42 63 190 41 41 63 191 46 46 64 192 41 41 64 193 45 45 64 194 44 44 65 195 47 47 65 196 48 48 65 197 44 44 66 198 40 40 66 199 43 43 66 200 44 44 67 201 43 43 67 202 47 47 67 203 54 54 68 204 51 51 68 205 50 50 68 206 54 54 69 207 50 50 69 208 53 53 69 209 55 55 70 210 56 56 70 211 54 54 70 212 55 55 71 213 54 54 71 214 53 53 71 215 62 62 72 216 59 59 72 217 58 58 72 218 62 62 73 219 58 58 73 220 61 61 73 221 62 62 74 222 61 61 74 223 63 63 74 224 62 62 75 225 63 63 75 226 60 60 75 227 64 64 76 228 65 65 76 229 66 66 76 230 64 64 77 231 66 66 77 232 67 67 77 233 69 69 78 234 65 65 78 235 64 64 78 236 69 69 79 237 64 64 79 238 68 68 79 239 71 71 80 240 67 67 80 241 66 66 80 242 71 71 81 243 66 66 81 244 70 70 81 245 71 71 82 246 70 70 82 247 69 69 82 248 71 71 83 249 69 69 83 250 68 68 83 251 72 72 84 252 73 73 84 253 74 74 84 254 72 72 85 255 74 74 85 256 75 75 85 257 77 77 86 258 73 73 86 259 72 72 86 260 77 77 87 261 72 72 87 262 76 76 87 263 79 79 88 264 75 75 88 265 74 74 88 266 79 79 89 267 74 74 89 268 78 78 89 269 79 79 90 270 78 78 90 271 77 77 90 272 79 79 91 273 77 77 91 274 76 76 91 275 80 80 92 276 81 81 92 277 82 82 92 278 80 80 93 279 82 82 93 280 83 83 93 281 87 87 94 282 86 86 94 283 88 88 94 284 85 85 95 285 84 84 95 286 89 89 95 287 85 85 96 288 81 81 96 289 80 80 96 290 85 85 97 291 80 80 97 292 84 84 97 293 87 87 98 294 83 83 98 295 82 82 98 296 87 87 99 297 82 82 99 298 86 86 99 299 88 88 100 300 86 86 100 301 89 89 100 302 88 88 101 303 89 89 101 304 84 84 101 305 90 90 102 306 91 91 102 307 92 92 102 308 90 90 103 309 92 92 103 310 93 93 103 311 97 97 104 312 96 96 104 313 98 98 104 314 95 95 105 315 94 94 105 316 99 99 105 317 95 95 106 318 91 91 106 319 90 90 106 320 95 95 107 321 90 90 107 322 94 94 107 323 97 97 108 324 93 93 108 325 92 92 108 326 97 97 109 327 92 92 109 328 96 96 109 329 98 98 110 330 96 96 110 331 99 99 110 332 98 98 111 333 99 99 111 334 94 94 111 335 53 53 112 336 50 50 112 337 52 52 112 338 53 53 113 339 52 52 113 340 55 55 113 341 60 60 114 342 57 57 114 343 59 59 114 344 60 60 115 345 59 59 115 346 62 62 115 347 70 70 116 348 66 66 116 349 65 65 116 350 70 70 117 351 65 65 117 352 69 69 117 353 68 68 118 354 64 64 118 355 67 67 118 356 68 68 119 357 67 67 119 358 71 71 119 359 73 73 120 360 77 77 120 361 78 78 120 362 73 73 121 363 78 78 121 364 74 74 121 365 76 76 122 366 72 72 122 367 75 75 122 368 76 76 123 369 75 75 123 370 79 79 123 371 86 86 124 372 85 85 124 373 89 89 124 374 86 86 125 375 82 82 125 376 81 81 125 377 86 86 126 378 81 81 126 379 85 85 126 380 84 84 127 381 87 87 127 382 88 88 127 383 84 84 128 384 80 80 128 385 83 83 128 386 84 84 129 387 83 83 129 388 87 87 129 389 96 96 130 390 95 95 130 391 99 99 130 392 96 96 131 393 92 92 131 394 91 91 131 395 96 96 132 396 91 91 132 397 95 95 132 398 94 94 133 399 97 97 133 400 98 98 133 401 94 94 134 402 90 90 134 403 93 93 134 404 94 94 135 405 93 93 135 406 97 97 135 407 0 0 136 408 1 1 136 409 100 100 136 410 0 0 137 411 100 100 137 412 2 2 137 413 5 5 138 414 101 101 138 415 6 6 138 416 5 5 139 417 2 2 139 418 100 100 139 419 5 5 140 420 100 100 140 421 101 101 140 422 7 7 141 423 100 100 141 424 8 8 141 425 7 7 142 426 8 8 142 427 9 9 142 428 101 101 143 429 10 10 143 430 13 13 143 431 101 101 144 432 100 100 144 433 7 7 144 434 101 101 145 435 7 7 145 436 10 10 145 437 6 6 146 438 101 101 146 439 4 4 146 440 101 101 147 441 100 100 147 442 1 1 147 443 101 101 148 444 1 1 148 445 4 4 148 446 11 11 149 447 101 101 149 448 13 13 149 449 11 11 150 450 8 8 150 451 100 100 150 452 11 11 151 453 100 100 151 454 101 101 151 455 50 50 152 456 51 51 152 457 102 102 152 458 50 50 153 459 102 102 153 460 52 52 153 461 55 55 154 462 103 103 154 463 56 56 154 464 55 55 155 465 52 52 155 466 102 102 155 467 55 55 156 468 102 102 156 469 103 103 156 470 57 57 157 471 102 102 157 472 58 58 157 473 57 57 158 474 58 58 158 475 59 59 158 476 103 103 159 477 60 60 159 478 63 63 159 479 103 103 160 480 102 102 160 481 57 57 160 482 103 103 161 483 57 57 161 484 60 60 161 485 56 56 162 486 103 103 162 487 54 54 162 488 103 103 163 489 102 102 163 490 51 51 163 491 103 103 164 492 51 51 164 493 54 54 164 494 61 61 165 495 103 103 165 496 63 63 165 497 61 61 166 498 58 58 166 499 102 102 166 500 61 61 167 501 102 102 167 502 103 103 167 503</p>
                </triangles>
            </mesh>
        </geometry>
    </library_geometries>
    <library_visual_scenes>
        <visual_scene id="VisualSceneNode" name="VisualScene">
            <node id="node" name="node">
                <instance_geometry url="#shape0-lib">
                    <bind_material>
                        <technique_common>
                            <instance_material symbol="material0" target="#material0">
                                <bind_vertex_input semantic="UVSET0" input_semantic="TEXCOORD"/>
                            </instance_material>
                        </technique_common>
                    </bind_material>
                </instance_geometry>
            </node>
        </visual_scene>
    </library_visual_scenes>
    <scene>
        <instance_visual_scene url="#VisualSceneNode"/>
    </scene>
</COLLADA>
