<?xml version="1.0" encoding="UTF-8"?>
<COLLADA xmlns="http://www.collada.org/2005/11/COLLADASchema" version="1.4.1">
    <asset>
        <contributor>
            <author>VCGLab</author>
            <authoring_tool>VCGLib | MeshLab</authoring_tool>
        </contributor>
        <created>Thu Jul 3 01:48:35 2025 GMT</created>
        <modified>Thu Jul 3 01:48:35 2025 GMT</modified>
        <up_axis>Y_UP</up_axis>
    </asset>
    <library_images>
        <image id="texture0" name="texture0">
            <init_from>./image/shelf_books.png</init_from>
        </image>
    </library_images>
    <library_materials>
        <material id="material0" name="material0">
            <instance_effect url="#material0-fx"/>
        </material>
    </library_materials>
    <library_effects>
        <effect id="material0-fx">
            <profile_COMMON>
                <newparam sid="texture0-surface">
                    <surface type="2D">
                        <init_from>texture0</init_from>
                        <format>R8G8B8</format>
                    </surface>
                </newparam>
                <newparam sid="texture0-sampler">
                    <sampler2D>
                        <source>texture0-surface</source>
                        <minfilter>LINEAR</minfilter>
                        <magfilter>LINEAR</magfilter>
                    </sampler2D>
                </newparam>
                <technique sid="common">
                    <blinn>
                        <diffuse>
                            <texture texture="texture0-sampler" texcoord="UVSET0"/>
                        </diffuse>
                    </blinn>
                </technique>
            </profile_COMMON>
        </effect>
    </library_effects>
    <library_geometries>
        <geometry id="shape0-lib" name="shape0">
            <mesh>
                <source id="shape0-lib-positions" name="position">
                    <float_array id="shape0-lib-positions-array" count="75">-0.0827615 0.0719823 -0.0567915 0.0772386 0.0719823 -0.0567915 0.0772386 0.0497073 -0.0567915 -0.0827615 0.0497073 -0.0567915 -0.0827615 0.0712467 0.0629772 0.0772386 0.0713851 0.0629288 0.0772386 0.0504429 0.0629772 -0.0827615 0.0503045 0.0629288 -0.0851565 0.0484218 -0.0567915 0.0866167 0.0457534 -0.0567915 -0.0856167 0.0262071 -0.0567915 -0.0851717 0.0476876 0.0629779 0.0866167 0.0457534 0.0603915 -0.0856037 0.0268372 0.0628889 0.0861812 0.0247326 0.0632308 0.0865902 0.0444797 0.0633145 -0.0854413 0.022237 -0.0567915 0.0862796 0.000347548 -0.0567915 -0.0855139 1.75762e-05 -0.0567915 -0.0854448 0.0212487 0.0631196 0.0862822 0.00108172 0.0629778 -0.0855119 0.000613775 0.0629298 0.0863549 0.0207146 0.0635044 0.0861562 0.0235388 -0.0567915 0.0861562 0.0235388 0.0603915</float_array>
                    <technique_common>
                        <accessor count="25" source="#shape0-lib-positions-array" stride="3">
                            <param name="X" type="float"/>
                            <param name="Y" type="float"/>
                            <param name="Z" type="float"/>
                        </accessor>
                    </technique_common>
                </source>
                <source id="shape0-lib-normals" name="normal">
                    <float_array id="shape0-lib-normals-array" count="126">0 0 -1 0 0 -1 0 0.999988 0.00498806 -0.000863232 0.999981 0.00614169 0 -0.999988 0.00498803 0.000863232 -0.999981 0.00614166 -0.000304304 0.00230964 0.999997 0.000304304 -0.00230964 0.999997 0.0163348 0.916573 0.399532 0.0155326 0.999879 0 0.0113503 0.999917 0.00613138 -0.00204179 -0.00419888 0.999989 -0.002039 -0.00422608 0.999989 0.00192072 -0.999986 0.00497979 0.00272208 -0.999978 0.00612966 -0.00020612 -0.0268127 0.99964 -0.00226825 -0.00919001 0.999955 1 0 0 1 0 0 -1 0 0 -1 0 0 -0.999785 0.0207116 4.05615e-07 -0.999785 0.0207167 -5.23645e-07 -0.999995 0.00326732 -2.64782e-06 -0.999995 0.00324812 7.51931e-07 0 0 -1 0 0 -1 -0.0120642 -0.92173 0.387644 -0.0155318 -0.999866 0.00526586 -0.0192 -0.999816 0 0 0 -1 0 0 -1 0.000797908 0.740636 0.671906 -0.00758614 0.999971 0 -0.0132126 0.999879 0.00824018 0.999785 -0.0207254 -9.07215e-05 0.999786 -0.0207086 3.34296e-05 0.999785 -0.0207254 0 0.999785 -0.0207254 0 0.997855 -0.00193678 -0.0654421 0.999986 0.00532107 -5.45142e-05 0.999984 0.0056118 0</float_array>
                    <technique_common>
                        <accessor count="42" source="#shape0-lib-normals-array" stride="3">
                            <param name="X" type="float"/>
                            <param name="Y" type="float"/>
                            <param name="Z" type="float"/>
                        </accessor>
                    </technique_common>
                </source>
                <source id="shape0-lib-vcolor" name="vcolor">
                    <float_array id="shape0-lib-vcolor-array" count="100">1 1 1 1 1 1 1 1 1 1 1 1 1 1 1 1 1 1 1 1 1 1 1 1 1 1 1 1 1 1 1 1 1 1 1 1 1 1 1 1 1 1 1 1 1 1 1 1 1 1 1 1 1 1 1 1 1 1 1 1 1 1 1 1 1 1 1 1 1 1 1 1 1 1 1 1 1 1 1 1 1 1 1 1 1 1 1 1 1 1 1 1 1 1 1 1 1 1 1 1</float_array>
                    <technique_common>
                        <accessor count="25" source="#shape0-lib-vcolor-array" stride="4">
                            <param name="R" type="float"/>
                            <param name="G" type="float"/>
                            <param name="B" type="float"/>
                            <param name="A" type="float"/>
                        </accessor>
                    </technique_common>
                </source>
                <source id="shape0-lib-map" name="map">
                    <float_array id="shape0-lib-map-array" count="252">0.430887 0.331695 0.454034 0.331695 0.454034 0.32844 0.430887 0.331695 0.454034 0.32844 0.430887 0.32844 0.384705 0.622882 0.384705 0.61757 0.396295 0.61757 0.384705 0.622882 0.396295 0.61757 0.396295 0.622882 0.371955 0.622882 0.371955 0.61757 0.383545 0.61757 0.371955 0.622882 0.383545 0.61757 0.383545 0.622882 0.414632 0.775102 0.481933 0.775181 0.481933 0.783836 0.414632 0.775102 0.481933 0.783836 0.414632 0.783757 0.485878 0.773133 0.413617 0.773866 0.485866 0.772551 0.422954 0.571882 0.422954 0.56657 0.434545 0.56657 0.422954 0.571882 0.434545 0.56657 0.434545 0.571882 0.413439 0.765294 0.485697 0.764414 0.485866 0.772551 0.413439 0.765294 0.485866 0.772551 0.413617 0.773866 0.48033 0.508132 0.48033 0.50282 0.49192 0.50282 0.48033 0.508132 0.49192 0.50282 0.49192 0.508132 0.413476 0.75424 0.485737 0.754457 0.485764 0.762724 0.413476 0.75424 0.485764 0.762724 0.413503 0.762768 0.635165 0.660553 0.594078 0.660313 0.594078 0.666456 0.635165 0.660553 0.594078 0.666456 0.635148 0.666238 0.635165 0.844095 0.594078 0.844335 0.594078 0.838192 0.635165 0.844095 0.594078 0.838192 0.635148 0.83841 0.635165 0.837598 0.594078 0.837838 0.594078 0.831711 0.635165 0.837598 0.594078 0.831711 0.634917 0.831873 0.635075 0.830375 0.594078 0.830616 0.594078 0.824488 0.635075 0.830375 0.594078 0.824488 0.635148 0.824705 0.43054 0.328252 0.455391 0.327862 0.455324 0.324615 0.43054 0.328252 0.455324 0.324615 0.430474 0.325005 0.413439 0.765294 0.485684 0.763807 0.485697 0.764414 0.49308 0.578257 0.49308 0.572945 0.50467 0.572945 0.49308 0.578257 0.50467 0.572945 0.50467 0.578257 0.430499 0.324424 0.455353 0.324473 0.455342 0.321225 0.430499 0.324424 0.455342 0.321225 0.430489 0.321176 0.485767 0.763399 0.413503 0.762768 0.485764 0.762724 0.537705 0.482632 0.537705 0.47732 0.549295 0.47732 0.537705 0.482632 0.549295 0.47732 0.549295 0.482632 0.635289 0.65344 0.634342 0.653095 0.634342 0.659222 0.635289 0.65344 0.634342 0.659222 0.635345 0.658819 0.634342 0.653095 0.594078 0.653095 0.594078 0.659222 0.634342 0.653095 0.594078 0.659222 0.634342 0.659222 0.635165 0.646939 0.634342 0.652827 0.635354 0.652373 0.635165 0.646939 0.594078 0.646699 0.594078 0.652827 0.635165 0.646939 0.594078 0.652827 0.634342 0.652827</float_array>
                    <technique_common>
                        <accessor count="126" source="#shape0-lib-map-array" stride="2">
                            <param name="U" type="float"/>
                            <param name="V" type="float"/>
                        </accessor>
                    </technique_common>
                </source>
                <vertices id="shape0-lib-vertices">
                    <input semantic="POSITION" source="#shape0-lib-positions"/>
                </vertices>
                <triangles count="42" material="material0">
                    <input offset="0" semantic="VERTEX" source="#shape0-lib-vertices"/>
                    <input offset="1" semantic="COLOR" source="#shape0-lib-vcolor"/>
                    <input offset="2" semantic="NORMAL" source="#shape0-lib-normals"/>
                    <input offset="3" semantic="TEXCOORD" source="#shape0-lib-map"/>
                    <p>0 0 0 0 1 1 0 1 2 2 0 2 0 0 1 3 2 2 1 4 3 3 1 5 5 5 2 6 1 1 2 7 0 0 2 8 5 5 3 9 0 0 3 10 4 4 3 11 7 7 4 12 3 3 4 13 2 2 4 14 7 7 5 15 2 2 5 16 6 6 5 17 7 7 6 18 6 6 6 19 5 5 6 20 7 7 7 21 5 5 7 22 4 4 7 23 12 12 8 24 11 11 8 25 15 15 8 26 12 12 9 27 9 9 9 28 8 8 9 29 12 12 10 30 8 8 10 31 11 11 10 32 13 13 11 33 14 14 11 34 15 15 11 35 13 13 12 36 15 15 12 37 11 11 12 38 21 21 13 39 18 18 13 40 17 17 13 41 21 21 14 42 17 17 14 43 20 20 14 44 21 21 15 45 20 20 15 46 22 22 15 47 21 21 16 48 22 22 16 49 19 19 16 50 6 6 17 51 2 2 17 52 1 1 17 53 6 6 18 54 1 1 18 55 5 5 18 56 4 4 19 57 0 0 19 58 3 3 19 59 4 4 20 60 3 3 20 61 7 7 20 62 11 11 21 63 8 8 21 64 10 10 21 65 11 11 22 66 10 10 22 67 13 13 22 68 19 19 23 69 16 16 23 70 18 18 23 71 19 19 24 72 18 18 24 73 21 21 24 74 8 8 25 75 9 9 25 76 23 23 25 77 8 8 26 78 23 23 26 79 10 10 26 80 13 13 27 81 24 24 27 82 14 14 27 83 13 13 28 84 10 10 28 85 23 23 28 86 13 13 29 87 23 23 29 88 24 24 29 89 16 16 30 90 23 23 30 91 17 17 30 92 16 16 31 93 17 17 31 94 18 18 31 95 24 24 32 96 19 19 32 97 22 22 32 98 24 24 33 99 23 23 33 100 16 16 33 101 24 24 34 102 16 16 34 103 19 19 34 104 14 14 35 105 24 24 35 106 12 12 35 107 14 14 36 108 12 12 36 109 15 15 36 110 24 24 37 111 23 23 37 112 9 9 37 113 24 24 38 114 9 9 38 115 12 12 38 116 20 20 39 117 24 24 39 118 22 22 39 119 20 20 40 120 17 17 40 121 23 23 40 122 20 20 41 123 23 23 41 124 24 24 41 125</p>
                </triangles>
            </mesh>
        </geometry>
    </library_geometries>
    <library_visual_scenes>
        <visual_scene id="VisualSceneNode" name="VisualScene">
            <node id="node" name="node">
                <instance_geometry url="#shape0-lib">
                    <bind_material>
                        <technique_common>
                            <instance_material symbol="material0" target="#material0">
                                <bind_vertex_input semantic="UVSET0" input_semantic="TEXCOORD"/>
                            </instance_material>
                        </technique_common>
                    </bind_material>
                </instance_geometry>
            </node>
        </visual_scene>
    </library_visual_scenes>
    <scene>
        <instance_visual_scene url="#VisualSceneNode"/>
    </scene>
</COLLADA>
