<?xml version="1.0" encoding="UTF-8"?>
<COLLADA xmlns="http://www.collada.org/2005/11/COLLADASchema" version="1.4.1">
    <asset>
        <contributor>
            <author>VCGLab</author>
            <authoring_tool>VCGLib | MeshLab</authoring_tool>
        </contributor>
        <created>Thu Jul 3 01:35:00 2025 GMT</created>
        <modified>Thu Jul 3 01:35:00 2025 GMT</modified>
        <up_axis>Y_UP</up_axis>
    </asset>
    <library_images>
        <image id="texture0" name="texture0">
            <init_from>./image/shelf_books.png</init_from>
        </image>
    </library_images>
    <library_materials>
        <material id="material0" name="material0">
            <instance_effect url="#material0-fx"/>
        </material>
    </library_materials>
    <library_effects>
        <effect id="material0-fx">
            <profile_COMMON>
                <newparam sid="texture0-surface">
                    <surface type="2D">
                        <init_from>texture0</init_from>
                        <format>R8G8B8</format>
                    </surface>
                </newparam>
                <newparam sid="texture0-sampler">
                    <sampler2D>
                        <source>texture0-surface</source>
                        <minfilter>LINEAR</minfilter>
                        <magfilter>LINEAR</magfilter>
                    </sampler2D>
                </newparam>
                <technique sid="common">
                    <blinn>
                        <diffuse>
                            <texture texture="texture0-sampler" texcoord="UVSET0"/>
                        </diffuse>
                    </blinn>
                </technique>
            </profile_COMMON>
        </effect>
    </library_effects>
    <library_geometries>
        <geometry id="shape0-lib" name="shape0">
            <mesh>
                <source id="shape0-lib-positions" name="position">
                    <float_array id="shape0-lib-positions-array" count="303">0.0138332 0.0114522 -0.0653 0.0360479 0.010992 -0.0653 0.0400181 0.0111675 -0.0653 0.0622374 0.0110948 -0.0653 0.0638834 0.0110893 -0.0653 0.0861027 0.0110168 -0.0653 0.0885715 0.0110087 -0.0653 0.110791 0.010936 -0.0653 0.11326 0.0109279 -0.0653 0.135479 0.0108554 -0.0653 0.137948 0.0108473 -0.0653 0.160167 0.0107746 -0.0653 -0.130167 0.0114522 -0.0653 -0.107952 0.010992 -0.0653 -0.103982 0.0111675 -0.0653 -0.0817626 0.0110948 -0.0653 -0.0801167 0.0110893 -0.0653 -0.0578974 0.0110168 -0.0653 -0.0554286 0.0110087 -0.0653 -0.0332093 0.010936 -0.0653 -0.0307406 0.0109279 -0.0653 -0.00852125 0.0108554 -0.0653 -0.00605243 0.0108473 -0.0653 0.0161669 0.0107746 -0.0653 0.0619075 0.182888 -0.0653 0.0635533 0.182883 -0.0653 0.0857727 0.18281 -0.0653 0.0882414 0.182802 -0.0653 0.110461 0.182729 -0.0653 0.11293 0.182721 -0.0653 0.135149 0.182649 -0.0653 0.137618 0.182641 -0.0653 0.159837 0.182568 -0.0653 -0.127499 0.183225 -0.0653 -0.0820926 0.182888 -0.0653 -0.0804468 0.182883 -0.0653 -0.0582274 0.18281 -0.0653 -0.0557586 0.182802 -0.0653 -0.0335393 0.182729 -0.0653 -0.0310705 0.182721 -0.0653 -0.00885122 0.182649 -0.0653 -0.0063824 0.182641 -0.0653 0.0138332 0.0114522 0.051883 0.0166307 0.0113942 0.0553 0.0353651 0.011006 0.0545011 0.040756 0.011165 0.0544231 0.0622374 0.0110948 0.051883 0.0608989 0.0110993 0.0548857 0.0644898 0.0110873 0.0543233 0.0854973 0.0110188 0.0544438 0.089178 0.0110067 0.0543233 0.110185 0.0109381 0.0544435 0.113866 0.010926 0.0543234 0.134873 0.0108573 0.0544436 0.138554 0.0108452 0.0543235 0.159561 0.0107765 0.0544436 -0.12956 0.0114398 0.0543229 -0.108611 0.0110056 0.0544944 -0.103244 0.011165 0.054423 -0.082368 0.0110968 0.0544439 -0.0795102 0.0110873 0.0543233 -0.0585028 0.0110188 0.0544438 -0.0548221 0.0110067 0.0543233 -0.0338147 0.0109381 0.0544438 -0.0301341 0.010926 0.0543232 -0.00912665 0.0108574 0.0544438 -0.0054216 0.0108884 0.0543969 0.0161669 0.0107746 0.051883 0.0375096 0.18279 0.0546922 0.0180803 0.183192 0.0550556 0.0613011 0.18289 0.0543234 0.0415737 0.182969 0.0550317 0.0641587 0.182881 0.0544438 0.0851661 0.182812 0.0543232 0.0888468 0.1828 0.0544438 0.109854 0.182731 0.054323 0.11293 0.182721 0.051883 0.134542 0.182651 0.054323 0.114268 0.182717 0.0548857 0.138223 0.182639 0.0544441 0.15923 0.18257 0.054323 -0.126893 0.183213 0.0544434 -0.10649 0.18279 0.0546922 -0.082699 0.18289 0.0543235 -0.102426 0.182969 0.0550319 -0.0798414 0.182881 0.0544438 -0.0588339 0.182812 0.0543233 -0.0551532 0.1828 0.0544438 -0.0341458 0.182731 0.0543233 -0.0304651 0.18272 0.0544438 -0.00945776 0.182651 0.0543232 -0.0063824 0.182641 0.051883 0.0142099 0.182548 0.0550121 -0.00504376 0.182636 0.0548858 0.0145074 0.0113695 0.0547456 -0.105284 0.182765 -0.0653 -0.105284 0.182765 0.051883 0.0165015 0.183225 -0.0653 0.0387161 0.182765 -0.0653 0.0165015 0.183225 0.051883 0.0387161 0.182765 0.051883</float_array>
                    <technique_common>
                        <accessor count="101" source="#shape0-lib-positions-array" stride="3">
                            <param name="X" type="float"/>
                            <param name="Y" type="float"/>
                            <param name="Z" type="float"/>
                        </accessor>
                    </technique_common>
                </source>
                <source id="shape0-lib-normals" name="normal">
                    <float_array id="shape0-lib-normals-array" count="504">0.0186744 -0.00134502 0.999825 0.0426251 0.00106161 0.999091 0.913359 -0.000805741 0.407155 0.999998 0.00192033 0 0.999973 0.0053782 0.0050694 0.0358915 0.00318695 0.999351 -0.0229727 -0.00343211 0.99973 0 0 -1 0 0 -1 -0.999985 -0.00192145 0.00505547 -0.999985 -0.00193095 0.0050691 0.999985 0.00192089 0.0050561 0.999985 0.00193087 0.00507041 0.00574211 0.000712686 0.999983 -0.0057375 -0.000712633 0.999983 0 0 -1 0 0 -1 -0.999985 -0.00192146 0.00505572 -0.999985 -0.00193117 0.00506966 0.999985 0.00192089 0.00505735 0.999985 0.00193096 0.00507179 0.00575292 0.000712405 0.999983 -0.00572171 -0.000712302 0.999983 0 0 -1 0 0 -1 -0.913419 0.000804263 0.407021 -0.999998 -0.00192092 0 -0.999973 -0.00537731 0.00506723 0.999985 0.00192089 0.00505785 0.999985 0.00193086 0.00507216 0.0277457 0.000754768 0.999615 -0.00572938 -0.00325971 0.999978 0 0 -1 0 0 -1 -0.999985 -0.00192089 0.00505335 -0.999985 -0.00193069 0.00506741 0.999985 0.00192089 0.00505785 0.999985 0.00193078 0.00507204 0.0057649 0.000712706 0.999983 -0.00571702 -0.000712874 0.999983 -0.0207116 -0.999785 0 -0.020717 -0.999785 -1.03106e-06 -0.00326258 -0.999995 3.90198e-05 -0.00327191 -0.999995 -8.45594e-07 -0.0032672 -0.999995 0 0.00328544 0.999995 -1.27876e-06 0.00327211 0.999995 1.12824e-06 -0.0032629 -0.999995 -2.70574e-08 -0.00326342 -0.999995 -1.20891e-07 0.00326361 0.999995 1.91709e-06 0.00328541 0.999995 -2.02182e-06 -0.00327188 -0.999995 -5.40243e-07 -0.00326108 -0.999995 1.41128e-06 0.00324147 0.999995 -0.000124365 0.00324056 0.999995 -2.37262e-06 0.00322743 0.999995 0 -0.00326294 -0.999995 2.39963e-07 -0.00326559 -0.999995 -2.38712e-07 0.0032855 0.999995 -1.89597e-06 0.00326437 0.999995 1.92094e-06 -0.00327196 -0.999995 -1.31016e-06 -0.0032671 -0.999995 -4.32999e-07 -0.999867 0.0155301 0.00505866 -0.999867 0.0155202 0.00507283 -0.0122115 -0.00100043 0.999925 -0.00819837 -0.000574361 0.999966 0.999985 0.00192089 0.00505541 0.999985 0.00193065 0.00506941 0.0358891 0.000769282 0.999355 -0.00101069 -0.00353917 0.999993 0 0 -1 0 0 -1 -0.999985 -0.00192149 0.00505585 -0.999985 -0.00193117 0.00506973 0.999985 0.00192089 0.00505563 0.999985 0.00193074 0.00506975 0.00573855 0.000712722 0.999983 -0.00574069 -0.000712554 0.999983 0 0 -1 0 0 -1 -0.999985 -0.00192087 0.00505566 -0.999985 -0.0019307 0.00506976 0.999985 0.00192087 0.00505563 0.999985 0.00193072 0.00506975 0.00574087 0.000712814 0.999983 -0.00574105 -0.000712792 0.999983 0 0 -1 0 0 -1 -0.999985 -0.00192031 0.00505589 -0.999985 -0.00193015 0.00507001 0.999985 0.0019207 0.00505567 0.999985 0.00193088 0.00507027 0.00573983 0.00071294 0.999983 -0.00574583 -0.000713122 0.999983 -0.91335 0.000850268 0.407175 -0.999998 -0.00192073 0 -0.999971 -0.00551678 0.00527199 -0.0065671 -0.00156806 0.999977 -0.0174278 -0.00280777 0.999844 -0.0207113 -0.999785 1.52083e-06 -0.020723 -0.999785 -5.96719e-07 -0.0032719 -0.999995 -8.38663e-07 -0.00326681 -0.999995 7.41756e-08 0.00328543 0.999995 -1.28091e-06 0.00327211 0.999995 1.12706e-06 -0.0032629 -0.999995 -2.50231e-08 -0.00326342 -0.999995 -1.19399e-07 0.00326361 0.999995 1.91725e-06 0.00328545 0.999995 -2.02826e-06 -0.00327191 -0.999995 -5.39785e-07 -0.00326104 -0.999995 1.42484e-06 0.00324052 0.999995 -2.3789e-06 0.00325083 0.999995 -4.24087e-06 -0.00326289 -0.999995 2.56128e-07 -0.00326555 -0.999995 -2.23614e-07 -0.00327191 -0.999995 0.000360689 -0.00527169 -0.999986 0 0 0 -1 0 0 -1 0.918735 -0.011908 0.394695 -0.973158 0.0151169 0.229641 -0.895059 0.0178078 0.445592 -0.252675 0.0035084 0.967545 -0.999879 0.015532 0 -0.999879 0.015532 0 0.999863 -0.0155312 0.00570037 0.99981 -0.0195061 0 0 0 -1 0 0 -1 -0.740549 0.00114407 0.672001 -0.999971 -0.0075873 0 -0.999911 -0.0117951 0.00616236 0.0207026 0.999786 -7.63513e-05 0.0206862 0.999786 4.60969e-05 0.0207026 0.999786 0 0.0207026 0.999786 0 -0.0160834 -0.994243 0.105933 -0.0177069 -0.999538 -0.0247141 0.00165319 0.997802 -0.0662448 -0.00530337 0.999986 -4.0339e-05 -0.00551702 0.999985 0 0 0 -1 0 0 -1 0.918776 -0.0117959 0.394604 0.999864 -0.01553 0.0054999 0.999812 -0.0193649 0 0 0 -1 0 0 -1 -0.740494 0.00114412 0.672062 -0.999971 -0.00758728 0 -0.999911 -0.0117965 0.00616451 0 0 -1 0 0 -1 0.806945 -0.00156569 0.590625 0.865203 0.000722993 0.501421 0.999998 -0.00194026 0 0.999998 -0.00194026 0 0.0206943 0.999786 -8.23238e-05 0.0207022 0.999786 0 0.020704 0.999786 -3.30127e-07 0.00165353 0.997802 -0.0662465 -0.00530337 0.999986 -4.03385e-05 -0.00551702 0.999985 0 -0.0250281 0.980709 0.193866 0.00456999 0.99999 -0.000345121 -0.0255121 0.999674 0 -0.0255121 0.999674 0 0.0198206 -0.976539 0.214425</float_array>
                    <technique_common>
                        <accessor count="168" source="#shape0-lib-normals-array" stride="3">
                            <param name="X" type="float"/>
                            <param name="Y" type="float"/>
                            <param name="Z" type="float"/>
                        </accessor>
                    </technique_common>
                </source>
                <source id="shape0-lib-vcolor" name="vcolor">
                    <float_array id="shape0-lib-vcolor-array" count="404">1 1 1 1 1 1 1 1 1 1 1 1 1 1 1 1 1 1 1 1 1 1 1 1 1 1 1 1 1 1 1 1 1 1 1 1 1 1 1 1 1 1 1 1 1 1 1 1 1 1 1 1 1 1 1 1 1 1 1 1 1 1 1 1 1 1 1 1 1 1 1 1 1 1 1 1 1 1 1 1 1 1 1 1 1 1 1 1 1 1 1 1 1 1 1 1 1 1 1 1 1 1 1 1 1 1 1 1 1 1 1 1 1 1 1 1 1 1 1 1 1 1 1 1 1 1 1 1 1 1 1 1 1 1 1 1 1 1 1 1 1 1 1 1 1 1 1 1 1 1 1 1 1 1 1 1 1 1 1 1 1 1 1 1 1 1 1 1 1 1 1 1 1 1 1 1 1 1 1 1 1 1 1 1 1 1 1 1 1 1 1 1 1 1 1 1 1 1 1 1 1 1 1 1 1 1 1 1 1 1 1 1 1 1 1 1 1 1 1 1 1 1 1 1 1 1 1 1 1 1 1 1 1 1 1 1 1 1 1 1 1 1 1 1 1 1 1 1 1 1 1 1 1 1 1 1 1 1 1 1 1 1 1 1 1 1 1 1 1 1 1 1 1 1 1 1 1 1 1 1 1 1 1 1 1 1 1 1 1 1 1 1 1 1 1 1 1 1 1 1 1 1 1 1 1 1 1 1 1 1 1 1 1 1 1 1 1 1 1 1 1 1 1 1 1 1 1 1 1 1 1 1 1 1 1 1 1 1 1 1 1 1 1 1 1 1 1 1 1 1 1 1 1 1 1 1 1 1 1 1 1 1 1 1 1 1 1 1 1 1 1 1 1 1 1 1 1 1 1 1 1 1 1 1 1 1 1 1 1 1 1 1 1 1 1 1 1 1 1 1 1 1 1 1</float_array>
                    <technique_common>
                        <accessor count="101" source="#shape0-lib-vcolor-array" stride="4">
                            <param name="R" type="float"/>
                            <param name="G" type="float"/>
                            <param name="B" type="float"/>
                            <param name="A" type="float"/>
                        </accessor>
                    </technique_common>
                </source>
                <source id="shape0-lib-map" name="map">
                    <float_array id="shape0-lib-map-array" count="1008">0.354352 0.925604 0.355082 0.990407 0.348437 0.990557 0.354352 0.925604 0.348437 0.990557 0.347925 0.92575 0.363619 0.925637 0.363282 0.990444 0.363127 0.925639 0.505781 0.541118 0.511094 0.541118 0.511094 0.552709 0.505781 0.541118 0.511094 0.552709 0.505781 0.552709 0.363127 0.925639 0.363282 0.990444 0.356479 0.990468 0.363127 0.925639 0.356479 0.990468 0.356221 0.925663 0.410695 0.376877 0.410647 0.401988 0.413862 0.401978 0.410695 0.376877 0.413862 0.401978 0.413909 0.376867 0.485594 0.559084 0.480281 0.559084 0.480281 0.547493 0.485594 0.559084 0.480281 0.547493 0.485594 0.547493 0.499406 0.547493 0.504719 0.547493 0.504719 0.559084 0.499406 0.547493 0.504719 0.559084 0.499406 0.559084 0.371605 0.925608 0.371496 0.990414 0.364298 0.99044 0.371605 0.925608 0.364298 0.99044 0.364407 0.925634 0.414266 0.376866 0.414219 0.401977 0.417433 0.401966 0.414266 0.376866 0.417433 0.401966 0.417481 0.376855 0.383594 0.559084 0.378281 0.559084 0.378281 0.547493 0.383594 0.559084 0.378281 0.547493 0.383594 0.547493 0.371906 0.547493 0.377219 0.547493 0.377219 0.559084 0.371906 0.547493 0.377219 0.559084 0.371906 0.559084 0.380101 0.925578 0.379991 0.990384 0.372793 0.990409 0.380101 0.925578 0.372793 0.990409 0.372903 0.925603 0.417838 0.376854 0.41779 0.401965 0.421005 0.401954 0.417838 0.376854 0.421005 0.401954 0.421052 0.376843 0.381062 0.99038 0.381398 0.925573 0.381554 0.990378 0.479219 0.552709 0.473906 0.552709 0.473906 0.541118 0.479219 0.552709 0.473906 0.541118 0.479219 0.541118 0.531281 0.560243 0.536594 0.560243 0.536594 0.571834 0.531281 0.560243 0.536594 0.571834 0.531281 0.571834 0.388596 0.925547 0.388486 0.990353 0.381554 0.990378 0.388596 0.925547 0.381554 0.990378 0.381398 0.925573 0.42141 0.376842 0.421362 0.401953 0.424576 0.401942 0.42141 0.376842 0.424576 0.401942 0.424624 0.376831 0.440969 0.552709 0.435656 0.552709 0.435656 0.541118 0.440969 0.552709 0.435656 0.541118 0.440969 0.541118 0.429281 0.541118 0.434594 0.541118 0.434594 0.552709 0.429281 0.541118 0.434594 0.552709 0.429281 0.552709 0.397091 0.925517 0.396982 0.990323 0.389784 0.990348 0.397091 0.925517 0.389784 0.990348 0.389893 0.925542 0.157019 0.442048 0.157019 0.404978 0.160583 0.404978 0.157019 0.442048 0.160583 0.404978 0.160583 0.442048 0.356221 0.925663 0.363619 0.925637 0.363127 0.925639 0.16122 0.442048 0.16122 0.404978 0.164785 0.404978 0.16122 0.442048 0.164785 0.404978 0.164785 0.442048 0.297078 0.643455 0.297078 0.605334 0.29056 0.605334 0.297078 0.643455 0.29056 0.605334 0.29056 0.643455 0.165049 0.442048 0.165049 0.404978 0.168613 0.404978 0.165049 0.442048 0.168613 0.404978 0.168613 0.442048 0.297802 0.605334 0.297802 0.643455 0.304319 0.643455 0.297802 0.605334 0.304319 0.643455 0.304319 0.605334 0.16901 0.442048 0.16901 0.404978 0.172574 0.404978 0.16901 0.442048 0.172574 0.404978 0.172574 0.442048 0.388486 0.990353 0.381062 0.99038 0.381554 0.990378 0.311561 0.643455 0.311561 0.605334 0.305043 0.605334 0.311561 0.643455 0.305043 0.605334 0.305043 0.643455 0.17297 0.442048 0.17297 0.404978 0.176535 0.404978 0.17297 0.442048 0.176535 0.404978 0.176535 0.442048 0.318803 0.643455 0.318803 0.605334 0.312285 0.605334 0.318803 0.643455 0.312285 0.605334 0.312285 0.643455 0.176931 0.442048 0.176931 0.404978 0.180496 0.404978 0.176931 0.442048 0.180496 0.404978 0.180496 0.442048 0.479219 0.578209 0.473906 0.578209 0.473906 0.566618 0.479219 0.578209 0.473906 0.566618 0.479219 0.566618 0.304818 0.925603 0.30553 0.990407 0.298555 0.990565 0.304818 0.925603 0.298555 0.990565 0.297633 0.925767 0.524906 0.534743 0.530219 0.534743 0.530219 0.546334 0.524906 0.534743 0.530219 0.546334 0.524906 0.546334 0.313841 0.925638 0.31373 0.990444 0.306928 0.990468 0.313841 0.925638 0.306928 0.990468 0.306669 0.925663 0.389862 0.376877 0.389814 0.401988 0.393029 0.401978 0.389862 0.376877 0.393029 0.401978 0.393077 0.376867 0.504719 0.546334 0.499406 0.546334 0.499406 0.534743 0.504719 0.546334 0.499406 0.534743 0.504719 0.534743 0.493031 0.541118 0.498344 0.541118 0.498344 0.552709 0.493031 0.541118 0.498344 0.552709 0.493031 0.552709 0.322053 0.925608 0.321944 0.990414 0.314746 0.99044 0.322053 0.925608 0.314746 0.99044 0.314855 0.925634 0.393434 0.376866 0.393386 0.401977 0.396601 0.401966 0.393434 0.376866 0.396601 0.401966 0.396648 0.376855 0.536594 0.514459 0.531281 0.514459 0.531281 0.502868 0.536594 0.514459 0.531281 0.502868 0.536594 0.502868 0.410156 0.528368 0.415469 0.528368 0.415469 0.539959 0.410156 0.528368 0.415469 0.539959 0.410156 0.539959 0.330549 0.925578 0.330439 0.990384 0.323241 0.990409 0.330549 0.925578 0.323241 0.990409 0.323351 0.925603 0.397005 0.376854 0.396958 0.401965 0.400172 0.401954 0.397005 0.376854 0.400172 0.401954 0.40022 0.376843 0.402719 0.539959 0.397406 0.539959 0.397406 0.528368 0.402719 0.539959 0.397406 0.528368 0.402719 0.528368 0.524906 0.560243 0.530219 0.560243 0.530219 0.571834 0.524906 0.560243 0.530219 0.571834 0.524906 0.571834 0.339044 0.925547 0.338935 0.990353 0.331737 0.990379 0.339044 0.925547 0.331737 0.990379 0.331846 0.925573 0.340006 0.990349 0.340357 0.925548 0.340498 0.990347 0.498344 0.527209 0.493031 0.527209 0.493031 0.515618 0.498344 0.527209 0.493031 0.515618 0.498344 0.515618 0.347308 0.92555 0.347113 0.990308 0.340498 0.990347 0.347308 0.92555 0.340498 0.990347 0.340357 0.925548 0.133916 0.442048 0.133916 0.404978 0.13748 0.404978 0.133916 0.442048 0.13748 0.404978 0.13748 0.442048 0.138117 0.442048 0.138117 0.404978 0.141682 0.404978 0.138117 0.442048 0.141682 0.404978 0.141682 0.442048 0.254838 0.643455 0.254838 0.605334 0.24832 0.605334 0.254838 0.643455 0.24832 0.605334 0.24832 0.643455 0.141946 0.442048 0.141946 0.404978 0.145511 0.404978 0.141946 0.442048 0.145511 0.404978 0.145511 0.442048 0.255562 0.605334 0.255562 0.643455 0.26208 0.643455 0.255562 0.605334 0.26208 0.643455 0.26208 0.605334 0.145907 0.442048 0.145907 0.404978 0.149472 0.404978 0.145907 0.442048 0.149472 0.404978 0.149472 0.442048 0.269322 0.643455 0.269322 0.605334 0.262804 0.605334 0.269322 0.643455 0.262804 0.605334 0.262804 0.643455 0.149868 0.442048 0.149868 0.404978 0.153432 0.404978 0.149868 0.442048 0.153432 0.404978 0.153432 0.442048 0.153828 0.442048 0.153828 0.404978 0.157393 0.404978 0.153828 0.442048 0.157393 0.404978 0.157393 0.442048 0.403454 0.37693 0.40384 0.402038 0.407054 0.401971 0.403454 0.37693 0.407054 0.401971 0.406668 0.376863 0.354352 0.925604 0.355525 0.990396 0.355082 0.990407 0.347881 0.99057 0.346963 0.925772 0.347245 0.925765 0.347881 0.99057 0.347245 0.925765 0.348437 0.990557 0.348437 0.990557 0.347245 0.925765 0.347925 0.92575 0.549344 0.578209 0.544031 0.578209 0.544031 0.566618 0.549344 0.578209 0.544031 0.566618 0.549344 0.566618 0.499406 0.579368 0.504719 0.579368 0.504719 0.590959 0.499406 0.579368 0.504719 0.590959 0.499406 0.590959 0.407242 0.376889 0.407194 0.402 0.410409 0.401989 0.407242 0.376889 0.410409 0.401989 0.410457 0.376878 0.355859 0.99047 0.356221 0.925663 0.356479 0.990468 0.491969 0.552709 0.486656 0.552709 0.486656 0.541118 0.491969 0.552709 0.486656 0.541118 0.491969 0.541118 0.355082 0.990407 0.355525 0.990396 0.347881 0.99057 0.355082 0.990407 0.347881 0.99057 0.348437 0.990557 0.283274 0.643455 0.283274 0.605334 0.276758 0.605334 0.283274 0.643455 0.276758 0.605334 0.276758 0.643455 0.347925 0.92575 0.347245 0.925765 0.354352 0.925604 0.347245 0.925765 0.346963 0.925772 0.354352 0.925604 0.363282 0.990444 0.355859 0.99047 0.356479 0.990468 0.290077 0.643455 0.290077 0.605334 0.28356 0.605334 0.290077 0.643455 0.28356 0.605334 0.28356 0.643455 0.382621 0.37693 0.383008 0.402038 0.386221 0.401971 0.382621 0.37693 0.386221 0.401971 0.385835 0.376863 0.304818 0.925603 0.305973 0.990396 0.30553 0.990407 0.473906 0.579368 0.479219 0.579368 0.479219 0.590959 0.473906 0.579368 0.479219 0.590959 0.473906 0.590959 0.38641 0.376889 0.386362 0.402 0.389576 0.401989 0.38641 0.376889 0.389576 0.401989 0.389624 0.376878 0.306308 0.99047 0.306669 0.925663 0.306928 0.990468 0.421844 0.552709 0.416531 0.552709 0.416531 0.541118 0.421844 0.552709 0.416531 0.541118 0.421844 0.541118 0.400577 0.376842 0.400529 0.401953 0.403744 0.401942 0.400577 0.376842 0.403744 0.401942 0.403792 0.376831 0.347766 0.925516 0.347652 0.990322 0.347113 0.990308 0.347766 0.925516 0.347113 0.990308 0.347308 0.92555 0.480281 0.515618 0.485594 0.515618 0.485594 0.527209 0.480281 0.515618 0.485594 0.527209 0.480281 0.527209 0.30553 0.990407 0.305973 0.990396 0.298555 0.990565 0.241035 0.643455 0.241035 0.605334 0.234519 0.605334 0.241035 0.643455 0.234519 0.605334 0.234519 0.643455 0.31373 0.990444 0.306308 0.99047 0.306928 0.990468 0.247838 0.643455 0.247838 0.605334 0.24132 0.605334 0.247838 0.643455 0.24132 0.605334 0.24132 0.643455 0.347113 0.990308 0.347652 0.990322 0.340006 0.990349 0.347113 0.990308 0.340006 0.990349 0.340498 0.990347 0.276563 0.643455 0.276563 0.605334 0.270046 0.605334 0.276563 0.643455 0.270046 0.605334 0.270046 0.643455 0.340357 0.925548 0.347766 0.925516 0.347308 0.92555</float_array>
                    <technique_common>
                        <accessor count="504" source="#shape0-lib-map-array" stride="2">
                            <param name="U" type="float"/>
                            <param name="V" type="float"/>
                        </accessor>
                    </technique_common>
                </source>
                <vertices id="shape0-lib-vertices">
                    <input semantic="POSITION" source="#shape0-lib-positions"/>
                </vertices>
                <triangles count="168" material="material0">
                    <input offset="0" semantic="VERTEX" source="#shape0-lib-vertices"/>
                    <input offset="1" semantic="COLOR" source="#shape0-lib-vcolor"/>
                    <input offset="2" semantic="NORMAL" source="#shape0-lib-normals"/>
                    <input offset="3" semantic="TEXCOORD" source="#shape0-lib-map"/>
                    <p>44 44 0 0 68 68 0 1 69 69 0 2 44 44 1 3 69 69 1 4 43 43 1 5 46 46 2 6 70 70 2 7 47 47 2 8 46 46 3 9 3 3 3 10 24 24 3 11 46 46 4 12 24 24 4 13 70 70 4 14 47 47 5 15 70 70 5 16 71 71 5 17 47 47 6 18 71 71 6 19 45 45 6 20 4 4 7 21 25 25 7 22 26 26 7 23 4 4 8 24 26 26 8 25 5 5 8 26 72 72 9 27 25 25 9 28 4 4 9 29 72 72 10 30 4 4 10 31 48 48 10 32 49 49 11 33 5 5 11 34 26 26 11 35 49 49 12 36 26 26 12 37 73 73 12 38 49 49 13 39 73 73 13 40 72 72 13 41 49 49 14 42 72 72 14 43 48 48 14 44 6 6 15 45 27 27 15 46 28 28 15 47 6 6 16 48 28 28 16 49 7 7 16 50 74 74 17 51 27 27 17 52 6 6 17 53 74 74 18 54 6 6 18 55 50 50 18 56 51 51 19 57 7 7 19 58 28 28 19 59 51 51 20 60 28 28 20 61 75 75 20 62 51 51 21 63 75 75 21 64 74 74 21 65 51 51 22 66 74 74 22 67 50 50 22 68 8 8 23 69 29 29 23 70 30 30 23 71 8 8 24 72 30 30 24 73 9 9 24 74 76 76 25 75 52 52 25 76 78 78 25 77 76 76 26 78 29 29 26 79 8 8 26 80 76 76 27 81 8 8 27 82 52 52 27 83 53 53 28 84 9 9 28 85 30 30 28 86 53 53 29 87 30 30 29 88 77 77 29 89 53 53 30 90 77 77 30 91 78 78 30 92 53 53 31 93 78 78 31 94 52 52 31 95 10 10 32 96 31 31 32 97 32 32 32 98 10 10 33 99 32 32 33 100 11 11 33 101 79 79 34 102 31 31 34 103 10 10 34 104 79 79 35 105 10 10 35 106 54 54 35 107 55 55 36 108 11 11 36 109 32 32 36 110 55 55 37 111 32 32 37 112 80 80 37 113 55 55 38 114 80 80 38 115 79 79 38 116 55 55 39 117 79 79 39 118 54 54 39 119 42 42 40 120 0 0 40 121 1 1 40 122 42 42 41 123 1 1 41 124 44 44 41 125 45 45 42 126 46 46 42 127 47 47 42 128 45 45 43 129 2 2 43 130 3 3 43 131 45 45 44 132 3 3 44 133 46 46 44 134 73 73 45 135 26 26 45 136 25 25 45 137 73 73 46 138 25 25 46 139 72 72 46 140 48 48 47 141 4 4 47 142 5 5 47 143 48 48 48 144 5 5 48 145 49 49 48 146 27 27 49 147 74 74 49 148 75 75 49 149 27 27 50 150 75 75 50 151 28 28 50 152 50 50 51 153 6 6 51 154 7 7 51 155 50 50 52 156 7 7 52 157 51 51 52 158 77 77 53 159 76 76 53 160 78 78 53 161 77 77 54 162 30 30 54 163 29 29 54 164 77 77 55 165 29 29 55 166 76 76 55 167 52 52 56 168 8 8 56 169 9 9 56 170 52 52 57 171 9 9 57 172 53 53 57 173 80 80 58 174 32 32 58 175 31 31 58 176 80 80 59 177 31 31 59 178 79 79 59 179 54 54 60 180 10 10 60 181 11 11 60 182 54 54 61 183 11 11 61 184 55 55 61 185 81 81 62 186 33 33 62 187 12 12 62 188 81 81 63 189 12 12 63 190 56 56 63 191 57 57 64 192 82 82 64 193 81 81 64 194 57 57 65 195 81 81 65 196 56 56 65 197 59 59 66 198 15 15 66 199 34 34 66 200 59 59 67 201 34 34 67 202 83 83 67 203 59 59 68 204 83 83 68 205 84 84 68 206 59 59 69 207 84 84 69 208 58 58 69 209 16 16 70 210 35 35 70 211 36 36 70 212 16 16 71 213 36 36 71 214 17 17 71 215 85 85 72 216 35 35 72 217 16 16 72 218 85 85 73 219 16 16 73 220 60 60 73 221 61 61 74 222 17 17 74 223 36 36 74 224 61 61 75 225 36 36 75 226 86 86 75 227 61 61 76 228 86 86 76 229 85 85 76 230 61 61 77 231 85 85 77 232 60 60 77 233 18 18 78 234 37 37 78 235 38 38 78 236 18 18 79 237 38 38 79 238 19 19 79 239 87 87 80 240 37 37 80 241 18 18 80 242 87 87 81 243 18 18 81 244 62 62 81 245 63 63 82 246 19 19 82 247 38 38 82 248 63 63 83 249 38 38 83 250 88 88 83 251 63 63 84 252 88 88 84 253 87 87 84 254 63 63 85 255 87 87 85 256 62 62 85 257 20 20 86 258 39 39 86 259 40 40 86 260 20 20 87 261 40 40 87 262 21 21 87 263 89 89 88 264 39 39 88 265 20 20 88 266 89 89 89 267 20 20 89 268 64 64 89 269 65 65 90 270 21 21 90 271 40 40 90 272 65 65 91 273 40 40 91 274 90 90 91 275 65 65 92 276 90 90 92 277 89 89 92 278 65 65 93 279 89 89 93 280 64 64 93 281 91 91 94 282 66 66 94 283 93 93 94 284 91 91 95 285 41 41 95 286 22 22 95 287 91 91 96 288 22 22 96 289 66 66 96 290 94 94 97 291 92 92 97 292 93 93 97 293 94 94 98 294 93 93 98 295 66 66 98 296 56 56 99 297 12 12 99 298 13 13 99 299 56 56 100 300 13 13 100 301 57 57 100 302 58 58 101 303 14 14 101 304 15 15 101 305 58 58 102 306 15 15 102 307 59 59 102 308 86 86 103 309 36 36 103 310 35 35 103 311 86 86 104 312 35 35 104 313 85 85 104 314 60 60 105 315 16 16 105 316 17 17 105 317 60 60 106 318 17 17 106 319 61 61 106 320 37 37 107 321 87 87 107 322 88 88 107 323 37 37 108 324 88 88 108 325 38 38 108 326 62 62 109 327 18 18 109 328 19 19 109 329 62 62 110 330 19 19 110 331 63 63 110 332 90 90 111 333 40 40 111 334 39 39 111 335 90 90 112 336 39 39 112 337 89 89 112 338 64 64 113 339 20 20 113 340 21 21 113 341 64 64 114 342 21 21 114 343 65 65 114 344 66 66 115 345 22 22 115 346 23 23 115 347 66 66 116 348 23 23 116 349 67 67 116 350 0 0 117 351 97 97 117 352 98 98 117 353 0 0 118 354 98 98 118 355 1 1 118 356 44 44 119 357 100 100 119 358 68 68 119 359 99 99 120 360 42 42 120 361 94 94 120 362 99 99 121 363 94 94 121 364 69 69 121 365 69 69 122 366 94 94 122 367 43 43 122 368 99 99 123 369 97 97 123 370 0 0 123 371 99 99 124 372 0 0 124 373 42 42 124 374 44 44 125 375 1 1 125 376 98 98 125 377 44 44 126 378 98 98 126 379 100 100 126 380 2 2 127 381 98 98 127 382 24 24 127 383 2 2 128 384 24 24 128 385 3 3 128 386 100 100 129 387 45 45 129 388 71 71 129 389 100 100 130 390 98 98 130 391 2 2 130 392 100 100 131 393 2 2 131 394 45 45 131 395 68 68 132 396 100 100 132 397 99 99 132 398 68 68 133 399 99 99 133 400 69 69 133 401 100 100 134 402 98 98 134 403 97 97 134 404 100 100 135 405 97 97 135 406 99 99 135 407 43 43 136 408 94 94 136 409 44 44 136 410 94 94 137 411 42 42 137 412 44 44 137 413 70 70 138 414 100 100 138 415 71 71 138 416 70 70 139 417 24 24 139 418 98 98 139 419 70 70 140 420 98 98 140 421 100 100 140 422 12 12 141 423 33 33 141 424 95 95 141 425 12 12 142 426 95 95 142 427 13 13 142 428 57 57 143 429 96 96 143 430 82 82 143 431 57 57 144 432 13 13 144 433 95 95 144 434 57 57 145 435 95 95 145 436 96 96 145 437 14 14 146 438 95 95 146 439 34 34 146 440 14 14 147 441 34 34 147 442 15 15 147 443 96 96 148 444 58 58 148 445 84 84 148 446 96 96 149 447 95 95 149 448 14 14 149 449 96 96 150 450 14 14 150 451 58 58 150 452 22 22 151 453 41 41 151 454 97 97 151 455 22 22 152 456 97 97 152 457 23 23 152 458 67 67 153 459 99 99 153 460 92 92 153 461 67 67 154 462 92 92 154 463 94 94 154 464 67 67 155 465 23 23 155 466 97 97 155 467 67 67 156 468 97 97 156 469 99 99 156 470 82 82 157 471 96 96 157 472 81 81 157 473 96 96 158 474 95 95 158 475 33 33 158 476 96 96 159 477 33 33 159 478 81 81 159 479 83 83 160 480 96 96 160 481 84 84 160 482 83 83 161 483 34 34 161 484 95 95 161 485 83 83 162 486 95 95 162 487 96 96 162 488 92 92 163 489 99 99 163 490 91 91 163 491 92 92 164 492 91 91 164 493 93 93 164 494 99 99 165 495 97 97 165 496 41 41 165 497 99 99 166 498 41 41 166 499 91 91 166 500 66 66 167 501 67 67 167 502 94 94 167 503</p>
                </triangles>
            </mesh>
        </geometry>
    </library_geometries>
    <library_visual_scenes>
        <visual_scene id="VisualSceneNode" name="VisualScene">
            <node id="node" name="node">
                <instance_geometry url="#shape0-lib">
                    <bind_material>
                        <technique_common>
                            <instance_material symbol="material0" target="#material0">
                                <bind_vertex_input semantic="UVSET0" input_semantic="TEXCOORD"/>
                            </instance_material>
                        </technique_common>
                    </bind_material>
                </instance_geometry>
            </node>
        </visual_scene>
    </library_visual_scenes>
    <scene>
        <instance_visual_scene url="#VisualSceneNode"/>
    </scene>
</COLLADA>
