<?xml version="1.0" encoding="UTF-8"?>
<COLLADA xmlns="http://www.collada.org/2005/11/COLLADASchema" version="1.4.1">
    <asset>
        <contributor>
            <author>VCGLab</author>
            <authoring_tool>VCGLib | MeshLab</authoring_tool>
        </contributor>
        <created>Thu Jul 3 01:42:22 2025 GMT</created>
        <modified>Thu Jul 3 01:42:22 2025 GMT</modified>
        <up_axis>Y_UP</up_axis>
    </asset>
    <library_images>
        <image id="texture0" name="texture0">
            <init_from>./image/shelf_items.png</init_from>
        </image>
    </library_images>
    <library_materials>
        <material id="material0" name="material0">
            <instance_effect url="#material0-fx"/>
        </material>
    </library_materials>
    <library_effects>
        <effect id="material0-fx">
            <profile_COMMON>
                <newparam sid="texture0-surface">
                    <surface type="2D">
                        <init_from>texture0</init_from>
                        <format>R8G8B8</format>
                    </surface>
                </newparam>
                <newparam sid="texture0-sampler">
                    <sampler2D>
                        <source>texture0-surface</source>
                        <minfilter>LINEAR</minfilter>
                        <magfilter>LINEAR</magfilter>
                    </sampler2D>
                </newparam>
                <technique sid="common">
                    <blinn>
                        <diffuse>
                            <texture texture="texture0-sampler" texcoord="UVSET0"/>
                        </diffuse>
                    </blinn>
                </technique>
            </profile_COMMON>
        </effect>
    </library_effects>
    <library_geometries>
        <geometry id="shape0-lib" name="shape0">
            <mesh>
                <source id="shape0-lib-positions" name="position">
                    <float_array id="shape0-lib-positions-array" count="81">-0.938998 -0.684581 0.0178758 -0.863155 -0.686333 0.0931508 -0.888072 -0.510872 -0.0254667 -0.869983 -0.51408 -0.0300477 -0.91023 -0.514149 -0.014333 -0.924712 -0.510867 0.0217396 -0.91367 -0.514195 0.0591336 -0.895291 -0.511238 0.0728906 -0.868881 -0.514705 0.0817316 -0.822334 -0.51408 0.0525319 -0.815943 -0.511052 0.0309721 -0.820093 -0.514669 -0.00251347 -0.84636 -0.511592 -0.0240443 -0.888002 -0.682935 -0.0421171 -0.905709 -0.687185 -0.0330866 -0.925355 -0.68287 -0.0181559 -0.93536 -0.682813 0.050224 -0.918734 -0.686289 0.0729408 -0.897486 -0.682856 0.0894863 -0.835261 -0.68295 0.0851831 -0.814502 -0.682803 0.0677123 -0.804427 -0.688602 0.044729 -0.800356 -0.682939 0.0196854 -0.815041 -0.682991 -0.0185249 -0.835837 -0.688335 -0.0339625 -0.860805 -0.68295 -0.0446062 -0.840326 -0.510787 0.0697379</float_array>
                    <technique_common>
                        <accessor count="27" source="#shape0-lib-positions-array" stride="3">
                            <param name="X" type="float"/>
                            <param name="Y" type="float"/>
                            <param name="Z" type="float"/>
                        </accessor>
                    </technique_common>
                </source>
                <source id="shape0-lib-normals" name="normal">
                    <float_array id="shape0-lib-normals-array" count="150">-0.0460729 -0.86598 -0.497951 -0.0201553 -0.910394 -0.413251 -0.33302 -0.927442 -0.170142 -0.316725 -0.944496 0.0872553 -0.132039 -0.92312 0.36113 0.306731 -0.882288 0.357049 0.193781 -0.940508 0.279095 0.34253 -0.929036 -0.139876 0.379993 -0.913587 -0.144792 -0.231871 0.955935 -0.180068 -0.2765 0.946584 0.165909 0.0114847 0.942096 0.335148 0.392955 0.887393 0.24108 0.221163 0.966295 -0.13176 0.0316756 0.873142 -0.486437 -0.228771 0.093673 -0.968963 -0.0907947 0.0806384 -0.9926 -0.457277 0.0840048 -0.885348 -0.468783 0.0848912 -0.879224 -0.593553 0.0713698 -0.801624 -0.933177 0.0845136 -0.349339 -0.92125 0.0911492 -0.37814 -0.991089 0.079123 0.107152 -0.950927 0.106982 0.290333 -0.799678 0.0713654 0.596173 -0.62059 0.0833345 0.779694 -0.605617 0.0813326 0.791589 -0.304691 0.0955359 0.947648 -0.0996452 0.0627478 0.993043 0.374579 0.0937756 0.92244 0.265745 0.0728242 0.961289 0.64111 0.0872659 0.762472 0.697074 0.0962793 0.710506 0.95204 0.0845334 0.294065 0.920147 0.0772457 0.383878 0.981169 0.0773513 0.176987 0.986267 0.0981571 -0.132828 0.931615 0.0620263 -0.358115 0.580797 0.0800399 -0.810104 0.637668 0.0918902 -0.764811 0.404727 0.0752379 -0.911337 0.235641 0.0961789 -0.967069 -0.0164068 -0.99986 0.00315364 -0.0258634 -0.999546 0.0154677 -0.00369047 -0.999961 0.00799617 -0.0801558 -0.996781 -0.00142443 0.0176084 0.999798 -0.00972277 -0.000619197 1 -0.000581614 -0.00754821 0.999904 0.0116005 -0.00250764 0.999961 -0.00842989</float_array>
                    <technique_common>
                        <accessor count="50" source="#shape0-lib-normals-array" stride="3">
                            <param name="X" type="float"/>
                            <param name="Y" type="float"/>
                            <param name="Z" type="float"/>
                        </accessor>
                    </technique_common>
                </source>
                <source id="shape0-lib-vcolor" name="vcolor">
                    <float_array id="shape0-lib-vcolor-array" count="108">1 1 1 1 1 1 1 1 1 1 1 1 1 1 1 1 1 1 1 1 1 1 1 1 1 1 1 1 1 1 1 1 1 1 1 1 1 1 1 1 1 1 1 1 1 1 1 1 1 1 1 1 1 1 1 1 1 1 1 1 1 1 1 1 1 1 1 1 1 1 1 1 1 1 1 1 1 1 1 1 1 1 1 1 1 1 1 1 1 1 1 1 1 1 1 1 1 1 1 1 1 1 1 1 1 1 1 1</float_array>
                    <technique_common>
                        <accessor count="27" source="#shape0-lib-vcolor-array" stride="4">
                            <param name="R" type="float"/>
                            <param name="G" type="float"/>
                            <param name="B" type="float"/>
                            <param name="A" type="float"/>
                        </accessor>
                    </technique_common>
                </source>
                <source id="shape0-lib-map" name="map">
                    <float_array id="shape0-lib-map-array" count="300">0.425572 0.67072 0.427983 0.669311 0.431706 0.669052 0.425572 0.67072 0.431706 0.669052 0.435289 0.670577 0.420856 0.677821 0.422756 0.672805 0.425572 0.67072 0.423684 0.685579 0.421373 0.682375 0.420856 0.677821 0.423684 0.685579 0.431689 0.688347 0.426829 0.687909 0.439713 0.681461 0.438237 0.684874 0.435442 0.68732 0.439713 0.681461 0.435442 0.68732 0.431689 0.688347 0.439713 0.681461 0.435289 0.670577 0.438274 0.672788 0.439713 0.681461 0.438274 0.672788 0.440274 0.677839 0.481041 0.67223 0.483347 0.678705 0.476808 0.66977 0.481484 0.684873 0.478323 0.687288 0.483347 0.678705 0.47338 0.688621 0.468455 0.686573 0.478323 0.687288 0.465268 0.683722 0.464267 0.679878 0.468455 0.686573 0.465348 0.673761 0.469773 0.67003 0.464267 0.679878 0.473781 0.668976 0.476808 0.66977 0.469773 0.67003 0.412499 0.647457 0.411757 0.677694 0.408897 0.677697 0.412499 0.647457 0.408897 0.677697 0.407085 0.647449 0.415846 0.647461 0.415893 0.677555 0.411757 0.677694 0.415846 0.647461 0.411757 0.677694 0.412499 0.647457 0.418709 0.647688 0.415893 0.677555 0.415846 0.647461 0.443573 0.636675 0.450467 0.636627 0.451698 0.667306 0.443573 0.636675 0.451698 0.667306 0.44496 0.666807 0.450467 0.636627 0.45726 0.636638 0.451698 0.667306 0.45726 0.636638 0.459118 0.666747 0.451698 0.667306 0.461967 0.636812 0.459118 0.666747 0.45726 0.636638 0.334193 0.647491 0.338598 0.647466 0.338507 0.677704 0.334193 0.647491 0.338507 0.677704 0.336218 0.677516 0.338598 0.647466 0.344349 0.677616 0.338507 0.677704 0.345685 0.647324 0.344349 0.677616 0.338598 0.647466 0.350965 0.647454 0.350818 0.677578 0.344349 0.677616 0.350965 0.647454 0.344349 0.677616 0.345685 0.647324 0.353831 0.647628 0.350818 0.677578 0.350965 0.647454 0.465262 0.636691 0.468271 0.66689 0.465982 0.666703 0.47019 0.636637 0.472252 0.666886 0.468271 0.66689 0.47019 0.636637 0.468271 0.66689 0.465262 0.636691 0.47019 0.636637 0.475076 0.636643 0.472252 0.666886 0.475076 0.636643 0.479573 0.666715 0.472252 0.666886 0.475076 0.636643 0.482648 0.63676 0.479573 0.666715 0.399077 0.647494 0.401956 0.647467 0.404593 0.677719 0.399077 0.647494 0.404593 0.677719 0.401095 0.677442 0.407085 0.647449 0.404593 0.677719 0.401956 0.647467 0.407085 0.647449 0.408897 0.677697 0.404593 0.677719 0.435289 0.670577 0.439713 0.681461 0.425572 0.67072 0.439713 0.681461 0.431689 0.688347 0.425572 0.67072 0.431689 0.688347 0.423684 0.685579 0.425572 0.67072 0.423684 0.685579 0.420856 0.677821 0.425572 0.67072 0.469773 0.67003 0.476808 0.66977 0.468455 0.686573 0.476808 0.66977 0.483347 0.678705 0.468455 0.686573 0.483347 0.678705 0.478323 0.687288 0.468455 0.686573 0.464267 0.679878 0.469773 0.67003 0.468455 0.686573</float_array>
                    <technique_common>
                        <accessor count="150" source="#shape0-lib-map-array" stride="2">
                            <param name="U" type="float"/>
                            <param name="V" type="float"/>
                        </accessor>
                    </technique_common>
                </source>
                <vertices id="shape0-lib-vertices">
                    <input semantic="POSITION" source="#shape0-lib-positions"/>
                </vertices>
                <triangles count="50" material="material0">
                    <input offset="0" semantic="VERTEX" source="#shape0-lib-vertices"/>
                    <input offset="1" semantic="COLOR" source="#shape0-lib-vcolor"/>
                    <input offset="2" semantic="NORMAL" source="#shape0-lib-normals"/>
                    <input offset="3" semantic="TEXCOORD" source="#shape0-lib-map"/>
                    <p>14 14 0 0 13 13 0 1 25 25 0 2 14 14 1 3 25 25 1 4 24 24 1 5 0 0 2 6 15 15 2 7 14 14 2 8 17 17 3 9 16 16 3 10 0 0 3 11 17 17 4 12 1 1 4 13 18 18 4 14 21 21 5 15 20 20 5 16 19 19 5 17 21 21 6 18 19 19 6 19 1 1 6 20 21 21 7 21 24 24 7 22 23 23 7 23 21 21 8 24 23 23 8 25 22 22 8 26 4 4 9 27 5 5 9 28 2 2 9 29 6 6 10 30 7 7 10 31 5 5 10 32 8 8 11 33 26 26 11 34 7 7 11 35 9 9 12 36 10 10 12 37 26 26 12 38 11 11 13 39 12 12 13 40 10 10 13 41 3 3 14 42 2 2 14 43 12 12 14 44 13 13 15 45 2 2 15 46 3 3 15 47 13 13 16 48 3 3 16 49 25 25 16 50 14 14 17 51 4 4 17 52 2 2 17 53 14 14 18 54 2 2 18 55 13 13 18 56 15 15 19 57 4 4 19 58 14 14 19 59 15 15 20 60 0 0 20 61 5 5 20 62 15 15 21 63 5 5 21 64 4 4 21 65 0 0 22 66 16 16 22 67 5 5 22 68 16 16 23 69 6 6 23 70 5 5 23 71 17 17 24 72 6 6 24 73 16 16 24 74 17 17 25 75 18 18 25 76 7 7 25 77 17 17 26 78 7 7 26 79 6 6 26 80 18 18 27 81 8 8 27 82 7 7 27 83 1 1 28 84 8 8 28 85 18 18 28 86 19 19 29 87 26 26 29 88 8 8 29 89 19 19 30 90 8 8 30 91 1 1 30 92 20 20 31 93 26 26 31 94 19 19 31 95 20 20 32 96 9 9 32 97 26 26 32 98 21 21 33 99 10 10 33 100 9 9 33 101 21 21 34 102 9 9 34 103 20 20 34 104 21 21 35 105 22 22 35 106 10 10 35 107 22 22 36 108 11 11 36 109 10 10 36 110 22 22 37 111 23 23 37 112 11 11 37 113 23 23 38 114 24 24 38 115 12 12 38 116 23 23 39 117 12 12 39 118 11 11 39 119 25 25 40 120 12 12 40 121 24 24 40 122 25 25 41 123 3 3 41 124 12 12 41 125 24 24 42 126 21 21 42 127 14 14 42 128 21 21 43 129 1 1 43 130 14 14 43 131 1 1 44 132 17 17 44 133 14 14 44 134 17 17 45 135 0 0 45 136 14 14 45 137 12 12 46 138 2 2 46 139 26 26 46 140 2 2 47 141 5 5 47 142 26 26 47 143 5 5 48 144 7 7 48 145 26 26 48 146 10 10 49 147 12 12 49 148 26 26 49 149</p>
                </triangles>
            </mesh>
        </geometry>
    </library_geometries>
    <library_visual_scenes>
        <visual_scene id="VisualSceneNode" name="VisualScene">
            <node id="node" name="node">
                <instance_geometry url="#shape0-lib">
                    <bind_material>
                        <technique_common>
                            <instance_material symbol="material0" target="#material0">
                                <bind_vertex_input semantic="UVSET0" input_semantic="TEXCOORD"/>
                            </instance_material>
                        </technique_common>
                    </bind_material>
                </instance_geometry>
            </node>
        </visual_scene>
    </library_visual_scenes>
    <scene>
        <instance_visual_scene url="#VisualSceneNode"/>
    </scene>
</COLLADA>
