<?xml version="1.0" encoding="UTF-8"?>
<COLLADA xmlns="http://www.collada.org/2005/11/COLLADASchema" version="1.4.1">
    <asset>
        <contributor>
            <author>VCGLab</author>
            <authoring_tool>VCGLib | MeshLab</authoring_tool>
        </contributor>
        <created>Thu Jul 3 02:14:46 2025 GMT</created>
        <modified>Thu Jul 3 02:14:46 2025 GMT</modified>
        <up_axis>Y_UP</up_axis>
    </asset>
    <library_images>
        <image id="texture0" name="texture0">
            <init_from>./image/shelf_items.png</init_from>
        </image>
    </library_images>
    <library_materials>
        <material id="material0" name="material0">
            <instance_effect url="#material0-fx"/>
        </material>
    </library_materials>
    <library_effects>
        <effect id="material0-fx">
            <profile_COMMON>
                <newparam sid="texture0-surface">
                    <surface type="2D">
                        <init_from>texture0</init_from>
                        <format>R8G8B8</format>
                    </surface>
                </newparam>
                <newparam sid="texture0-sampler">
                    <sampler2D>
                        <source>texture0-surface</source>
                        <minfilter>LINEAR</minfilter>
                        <magfilter>LINEAR</magfilter>
                    </sampler2D>
                </newparam>
                <technique sid="common">
                    <blinn>
                        <diffuse>
                            <texture texture="texture0-sampler" texcoord="UVSET0"/>
                        </diffuse>
                    </blinn>
                </technique>
            </profile_COMMON>
        </effect>
    </library_effects>
    <library_geometries>
        <geometry id="shape0-lib" name="shape0">
            <mesh>
                <source id="shape0-lib-positions" name="position">
                    <float_array id="shape0-lib-positions-array" count="372">-0.0989125 -0.00057502 -0.094 -0.0989125 0.086575 -0.094 0.0999125 0.086575 -0.094 0.0999125 -0.00057502 -0.094 -0.0989125 -0.00057502 0.1029 -0.0989125 0.086575 0.1029 0.0999125 0.086575 0.1029 0.0999125 -0.00057502 0.1029 -0.0869125 0.086575 -0.082 0.0879125 0.086575 -0.082 -0.0869125 0.086575 0.0909 0.0879125 0.086575 0.0909 -0.0879125 0.076575 -0.083 0.0889125 0.076575 -0.083 -0.0879125 0.076575 0.0919 0.0889125 0.076575 0.0919 -0.0512378 0.0522284 0.0379671 0.0349991 0.0809104 -0.0318662 0.0740489 0.117 -0.0634881 0.0715318 0.120297 -0.0614498 0.0381142 0.103621 -0.0343888 0.0408391 0.120092 -0.0365953 0.0459042 0.144399 -0.0406969 0.0347019 0.17706 -0.0316255 0.033074 0.178439 -0.0303073 0.0134724 0.132544 -0.0144342 0.00735719 0.155277 -0.00948226 0.0097366 0.195 -0.011409 0.00435329 0.187168 -0.0070497 -0.00765341 0.132091 0.00267311 -0.0284539 0.184344 0.0195171 -0.0173768 0.131206 0.010547 -0.0250359 0.121874 0.0167492 -0.0404556 0.153597 0.0292359 -0.0449491 0.177268 0.0328747 -0.0519859 0.171777 0.038573 -0.0389391 0.144323 0.0280078 -0.0661175 0.158989 0.0500164 -0.064615 0.129689 0.0487998 -0.0450364 0.113025 0.0329453 -0.0723908 0.114388 0.0550965 -0.0398629 0.100549 0.0287559 -0.0558638 0.0523546 -0.0335642 0.0389783 0.0809066 0.0234227 0.081931 0.117 0.0492312 0.0790774 0.12026 0.0475166 0.0422962 0.103621 0.0254163 0.0453017 0.120092 0.0272222 0.0509222 0.144447 0.0305993 0.0385258 0.177051 0.0231508 0.036701 0.178418 0.0220544 0.0149871 0.129099 0.00900728 0.0059635 0.13894 0.00358538 0.00837887 0.155226 0.00503672 0.0109965 0.195 0.00660956 0.00504045 0.187121 0.0030308 -0.00818401 0.132091 -0.00491528 -0.0310871 0.184275 -0.0186769 -0.0189087 0.131206 -0.0113593 -0.0273563 0.121874 -0.0164352 -0.0442972 0.153467 -0.0266143 -0.04932 0.177268 -0.0296324 -0.0570704 0.171768 -0.0342892 -0.0427349 0.144401 -0.0256756 -0.0726447 0.158984 -0.0436472 -0.0709654 0.129674 -0.0426382 -0.0494164 0.113025 -0.0296902 -0.0794208 0.114346 -0.0477187 -0.0437102 0.100549 -0.0262616 0.0289971 0.0585819 -0.0023248 0.0458733 0.0809066 -0.00276672 0.0959663 0.117 -0.00407844 0.0926385 0.12026 -0.0039913 0.0497429 0.103621 -0.00286803 0.0532479 0.120092 -0.0029598 0.0598028 0.144448 -0.00313144 0.0453458 0.177051 -0.00275288 0.0432176 0.178418 -0.00269716 0.017894 0.129099 -0.00203404 0.00737041 0.13894 -0.00175847 0.0101872 0.155226 -0.00183221 0.0132402 0.195 -0.00191218 0.00629391 0.187121 -0.00173028 -0.00912887 0.132091 -0.0013264 -0.0358393 0.184275 -0.000626989 -0.0216364 0.131206 -0.000998908 -0.0314884 0.121874 -0.00074093 -0.0512455 0.153468 -0.000223567 -0.0571031 0.177268 -7.01621e-05 -0.0661419 0.171768 0.000166523 -0.0494233 0.144401 -0.000271273 -0.084305 0.158984 0.000642125 -0.0823469 0.129674 0.000590859 -0.0572154 0.113025 -6.72126e-05 -0.0922076 0.114346 0.000849081 -0.0505607 0.100549 -0.000241498 -0.0657947 0.0552652 0.000157449 -0.0133107 0.0523545 0.0598103 0.00590279 0.0809065 -0.0491548 0.0146043 0.117 -0.0985036 0.0140262 0.12026 -0.0952251 0.00657493 0.103621 -0.0529668 0.00718385 0.120092 -0.0564198 0.00832247 0.144447 -0.0628773 0.00581114 0.177051 -0.0486351 0.00544146 0.178418 -0.0465385 0.00104255 0.129099 -0.021591 -0.00078541 0.13894 -0.0112238 -0.000296096 0.155226 -0.0139989 0.000234187 0.195 -0.0170063 -0.000972421 0.187121 -0.0101634 -0.00365144 0.132091 0.0050304 -0.00829133 0.184275 0.0313441 -0.00582415 0.131206 0.0173521 -0.00753552 0.121874 0.0270577 -0.0109675 0.153468 0.0465212 -0.011985 0.177268 0.052292 -0.0135551 0.171767 0.0611966 -0.010651 0.144401 0.0447263 -0.0167102 0.158984 0.0790899 -0.01637 0.129674 0.0771606 -0.0120046 0.113025 0.0524027 -0.018083 0.114346 0.086875 -0.0108486 0.100549 0.0458468</float_array>
                    <technique_common>
                        <accessor count="124" source="#shape0-lib-positions-array" stride="3">
                            <param name="X" type="float"/>
                            <param name="Y" type="float"/>
                            <param name="Z" type="float"/>
                        </accessor>
                    </technique_common>
                </source>
                <source id="shape0-lib-normals" name="normal">
                    <float_array id="shape0-lib-normals-array" count="384">0 0 -1 0 0 -1 -1 0 0 -1 0 0 1 0 0 1 0 0 0 -1 0 0 -1 0 0 0 1 0 0 1 0 1 0 0 1 0 0 1 0 0 1 0 0 1 0 0 1 0 0 1 0 0 1 0 0 -0.0995039 -0.995037 0 -0.0995039 -0.995037 -0.995037 -0.0995039 0 -0.995037 -0.0995039 0 0 -0.0995032 0.995037 0 -0.0995032 0.995037 0.995037 -0.0995039 0 0.995037 -0.0995039 0 0 1 0 0 1 0 0.629331 5.92117e-06 0.777137 0.62932 -8.64322e-07 0.777146 0.629323 5.69227e-07 0.777144 0.62932 -1.3035e-06 0.777146 -0.629314 2.25315e-06 -0.777151 0.629321 -3.90602e-07 0.777146 0.62932 1.24228e-06 0.777146 0.629319 -3.17323e-06 0.777147 0.629321 -3.63523e-07 0.777146 0.629322 -2.00867e-06 0.777145 0.629319 2.91127e-06 0.777147 0.629321 2.24555e-06 0.777145 0.629322 3.37961e-06 0.777144 0.62932 -2.39491e-06 0.777146 0.629322 -6.76935e-07 0.777145 0.62932 -9.53499e-07 0.777146 0.62932 -4.64785e-08 0.777146 0.629321 -5.51791e-07 0.777145 0.629321 1.1166e-06 0.777146 0.629321 -9.93189e-07 0.777146 0.62932 -9.86072e-07 0.777146 0.629321 4.01866e-07 0.777146 0.62932 1.05313e-06 0.777146 0.629308 1.54022e-05 0.777156 -0.515035 4.7639e-07 0.857169 -0.515038 -1.36954e-06 0.857167 -0.515037 1.32279e-06 0.857168 -0.515038 -1.47793e-07 0.857167 -0.515044 -1.00706e-06 0.857164 -0.515037 -8.24964e-07 0.857168 -0.515037 -6.82529e-07 0.857168 -0.515039 2.08695e-06 0.857167 -0.51504 -2.84358e-07 0.857166 -0.515036 4.51221e-06 0.857168 -0.515034 -5.56856e-06 0.85717 -0.515037 -7.59352e-07 0.857168 -0.515038 -5.62823e-07 0.857167 -0.515037 1.52044e-06 0.857168 -0.515033 4.85195e-06 0.85717 -0.515042 -3.32503e-06 0.857165 -0.515042 -3.41788e-06 0.857165 -0.515038 -5.43734e-07 0.857167 -0.51504 7.27754e-07 0.857166 -0.515038 -2.34646e-06 0.857167 -0.515037 2.25049e-07 0.857168 -0.515038 6.94231e-07 0.857168 -0.515037 2.28023e-06 0.857168 -0.515037 -1.14886e-06 0.857168 -0.515075 3.89638e-05 0.857145 0.0261711 -2.31093e-06 0.999658 0.0261764 2.68709e-07 0.999657 0.0261747 -6.88275e-07 0.999657 0.0261778 4.78738e-07 0.999657 0.026172 -2.31005e-07 0.999657 0.0261783 -9.17884e-08 0.999657 0.0261778 9.38479e-07 0.999657 0.0261765 -1.26481e-07 0.999657 0.0261764 -5.89452e-07 0.999657 0.0261779 1.26293e-06 0.999657 0.0261768 -3.68884e-08 0.999657 0.0261774 -7.84329e-07 0.999657 0.0261769 -6.93473e-07 0.999657 0.0261748 -2.95376e-06 0.999657 0.0261768 -7.38829e-07 0.999657 0.0261796 1.49597e-06 0.999657 0.0261797 1.52612e-06 0.999657 0.0261773 5.38393e-07 0.999657 0.026177 -9.26165e-08 0.999657 0.026177 -4.97791e-08 0.999657 0.0261766 -2.26887e-06 0.999657 0.0261767 3.30713e-07 0.999657 0.0261771 -5.42373e-07 0.999657 0.0261775 2.00917e-06 0.999657 0.0261786 -1.19674e-06 0.999657 0.0261714 5.26637e-06 0.999658 0.984808 2.86738e-06 0.173645 0.984808 8.58131e-07 0.173649 0.984807 -1.00553e-06 0.173653 0.984807 1.87445e-07 0.173651 0.984808 6.4368e-07 0.173647 0.984808 6.39121e-07 0.173647 0.984808 -2.94729e-06 0.173646 0.984808 6.00788e-07 0.173649 0.984807 -3.29381e-06 0.17365 0.984808 3.43322e-06 0.173645 0.984808 2.47632e-06 0.173649 0.984808 1.23095e-06 0.173648 0.984808 8.04029e-07 0.173646 0.984807 -6.18734e-06 0.173653 0.984808 -2.96263e-06 0.173647 0.98481 7.81174e-06 0.173634 0.984809 6.07274e-06 0.173642 0.984808 -6.99085e-08 0.173648 0.984807 2.91102e-06 0.173653 0.984808 2.03189e-06 0.173647 0.984808 -1.19752e-06 0.173647 0.984808 1.47524e-06 0.173648 0.984808 -5.71178e-06 0.173649 0.984807 -8.13779e-08 0.173651 0.984809 -1.01937e-05 0.17364</float_array>
                    <technique_common>
                        <accessor count="128" source="#shape0-lib-normals-array" stride="3">
                            <param name="X" type="float"/>
                            <param name="Y" type="float"/>
                            <param name="Z" type="float"/>
                        </accessor>
                    </technique_common>
                </source>
                <source id="shape0-lib-vcolor" name="vcolor">
                    <float_array id="shape0-lib-vcolor-array" count="496">1 1 1 1 1 1 1 1 1 1 1 1 1 1 1 1 1 1 1 1 1 1 1 1 1 1 1 1 1 1 1 1 1 1 1 1 1 1 1 1 1 1 1 1 1 1 1 1 1 1 1 1 1 1 1 1 1 1 1 1 1 1 1 1 1 1 1 1 1 1 1 1 1 1 1 1 1 1 1 1 1 1 1 1 1 1 1 1 1 1 1 1 1 1 1 1 1 1 1 1 1 1 1 1 1 1 1 1 1 1 1 1 1 1 1 1 1 1 1 1 1 1 1 1 1 1 1 1 1 1 1 1 1 1 1 1 1 1 1 1 1 1 1 1 1 1 1 1 1 1 1 1 1 1 1 1 1 1 1 1 1 1 1 1 1 1 1 1 1 1 1 1 1 1 1 1 1 1 1 1 1 1 1 1 1 1 1 1 1 1 1 1 1 1 1 1 1 1 1 1 1 1 1 1 1 1 1 1 1 1 1 1 1 1 1 1 1 1 1 1 1 1 1 1 1 1 1 1 1 1 1 1 1 1 1 1 1 1 1 1 1 1 1 1 1 1 1 1 1 1 1 1 1 1 1 1 1 1 1 1 1 1 1 1 1 1 1 1 1 1 1 1 1 1 1 1 1 1 1 1 1 1 1 1 1 1 1 1 1 1 1 1 1 1 1 1 1 1 1 1 1 1 1 1 1 1 1 1 1 1 1 1 1 1 1 1 1 1 1 1 1 1 1 1 1 1 1 1 1 1 1 1 1 1 1 1 1 1 1 1 1 1 1 1 1 1 1 1 1 1 1 1 1 1 1 1 1 1 1 1 1 1 1 1 1 1 1 1 1 1 1 1 1 1 1 1 1 1 1 1 1 1 1 1 1 1 1 1 1 1 1 1 1 1 1 1 1 1 1 1 1 1 1 1 1 1 1 1 1 1 1 1 1 1 1 1 1 1 1 1 1 1 1 1 1 1 1 1 1 1 1 1 1 1 1 1 1 1 1 1 1 1 1 1 1 1 1 1 1 1 1 1 1 1 1 1 1 1 1 1 1 1 1 1 1 1 1 1 1 1 1 1 1 1 1 1 1 1 1 1 1 1 1 1 1 1 1 1 1 1 1 1 1 1 1 1</float_array>
                    <technique_common>
                        <accessor count="124" source="#shape0-lib-vcolor-array" stride="4">
                            <param name="R" type="float"/>
                            <param name="G" type="float"/>
                            <param name="B" type="float"/>
                            <param name="A" type="float"/>
                        </accessor>
                    </technique_common>
                </source>
                <source id="shape0-lib-map" name="map">
                    <float_array id="shape0-lib-map-array" count="768">0.505962 0.944552 0.505962 0.951255 0.491918 0.951255 0.505962 0.944552 0.491918 0.951255 0.491918 0.944552 0.623943 0.93477 0.623943 0.942115 0.607918 0.942115 0.623943 0.93477 0.607918 0.942115 0.607918 0.93477 0.581476 0.942115 0.581476 0.93477 0.597502 0.93477 0.581476 0.942115 0.597502 0.93477 0.597502 0.942115 0.496298 0.896046 0.488202 0.896046 0.488202 0.887951 0.496298 0.896046 0.488202 0.887951 0.496298 0.887951 0.915952 0.890947 0.954048 0.890947 0.954048 0.909129 0.915952 0.890947 0.954048 0.909129 0.915952 0.909129 0.477171 0.944524 0.491215 0.944524 0.490368 0.947596 0.477171 0.944524 0.490368 0.947596 0.478019 0.947596 0.606382 0.934837 0.606382 0.950862 0.599037 0.949886 0.606382 0.934837 0.599037 0.949886 0.599037 0.935814 0.914048 0.899204 0.875952 0.899204 0.878252 0.890871 0.914048 0.899204 0.878252 0.890871 0.911748 0.890871 0.625479 0.950862 0.625479 0.934837 0.632824 0.935814 0.625479 0.950862 0.632824 0.935814 0.632824 0.949886 0.903903 0.909204 0.876097 0.909204 0.875938 0.900871 0.903903 0.909204 0.875938 0.900871 0.904063 0.900871 0.668037 0.959743 0.660776 0.959743 0.660734 0.952398 0.668037 0.959743 0.660734 0.952398 0.668079 0.952398 0.487476 0.951283 0.477224 0.951283 0.477166 0.94821 0.487476 0.951283 0.477166 0.94821 0.487534 0.94821 0.685665 0.959743 0.678404 0.959743 0.678362 0.952398 0.685665 0.959743 0.678362 0.952398 0.685707 0.952398 0.650452 0.959743 0.643107 0.959743 0.643107 0.952398 0.650452 0.959743 0.643107 0.952398 0.650452 0.952398 0.868321 0.622525 0.870332 0.6178 0.868694 0.622163 0.865585 0.616007 0.870332 0.6178 0.868321 0.622525 0.861269 0.615774 0.862658 0.615906 0.859786 0.623322 0.864267 0.623766 0.864852 0.619839 0.865143 0.625248 0.864267 0.623766 0.865585 0.616007 0.864852 0.619839 0.862658 0.615906 0.865585 0.616007 0.864267 0.623766 0.865585 0.616007 0.869588 0.614124 0.870332 0.6178 0.865585 0.616007 0.869199 0.611678 0.869588 0.614124 0.862658 0.615906 0.869199 0.611678 0.865585 0.616007 0.873704 0.614101 0.868904 0.608062 0.874334 0.613664 0.869199 0.611678 0.868904 0.608062 0.873704 0.614101 0.862658 0.615906 0.868904 0.608062 0.869199 0.611678 0.861269 0.615774 0.868904 0.608062 0.862658 0.615906 0.856327 0.621593 0.858058 0.619012 0.857328 0.622615 0.858127 0.617676 0.858058 0.619012 0.856327 0.621593 0.858127 0.617676 0.860174 0.614388 0.858058 0.619012 0.861269 0.615774 0.857188 0.604328 0.868904 0.608062 0.861269 0.615774 0.858055 0.611221 0.857188 0.604328 0.858055 0.611221 0.857316 0.613074 0.853714 0.613148 0.854584 0.615541 0.858127 0.617676 0.854372 0.619819 0.854584 0.615541 0.860174 0.614388 0.858127 0.617676 0.857316 0.613074 0.860174 0.614388 0.854584 0.615541 0.858055 0.611221 0.860174 0.614388 0.857316 0.613074 0.858055 0.611221 0.861269 0.615774 0.860174 0.614388 0.7806 0.692536 0.783333 0.68782 0.781109 0.692176 0.777001 0.685476 0.783333 0.68782 0.7806 0.692536 0.771052 0.685789 0.772934 0.68592 0.769049 0.693328 0.775111 0.693774 0.775907 0.689848 0.776301 0.695262 0.775111 0.693774 0.775417 0.686937 0.775907 0.689848 0.772934 0.68592 0.775417 0.686937 0.775111 0.693774 0.772934 0.68592 0.777001 0.685476 0.775417 0.686937 0.777001 0.685476 0.782321 0.684138 0.783333 0.68782 0.777001 0.685476 0.781794 0.681692 0.782321 0.684138 0.772934 0.68592 0.781794 0.681692 0.777001 0.685476 0.787886 0.684111 0.781411 0.678076 0.78875 0.683679 0.781794 0.681692 0.781411 0.678076 0.787886 0.684111 0.772934 0.68592 0.781411 0.678076 0.781794 0.681692 0.771052 0.685789 0.781411 0.678076 0.772934 0.68592 0.76436 0.691607 0.766712 0.689011 0.765715 0.692629 0.766791 0.6877 0.766712 0.689011 0.76436 0.691607 0.766791 0.6877 0.76957 0.684403 0.766712 0.689011 0.771052 0.685789 0.76558 0.674357 0.781411 0.678076 0.771052 0.685789 0.766699 0.681236 0.76558 0.674357 0.766699 0.681236 0.765698 0.683088 0.760841 0.683158 0.762005 0.685553 0.766791 0.6877 0.761714 0.689833 0.762005 0.685553 0.76957 0.684403 0.766791 0.6877 0.765698 0.683088 0.76957 0.684403 0.762005 0.685553 0.766699 0.681236 0.76957 0.684403 0.765698 0.683088 0.766699 0.681236 0.771052 0.685789 0.76957 0.684403 0.811717 0.622522 0.814451 0.617806 0.812226 0.622162 0.808118 0.615461 0.814451 0.617806 0.811717 0.622522 0.80217 0.615774 0.804052 0.615906 0.800166 0.623314 0.806229 0.62376 0.807025 0.619834 0.807418 0.625248 0.806229 0.62376 0.806535 0.616923 0.807025 0.619834 0.804052 0.615906 0.806535 0.616923 0.806229 0.62376 0.804052 0.615906 0.808118 0.615461 0.806535 0.616923 0.808118 0.615461 0.813439 0.614124 0.814451 0.617806 0.808118 0.615461 0.812911 0.611678 0.813439 0.614124 0.804052 0.615906 0.812911 0.611678 0.808118 0.615461 0.819003 0.614097 0.812529 0.608061 0.819867 0.613664 0.812911 0.611678 0.812529 0.608061 0.819003 0.614097 0.804052 0.615906 0.812529 0.608061 0.812911 0.611678 0.80217 0.615774 0.812529 0.608061 0.804052 0.615906 0.795478 0.621592 0.79783 0.618997 0.796833 0.622615 0.797908 0.617686 0.79783 0.618997 0.795478 0.621592 0.797908 0.617686 0.800687 0.614388 0.79783 0.618997 0.809789 0.604989 0.797817 0.611221 0.796017 0.604745 0.80217 0.615774 0.809789 0.604989 0.812529 0.608061 0.80217 0.615774 0.797817 0.611221 0.809789 0.604989 0.797817 0.611221 0.796815 0.613074 0.791959 0.613144 0.793122 0.615539 0.797908 0.617686 0.792831 0.619819 0.793122 0.615539 0.800687 0.614388 0.797908 0.617686 0.796815 0.613074 0.800687 0.614388 0.793122 0.615539 0.797817 0.611221 0.800687 0.614388 0.796815 0.613074 0.797817 0.611221 0.80217 0.615774 0.800687 0.614388 0.842834 0.64586 0.845568 0.641144 0.843344 0.6455 0.839236 0.638799 0.845568 0.641144 0.842834 0.64586 0.833287 0.639112 0.835169 0.639244 0.831284 0.646652 0.837346 0.647098 0.838142 0.643172 0.838536 0.648586 0.837346 0.647098 0.837652 0.640261 0.838142 0.643172 0.835169 0.639244 0.837652 0.640261 0.837346 0.647098 0.835169 0.639244 0.839236 0.638799 0.837652 0.640261 0.839236 0.638799 0.844556 0.637462 0.845568 0.641144 0.839236 0.638799 0.844029 0.635016 0.844556 0.637462 0.835169 0.639244 0.844029 0.635016 0.839236 0.638799 0.850121 0.637435 0.843646 0.631399 0.850985 0.637003 0.844029 0.635016 0.843646 0.631399 0.850121 0.637435 0.835169 0.639244 0.843646 0.631399 0.844029 0.635016 0.833287 0.639112 0.843646 0.631399 0.835169 0.639244 0.826595 0.64493 0.828947 0.642335 0.82795 0.645953 0.829026 0.641024 0.828947 0.642335 0.826595 0.64493 0.829026 0.641024 0.831805 0.637726 0.828947 0.642335 0.833287 0.639112 0.827815 0.627681 0.843646 0.631399 0.833287 0.639112 0.828934 0.634559 0.827815 0.627681 0.828934 0.634559 0.827933 0.636412 0.823076 0.636482 0.82424 0.638877 0.829026 0.641024 0.823949 0.643157 0.82424 0.638877 0.831805 0.637726 0.829026 0.641024 0.827933 0.636412 0.831805 0.637726 0.82424 0.638877 0.828934 0.634559 0.831805 0.637726 0.827933 0.636412 0.828934 0.634559 0.833287 0.639112 0.831805 0.637726</float_array>
                    <technique_common>
                        <accessor count="384" source="#shape0-lib-map-array" stride="2">
                            <param name="U" type="float"/>
                            <param name="V" type="float"/>
                        </accessor>
                    </technique_common>
                </source>
                <vertices id="shape0-lib-vertices">
                    <input semantic="POSITION" source="#shape0-lib-positions"/>
                </vertices>
                <triangles count="128" material="material0">
                    <input offset="0" semantic="VERTEX" source="#shape0-lib-vertices"/>
                    <input offset="1" semantic="COLOR" source="#shape0-lib-vcolor"/>
                    <input offset="2" semantic="NORMAL" source="#shape0-lib-normals"/>
                    <input offset="3" semantic="TEXCOORD" source="#shape0-lib-map"/>
                    <p>0 0 0 0 1 1 0 1 2 2 0 2 0 0 1 3 2 2 1 4 3 3 1 5 4 4 2 6 5 5 2 7 1 1 2 8 4 4 3 9 1 1 3 10 0 0 3 11 6 6 4 12 7 7 4 13 3 3 4 14 6 6 5 15 3 3 5 16 2 2 5 17 7 7 6 18 4 4 6 19 0 0 6 20 7 7 7 21 0 0 7 22 3 3 7 23 4 4 8 24 7 7 8 25 6 6 8 26 4 4 9 27 6 6 9 28 5 5 9 29 2 2 10 30 1 1 10 31 8 8 10 32 2 2 11 33 8 8 11 34 9 9 11 35 1 1 12 36 5 5 12 37 10 10 12 38 1 1 13 39 10 10 13 40 8 8 13 41 5 5 14 42 6 6 14 43 11 11 14 44 5 5 15 45 11 11 15 46 10 10 15 47 6 6 16 48 2 2 16 49 9 9 16 50 6 6 17 51 9 9 17 52 11 11 17 53 10 10 18 54 11 11 18 55 15 15 18 56 10 10 19 57 15 15 19 58 14 14 19 59 11 11 20 60 9 9 20 61 13 13 20 62 11 11 21 63 13 13 21 64 15 15 21 65 9 9 22 66 8 8 22 67 12 12 22 68 9 9 23 69 12 12 23 70 13 13 23 71 8 8 24 72 10 10 24 73 14 14 24 74 8 8 25 75 14 14 25 76 12 12 25 77 14 14 26 78 15 15 26 79 13 13 26 80 14 14 27 81 13 13 27 82 12 12 27 83 24 24 28 84 22 22 28 85 23 23 28 86 25 25 29 87 22 22 29 88 24 24 29 89 31 31 30 90 29 29 30 91 30 30 30 92 28 28 31 93 26 26 31 94 27 27 31 95 28 28 32 96 25 25 32 97 26 26 32 98 29 29 33 99 25 25 33 100 28 28 33 101 25 25 34 102 21 21 34 103 22 22 34 104 25 25 35 105 20 20 35 106 21 21 35 107 29 29 36 108 20 20 36 109 25 25 36 110 19 19 37 111 17 17 37 112 18 18 37 113 20 20 38 114 17 17 38 115 19 19 38 116 29 29 39 117 17 17 39 118 20 20 39 119 31 31 40 120 17 17 40 121 29 29 40 122 35 35 41 123 33 33 41 124 34 34 41 125 36 36 42 126 33 33 42 127 35 35 42 128 36 36 43 129 32 32 43 130 33 33 43 131 31 31 44 132 16 16 44 133 17 17 44 134 31 31 45 135 41 41 45 136 16 16 45 137 41 41 46 138 39 39 46 139 40 40 46 140 38 38 47 141 36 36 47 142 37 37 47 143 38 38 48 144 32 32 48 145 36 36 48 146 39 39 49 147 32 32 49 148 38 38 49 149 41 41 50 150 32 32 50 151 39 39 50 152 41 41 51 153 31 31 51 154 32 32 51 155 50 50 52 156 48 48 52 157 49 49 52 158 51 51 53 159 48 48 53 160 50 50 53 161 58 58 54 162 56 56 54 163 57 57 54 164 55 55 55 165 53 53 55 166 54 54 55 167 55 55 56 168 52 52 56 169 53 53 56 170 56 56 57 171 52 52 57 172 55 55 57 173 56 56 58 174 51 51 58 175 52 52 58 176 51 51 59 177 47 47 59 178 48 48 59 179 51 51 60 180 46 46 60 181 47 47 60 182 56 56 61 183 46 46 61 184 51 51 61 185 45 45 62 186 43 43 62 187 44 44 62 188 46 46 63 189 43 43 63 190 45 45 63 191 56 56 64 192 43 43 64 193 46 46 64 194 58 58 65 195 43 43 65 196 56 56 65 197 62 62 66 198 60 60 66 199 61 61 66 200 63 63 67 201 60 60 67 202 62 62 67 203 63 63 68 204 59 59 68 205 60 60 68 206 58 58 69 207 42 42 69 208 43 43 69 209 58 58 70 210 68 68 70 211 42 42 70 212 68 68 71 213 66 66 71 214 67 67 71 215 65 65 72 216 63 63 72 217 64 64 72 218 65 65 73 219 59 59 73 220 63 63 73 221 66 66 74 222 59 59 74 223 65 65 74 224 68 68 75 225 59 59 75 226 66 66 75 227 68 68 76 228 58 58 76 229 59 59 76 230 77 77 77 231 75 75 77 232 76 76 77 233 78 78 78 234 75 75 78 235 77 77 78 236 85 85 79 237 83 83 79 238 84 84 79 239 82 82 80 240 80 80 80 241 81 81 80 242 82 82 81 243 79 79 81 244 80 80 81 245 83 83 82 246 79 79 82 247 82 82 82 248 83 83 83 249 78 78 83 250 79 79 83 251 78 78 84 252 74 74 84 253 75 75 84 254 78 78 85 255 73 73 85 256 74 74 85 257 83 83 86 258 73 73 86 259 78 78 86 260 72 72 87 261 70 70 87 262 71 71 87 263 73 73 88 264 70 70 88 265 72 72 88 266 83 83 89 267 70 70 89 268 73 73 89 269 85 85 90 270 70 70 90 271 83 83 90 272 89 89 91 273 87 87 91 274 88 88 91 275 90 90 92 276 87 87 92 277 89 89 92 278 90 90 93 279 86 86 93 280 87 87 93 281 69 69 94 282 95 95 94 283 96 96 94 284 85 85 95 285 69 69 95 286 70 70 95 287 85 85 96 288 95 95 96 289 69 69 96 290 95 95 97 291 93 93 97 292 94 94 97 293 92 92 98 294 90 90 98 295 91 91 98 296 92 92 99 297 86 86 99 298 90 90 99 299 93 93 100 300 86 86 100 301 92 92 100 302 95 95 101 303 86 86 101 304 93 93 101 305 95 95 102 306 85 85 102 307 86 86 102 308 105 105 103 309 103 103 103 310 104 104 103 311 106 106 104 312 103 103 104 313 105 105 104 314 113 113 105 315 111 111 105 316 112 112 105 317 110 110 106 318 108 108 106 319 109 109 106 320 110 110 107 321 107 107 107 322 108 108 107 323 111 111 108 324 107 107 108 325 110 110 108 326 111 111 109 327 106 106 109 328 107 107 109 329 106 106 110 330 102 102 110 331 103 103 110 332 106 106 111 333 101 101 111 334 102 102 111 335 111 111 112 336 101 101 112 337 106 106 112 338 100 100 113 339 98 98 113 340 99 99 113 341 101 101 114 342 98 98 114 343 100 100 114 344 111 111 115 345 98 98 115 346 101 101 115 347 113 113 116 348 98 98 116 349 111 111 116 350 117 117 117 351 115 115 117 352 116 116 117 353 118 118 118 354 115 115 118 355 117 117 118 356 118 118 119 357 114 114 119 358 115 115 119 359 113 113 120 360 97 97 120 361 98 98 120 362 113 113 121 363 123 123 121 364 97 97 121 365 123 123 122 366 121 121 122 367 122 122 122 368 120 120 123 369 118 118 123 370 119 119 123 371 120 120 124 372 114 114 124 373 118 118 124 374 121 121 125 375 114 114 125 376 120 120 125 377 123 123 126 378 114 114 126 379 121 121 126 380 123 123 127 381 113 113 127 382 114 114 127 383</p>
                </triangles>
            </mesh>
        </geometry>
    </library_geometries>
    <library_visual_scenes>
        <visual_scene id="VisualSceneNode" name="VisualScene">
            <node id="node" name="node">
                <instance_geometry url="#shape0-lib">
                    <bind_material>
                        <technique_common>
                            <instance_material symbol="material0" target="#material0">
                                <bind_vertex_input semantic="UVSET0" input_semantic="TEXCOORD"/>
                            </instance_material>
                        </technique_common>
                    </bind_material>
                </instance_geometry>
            </node>
        </visual_scene>
    </library_visual_scenes>
    <scene>
        <instance_visual_scene url="#VisualSceneNode"/>
    </scene>
</COLLADA>
