<?xml version="1.0" encoding="UTF-8"?>
<COLLADA xmlns="http://www.collada.org/2005/11/COLLADASchema" version="1.4.1">
    <asset>
        <contributor>
            <author>VCGLab</author>
            <authoring_tool>VCGLib | MeshLab</authoring_tool>
        </contributor>
        <created>Thu Jul 3 01:39:14 2025 GMT</created>
        <modified>Thu Jul 3 01:39:14 2025 GMT</modified>
        <up_axis>Y_UP</up_axis>
    </asset>
    <library_images>
        <image id="texture0" name="texture0">
            <init_from>./image/shelf_books.png</init_from>
        </image>
    </library_images>
    <library_materials>
        <material id="material0" name="material0">
            <instance_effect url="#material0-fx"/>
        </material>
    </library_materials>
    <library_effects>
        <effect id="material0-fx">
            <profile_COMMON>
                <newparam sid="texture0-surface">
                    <surface type="2D">
                        <init_from>texture0</init_from>
                        <format>R8G8B8</format>
                    </surface>
                </newparam>
                <newparam sid="texture0-sampler">
                    <sampler2D>
                        <source>texture0-surface</source>
                        <minfilter>LINEAR</minfilter>
                        <magfilter>LINEAR</magfilter>
                    </sampler2D>
                </newparam>
                <technique sid="common">
                    <blinn>
                        <diffuse>
                            <texture texture="texture0-sampler" texcoord="UVSET0"/>
                        </diffuse>
                    </blinn>
                </technique>
            </profile_COMMON>
        </effect>
    </library_effects>
    <library_geometries>
        <geometry id="shape0-lib" name="shape0">
            <mesh>
                <source id="shape0-lib-positions" name="position">
                    <float_array id="shape0-lib-positions-array" count="303">1.31749 0.403452 0.0007085 1.3397 0.402992 0.0007085 1.31749 0.403452 0.117891 1.32028 0.403394 0.121308 1.33902 0.403006 0.120509 1.34116 0.57479 0.1207 1.32173 0.575192 0.121064 1.34367 0.403167 0.0007085 1.36556 0.574888 0.0007085 1.36589 0.403095 0.0007085 1.34441 0.403165 0.120432 1.36495 0.57489 0.120332 1.36528 0.403097 0.120452 1.34522 0.574969 0.121039 1.36754 0.403089 0.0007085 1.36721 0.574883 0.0007085 1.38943 0.57481 0.0007085 1.38976 0.403017 0.0007085 1.36815 0.403087 0.120332 1.36782 0.574881 0.120452 1.38882 0.574812 0.120332 1.38976 0.403017 0.117891 1.38842 0.403022 0.120894 1.39222 0.403009 0.0007085 1.39189 0.574802 0.0007085 1.41411 0.57473 0.0007085 1.41444 0.402936 0.0007085 1.39283 0.403007 0.120332 1.3925 0.5748 0.120452 1.4135 0.574732 0.120332 1.41383 0.402938 0.120452 1.41691 0.402928 0.0007085 1.41658 0.574721 0.0007085 1.4388 0.574649 0.0007085 1.43913 0.402855 0.0007085 1.41752 0.402926 0.120332 1.41719 0.574719 0.120452 1.43819 0.574651 0.120332 1.43852 0.402857 0.120452 1.4416 0.402847 0.0007085 1.44127 0.574641 0.0007085 1.46349 0.574568 0.0007085 1.46382 0.402775 0.0007085 1.44221 0.402845 0.120332 1.44188 0.574639 0.120452 1.46288 0.57457 0.120332 1.46321 0.402777 0.120452 1.17349 0.403452 0.0007085 1.17615 0.575225 0.0007085 1.1957 0.402992 0.0007085 1.1741 0.403439 0.120332 1.17676 0.575212 0.120452 1.19504 0.403006 0.120502 1.19716 0.57479 0.1207 1.19967 0.403167 0.0007085 1.22156 0.574888 0.0007085 1.22189 0.403095 0.0007085 1.20041 0.403165 0.120432 1.22095 0.57489 0.120332 1.22128 0.403097 0.120452 1.20122 0.574969 0.121039 1.22354 0.403089 0.0007085 1.22321 0.574883 0.0007085 1.24543 0.57481 0.0007085 1.24576 0.403017 0.0007085 1.22415 0.403087 0.120332 1.22382 0.574881 0.120452 1.24482 0.574812 0.120332 1.24576 0.403017 0.117891 1.24442 0.403022 0.120894 1.24822 0.403009 0.0007085 1.24789 0.574802 0.0007085 1.27011 0.57473 0.0007085 1.27044 0.402936 0.0007085 1.24883 0.403007 0.120332 1.2485 0.5748 0.120452 1.2695 0.574732 0.120332 1.26983 0.402938 0.120452 1.27291 0.402928 0.0007085 1.27258 0.574721 0.0007085 1.2948 0.574649 0.0007085 1.29513 0.402855 0.0007085 1.27352 0.402926 0.120332 1.27319 0.574719 0.120452 1.29419 0.574651 0.120332 1.29452 0.402857 0.120452 1.2976 0.402847 0.0007085 1.29727 0.574641 0.0007085 1.31982 0.402775 0.0007085 1.29823 0.402889 0.120405 1.29727 0.574641 0.117891 1.31982 0.402775 0.117891 1.31787 0.574548 0.121019 1.29861 0.574636 0.120894 1.31817 0.403369 0.120754 1.19837 0.574765 0.0007085 1.19837 0.574765 0.117891 1.32015 0.575225 0.0007085 1.34237 0.574765 0.0007085 1.32015 0.575225 0.117891 1.34237 0.574765 0.117891</float_array>
                    <technique_common>
                        <accessor count="101" source="#shape0-lib-positions-array" stride="3">
                            <param name="X" type="float"/>
                            <param name="Y" type="float"/>
                            <param name="Z" type="float"/>
                        </accessor>
                    </technique_common>
                </source>
                <source id="shape0-lib-normals" name="normal">
                    <float_array id="shape0-lib-normals-array" count="504">0.01868 -0.00134464 0.999825 0.0426123 0.00106058 0.999091 0.999985 0.00192072 0.00505723 0.999985 0.00193051 0.00507128 0.0358291 0.000767884 0.999358 -0.000991182 -0.00353173 0.999993 0 0 -1 0 0 -1 0.913335 -0.000805466 0.407208 -0.999985 -0.00192071 0.00505722 -0.999985 -0.00193122 0.00507229 0.999998 0.00192075 0 0.999973 0.00537981 0.00507116 0.00575032 0.00325823 0.999978 -0.0277141 -0.000755045 0.999616 0 0 -1 0 0 -1 -0.999985 -0.00192072 0.00505623 -0.999985 -0.00193052 0.00507029 0.999985 0.0019214 0.00505722 0.999985 0.00193121 0.00507129 0.00573562 0.000712502 0.999983 -0.0057356 -0.000711806 0.999983 0 0 -1 0 0 -1 -0.999985 -0.00192142 0.00505723 -0.999985 -0.00193121 0.00507128 0.999985 0.00192071 0.00505623 0.999985 0.00193121 0.00507129 0.00572925 0.000711622 0.999983 -0.00573209 -0.000711454 0.999983 0 0 -1 0 0 -1 -0.999985 -0.00192071 0.00505723 -0.999985 -0.00193051 0.00507129 0.999985 0.00192072 0.00505624 0.999985 0.00193121 0.00507128 0.00573067 0.000711798 0.999983 -0.00573348 -0.000711626 0.999983 -0.0207069 -0.999786 0 -0.0207065 -0.999786 7.61058e-08 -0.00324041 -0.999995 2.05265e-06 -0.00326338 -0.999995 -2.06878e-06 0.00328333 0.999995 -1.28656e-06 0.00327136 0.999995 8.7745e-07 -0.00325192 -0.999995 6.87119e-05 -0.00323907 -0.999995 3.72402e-06 -0.00325968 -0.999995 0 0.003243 0.999995 3.01521e-06 0.00324043 0.999995 3.47853e-06 -0.00328467 -0.999995 -1.28303e-06 -0.00326992 -0.999995 1.38251e-06 0.00324041 0.999995 2.98019e-06 0.00327134 0.999995 -2.60677e-06 -0.00328469 -0.999995 -2.02707e-06 -0.00326427 -0.999995 1.66321e-06 0.00328602 0.999995 -2.26949e-06 0.00326285 0.999995 1.91601e-06 -0.00324041 -0.999995 3.22932e-06 -0.00327132 -0.999995 -2.35454e-06 -0.999867 0.015483 0.00505729 -0.999867 0.0154725 0.00507232 -0.0121814 -0.00100006 0.999925 -0.00813366 -0.000570245 0.999967 0.999985 0.00192072 0.00505723 0.999985 0.00193052 0.00507128 0.0358333 0.000768152 0.999358 -0.000990117 -0.00353178 0.999993 0 0 -1 0 0 -1 0.913348 -0.0008051 0.407179 -0.999985 -0.00192071 0.00505722 -0.999985 -0.00193052 0.0050713 0.999998 0.00192075 0 0.999973 0.00537981 0.00507116 0.00574571 0.00325789 0.999978 -0.0277156 -0.000755029 0.999616 0 0 -1 0 0 -1 -0.999985 -0.00192072 0.00505723 -0.999985 -0.00193052 0.00507129 0.999985 0.00192071 0.00505722 0.999985 0.00193052 0.0050713 0.00573598 0.000712889 0.999983 -0.00573812 -0.000711768 0.999983 0 0 -1 0 0 -1 -0.999985 -0.00192072 0.00505624 -0.999985 -0.0019319 0.00507228 0.999985 0.00192071 0.00505624 0.999985 0.00193121 0.00507129 0.0057356 0.000711331 0.999983 -0.0057257 -0.000711749 0.999983 -0.913348 0.000850808 0.40718 -0.999998 -0.00192073 0 -0.999971 -0.00551692 0.00527222 -0.00652235 -0.00156112 0.999978 -0.0174223 -0.00280564 0.999844 -0.0207069 -0.999786 -3.48718e-07 -0.0207064 -0.999786 -2.59116e-07 -0.00324041 -0.999995 2.05587e-06 -0.0032634 -0.999995 -2.06888e-06 0.00328333 0.999995 -1.28656e-06 0.00327135 0.999995 8.7745e-07 -0.00325189 -0.999995 6.88552e-05 -0.00323907 -0.999995 3.72079e-06 -0.00325966 -0.999995 0 0.003243 0.999995 3.01199e-06 0.00324041 0.999995 3.47847e-06 -0.00328467 -0.999995 -1.27976e-06 -0.00326994 -0.999995 1.38243e-06 0.00324041 0.999995 2.98019e-06 0.00327132 0.999995 -2.60346e-06 -0.00328467 -0.999995 -2.02388e-06 -0.00326427 -0.999995 1.66321e-06 -0.00324041 -0.999995 0.000364905 -0.00526351 -0.999986 0 0 0 -1 0 0 -1 0.918693 -0.0119168 0.394793 -0.973097 0.0150691 0.229903 -0.895042 0.0177612 0.445627 -0.253517 0.00351327 0.967325 -0.99988 0.0154839 0 -0.99988 0.0154839 0 0.999863 -0.0155419 0.00570277 0.99981 -0.0195185 0 0 0 -1 0 0 -1 -0.740853 0.00114543 0.671666 -0.999971 -0.0075755 0 -0.999912 -0.0117842 0.00616368 0.0206962 0.999786 -6.05211e-05 0.0206833 0.999786 3.64684e-05 0.0206962 0.999786 0 0.0206962 0.999786 0 -0.0160557 -0.994223 0.106131 -0.0176839 -0.999536 -0.0248087 0.00165571 0.997802 -0.0662428 -0.0053024 0.999986 -4.03436e-05 -0.00551609 0.999985 0 0 0 -1 0 0 -1 0.918721 -0.011805 0.394731 0.999864 -0.0155413 0.00550303 0.999812 -0.0193783 0 0 0 -1 0 0 -1 -0.740832 0.00114573 0.67169 -0.999971 -0.0075755 0 -0.999912 -0.0117848 0.00616467 0 0 -1 0 0 -1 0.807765 -0.0015456 0.589503 0.865812 0.000737962 0.500369 0.999998 -0.00191343 0 0.999998 -0.00191343 0 0.0206893 0.999786 -6.52724e-05 0.0206962 0.999786 0 0.020697 0.999786 -1.4185e-07 0.00165553 0.997802 -0.0662415 -0.0053024 0.999986 -4.03436e-05 -0.00551609 0.999985 0 -0.025032 0.980693 0.193946 0.00456453 0.99999 -0.000347607 -0.0255165 0.999674 0 -0.0255165 0.999674 0 0.0197901 -0.976615 0.214083</float_array>
                    <technique_common>
                        <accessor count="168" source="#shape0-lib-normals-array" stride="3">
                            <param name="X" type="float"/>
                            <param name="Y" type="float"/>
                            <param name="Z" type="float"/>
                        </accessor>
                    </technique_common>
                </source>
                <source id="shape0-lib-vcolor" name="vcolor">
                    <float_array id="shape0-lib-vcolor-array" count="404">1 1 1 1 1 1 1 1 1 1 1 1 1 1 1 1 1 1 1 1 1 1 1 1 1 1 1 1 1 1 1 1 1 1 1 1 1 1 1 1 1 1 1 1 1 1 1 1 1 1 1 1 1 1 1 1 1 1 1 1 1 1 1 1 1 1 1 1 1 1 1 1 1 1 1 1 1 1 1 1 1 1 1 1 1 1 1 1 1 1 1 1 1 1 1 1 1 1 1 1 1 1 1 1 1 1 1 1 1 1 1 1 1 1 1 1 1 1 1 1 1 1 1 1 1 1 1 1 1 1 1 1 1 1 1 1 1 1 1 1 1 1 1 1 1 1 1 1 1 1 1 1 1 1 1 1 1 1 1 1 1 1 1 1 1 1 1 1 1 1 1 1 1 1 1 1 1 1 1 1 1 1 1 1 1 1 1 1 1 1 1 1 1 1 1 1 1 1 1 1 1 1 1 1 1 1 1 1 1 1 1 1 1 1 1 1 1 1 1 1 1 1 1 1 1 1 1 1 1 1 1 1 1 1 1 1 1 1 1 1 1 1 1 1 1 1 1 1 1 1 1 1 1 1 1 1 1 1 1 1 1 1 1 1 1 1 1 1 1 1 1 1 1 1 1 1 1 1 1 1 1 1 1 1 1 1 1 1 1 1 1 1 1 1 1 1 1 1 1 1 1 1 1 1 1 1 1 1 1 1 1 1 1 1 1 1 1 1 1 1 1 1 1 1 1 1 1 1 1 1 1 1 1 1 1 1 1 1 1 1 1 1 1 1 1 1 1 1 1 1 1 1 1 1 1 1 1 1 1 1 1 1 1 1 1 1 1 1 1 1 1 1 1 1 1 1 1 1 1 1 1 1 1 1 1 1 1 1 1 1 1 1 1 1 1 1 1 1 1 1 1 1 1 1</float_array>
                    <technique_common>
                        <accessor count="101" source="#shape0-lib-vcolor-array" stride="4">
                            <param name="R" type="float"/>
                            <param name="G" type="float"/>
                            <param name="B" type="float"/>
                            <param name="A" type="float"/>
                        </accessor>
                    </technique_common>
                </source>
                <source id="shape0-lib-map" name="map">
                    <float_array id="shape0-lib-map-array" count="1008">0.354823 0.745287 0.355554 0.810089 0.348908 0.81024 0.354823 0.745287 0.348908 0.81024 0.348397 0.745432 0.410156 0.515618 0.415469 0.515618 0.415469 0.527209 0.410156 0.515618 0.415469 0.527209 0.410156 0.527209 0.363864 0.74532 0.363754 0.810126 0.356951 0.810151 0.363864 0.74532 0.356951 0.810151 0.356692 0.745346 0.410893 0.307009 0.410845 0.332119 0.41406 0.332109 0.410893 0.307009 0.41406 0.332109 0.414107 0.306998 0.372302 0.74529 0.371967 0.810097 0.371811 0.745292 0.523844 0.501709 0.518531 0.501709 0.518531 0.490118 0.523844 0.501709 0.518531 0.490118 0.523844 0.490118 0.512156 0.490118 0.517469 0.490118 0.517469 0.501709 0.512156 0.490118 0.517469 0.501709 0.512156 0.501709 0.371811 0.745292 0.371967 0.810097 0.364769 0.810123 0.371811 0.745292 0.364769 0.810123 0.364879 0.745317 0.414465 0.306997 0.414417 0.332108 0.417631 0.332097 0.414465 0.306997 0.417631 0.332097 0.417679 0.306986 0.472844 0.501709 0.467531 0.501709 0.467531 0.490118 0.472844 0.501709 0.467531 0.490118 0.472844 0.490118 0.448406 0.490118 0.453719 0.490118 0.453719 0.501709 0.448406 0.490118 0.453719 0.501709 0.448406 0.501709 0.380572 0.745261 0.380462 0.810067 0.373264 0.810092 0.380572 0.745261 0.373264 0.810092 0.373374 0.745286 0.418036 0.306985 0.417988 0.332096 0.421203 0.332085 0.418036 0.306985 0.421203 0.332085 0.421251 0.306974 0.389969 0.501709 0.384656 0.501709 0.384656 0.490118 0.389969 0.501709 0.384656 0.490118 0.389969 0.490118 0.524906 0.515618 0.530219 0.515618 0.530219 0.527209 0.524906 0.515618 0.530219 0.527209 0.524906 0.527209 0.389067 0.74523 0.388958 0.810036 0.38176 0.810062 0.389067 0.74523 0.38176 0.810062 0.381869 0.745256 0.421608 0.306973 0.42156 0.332084 0.424775 0.332073 0.421608 0.306973 0.424775 0.332073 0.424822 0.306963 0.409094 0.501709 0.403781 0.501709 0.403781 0.490118 0.409094 0.501709 0.403781 0.490118 0.409094 0.490118 0.416531 0.528368 0.421844 0.528368 0.421844 0.539959 0.416531 0.528368 0.421844 0.539959 0.416531 0.539959 0.397563 0.7452 0.397453 0.810006 0.390255 0.810031 0.397563 0.7452 0.390255 0.810031 0.390365 0.745225 0.190342 0.35165 0.190342 0.31458 0.193906 0.31458 0.190342 0.35165 0.193906 0.31458 0.193906 0.35165 0.194543 0.35165 0.194543 0.31458 0.198108 0.31458 0.194543 0.35165 0.198108 0.31458 0.198108 0.35165 0.315516 0.544954 0.315516 0.513768 0.310184 0.513768 0.315516 0.544954 0.310184 0.513768 0.310184 0.544954 0.364879 0.745317 0.372302 0.74529 0.371811 0.745292 0.198372 0.35165 0.198372 0.31458 0.201936 0.31458 0.198372 0.35165 0.201936 0.31458 0.201936 0.35165 0.316108 0.513768 0.316108 0.544954 0.32144 0.544954 0.316108 0.513768 0.32144 0.544954 0.32144 0.513768 0.202332 0.35165 0.202332 0.31458 0.205897 0.31458 0.202332 0.35165 0.205897 0.31458 0.205897 0.35165 0.327364 0.544954 0.327364 0.513768 0.322032 0.513768 0.327364 0.544954 0.322032 0.513768 0.322032 0.544954 0.206293 0.35165 0.206293 0.31458 0.209858 0.31458 0.206293 0.35165 0.209858 0.31458 0.209858 0.35165 0.333289 0.544954 0.333289 0.513768 0.327957 0.513768 0.333289 0.544954 0.327957 0.513768 0.327957 0.544954 0.210254 0.35165 0.210254 0.31458 0.213819 0.31458 0.210254 0.35165 0.213819 0.31458 0.213819 0.35165 0.511094 0.578209 0.505781 0.578209 0.505781 0.566618 0.511094 0.578209 0.505781 0.566618 0.511094 0.566618 0.305289 0.745286 0.306002 0.810089 0.299026 0.810248 0.305289 0.745286 0.299026 0.810248 0.298105 0.745449 0.467531 0.528368 0.472844 0.528368 0.472844 0.539959 0.467531 0.528368 0.472844 0.539959 0.467531 0.539959 0.314312 0.74532 0.314202 0.810126 0.307399 0.810151 0.314312 0.74532 0.307399 0.810151 0.307141 0.745346 0.39006 0.307009 0.390013 0.332119 0.393227 0.332109 0.39006 0.307009 0.393227 0.332109 0.393275 0.306998 0.322751 0.74529 0.322415 0.810097 0.322259 0.745292 0.383594 0.501709 0.378281 0.501709 0.378281 0.490118 0.383594 0.501709 0.378281 0.490118 0.383594 0.490118 0.429281 0.490118 0.434594 0.490118 0.434594 0.501709 0.429281 0.490118 0.434594 0.501709 0.429281 0.501709 0.322259 0.745292 0.322415 0.810097 0.315217 0.810123 0.322259 0.745292 0.315217 0.810123 0.315328 0.745317 0.393632 0.306997 0.393584 0.332108 0.396799 0.332097 0.393632 0.306997 0.396799 0.332097 0.396847 0.306986 0.428219 0.501709 0.422906 0.501709 0.422906 0.490118 0.428219 0.501709 0.422906 0.490118 0.428219 0.490118 0.461156 0.490118 0.466469 0.490118 0.466469 0.501709 0.461156 0.490118 0.466469 0.501709 0.461156 0.501709 0.33102 0.745261 0.33091 0.810067 0.323713 0.810092 0.33102 0.745261 0.323713 0.810092 0.323822 0.745286 0.397204 0.306985 0.397156 0.332096 0.40037 0.332085 0.397204 0.306985 0.40037 0.332085 0.400418 0.306974 0.447344 0.501709 0.442031 0.501709 0.442031 0.490118 0.447344 0.501709 0.442031 0.490118 0.447344 0.490118 0.467531 0.515618 0.472844 0.515618 0.472844 0.527209 0.467531 0.515618 0.472844 0.527209 0.467531 0.527209 0.339516 0.74523 0.339406 0.810036 0.332208 0.810062 0.339516 0.74523 0.332208 0.810062 0.332318 0.745256 0.340478 0.810032 0.340828 0.745231 0.340969 0.81003 0.377219 0.514459 0.371906 0.514459 0.371906 0.502868 0.377219 0.514459 0.371906 0.502868 0.377219 0.502868 0.347781 0.745233 0.347585 0.809991 0.340969 0.81003 0.347781 0.745233 0.340969 0.81003 0.340828 0.745231 0.167239 0.35165 0.167239 0.31458 0.170803 0.31458 0.167239 0.35165 0.170803 0.31458 0.170803 0.35165 0.17144 0.35165 0.17144 0.31458 0.175005 0.31458 0.17144 0.35165 0.175005 0.31458 0.175005 0.35165 0.28096 0.544954 0.28096 0.513768 0.275628 0.513768 0.28096 0.544954 0.275628 0.513768 0.275628 0.544954 0.315328 0.745317 0.322751 0.74529 0.322259 0.745292 0.175269 0.35165 0.175269 0.31458 0.178834 0.31458 0.175269 0.35165 0.178834 0.31458 0.178834 0.35165 0.281553 0.513768 0.281553 0.544954 0.286885 0.544954 0.281553 0.513768 0.286885 0.544954 0.286885 0.513768 0.17923 0.35165 0.17923 0.31458 0.182794 0.31458 0.17923 0.35165 0.182794 0.31458 0.182794 0.35165 0.292809 0.544954 0.292809 0.513768 0.287477 0.513768 0.292809 0.544954 0.287477 0.513768 0.287477 0.544954 0.183191 0.35165 0.183191 0.31458 0.186755 0.31458 0.183191 0.35165 0.186755 0.31458 0.186755 0.35165 0.187151 0.35165 0.187151 0.31458 0.190716 0.31458 0.187151 0.35165 0.190716 0.31458 0.190716 0.35165 0.403652 0.307062 0.404038 0.33217 0.407252 0.332102 0.403652 0.307062 0.407252 0.332102 0.406866 0.306994 0.354823 0.745287 0.355996 0.810079 0.355554 0.810089 0.348352 0.810253 0.347434 0.745454 0.347716 0.745448 0.348352 0.810253 0.347716 0.745448 0.348908 0.81024 0.348908 0.81024 0.347716 0.745448 0.348397 0.745432 0.562094 0.578209 0.556781 0.578209 0.556781 0.566618 0.562094 0.578209 0.556781 0.566618 0.562094 0.566618 0.550406 0.572993 0.555719 0.572993 0.555719 0.584584 0.550406 0.572993 0.555719 0.584584 0.550406 0.584584 0.40744 0.30702 0.407393 0.332131 0.410607 0.33212 0.40744 0.30702 0.410607 0.33212 0.410655 0.307009 0.356331 0.810153 0.356692 0.745346 0.356951 0.810151 0.383594 0.514459 0.378281 0.514459 0.378281 0.502868 0.383594 0.514459 0.378281 0.502868 0.383594 0.502868 0.355554 0.810089 0.355996 0.810079 0.348352 0.810253 0.355554 0.810089 0.348352 0.810253 0.348908 0.81024 0.304223 0.544954 0.304223 0.513768 0.298893 0.513768 0.304223 0.544954 0.298893 0.513768 0.298893 0.544954 0.348397 0.745432 0.347716 0.745448 0.354823 0.745287 0.347716 0.745448 0.347434 0.745454 0.354823 0.745287 0.363754 0.810126 0.356331 0.810153 0.356951 0.810151 0.309789 0.544954 0.309789 0.513768 0.304457 0.513768 0.309789 0.544954 0.304457 0.513768 0.304457 0.544954 0.38282 0.307062 0.383206 0.33217 0.38642 0.332102 0.38282 0.307062 0.38642 0.332102 0.386033 0.306994 0.305289 0.745286 0.306445 0.810079 0.306002 0.810089 0.410156 0.579368 0.415469 0.579368 0.415469 0.590959 0.410156 0.579368 0.415469 0.590959 0.410156 0.590959 0.386608 0.30702 0.38656 0.332131 0.389775 0.33212 0.386608 0.30702 0.389775 0.33212 0.389822 0.307009 0.306779 0.810153 0.307141 0.745346 0.307399 0.810151 0.402719 0.501709 0.397406 0.501709 0.397406 0.490118 0.402719 0.501709 0.397406 0.490118 0.402719 0.490118 0.400775 0.306973 0.400728 0.332084 0.403942 0.332073 0.400775 0.306973 0.403942 0.332073 0.40399 0.306963 0.348237 0.745199 0.348123 0.810005 0.347585 0.809991 0.348237 0.745199 0.347585 0.809991 0.347781 0.745233 0.461156 0.515618 0.466469 0.515618 0.466469 0.527209 0.461156 0.515618 0.466469 0.527209 0.461156 0.527209 0.306002 0.810089 0.306445 0.810079 0.299026 0.810248 0.269668 0.544954 0.269668 0.513768 0.264337 0.513768 0.269668 0.544954 0.264337 0.513768 0.264337 0.544954 0.314202 0.810126 0.306779 0.810153 0.307399 0.810151 0.275233 0.544954 0.275233 0.513768 0.269901 0.513768 0.275233 0.544954 0.269901 0.513768 0.269901 0.544954 0.347585 0.809991 0.348123 0.810005 0.340478 0.810032 0.347585 0.809991 0.340478 0.810032 0.340969 0.81003 0.298733 0.544954 0.298733 0.513768 0.293401 0.513768 0.298733 0.544954 0.293401 0.513768 0.293401 0.544954 0.340828 0.745231 0.348237 0.745199 0.347781 0.745233</float_array>
                    <technique_common>
                        <accessor count="504" source="#shape0-lib-map-array" stride="2">
                            <param name="U" type="float"/>
                            <param name="V" type="float"/>
                        </accessor>
                    </technique_common>
                </source>
                <vertices id="shape0-lib-vertices">
                    <input semantic="POSITION" source="#shape0-lib-positions"/>
                </vertices>
                <triangles count="168" material="material0">
                    <input offset="0" semantic="VERTEX" source="#shape0-lib-vertices"/>
                    <input offset="1" semantic="COLOR" source="#shape0-lib-vcolor"/>
                    <input offset="2" semantic="NORMAL" source="#shape0-lib-normals"/>
                    <input offset="3" semantic="TEXCOORD" source="#shape0-lib-map"/>
                    <p>4 4 0 0 5 5 0 1 6 6 0 2 4 4 1 3 6 6 1 4 3 3 1 5 12 12 2 6 9 9 2 7 8 8 2 8 12 12 3 9 8 8 3 10 11 11 3 11 12 12 4 12 11 11 4 13 13 13 4 14 12 12 5 15 13 13 5 16 10 10 5 17 14 14 6 18 15 15 6 19 16 16 6 20 14 14 7 21 16 16 7 22 17 17 7 23 21 21 8 24 20 20 8 25 22 22 8 26 19 19 9 27 15 15 9 28 14 14 9 29 19 19 10 30 14 14 10 31 18 18 10 32 21 21 11 33 17 17 11 34 16 16 11 35 21 21 12 36 16 16 12 37 20 20 12 38 22 22 13 39 20 20 13 40 19 19 13 41 22 22 14 42 19 19 14 43 18 18 14 44 23 23 15 45 24 24 15 46 25 25 15 47 23 23 16 48 25 25 16 49 26 26 16 50 28 28 17 51 24 24 17 52 23 23 17 53 28 28 18 54 23 23 18 55 27 27 18 56 30 30 19 57 26 26 19 58 25 25 19 59 30 30 20 60 25 25 20 61 29 29 20 62 30 30 21 63 29 29 21 64 28 28 21 65 30 30 22 66 28 28 22 67 27 27 22 68 31 31 23 69 32 32 23 70 33 33 23 71 31 31 24 72 33 33 24 73 34 34 24 74 36 36 25 75 32 32 25 76 31 31 25 77 36 36 26 78 31 31 26 79 35 35 26 80 38 38 27 81 34 34 27 82 33 33 27 83 38 38 28 84 33 33 28 85 37 37 28 86 38 38 29 87 37 37 29 88 36 36 29 89 38 38 30 90 36 36 30 91 35 35 30 92 39 39 31 93 40 40 31 94 41 41 31 95 39 39 32 96 41 41 32 97 42 42 32 98 44 44 33 99 40 40 33 100 39 39 33 101 44 44 34 102 39 39 34 103 43 43 34 104 46 46 35 105 42 42 35 106 41 41 35 107 46 46 36 108 41 41 36 109 45 45 36 110 46 46 37 111 45 45 37 112 44 44 37 113 46 46 38 114 44 44 38 115 43 43 38 116 2 2 39 117 0 0 39 118 1 1 39 119 2 2 40 120 1 1 40 121 4 4 40 122 10 10 41 123 7 7 41 124 9 9 41 125 10 10 42 126 9 9 42 127 12 12 42 128 20 20 43 129 16 16 43 130 15 15 43 131 20 20 44 132 15 15 44 133 19 19 44 134 18 18 45 135 21 21 45 136 22 22 45 137 18 18 46 138 14 14 46 139 17 17 46 140 18 18 47 141 17 17 47 142 21 21 47 143 24 24 48 144 28 28 48 145 29 29 48 146 24 24 49 147 29 29 49 148 25 25 49 149 27 27 50 150 23 23 50 151 26 26 50 152 27 27 51 153 26 26 51 154 30 30 51 155 37 37 52 156 33 33 52 157 32 32 52 158 37 37 53 159 32 32 53 160 36 36 53 161 35 35 54 162 31 31 54 163 34 34 54 164 35 35 55 165 34 34 55 166 38 38 55 167 45 45 56 168 41 41 56 169 40 40 56 170 45 45 57 171 40 40 57 172 44 44 57 173 43 43 58 174 39 39 58 175 42 42 58 176 43 43 59 177 42 42 59 178 46 46 59 179 51 51 60 180 48 48 60 181 47 47 60 182 51 51 61 183 47 47 61 184 50 50 61 185 52 52 62 186 53 53 62 187 51 51 62 188 52 52 63 189 51 51 63 190 50 50 63 191 59 59 64 192 56 56 64 193 55 55 64 194 59 59 65 195 55 55 65 196 58 58 65 197 59 59 66 198 58 58 66 199 60 60 66 200 59 59 67 201 60 60 67 202 57 57 67 203 61 61 68 204 62 62 68 205 63 63 68 206 61 61 69 207 63 63 69 208 64 64 69 209 68 68 70 210 67 67 70 211 69 69 70 212 66 66 71 213 62 62 71 214 61 61 71 215 66 66 72 216 61 61 72 217 65 65 72 218 68 68 73 219 64 64 73 220 63 63 73 221 68 68 74 222 63 63 74 223 67 67 74 224 69 69 75 225 67 67 75 226 66 66 75 227 69 69 76 228 66 66 76 229 65 65 76 230 70 70 77 231 71 71 77 232 72 72 77 233 70 70 78 234 72 72 78 235 73 73 78 236 75 75 79 237 71 71 79 238 70 70 79 239 75 75 80 240 70 70 80 241 74 74 80 242 77 77 81 243 73 73 81 244 72 72 81 245 77 77 82 246 72 72 82 247 76 76 82 248 77 77 83 249 76 76 83 250 75 75 83 251 77 77 84 252 75 75 84 253 74 74 84 254 78 78 85 255 79 79 85 256 80 80 85 257 78 78 86 258 80 80 86 259 81 81 86 260 83 83 87 261 79 79 87 262 78 78 87 263 83 83 88 264 78 78 88 265 82 82 88 266 85 85 89 267 81 81 89 268 80 80 89 269 85 85 90 270 80 80 90 271 84 84 90 272 85 85 91 273 84 84 91 274 83 83 91 275 85 85 92 276 83 83 92 277 82 82 92 278 90 90 93 279 89 89 93 280 93 93 93 281 90 90 94 282 87 87 94 283 86 86 94 284 90 90 95 285 86 86 95 286 89 89 95 287 94 94 96 288 92 92 96 289 93 93 96 290 94 94 97 291 93 93 97 292 89 89 97 293 50 50 98 294 47 47 98 295 49 49 98 296 50 50 99 297 49 49 99 298 52 52 99 299 57 57 100 300 54 54 100 301 56 56 100 302 57 57 101 303 56 56 101 304 59 59 101 305 67 67 102 306 63 63 102 307 62 62 102 308 67 67 103 309 62 62 103 310 66 66 103 311 65 65 104 312 68 68 104 313 69 69 104 314 65 65 105 315 61 61 105 316 64 64 105 317 65 65 106 318 64 64 106 319 68 68 106 320 71 71 107 321 75 75 107 322 76 76 107 323 71 71 108 324 76 76 108 325 72 72 108 326 74 74 109 327 70 70 109 328 73 73 109 329 74 74 110 330 73 73 110 331 77 77 110 332 84 84 111 333 80 80 111 334 79 79 111 335 84 84 112 336 79 79 112 337 83 83 112 338 82 82 113 339 78 78 113 340 81 81 113 341 82 82 114 342 81 81 114 343 85 85 114 344 89 89 115 345 86 86 115 346 88 88 115 347 89 89 116 348 88 88 116 349 91 91 116 350 0 0 117 351 97 97 117 352 98 98 117 353 0 0 118 354 98 98 118 355 1 1 118 356 4 4 119 357 100 100 119 358 5 5 119 359 99 99 120 360 2 2 120 361 94 94 120 362 99 99 121 363 94 94 121 364 6 6 121 365 6 6 122 366 94 94 122 367 3 3 122 368 99 99 123 369 97 97 123 370 0 0 123 371 99 99 124 372 0 0 124 373 2 2 124 374 4 4 125 375 1 1 125 376 98 98 125 377 4 4 126 378 98 98 126 379 100 100 126 380 7 7 127 381 98 98 127 382 8 8 127 383 7 7 128 384 8 8 128 385 9 9 128 386 100 100 129 387 10 10 129 388 13 13 129 389 100 100 130 390 98 98 130 391 7 7 130 392 100 100 131 393 7 7 131 394 10 10 131 395 5 5 132 396 100 100 132 397 99 99 132 398 5 5 133 399 99 99 133 400 6 6 133 401 100 100 134 402 98 98 134 403 97 97 134 404 100 100 135 405 97 97 135 406 99 99 135 407 3 3 136 408 94 94 136 409 4 4 136 410 94 94 137 411 2 2 137 412 4 4 137 413 11 11 138 414 100 100 138 415 13 13 138 416 11 11 139 417 8 8 139 418 98 98 139 419 11 11 140 420 98 98 140 421 100 100 140 422 47 47 141 423 48 48 141 424 95 95 141 425 47 47 142 426 95 95 142 427 49 49 142 428 52 52 143 429 96 96 143 430 53 53 143 431 52 52 144 432 49 49 144 433 95 95 144 434 52 52 145 435 95 95 145 436 96 96 145 437 54 54 146 438 95 95 146 439 55 55 146 440 54 54 147 441 55 55 147 442 56 56 147 443 96 96 148 444 57 57 148 445 60 60 148 446 96 96 149 447 95 95 149 448 54 54 149 449 96 96 150 450 54 54 150 451 57 57 150 452 86 86 151 453 87 87 151 454 97 97 151 455 86 86 152 456 97 97 152 457 88 88 152 458 91 91 153 459 99 99 153 460 92 92 153 461 91 91 154 462 92 92 154 463 94 94 154 464 91 91 155 465 88 88 155 466 97 97 155 467 91 91 156 468 97 97 156 469 99 99 156 470 53 53 157 471 96 96 157 472 51 51 157 473 96 96 158 474 95 95 158 475 48 48 158 476 96 96 159 477 48 48 159 478 51 51 159 479 58 58 160 480 96 96 160 481 60 60 160 482 58 58 161 483 55 55 161 484 95 95 161 485 58 58 162 486 95 95 162 487 96 96 162 488 92 92 163 489 99 99 163 490 90 90 163 491 92 92 164 492 90 90 164 493 93 93 164 494 99 99 165 495 97 97 165 496 87 87 165 497 99 99 166 498 87 87 166 499 90 90 166 500 89 89 167 501 91 91 167 502 94 94 167 503</p>
                </triangles>
            </mesh>
        </geometry>
    </library_geometries>
    <library_visual_scenes>
        <visual_scene id="VisualSceneNode" name="VisualScene">
            <node id="node" name="node">
                <instance_geometry url="#shape0-lib">
                    <bind_material>
                        <technique_common>
                            <instance_material symbol="material0" target="#material0">
                                <bind_vertex_input semantic="UVSET0" input_semantic="TEXCOORD"/>
                            </instance_material>
                        </technique_common>
                    </bind_material>
                </instance_geometry>
            </node>
        </visual_scene>
    </library_visual_scenes>
    <scene>
        <instance_visual_scene url="#VisualSceneNode"/>
    </scene>
</COLLADA>
