<?xml version="1.0" encoding="UTF-8"?>
<COLLADA xmlns="http://www.collada.org/2005/11/COLLADASchema" version="1.4.1">
    <asset>
        <contributor>
            <author>VCGLab</author>
            <authoring_tool>VCGLib | MeshLab</authoring_tool>
        </contributor>
        <created>Thu Jul 3 02:06:11 2025 GMT</created>
        <modified>Thu Jul 3 02:06:11 2025 GMT</modified>
        <up_axis>Y_UP</up_axis>
    </asset>
    <library_images>
        <image id="texture0" name="texture0">
            <init_from>./image/shelf_books.png</init_from>
        </image>
    </library_images>
    <library_materials>
        <material id="material0" name="material0">
            <instance_effect url="#material0-fx"/>
        </material>
    </library_materials>
    <library_effects>
        <effect id="material0-fx">
            <profile_COMMON>
                <newparam sid="texture0-surface">
                    <surface type="2D">
                        <init_from>texture0</init_from>
                        <format>R8G8B8</format>
                    </surface>
                </newparam>
                <newparam sid="texture0-sampler">
                    <sampler2D>
                        <source>texture0-surface</source>
                        <minfilter>LINEAR</minfilter>
                        <magfilter>LINEAR</magfilter>
                    </sampler2D>
                </newparam>
                <technique sid="common">
                    <blinn>
                        <diffuse>
                            <texture texture="texture0-sampler" texcoord="UVSET0"/>
                        </diffuse>
                    </blinn>
                </technique>
            </profile_COMMON>
        </effect>
    </library_effects>
    <library_geometries>
        <geometry id="shape0-lib" name="shape0">
            <mesh>
                <source id="shape0-lib-positions" name="position">
                    <float_array id="shape0-lib-positions-array" count="57">-0.164462 0.00593933 0.13416 -0.16446 0.0241613 0.134287 0.1685 0.0013898 0.129493 0.168505 0.0281913 0.129871 -0.164458 0.00129177 0.134817 -0.164464 0.0289938 0.13431 0.164005 0.0282703 -0.128392 -0.168944 0.0264431 -0.12258 0.164005 0.0029788 -0.128392 -0.168944 0.0024086 -0.12258 0.168451 0.00508342 0.126334 0.168455 0.0247901 0.126591 0.160228 0.0239879 -0.126066 -0.160672 0.00616427 0.132605 0.164629 0.0241598 0.126144 0.164646 0.0066153 0.127013 -0.16067 0.0233003 0.132691 -0.165074 0.0112162 -0.119468 0.160223 0.00602566 -0.126375</float_array>
                    <technique_common>
                        <accessor count="19" source="#shape0-lib-positions-array" stride="3">
                            <param name="X" type="float"/>
                            <param name="Y" type="float"/>
                            <param name="Z" type="float"/>
                        </accessor>
                    </technique_common>
                </source>
                <source id="shape0-lib-normals" name="normal">
                    <float_array id="shape0-lib-normals-array" count="90">0.01579 0.139847 0.990047 0.0133174 -0.00471688 0.9999 0.000224972 -0.999991 -0.00434282 0.00160449 -0.99998 -0.00618951 0.0133445 -0.00696317 0.999887 0.0138228 -0.0141366 0.999805 -0.00565927 0.999936 -0.00982976 0.00241354 0.999997 0.000263902 -0.00185616 0.999964 -0.00822959 0.00224656 0.999902 -0.01379 -0.0234662 0.0130605 -0.999639 -0.0231226 0.00696304 -0.999708 0.00168267 -0.999959 -0.00891222 0.00524761 -0.999892 -0.013739 0.00104139 -0.999798 -0.0200558 -0.015899 -0.99987 0.00260422 -0.0401416 0.998082 -0.0471296 -0.00265507 0.999996 -0.000635462 0.0199665 0.0494677 0.998576 -0.020951 0.0171727 -0.999633 -0.999848 4.47635e-06 0.0174608 0.0171939 -0.00502259 0.99984 0.999848 2.42962e-05 -0.0174505 -0.999847 0.0014939 0.0174328 -0.999848 -0.000813154 0.0174456 0.999846 0.00217343 -0.0174203 0.999879 4.40686e-05 -0.0155435 0.999885 -1.60959e-05 -0.0151506 0.999847 -0.00157626 -0.0174378 0.999848 7.18446e-05 -0.0174472</float_array>
                    <technique_common>
                        <accessor count="30" source="#shape0-lib-normals-array" stride="3">
                            <param name="X" type="float"/>
                            <param name="Y" type="float"/>
                            <param name="Z" type="float"/>
                        </accessor>
                    </technique_common>
                </source>
                <source id="shape0-lib-vcolor" name="vcolor">
                    <float_array id="shape0-lib-vcolor-array" count="76">1 1 1 1 1 1 1 1 1 1 1 1 1 1 1 1 1 1 1 1 1 1 1 1 1 1 1 1 1 1 1 1 1 1 1 1 1 1 1 1 1 1 1 1 1 1 1 1 1 1 1 1 1 1 1 1 1 1 1 1 1 1 1 1 1 1 1 1 1 1 1 1 1 1 1 1</float_array>
                    <technique_common>
                        <accessor count="19" source="#shape0-lib-vcolor-array" stride="4">
                            <param name="R" type="float"/>
                            <param name="G" type="float"/>
                            <param name="B" type="float"/>
                            <param name="A" type="float"/>
                        </accessor>
                    </technique_common>
                </source>
                <source id="shape0-lib-map" name="map">
                    <float_array id="shape0-lib-map-array" count="180">0.968413 0.815565 0.718839 0.818293 0.718715 0.814799 0.968425 0.84083 0.718703 0.841862 0.718839 0.838257 0.847053 0.675695 0.816428 0.677593 0.814787 0.656787 0.847053 0.675695 0.814787 0.656787 0.845412 0.654888 0.968425 0.84083 0.718839 0.838257 0.718839 0.818293 0.968425 0.84083 0.718839 0.818293 0.968413 0.815565 0.782548 0.654888 0.813173 0.656787 0.811532 0.677593 0.782548 0.654888 0.811532 0.677593 0.780907 0.675695 0.848667 0.675673 0.850289 0.654888 0.880933 0.656808 0.848667 0.675673 0.880933 0.656808 0.879311 0.677593 0.741548 0.199959 0.741547 0.195607 0.675365 0.195638 0.741548 0.199959 0.675365 0.195638 0.675364 0.199943 0.914813 0.675673 0.884169 0.677593 0.882547 0.656808 0.914813 0.675673 0.882547 0.656808 0.913191 0.654888 0.702885 0.299742 0.683118 0.300958 0.682055 0.287578 0.702885 0.299742 0.682055 0.287578 0.701821 0.286362 0.704781 0.286362 0.724548 0.287578 0.723485 0.300958 0.704781 0.286362 0.723485 0.300958 0.703718 0.299742 0.688356 0.144445 0.753492 0.141083 0.75348 0.144776 0.933881 0.473698 0.933877 0.466962 0.822548 0.4699 0.937832 0.257971 0.938 0.264441 0.82872 0.260384 0.753492 0.141083 0.688356 0.144445 0.688357 0.140477 0.931055 0.362572 0.821451 0.361058 0.821612 0.368407 0.654584 0.533867 0.715145 0.533314 0.714959 0.535423 0.715057 0.546108 0.654584 0.545168 0.714981 0.543938 0.651534 0.545635 0.590772 0.545684 0.59154 0.544112 0.590772 0.545684 0.590838 0.533506 0.591584 0.535175 0.590772 0.545684 0.591584 0.535175 0.59154 0.544112 0.590838 0.533506 0.651534 0.534012 0.591584 0.535175 0.931055 0.362572 0.821612 0.368407 0.929706 0.370298</float_array>
                    <technique_common>
                        <accessor count="90" source="#shape0-lib-map-array" stride="2">
                            <param name="U" type="float"/>
                            <param name="V" type="float"/>
                        </accessor>
                    </technique_common>
                </source>
                <vertices id="shape0-lib-vertices">
                    <input semantic="POSITION" source="#shape0-lib-positions"/>
                </vertices>
                <triangles count="30" material="material0">
                    <input offset="0" semantic="VERTEX" source="#shape0-lib-vertices"/>
                    <input offset="1" semantic="COLOR" source="#shape0-lib-vcolor"/>
                    <input offset="2" semantic="NORMAL" source="#shape0-lib-normals"/>
                    <input offset="3" semantic="TEXCOORD" source="#shape0-lib-map"/>
                    <p>2 2 0 0 0 0 0 1 4 4 0 2 3 3 1 3 5 5 1 4 1 1 1 5 2 2 2 6 4 4 2 7 9 9 2 8 2 2 3 9 9 9 3 10 8 8 3 11 3 3 4 12 1 1 4 13 0 0 4 14 3 3 5 15 0 0 5 16 2 2 5 17 6 6 6 18 7 7 6 19 5 5 6 20 6 6 7 21 5 5 7 22 3 3 7 23 10 10 8 24 8 8 8 25 9 9 8 26 10 10 9 27 9 9 9 28 0 0 9 29 11 11 10 30 10 10 10 31 0 0 10 32 11 11 11 33 0 0 11 34 1 1 11 35 11 11 12 36 1 1 12 37 7 7 12 38 11 11 13 39 7 7 13 40 6 6 13 41 15 15 14 42 13 13 14 43 17 17 14 44 15 15 15 45 17 17 15 46 18 18 15 47 12 12 16 48 17 17 16 49 16 16 16 50 12 12 17 51 16 16 17 52 14 14 17 53 16 16 18 54 15 15 18 55 14 14 18 56 12 12 19 57 18 18 19 58 17 17 19 59 13 13 20 60 16 16 20 61 17 17 20 62 15 15 21 63 16 16 21 64 13 13 21 65 15 15 22 66 18 18 22 67 12 12 22 68 9 9 23 69 4 4 23 70 0 0 23 71 5 5 24 72 7 7 24 73 1 1 24 74 6 6 25 75 3 3 25 76 11 11 25 77 3 3 26 78 2 2 26 79 10 10 26 80 3 3 27 81 10 10 27 82 11 11 27 83 2 2 28 84 8 8 28 85 10 10 28 86 15 15 29 87 12 12 29 88 14 14 29 89</p>
                </triangles>
            </mesh>
        </geometry>
    </library_geometries>
    <library_visual_scenes>
        <visual_scene id="VisualSceneNode" name="VisualScene">
            <node id="node" name="node">
                <instance_geometry url="#shape0-lib">
                    <bind_material>
                        <technique_common>
                            <instance_material symbol="material0" target="#material0">
                                <bind_vertex_input semantic="UVSET0" input_semantic="TEXCOORD"/>
                            </instance_material>
                        </technique_common>
                    </bind_material>
                </instance_geometry>
            </node>
        </visual_scene>
    </library_visual_scenes>
    <scene>
        <instance_visual_scene url="#VisualSceneNode"/>
    </scene>
</COLLADA>
